<svg width="21" height="20" viewBox="0 0 21 20" fill="none" xmlns="http://www.w3.org/2000/svg">
<path d="M20.2803 9.25925C20.2803 10.978 19.7725 12.3452 18.7568 13.3608C17.6631 14.4546 16.2178 15.0014 14.3428 15.0014C13.6396 15.0014 13.1318 14.9233 12.8193 14.728C12.3506 14.4936 12.1162 14.103 12.0381 13.5171C11.6475 14.0249 11.1787 14.4155 10.6318 14.728C10.0459 15.0405 9.45996 15.1967 8.91309 15.1967C7.74121 15.1967 6.84277 14.8452 6.21777 14.103C5.59277 13.3999 5.28027 12.4233 5.28027 11.2124C5.28027 10.0796 5.51465 9.06393 5.9834 8.12643C6.45215 7.228 7.11621 6.52487 7.93652 6.01706C8.71777 5.50925 9.61621 5.23581 10.5537 5.23581C11.1006 5.23581 11.6084 5.353 12.0771 5.54831C12.5068 5.78268 12.8584 6.05612 13.0928 6.44675L13.1709 5.89987C13.1709 5.78268 13.249 5.70456 13.3271 5.62643C13.4053 5.54831 13.5225 5.50925 13.6396 5.50925H15.1631C15.3193 5.50925 15.4365 5.58737 15.5146 5.70456C15.5928 5.82175 15.6318 5.93893 15.6318 6.05612L14.5381 11.8764C14.4209 12.3061 14.4209 12.6186 14.499 12.8139C14.5771 13.0092 14.7725 13.0874 15.1631 13.0874C16.0225 13.0874 16.7646 12.7749 17.3896 12.1108C18.0537 11.4077 18.4053 10.4311 18.4053 9.25925C18.4053 7.853 18.0146 6.64206 17.3115 5.54831C16.6475 4.53268 15.71 3.75143 14.5381 3.20456C13.3271 2.65768 11.999 2.38425 10.5928 2.38425C9.18652 2.38425 7.8584 2.73581 6.68652 3.43893C5.47559 4.14206 4.53809 5.11862 3.83496 6.2905C3.13184 7.50143 2.78027 8.7905 2.78027 10.1967C2.78027 11.603 3.13184 12.9311 3.83496 14.103C4.53809 15.3139 5.47559 16.2514 6.68652 16.9546C7.8584 17.6577 9.18652 18.0092 10.5928 18.0092C12.2725 18.0092 13.7959 17.5405 15.2021 16.5249C15.2803 16.4467 15.3584 16.4467 15.5146 16.4467C15.6318 16.4467 15.749 16.5249 15.8271 16.603L16.4131 17.3061C16.4912 17.4233 16.4912 17.5405 16.4912 17.6967C16.4912 17.853 16.4131 17.9311 16.335 18.0092C15.4756 18.6342 14.5771 19.103 13.6006 19.4155C12.624 19.728 11.6084 19.8842 10.5928 19.8842C8.83496 19.8842 7.2334 19.4546 5.74902 18.5952C4.26465 17.7358 3.05371 16.5249 2.19434 15.0405C1.33496 13.5561 0.905273 11.9546 0.905273 10.1967C0.905273 8.478 1.33496 6.83737 2.19434 5.353C3.05371 3.86862 4.26465 2.69675 5.74902 1.83737C7.2334 0.977997 8.83496 0.509247 10.6318 0.509247C12.3896 0.509247 13.9912 0.899872 15.4756 1.603C16.96 2.34518 18.0928 3.36081 18.9521 4.61081C19.8115 5.978 20.2803 7.5405 20.2803 9.25925ZM9.57715 13.0483C10.3584 13.0483 11.0225 12.6967 11.6084 11.9546C12.1943 11.2124 12.5068 10.353 12.5068 9.37643C12.5068 8.7905 12.3506 8.32175 12.0381 7.93112C11.7256 7.57956 11.2568 7.38425 10.71 7.38425C10.2412 7.38425 9.77246 7.5405 9.34277 7.853C8.87402 8.1655 8.52246 8.55612 8.24902 9.103C7.93652 9.68893 7.81934 10.3139 7.81934 11.0171C7.81934 11.6811 7.97559 12.1889 8.28809 12.5405C8.60059 12.8921 9.03027 13.0483 9.57715 13.0483Z" fill="#363636"/>
</svg>
