<svg width="44" height="45" viewBox="0 0 44 45" fill="none" xmlns="http://www.w3.org/2000/svg">
<path d="M43.7968 20.2533C43.7968 8.30022 34.1288 0.565842 21.9999 0.565842C9.87101 0.565842 0.203043 10.3217 0.203043 22.3627C0.203043 34.4916 9.87101 44.1596 21.9999 44.1596C26.5702 44.1596 31.1405 42.6655 34.9198 39.9408C35.3593 39.5893 35.4472 38.8862 35.0956 38.4467L33.6894 36.7768C33.3378 36.3373 32.7226 36.3373 32.2831 36.601C29.2948 38.7983 25.6913 39.9408 21.9999 39.9408C12.2441 39.9408 4.42179 32.1186 4.42179 22.3627C4.42179 12.6947 12.2441 4.78459 21.9999 4.78459C31.58 4.78459 39.578 10.5854 39.578 20.2533C39.578 25.8783 35.7987 28.9545 32.1952 28.9545C30.5253 28.9545 30.4374 27.8119 30.789 26.142L33.3378 13.1342C33.4257 12.4311 32.8984 11.8158 32.2831 11.8158H28.8554C28.328 11.9037 27.8886 12.2553 27.8007 12.6947C27.7128 13.2221 27.6249 13.4858 27.6249 13.9252C26.5702 12.2553 24.4609 11.2006 21.912 11.2006C15.5839 11.2006 10.0468 16.7377 10.0468 24.6479C10.0468 30.0092 12.8593 33.6127 18.2206 33.6127C20.7694 33.6127 23.5819 32.1186 25.164 29.9213C25.6034 32.6459 27.7128 33.2612 30.4374 33.2612C39.1386 33.2612 43.7968 27.6362 43.7968 20.2533ZM19.7148 28.8666C17.1659 28.8666 15.6718 27.1088 15.6718 24.2963C15.6718 19.1987 19.1874 16.0346 22.2636 16.0346C24.9003 16.0346 26.2187 17.9682 26.2187 20.6049C26.2187 24.7358 23.3183 28.8666 19.7148 28.8666Z" fill="#2D86DA"/>
</svg>
