<svg width="45" height="45" viewBox="0 0 45 45" fill="none" xmlns="http://www.w3.org/2000/svg">
<path d="M44.288 20.2533C44.288 24.1205 43.1454 27.1967 40.8603 29.4819C38.3993 31.9428 35.1474 33.1733 30.9286 33.1733C29.3466 33.1733 28.204 32.9975 27.5009 32.558C26.4462 32.0307 25.9189 31.1518 25.7431 29.8334C24.8642 30.976 23.8095 31.8549 22.579 32.558C21.2607 33.2612 19.9423 33.6127 18.7118 33.6127C16.0751 33.6127 14.0536 32.8217 12.6474 31.1518C11.2411 29.5697 10.538 27.3725 10.538 24.6479C10.538 22.099 11.0653 19.8139 12.12 17.7045C13.1747 15.683 14.6689 14.101 16.5146 12.9584C18.2724 11.8158 20.2939 11.2006 22.4032 11.2006C23.6337 11.2006 24.7763 11.4643 25.831 11.9037C26.7978 12.4311 27.5888 13.0463 28.1161 13.9252L28.2919 12.6947C28.2919 12.4311 28.4677 12.2553 28.6435 12.0795C28.8193 11.9037 29.0829 11.8158 29.3466 11.8158H32.7743C33.1259 11.8158 33.3896 11.9916 33.5653 12.2553C33.7411 12.519 33.829 12.7826 33.829 13.0463L31.3681 26.142C31.1044 27.1088 31.1044 27.8119 31.2802 28.2514C31.456 28.6908 31.8954 28.8666 32.7743 28.8666C34.7079 28.8666 36.3778 28.1635 37.7841 26.6694C39.2782 25.0873 40.0693 22.8901 40.0693 20.2533C40.0693 17.0893 39.1903 14.3647 37.6083 11.9037C36.1142 9.61858 34.0048 7.86076 31.3681 6.63029C28.6435 5.39983 25.6552 4.78459 22.4911 4.78459C19.3271 4.78459 16.3388 5.57561 13.7021 7.15764C10.9775 8.73967 8.86808 10.9369 7.28605 13.5737C5.70402 16.2983 4.913 19.1987 4.913 22.3627C4.913 25.5268 5.70402 28.5151 7.28605 31.1518C8.86808 33.8764 10.9775 35.9858 13.7021 37.5678C16.3388 39.1498 19.3271 39.9408 22.4911 39.9408C26.2704 39.9408 29.6982 38.8862 32.8622 36.601C33.038 36.4252 33.2138 36.4252 33.5653 36.4252C33.829 36.4252 34.0927 36.601 34.2685 36.7768L35.5868 38.3588C35.7626 38.6225 35.7626 38.8862 35.7626 39.2377C35.7626 39.5893 35.5868 39.7651 35.4111 39.9408C33.4775 41.3471 31.456 42.4018 29.2587 43.1049C27.0614 43.808 24.7763 44.1596 22.4911 44.1596C18.5361 44.1596 14.9325 43.1928 11.5927 41.2592C8.25285 39.3256 5.52824 36.601 3.59464 33.2612C1.66105 29.9213 0.694254 26.3178 0.694254 22.3627C0.694254 18.4955 1.66105 14.8041 3.59464 11.4643C5.52824 8.12444 8.25285 5.48772 11.5927 3.55412C14.9325 1.62053 18.5361 0.565842 22.579 0.565842C26.5341 0.565842 30.1376 1.44475 33.4775 3.02678C36.8173 4.6967 39.3661 6.98186 41.2997 9.79436C43.2333 12.8705 44.288 16.3862 44.288 20.2533ZM20.206 28.7787C21.9638 28.7787 23.4579 27.9877 24.7763 26.3178C26.0946 24.6479 26.7978 22.7143 26.7978 20.517C26.7978 19.1987 26.4462 18.144 25.7431 17.2651C25.04 16.474 23.9853 16.0346 22.7548 16.0346C21.7001 16.0346 20.6454 16.3862 19.6786 17.0893C18.6239 17.7924 17.8329 18.6713 17.2177 19.9018C16.5146 21.2201 16.2509 22.6264 16.2509 24.2084C16.2509 25.7026 16.6025 26.8451 17.3056 27.6362C18.0087 28.4272 18.9755 28.7787 20.206 28.7787Z" fill="#2D86DA"/>
</svg>
