<svg width="26" height="18" viewBox="0 0 26 18" fill="none" xmlns="http://www.w3.org/2000/svg">
<path d="M21.3428 7.93869C20.4834 7.93869 19.7412 7.66525 19.1162 7.04025C18.4912 6.41525 18.2178 5.67307 18.2178 4.81369C18.2178 3.95432 18.4912 3.25119 19.1162 2.62619C19.7412 2.00119 20.4834 1.68869 21.3428 1.68869C22.2021 1.68869 22.9053 2.00119 23.5303 2.62619C24.1553 3.25119 24.4678 3.95432 24.4678 4.81369C24.4678 5.67307 24.1553 6.41525 23.5303 7.04025C22.9053 7.66525 22.2021 7.93869 21.3428 7.93869ZM21.3428 3.56369C20.9912 3.56369 20.6787 3.71994 20.4443 3.95432C20.21 4.18869 20.0928 4.50119 20.0928 4.81369C20.0928 5.16525 20.21 5.47775 20.4443 5.71213C20.6787 5.9465 20.9912 6.06369 21.3428 6.06369C21.6553 6.06369 21.9678 5.9465 22.2021 5.71213C22.4365 5.47775 22.5928 5.16525 22.5928 4.81369C22.5928 4.50119 22.4365 4.18869 22.2021 3.95432C21.9678 3.71994 21.6553 3.56369 21.3428 3.56369ZM3.84277 7.93869C2.9834 7.93869 2.24121 7.66525 1.61621 7.04025C0.991211 6.41525 0.717773 5.67307 0.717773 4.81369C0.717773 3.95432 0.991211 3.25119 1.61621 2.62619C2.24121 2.00119 2.9834 1.68869 3.84277 1.68869C4.70215 1.68869 5.40527 2.00119 6.03027 2.62619C6.65527 3.25119 6.96777 3.95432 6.96777 4.81369C6.96777 5.67307 6.65527 6.41525 6.03027 7.04025C5.40527 7.66525 4.70215 7.93869 3.84277 7.93869ZM3.84277 3.56369C3.49121 3.56369 3.17871 3.71994 2.94434 3.95432C2.70996 4.18869 2.59277 4.50119 2.59277 4.81369C2.59277 5.16525 2.70996 5.47775 2.94434 5.71213C3.17871 5.9465 3.49121 6.06369 3.84277 6.06369C4.15527 6.06369 4.46777 5.9465 4.70215 5.71213C4.93652 5.47775 5.09277 5.16525 5.09277 4.81369C5.09277 4.50119 4.93652 4.18869 4.70215 3.95432C4.46777 3.71994 4.15527 3.56369 3.84277 3.56369ZM19.3115 11.8059C19.8193 12.5871 20.0928 13.4074 20.0928 14.3059V16.0637C20.0928 16.6106 19.8975 17.0403 19.5459 17.3918C19.1553 17.7824 18.7256 17.9387 18.2178 17.9387H6.96777C6.4209 17.9387 5.99121 17.7824 5.63965 17.3918C5.24902 17.0403 5.09277 16.6106 5.09277 16.0637V14.3059C5.09277 13.4074 5.32715 12.5871 5.87402 11.8059C6.38184 11.0246 7.08496 10.5168 8.02246 10.2043C8.95996 9.89182 9.89746 9.89182 10.835 10.1653C11.3818 10.3606 11.9678 10.4387 12.5537 10.4387C13.1396 10.4387 13.7256 10.3606 14.3506 10.1653C15.2881 9.89182 16.1865 9.89182 17.124 10.2043C18.0615 10.5168 18.7646 11.0246 19.3115 11.8059ZM18.2178 16.0637V14.3059C18.2178 13.6028 17.9443 13.0168 17.4756 12.509C16.9678 12.0012 16.3818 11.7278 15.6787 11.6887C14.6631 12.1184 13.6084 12.3137 12.5928 12.3137C11.5381 12.3137 10.5225 12.1184 9.50684 11.6887C8.80371 11.7278 8.17871 12.0012 7.70996 12.509C7.20215 13.0168 6.96777 13.6028 6.96777 14.3059V16.0637H18.2178ZM21.8115 9.18869C22.71 9.18869 23.4912 9.54025 24.1162 10.1653C24.7412 10.7903 25.0928 11.5715 25.0928 12.4699C25.0928 12.7434 24.9756 12.9778 24.8193 13.134C24.624 13.3293 24.3896 13.4074 24.1553 13.4074C23.8818 13.4074 23.6475 13.3293 23.4912 13.134C23.2959 12.9778 23.2178 12.7434 23.2178 12.4699C23.2178 12.0793 23.0615 11.7668 22.7881 11.4934C22.5146 11.2199 22.2021 11.0637 21.8115 11.0637H20.874C20.7178 11.0637 20.5615 11.1028 20.4053 11.1418C20.0146 10.634 19.585 10.1653 19.0381 9.73557C19.585 9.384 20.1709 9.18869 20.874 9.18869H21.8115ZM12.5928 9.18869C11.8115 9.18869 11.0693 8.99338 10.4053 8.60275C9.70215 8.21213 9.19434 7.70432 8.80371 7.00119C8.41309 6.33713 8.21777 5.59494 8.21777 4.81369C8.21777 4.03244 8.41309 3.32932 8.80371 2.62619C9.19434 1.96213 9.70215 1.41525 10.4053 1.02463C11.0693 0.634003 11.8115 0.43869 12.5928 0.43869C13.374 0.43869 14.0771 0.634003 14.7803 1.02463C15.4443 1.41525 15.9912 1.96213 16.3818 2.62619C16.7725 3.32932 16.9678 4.03244 16.9678 4.81369C16.9678 5.59494 16.7725 6.33713 16.3818 7.00119C15.9912 7.70432 15.4443 8.21213 14.7803 8.60275C14.0771 8.99338 13.374 9.18869 12.5928 9.18869ZM12.5928 2.31369C11.8896 2.31369 11.3037 2.58713 10.835 3.05588C10.3271 3.56369 10.0928 4.14963 10.0928 4.81369C10.0928 5.51682 10.3271 6.10275 10.835 6.5715C11.3037 7.07932 11.8896 7.31369 12.5928 7.31369C13.2568 7.31369 13.8428 7.07932 14.3506 6.5715C14.8193 6.10275 15.0928 5.51682 15.0928 4.81369C15.0928 4.14963 14.8193 3.56369 14.3506 3.05588C13.8428 2.58713 13.2568 2.31369 12.5928 2.31369ZM6.14746 9.73557C5.60059 10.1653 5.13184 10.634 4.78027 11.1809C4.62402 11.1028 4.46777 11.0637 4.31152 11.0637H3.37402C2.9834 11.0637 2.63184 11.2199 2.3584 11.4934C2.08496 11.7668 1.96777 12.0793 1.96777 12.4699C1.96777 12.7434 1.85059 12.9778 1.69434 13.134C1.49902 13.3293 1.26465 13.4074 1.03027 13.4074C0.756836 13.4074 0.522461 13.3293 0.366211 13.134C0.170898 12.9778 0.0927734 12.7434 0.0927734 12.4699C0.0927734 11.5715 0.405273 10.7903 1.03027 10.1653C1.65527 9.54025 2.43652 9.18869 3.37402 9.18869H4.31152C4.97559 9.18869 5.60059 9.384 6.14746 9.73557Z" fill="#363636"/>
</svg>
