<svg width="46" height="46" viewBox="0 0 46 46" fill="none" xmlns="http://www.w3.org/2000/svg">
<path d="M40.3569 0.836807C41.851 0.836807 43.1694 1.45204 44.3119 2.50673C45.3666 3.64931 45.9819 4.96767 45.9819 6.46181V31.7743C45.9819 33.3563 45.3666 34.6747 44.3119 35.7294C43.1694 36.872 41.851 37.3993 40.3569 37.3993H27.7006L16.7143 45.661C16.3627 45.9247 15.9233 45.9247 15.5717 45.7489C15.2201 45.5731 15.0444 45.2216 15.0444 44.7821V37.3993H6.60685C5.02482 37.3993 3.70646 36.872 2.65177 35.7294C1.5092 34.6747 0.981852 33.3563 0.981852 31.7743V6.46181C0.981852 4.96767 1.5092 3.64931 2.65177 2.50673C3.70646 1.45204 5.02482 0.836807 6.60685 0.836807H40.3569Z" fill="#2D86DA"/>
</svg>
