<svg width="24" height="16" viewBox="0 0 32 32" fill="none" xmlns="http://www.w3.org/2000/svg">
<path d="M22.2695 16.125L31.0586 7.33594C32.2012 6.28125 32.2012 4.52344 31.0586 3.46875L29.125 1.53516C28.0703 0.392578 26.3125 0.392578 25.2578 1.53516L16.4688 10.3242L7.5918 1.53516C6.53711 0.392578 4.7793 0.392578 3.72461 1.53516L1.79102 3.46875C0.648438 4.52344 0.648438 6.28125 1.79102 7.33594L10.5801 16.125L1.79102 25.002C0.648438 26.0566 0.648438 27.8145 1.79102 28.8691L3.72461 30.8027C4.7793 31.9453 6.53711 31.9453 7.5918 30.8027L16.4688 22.0137L25.2578 30.8027C26.3125 31.9453 28.0703 31.9453 29.125 30.8027L31.0586 28.8691C32.2012 27.8145 32.2012 26.0566 31.0586 25.002L22.2695 16.125Z" fill="#363636"/>
</svg>