<svg width="21" height="21" viewBox="0 0 21 21" fill="none" xmlns="http://www.w3.org/2000/svg">
<path d="M18.0928 0.676239C18.7568 0.676239 19.3428 0.949677 19.8506 1.41843C20.3193 1.92624 20.5928 2.51218 20.5928 3.17624V14.4262C20.5928 15.1294 20.3193 15.7153 19.8506 16.1841C19.3428 16.6919 18.7568 16.9262 18.0928 16.9262H12.4678L7.58496 20.5981C7.42871 20.7153 7.2334 20.7153 7.07715 20.6372C6.9209 20.5591 6.84277 20.4028 6.84277 20.2075V16.9262H3.09277C2.38965 16.9262 1.80371 16.6919 1.33496 16.1841C0.827148 15.7153 0.592773 15.1294 0.592773 14.4262V3.17624C0.592773 2.51218 0.827148 1.92624 1.33496 1.41843C1.80371 0.949677 2.38965 0.676239 3.09277 0.676239H18.0928Z" fill="#363636"/>
</svg>
