<svg width="40" height="46" viewBox="0 0 40 46" fill="none" xmlns="http://www.w3.org/2000/svg">
<path d="M0 41.4062C0 43.7793 1.8457 45.625 4.21875 45.625H35.1562C37.4414 45.625 39.375 43.7793 39.375 41.4062V17.5H0V41.4062ZM5.625 24.5312C5.625 23.8281 6.24023 23.125 7.03125 23.125H15.4688C16.1719 23.125 16.875 23.8281 16.875 24.5312V32.9688C16.875 33.7598 16.1719 34.375 15.4688 34.375H7.03125C6.24023 34.375 5.625 33.7598 5.625 32.9688V24.5312ZM35.1562 6.25H30.9375V2.03125C30.9375 1.32812 30.2344 0.625 29.5312 0.625H26.7188C25.9277 0.625 25.3125 1.32812 25.3125 2.03125V6.25H14.0625V2.03125C14.0625 1.32812 13.3594 0.625 12.6562 0.625H9.84375C9.05273 0.625 8.4375 1.32812 8.4375 2.03125V6.25H4.21875C1.8457 6.25 0 8.18359 0 10.4688V14.6875H39.375V10.4688C39.375 8.18359 37.4414 6.25 35.1562 6.25Z" fill="#2D86DA"/>
</svg>
