<svg width="26" height="19" viewBox="0 0 26 19" fill="none" xmlns="http://www.w3.org/2000/svg">
<path d="M3.84277 8.43454C3.13965 8.43454 2.55371 8.20016 2.08496 7.69235C1.57715 7.2236 1.34277 6.63766 1.34277 5.93454C1.34277 5.27048 1.57715 4.68454 2.08496 4.17673C2.55371 3.70798 3.13965 3.43454 3.84277 3.43454C4.50684 3.43454 5.09277 3.70798 5.60059 4.17673C6.06934 4.68454 6.34277 5.27048 6.34277 5.93454C6.34277 6.63766 6.06934 7.2236 5.60059 7.69235C5.09277 8.20016 4.50684 8.43454 3.84277 8.43454ZM21.3428 8.43454C20.6396 8.43454 20.0537 8.20016 19.585 7.69235C19.0771 7.2236 18.8428 6.63766 18.8428 5.93454C18.8428 5.27048 19.0771 4.68454 19.585 4.17673C20.0537 3.70798 20.6396 3.43454 21.3428 3.43454C22.0068 3.43454 22.5928 3.70798 23.1006 4.17673C23.5693 4.68454 23.8428 5.27048 23.8428 5.93454C23.8428 6.63766 23.5693 7.2236 23.1006 7.69235C22.5928 8.20016 22.0068 8.43454 21.3428 8.43454ZM22.5928 9.68454C23.2568 9.68454 23.8428 9.95798 24.3506 10.4267C24.8193 10.9345 25.0928 11.5205 25.0928 12.1845V13.4345C25.0928 13.7861 24.9365 14.0986 24.7021 14.333C24.4678 14.5674 24.1553 14.6845 23.8428 14.6845H21.2646C21.1084 13.7861 20.7959 12.9658 20.2881 12.1845C19.7412 11.4424 19.1162 10.8564 18.335 10.4267C18.8037 9.95798 19.3896 9.68454 20.0928 9.68454H22.5928ZM12.5928 9.68454C11.8115 9.68454 11.0693 9.48923 10.4053 9.0986C9.70215 8.70798 9.19434 8.20016 8.80371 7.49704C8.41309 6.83298 8.21777 6.09079 8.21777 5.30954C8.21777 4.52829 8.41309 3.82516 8.80371 3.12204C9.19434 2.45798 9.70215 1.9111 10.4053 1.52048C11.0693 1.12985 11.8115 0.93454 12.5928 0.93454C13.374 0.93454 14.0771 1.12985 14.7803 1.52048C15.4443 1.9111 15.9912 2.45798 16.3818 3.12204C16.7725 3.82516 16.9678 4.52829 16.9678 5.30954C16.9678 6.09079 16.7725 6.83298 16.3818 7.49704C15.9912 8.20016 15.4443 8.70798 14.7803 9.0986C14.0771 9.48923 13.374 9.68454 12.5928 9.68454ZM15.6006 10.9345C16.3818 10.9345 17.124 11.1689 17.8271 11.5595C18.5303 11.9502 19.0771 12.497 19.4678 13.2002C19.8584 13.9033 20.0928 14.6455 20.0928 15.4267V16.5595C20.0928 17.1064 19.8975 17.5361 19.5459 17.8877C19.1553 18.2783 18.7256 18.4345 18.2178 18.4345H6.96777C6.4209 18.4345 5.99121 18.2783 5.63965 17.8877C5.24902 17.5361 5.09277 17.1064 5.09277 16.5595V15.4267C5.09277 14.6455 5.28809 13.9033 5.67871 13.2002C6.06934 12.497 6.61621 11.9502 7.31934 11.5595C8.02246 11.1689 8.76465 10.9345 9.58496 10.9345H9.89746C10.7568 11.3642 11.6553 11.5595 12.5928 11.5595C13.4912 11.5595 14.3896 11.3642 15.2881 10.9345H15.6006ZM6.85059 10.4267C6.06934 10.8564 5.40527 11.4424 4.89746 12.1845C4.35059 12.9658 4.03809 13.7861 3.9209 14.6845H1.34277C0.991211 14.6845 0.678711 14.5674 0.444336 14.333C0.209961 14.0986 0.0927734 13.7861 0.0927734 13.4345V12.1845C0.0927734 11.5205 0.327148 10.9345 0.834961 10.4267C1.30371 9.95798 1.88965 9.68454 2.59277 9.68454H5.09277C5.75684 9.68454 6.34277 9.95798 6.85059 10.4267Z" fill="#363636"/>
</svg>
