<svg width="19" height="18" viewBox="0 0 19 18" fill="none" xmlns="http://www.w3.org/2000/svg">
<path d="M18.0928 2.32031C18.0928 1.8125 17.8975 1.38281 17.5459 0.992188C17.1553 0.640625 16.7256 0.445312 16.2178 0.445312H2.46777C1.9209 0.445312 1.49121 0.640625 1.13965 0.992188C0.749023 1.38281 0.592773 1.8125 0.592773 2.32031V16.0703C0.592773 16.6172 0.749023 17.0469 1.13965 17.3984C1.49121 17.7891 1.9209 17.9453 2.46777 17.9453H10.1631V11.0312H7.78027V8.375H10.1631V6.42188C10.1631 5.32812 10.4365 4.50781 11.0615 3.88281C11.6865 3.25781 12.5068 2.94531 13.5615 2.94531C14.3428 2.94531 15.0459 2.98438 15.5928 3.0625V5.40625H14.1865C13.6787 5.40625 13.3271 5.52344 13.1318 5.75781C12.9756 5.99219 12.8975 6.30469 12.8975 6.69531V8.375H15.5928L15.2412 11.0312H12.8975V17.9453H16.2178C16.7256 17.9453 17.1553 17.7891 17.5459 17.3984C17.8975 17.0469 18.0928 16.6172 18.0928 16.0703V2.32031Z" fill="#4267B2"/>
</svg>
