<svg width="21" height="21" viewBox="0 0 21 21" fill="none" xmlns="http://www.w3.org/2000/svg">
<path d="M14.2646 4.55988C15.5146 4.55988 17.0381 4.16925 18.835 3.30988C19.2256 3.15363 19.6162 3.15363 20.0068 3.388C20.3975 3.62238 20.5928 3.97394 20.5928 4.44269V13.9349C20.5928 14.4036 20.3975 14.7161 20.0459 14.9505C18.4834 16.0443 16.9209 16.5521 15.2803 16.5521C14.6553 16.5521 13.9912 16.4739 13.3271 16.3177C12.9365 16.2396 12.3506 16.0833 11.6475 15.8099C11.0225 15.6146 10.5537 15.4583 10.2412 15.3802C9.69434 15.263 9.22559 15.1849 8.7959 15.1849C7.15527 15.1849 5.6709 15.4974 4.34277 16.0833V19.7552C4.34277 20.0286 4.22559 20.263 4.06934 20.4193C3.87402 20.6146 3.63965 20.6927 3.40527 20.6927H2.78027C2.50684 20.6927 2.27246 20.6146 2.11621 20.4193C1.9209 20.263 1.84277 20.0286 1.84277 19.7552V4.67706C1.53027 4.48175 1.2959 4.20831 1.13965 3.89581C0.983398 3.58331 0.905273 3.27081 0.905273 2.88019C0.905273 2.25519 1.10059 1.74738 1.56934 1.31769C1.99902 0.888 2.5459 0.692688 3.1709 0.692688C3.71777 0.73175 4.22559 0.927063 4.61621 1.31769C5.00684 1.70831 5.24121 2.17706 5.28027 2.72394C5.28027 3.0755 5.24121 3.388 5.12402 3.66144C5.9834 3.34894 6.84277 3.19269 7.78027 3.19269C8.40527 3.19269 9.03027 3.27081 9.7334 3.42706C10.124 3.54425 10.6709 3.7005 11.4131 3.93488C12.0381 4.16925 12.5068 4.28644 12.8193 4.36456C13.3271 4.52081 13.7959 4.55988 14.2646 4.55988Z" fill="#363636"/>
</svg>
