<svg width="57" height="41" viewBox="0 0 57 41" fill="none" xmlns="http://www.w3.org/2000/svg">
<path d="M8.81242 17.5243C7.23039 17.5243 5.91203 16.997 4.85734 15.8544C3.71476 14.7997 3.18742 13.4813 3.18742 11.8993C3.18742 10.4052 3.71476 9.08681 4.85734 7.94423C5.91203 6.88954 7.23039 6.27431 8.81242 6.27431C10.3066 6.27431 11.6249 6.88954 12.7675 7.94423C13.8222 9.08681 14.4374 10.4052 14.4374 11.8993C14.4374 13.4813 13.8222 14.7997 12.7675 15.8544C11.6249 16.997 10.3066 17.5243 8.81242 17.5243ZM48.1874 17.5243C46.6054 17.5243 45.287 16.997 44.2323 15.8544C43.0898 14.7997 42.5624 13.4813 42.5624 11.8993C42.5624 10.4052 43.0898 9.08681 44.2323 7.94423C45.287 6.88954 46.6054 6.27431 48.1874 6.27431C49.6816 6.27431 50.9999 6.88954 52.1425 7.94423C53.1972 9.08681 53.8124 10.4052 53.8124 11.8993C53.8124 13.4813 53.1972 14.7997 52.1425 15.8544C50.9999 16.997 49.6816 17.5243 48.1874 17.5243ZM50.9999 20.3368C52.4941 20.3368 53.8124 20.952 54.955 22.0067C56.0097 23.1493 56.6249 24.4677 56.6249 25.9618V28.7743C56.6249 29.5653 56.2734 30.2684 55.746 30.7958C55.2187 31.3231 54.5155 31.5868 53.8124 31.5868H48.0116C47.6601 29.5653 46.9569 27.7196 45.8144 25.9618C44.5839 24.2919 43.1777 22.9735 41.4198 22.0067C42.4745 20.952 43.7929 20.3368 45.3749 20.3368H50.9999ZM28.4999 20.3368C26.7421 20.3368 25.0722 19.8974 23.578 19.0184C21.996 18.1395 20.8534 16.997 19.9745 15.4149C19.0956 13.9208 18.6562 12.2509 18.6562 10.4931C18.6562 8.73524 19.0956 7.15321 19.9745 5.57118C20.8534 4.07704 21.996 2.84657 23.578 1.96767C25.0722 1.08876 26.7421 0.649307 28.4999 0.649307C30.2577 0.649307 31.8398 1.08876 33.4218 1.96767C34.9159 2.84657 36.1464 4.07704 37.0253 5.57118C37.9042 7.15321 38.3437 8.73524 38.3437 10.4931C38.3437 12.2509 37.9042 13.9208 37.0253 15.4149C36.1464 16.997 34.9159 18.1395 33.4218 19.0184C31.8398 19.8974 30.2577 20.3368 28.4999 20.3368ZM35.2675 23.1493C37.0253 23.1493 38.6952 23.6767 40.2773 24.5556C41.8593 25.4345 43.0898 26.6649 43.9687 28.247C44.8476 29.829 45.3749 31.4989 45.3749 33.2567V35.8056C45.3749 37.036 44.9355 38.0028 44.1444 38.7938C43.2655 39.6727 42.2987 40.0243 41.1562 40.0243H15.8437C14.6132 40.0243 13.6464 39.6727 12.8554 38.7938C11.9765 38.0028 11.6249 37.036 11.6249 35.8056V33.2567C11.6249 31.4989 12.0644 29.829 12.9433 28.247C13.8222 26.6649 15.0527 25.4345 16.6347 24.5556C18.2167 23.6767 19.8866 23.1493 21.7323 23.1493H22.4355C24.3691 24.1161 26.3905 24.5556 28.4999 24.5556C30.5214 24.5556 32.5429 24.1161 34.5644 23.1493H35.2675ZM15.58 22.0067C13.8222 22.9735 12.328 24.2919 11.1855 25.9618C9.955 27.7196 9.25187 29.5653 8.9882 31.5868H3.18742C2.3964 31.5868 1.69328 31.3231 1.16593 30.7958C0.63859 30.2684 0.374918 29.5653 0.374918 28.7743V25.9618C0.374918 24.4677 0.902262 23.1493 2.04484 22.0067C3.09953 20.952 4.41789 20.3368 5.99992 20.3368H11.6249C13.1191 20.3368 14.4374 20.952 15.58 22.0067Z" fill="#2D86DA"/>
</svg>
