<svg width="21" height="18" viewBox="0 0 21 18" fill="none" xmlns="http://www.w3.org/2000/svg">
<path d="M18.6396 1.64133C19.4209 2.34445 20.0068 3.16476 20.3193 4.14133C20.6318 5.15695 20.6709 6.13351 20.4365 7.14914C20.2021 8.16476 19.7334 9.02414 19.0303 9.72726L11.4912 17.5398C11.2178 17.8132 10.9053 17.9304 10.5928 17.9304C10.2412 17.9304 9.92871 17.8132 9.69434 17.5398L2.15527 9.76633C1.41309 9.02414 0.944336 8.16476 0.709961 7.14914C0.475586 6.13351 0.553711 5.15695 0.866211 4.14133C1.17871 3.16476 1.72559 2.34445 2.5459 1.64133C3.24902 1.05539 4.03027 0.664764 4.92871 0.508514C5.78809 0.352264 6.68652 0.430389 7.5459 0.703827C8.40527 1.01633 9.14746 1.48508 9.81152 2.14914L10.5928 2.93039L11.374 2.14914C11.999 1.48508 12.7803 1.01633 13.6396 0.703827C14.499 0.430389 15.3584 0.352264 16.2568 0.508514C17.1162 0.664764 17.9365 1.05539 18.6396 1.64133Z" fill="#363636"/>
</svg>
