<svg width="46" height="41" viewBox="0 0 46 41" fill="none" xmlns="http://www.w3.org/2000/svg">
<path d="M41.5966 3.37392C43.3544 4.95595 44.6728 6.80165 45.3759 8.99892C46.079 11.2841 46.1669 13.4813 45.6396 15.7665C45.1122 18.0517 44.0575 19.9852 42.4755 21.5673L25.5126 39.1454C24.8974 39.7606 24.1943 40.0243 23.4911 40.0243C22.7001 40.0243 21.997 39.7606 21.4696 39.1454L4.50675 21.6552C2.83683 19.9852 1.78214 18.0517 1.2548 15.7665C0.727457 13.4813 0.903238 11.2841 1.60636 8.99892C2.30949 6.80165 3.53996 4.95595 5.38566 3.37392C6.96769 2.05556 8.7255 1.17665 10.747 0.825089C12.6806 0.473526 14.7021 0.649307 16.6357 1.26454C18.5693 1.96767 20.2392 3.02235 21.7333 4.51649L23.4911 6.27431L25.2489 4.51649C26.6552 3.02235 28.413 1.96767 30.3466 1.26454C32.2802 0.649307 34.2138 0.473526 36.2353 0.825089C38.1689 1.17665 40.0146 2.05556 41.5966 3.37392Z" fill="#2D86DA"/>
</svg>
