<svg width="19" height="17" viewBox="0 0 19 17" fill="none" xmlns="http://www.w3.org/2000/svg">
<path d="M16.2871 1.60083C16.9902 2.23364 17.5176 2.97192 17.7988 3.85083C18.0801 4.76489 18.1152 5.6438 17.9043 6.55786C17.6934 7.47192 17.2715 8.24536 16.6387 8.87817L9.85352 15.9094C9.60742 16.1555 9.32617 16.261 9.04492 16.261C8.72852 16.261 8.44727 16.1555 8.23633 15.9094L1.45117 8.91333C0.783203 8.24536 0.361328 7.47192 0.150391 6.55786C-0.0605469 5.6438 0.00976562 4.76489 0.291016 3.85083C0.572266 2.97192 1.06445 2.23364 1.80273 1.60083C2.43555 1.07349 3.13867 0.721924 3.94727 0.581299C4.7207 0.440674 5.5293 0.510986 6.30273 0.75708C7.07617 1.03833 7.74414 1.46021 8.3418 2.05786L9.04492 2.76099L9.74805 2.05786C10.3105 1.46021 11.0137 1.03833 11.7871 0.75708C12.5605 0.510986 13.334 0.440674 14.1426 0.581299C14.916 0.721924 15.6543 1.07349 16.2871 1.60083Z" fill="#2D86DA"/>
</svg>
