<svg width="45" height="37" viewBox="0 0 45 37" fill="none" xmlns="http://www.w3.org/2000/svg">
<path d="M40.3417 9.22209C42.0995 7.90373 43.6816 6.3217 44.912 4.476C43.33 5.17912 41.4843 5.70647 39.6386 5.88225C41.5722 4.73967 42.9784 2.98186 43.6816 0.784592C41.9237 1.83928 39.9023 2.63029 37.8808 3.06975C36.123 1.22404 33.7499 0.169357 31.1132 0.169357C26.0155 0.169357 21.8847 4.30022 21.8847 9.39787C21.8847 10.101 21.9726 10.8041 22.1484 11.5072C14.5019 11.0678 7.6464 7.37639 3.07609 1.83928C2.28507 3.15764 1.84562 4.73967 1.84562 6.49748C1.84562 9.66154 3.42765 12.474 5.97648 14.144C4.48234 14.0561 2.9882 13.7045 1.75773 13.0014V13.0893C1.75773 17.5717 4.92179 21.2631 9.14054 22.142C8.43742 22.3178 7.55851 22.4936 6.7675 22.4936C6.15226 22.4936 5.62492 22.4057 5.00968 22.3178C6.15226 26.0092 9.58 28.6459 13.623 28.7338C10.4589 31.1947 6.50382 32.6889 2.19718 32.6889C1.40617 32.6889 0.703043 32.601 -8.2016e-05 32.5131C4.04289 35.1498 8.87687 36.644 14.1503 36.644C31.1132 36.644 40.3417 22.6694 40.3417 10.4526C40.3417 10.0131 40.3417 9.66154 40.3417 9.22209Z" fill="#2D86DA"/>
</svg>
