<svg width="21" height="16" viewBox="0 0 21 16" fill="none" xmlns="http://www.w3.org/2000/svg">
<path d="M20.2021 5.6496C19.2646 6.39178 17.2334 7.87616 14.1865 10.0637L13.7959 10.3762C13.1709 10.8449 12.7021 11.1965 12.3115 11.3918C11.6865 11.7824 11.1006 11.9387 10.5928 11.9387C10.0459 11.9387 9.49902 11.7824 8.87402 11.4308C8.4834 11.2355 8.01465 10.884 7.38965 10.4152L6.99902 10.0637C3.83496 7.79803 1.84277 6.31366 0.983398 5.6496C0.905273 5.61053 0.788086 5.61053 0.709961 5.6496C0.631836 5.68866 0.592773 5.76678 0.592773 5.84491V13.8137C0.592773 14.3605 0.749023 14.7902 1.13965 15.1418C1.49121 15.5324 1.9209 15.6887 2.46777 15.6887H18.7178C19.2256 15.6887 19.6553 15.5324 20.0459 15.1418C20.3975 14.7902 20.5928 14.3605 20.5928 13.8137V5.84491C20.5928 5.76678 20.5146 5.68866 20.4365 5.61053C20.3584 5.57147 20.2803 5.57147 20.2021 5.6496ZM10.5928 10.6887C10.2412 10.6887 9.81152 10.5324 9.34277 10.2199C9.03027 10.0637 8.63965 9.79022 8.13184 9.36053L7.74121 9.0871C4.53809 6.74335 2.35059 5.14178 1.21777 4.24335L0.944336 4.04803C0.709961 3.89178 0.592773 3.61835 0.592773 3.30585V2.56366C0.592773 2.05585 0.749023 1.62616 1.13965 1.23553C1.49121 0.883972 1.9209 0.68866 2.46777 0.68866H18.7178C19.2256 0.68866 19.6553 0.883972 20.0459 1.23553C20.3975 1.62616 20.5928 2.05585 20.5928 2.56366V3.30585C20.5928 3.61835 20.4756 3.89178 20.2412 4.04803L20.0459 4.20428C18.9131 5.10272 16.7256 6.74335 13.4443 9.0871L13.0537 9.36053C12.5068 9.79022 12.1162 10.0637 11.8428 10.2199C11.335 10.5324 10.9053 10.6887 10.5928 10.6887Z" fill="#363636"/>
</svg>
