<svg width="55" height="37" viewBox="0 0 55 37" fill="none" xmlns="http://www.w3.org/2000/svg">
<path d="M54.2006 26.8881C54.3764 26.7123 54.5522 26.5365 54.5522 26.185C54.5522 25.9213 54.3764 25.6576 54.2006 25.394L52.7944 23.9877C52.5307 23.8119 52.267 23.6362 52.0033 23.6362C51.6518 23.6362 51.476 23.8119 51.3002 23.9877L46.4662 28.8217V7.11272C46.4662 6.58537 46.2026 6.05803 45.851 5.61858C45.4115 5.26701 44.8842 5.00334 44.3569 5.00334H22.2084C21.6811 5.00334 21.4174 5.26701 21.2416 5.70647C21.0658 6.14592 21.1537 6.49748 21.5053 6.76115L23.6147 8.87053C23.7904 9.1342 23.9662 9.22209 24.3178 9.22209H42.2475V28.8217L37.4135 23.9877C37.2377 23.8119 36.974 23.6362 36.7104 23.6362C36.3588 23.6362 36.0951 23.8119 35.9194 23.9877L34.5131 25.394C34.2494 25.6576 34.1615 25.9213 34.1615 26.185C34.1615 26.5365 34.2494 26.7123 34.5131 26.8881L43.6537 36.0287C43.8295 36.2924 44.0053 36.3803 44.3569 36.3803C44.6205 36.3803 44.8842 36.2924 45.06 36.0287L54.2006 26.8881ZM31.349 27.8549L33.4584 29.9643C33.81 30.3158 33.8979 30.6674 33.7221 31.1069C33.5463 31.5463 33.1947 31.7221 32.7553 31.7221H10.6069C9.99162 31.7221 9.46427 31.5463 9.11271 31.1069C8.67326 30.7553 8.49748 30.228 8.49748 29.6127V7.90373L3.66349 12.7377C3.48771 13.0014 3.22404 13.0893 2.96037 13.0893C2.6088 13.0893 2.34513 13.0014 2.16935 12.7377L0.763102 11.3315C0.49943 11.1557 0.411539 10.892 0.411539 10.5405C0.411539 10.2768 0.49943 10.0131 0.763102 9.83733L9.90373 0.696701C10.0795 0.52092 10.2553 0.345139 10.6069 0.345139C10.8705 0.345139 11.1342 0.52092 11.31 0.696701L20.4506 9.83733C20.6264 10.0131 20.8022 10.2768 20.8022 10.5405C20.8022 10.892 20.6264 11.1557 20.4506 11.3315L19.0444 12.7377C18.7807 13.0014 18.517 13.0893 18.2533 13.0893C17.9018 13.0893 17.726 13.0014 17.5502 12.7377L12.7162 7.90373V27.5033H30.6459C30.9096 27.5033 31.1733 27.6791 31.349 27.8549Z" fill="#2D86DA"/>
</svg>
