<svg width="20" height="21" viewBox="0 0 20 21" fill="none" xmlns="http://www.w3.org/2000/svg">
<path d="M14.7422 5.63818L13.1016 7.27881C12.9062 7.47412 12.8281 7.7085 12.8281 7.94287C12.8281 8.21631 12.9062 8.45068 13.1016 8.60693C13.2578 8.80225 13.4922 8.88037 13.7656 8.88037H19C19.2344 8.88037 19.4688 8.80225 19.6641 8.60693C19.8203 8.45068 19.9375 8.21631 19.9375 7.94287V2.7085C19.9375 2.47412 19.8203 2.23975 19.6641 2.04443C19.4688 1.88818 19.2344 1.771 19 1.771C18.7266 1.771 18.4922 1.88818 18.3359 2.04443L16.9297 3.45068C16.0312 2.59131 15.0156 1.92725 13.8828 1.4585C12.7109 0.989746 11.5 0.755371 10.25 0.755371C8.6875 0.755371 7.20312 1.10693 5.875 1.81006C4.54688 2.51318 3.41406 3.45068 2.51562 4.62256C1.57812 5.8335 0.992188 7.16162 0.71875 8.646C0.679688 8.80225 0.71875 8.91943 0.796875 9.03662C0.875 9.15381 1.03125 9.19287 1.1875 9.19287H3.41406C3.53125 9.19287 3.64844 9.19287 3.72656 9.11475C3.80469 9.03662 3.84375 8.9585 3.88281 8.84131C4.23438 7.396 5.01562 6.22412 6.1875 5.28662C7.35938 4.34912 8.72656 3.88037 10.25 3.88037C11.0703 3.88037 11.8516 4.03662 12.6328 4.34912C13.4141 4.66162 14.1172 5.09131 14.7422 5.63818ZM1.5 12.0054C1.22656 12.0054 0.992188 12.1226 0.835938 12.2788C0.640625 12.4741 0.5625 12.7085 0.5625 12.9429V18.1772C0.5625 18.4507 0.640625 18.6851 0.835938 18.8413C0.992188 19.0366 1.22656 19.1147 1.5 19.1147C1.73438 19.1147 1.96875 19.0366 2.16406 18.8413L3.57031 17.4351C4.42969 18.2944 5.44531 18.9585 6.61719 19.4272C7.75 19.896 8.96094 20.1304 10.25 20.1304C11.8125 20.1304 13.2578 19.8179 14.5859 19.1147C15.9141 18.4116 17.0469 17.4741 17.9844 16.2632C18.8828 15.0913 19.4688 13.7241 19.7812 12.2397C19.7812 12.1226 19.7422 12.0054 19.6641 11.8882C19.5859 11.771 19.4688 11.6929 19.3125 11.6929H17.0859C16.9297 11.6929 16.8516 11.7319 16.7734 11.8101C16.6953 11.8882 16.6172 11.9663 16.6172 12.0444C16.2266 13.5288 15.4453 14.7007 14.2734 15.6382C13.1016 16.5757 11.7344 17.0054 10.25 17.0054C9.39062 17.0054 8.60938 16.8882 7.82812 16.5757C7.04688 16.2632 6.38281 15.8335 5.75781 15.2476L7.39844 13.6069C7.55469 13.4507 7.67188 13.2163 7.67188 12.9429C7.67188 12.7085 7.55469 12.4741 7.39844 12.2788C7.20312 12.1226 6.96875 12.0054 6.73438 12.0054H1.5Z" fill="#2D86DA"/>
</svg>
