<svg width="56" height="37" viewBox="0 0 56 37" fill="none" xmlns="http://www.w3.org/2000/svg">
<path d="M54.7187 26.976C55.1581 26.5365 55.1581 25.9213 54.7187 25.4819L53.2245 23.9877C52.7851 23.5483 52.1698 23.5483 51.7304 23.9877L46.9843 28.9096V7.11272C46.9843 5.97014 46.0175 5.00334 44.8749 5.00334H22.7265C21.7597 5.00334 21.2323 6.14592 21.9355 6.84904L24.0448 8.95842C24.2206 9.1342 24.5722 9.22209 24.8359 9.22209H42.7655V28.9096L37.9316 23.9877C37.4921 23.5483 36.8769 23.5483 36.4374 23.9877L34.9433 25.4819C34.5038 25.9213 34.5038 26.5365 34.9433 26.976L44.0839 36.1166C44.5234 36.5561 45.1386 36.5561 45.578 36.1166L54.7187 26.976ZM31.8671 27.8549C31.6913 27.6791 31.3398 27.5033 31.0761 27.5033H13.2343V7.90373L17.9804 12.8256C18.4198 13.2651 19.0351 13.2651 19.4745 12.8256L20.9687 11.3315C21.4081 10.892 21.4081 10.2768 20.9687 9.83733L11.828 0.696701C11.3886 0.257248 10.7734 0.257248 10.3339 0.696701L1.19328 9.83733C0.753824 10.2768 0.753824 10.892 1.19328 11.3315L2.68742 12.8256C3.12687 13.2651 3.74211 13.2651 4.18156 12.8256L9.01554 7.90373V29.6127C9.01554 30.8432 9.89445 31.7221 11.1249 31.7221H33.1855C34.1523 31.7221 34.6796 30.6674 33.9765 29.9643L31.8671 27.8549Z" fill="#2D86DA"/>
</svg>
