<svg width="25" height="17" viewBox="0 0 25 17" fill="none" xmlns="http://www.w3.org/2000/svg">
<path d="M24.4678 12.4817C24.5459 12.4035 24.624 12.3254 24.624 12.1692C24.624 12.052 24.5459 11.9348 24.4678 11.8176L23.8428 11.1926C23.7256 11.1145 23.6084 11.0363 23.4912 11.0363C23.335 11.0363 23.2568 11.1145 23.1787 11.1926L21.0303 13.341V3.6926C21.0303 3.45822 20.9131 3.22385 20.7568 3.02853C20.5615 2.87228 20.3271 2.7551 20.0928 2.7551H10.249C10.0146 2.7551 9.89746 2.87228 9.81934 3.0676C9.74121 3.26291 9.78027 3.41916 9.93652 3.53635L10.874 4.47385C10.9521 4.59103 11.0303 4.6301 11.1865 4.6301H19.1553V13.341L17.0068 11.1926C16.9287 11.1145 16.8115 11.0363 16.6943 11.0363C16.5381 11.0363 16.4209 11.1145 16.3428 11.1926L15.7178 11.8176C15.6006 11.9348 15.5615 12.052 15.5615 12.1692C15.5615 12.3254 15.6006 12.4035 15.7178 12.4817L19.7803 16.5442C19.8584 16.6613 19.9365 16.7004 20.0928 16.7004C20.21 16.7004 20.3271 16.6613 20.4053 16.5442L24.4678 12.4817ZM14.3115 12.9113L15.249 13.8488C15.4053 14.0051 15.4443 14.1613 15.3662 14.3567C15.2881 14.552 15.1318 14.6301 14.9365 14.6301H5.09277C4.81934 14.6301 4.58496 14.552 4.42871 14.3567C4.2334 14.2004 4.15527 13.966 4.15527 13.6926V4.04416L2.00684 6.1926C1.92871 6.30978 1.81152 6.34885 1.69434 6.34885C1.53809 6.34885 1.4209 6.30978 1.34277 6.1926L0.717773 5.5676C0.600586 5.48947 0.561523 5.37228 0.561523 5.21603C0.561523 5.09885 0.600586 4.98166 0.717773 4.90353L4.78027 0.841034C4.8584 0.762909 4.93652 0.684784 5.09277 0.684784C5.20996 0.684784 5.32715 0.762909 5.40527 0.841034L9.46777 4.90353C9.5459 4.98166 9.62402 5.09885 9.62402 5.21603C9.62402 5.37228 9.5459 5.48947 9.46777 5.5676L8.84277 6.1926C8.72559 6.30978 8.6084 6.34885 8.49121 6.34885C8.33496 6.34885 8.25684 6.30978 8.17871 6.1926L6.03027 4.04416V12.7551H13.999C14.1162 12.7551 14.2334 12.8332 14.3115 12.9113Z" fill="#363636"/>
</svg>
