<svg width="23" height="15" viewBox="0 0 23 15" fill="none" xmlns="http://www.w3.org/2000/svg">
<path d="M22.583 10.4797C22.7236 10.3391 22.8291 10.1282 22.8291 9.88208C22.8291 9.67114 22.7236 9.46021 22.583 9.28442L22.1963 8.89771C22.0205 8.75708 21.8096 8.65161 21.5635 8.65161C21.3174 8.65161 21.1064 8.75708 20.9658 8.89771L19.5596 10.4094V2.60474C19.5596 2.3938 19.4541 2.18286 19.3135 2.00708C19.1377 1.86646 18.9268 1.76099 18.7158 1.76099H10.1377C9.8916 1.76099 9.68066 1.86646 9.54004 2.00708C9.39941 2.18286 9.29395 2.3938 9.29395 2.60474C9.29395 2.85083 9.36426 3.06177 9.54004 3.20239L10.1025 3.76489C10.2783 3.94067 10.4893 4.01099 10.7002 4.01099H17.3096V10.4094L15.9033 8.89771C15.7275 8.75708 15.5166 8.65161 15.2705 8.65161C15.0244 8.65161 14.8135 8.75708 14.6729 8.89771L14.2861 9.28442C14.1104 9.46021 14.04 9.67114 14.04 9.88208C14.04 10.1282 14.1104 10.3391 14.2861 10.4797L17.8369 13.9954C17.9775 14.1711 18.1885 14.2415 18.4346 14.2415C18.6455 14.2415 18.8564 14.1711 19.0322 13.9954L22.583 10.4797ZM13.2666 11.0071L13.8291 11.5696C13.9697 11.7454 14.04 11.9563 14.04 12.1672C14.04 12.4133 13.9346 12.6243 13.7939 12.7649C13.6533 12.9407 13.4424 13.011 13.2314 13.011H4.65332C4.40723 13.011 4.19629 12.9407 4.05566 12.7649C3.87988 12.6243 3.80957 12.4133 3.80957 12.1672V4.36255L2.40332 5.87427C2.22754 6.05005 2.0166 6.12036 1.77051 6.12036C1.52441 6.12036 1.31348 6.05005 1.17285 5.87427L0.786133 5.48755C0.610352 5.34692 0.540039 5.13599 0.540039 4.88989C0.540039 4.67896 0.610352 4.46802 0.786133 4.29224L4.33691 0.776611C4.47754 0.635986 4.68848 0.530518 4.93457 0.530518C5.14551 0.530518 5.35645 0.635986 5.53223 0.776611L9.08301 4.29224C9.22363 4.46802 9.3291 4.67896 9.3291 4.88989C9.3291 5.13599 9.22363 5.34692 9.08301 5.48755L8.69629 5.87427C8.52051 6.05005 8.30957 6.12036 8.06348 6.12036C7.81738 6.12036 7.60645 6.05005 7.46582 5.87427L6.05957 4.36255V10.761H12.6689C12.8799 10.761 13.0557 10.8665 13.2666 11.0071Z" fill="#2D86DA"/>
</svg>
