<svg width="57" height="41" viewBox="0 0 57 41" fill="none" xmlns="http://www.w3.org/2000/svg">
<path d="M48.1601 17.5502C46.2265 17.5502 44.5566 16.935 43.1503 15.5287C41.7441 14.1225 41.1288 12.4526 41.1288 10.519C41.1288 8.58537 41.7441 7.00334 43.1503 5.59709C44.5566 4.19084 46.2265 3.48772 48.1601 3.48772C50.0937 3.48772 51.6757 4.19084 53.0819 5.59709C54.4882 7.00334 55.1913 8.58537 55.1913 10.519C55.1913 12.4526 54.4882 14.1225 53.0819 15.5287C51.6757 16.935 50.0937 17.5502 48.1601 17.5502ZM48.1601 7.70647C47.3691 7.70647 46.6659 8.05803 46.1386 8.58537C45.6112 9.11272 45.3476 9.81584 45.3476 10.519C45.3476 11.31 45.6112 12.0131 46.1386 12.5405C46.6659 13.0678 47.3691 13.3315 48.1601 13.3315C48.8632 13.3315 49.5663 13.0678 50.0937 12.5405C50.621 12.0131 50.9726 11.31 50.9726 10.519C50.9726 9.81584 50.621 9.11272 50.0937 8.58537C49.5663 8.05803 48.8632 7.70647 48.1601 7.70647ZM8.78507 17.5502C6.85148 17.5502 5.18156 16.935 3.77531 15.5287C2.36906 14.1225 1.75382 12.4526 1.75382 10.519C1.75382 8.58537 2.36906 7.00334 3.77531 5.59709C5.18156 4.19084 6.85148 3.48772 8.78507 3.48772C10.7187 3.48772 12.3007 4.19084 13.7069 5.59709C15.1132 7.00334 15.8163 8.58537 15.8163 10.519C15.8163 12.4526 15.1132 14.1225 13.7069 15.5287C12.3007 16.935 10.7187 17.5502 8.78507 17.5502ZM8.78507 7.70647C7.99406 7.70647 7.29093 8.05803 6.76359 8.58537C6.23625 9.11272 5.97257 9.81584 5.97257 10.519C5.97257 11.31 6.23625 12.0131 6.76359 12.5405C7.29093 13.0678 7.99406 13.3315 8.78507 13.3315C9.4882 13.3315 10.1913 13.0678 10.7187 12.5405C11.246 12.0131 11.5976 11.31 11.5976 10.519C11.5976 9.81584 11.246 9.11272 10.7187 8.58537C10.1913 8.05803 9.4882 7.70647 8.78507 7.70647ZM43.5898 26.2514C44.7323 28.0092 45.3476 29.8549 45.3476 31.8764V35.8315C45.3476 37.0619 44.9081 38.0287 44.1171 38.8197C43.2382 39.6987 42.2714 40.0502 41.1288 40.0502H15.8163C14.5859 40.0502 13.6191 39.6987 12.828 38.8197C11.9491 38.0287 11.5976 37.0619 11.5976 35.8315V31.8764C11.5976 29.8549 12.1249 28.0092 13.3554 26.2514C14.498 24.4936 16.08 23.351 18.1894 22.6479C20.2987 21.9447 22.4081 21.9447 24.5175 22.56C25.748 22.9994 27.0663 23.1752 28.3847 23.1752C29.703 23.1752 31.0214 22.9994 32.4277 22.56C34.537 21.9447 36.5585 21.9447 38.6679 22.6479C40.7773 23.351 42.3593 24.4936 43.5898 26.2514ZM41.1288 35.8315V31.8764C41.1288 30.2944 40.5136 28.976 39.4589 27.8334C38.3163 26.6908 36.998 26.0756 35.4159 25.9877C33.1308 26.9545 30.7577 27.394 28.4726 27.394C26.0995 27.394 23.8144 26.9545 21.5292 25.9877C19.9472 26.0756 18.5409 26.6908 17.4862 27.8334C16.3437 28.976 15.8163 30.2944 15.8163 31.8764V35.8315H41.1288ZM49.2148 20.3627C51.2362 20.3627 52.9941 21.1537 54.4003 22.56C55.8066 23.9662 56.5976 25.724 56.5976 27.7455C56.5976 28.3608 56.3339 28.8881 55.9823 29.2397C55.5429 29.6791 55.0155 29.8549 54.4882 29.8549C53.873 29.8549 53.3456 29.6791 52.9941 29.2397C52.5546 28.8881 52.3788 28.3608 52.3788 27.7455C52.3788 26.8666 52.0273 26.1635 51.412 25.5483C50.7968 24.933 50.0937 24.5815 49.2148 24.5815H47.1054C46.7538 24.5815 46.4023 24.6694 46.0507 24.7572C45.1718 23.6147 44.205 22.56 42.9745 21.5932C44.205 20.8022 45.5234 20.3627 47.1054 20.3627H49.2148ZM28.4726 20.3627C26.7148 20.3627 25.0448 19.9233 23.5507 19.0444C21.9687 18.1655 20.8261 17.0229 19.9472 15.4408C19.0683 13.9467 18.6288 12.2768 18.6288 10.519C18.6288 8.76115 19.0683 7.17912 19.9472 5.59709C20.8261 4.10295 21.9687 2.87248 23.5507 1.99358C25.0448 1.11467 26.7148 0.675217 28.4726 0.675217C30.2304 0.675217 31.8124 1.11467 33.3944 1.99358C34.8886 2.87248 36.1191 4.10295 36.998 5.59709C37.8769 7.17912 38.3163 8.76115 38.3163 10.519C38.3163 12.2768 37.8769 13.9467 36.998 15.4408C36.1191 17.0229 34.8886 18.1655 33.3944 19.0444C31.8124 19.9233 30.2304 20.3627 28.4726 20.3627ZM28.4726 4.89397C26.8905 4.89397 25.5722 5.5092 24.5175 6.56389C23.3749 7.70647 22.8476 9.02483 22.8476 10.519C22.8476 12.101 23.3749 13.4194 24.5175 14.474C25.5722 15.6166 26.8905 16.144 28.4726 16.144C29.9667 16.144 31.2851 15.6166 32.4277 14.474C33.4823 13.4194 34.0976 12.101 34.0976 10.519C34.0976 9.02483 33.4823 7.70647 32.4277 6.56389C31.2851 5.5092 29.9667 4.89397 28.4726 4.89397ZM13.9706 21.5932C12.7402 22.56 11.6855 23.6147 10.8944 24.8451C10.5429 24.6694 10.1913 24.5815 9.83976 24.5815H7.73039C6.85148 24.5815 6.06046 24.933 5.44523 25.5483C4.83 26.1635 4.56632 26.8666 4.56632 27.7455C4.56632 28.3608 4.30265 28.8881 3.95109 29.2397C3.51164 29.6791 2.98429 29.8549 2.45695 29.8549C1.84171 29.8549 1.31437 29.6791 0.962809 29.2397C0.523355 28.8881 0.347574 28.3608 0.347574 27.7455C0.347574 25.724 1.0507 23.9662 2.45695 22.56C3.8632 21.1537 5.62101 20.3627 7.73039 20.3627H9.83976C11.3339 20.3627 12.7402 20.8022 13.9706 21.5932Z" fill="#2D86DA"/>
</svg>
