<svg width="41" height="41" viewBox="0 0 41 41" fill="none" xmlns="http://www.w3.org/2000/svg">
<path d="M39.8085 14.536C39.7206 14.7997 39.5448 14.9755 39.3691 15.1513C39.1933 15.327 38.9296 15.4149 38.7538 15.4149H30.4921L28.7343 25.2587H36.5566C36.9081 25.2587 37.1718 25.4345 37.3476 25.6981C37.5234 25.9618 37.6112 26.2255 37.6112 26.4892L37.2597 28.5985C37.1718 28.8622 36.996 29.038 36.8202 29.2138C36.6444 29.3895 36.3808 29.4774 36.205 29.4774H28.0312L26.2734 39.1454C26.1855 39.4091 26.0976 39.5849 25.9218 39.7606C25.746 39.9364 25.4823 40.0243 25.2187 40.0243H23.1093C22.7577 40.0243 22.4062 39.9364 22.2304 39.6727C22.0546 39.4091 21.9667 39.1454 22.0546 38.7938L23.7245 29.4774H13.9687L12.2109 39.1454C12.123 39.4091 12.0351 39.5849 11.8593 39.7606C11.6835 39.9364 11.4198 40.0243 11.1562 40.0243H9.04679C8.69523 40.0243 8.34367 39.9364 8.16789 39.6727C7.99211 39.4091 7.90421 39.1454 7.99211 38.7938L9.66203 29.4774H1.83976C1.4882 29.4774 1.13664 29.3895 0.960855 29.1259C0.785074 28.8622 0.697184 28.5985 0.785074 28.247L1.13664 26.1376C1.13664 25.9618 1.31242 25.6981 1.4882 25.5224C1.66398 25.3466 1.92765 25.2587 2.19132 25.2587H10.453L12.2109 15.4149H4.38859C4.03703 15.4149 3.68546 15.327 3.50968 15.0634C3.3339 14.7997 3.24601 14.536 3.3339 14.1845L3.68546 12.0751C3.68546 11.8993 3.86125 11.6356 4.03703 11.4599C4.21281 11.2841 4.38859 11.1962 4.74015 11.1962H12.914L14.6718 1.52821C14.6718 1.35243 14.8476 1.08876 15.0234 0.912979C15.1991 0.737198 15.3749 0.649307 15.7265 0.649307H17.8359C18.1874 0.649307 18.4511 0.825089 18.6269 1.08876C18.8027 1.35243 18.8905 1.6161 18.8905 1.87978L17.2206 11.1962H26.9765L28.7343 1.52821C28.7343 1.35243 28.9101 1.08876 29.0859 0.912979C29.2616 0.737198 29.4374 0.649307 29.789 0.649307H31.8984C32.2499 0.649307 32.5136 0.825089 32.6894 1.08876C32.8652 1.35243 32.953 1.6161 32.953 1.87978L31.2831 11.1962H39.1054C39.4569 11.1962 39.7206 11.372 39.8964 11.6356C40.0722 11.8993 40.1601 12.163 40.1601 12.4267L39.8085 14.536ZM24.5155 25.2587L26.2734 15.4149H16.4296L14.6718 25.2587H24.5155Z" fill="#2D86DA"/>
</svg>
