<svg width="21" height="17" viewBox="0 0 21 17" fill="none" xmlns="http://www.w3.org/2000/svg">
<path d="M18.5225 4.13281C19.3037 3.54688 20.0068 2.84375 20.5928 1.98438C19.8115 2.33594 19.0303 2.57031 18.249 2.64844C19.1084 2.10156 19.7334 1.35938 20.0459 0.382812C19.2256 0.851562 18.3662 1.20312 17.4287 1.35938C17.0381 0.96875 16.5693 0.65625 16.0615 0.421875C15.5537 0.1875 15.0068 0.0703125 14.4209 0.0703125C13.6787 0.0703125 13.0146 0.265625 12.3896 0.617188C11.7646 1.00781 11.2568 1.51562 10.9053 2.14062C10.5146 2.76562 10.3584 3.46875 10.3584 4.17188C10.3584 4.48438 10.3584 4.79688 10.4365 5.10938C8.75684 5.03125 7.19434 4.64062 5.70996 3.85938C4.22559 3.11719 3.01465 2.10156 1.99902 0.8125C1.6084 1.47656 1.41309 2.17969 1.41309 2.88281C1.41309 3.58594 1.56934 4.25 1.9209 4.83594C2.2334 5.46094 2.70215 5.92969 3.24902 6.32031C2.58496 6.32031 1.95996 6.125 1.41309 5.77344V5.85156C1.41309 6.82812 1.72559 7.6875 2.35059 8.42969C2.97559 9.21094 3.75684 9.67969 4.69434 9.875C4.30371 9.95312 3.95215 9.99219 3.60059 9.99219C3.36621 9.99219 3.09277 9.99219 2.8584 9.95312C3.09277 10.7734 3.56152 11.4375 4.26465 11.9844C4.96777 12.5312 5.74902 12.7656 6.68652 12.7656C5.16309 13.9375 3.44434 14.5234 1.56934 14.5234C1.17871 14.5234 0.866211 14.5234 0.592773 14.4844C2.46777 15.7344 4.57715 16.3203 6.88184 16.3203C9.26465 16.3203 11.374 15.7344 13.249 14.4844C14.9287 13.3906 16.2568 11.9453 17.1943 10.0703C18.0928 8.35156 18.5615 6.51562 18.5615 4.64062C18.5615 4.40625 18.5225 4.25 18.5225 4.13281Z" fill="#2D86DA"/>
</svg>
