<svg width="57" height="41" viewBox="0 0 57 41" fill="none" xmlns="http://www.w3.org/2000/svg">
<path d="M8.81242 17.5243C11.8886 17.5243 14.4374 15.0634 14.4374 11.8993C14.4374 8.82314 11.8886 6.27431 8.81242 6.27431C5.64836 6.27431 3.18742 8.82314 3.18742 11.8993C3.18742 15.0634 5.64836 17.5243 8.81242 17.5243ZM48.1874 17.5243C51.2636 17.5243 53.8124 15.0634 53.8124 11.8993C53.8124 8.82314 51.2636 6.27431 48.1874 6.27431C45.0234 6.27431 42.5624 8.82314 42.5624 11.8993C42.5624 15.0634 45.0234 17.5243 48.1874 17.5243ZM50.9999 20.3368H45.3749C43.7929 20.3368 42.3866 21.0399 41.3319 22.0067C44.9355 23.9403 47.3964 27.4559 48.0116 31.5868H53.8124C55.3066 31.5868 56.6249 30.3563 56.6249 28.7743V25.9618C56.6249 22.8856 54.0761 20.3368 50.9999 20.3368ZM28.4999 20.3368C33.8612 20.3368 38.3437 15.9423 38.3437 10.4931C38.3437 5.13173 33.8612 0.649307 28.4999 0.649307C23.0507 0.649307 18.6562 5.13173 18.6562 10.4931C18.6562 15.9423 23.0507 20.3368 28.4999 20.3368ZM35.1796 23.1493H34.4765C32.6308 24.0282 30.6093 24.5556 28.4999 24.5556C26.3027 24.5556 24.2812 24.0282 22.4355 23.1493H21.7323C16.1073 23.1493 11.6249 27.7196 11.6249 33.3446V35.8056C11.6249 38.1786 13.4706 40.0243 15.8437 40.0243H41.1562C43.4413 40.0243 45.3749 38.1786 45.3749 35.8056V33.3446C45.3749 27.7196 40.8046 23.1493 35.1796 23.1493ZM15.58 22.0067C14.5253 21.0399 13.1191 20.3368 11.6249 20.3368H5.99992C2.83586 20.3368 0.374918 22.8856 0.374918 25.9618V28.7743C0.374918 30.3563 1.60539 31.5868 3.18742 31.5868H8.90031C9.51554 27.4559 11.9765 23.9403 15.58 22.0067Z" fill="#2D86DA"/>
</svg>
