<svg width="17" height="15" viewBox="0 0 17 15" fill="none" xmlns="http://www.w3.org/2000/svg">
<path d="M15.0717 1.96875C15.6967 2.53125 16.1654 3.1875 16.4154 3.96875C16.6654 4.78125 16.6967 5.5625 16.5092 6.375C16.3217 7.1875 15.9467 7.875 15.3842 8.4375L9.35291 14.6875C9.13416 14.9062 8.88416 15 8.63416 15C8.35291 15 8.10291 14.9062 7.91541 14.6875L1.88416 8.46875C1.29041 7.875 0.915409 7.1875 0.727909 6.375C0.540409 5.5625 0.602909 4.78125 0.852909 3.96875C1.10291 3.1875 1.54041 2.53125 2.19666 1.96875C2.75916 1.5 3.38416 1.1875 4.10291 1.0625C4.79041 0.9375 5.50916 1 6.19666 1.21875C6.88416 1.46875 7.47791 1.84375 8.00916 2.375L8.63416 3L9.25916 2.375C9.75916 1.84375 10.3842 1.46875 11.0717 1.21875C11.7592 1 12.4467 0.9375 13.1654 1.0625C13.8529 1.1875 14.5092 1.5 15.0717 1.96875Z" fill="#45ADFA"/>
</svg>
