<svg width="25" height="19" viewBox="0 0 25 19" fill="none" xmlns="http://www.w3.org/2000/svg">
<path d="M21.25 8.25C20.3906 8.25 19.6484 7.97656 19.0234 7.35156C18.3984 6.72656 18.125 5.98438 18.125 5.125C18.125 4.26562 18.3984 3.5625 19.0234 2.9375C19.6484 2.3125 20.3906 2 21.25 2C22.1094 2 22.8125 2.3125 23.4375 2.9375C24.0625 3.5625 24.375 4.26562 24.375 5.125C24.375 5.98438 24.0625 6.72656 23.4375 7.35156C22.8125 7.97656 22.1094 8.25 21.25 8.25ZM21.25 3.875C20.8984 3.875 20.5859 4.03125 20.3516 4.26562C20.1172 4.5 20 4.8125 20 5.125C20 5.47656 20.1172 5.78906 20.3516 6.02344C20.5859 6.25781 20.8984 6.375 21.25 6.375C21.5625 6.375 21.875 6.25781 22.1094 6.02344C22.3438 5.78906 22.5 5.47656 22.5 5.125C22.5 4.8125 22.3438 4.5 22.1094 4.26562C21.875 4.03125 21.5625 3.875 21.25 3.875ZM3.75 8.25C2.89062 8.25 2.14844 7.97656 1.52344 7.35156C0.898438 6.72656 0.625 5.98438 0.625 5.125C0.625 4.26562 0.898438 3.5625 1.52344 2.9375C2.14844 2.3125 2.89062 2 3.75 2C4.60938 2 5.3125 2.3125 5.9375 2.9375C6.5625 3.5625 6.875 4.26562 6.875 5.125C6.875 5.98438 6.5625 6.72656 5.9375 7.35156C5.3125 7.97656 4.60938 8.25 3.75 8.25ZM3.75 3.875C3.39844 3.875 3.08594 4.03125 2.85156 4.26562C2.61719 4.5 2.5 4.8125 2.5 5.125C2.5 5.47656 2.61719 5.78906 2.85156 6.02344C3.08594 6.25781 3.39844 6.375 3.75 6.375C4.0625 6.375 4.375 6.25781 4.60938 6.02344C4.84375 5.78906 5 5.47656 5 5.125C5 4.8125 4.84375 4.5 4.60938 4.26562C4.375 4.03125 4.0625 3.875 3.75 3.875ZM19.2188 12.1172C19.7266 12.8984 20 13.7188 20 14.6172V16.375C20 16.9219 19.8047 17.3516 19.4531 17.7031C19.0625 18.0938 18.6328 18.25 18.125 18.25H6.875C6.32812 18.25 5.89844 18.0938 5.54688 17.7031C5.15625 17.3516 5 16.9219 5 16.375V14.6172C5 13.7188 5.23438 12.8984 5.78125 12.1172C6.28906 11.3359 6.99219 10.8281 7.92969 10.5156C8.86719 10.2031 9.80469 10.2031 10.7422 10.4766C11.2891 10.6719 11.875 10.75 12.4609 10.75C13.0469 10.75 13.6328 10.6719 14.2578 10.4766C15.1953 10.2031 16.0938 10.2031 17.0312 10.5156C17.9688 10.8281 18.6719 11.3359 19.2188 12.1172ZM18.125 16.375V14.6172C18.125 13.9141 17.8516 13.3281 17.3828 12.8203C16.875 12.3125 16.2891 12.0391 15.5859 12C14.5703 12.4297 13.5156 12.625 12.5 12.625C11.4453 12.625 10.4297 12.4297 9.41406 12C8.71094 12.0391 8.08594 12.3125 7.61719 12.8203C7.10938 13.3281 6.875 13.9141 6.875 14.6172V16.375H18.125ZM21.7188 9.5C22.6172 9.5 23.3984 9.85156 24.0234 10.4766C24.6484 11.1016 25 11.8828 25 12.7812C25 13.0547 24.8828 13.2891 24.7266 13.4453C24.5312 13.6406 24.2969 13.7188 24.0625 13.7188C23.7891 13.7188 23.5547 13.6406 23.3984 13.4453C23.2031 13.2891 23.125 13.0547 23.125 12.7812C23.125 12.3906 22.9688 12.0781 22.6953 11.8047C22.4219 11.5312 22.1094 11.375 21.7188 11.375H20.7812C20.625 11.375 20.4688 11.4141 20.3125 11.4531C19.9219 10.9453 19.4922 10.4766 18.9453 10.0469C19.4922 9.69531 20.0781 9.5 20.7812 9.5H21.7188ZM12.5 9.5C11.7188 9.5 10.9766 9.30469 10.3125 8.91406C9.60938 8.52344 9.10156 8.01562 8.71094 7.3125C8.32031 6.64844 8.125 5.90625 8.125 5.125C8.125 4.34375 8.32031 3.64062 8.71094 2.9375C9.10156 2.27344 9.60938 1.72656 10.3125 1.33594C10.9766 0.945312 11.7188 0.75 12.5 0.75C13.2812 0.75 13.9844 0.945312 14.6875 1.33594C15.3516 1.72656 15.8984 2.27344 16.2891 2.9375C16.6797 3.64062 16.875 4.34375 16.875 5.125C16.875 5.90625 16.6797 6.64844 16.2891 7.3125C15.8984 8.01562 15.3516 8.52344 14.6875 8.91406C13.9844 9.30469 13.2812 9.5 12.5 9.5ZM12.5 2.625C11.7969 2.625 11.2109 2.89844 10.7422 3.36719C10.2344 3.875 10 4.46094 10 5.125C10 5.82812 10.2344 6.41406 10.7422 6.88281C11.2109 7.39062 11.7969 7.625 12.5 7.625C13.1641 7.625 13.75 7.39062 14.2578 6.88281C14.7266 6.41406 15 5.82812 15 5.125C15 4.46094 14.7266 3.875 14.2578 3.36719C13.75 2.89844 13.1641 2.625 12.5 2.625ZM6.05469 10.0469C5.50781 10.4766 5.03906 10.9453 4.6875 11.4922C4.53125 11.4141 4.375 11.375 4.21875 11.375H3.28125C2.89062 11.375 2.53906 11.5312 2.26562 11.8047C1.99219 12.0781 1.875 12.3906 1.875 12.7812C1.875 13.0547 1.75781 13.2891 1.60156 13.4453C1.40625 13.6406 1.17188 13.7188 0.9375 13.7188C0.664062 13.7188 0.429688 13.6406 0.273438 13.4453C0.078125 13.2891 0 13.0547 0 12.7812C0 11.8828 0.3125 11.1016 0.9375 10.4766C1.5625 9.85156 2.34375 9.5 3.28125 9.5H4.21875C4.88281 9.5 5.50781 9.69531 6.05469 10.0469Z" fill="#2D86DA"/>
</svg>
