<svg width="21" height="18" viewBox="0 0 21 18" fill="none" xmlns="http://www.w3.org/2000/svg">
<path d="M0.85498 2.125C0.85498 1.61719 1.01123 1.1875 1.40186 0.796875C1.75342 0.445312 2.18311 0.25 2.72998 0.25H18.98C19.4878 0.25 19.9175 0.445312 20.3081 0.796875C20.6597 1.1875 20.855 1.61719 20.855 2.125V15.875C20.855 16.4219 20.6597 16.8516 20.3081 17.2031C19.9175 17.5938 19.4878 17.75 18.98 17.75H2.72998C2.18311 17.75 1.75342 17.5938 1.40186 17.2031C1.01123 16.8516 0.85498 16.4219 0.85498 15.875V2.125ZM19.2925 10.875V7.125H8.55029V10.875H19.2925ZM19.2925 12.4375H8.55029V16.1875H18.8237C18.9409 16.1875 19.0581 16.1484 19.1362 16.0703C19.2144 15.9922 19.2925 15.875 19.2925 15.7188V12.4375ZM2.41748 7.125V10.875H6.98779V7.125H2.41748ZM8.55029 5.5625H19.2925V2.28125C19.2925 2.16406 19.2144 2.04688 19.1362 1.96875C19.0581 1.89062 18.9409 1.8125 18.8237 1.8125H8.55029V5.5625ZM6.98779 1.8125H2.88623C2.72998 1.8125 2.61279 1.89062 2.53467 1.96875C2.45654 2.04688 2.41748 2.16406 2.41748 2.28125V5.5625H6.98779V1.8125ZM2.41748 12.4375V15.7188C2.41748 15.875 2.45654 15.9922 2.53467 16.0703C2.61279 16.1484 2.72998 16.1875 2.88623 16.1875H6.98779V12.4375H2.41748Z" fill="#2D86DA"/>
</svg>
