<svg xmlns="http://www.w3.org/2000/svg" xmlns:xlink="http://www.w3.org/1999/xlink" width="477.359" height="429.923" viewBox="0 0 477.359 429.923"><defs><style>.a{fill:url(#a);}.b{fill:url(#b);}.c{fill:url(#c);}.d{fill:url(#d);}.e{fill:#e8e8e8;}.f{fill:#b8d6ff;}.g{fill:#757575;}.h,.l{fill:#fff;}.i{fill:url(#e);}.j{fill:url(#f);}.k{fill:url(#g);}.l{opacity:0.73;}.m{fill:#d4dbe1;}.n{fill:#c5ccd1;}.o{fill:#f5f5f5;}.p{fill:#4aafff;}.q{fill:#1487e3;}.r{fill:#1a598c;}.s{fill:#2273b5;}.t{fill:#3788cc;}.u{fill:url(#h);}.v{fill:url(#l);}.w{fill:url(#m);}.x{fill:url(#n);}.y{fill:#e2d2ca;}.z{fill:#706865;}.aa{fill:#ccbdb7;}.ab{fill:#998e89;}.ac{fill:#b59074;}.ad{fill:#ffb555;}.ae{fill:#424773;}.af{fill:#292c47;}.ag{fill:#eea886;}.ah{fill:#3a3f47;}.ai{fill:#323657;}.aj{fill:#918783;}.ak{fill:#5e5854;}.al{fill:#bfb2ac;}.am{fill:#b8aba5;}.an{fill:#f5f7ff;}.ao{fill:#918681;}.ap{fill:#dfe1e8;}.aq{fill:#e0e0e0;}.ar{fill:#b8b8b8;}.as{fill:#d9d9d9;}.at{fill:url(#o);}.au{fill:#7ac4ff;}.av{fill:#5c544d;}.aw{fill:#3c4145;}.ax{fill:#33373b;}.ay{fill:#fccca2;}.az{fill:#495054;}.ba{fill:#d6d6d6;}.bb{fill:#c98462;}.bc{fill:#de9d7d;}.bd{fill:#d64c4a;}.be{fill:#3d416b;}.bf{fill:#cfbeb6;}.bg{fill:#23263d;}.bh{fill:#ff5a58;}.bi{fill:#807066;}.bj{fill:#191b2b;}.bk{fill:#a77860;}.bl{fill:#b03e3d;}.bm{fill:#282b45;}.bn{fill:#eddad3;}</style><linearGradient id="a" y1="0.5" x2="1" y2="0.5" gradientUnits="objectBoundingBox"><stop offset="0.005" stop-color="#3c6127"/><stop offset="1" stop-color="#639c38"/></linearGradient><linearGradient id="b" x1="-284.206" y1="-103.267" x2="-284.206" y2="-104.468" xlink:href="#a"/><linearGradient id="c" x1="0" y1="0.5" x2="1" y2="0.5" xlink:href="#a"/><linearGradient id="d" x1="-589.914" y1="-71.855" x2="-589.914" y2="-73.016" xlink:href="#a"/><linearGradient id="e" x1="1.491" y1="0.5" x2="-0.431" y2="0.5" gradientUnits="objectBoundingBox"><stop offset="0" stop-color="#ffc05c"/><stop offset="1" stop-color="#ff3857"/></linearGradient><linearGradient id="f" x1="1.38" y1="0.5" x2="-0.399" y2="0.5" xlink:href="#e"/><linearGradient id="g" x1="2.127" y1="0.5" x2="-0.615" y2="0.5" xlink:href="#e"/><linearGradient id="h" y1="0.5" x2="1" y2="0.5" gradientUnits="objectBoundingBox"><stop offset="0" stop-color="#40d5e6"/><stop offset="1" stop-color="#57f"/></linearGradient><linearGradient id="l" y1="0.5" x2="1" y2="0.5" gradientUnits="objectBoundingBox"><stop offset="0" stop-color="#ff9340"/><stop offset="1" stop-color="#ffce45"/></linearGradient><linearGradient id="m" y1="0.5" x2="1" y2="0.5" gradientUnits="objectBoundingBox"><stop offset="0" stop-color="#c97332"/><stop offset="1" stop-color="#ffce45"/></linearGradient><linearGradient id="n" x1="7.867" y1="7.143" x2="6.867" y2="7.143" xlink:href="#h"/><linearGradient id="o" x1="0" y1="0.5" x2="1" y2="0.5" xlink:href="#e"/></defs><g transform="translate(-54.369 -60.301)"><g transform="translate(54.37 60.301)"><g transform="translate(361.232 33.416)"><path class="a" d="M382.751,136.064c-7.77,14.8-12.449,28.941-7.674,35.62a8.159,8.159,0,0,0,.935,1.094c3.754,3.686,11.506,4.181,24.874-.284,35.584-11.887,38.516-35.551,46.814-58.365,8.181-22.531,32.24-17.354,32.853-17.217C425.07,74.17,395.93,110.981,382.751,136.064Z" transform="translate(-373.15 -89.79)"/><g transform="translate(1.927 20.11)"><path class="b" d="M374.851,169.321a8.163,8.163,0,0,0,.935,1.094c6.757-3.59,19.738-11.274,26.154-20.34a139.894,139.894,0,0,0,8.4-14.268c5.223-9.712,10.636-19.755,19.537-27.2l-.891-1.069c-9.1,7.623-14.575,17.783-19.865,27.613a136.518,136.518,0,0,1-8.319,14.122C394.55,158.116,381.438,165.825,374.851,169.321Z" transform="translate(-374.851 -107.537)"/></g></g><g transform="translate(371.51)"><path class="c" d="M387.263,146.517c.357,1.031.591,1.616.616,1.682.137-.551.271-1.1.406-1.627,5.93-23.565,12.28-25.72,32.038-45.55C440.531,80.74,430.637,60.3,430.637,60.3,365.792,75.311,383.5,135.636,387.263,146.517Z" transform="translate(-382.22 -60.301)"/><g transform="translate(5.005 23.991)"><path class="d" d="M386.674,143.7c.357,1.031.591,1.616.616,1.682.137-.551.271-1.1.406-1.627-.959-20.7,12.763-44.191,16.9-48.316,4.279-4.273,7.1-10.312,8.165-12.588.18-.376.348-.735.4-.819l-.875-.555c-.087.135-.2.385-.463.938-1.043,2.229-3.809,8.147-7.962,12.287C398.618,99.93,385.853,123.588,386.674,143.7Z" transform="translate(-386.637 -81.473)"/></g></g><rect class="e" width="309.7" height="279.227" rx="10.998" transform="translate(103.666 49.691)"/><path class="f" d="M2.561,0h62a2.56,2.56,0,0,1,2.56,2.56v7.875A2.561,2.561,0,0,1,64.565,13h-62A2.561,2.561,0,0,1,0,10.436V2.561A2.561,2.561,0,0,1,2.561,0Z" transform="translate(238.185 184.822)"/><path class="g" d="M2.561,0h62a2.56,2.56,0,0,1,2.56,2.56V50.511a2.56,2.56,0,0,1-2.56,2.56H2.561A2.561,2.561,0,0,1,0,50.51V2.561A2.561,2.561,0,0,1,2.561,0Z" transform="translate(238.185 203.43)"/><rect class="f" width="37.852" height="3.798" transform="translate(349.105 92.074)"/><rect class="f" width="43.504" height="3.798" transform="translate(349.105 103.831)"/><rect class="f" width="22.507" height="3.798" transform="translate(349.04 115.522)"/><rect class="f" width="34.679" height="3.8" transform="translate(349.04 127.211)"/><rect class="h" width="165.618" height="3.885" transform="translate(119.883 290.343)"/><rect class="h" width="178.955" height="3.885" transform="translate(119.883 299.405)"/><rect class="h" width="116.116" height="3.885" transform="translate(119.883 308.468)"/><rect class="i" width="86.236" height="3.885" transform="translate(119.883 290.343)"/><rect class="j" width="93.18" height="3.885" transform="translate(119.883 299.405)"/><rect class="k" width="60.461" height="3.885" transform="translate(119.883 308.468)"/><path class="l" d="M9.9,0h95.029a9.9,9.9,0,0,1,9.9,9.9V155.383a9.9,9.9,0,0,1-9.9,9.9H9.9a9.9,9.9,0,0,1-9.9-9.9V9.9A9.9,9.9,0,0,1,9.9,0Z" transform="translate(328.439 154.466)"/><path class="m" d="M1.406,0H81.217a1.407,1.407,0,0,1,1.407,1.407V4.462a1.407,1.407,0,0,1-1.407,1.407H1.407A1.407,1.407,0,0,1,0,4.462V1.406A1.406,1.406,0,0,1,1.406,0Z" transform="translate(342.306 255.282)"/><path class="m" d="M1.407,0H57.395A1.407,1.407,0,0,1,58.8,1.407V4.461a1.408,1.408,0,0,1-1.408,1.408H1.409A1.409,1.409,0,0,1,0,4.46V1.407A1.407,1.407,0,0,1,1.407,0Z" transform="translate(342.306 268.231)"/><path class="m" d="M1.408,0H68.443A1.407,1.407,0,0,1,69.85,1.407V4.462a1.407,1.407,0,0,1-1.407,1.407H1.408A1.408,1.408,0,0,1,0,4.461V1.408A1.408,1.408,0,0,1,1.408,0Z" transform="translate(342.306 281.181)"/><path class="h" d="M5.082,0H25.428A5.082,5.082,0,0,1,30.51,5.082V25.428a5.08,5.08,0,0,1-5.08,5.08H5.082A5.082,5.082,0,0,1,0,25.426V5.082A5.082,5.082,0,0,1,5.082,0Z" transform="translate(370.598 297.1)"/><rect class="n" width="2.889" height="12.14" transform="translate(384.408 306.283)"/><rect class="n" width="2.887" height="12.138" transform="translate(391.923 310.909) rotate(90)"/><g transform="translate(48.836 180.283)"><rect class="o" width="194.62" height="178.213" rx="10.462"/><g transform="translate(81.582 61.279)"><path class="p" d="M259.312,274.5l-.169-1.029-25.072,4.108-8.129,17.323-27.032,1.835-8.757,12.918-20.667-.514-.027,1.041,21.235.527,8.791-12.967,27.138-1.841,8.156-17.384Z" transform="translate(-169.461 -273.475)"/></g><path class="q" d="M222.076,244.234h27.018a3.09,3.09,0,0,0,3.089-3.09h0a3.088,3.088,0,0,0-3.089-3.087H222.076a3.087,3.087,0,0,0-3.088,3.087h0A3.089,3.089,0,0,0,222.076,244.234Z" transform="translate(-81.284 -216.913)"/><path class="p" d="M222.076,253.744h27.018a3.09,3.09,0,0,0,3.089-3.09h0a3.089,3.089,0,0,0-3.089-3.089H222.076a3.088,3.088,0,0,0-3.088,3.089h0A3.089,3.089,0,0,0,222.076,253.744Z" transform="translate(-81.284 -215.646)"/><path class="p" d="M222.076,263.252h27.018a3.088,3.088,0,0,0,3.089-3.088h0a3.09,3.09,0,0,0-3.089-3.09H222.076a3.089,3.089,0,0,0-3.088,3.09h0A3.087,3.087,0,0,0,222.076,263.252Z" transform="translate(-81.284 -214.38)"/><path class="p" d="M2.824,0h97.757a2.824,2.824,0,0,1,2.824,2.824V12.01a2.823,2.823,0,0,1-2.823,2.823H2.824A2.824,2.824,0,0,1,0,12.009V2.824A2.824,2.824,0,0,1,2.824,0Z" transform="translate(16.4 20.175)"/><rect class="q" width="103.406" height="14.835" rx="2.824" transform="translate(16.4 41.455)"/><g transform="translate(121.029 93.959)"><path class="p" d="M251.285,312.965A26.017,26.017,0,1,0,209.3,343.7c.346.471.7.93,1.075,1.372a26.018,26.018,0,0,0,40.911-32.11Zm-9.47,31.108a19.482,19.482,0,0,1-26.455-3.189q-.418-.5-.808-1.03a19.506,19.506,0,1,1,27.263,4.219Z" transform="translate(-204.272 -302.314)"/><g transform="translate(0.003 1.302)"><path class="r" d="M210.786,327.9l-6.511-.093a26.053,26.053,0,0,1,17.87-24.347l2.039,6.186a19.533,19.533,0,0,0-13.4,18.254Z" transform="translate(-204.275 -303.463)"/></g><g transform="translate(0 25.649)"><path class="s" d="M215.36,337.869l-4.986,4.19c-.371-.442-.73-.9-1.075-1.372a25.908,25.908,0,0,1-5.023-15.739l6.511.093a19.412,19.412,0,0,0,3.766,11.8Q214.941,337.373,215.36,337.869Z" transform="translate(-204.272 -324.949)"/></g><g transform="translate(6.102 38.57)"><path class="t" d="M215.366,345.6a25.931,25.931,0,0,1-5.709-5.062l4.986-4.19a19.372,19.372,0,0,0,4.279,3.8Z" transform="translate(-209.657 -336.351)"/></g></g></g><g transform="translate(0 245.799)"><path class="u" d="M59.632,277.468c5.193-2.484,10.361,14.048,10.361,14.048,8.827,11.664,21.163-3.853,19.956,13.582-2.111,30.511,35.118,9.593,17.943,41.447s15.165,18.011,4.492,43.7,3.16,56.315-12.9,43.728c0,0-14.141-31.008-28.724-40.6s8.737-20.98,4.175-34.009c-6.628-18.927-22.6-18.184-11.082-38.523S41.979,285.91,59.632,277.468Z" transform="translate(-54.37 -277.214)"/><g transform="translate(20.904 32.346)"><path class="h" d="M102.114,418.5c-6.962-4.9-15.109-39.014-15.595-59.334-.248-10.409-3.326-14.745-6.04-18.572-2.595-3.656-4.836-6.816-3.531-14.067,2.5-13.861-4.065-19.843-4.132-19.9l.759-.866c.292.254,7.123,6.425,4.505,20.97-1.219,6.775.791,9.609,3.336,13.2,2.671,3.764,6,8.45,6.253,19.211.521,21.808,8.85,54.019,15.105,58.418Z" transform="translate(-72.817 -305.758)"/></g><g transform="translate(44.181 79.274)"><path class="u" d="M101.982,415.51a14.849,14.849,0,0,1-2.943-.32,6.418,6.418,0,0,1-5.228-4.207c-1.877-5.367,2.47-14.084,6-18.286a26.828,26.828,0,0,0,5.336-17.3c-.107-1.678-.28-3.23-.434-4.6-.443-3.959-.764-6.819.937-8.731,1.5-1.684,4.392-2.413,9.674-2.437,9.265-.043,12.928-3.879,15.871-6.962a16.765,16.765,0,0,1,3.865-3.328h0c4.618-2.521,9.507-2.891,11.629-.882,1.007.956,1.857,2.826.188,6.314a24.3,24.3,0,0,1-5.091,6.826c-2.137,2.182-3.551,3.625-2.816,6.5.173.673.373,1.355.572,2.04,1.428,4.884,3.047,10.421-5.313,14.177-1.775.8-3.39,1.432-4.817,1.992-5.836,2.29-9.358,3.674-13.335,12.066-.769,1.626-1.449,3.165-2.107,4.655C110.835,410.136,108.462,415.509,101.982,415.51Zm33.629-65.156a15.764,15.764,0,0,0-3.584,3.113c-3.094,3.24-6.944,7.273-16.7,7.318-4.857.023-7.578.656-8.819,2.052-1.36,1.528-1.063,4.175-.653,7.837.155,1.384.331,2.951.439,4.655a27.5,27.5,0,0,1-5.6,18.107c-3.494,4.16-7.451,12.439-5.8,17.166a5.342,5.342,0,0,0,4.371,3.46c7.873,1.591,10.048-3.335,13.649-11.495.661-1.5,1.343-3.046,2.119-4.683,4.171-8.808,8.065-10.335,13.955-12.646,1.414-.556,3.016-1.184,4.766-1.971,7.446-3.346,6.1-7.94,4.68-12.806-.2-.7-.406-1.389-.581-2.076-.9-3.5.87-5.3,3.108-7.588a23.094,23.094,0,0,0,4.875-6.519c.756-1.58,1.38-3.727.058-4.979-1.741-1.65-6.161-1.2-10.285,1.055Z" transform="translate(-93.359 -347.171)"/></g><g transform="translate(48.836 88.468)"><path class="u" d="M98.616,421.076l-1.149-.06c.057-1.08,1.507-26.541,11.729-33.993,11.215-8.175,14.752-16.959,16.436-22.856,1.984-6.95,12.084-8.806,12.514-8.882l.2,1.133c-.1.018-9.821,1.81-11.607,8.065-1.731,6.06-5.362,15.086-16.864,23.47C100.09,395.085,98.631,420.816,98.616,421.076Z" transform="translate(-97.467 -355.285)"/></g><path class="u" d="M123.725,300.146c-7.266-2.492-5.757,11.513-8.827,21.875s-34.155,4.519-21.106,30.466-16.5,8.677-7.676,31.319.768,46.859,10.363,40.7,5.389-34.67,15.367-38.06,11.607-7.34,1.727-16.55,25.887-18.354,17.061-36.952S132.119,303.024,123.725,300.146Z" transform="translate(-50.366 -274.198)"/><g transform="translate(46.05 58.426)"><path class="h" d="M99.521,419.569c-.913-3.877-8.717-37.988-1.436-42.111,6.417-3.635,6.26-17.768,5.258-31.117-.886-11.814,14.289-17.338,14.935-17.569l.385,1.086c-.15.054-14.993,5.462-14.173,16.4,1.028,13.707,1.139,28.254-5.838,32.2-5.53,3.132-.44,30.545,1.989,40.845Z" transform="translate(-95.008 -328.773)"/></g><path class="v" d="M118.73,398.18l-10.374,39.358H85.173L74.8,398.18Z" transform="translate(-51.649 -261.104)"/><path class="w" d="M118.73,398.18s-22.838,4.288-22.838,39.357H85.173L74.8,398.18Z" transform="translate(-51.649 -261.104)"/></g><g transform="translate(90.288 31.754)"><path class="x" d="M169.923,88.323v3.339H137.387V124.2h-3.34V88.323Z" transform="translate(-134.047 -88.323)"/></g><g transform="translate(46.192 261.879)"><g transform="translate(53.084 69.87)"><rect class="y" width="32.682" height="1.939"/></g><g transform="translate(57.464 76.859)"><rect class="z" width="2.864" height="88.23" transform="translate(2.864 88.23) rotate(180)"/></g><g transform="translate(80.651 69.319)"><rect class="aa" width="22.718" height="2.771"/></g><g transform="translate(87.708 45.679)"><rect class="ab" width="8.602" height="26.129"/></g><g transform="translate(41.36 71.842)"><rect class="ac" width="125.869" height="5.017"/></g><g transform="translate(6.979 33.051)"><path class="ad" d="M111.515,329s-1.377,19.306,2.4,21.616c2.363,1.447,11.785,6.33,11.505,7.246S120.1,366,120.1,366s-18.1-11.918-18.68-15.674c-.57-3.669.891-28.267,3.378-29.4,1.863-.848,2.847-.146,5.194,1.6C113.283,324.972,111.515,329,111.515,329Z" transform="translate(-101.293 -320.57)"/></g><g transform="translate(32.074 152.539)"><path class="ae" d="M130.832,426.52s-.562,3.906-.632,4.493-6.261-.346-6.261-.346l-.5-4.651S130.059,425.97,130.832,426.52Z" transform="translate(-123.438 -426.016)"/></g><g transform="translate(31.106 156.774)"><path class="af" d="M130.379,430.018a16.7,16.7,0,0,0,3.858,3.38c1.9,1.026,4.877,1.432,6,2.494.81.767,2.95,4.067-4.929,4s-11.676.467-12.52-.8,1.22-9.34,1.22-9.34S125.874,430.425,130.379,430.018Z" transform="translate(-122.584 -429.754)"/></g><g transform="translate(71.733 152.575)"><path class="ae" d="M165.831,426.552s-.563,3.906-.633,4.494-6.261-.347-6.261-.347l-.5-4.651S165.057,426,165.831,426.552Z" transform="translate(-158.436 -426.048)"/></g><g transform="translate(70.766 156.812)"><path class="af" d="M165.377,430.051a16.711,16.711,0,0,0,3.858,3.379c1.9,1.025,8.877,1.869,10,2.931.809.767,2.156,3.852-8.929,3.564-7.874-.205-11.676.467-12.52-.8s1.222-9.339,1.222-9.339S160.764,430.5,165.377,430.051Z" transform="translate(-157.582 -429.787)"/></g><g transform="translate(13.891 85.567)"><path class="af" d="M113,366.915s22.506,3.807,27.588,4.6,32.643,7.658,36.09,9.747c2.742,1.664-1.439,41.613-2.416,56.856H163.41l-.788-45.722c-13.026.325-22.321-3.046-31.808-1.606s-17.394,3.488-23.421-4.6C107.393,386.2,107.17,368.68,113,366.915Z" transform="translate(-107.392 -366.915)"/></g><g transform="translate(9.465 90.433)"><path class="af" d="M135.705,437.588l-10.578-.655-1.031-45.1a64.328,64.328,0,0,1-12.068-.765l-8.542-19.854c7.486,1.5,31.469,7.547,34.668,9.486C140.9,382.358,136.683,422.344,135.705,437.588Z" transform="translate(-103.486 -371.209)"/></g><g transform="translate(24.196 0.815)"><path class="ag" d="M122.153,292.517s8.249-2.28,11.4,4.125,1.721,18.546-2.436,19.687-10.137-.172-11.863-4.158-3.1-9.65-2.69-13.317S119.963,293.393,122.153,292.517Z" transform="translate(-116.486 -292.123)"/></g><g transform="translate(25.626 18.131)"><path class="ag" d="M128.788,313.017s-.091,4.87.446,5.908-11.487.778-11.487.778,1.895-5.847.819-10.832C117.5,303.941,128.788,313.017,128.788,313.017Z" transform="translate(-117.748 -307.404)"/></g><g transform="translate(23.718)"><path class="ah" d="M118.143,309.159s.644,1.307,3.755,1.1,7.218-3.966,8.54-4.3,1.4-1.088,1.4-1.088l.7,1.244,1.353.2s-.92-3.763,1.084-5.087-.9-12-11.052-9.423c0,0-7.745,1.419-7.849,5.743S116.641,306.867,118.143,309.159Z" transform="translate(-116.064 -291.404)"/></g><g transform="translate(25.783 26.326)"><path class="y" d="M129.849,317.837s-.033-1.983-.933-2.173-9.452-1.367-10.557-.933l-.474,2.619S120.013,318.658,129.849,317.837Z" transform="translate(-117.886 -314.636)"/></g><g transform="translate(36.758 10.372)"><path class="ag" d="M131.034,302.759c-.231-1.626-2.079-3.492-3.139-.961s.715,6.222,1.9,6.024S131.347,304.965,131.034,302.759Z" transform="translate(-127.571 -300.557)"/></g><g transform="translate(73.554 52.966)"><path class="ai" d="M160.059,338.147a.024.024,0,0,0-.016,0C160.105,338.173,160.114,338.176,160.059,338.147Z" transform="translate(-160.043 -338.145)"/></g><g transform="translate(22.416 2.369)"><path class="ah" d="M119.955,293.5s-10.059-.474-1.755,15.229Z" transform="translate(-114.915 -293.495)"/></g><g transform="translate(5.045 150.208)"><path class="aj" d="M99.585,435.913l.748,2.1,31.616-9.8-1.515-4.263Z" transform="translate(-99.585 -423.959)"/></g><g transform="translate(34.9 118.598)"><rect class="aj" width="3.594" height="34.372"/></g><g transform="translate(26.099 116.771)"><rect class="ak" width="21.195" height="2.025"/></g><g transform="translate(36.263 149.94)"><path class="aj" d="M159.5,435.944l-.748,2.1-31.616-9.8,1.389-4.53Z" transform="translate(-127.134 -423.723)"/></g><g transform="translate(36.263 149.94)"><path class="aj" d="M137.223,437.824v2.449l-10.089-12.02,1.389-4.53Z" transform="translate(-127.134 -423.723)"/></g><g transform="translate(65.672 162.135)"><circle class="al" cx="2.955" cy="2.955" r="2.955"/></g><g transform="translate(40.693 162.134)"><path class="al" d="M136.953,437.439A2.955,2.955,0,1,1,134,434.484,2.955,2.955,0,0,1,136.953,437.439Z" transform="translate(-131.044 -434.484)"/></g><g transform="translate(2.089 162.134)"><path class="al" d="M102.886,437.439a2.955,2.955,0,1,1-2.954-2.955A2.954,2.954,0,0,1,102.886,437.439Z" transform="translate(-96.977 -434.484)"/></g><g transform="translate(11.73 109.099)"><path class="y" d="M3.343,0H46.869a3.343,3.343,0,0,1,3.343,3.343V4.33A3.342,3.342,0,0,1,46.87,7.672H3.342A3.342,3.342,0,0,1,0,4.33V3.343A3.343,3.343,0,0,1,3.343,0Z"/></g><g transform="translate(148.261 76.859)"><rect class="z" width="2.863" height="88.23"/></g><g transform="translate(54.867 5.863)"><path class="am" d="M3.334,0H70.95a3.335,3.335,0,0,1,3.335,3.335V49.069A3.334,3.334,0,0,1,70.95,52.4H3.334A3.334,3.334,0,0,1,0,49.068V3.334A3.334,3.334,0,0,1,3.334,0Z"/></g><g transform="translate(57.777 8.696)"><rect class="an" width="68.465" height="41.357"/></g><g transform="translate(117.681 51.828)"><path class="ao" d="M204.5,339.269c0,1.176-1.235,2.129-2.76,2.129s-2.759-.953-2.759-2.129,1.236-2.128,2.759-2.128S204.5,338.093,204.5,339.269Z" transform="translate(-198.984 -337.141)"/></g><g transform="translate(87.717 65.176)"><path class="ab" d="M192.213,355.652v-.933s-1.311-5.8-10.585-5.8-9.086,6.732-9.086,6.732Z" transform="translate(-172.542 -348.92)"/></g><g transform="translate(85.557 62.444)"><path class="ag" d="M172.684,350.1a9.143,9.143,0,0,0,2.754-.6c.738-.446,5.153-3.415,6.191-2.941s7.94,2.59,7.7,3.6-.878.912-1.365.734-5.5-1.231-5.941-1.054c0,0,4.924,1.8,4.943,3.106s-1.03,1.631-1.5,2.126-1.028,1.726-2.3,1.821-7.46-2.06-8.734-2.158-3.633.078-3.793-.13S172.684,350.1,172.684,350.1Z" transform="translate(-170.636 -346.51)"/></g><g transform="translate(8.943 29.04)"><path class="ad" d="M145.012,320.268c-6.423-1.129-13.184-2.75-13.184-2.75l-11.963-.487s-10.979,2.416-15.3,4.37c-.41.186-.412,9.8-1.538,12.314l3.585,7.563s2.07,14.981,2.5,21.644c.2,3.06-.558,29.561-.558,29.561s1.074.529,9.239,1.43,28.564-.325,28.693-1.29-3.951-35.906-4.133-37.716c-.277-2.777.8-15.609.8-15.609,1.538,2.066,5.46,11.4,9.547,15.836,2.4,2.613,14.311,4.214,16.554,4.289,4.885.163,13.8,1.134,14.057.66.207-.284.777-7.91.219-8.1-.49-.162-17.037-1.115-21.278-3.364-1.55-.823-6.188-10.933-6.188-10.933S148.556,321.861,145.012,320.268Z" transform="translate(-103.025 -317.031)"/></g><g transform="translate(0 55.766)"><rect class="y" width="34.627" height="47.96" rx="6.418"/></g><g transform="translate(10.44 86.385)"><path class="y" d="M122.4,396.114c-5.1,0-9.244-1.716-12.307-5.1-6.923-7.643-5.678-21.077-5.623-21.646a1.927,1.927,0,0,1,3.835.38c-.015.153-1.117,12.33,4.651,18.687,2.334,2.572,5.423,3.82,9.445,3.82a1.928,1.928,0,0,1,0,3.855Z" transform="translate(-104.346 -367.636)"/></g><g transform="translate(62.631 11.99)"><path class="ap" d="M.478,0h19.1a.479.479,0,0,1,.479.479V1.707a.479.479,0,0,1-.479.479H.478A.478.478,0,0,1,0,1.708V.478A.478.478,0,0,1,.478,0Z"/></g><g transform="translate(62.631 16.677)"><path class="ap" d="M.479,0h19.1a.479.479,0,0,1,.479.479V1.707a.477.477,0,0,1-.477.477H.478A.478.478,0,0,1,0,1.706V.479A.479.479,0,0,1,.479,0Z"/></g><g transform="translate(62.631 22.052)"><path class="ap" d="M1.606,0H18.449a1.606,1.606,0,0,1,1.606,1.606V23.1a1.606,1.606,0,0,1-1.606,1.606H1.607A1.607,1.607,0,0,1,0,23.1V1.606A1.606,1.606,0,0,1,1.606,0Z"/></g><g transform="translate(86.736 11.99)"><path class="ap" d="M2.545,0H33.17a2.544,2.544,0,0,1,2.544,2.544V32.226a2.545,2.545,0,0,1-2.545,2.545H2.545A2.545,2.545,0,0,1,0,32.226V2.545A2.545,2.545,0,0,1,2.545,0Z"/></g></g><g transform="translate(125.187 79.315)"><g transform="translate(0 8.285)"><rect class="aq" width="0.641" height="67.239"/></g><g transform="translate(45.568 8.285)"><rect class="aq" width="0.641" height="67.239"/></g><g transform="translate(91.136 8.285)"><rect class="aq" width="0.641" height="67.239"/></g><g transform="translate(136.705 8.285)"><rect class="aq" width="0.641" height="67.239"/></g><g transform="translate(182.273 8.285)"><rect class="aq" width="0.64" height="67.239"/></g><rect class="ar" width="7.25" height="2.337" transform="translate(0.32 79.506)"/><rect class="as" width="10.915" height="1.753" transform="translate(0.32)"/><rect class="as" width="15.482" height="1.751" transform="translate(0.32 3.24)"/><rect class="as" width="12.814" height="1.753" transform="translate(45.398)"/><rect class="as" width="8.193" height="1.751" transform="translate(45.398 3.24)"/><rect class="as" width="7.941" height="1.753" transform="translate(91.777)"/><rect class="as" width="9.255" height="1.751" transform="translate(91.777 3.24)"/><rect class="as" width="11.566" height="1.753" transform="translate(137.345)"/><rect class="as" width="9.255" height="1.751" transform="translate(137.345 3.24)"/><rect class="as" width="6.907" height="1.753" transform="translate(182.594)"/><rect class="as" width="5.526" height="1.751" transform="translate(182.594 3.24)"/><rect class="ar" width="7.25" height="2.337" transform="translate(45.888 79.506)"/><rect class="ar" width="7.25" height="2.337" transform="translate(91.777 79.506)"/><rect class="ar" width="7.249" height="2.337" transform="translate(137.345 79.506)"/><rect class="ar" width="7.251" height="2.337" transform="translate(182.912 79.506)"/><g transform="translate(0.32 25.718)"><path class="at" d="M331.609,182.818c-14.212,0-26.568-6.144-39.449-12.55-15.9-7.907-32.343-16.083-54.252-13.845-13.989,1.429-22.77,7.128-30.516,12.152-7.014,4.553-13.647,8.554-22.628,8.9-14.516.551-19.552-5.64-19.636-6.018v-3.973h0c.018.069,3.188,7.019,19.62,6.936,8.093-.042,14.066-3.916,20.982-8.4,8.038-5.214,17.146-11.124,31.869-12.629,22.786-2.329,39.631,6.048,55.922,14.148,17.046,8.477,33.312,16.426,53.88,9.53v3.266A46.4,46.4,0,0,1,331.609,182.818Z" transform="translate(-165.128 -152.99)"/></g><g transform="translate(0.32 16.614)"><path class="u" d="M246.3,183.127c-10.491,0-18.812-7.056-26.958-13.962-6.177-5.236-12.585-10.591-19.982-13.232-22.575-8.06-34.124,6.657-34.227,6.788v-4.477c.122-.153,2.182-2.83,8.143-5.383,5.426-2.326,14.531-4.181,27.088.188,7.956,2.766,14.564,8.367,20.953,13.786,12.962,10.991,24.158,20.481,43.6,5.615,14.726-11.26,28.607-21.99,42.263-25.91,13.361-3.836,27.286-1.028,40.323,12.008l-.1,4.066c-27.691-27.814-51.27-10.192-80.633,12.261C258.988,180.823,252.288,183.127,246.3,183.127Z" transform="translate(-165.128 -144.957)"/></g></g><g transform="translate(341.734 163.904)"><path class="au" d="M433.437,284H365.326a9.394,9.394,0,0,1-9.383-9.383V214.328a9.4,9.4,0,0,1,9.383-9.385h68.112a9.394,9.394,0,0,1,9.382,9.385v60.285A9.393,9.393,0,0,1,433.437,284Zm-68.112-77.91a8.25,8.25,0,0,0-8.239,8.243v60.285a8.249,8.249,0,0,0,8.239,8.24h68.112a8.249,8.249,0,0,0,8.239-8.24V214.328a8.25,8.25,0,0,0-8.239-8.243Z" transform="translate(-355.943 -204.943)"/></g><g transform="translate(378.72 214.44)"><g transform="translate(80.856 197.524)"><path class="av" d="M459.936,424.41s.616,4.324.694,4.972,6.865-.382,6.865-.382l.548-5.148S460.785,423.8,459.936,424.41Z" transform="translate(-459.936 -423.851)"/></g><g transform="translate(69.7 202.215)"><path class="aw" d="M461.869,428.282a18.443,18.443,0,0,1-4.23,3.742c-2.081,1.135-5.35,1.585-6.578,2.76-.887.848-3.233,4.5,5.4,4.428s12.8.517,13.729-.885-1.339-10.338-1.339-10.338S466.81,428.732,461.869,428.282Z" transform="translate(-450.091 -427.99)"/></g><g transform="translate(32.225 197.524)"><path class="av" d="M417.02,424.41s.618,4.324.694,4.972,6.864-.382,6.864-.382l.553-5.148S417.869,423.8,417.02,424.41Z" transform="translate(-417.02 -423.851)"/></g><g transform="translate(17.079 202.215)"><path class="aw" d="M419.422,428.282a18.36,18.36,0,0,1-4.23,3.742c-2.079,1.135-9.735,2.068-10.963,3.243-.887.849-2.363,4.265,9.792,3.946,8.635-.228,12.8.517,13.727-.885s-1.342-10.338-1.342-10.338S424.479,428.783,419.422,428.282Z" transform="translate(-403.655 -427.99)"/></g><g transform="translate(59.665 86.451)"><path class="ax" d="M460.017,325.831s3.609,10.73,3.135,19.976,1.868,19.366,2.824,29.024c1.069,10.77,5.439,36.263,5.6,42.023s-.68,24.156-.68,24.156l-8.748.2s-7.347-44.568-9.251-49.115-11.34-36.969-11.657-40.606S460.017,325.831,460.017,325.831Z" transform="translate(-441.236 -325.831)"/></g><g transform="translate(31.044 85.212)"><path class="aw" d="M426.6,327.886s-4.807,25.343-5.44,31-1.057,27.389-1.375,30.925-2.117,46.287-3.806,51.541h11.186s8.585-31.077,8.585-45.781,6.632-31.966,10.915-41.668,14.083-9.93,16.718-27.929C463.381,325.977,430.162,322.177,426.6,327.886Z" transform="translate(-415.978 -324.738)"/></g><g transform="translate(48.692 0.94)"><path class="ag" d="M447.255,251.177s-8.817-3.293-12.883,3.418-3.673,20.149.773,21.8,11.119.789,13.4-3.411,4.329-10.271,4.23-14.328S449.571,252.348,447.255,251.177Z" transform="translate(-431.552 -250.369)"/></g><g transform="translate(53.509 18.428)"><path class="ag" d="M436.057,273.928a7.382,7.382,0,0,1-.232,3.451c-.588,1.138,11.091,1.166,11.091,1.166a76.849,76.849,0,0,1,2.743-11.425C451.459,261.888,436.057,273.928,436.057,273.928Z" transform="translate(-435.803 -265.802)"/></g><g transform="translate(49.717)"><path class="ay" d="M450.105,269.286s-.8,1.33-4.094.815-7.3-4.894-8.678-5.375-1.388-1.287-1.388-1.287l-.86,1.257-1.458.091s1.33-3.914-.675-5.511,2.083-12.676,12.636-8.988c0,0,8.1,2.236,7.809,6.843S451.919,266.991,450.105,269.286Z" transform="translate(-432.457 -249.54)"/></g><g transform="translate(52.838 26.666)"><path class="y" d="M435.211,276.273s.038-2.176,1.022-2.385,10.885-1.16,12.094-.684v2.535S446,277.173,435.211,276.273Z" transform="translate(-435.211 -273.072)"/></g><g transform="translate(53.164 10.542)"><path class="ag" d="M435.76,260.524c.186-.774,2.15-2.984,2.9-.618s-1.138,5.547-2.192,5.274S435.289,262.483,435.76,260.524Z" transform="translate(-435.499 -258.842)"/></g><g transform="translate(16.13 29.332)"><path class="az" d="M439.525,275.96s-5.427,1.949-11.711,4.62c0,0-7.226,2.7-8.009,10.682-.417,4.239-4.928,26.728-5.775,28.632s-10.851,32.475-11.2,33.11,8.163,4.17,8.727,3.888,9.688-27.884,10.607-29.928c0,0,5.251-16.549,5.393-19.017,0,0,.151,7.032.432,9.005s-4.671,40.3-4.527,41.354,22.506,2.4,31.459,1.415a109.7,109.7,0,0,0,16.175-3.048s-7.044-30.244-6.83-33.6c.474-7.306,2.912-21.067,2.912-21.067l7.3,13.761-9.341,24.038,2.138,7.3s17.361-26.236,17.924-28.632-.85-5.451-1.767-7.423-6.935-17-8.344-19.11-3.792-10.582-9.55-12.94a90.025,90.025,0,0,0-12.894-3.583Z" transform="translate(-402.817 -275.425)"/></g><g transform="translate(0 81.745)"><rect class="ba" width="42.224" height="29.456" transform="matrix(0.969, 0.248, -0.248, 0.969, 7.317, 0)"/></g><g transform="translate(10.904 113.151)"><path class="bb" d="M399.878,349.393s-1.171,1.889-1.6,2.428,1.049.877,1.683.331S399.878,349.393,399.878,349.393Z" transform="translate(-398.205 -349.393)"/></g><g transform="translate(12.484 106.276)"><path class="bc" d="M408.21,356.652a4.558,4.558,0,0,0,.84-1.182s.2-.861.388-1.465a4.165,4.165,0,0,1,.162-.46,8.33,8.33,0,0,0,.934-2.485c.182-1.165.689-6.4.689-6.4l-3.167-.8-2.545-.538s-5.5,5.485-5.793,6.552a3.077,3.077,0,0,0-.066.308,10.6,10.6,0,0,0,.08,2.182c-.011.181.016,2,.439,2.341a1.776,1.776,0,0,0,1.679.4,4.247,4.247,0,0,0,2.188.823,2.638,2.638,0,0,0,2.291.427S407.515,357.1,408.21,356.652Z" transform="translate(-399.6 -343.326)"/></g><g transform="translate(16.14 83.185)"><path class="az" d="M420.146,326.271s-7.259,21.986-8.594,24.292c0,0-5.321-1.12-8.727-3.888l7.966-23.726Z" transform="translate(-402.826 -322.949)"/></g></g><g transform="translate(254.391 214.441)"><path class="ag" d="M327.44,325.938a27.719,27.719,0,0,0-3.175-.189c-1.016.057-5.525,2.587-7.045,2.516s-11.669-3.39-12.139-3.657.124-.992.124-.992l22.459-2.2Z" transform="translate(-275.398 -239.969)"/><g transform="translate(49.471 49.769)"><path class="bd" d="M343.146,293.461l2.318,23.657s1.011,2.922-5.613,4c-6.763,1.1-17.33,3.4-17.33,3.4s.176,7.89,1.067,7.937c2.577.137,21.767-3.112,29.368-4.719,6.03-1.273,2.252-33.526,2.252-33.526Z" transform="translate(-322.522 -293.461)"/></g><path class="ag" d="M327.1,318.491a27.681,27.681,0,0,1-3.113.657c-1.014.1-5.847-1.739-7.34-1.441s-11.038,5.085-11.463,5.415.27.961.27.961l22.536-1.152Z" transform="translate(-275.379 -240.467)"/><g transform="translate(58.192 202.432)"><path class="af" d="M348.647,428.844s-4.673,2.839-6.791,3.9-10.395,1.455-11.2,2.243-.479,3.259.9,3.495,11.448,1.026,14.8.2,9.643.42,11.03-.069.4-7.975-.161-9.651S348.647,428.844,348.647,428.844Z" transform="translate(-330.218 -428.182)"/></g><g transform="translate(76.192 200.021)"><path class="be" d="M346.1,426.066l.428,3.061s6.307,1.1,8.2.108l-.51-3.18Z" transform="translate(-346.103 -426.055)"/></g><path class="af" d="M335.205,332.715c-.177,2.117-.317,6.738-.424,11.595-.024,1.08-.044,2.169-.062,3.249-.121,6.538-.18,12.591-.18,12.591.308,8.222,1.61,26.019,4.06,30.018,3.3,5.394,7.136,50.286,7.136,50.286l12.137,1.3s.751-30.013-1.063-37.851c-2.024-8.752-5.911-20.685-3.691-28.647,1.395-5,4.3-21.079,4.3-21.079s3.107-18.087-.118-31.969C356.5,318.741,335.205,332.715,335.205,332.715Z" transform="translate(-271.451 -239.937)"/><g transform="translate(37.346 202.432)"><path class="af" d="M330.252,428.844s-4.672,2.839-6.79,3.9-10.4,1.455-11.2,2.243-.479,3.259.9,3.495,11.45,1.026,14.8.2,9.643.42,11.029-.069.4-7.975-.161-9.651S330.252,428.844,330.252,428.844Z" transform="translate(-311.822 -428.182)"/></g><g transform="translate(55.348 200.021)"><path class="be" d="M327.708,426.066l.428,3.061s6.306,1.1,8.2.108l-.51-3.18Z" transform="translate(-327.708 -426.055)"/></g><path class="af" d="M325.4,441.3h12.443s4.178-24.063,4.521-34.666h0a27.319,27.319,0,0,0-.034-2.93c-.182-2.248-.45-4.713-.7-7.264,0-.018,0-.035-.006-.053-.732-7.589-1.274-15.922,1.241-21.563,2.111-4.739,7.338-20.224,7.338-20.224s5.719-17.436,4.561-31.643c-.292-3.549-22.4,5.371-22.4,5.371a130.51,130.51,0,0,0-2.489,13.407c-2.993,27.584-1.872,45.552-1.872,45.552C329.726,393.38,325.4,441.3,325.4,441.3Z" transform="translate(-272.667 -239.874)"/><g transform="translate(56.29 26.04)"><path class="bf" d="M333.89,276.125s-4.322,10.262-5.21,15.758,2.755,20.544,2.918,23.653c.512,9.648.747,20.318.747,20.318l21.064,9.389a192.415,192.415,0,0,0,3.739-19.062,85.343,85.343,0,0,0-.55-25.587c-2.933-18.919-14.773-28.073-14.773-28.073Z" transform="translate(-328.54 -272.52)"/></g><g transform="translate(45.031 2.026)"><path class="ag" d="M319.234,260.478s-1.461,5.652.065,6.1c1.259.368.072,5.854-.042,6.731s2.334.89,2.952,1.282,3.632,6.37,5.581,6.092,9.784-5.369,11.518-8.37.951-14.43-1.746-18.668S321.836,250.6,319.234,260.478Z" transform="translate(-318.604 -251.329)"/></g><g transform="translate(57.546 6.977)"><path class="ag" d="M329.648,273.82s.152.553.371,1.41c.092.359.195.771.3,1.218.082.341.171.7.256,1.072.033.134.063.267.1.406.143.624.287,1.278.416,1.924a20.846,20.846,0,0,1,.545,4.2c-.116,2.524,8.887-9.406,8.887-9.406a121.959,121.959,0,0,1-3.018-16.968C336.588,248.589,329.648,273.82,329.648,273.82Z" transform="translate(-329.648 -255.698)"/></g><g transform="translate(43.56)"><path class="af" d="M319.138,261.93a7.894,7.894,0,0,1-.071-9.937c4-5.225,14.931-.479,16.034-.467s6.972-1.037,6.66,10.026c-.279,9.848-.764,9.423-.764,9.423s-3.035-4.134-4.307-4.651c-1.985-.807-5.606.4-5.606.4s.607-5.106-2.3-5.09S321.664,260.211,319.138,261.93Z" transform="translate(-317.306 -249.54)"/></g><g transform="translate(59.502 10.952)"><path class="ag" d="M331.48,262.038c.085-.7.19-3.65,2.952-2.614s.206,7.172-.19,7.341S330.769,267.933,331.48,262.038Z" transform="translate(-331.374 -259.205)"/></g><path class="bg" d="M330.71,332.046s.968-4.546,1.154-5.226l28.423,4.729L360,335.222S339.516,334,330.71,332.046Z" transform="translate(-271.961 -239.249)"/><path class="bh" d="M358.095,311.368a89.865,89.865,0,0,0,8.532,41.024c1.227,2.595-18.816,2.46-18.816,2.46Z" transform="translate(-269.683 -241.307)"/><g transform="translate(58.915 26.04)"><path class="bh" d="M331.069,298.949c.372,2.181.694,4.386.971,6.591h0c.554,4.394.931,8.8,1.176,13.1.025.449.048.9.071,1.341q.056,1.086.1,2.158.056,1.428.1,2.836a97.825,97.825,0,0,0,7.8,34.966s14.367.984,18.066-1.027a295.458,295.458,0,0,0,1.409-43.8c-.09-1.681-.2-3.361-.342-5.028v0c-1.461-17.634-8.355-34.684-18.907-37.568C341.266,272.756,329.113,287.477,331.069,298.949Z" transform="translate(-330.856 -272.52)"/></g><rect class="bi" width="37.533" height="3.438" transform="translate(50.2 85.783) rotate(177.685)"/><rect class="bi" width="37.533" height="3.438" transform="translate(12.686 87.299) rotate(-109.756)"/><path class="bj" d="M335.379,379.154c1.057,6.84,5.623,21.138,5.726,21.455a27.312,27.312,0,0,0-.034-2.93c-.182-2.248-.45-4.713-.7-7.264,0-.018,0-.035-.006-.053-.238-2.219-1.828-6.306-2.885-9.085-1.067-2.8-2.105-13.913-2.105-13.913A35.256,35.256,0,0,0,335.379,379.154Z" transform="translate(-271.402 -233.85)"/><path class="bk" d="M330.554,275.9c.143.624.287,1.278.416,1.924,2.647-1.819,5.687-6.652,5.876-6.953C335.768,272.442,330.632,275.848,330.554,275.9Z" transform="translate(-271.982 -246.699)"/><path class="bl" d="M333,314.267q.037.658.073,1.309.054,1.059.1,2.105c3.225-.658,9.349-2.3,11.192-5.567,2.512-4.451-3.752-14.851-3.888-15.075.057.278,2.68,13.082,0,14.355C338.738,312.219,335.128,313.349,333,314.267Z" transform="translate(-271.656 -243.215)"/><path class="bm" d="M331.52,283.421a77.943,77.943,0,0,0-.265,24.015c1.613,10.939,2.237,18.787,2.237,18.787l-.808,3.086-1.472-2.369s-2.539-14.01-3.012-19.834c-.479-5.876-.981-13.765,2.418-23.746Z" transform="translate(-272.341 -245.037)"/><path class="bm" d="M331.36,283.818a1.569,1.569,0,0,1-.7.483c-.437.133-1.182-.485.646-3.837Z" transform="translate(-272.038 -245.422)"/><g transform="translate(58.914 24.669)"><path class="bn" d="M340.05,271.31s-5.549,7.06-9.195,8.98l.143,5.942,10.519-13.552Z" transform="translate(-330.855 -271.31)"/></g><path class="bh" d="M353.181,289.9c-.427-2.7-3.576-14.179-10.064-12.491s-4.66,9.5-3.244,15.383c1.48,6.158,6.783,21.029,5.857,21.957s-8.431,4.331-10.068,4.9-12.042,3.866-12.843,4.211c-.785.335,4.024,8.847,4.024,8.847s25.934-8.842,30.332-11.7S353.181,289.9,353.181,289.9Z" transform="translate(-273.023 -245.852)"/></g></g></g></svg>