<svg xmlns="http://www.w3.org/2000/svg" xmlns:xlink="http://www.w3.org/1999/xlink" width="704.903" height="473.729" viewBox="0 0 704.903 473.729"><defs><style>.a{fill:#e5e6f0;}.b,.bn{fill:#ecb485;}.c{fill:#385c8d;}.d{fill:#92ccc2;}.e{fill:#32547a;}.ay,.f{fill:#bc8b77;}.av,.g{fill:#8199f0;}.h{fill:#ebbc63;}.i{fill:#c7496f;}.j{fill:#7fc6cc;}.k{fill:#76baba;}.l{fill:#b4b7d3;}.m{clip-path:url(#a);}.bw,.n{fill:#eff2f7;}.o{fill:#bc93f1;}.p{fill:#fff;}.q{fill:#35476d;opacity:0.15;}.r{opacity:0.24;}.s{fill:#dea477;}.t{clip-path:url(#b);}.u{fill:#525ba0;}.v{clip-path:url(#c);}.w{clip-path:url(#d);}.ab,.ac,.ae,.aj,.ak,.ar,.aw,.ba,.bb,.bg,.bh,.bk,.bl,.bp,.bq,.x,.y,.z{fill:none;stroke-miterlimit:10;}.x{stroke:#385c8d;}.ab,.aj,.aw,.ba,.bg,.bk,.x,.y{stroke-width:0.519px;}.y,.z{stroke:#4d76a1;}.ac,.ak,.ar,.bb,.bh,.bl,.bq,.z{stroke-width:0.13px;}.aa{clip-path:url(#e);}.ab,.ac{stroke:#71a79b;}.ad{fill:#71a79b;}.ad,.ay{opacity:0.35;}.ae{stroke:#c7496f;stroke-width:1.086px;}.af{fill:#9e6a5a;}.ag{fill:#513e3a;}.ah{fill:#212d3c;}.ai{clip-path:url(#f);}.aj,.ak{stroke:#517eae;}.al{fill:#f2f5f8;}.am{fill:#e8a992;}.an{clip-path:url(#g);}.ao{clip-path:url(#h);}.ap{fill:#d3654d;}.aq{clip-path:url(#i);}.ar,.aw{stroke:#8199f0;}.ar,.av,.aw{opacity:0.5;}.as{clip-path:url(#j);}.at{clip-path:url(#k);}.au{clip-path:url(#l);}.ax{clip-path:url(#m);}.az{clip-path:url(#n);}.ba,.bb{stroke:#c6964b;}.bc{clip-path:url(#o);}.bd{fill:#5e2c2c;}.be{clip-path:url(#p);}.bf{fill:#ba436e;opacity:0.3;}.bg,.bh{stroke:#ba436e;}.bi{clip-path:url(#q);}.bj{clip-path:url(#r);}.bk,.bl{stroke:#a8365f;}.bm{clip-path:url(#s);}.bn{opacity:0.39;}.bo{fill:#744e4d;}.bp{stroke:#744e4d;stroke-width:1.038px;}.bq{stroke:#637dd3;}.br{clip-path:url(#t);}.bs{fill:#c1e7ed;}.bt{clip-path:url(#u);}.bu{clip-path:url(#v);}.bv{clip-path:url(#w);}.bw{opacity:0.37;}</style><clipPath id="a"><rect class="a" width="460.207" height="168.93"/></clipPath><clipPath id="b"><path class="b" d="M584.849,322s4.609-10.967-8.662-10.091l-34.145,96.619s-6.627,12.7-9.281,12.875-10.156-.4-3.576,2.369,8.774,3.686,11.253.857,5.42-6.754,5.42-6.754L542.345,429.3s11.3-14.607,4.544-20.026c0,0,37.472-46.19,35.611-66.326a8.922,8.922,0,0,1-.526-7.963C583.817,330.6,584.849,322,584.849,322" transform="translate(-526.551 -311.857)"/></clipPath><clipPath id="c"><path class="b" d="M601.244,312.05s-17.844-5.948-29.74,0l5.949,102.3s-1.19,14.276-3.569,15.464-9.517,3.569-2.38,3.569,9.517,0,10.706-3.569,2.379-8.326,2.379-8.326l1.19,11.9s4.758-17.844-3.569-20.223c0,0,16.654-57.1,7.137-74.942,0,0,30.929,1.19,30.929-3.569s-17.843-22.6-17.843-22.6" transform="translate(-568.414 -309.407)"/></clipPath><clipPath id="d"><path class="c" d="M658.671,303.052s11.9,15.465,4.759,27.361-59.479,8.327-59.479,8.327S598,313.758,578.97,310.19c0,0,40.445-7.138,54.721-3.569A33.39,33.39,0,0,0,658.671,303.052Z" transform="translate(-578.97 -303.052)"/></clipPath><clipPath id="e"><path class="d" d="M629.316,229.78s11.168,2.793,13.96,22.337-1.4,37.692,15.356,60.028c0,0,3.38,20.832-38.5-.107,0,0-22.923-48.055-.587-77.721C619.544,234.317,625.128,235.364,629.316,229.78Z" transform="translate(-609.767 -229.78)"/></clipPath><clipPath id="f"><path class="e" d="M161.693,278.683l-8.136,146.432s4.52,5.423,13.559,1.807L197.848,280.49l.9,143.72s9.943,4.52,14.462,0l9.943-162.7-7.231-8.136H178.543Z" transform="translate(-153.557 -253.373)"/></clipPath><clipPath id="g"><path class="c" d="M187.906,158.1l-34.349,9.943s10.847,54.234,6.327,91.295-6.327,35.252-6.327,35.252h27.117S202.367,238.1,187.906,158.1Z" transform="translate(-153.557 -158.1)"/></clipPath><clipPath id="h"><path class="c" d="M197.866,159.388l22.129,16.233,10.847,25.309-5.423,43.388.9,50.618h-8.135s-12.655-34.348-10.847-65.08S200.577,163.908,197.866,159.388Z" transform="translate(-197.866 -159.388)"/></clipPath><clipPath id="i"><path class="c" d="M155.53,167.172s-25.98,41.259-23.269,61.145,35.054,18.55,35.054,18.55-4.49-10.1,2.807-13.47c0,0-13.455-6.887-17.975-6.887,0,0,15.367-18.983,16.27-26.214S166.376,168.979,155.53,167.172Z" transform="translate(-132.063 -167.172)"/></clipPath><clipPath id="j"><path class="f" d="M496.787,390.307s-6.118-1.875-8.912,4.888l13.811,15.423s7.582,11.4,6.506,13.7-5.009,8.322.336,4.085,7.128-5.649,5.9-9.028-3.161-7.649-3.161-7.649l7.952,8.2s-7.027-16.189-14.676-13.028" transform="translate(-487.875 -390.068)"/></clipPath><clipPath id="k"><path class="f" d="M496.867,397.242s-3.929-5.051-10.1-1.123l2.436,20.559s-.346,13.684-2.55,14.951-8.882,3.93-2.072,3.536,9.079-.526,10.016-4,1.811-8.076,1.811-8.076l1.791,11.283s3.554-17.286-4.521-19.1" transform="translate(-481.595 -394.624)"/></clipPath><clipPath id="l"><path class="g" d="M506.39,248.755s13.9,11.483,12.633,45.592-13.9,108.644-20.212,123.8c0,0-11.371,1.263-12.634-1.263,0,0-1.263-122.54,1.263-130.12,0,0-24-16.423-22.739-31.582S506.39,248.755,506.39,248.755Z" transform="translate(-464.652 -246.253)"/></clipPath><clipPath id="m"><path class="f" d="M498.156,188.237s-7.3-9.968-3.368-19.508l-13.469,5.051s2.244,12.346-7.167,14.457c-4.444,1,2.527,8.843,2.527,8.843H493.1Z" transform="translate(-472.671 -168.729)"/></clipPath><clipPath id="n"><path class="h" d="M498.985,186.768s-12.634,8.843-24,0a11.47,11.47,0,0,0-7.426,2.379c-4.676,3.34-5.051,15.824-5.051,25.255,0,17.686,2.371,45.637,2.371,45.637s13.9,18.344,41.966-6.351c0,0-6.593-12.6-5.33-16.389s8.843-17.686,8.843-17.686,3.79-20.212,12.633-20.212C522.988,199.4,502.775,190.558,498.985,186.768Z" transform="translate(-462.505 -186.744)"/></clipPath><clipPath id="o"><path class="b" d="M291.736,399.773l-10.254,9.984s1.758,4.436-7.944,11.832c0,0-23.162-34.049-21.591-35.066s14.143,9.791,14.143,9.791l9.29,4.017,9.747-10.77Z" transform="translate(-251.869 -386.456)"/></clipPath><clipPath id="p"><path class="i" d="M382.065,333.382s-35.556,21.52-43.977,23.391c0,0-21.52,29.941-49.59,49.59l-10.292-10.292s43.041-66.432,56.14-69.239S380.194,328.7,382.065,333.382Z" transform="translate(-278.206 -325.985)"/></clipPath><clipPath id="q"><path class="b" d="M349.019,393.38l2.807,14.036s4.679.936,5.614,13.1c0,0-41.17.936-41.17-.936s15.907-6.55,15.907-6.55l8.421-5.613-3.742-14.036Z" transform="translate(-316.27 -393.38)"/></clipPath><clipPath id="r"><path class="i" d="M426.455,322.019s-.081,25.162-92.712,15.805c0,0,14.036,22.456,18.713,64.561l-16.842,3.742s-31.479-63.858-26.539-91.048a2.385,2.385,0,0,1,1.889-1.9c7.616-1.52,41.625-8,63.947-7.171C400.174,306.947,426.455,322.019,426.455,322.019Z" transform="translate(-308.548 -305.939)"/></clipPath><clipPath id="s"><path class="b" d="M406.489,227.364l.88,13.947s-8.421,7.484-14.97,0l.936-12.164Z" transform="translate(-392.399 -227.364)"/></clipPath><clipPath id="t"><path class="j" d="M126.1,223.286l-4.111,2.587,2.928-5.3c-3.42-7.348-6.881-10.844-6.881-10.844a90.919,90.919,0,0,0-6.383,41.687l6.51,3.7-6.2-.449c2.13,18.716,9.095,31.154,9.095,31.154l5.824.422C135.044,256.023,131.057,235.429,126.1,223.286Z" transform="translate(-111.358 -209.728)"/></clipPath><clipPath id="u"><path class="k" d="M108.436,237.986l-2.488,3.24.763-5.036a34.6,34.6,0,0,0-8.591-6.542,76.446,76.446,0,0,0,7.13,34.738l6.214,1.018-5.018,1.455a75.987,75.987,0,0,0,16.264,21.916l4.717-1.367C125.041,261.2,115.887,246.118,108.436,237.986Z" transform="translate(-98.082 -229.648)"/></clipPath><clipPath id="v"><path class="j" d="M145.816,239.7l-4.07.352,4.23-2.835a34.621,34.621,0,0,0-.97-10.756,76.45,76.45,0,0,0-20.82,28.708l3.443,5.272-4.46-2.721a75.98,75.98,0,0,0-5.194,26.792l4.192,2.558C139.9,267.615,144.845,250.684,145.816,239.7Z" transform="translate(-117.967 -226.458)"/></clipPath><clipPath id="w"><rect class="l" width="25.36" height="20.885" rx="1.915"/></clipPath></defs><g transform="translate(-54.131 1)"><g transform="translate(160.028 116.349)"><g transform="translate(0.281 0.281)"><rect class="a" width="460.207" height="168.93"/><g class="m"><ellipse class="n" cx="91.761" cy="64.541" rx="91.761" ry="64.541" transform="translate(-56.403 94.567)"/><ellipse class="n" cx="94.567" cy="85.026" rx="94.567" ry="85.026" transform="translate(147.322 -44.618)"/><ellipse class="n" cx="71.557" cy="80.817" rx="71.557" ry="80.817" transform="translate(363.396 64.261)"/></g></g><rect class="o" width="461.33" height="6.735"/><rect class="p" width="147.042" height="19.082" transform="translate(60.613 38.725)"/><rect class="p" width="97.654" height="12.347" transform="translate(305.87 151.532) rotate(-90)"/><rect class="p" width="81.939" height="12.347" transform="translate(332.809 152.654) rotate(-90)"/><rect class="p" width="71.837" height="12.347" transform="translate(361.993 151.532) rotate(-90)"/><rect class="p" width="147.042" height="19.082" transform="translate(60.613 75.205)"/><circle class="o" cx="8.98" cy="8.98" r="8.98" transform="translate(243.573 35.919)"/><circle class="o" cx="8.98" cy="8.98" r="8.98" transform="translate(243.573 75.766)"/><g transform="translate(152.909 105.654)"><path class="p" d="M344.411,234c.039-2.926.061-1.8.061-2.4,0-14.267-11.209-26.145-25.062-26.145a9.309,9.309,0,0,1-1.37-.273V234Z" transform="translate(-291.41 -205.184)"/><path class="p" d="M317.122,236.7V207.954c-14.628.743-23.7,12.007-23.7,25.792,0,14.268,11.223,26.424,25.076,26.424A25.085,25.085,0,0,0,343.511,236.7Z" transform="translate(-293.418 -204.958)"/></g></g><ellipse class="q" cx="352.452" cy="14.311" rx="352.452" ry="14.311" transform="translate(54.131 444.106)"/><path class="l" d="M613.163,342.138l-17,88.636h3.643l21.855-88.636Z" transform="translate(44.215 27.991)"/><path class="l" d="M648.446,342.138l17,88.636H661.8l-21.855-88.636Z" transform="translate(47.787 27.991)"/><path class="o" d="M591.733,338.824s-8.5,10.928,30.355,9.714,48.567-1.215,52.21-10.928,10.927-67.994,17-70.422-7.284-8.5-10.927,4.856-8.5,61.923-24.284,63.138S591.733,338.824,591.733,338.824Z" transform="translate(43.79 21.591)"/><path class="l" d="M367.723,342.138l-17,88.636h3.643l21.855-88.636Z" transform="translate(24.194 27.991)"/><path class="l" d="M403.006,342.138l17,88.636h-3.643l-21.855-88.636Z" transform="translate(27.766 27.991)"/><path class="o" d="M346.293,338.824s-8.5,10.928,30.355,9.714,48.567-1.215,52.21-10.928,10.928-67.994,17-70.422-7.285-8.5-10.928,4.856-8.5,61.923-24.283,63.138S346.293,338.824,346.293,338.824Z" transform="translate(23.768 21.591)"/><g transform="translate(88.619 -1)"><g transform="translate(37.182)"><rect class="a" width="1.024" height="77.642"/></g><ellipse class="a" cx="9.628" cy="8.502" rx="9.628" ry="8.502" transform="translate(28.066 90.753)"/><path class="o" d="M123.507,67.945,86.017,92.118h76.208Z" transform="translate(-86.017 6.624)"/></g><g transform="translate(364.743 -1)"><g transform="translate(37.182)"><rect class="a" width="1.024" height="77.642"/></g><ellipse class="a" cx="9.628" cy="8.502" rx="9.628" ry="8.502" transform="translate(28.066 90.753)"/><path class="o" d="M378.806,67.945,341.316,92.118h76.208Z" transform="translate(-341.316 6.624)"/></g><g transform="translate(604.388 -1)"><g transform="translate(37.182)"><rect class="a" width="1.024" height="77.642"/></g><ellipse class="a" cx="9.628" cy="8.502" rx="9.628" ry="8.502" transform="translate(28.066 90.753)"/><path class="o" d="M600.376,67.945,562.887,92.118h76.208Z" transform="translate(-562.887 6.624)"/></g><g transform="translate(307.61 280.166)"><g class="r" transform="translate(6.832)"><path class="p" d="M297.384,281.667s-4.213-1.96-1.861-5.977,7.349-2.744,4.311-8.133-6.761-3.037-3.723-6.957,4.9.294,4.41,1.274a1.186,1.186,0,0,1-1.568.49,1.15,1.15,0,0,0,.98-1.47c-.2-1.372-2.94-.883-3.43.98s13.13,7.152,9.5,10.092-5.1,5.1-3.724,6.468-3.331,3.43-3.331,3.43Z" transform="translate(-294.809 -258.96)"/><path class="p" d="M298.952,281.589a2.858,2.858,0,0,0,.756-3.554c-.955-2.389-2.986-1.632-1.752-4.837s2.748-1.806,1.513-4.138-1.991.175-1.792.758.638.291.638.291-.478-.058-.4-.874,1.2-.525,1.394.583-5.336,4.254-3.863,6,2.071,3.031,1.514,3.846,1.354,2.04,1.354,2.04Z" transform="translate(-294.778 -258.216)"/></g><path class="o" d="M306.214,279.773H293.266a1,1,0,0,0-.989,1.115l.468,3.4a2.6,2.6,0,0,0-1.854-.343,2.869,2.869,0,0,0-2.028,1.859,6.078,6.078,0,0,0,1.267,6.206,3.039,3.039,0,0,0,2.111.965,2.427,2.427,0,0,0,1.616-.615l.579,4.206c.118.972,10.947.946,11.043-.045l1.725-15.661A1,1,0,0,0,306.214,279.773Zm-13.687,12.178a1.913,1.913,0,0,1-1.695-.65,5.081,5.081,0,0,1-1.044-5.11,1.918,1.918,0,0,1,1.3-1.262,1.4,1.4,0,0,1,.278-.027,2.071,2.071,0,0,1,1.416.677c.055.054.108.111.16.17l.726,5.267A1.755,1.755,0,0,1,292.526,291.952Z" transform="translate(-288.492 -257.263)"/></g><g transform="translate(565.088 197.387)"><path class="s" d="M635.873,243.967c-3.406-9.584-9.438-7.589-9.438-7.589-9.055,3.929-18.458,41.9-18.458,41.9-6.527,4.434-37.348,12.988-37.348,12.988s-6.342-4.182-7.773-2.423-3.54,7.35-1.671,9.845,12.779-1.362,12.78-1.362c16.524-2.212,40.372-9.494,40.372-9.494S639.28,253.551,635.873,243.967Z" transform="translate(-523.786 -178.037)"/><g transform="translate(0 139.991)"><path class="b" d="M584.849,322s4.609-10.967-8.662-10.091l-34.145,96.619s-6.627,12.7-9.281,12.875-10.156-.4-3.576,2.369,8.774,3.686,11.253.857,5.42-6.754,5.42-6.754L542.345,429.3s11.3-14.607,4.544-20.026c0,0,37.472-46.19,35.611-66.326a8.922,8.922,0,0,1-.526-7.963C583.817,330.6,584.849,322,584.849,322" transform="translate(-526.551 -311.857)"/><g class="t"><path class="u" d="M549.8,401.942h-2.349s-8.809,19.968-14.094,11.159-11.746,2.936-11.746,2.936l12.333,9.984,14.681,2.937,9.4-20.555Z" transform="translate(-526.954 -304.508)"/></g></g><g transform="translate(45.277 137.341)"><path class="b" d="M601.244,312.05s-17.844-5.948-29.74,0l5.949,102.3s-1.19,14.276-3.569,15.464-9.517,3.569-2.38,3.569,9.517,0,10.706-3.569,2.379-8.326,2.379-8.326l1.19,11.9s4.758-17.844-3.569-20.223c0,0,16.654-57.1,7.137-74.942,0,0,30.929,1.19,30.929-3.569s-17.843-22.6-17.843-22.6" transform="translate(-568.414 -309.407)"/><g class="v"><path class="u" d="M584.476,404.114l-1.762,1.175s-.587,17.032-8.222,16.444-9.983,4.7-9.983,4.7l12.332,2.935,14.1-.586,2.936-8.222-4.111-15.27Z" transform="translate(-568.732 -301.681)"/></g></g><g transform="translate(56.695 130.468)"><path class="c" d="M658.671,303.052s11.9,15.465,4.759,27.361-59.479,8.327-59.479,8.327S598,313.758,578.97,310.19c0,0,40.445-7.138,54.721-3.569A33.39,33.39,0,0,0,658.671,303.052Z" transform="translate(-578.97 -303.052)"/><g class="w"><path class="x" d="M606.966,314.751l-.562-.182" transform="translate(-576.732 -302.112)"/><path class="y" d="M599.322,340.657v.188" transform="translate(-577.31 -299.984)"/><path class="z" d="M580.3,309.077a124.385,124.385,0,0,1,23.932,2.786" transform="translate(-578.862 -302.56)"/><path class="z" d="M579.779,310.152a46.219,46.219,0,0,1,14.386,2.918" transform="translate(-578.904 -302.473)"/><path class="z" d="M604.3,338.977a15.683,15.683,0,0,0-.555-13.846" transform="translate(-576.949 -301.251)"/><path class="z" d="M607.961,336.049a26.349,26.349,0,0,0,6.009-5.588" transform="translate(-576.605 -300.816)"/><path class="z" d="M619.039,307.623l13.473,4.854" transform="translate(-575.701 -302.679)"/><path class="z" d="M607.282,309.507a253.532,253.532,0,0,0,35.352,6.021" transform="translate(-576.66 -302.525)"/></g></g><path class="b" d="M604.7,192.35c0,1.4-5.583,32.108,6.98,36.3s18.148-13.96,18.148-13.96l-8.376-19.544Z" transform="translate(-520.277 -181.614)"/><path class="b" d="M618.807,220.153v20.94l12.564-6.98L627.6,210.9Z" transform="translate(-519.025 -180.101)"/><g transform="translate(90.005 51.219)"><path class="d" d="M629.316,229.78s11.168,2.793,13.96,22.337-1.4,37.692,15.356,60.028c0,0,3.38,20.832-38.5-.107,0,0-22.923-48.055-.587-77.721C619.544,234.317,625.128,235.364,629.316,229.78Z" transform="translate(-609.767 -229.78)"/><g class="aa"><path class="ab" d="M611.948,294.648" transform="translate(-609.59 -224.489)"/><path class="ac" d="M618.3,304.985a85.2,85.2,0,0,0,13.711,3.57" transform="translate(-609.071 -223.645)"/><path class="ac" d="M619.214,304.466a37.261,37.261,0,0,0,8.586-1.235" transform="translate(-608.997 -223.788)"/><path class="ac" d="M654.376,301.231a5.071,5.071,0,0,1-.309,4.5,12,12,0,0,1-7.492,6.286" transform="translate(-606.765 -223.952)"/><path class="ac" d="M616.617,236.276a24.712,24.712,0,0,0,8.283.224,9.91,9.91,0,0,0,6.811-4.34" transform="translate(-609.209 -229.586)"/><path class="ad" d="M613.8,296.734c1.123-1.123,29.9-37.577,26.455-45.166s-30.384,39.554-30.384,39.554Z" transform="translate(-609.759 -228.07)"/></g></g><path class="i" d="M605.113,193.16s7.546,16.873,22.859,17.246c0,0-1.718,27.388,2.981,30.91s13.34,9.469,13.718,19.416c0,0,19.757-17.067,5.076-30.574s-4.7-31.714-14.1-37c0,0-18.793-14.1-28.776-9.984s-8.666,17.381-2.865,19.555C604.009,202.731,604.525,196.1,605.113,193.16Z" transform="translate(-520.6 -182.424)"/><path class="b" d="M644.746,248.722c-2.642-10.858-9.458-9.359-9.458-9.359-10.34,3.274-24.9,43.709-24.9,43.709-7.635,4.111-42.284,9.984-42.284,9.984s-6.46-5.286-8.222-3.524-4.7,7.635-2.936,10.571,14.12-.048,14.121-.048c18.309-.554,45.193-5.825,45.193-5.825S647.389,259.581,644.746,248.722Z" transform="translate(-524.116 -177.785)"/><path class="b" d="M629.7,212.586c-.891,2.123-2.819,3.339-4.3,2.715s-1.968-2.85-1.077-4.973,2.819-3.339,4.3-2.715S630.59,210.463,629.7,212.586Z" transform="translate(-518.612 -180.383)"/><path class="ae" d="M604.147,191.264s11.012,28.189,23.124,17.912" transform="translate(-520.221 -181.703)"/><g transform="translate(86.405 24.953)"><path class="i" d="M611.729,208.168a4.348,4.348,0,0,0-4.974-2.076c-.283.07-.454-.358-.167-.43A4.8,4.8,0,0,1,612.159,208c.135.263-.3.428-.43.167Z" transform="translate(-606.44 -205.495)"/></g><g transform="translate(82.39 30.002)"><path class="af" d="M604.547,210.384c-.345,1.162-.674,2.328-.978,3.5a10.307,10.307,0,0,0-.445,1.977c-.053,1.111,2,1.022,2.674.71.226-.1.352.262.128.366a3.033,3.033,0,0,1-2.848-.227c-.544-.428-.327-1.044-.2-1.63.351-1.607.819-3.193,1.286-4.77.07-.237.451-.165.381.075Z" transform="translate(-602.727 -210.163)"/></g><path class="ag" d="M608.21,209.228c-.038.589.137,1.082.392,1.1s.49-.449.528-1.039-.138-1.081-.393-1.1S608.247,208.638,608.21,209.228Z" transform="translate(-519.89 -180.322)"/><g transform="translate(86.232 38.607)"><path class="ag" d="M612.131,218.39a5.02,5.02,0,0,1-1.153,2.187,5.158,5.158,0,0,1-4.52,1.521c-.3-.027-.2-.477.094-.45a4.561,4.561,0,0,0,5.128-3.353.231.231,0,0,1,.451.1Z" transform="translate(-606.28 -218.119)"/></g></g><g transform="translate(138.42 123.084)"><path class="ah" d="M195.617,411.394S192,415.914,192,424.049h38.867s2.712,0,1.807-1.807-15.366-2.712-18.077-4.52-5.423-7.231-5.423-7.231Z" transform="translate(-127.173 -89.517)"/><g transform="translate(23.248 151.039)"><path class="e" d="M161.693,278.683l-8.136,146.432s4.52,5.423,13.559,1.807L197.848,280.49l.9,143.72s9.943,4.52,14.462,0l9.943-162.7-7.231-8.136H178.543Z" transform="translate(-153.557 -253.373)"/><g class="ai"><path class="aj" d="M150.127,274.844" transform="translate(-153.837 -251.622)"/><path class="ak" d="M190.337,279.061a89.329,89.329,0,0,1,11.236-7.839" transform="translate(-150.557 -251.917)"/><path class="ak" d="M189.058,281.784a94.819,94.819,0,0,0,10.361-5.653" transform="translate(-150.661 -251.517)"/><path class="ak" d="M199.985,257.4a2.73,2.73,0,0,0-.534,2.236c.256,5.061-.6,10.523-4.075,14.211" transform="translate(-150.146 -253.045)"/><path class="ak" d="M193.334,257.991a72.924,72.924,0,0,1-1.584,19.1" transform="translate(-150.441 -252.996)"/><path class="ak" d="M182.294,260.318a346.128,346.128,0,0,1,35.922-.708" transform="translate(-151.213 -252.879)"/><path class="ak" d="M157.462,423.8q1.9-71.978,10.385-143.579a68.584,68.584,0,0,0,.65-8.284" transform="translate(-153.238 -251.859)"/><path class="ak" d="M197.463,283.7a73.627,73.627,0,0,0,4.394,12.01" transform="translate(-149.975 -250.899)"/><path class="ak" d="M210.55,266.81c.025.136-.263.127-.228-.009" transform="translate(-148.927 -252.278)"/><path class="ak" d="M210.4,266.776c-.769,9.675,1.667,19.389,5.557,28.281.517,1.18,1.17,2.457,2.376,2.91s2.9-.667,2.424-1.865" transform="translate(-148.932 -252.28)"/><path class="ak" d="M158.95,294.882a11.048,11.048,0,0,0,8.737-3.545,20.894,20.894,0,0,0,4.657-8.467,20.289,20.289,0,0,0,.972-9.594" transform="translate(-153.117 -251.749)"/><path class="ak" d="M208.509,339.177a27.5,27.5,0,0,1,5.613,4.213" transform="translate(-149.074 -246.374)"/><path class="ak" d="M208.5,344.117l2.245,1.4" transform="translate(-149.075 -245.971)"/><path class="ak" d="M165.435,387.482l3.648-3.929" transform="translate(-152.588 -242.754)"/><path class="ak" d="M166.991,391.57l3.368-3.087" transform="translate(-152.461 -242.352)"/></g></g><path class="c" d="M238.818,227.2s-3.576-15.468-8.1-17.275-3.616,13.559-3.616,13.559Z" transform="translate(-124.316 -105.89)"/><path class="al" d="M203.792,160.36l-17.625-2.26-8.588,19.435-2.712,81.351,5.424,6.327h37.963l-5.423-69.6S208.312,163.976,203.792,160.36Z" transform="translate(-128.571 -110.105)"/><path class="am" d="M198.942,161.562s1.807,4.519-3.616,5.423-9.943-6.327-9.943-6.327l-.9-11.751Z" transform="translate(-127.787 -110.855)"/><g transform="translate(23.248 47.995)"><path class="c" d="M187.906,158.1l-34.349,9.943s10.847,54.234,6.327,91.295-6.327,35.252-6.327,35.252h27.117S202.367,238.1,187.906,158.1Z" transform="translate(-153.557 -158.1)"/><g class="an"><path class="x" d="M163.386,163.232q-.749-5.986-1.5-11.973" transform="translate(-152.877 -158.658)"/><path class="ak" d="M183.857,159.223q-6.46,8.079-13.644,15.544a99.326,99.326,0,0,1,11.116,2.321l-7.9,14.905a30.392,30.392,0,0,1,3.078,7.315q7.518,23.55,13.335,47.6" transform="translate(-152.198 -158.008)"/><path class="ak" d="M160.848,210.892a4.957,4.957,0,0,0,2.089-1.846" transform="translate(-152.962 -153.944)"/><path class="ak" d="M161.374,212.184a11.818,11.818,0,0,1,3.928-.239" transform="translate(-152.919 -153.713)"/><path class="ak" d="M160.7,251.6c4.846,1.3,10.036,2.591,14.79.987" transform="translate(-152.974 -150.473)"/><path class="ak" d="M160.992,254.655a29.449,29.449,0,0,0,12.754.218" transform="translate(-152.951 -150.224)"/><path class="ak" d="M174.32,252.235c1.329,4.149-.247,8.695-2.528,12.407a16.107,16.107,0,0,1-4.171,4.8,7.906,7.906,0,0,1-6.037,1.512,5.293,5.293,0,0,1-4.238-4.244" transform="translate(-153.248 -150.421)"/></g></g><g transform="translate(71.171 49.388)"><path class="c" d="M197.866,159.388l22.129,16.233,10.847,25.309-5.423,43.388.9,50.618h-8.135s-12.655-34.348-10.847-65.08S200.577,163.908,197.866,159.388Z" transform="translate(-197.866 -159.388)"/><g class="ao"><path class="aj" d="M216.546,168.729" transform="translate(-196.342 -158.626)"/><path class="ak" d="M202.779,163.22a124.282,124.282,0,0,0,8.075,21.84l-3.811-.369,5.938,6.528a1.772,1.772,0,0,1,.532,2.038q-3.555,16.256-7.11,32.513" transform="translate(-197.465 -159.075)"/><path class="ak" d="M216.472,178.217a52.2,52.2,0,0,0,2.439,27.51" transform="translate(-196.417 -157.852)"/><path class="ak" d="M213.436,175.606l2.05-1.694" transform="translate(-196.596 -158.203)"/><path class="ak" d="M214.118,176.866l1.116-.39" transform="translate(-196.54 -157.994)"/><path class="ak" d="M217.422,254.138a53.593,53.593,0,0,1,7.661-.172" transform="translate(-196.271 -151.678)"/><path class="ak" d="M216.891,258.589l8.414-1.341" transform="translate(-196.314 -151.405)"/><path class="ak" d="M217.508,254.377a6,6,0,0,0-.463,4.336,15.254,15.254,0,0,0,1.8,4.07,22.821,22.821,0,0,0,5.017,6.412,6.03,6.03,0,0,0,3.9,1.613,2.915,2.915,0,0,0,2.887-2.625" transform="translate(-196.318 -151.639)"/><path class="ak" d="M219.314,282.546l8.6-.216" transform="translate(-196.116 -149.359)"/></g></g><path class="ap" d="M238.569,193.117l-26.991,17.265H175.422l-1.808,43.387,39.7,2.766,22.67-14.517Z" transform="translate(-128.673 -107.249)"/><path class="am" d="M168.693,228.83l2.481-1.237,4.415-1.413-.161,3.886,3.517.353s3.975,11.294-4.018,11.652-11.493-2.119-11.493-2.119S161.267,230.066,168.693,228.83Z" transform="translate(-129.527 -104.552)"/><path class="am" d="M232.66,218.941a24.756,24.756,0,0,1,2.531,3.8c.9,1.807,5.423,3.615,3.616,6.327,0,0,2.712,4.519,0,5.423s-7.231,3.616-9.943,1.807S228.32,224.182,232.66,218.941Z" transform="translate(-124.264 -105.142)"/><path class="am" d="M217.71,133.429s-3.616,21.693-15.366,26.213c0,0-18.983-.9-14.463-16.27,0,0-6.327.9-6.327-3.616s6.327-9.943,9.039-.9l5.424-16.27Z" transform="translate(-128.025 -113.003)"/><path class="i" d="M191.471,134.825s1.144,16.314,19.049,16.451c0,0-1.076,10.079-1.98,10.983a14.212,14.212,0,0,1-10.847,2.712c-5.423-.9-15.366-13.559-14.463-16.27S189.769,139.932,191.471,134.825Z" transform="translate(-127.893 -112.004)"/><path class="i" d="M216.463,138.36s7.719-1.949,7.719-8.276-11.75-15.367-20.79-16.27a17.7,17.7,0,0,0-14.462,5.423L185.315,134.6s4.519.9,4.519,5.423c0,0,8.136-5.423,10.847-9.943C200.681,130.084,205.129,136.694,216.463,138.36Z" transform="translate(-127.719 -113.725)"/><path class="ah" d="M148.428,423.442h25.309s-.9-4.52-2.712-6.327-2.712-5.424-7.231-6.327a11.494,11.494,0,0,0-12.654,6.327A9.982,9.982,0,0,0,148.428,423.442Z" transform="translate(-130.728 -89.511)"/><g transform="translate(0 57.807)"><path class="c" d="M155.53,167.172s-25.98,41.259-23.269,61.145,35.054,18.55,35.054,18.55-4.49-10.1,2.807-13.47c0,0-13.455-6.887-17.975-6.887,0,0,15.367-18.983,16.27-26.214S166.376,168.979,155.53,167.172Z" transform="translate(-132.063 -167.172)"/><g class="aq"><path class="aj" d="M142.171,183.777" transform="translate(-131.238 -165.817)"/><path class="ak" d="M154.265,168.719a34.527,34.527,0,0,1,6.321,34.107" transform="translate(-130.251 -167.046)"/><path class="ak" d="M159.349,209.66a57.454,57.454,0,0,0,.32-5.992" transform="translate(-129.837 -164.195)"/><path class="ak" d="M150.776,221.652a8.555,8.555,0,0,0-8.23.674" transform="translate(-131.207 -162.789)"/><path class="ak" d="M145.47,218.6a10.882,10.882,0,0,1,4.278,1.449" transform="translate(-130.969 -162.977)"/><path class="ak" d="M164.213,228.694a7.417,7.417,0,0,0-2.806,9.992" transform="translate(-129.743 -162.153)"/><path class="ak" d="M161.231,228.229l0,.374" transform="translate(-129.683 -162.191)"/></g></g><g transform="translate(71.564 25.414)"><path class="i" d="M198.614,138.44a4.2,4.2,0,0,1,5.2.28c.217.181.546-.121.326-.305a4.64,4.64,0,0,0-5.829-.3c-.228.173.078.5.3.326Z" transform="translate(-198.229 -137.222)"/></g><g transform="translate(83.715 27.83)"><path class="i" d="M209.569,139.753a2.89,2.89,0,0,1,2.12,2.929c0,.2.3.212.306.014a3.2,3.2,0,0,0-2.333-3.235c-.19-.048-.284.243-.093.292Z" transform="translate(-209.464 -139.456)"/></g><g transform="translate(75.769 32.234)"><path class="af" d="M205,143.7c.054,1.169.094,2.339.108,3.509a9.947,9.947,0,0,1-.039,1.958c-.207,1.053-2.112.5-2.67.048-.188-.15-.39.164-.2.314a2.929,2.929,0,0,0,2.723.443c.609-.276.547-.9.561-1.483.041-1.588-.031-3.184-.106-4.77-.011-.239-.385-.26-.373-.018Z" transform="translate(-202.117 -143.528)"/></g><path class="ag" d="M202.237,142.674a.842.842,0,1,1-.09-1.343A.972.972,0,0,1,202.237,142.674Z" transform="translate(-126.467 -111.482)"/><path class="ag" d="M209.5,145.788a.842.842,0,1,1-.089-1.343A.972.972,0,0,1,209.5,145.788Z" transform="translate(-125.874 -111.228)"/><g transform="translate(67.739 40.494)"><path class="ag" d="M194.7,151.427a4.838,4.838,0,0,0,1.118,2.11,4.983,4.983,0,0,0,4.368,1.46c.284-.027.19-.462-.093-.436a4.4,4.4,0,0,1-4.959-3.226.222.222,0,0,0-.435.092Z" transform="translate(-194.692 -151.165)"/></g></g><path class="ar" d="M548.124,235.148" transform="translate(40.297 19.263)"/><g transform="translate(451.368 133.185)"><path class="f" d="M478.2,186.89s-11.225-.561-13.47,12.909-9.541,43.214-9.541,43.214l-33.786,4.421,3.479,2.875s29.184,5.051,37.042.561,9.541-31.991,11.786-38.726S478.2,186.89,478.2,186.89Z" transform="translate(-421.408 -117.859)"/><path class="c" d="M496.611,184.117s9.052.157,9.052-5.809c0,0,9.943-3.314,6.629-9.942,0,0,7.953-7.291,2.651-13.256,0,0,5.965-9.279,0-13.256,0,0-2.651-13.256-9.942-10.6,0,0-1.326-8.617-11.931-3.977,0,0-10.6-7.954-13.919-1.989,0,0-13.256-.662-13.256,5.966,0,0-10.6,3.977-6.628,12.593,0,0-5.3,9.28-.663,13.919,0,0-4.64,8.617,1.988,12.594,0,0-1.325,9.279,5.3,9.942,0,0,7.954,8.616,13.919,3.977C479.814,184.273,493.523,189.262,496.611,184.117Z" transform="translate(-418.529 -123.065)"/><g transform="translate(71.889 288.783)"><path class="f" d="M496.787,390.307s-6.118-1.875-8.912,4.888l13.811,15.423s7.582,11.4,6.506,13.7-5.009,8.322.336,4.085,7.128-5.649,5.9-9.028-3.161-7.649-3.161-7.649l7.952,8.2s-7.027-16.189-14.676-13.028" transform="translate(-487.875 -390.068)"/><g class="as"><path class="u" d="M504.634,403.992l-1.082,1.966s12.662,16.573,2.852,16.942-2.952,11.187-2.952,11.187l14.04-5.728,9.22-10.942-12.884-17.334Z" transform="translate(-486.794 -389.251)"/></g></g><g transform="translate(65.097 293.711)"><path class="f" d="M496.867,397.242s-3.929-5.051-10.1-1.123l2.436,20.559s-.346,13.684-2.55,14.951-8.882,3.93-2.072,3.536,9.079-.526,10.016-4,1.811-8.076,1.811-8.076l1.791,11.283s3.554-17.286-4.521-19.1" transform="translate(-481.595 -394.624)"/><g class="at" transform="translate(0 0)"><path class="u" d="M496.141,412.761l-2.016.987s.836,20.84-7.4,15.5-8.844,7.459-8.844,7.459l14.781,3.382,13.834-3.654-.579-21.59Z" transform="translate(-481.899 -393.145)"/></g></g><path class="f" d="M506.836,218.706s0,84.641,7.58,85.9,13.9-1.263,17.686,0,8.843,0,8.843,0a33.867,33.867,0,0,0-21.476-5.053l-1.263-45.478s13.9-63.165-3.79-55.585C514.416,198.494,501.783,211.126,506.836,218.706Z" transform="translate(-414.537 -116.964)"/><g transform="translate(46.772 133.237)"><path class="g" d="M506.39,248.755s13.9,11.483,12.633,45.592-13.9,108.644-20.212,123.8c0,0-11.371,1.263-12.634-1.263,0,0-1.263-122.54,1.263-130.12,0,0-24-16.423-22.739-31.582S506.39,248.755,506.39,248.755Z" transform="translate(-464.652 -246.253)"/><g class="au"><path class="av" d="M483.005,346.4l21.148,51.974-11.786,15.153L481.7,395.564l1.3-49.168" transform="translate(-463.261 -238.084)"/><path class="aw" d="M482.483,335.036" transform="translate(-463.198 -239.011)"/><path class="ar" d="M495.062,252.8c1.04,7.085,4.379,13.668,8.577,19.47,2.514,3.476,5.577,6.873,9.681,8.12s9.378-.538,10.588-4.653" transform="translate(-462.172 -245.719)"/><path class="ar" d="M494.931,263.3c9.7.007,19.531,0,28.928-2.426" transform="translate(-462.183 -245.061)"/><path class="ar" d="M461.15,256.535c12.553,2.236,25.166,4.478,37.913,4.763s25.739-1.467,37.279-6.89" transform="translate(-464.938 -245.588)"/><path class="ar" d="M510.849,274.594a249.409,249.409,0,0,1-4.53,74.891c-4.434,20.632-11.492,40.7-14.58,61.578-1.457,9.843-2.073,20.016-6.109,29.112" transform="translate(-462.941 -243.941)"/><path class="ar" d="M482.953,401.547a35.926,35.926,0,0,0,19.426,1.079,9.495,9.495,0,0,0,3.227-1.21,3.887,3.887,0,0,0,1.822-2.809" transform="translate(-463.16 -233.825)"/></g></g><path class="g" d="M489.557,282.47c0,1.263-7.58,49.269-8.843,54.322s24,70.745,24,72.008c0,0-3.79,8.843-10.106,7.58s-40.426-74.534-40.426-84.641,7.953-70.517,11.557-78.211S489.557,282.47,489.557,282.47Z" transform="translate(-418.734 -112.509)"/><g transform="translate(55.445 49.389)"><path class="f" d="M498.156,188.237s-7.3-9.968-3.368-19.508l-13.469,5.051s2.244,12.346-7.167,14.457c-4.444,1,2.527,8.843,2.527,8.843H493.1Z" transform="translate(-472.671 -168.729)"/><g class="ax"><path class="ay" d="M479.027,180.935s12,3.025,13.118-9.322-14.593,8.979-14.593,8.979" transform="translate(-472.273 -168.808)"/></g></g><path class="f" d="M471.378,143.3c0,1.462-5.845,33.612,7.307,38s19-14.614,19-14.614l-8.768-20.459Z" transform="translate(-417.437 -121.414)"/><g transform="translate(44.449 68.874)"><path class="h" d="M498.985,186.768s-12.634,8.843-24,0a11.47,11.47,0,0,0-7.426,2.379c-4.676,3.34-5.051,15.824-5.051,25.255,0,17.686,2.371,45.637,2.371,45.637s13.9,18.344,41.966-6.351c0,0-6.593-12.6-5.33-16.389s8.843-17.686,8.843-17.686,3.79-20.212,12.633-20.212C522.988,199.4,502.775,190.558,498.985,186.768Z" transform="translate(-462.505 -186.744)"/><g class="az"><path class="ba" d="M456.451,260.228" transform="translate(-462.999 -180.75)"/><path class="bb" d="M493.473,232l3.55.768" transform="translate(-459.979 -183.053)"/><path class="bb" d="M493.466,235.335l1.31-.187" transform="translate(-459.979 -182.796)"/><path class="bb" d="M470.987,187.628c7.1,4.333,16.141,5.792,23.944,2.9,5.8-2.149,10.518-6.434,15.075-10.621" transform="translate(-461.813 -187.302)"/><path class="bb" d="M463.55,253.473a29.024,29.024,0,0,0,10.287,4.474" transform="translate(-462.42 -181.301)"/><path class="bb" d="M465.446,253.655l3.554.936" transform="translate(-462.265 -181.286)"/><path class="bb" d="M495.89,246.9a45.479,45.479,0,0,0,5.234,1.141" transform="translate(-459.782 -181.837)"/><path class="bb" d="M498.3,245.56l4.878,1.056" transform="translate(-459.585 -181.947)"/><path class="bb" d="M506.53,218.513a14.973,14.973,0,0,1-3.061-4.628" transform="translate(-459.163 -184.531)"/><path class="bb" d="M504.1,218.945l-1.123-.748" transform="translate(-459.203 -184.179)"/></g></g><path class="c" d="M467.769,147.612s3.368,4.49,8.419,0a6.127,6.127,0,0,0,8.418,2.244s1.684,5.612,6.174,3.929c0,0,1.684,14.03,6.735,8.979s-6.735-24.133-6.735-24.133H477.871l-10.1,1.123S465.525,144.806,467.769,147.612Z" transform="translate(-417.708 -121.795)"/><g transform="translate(51.218 34.381)"><g transform="translate(10.715 1.348)"><path class="h" d="M483.089,165.126a3.868,3.868,0,0,1-2.98-1.11,4.75,4.75,0,0,1-1.425-3.1h0a4.322,4.322,0,0,1,3.732-4.811,3.861,3.861,0,0,1,2.979,1.11,4.747,4.747,0,0,1,1.426,3.094,4.358,4.358,0,0,1-3.469,4.783Q483.222,165.116,483.089,165.126ZM478.9,160.9a4.527,4.527,0,0,0,1.357,2.952,3.643,3.643,0,0,0,2.811,1.049,4.1,4.1,0,0,0,3.528-4.575,4.525,4.525,0,0,0-1.358-2.952,3.645,3.645,0,0,0-2.81-1.049c-.083.006-.165.015-.248.027A4.139,4.139,0,0,0,478.9,160.9Z" transform="translate(-478.67 -156.099)"/></g><path class="h" d="M473.182,163.88a4.324,4.324,0,0,1-4.405-4.205h0a4.1,4.1,0,1,1,8.137-.607,4.752,4.752,0,0,1-.95,3.272,3.884,3.884,0,0,1-2.516,1.51C473.361,163.862,473.272,163.872,473.182,163.88ZM469,159.658h0a4.1,4.1,0,0,0,4.168,4,3.642,3.642,0,0,0,2.624-1.455,4.532,4.532,0,0,0,.9-3.12,4.1,4.1,0,0,0-4.168-4c-.083.007-.165.015-.248.027A4.139,4.139,0,0,0,469,159.658Z" transform="translate(-468.763 -154.853)"/><g transform="translate(18.568 5.992)"><path class="h" d="M497.388,161.282l-.005-.236-11.451-.653,0,.236Z" transform="translate(-485.931 -160.394)"/></g><g transform="translate(7.995 4.157)"><path class="h" d="M478.968,159.59l.173-.137a2.213,2.213,0,0,0-2.986-.324l.117.187A1.969,1.969,0,0,1,478.968,159.59Z" transform="translate(-476.155 -158.697)"/></g><g transform="translate(0.175 3.408)"><path class="h" d="M470.394,158.532l.051-.215L468.975,158l-.051.215Z" transform="translate(-468.925 -158.004)"/></g></g><g transform="translate(66.885 32.533)"><path class="c" d="M487.279,158.364a4.888,4.888,0,0,0-3.819-4.7c-.319-.08-.26-.595.064-.514a5.393,5.393,0,0,1,4.268,5.275c-.005.332-.519.267-.513-.064Z" transform="translate(-483.249 -153.144)"/></g><g transform="translate(53.444 31.445)"><path class="c" d="M474.83,152.552a3.36,3.36,0,0,0-3.662,2.063c-.093.209-.425.077-.33-.133a3.719,3.719,0,0,1,4.036-2.283c.224.041.183.4-.044.354Z" transform="translate(-470.821 -152.139)"/></g><g transform="translate(57.35 39.197)"><path class="af" d="M477.648,159.592c-.626,1.208-1.237,2.425-1.82,3.654a11.538,11.538,0,0,0-.911,2.085c-.293,1.214,1.99,1.551,2.8,1.349.271-.067.333.363.063.432a3.405,3.405,0,0,1-3.091-.856c-.509-.587-.14-1.22.128-1.84.729-1.7,1.58-3.347,2.429-4.986.128-.247.533-.087.4.162Z" transform="translate(-474.433 -159.306)"/></g><path class="ag" d="M471.726,158.974a.622.622,0,0,0,.4.761c.282.044.559-.224.619-.6a.623.623,0,0,0-.4-.761C472.062,158.328,471.785,158.6,471.726,158.974Z" transform="translate(-417.304 -120.185)"/><path class="ag" d="M480.548,160.012a.621.621,0,0,0,.4.761c.281.044.558-.225.618-.6a.622.622,0,0,0-.4-.761C480.883,159.366,480.606,159.635,480.548,160.012Z" transform="translate(-416.585 -120.101)"/><g transform="translate(60.613 51.063)"><path class="ag" d="M482.6,170.527a4.064,4.064,0,0,1-1.212,1.6,4.185,4.185,0,0,1-3.818.619c-.233-.061-.1-.409.135-.348a3.7,3.7,0,0,0,4.547-2,.187.187,0,0,1,.348.135Z" transform="translate(-477.45 -170.277)"/></g><path class="f" d="M499.377,164.717c-.851,2.029-2.693,3.191-4.113,2.595s-1.881-2.724-1.03-4.754,2.693-3.19,4.113-2.594S500.228,162.688,499.377,164.717Z" transform="translate(-415.502 -120.068)"/><path class="ar" d="M479.323,289.209a108.922,108.922,0,0,0,11.006,4.632" transform="translate(-416.684 -109.512)"/><path class="ar" d="M479.866,286.3q6.6,3.5,13.493,6.41" transform="translate(-416.639 -109.749)"/><path class="ar" d="M476.266,261.336a54.373,54.373,0,0,0,3.265,16.025,13.306,13.306,0,0,0,2.55,4.641,5.381,5.381,0,0,0,4.775,1.813" transform="translate(-416.933 -111.786)"/><path class="ar" d="M463.293,260.135a33.648,33.648,0,0,0,34.007-1.289" transform="translate(-417.991 -111.989)"/><path class="ar" d="M460.665,278.344c3.2.889,6.732-.636,8.893-3.157a16.778,16.778,0,0,0,3.5-9.17" transform="translate(-418.206 -111.404)"/><path class="ar" d="M480.784,290.659q-.96,2.395-1.92,4.788" transform="translate(-416.721 -109.394)"/><path class="ar" d="M477.491,301.689q-3.125,13.509-6.25,27.019a11.76,11.76,0,0,0-.449,3.577,11.621,11.621,0,0,0,.76,2.925,451.893,451.893,0,0,0,31.357,68.983" transform="translate(-417.381 -108.494)"/><path class="ar" d="M488.465,402.982a11.572,11.572,0,0,0,12.882-11.645" transform="translate(-415.938 -101.181)"/></g><g transform="translate(268 203.652)"><g transform="translate(0 214.411)"><path class="b" d="M291.736,399.773l-10.254,9.984s1.758,4.436-7.944,11.832c0,0-23.162-34.049-21.591-35.066s14.143,9.791,14.143,9.791l9.29,4.017,9.747-10.77Z" transform="translate(-251.869 -386.456)"/><g class="bc"><path class="bd" d="M282.916,410.823c-.281-1.223-.445-1.719-5.9-.858s.44-9.645-2.027-11.391-24.091-14.488-24.091-14.488l-1.939,5.266,24.9,35.359S284.387,417.225,282.916,410.823Z" transform="translate(-252.107 -386.65)"/></g></g><g transform="translate(28.485 149.006)"><path class="i" d="M382.065,333.382s-35.556,21.52-43.977,23.391c0,0-21.52,29.941-49.59,49.59l-10.292-10.292s43.041-66.432,56.14-69.239S380.194,328.7,382.065,333.382Z" transform="translate(-278.206 -325.985)"/><g class="be"><path class="bf" d="M373.532,339.563s-33.112,0-35.918-1.123,9.541,10.663,10.1,20.765-28.061,23.01-28.061,23.01-14.593-45.46-11.225-47.7S364.553,326.094,373.532,339.563Z" transform="translate(-275.782 -325.564)"/><path class="bg" d="M297.235,353.717" transform="translate(-276.654 -323.722)"/><path class="bh" d="M276.255,387.274c-.217-.494.732-.506,1.152-.167l26.835,21.748" transform="translate(-278.368 -321.018)"/><path class="bh" d="M279.3,386.522c-.509.723.327,1.619,1.059,2.114a79.88,79.88,0,0,1,18.884,17.9" transform="translate(-278.129 -321.046)"/></g></g><g transform="translate(69.654 221.899)"><path class="b" d="M349.019,393.38l2.807,14.036s4.679.936,5.614,13.1c0,0-41.17.936-41.17-.936s15.907-6.55,15.907-6.55l8.421-5.613-3.742-14.036Z" transform="translate(-316.27 -393.38)"/><g class="bi"><path class="bd" d="M353.428,405.88c-1.18-.429-1.684-.561-3.929,4.49s-7.857-5.612-10.663-4.49-25.255,12.347-25.255,12.347l3.367,4.49,43.214-1.684S359.6,408.126,353.428,405.88Z" transform="translate(-316.489 -392.376)"/></g></g><path class="g" d="M407.032,238.528l2.807,1.872s10.292,0,18.713,3.742c0,0,0,75.789-7.486,85.146,0,0-42.1-1.872-58.947-17.778,0,0,9.357-67.368,14.036-70.175s21.52-.936,21.52-.936Z" transform="translate(-242.876 -184.113)"/><g transform="translate(61.303 127.325)"><path class="i" d="M426.455,322.019s-.081,25.162-92.712,15.805c0,0,14.036,22.456,18.713,64.561l-16.842,3.742s-31.479-63.858-26.539-91.048a2.385,2.385,0,0,1,1.889-1.9c7.616-1.52,41.625-8,63.947-7.171C400.174,306.947,426.455,322.019,426.455,322.019Z" transform="translate(-308.548 -305.939)"/><g class="bj"><path class="bk" d="M351.027,371.38l-1.123-.28" transform="translate(-305.175 -300.624)"/><path class="bl" d="M331.241,395.566q13.449-4.09,27.188-7.138" transform="translate(-306.697 -299.21)"/><path class="bl" d="M366.509,306.236,377.464,309" transform="translate(-303.82 -305.915)"/><path class="bl" d="M371.7,310.648l3.928,1.123" transform="translate(-303.397 -305.555)"/><path class="bl" d="M374.273,306.787A69.793,69.793,0,0,1,427.715,338.4" transform="translate(-303.187 -305.87)"/><path class="bl" d="M411.96,316.4c-9.786,2.916-19.945,6.95-25.923,15.227-1.265,1.754-2.348,3.814-2.166,5.969s2.092,4.265,4.231,3.95" transform="translate(-302.406 -305.085)"/><path class="bl" d="M395.5,319.293c5.418,4,11.136,8.4,13.271,14.786" transform="translate(-301.456 -304.85)"/><path class="bl" d="M396.595,316.892a44.675,44.675,0,0,1,9.346,5.963c3.059,2.536,5.981,6.063,5.483,10.006" transform="translate(-301.366 -305.045)"/><path class="bl" d="M332.638,333.649a19.953,19.953,0,0,1-2.434-5.105" transform="translate(-306.782 -304.095)"/><path class="bl" d="M330.787,334.457l-3.959-3.331" transform="translate(-307.057 -303.884)"/></g></g><g transform="translate(151.993 42.34)"><path class="b" d="M406.489,227.364l.88,13.947s-8.421,7.484-14.97,0l.936-12.164Z" transform="translate(-392.399 -227.364)"/><g class="bm"><path class="bn" d="M388.891,236.247s14.394,1.694,16.086-6.773S388.891,236.247,388.891,236.247Z" transform="translate(-392.685 -227.401)"/></g></g><path class="b" d="M433.773,284.731s-3.552-5.448-7.284-12.044c4.888-5.283,11.973-5.645,15.16-5.5a135.325,135.325,0,0,1,7.838,24.84s-4.49,12.347-51.072,6.735l-3.367-7.3S424.232,289.782,433.773,284.731Z" transform="translate(-240.19 -181.777)"/><path class="g" d="M424.185,277.678c-4.394-7.766-8.464-20.188-7.858-24.133,1.123-7.3,3.367-8.418,3.367-8.418s3.368-3.928,7.858.561c2.587,2.587,10.569,15.211,15.153,26.377C439.518,271.921,429.073,272.394,424.185,277.678Z" transform="translate(-238.459 -183.704)"/><path class="u" d="M406.69,296.166l-15.07-37.232a3.306,3.306,0,0,0-3.064-2.066H325.038a2.31,2.31,0,0,0-2.125,3.216l17.345,40.761h91.695l-.87-3.288Z" transform="translate(-246.089 -182.617)"/><path class="f" d="M428.02,245.379a17.153,17.153,0,0,0-2.794-1.483c-1.309-.5-2.867-3.491-4.613-2.057,0,0-3.3-1.559-3.74.374s-1.994,5.236-.56,6.982S424.7,248.733,428.02,245.379Z" transform="translate(-238.504 -183.891)"/><path class="b" d="M386.512,200.851s-10.557,30.908,3.923,34.849,20.835-10.644,20.835-10.644l.121-20.666Z" transform="translate(-241.189 -187.186)"/><path class="bo" d="M406.451,233.608s22.544-9.993,13.983-24.395c0,0,1.229-10.761-10.947-12.983,0,0-14.98-14.763-15-4.213,0,0-12.1-5.338-10.21,5.5,0,0-10.837-.031-1.933,8.345a27.249,27.249,0,0,0,25.84,4.243s-5.182,5.866-2.719,12.883C405.462,222.99,403.911,229.708,406.451,233.608Z" transform="translate(-241.513 -188.217)"/><path class="b" d="M403.171,220.757c-1.239,2.4-.65,5.175,1.316,6.19s4.566-.112,5.806-2.516.65-5.175-1.316-6.19S404.41,218.354,403.171,220.757Z" transform="translate(-239.58 -185.798)"/><path class="bp" d="M407.707,207.508s.082,3.413-15.316,4.056" transform="translate(-240.407 -186.643)"/><path class="bp" d="M416.239,207.93s2.858-.161,2.934-4.685" transform="translate(-238.461 -186.991)"/><path class="bp" d="M415.285,206.917a4.235,4.235,0,0,0,5.079.156" transform="translate(-238.539 -186.691)"/><g transform="translate(152.204 26.704)"><path class="bo" d="M396.861,216.941a4.35,4.35,0,0,0-4.036-3.572c-.292-.025-.315-.486-.018-.461a4.8,4.8,0,0,1,4.516,4.015c.042.292-.419.309-.461.018Z" transform="translate(-392.594 -212.907)"/></g><g transform="translate(142.568 25.566)"><path class="bo" d="M387.468,212.322a2.99,2.99,0,0,0-3.484,1.367c-.109.172-.384.015-.275-.158a3.31,3.31,0,0,1,3.841-1.515c.194.064.112.371-.082.306Z" transform="translate(-383.685 -211.855)"/></g><g transform="translate(145.13 31.74)"><path class="af" d="M389.639,217.843c-.7.987-1.39,1.985-2.056,3a10.387,10.387,0,0,0-1.061,1.727c-.409,1.034,1.564,1.614,2.3,1.535.248-.026.248.361,0,.388a3.034,3.034,0,0,1-2.621-1.137c-.376-.581.028-1.093.34-1.606.852-1.406,1.807-2.757,2.758-4.1.144-.2.481-.01.336.195Z" transform="translate(-386.054 -217.563)"/></g><path class="ag" d="M392.867,219.3a.48.48,0,1,0,.66-.392A.555.555,0,0,0,392.867,219.3Z" transform="translate(-240.373 -185.715)"/><path class="ag" d="M384.872,216.894a.48.48,0,1,0,.7-.314A.554.554,0,0,0,384.872,216.894Z" transform="translate(-241.028 -185.907)"/><g transform="translate(145.983 40.986)"><path class="ag" d="M393.528,226.457a5,5,0,0,1-1.8,1.7,5.159,5.159,0,0,1-4.769-.021c-.27-.121-.034-.517.235-.4a4.559,4.559,0,0,0,5.936-1.514.23.23,0,0,1,.4.236Z" transform="translate(-386.843 -226.112)"/></g><path class="bq" d="M422.159,272.148l-1.942-1.847" transform="translate(-238.137 -181.521)"/><path class="bq" d="M420.651,273.358l-4.069-2.666" transform="translate(-238.433 -181.489)"/><path class="bq" d="M385.471,306.657a86.5,86.5,0,0,1,34.507,11.024" transform="translate(-240.971 -178.555)"/><path class="bq" d="M390.677,241.021a15.4,15.4,0,0,0,3.736,3.389,8.884,8.884,0,0,0,8.963.753,29.457,29.457,0,0,0,5.082-2.867" transform="translate(-240.546 -183.91)"/><path class="bq" d="M424.356,272.71a9.248,9.248,0,0,1,5.275-3.3,40.93,40.93,0,0,1,9.889-1.186" transform="translate(-237.799 -181.69)"/></g><g transform="translate(101.667 226.918)"><g transform="translate(14.359)"><path class="j" d="M126.1,223.286l-4.111,2.587,2.928-5.3c-3.42-7.348-6.881-10.844-6.881-10.844a90.919,90.919,0,0,0-6.383,41.687l6.51,3.7-6.2-.449c2.13,18.716,9.095,31.154,9.095,31.154l5.824.422C135.044,256.023,131.057,235.429,126.1,223.286Z" transform="translate(-111.358 -209.728)"/><g class="br"><g transform="translate(0.676 12.544)"><g transform="translate(6.526)"><path class="bs" d="M118.017,221.488q1.058,27.989,4.759,55.791,1.058,7.907,2.329,15.785c.038.231.4.161.358-.071q-4.431-27.51-6.256-55.354-.524-8.055-.826-16.124c-.009-.231-.372-.261-.363-.026Z" transform="translate(-118.017 -221.326)"/></g><g transform="translate(7.478 10.822)"><path class="bs" d="M119.24,238.928a83.132,83.132,0,0,1,6.845-7.27c.17-.161-.068-.438-.239-.277a84.064,84.064,0,0,0-6.908,7.341c-.15.181.152.385.3.207Z" transform="translate(-118.897 -231.332)"/></g><g transform="translate(10.386 37.572)"><path class="bs" d="M121.921,265.476q3.188-4.494,6.176-9.125c.128-.2-.173-.4-.3-.207q-2.988,4.63-6.176,9.125c-.136.193.165.4.3.207Z" transform="translate(-121.586 -256.064)"/></g><g transform="translate(8.576 23.46)"><path class="bs" d="M120.249,249.505a69.265,69.265,0,0,1,5.087-6.158c.158-.171-.079-.449-.239-.277a70.366,70.366,0,0,0-5.149,6.229c-.138.19.162.4.3.207Z" transform="translate(-119.912 -243.016)"/></g><g transform="translate(1.746 6.491)"><path class="bs" d="M119.05,230.168l-5.161-2.816c-.2-.111-.413.188-.207.3l5.161,2.817c.2.111.413-.188.207-.3Z" transform="translate(-113.597 -227.327)"/></g><g transform="translate(1.852 22.08)"><path class="bs" d="M120.034,245.225l-6.048-3.458c-.2-.116-.411.184-.207.3l6.048,3.459c.2.116.41-.185.207-.3Z" transform="translate(-113.695 -241.741)"/></g><g transform="translate(6.317 54.624)"><path class="bs" d="M123.288,274.226a30.566,30.566,0,0,0-5.225-2.385.183.183,0,0,0-.122.344,30.126,30.126,0,0,1,5.141,2.342c.2.117.41-.184.207-.3Z" transform="translate(-117.824 -271.83)"/></g><g transform="translate(0 36.92)"><path class="bs" d="M121.705,259.953a66.437,66.437,0,0,1-9.431-4.466c-.2-.116-.411.184-.207.3a67.174,67.174,0,0,0,9.516,4.508.183.183,0,0,0,.122-.344Z" transform="translate(-111.983 -255.461)"/></g></g></g></g><g transform="translate(0 21.545)"><path class="k" d="M108.436,237.986l-2.488,3.24.763-5.036a34.6,34.6,0,0,0-8.591-6.542,76.446,76.446,0,0,0,7.13,34.738l6.214,1.018-5.018,1.455a75.987,75.987,0,0,0,16.264,21.916l4.717-1.367C125.041,261.2,115.887,246.118,108.436,237.986Z" transform="translate(-98.082 -229.648)"/><g class="bt"><g transform="translate(2.281 9.682)"><g transform="translate(1.863)"><path class="bs" d="M101.926,238.786q9,21.764,20.034,42.61,3.141,5.928,6.442,11.77c.1.172.359.011.262-.161q-11.522-20.4-21.086-41.829-2.765-6.2-5.357-12.475c-.075-.181-.37-.1-.294.085Z" transform="translate(-101.914 -238.6)"/></g><g transform="translate(7.916 6.246)"><path class="bs" d="M107.817,252.334a70.246,70.246,0,0,1,3.277-7.731c.088-.177-.181-.326-.269-.148a70.765,70.765,0,0,0-3.305,7.8c-.066.186.233.26.3.075Z" transform="translate(-107.51 -244.375)"/></g><g transform="translate(18.543 26.701)"><path class="bs" d="M117.64,272.474q1.2-4.476,2.207-9a.153.153,0,0,0-.3-.075q-1.006,4.523-2.207,9a.154.154,0,0,0,.3.076Z" transform="translate(-117.336 -263.287)"/></g><g transform="translate(12.145 16.408)"><path class="bs" d="M111.725,260.343A58.353,58.353,0,0,1,113.939,254c.076-.181-.193-.331-.268-.148a58.95,58.95,0,0,0-2.243,6.415c-.055.19.243.264.3.075Z" transform="translate(-111.421 -253.77)"/></g><g transform="translate(0 6.504)"><path class="bs" d="M105.273,245.331l-4.893-.716c-.194-.028-.27.269-.075.3l4.892.715c.195.028.27-.269.076-.3Z" transform="translate(-100.192 -244.613)"/></g><g transform="translate(4.633 18.768)"><path class="bs" d="M110.442,256.918l-5.779-.963c-.194-.032-.269.265-.075.3l5.779.963c.194.032.269-.265.075-.3Z" transform="translate(-104.475 -255.953)"/></g><g transform="translate(17.648 43.131)"><path class="bs" d="M121.471,278.84a25.567,25.567,0,0,0-4.816-.357.154.154,0,0,0,0,.307,25.184,25.184,0,0,1,4.737.347c.194.032.269-.265.075-.3Z" transform="translate(-116.509 -278.478)"/></g><g transform="translate(7.502 31.012)"><path class="bs" d="M116.057,268.045a55.828,55.828,0,0,1-8.74-.77c-.195-.032-.27.265-.076.3a56.453,56.453,0,0,0,8.82.779.154.154,0,0,0,0-.307Z" transform="translate(-107.128 -267.273)"/></g></g></g></g><g transform="translate(21.507 18.095)"><path class="j" d="M145.816,239.7l-4.07.352,4.23-2.835a34.621,34.621,0,0,0-.97-10.756,76.45,76.45,0,0,0-20.82,28.708l3.443,5.272-4.46-2.721a75.98,75.98,0,0,0-5.194,26.792l4.192,2.558C139.9,267.615,144.845,250.684,145.816,239.7Z" transform="translate(-117.967 -226.458)"/><g class="bu"><g transform="translate(0.273 9.622)"><path class="bs" d="M140.484,235.432q-9.984,21.332-17.919,43.542-2.255,6.319-4.336,12.7c-.062.187.234.271.3.084q7.278-22.273,16.632-43.792,2.709-6.225,5.59-12.372c.083-.177-.178-.339-.262-.16Z" transform="translate(-118.22 -235.354)"/><g transform="translate(15.975 11.119)"><path class="bs" d="M133.219,248.74a69.954,69.954,0,0,1,7.916-2.8c.189-.055.118-.353-.072-.3a70.631,70.631,0,0,0-7.99,2.828c-.182.077-.035.346.146.27Z" transform="translate(-132.99 -245.635)"/></g><g transform="translate(7.151 31.962)"><path class="bs" d="M125.057,269.641q4.113-2.133,8.129-4.444c.172-.1.026-.369-.145-.27q-4.017,2.31-8.13,4.444a.154.154,0,0,0,.146.27Z" transform="translate(-124.832 -264.905)"/></g><g transform="translate(12.355 20.312)"><path class="bs" d="M129.87,257.088a58.162,58.162,0,0,1,6.174-2.645c.184-.067.114-.366-.072-.3a58.99,58.99,0,0,0-6.247,2.674c-.177.089-.031.358.146.27Z" transform="translate(-129.644 -254.134)"/></g><g transform="translate(16.166 3.029)"><path class="bs" d="M136.238,242.319l-2.774-4.094c-.109-.162-.381-.017-.27.146l2.774,4.093c.11.162.382.018.27-.145Z" transform="translate(-133.167 -238.154)"/></g><g transform="translate(10.244 14.723)"><path class="bs" d="M131.177,253.953q-1.595-2.456-3.191-4.914c-.107-.164-.377-.021-.27.146q1.6,2.456,3.191,4.914c.107.164.377.021.27-.146Z" transform="translate(-127.691 -248.967)"/></g><g transform="translate(1.05 40.766)"><path class="bs" d="M122.445,276.888a25.744,25.744,0,0,0-2.988-3.794c-.136-.143-.36.067-.224.21a25.177,25.177,0,0,1,2.942,3.73c.106.164.377.021.27-.146Z" transform="translate(-119.191 -273.046)"/></g><g transform="translate(3.146 25.104)"><path class="bs" d="M126.756,265.607a55.922,55.922,0,0,1-5.332-6.97c-.107-.164-.377-.019-.27.146a56.356,56.356,0,0,0,5.379,7.033c.132.147.356-.063.224-.21Z" transform="translate(-121.129 -258.565)"/></g></g></g></g><g transform="translate(11.791 73.504)"><rect class="l" width="25.36" height="20.885" rx="1.915"/><g class="bv"><rect class="bw" width="25.36" height="20.885" rx="1.915" transform="translate(9.164)"/></g></g></g><rect class="l" width="564.596" height="10.094" transform="translate(92.855 319.514)"/><path class="l" d="M104.173,304.673,107.2,432.36h8.075l6.056-127.688Z" transform="translate(4.082 24.935)"/><path class="l" d="M576.714,304.673,573.686,432.36h-8.075l-6.056-127.688Z" transform="translate(41.229 24.935)"/></g></svg>