<svg width="11" height="11" viewBox="0 0 11 11" fill="none" xmlns="http://www.w3.org/2000/svg">
<path d="M5.35938 0.414062L4.89062 0.859375C4.77344 0.976562 4.77344 1.16406 4.89062 1.25781L8.52344 4.89062H0.53125C0.367188 4.89062 0.25 5.03125 0.25 5.17188V5.82812C0.25 5.99219 0.367188 6.10938 0.53125 6.10938H8.52344L4.89062 9.76562C4.77344 9.85938 4.77344 10.0469 4.89062 10.1641L5.35938 10.6094C5.45312 10.7266 5.64062 10.7266 5.75781 10.6094L10.6562 5.71094C10.7734 5.59375 10.7734 5.42969 10.6562 5.3125L5.75781 0.414062C5.64062 0.296875 5.45312 0.296875 5.35938 0.414062Z" fill="#2D86DA"/>
</svg>
