<svg xmlns="http://www.w3.org/2000/svg" width="20" height="20.177" viewBox="0 0 20 20.177"><defs><style>.a{fill:#4069ad;}</style></defs><g transform="translate(-2.15)"><path class="a" d="M19.388,2.544A9.743,9.743,0,0,0,12.527,0,10.243,10.243,0,0,0,5.184,2.894,9.555,9.555,0,0,0,2.15,10.1a9.854,9.854,0,0,0,2.885,7.1,10.362,10.362,0,0,0,7.788,2.976,14.58,14.58,0,0,0,5.791-1.214,1.234,1.234,0,0,0,.667-1.593h0a1.231,1.231,0,0,0-1.63-.667,12.191,12.191,0,0,1-4.832,1.062A7.422,7.422,0,0,1,7,15.476a7.769,7.769,0,0,1-2.058-5.367A7.647,7.647,0,0,1,7.151,4.524a7.3,7.3,0,0,1,5.413-2.239,7.187,7.187,0,0,1,5,1.84A5.974,5.974,0,0,1,19.6,8.755a5.22,5.22,0,0,1-.934,3.178A2.525,2.525,0,0,1,16.725,13.2c-.362,0-.543-.193-.543-.584a10.835,10.835,0,0,1,.07-1.115l.766-6.261H14.383l-.169.613a3.418,3.418,0,0,0-2.206-.823A4.22,4.22,0,0,0,8.752,6.545a5.613,5.613,0,0,0-1.354,3.9A5.634,5.634,0,0,0,8.6,14.2a3.655,3.655,0,0,0,2.894,1.428,3.281,3.281,0,0,0,2.585-1.268,2.677,2.677,0,0,0,2.383,1.214,5.065,5.065,0,0,0,4-2.017A7.326,7.326,0,0,0,22.15,8.7,8.058,8.058,0,0,0,19.388,2.544Zm-6.067,9.471a2.042,2.042,0,0,1-1.667.943,1.2,1.2,0,0,1-1.062-.691,3.337,3.337,0,0,1-.407-1.721,3.4,3.4,0,0,1,.568-2.05,1.7,1.7,0,0,1,1.408-.782,1.757,1.757,0,0,1,1.3.584,2.145,2.145,0,0,1,.568,1.56A3.562,3.562,0,0,1,13.321,12.015Z"/></g></svg>