<svg width="23" height="23" viewBox="0 0 23 23" fill="none" xmlns="http://www.w3.org/2000/svg">
<path d="M22.7091 8.06055L22.758 7.66992C22.8556 7.2793 22.5626 6.9375 22.172 6.9375H17.3869L18.3634 1.41992C18.4611 1.0293 18.1681 0.6875 17.7775 0.6875H17.3869C17.1427 0.6875 16.8498 0.931641 16.8009 1.17578L15.7755 6.9375H9.57437L10.5509 1.41992C10.6486 1.0293 10.3556 0.6875 9.96499 0.6875H9.57437C9.33022 0.6875 9.03726 0.931641 8.98843 1.17578L7.96304 6.9375H2.98257C2.6896 6.9375 2.44546 7.18164 2.39663 7.42578L2.29897 7.81641C2.25015 8.20703 2.54312 8.5 2.88491 8.5H7.7189L6.59585 14.75H1.56655C1.27358 14.75 1.02944 14.9941 0.980616 15.2383L0.931787 15.6289C0.834131 16.0195 1.1271 16.3125 1.51772 16.3125H6.30288L5.32632 21.8789C5.22866 22.2695 5.52163 22.5625 5.91226 22.5625H6.30288C6.54702 22.5625 6.83999 22.3672 6.88882 22.123L7.91421 16.3125H14.1154L13.1388 21.8789C13.0412 22.2695 13.3341 22.5625 13.7248 22.5625H14.1154C14.3595 22.5625 14.6525 22.3672 14.7013 22.123L15.7267 16.3125H20.7072C21.0001 16.3125 21.2443 16.1172 21.2931 15.873L21.3908 15.4824C21.4396 15.0918 21.1466 14.75 20.8048 14.75H15.9708L17.0939 8.5H22.1232C22.4162 8.5 22.6603 8.30469 22.7091 8.06055ZM14.4083 14.75H8.15835L9.2814 8.5H15.5314L14.4083 14.75Z" fill="#2D86DA"/>
</svg>
