<svg width="23" height="23" viewBox="0 0 23 23" fill="none" xmlns="http://www.w3.org/2000/svg">
<path opacity="0.6" d="M22.7082 8.06055L22.757 7.66992C22.8546 7.2793 22.5617 6.9375 22.171 6.9375H17.3859L18.3625 1.41992C18.4601 1.0293 18.1671 0.6875 17.7765 0.6875H17.3859C17.1417 0.6875 16.8488 0.931641 16.8 1.17578L15.7746 6.9375H9.57339L10.55 1.41992C10.6476 1.0293 10.3546 0.6875 9.96401 0.6875H9.57339C9.32925 0.6875 9.03628 0.931641 8.98745 1.17578L7.96206 6.9375H2.98159C2.68862 6.9375 2.44448 7.18164 2.39565 7.42578L2.298 7.81641C2.24917 8.20703 2.54214 8.5 2.88394 8.5H7.71792L6.59487 14.75H1.56558C1.27261 14.75 1.02847 14.9941 0.979639 15.2383L0.930811 15.6289C0.833155 16.0195 1.12612 16.3125 1.51675 16.3125H6.3019L5.32534 21.8789C5.22769 22.2695 5.52065 22.5625 5.91128 22.5625H6.3019C6.54605 22.5625 6.83901 22.3672 6.88784 22.123L7.91323 16.3125H14.1144L13.1378 21.8789C13.0402 22.2695 13.3332 22.5625 13.7238 22.5625H14.1144C14.3585 22.5625 14.6515 22.3672 14.7003 22.123L15.7257 16.3125H20.7062C20.9992 16.3125 21.2433 16.1172 21.2921 15.873L21.3898 15.4824C21.4386 15.0918 21.1457 14.75 20.8039 14.75H15.9699L17.0929 8.5H22.1222C22.4152 8.5 22.6593 8.30469 22.7082 8.06055ZM14.4074 14.75H8.15737L9.28042 8.5H15.5304L14.4074 14.75Z" fill="#909090"/>
</svg>
