<svg width="12" height="17" viewBox="0 0 12 17" fill="none" xmlns="http://www.w3.org/2000/svg">
<path d="M11.1875 0.964844C11.3438 0.839844 11.5312 0.839844 11.7188 0.933594C11.9062 1.02734 12 1.18359 12 1.37109V16.3711C12 16.5898 11.9062 16.7461 11.7188 16.8398C11.5312 16.9336 11.3438 16.9023 11.1875 16.7773L10 15.3711L8.3125 16.7773C8.1875 16.8398 8.09375 16.8711 8 16.8711C7.875 16.8711 7.78125 16.8398 7.6875 16.7773L6 15.3711L4.3125 16.7773C4.1875 16.8398 4.09375 16.8711 4 16.8711C3.875 16.8711 3.78125 16.8398 3.6875 16.7773L2 15.3711L0.8125 16.7773C0.625 16.9023 0.46875 16.9336 0.28125 16.8398C0.09375 16.7461 0 16.5898 0 16.3711V1.37109C0 1.18359 0.09375 1.02734 0.28125 0.933594C0.46875 0.839844 0.625 0.839844 0.8125 0.964844L2 2.37109L3.6875 0.964844C3.78125 0.902344 3.875 0.871094 4 0.871094C4.09375 0.871094 4.1875 0.902344 4.3125 0.964844L6 2.37109L7.6875 0.964844C7.78125 0.902344 7.875 0.871094 8 0.871094C8.09375 0.871094 8.1875 0.902344 8.3125 0.964844L10 2.37109L11.1875 0.964844ZM10 12.1211V11.6211C10 11.5586 9.96875 11.5273 9.90625 11.4648C9.84375 11.4023 9.8125 11.3711 9.75 11.3711H2.25C2.1875 11.3711 2.125 11.4023 2.0625 11.4648C2 11.5273 2 11.5586 2 11.6211V12.1211C2 12.1836 2 12.2461 2.0625 12.3086C2.125 12.3711 2.1875 12.3711 2.25 12.3711H9.75C9.8125 12.3711 9.84375 12.3711 9.90625 12.3086C9.96875 12.2461 10 12.1836 10 12.1211ZM10 9.12109V8.62109C10 8.55859 9.96875 8.52734 9.90625 8.46484C9.84375 8.40234 9.8125 8.37109 9.75 8.37109H2.25C2.1875 8.37109 2.125 8.40234 2.0625 8.46484C2 8.52734 2 8.55859 2 8.62109V9.12109C2 9.18359 2 9.24609 2.0625 9.30859C2.125 9.37109 2.1875 9.37109 2.25 9.37109H9.75C9.8125 9.37109 9.84375 9.37109 9.90625 9.30859C9.96875 9.24609 10 9.18359 10 9.12109ZM10 6.12109V5.62109C10 5.55859 9.96875 5.52734 9.90625 5.46484C9.84375 5.40234 9.8125 5.37109 9.75 5.37109H2.25C2.1875 5.37109 2.125 5.40234 2.0625 5.46484C2 5.52734 2 5.55859 2 5.62109V6.12109C2 6.18359 2 6.24609 2.0625 6.30859C2.125 6.37109 2.1875 6.37109 2.25 6.37109H9.75C9.8125 6.37109 9.84375 6.37109 9.90625 6.30859C9.96875 6.24609 10 6.18359 10 6.12109Z" fill="#363636"/>
</svg>
