<svg xmlns="http://www.w3.org/2000/svg" width="60" height="60" viewBox="0 0 60 60"><defs><style>.a{opacity:0.5;}.b{fill:#4069ad;}</style></defs><g class="a"><path class="b" d="M54.352,27.918V5.524a1.758,1.758,0,0,0-1.758-1.758H44V1.758a1.758,1.758,0,0,0-3.516,0V3.766H28.934V1.758a1.758,1.758,0,0,0-3.516,0V3.766H13.871V1.758a1.758,1.758,0,0,0-3.516,0V3.766h-8.6A1.758,1.758,0,0,0,0,5.524v47.07a1.758,1.758,0,0,0,1.758,1.758h26.16A18.693,18.693,0,1,0,54.352,27.918ZM3.516,7.281h47.32v7.781H3.516Zm0,43.555V18.578h47.32v6.637a18.695,18.695,0,0,0-25.62,25.62H3.516ZM41.3,56.484A15.188,15.188,0,1,1,56.484,41.3,15.2,15.2,0,0,1,41.3,56.484Z"/><g transform="translate(39.539 33.891)"><path class="b" d="M344.806,294.848h-3.891v-3.891a1.758,1.758,0,0,0-3.516,0v5.648a1.758,1.758,0,0,0,1.758,1.758h5.648a1.758,1.758,0,0,0,0-3.516Z" transform="translate(-337.4 -289.2)"/></g></g></svg>