<svg width="18" height="14" viewBox="0 0 18 14" fill="none" xmlns="http://www.w3.org/2000/svg">
<path d="M0 12.5C0 13.3438 0.65625 14 1.5 14H16.5C17.3125 14 18 13.3438 18 12.5V7H0V12.5ZM6 10.375C6 10.1875 6.15625 10 6.375 10H10.625C10.8125 10 11 10.1875 11 10.375V11.625C11 11.8438 10.8125 12 10.625 12H6.375C6.15625 12 6 11.8438 6 11.625V10.375ZM2 10.375C2 10.1875 2.15625 10 2.375 10H4.625C4.8125 10 5 10.1875 5 10.375V11.625C5 11.8438 4.8125 12 4.625 12H2.375C2.15625 12 2 11.8438 2 11.625V10.375ZM18 1.5C18 0.6875 17.3125 0 16.5 0H1.5C0.65625 0 0 0.6875 0 1.5V3H18V1.5Z" fill="#2D86DA"/>
</svg>
