<svg width="32" height="26" viewBox="0 0 32 26" fill="none" xmlns="http://www.w3.org/2000/svg">
<path opacity="0.7" d="M31.3917 0.90625L30.9035 0.320312C30.757 0.125 30.5128 0.0761719 30.3664 0.222656L18.4035 9.64648L16.2062 6.86328C15.9621 6.57031 15.4738 6.57031 15.2785 6.91211L12.8859 10.2324C11.5187 10.2812 7.66128 10.4766 5.17105 12.4785C2.09487 14.9199 0.239405 25.125 0.239405 25.125C0.971827 25.1738 10.7375 25.4668 13.6671 23.123C16.1574 21.1211 17.2316 17.4102 17.5734 16.0918L21.382 14.5781C21.7238 14.4316 21.8703 13.9434 21.6261 13.6504L19.38 10.8672L31.2941 1.44336C31.3917 1.39453 31.4894 1.24805 31.4894 1.15039C31.4894 1.05273 31.4406 0.955078 31.3917 0.90625ZM12.6906 21.9023C11.421 22.9277 7.36831 23.6113 2.1437 23.6113C2.33901 22.7324 2.58315 21.8047 2.8273 20.877L6.19644 18.1914C6.44058 17.9961 6.24526 17.6055 5.9523 17.6543L3.7062 18.1426C4.43862 16.0918 5.2687 14.3828 6.14761 13.6992C7.80776 12.3809 10.5421 11.8438 12.6906 11.7949L16.0109 15.9453C15.6691 17.3125 14.6925 20.3398 12.6906 21.9023ZM16.9386 14.627L14.1554 11.1602L15.5714 9.1582C15.6691 9.01172 15.9132 9.01172 16.0109 9.1582L19.3312 13.3086C19.4777 13.4551 19.38 13.6992 19.2335 13.748L16.9386 14.627Z" fill="#909090"/>
</svg>
