<svg width="517" height="352" viewBox="0 0 517 352" fill="none" xmlns="http://www.w3.org/2000/svg">
<path d="M201.354 299.552C201.141 299.552 200.96 299.477 200.81 299.328C200.661 299.178 200.586 298.997 200.586 298.784V277.952C200.586 277.717 200.65 277.525 200.778 277.376C200.928 277.226 201.12 277.152 201.354 277.152H204.298C204.533 277.152 204.725 277.226 204.874 277.376C205.024 277.525 205.098 277.717 205.098 277.952V286.176H214.442V277.952C214.442 277.717 214.517 277.525 214.666 277.376C214.816 277.226 214.997 277.152 215.21 277.152H218.186C218.421 277.152 218.602 277.226 218.73 277.376C218.88 277.525 218.954 277.717 218.954 277.952V298.784C218.954 298.997 218.88 299.178 218.73 299.328C218.602 299.477 218.421 299.552 218.186 299.552H215.21C214.997 299.552 214.816 299.477 214.666 299.328C214.517 299.178 214.442 298.997 214.442 298.784V290.24H205.098V298.784C205.098 298.997 205.024 299.178 204.874 299.328C204.725 299.477 204.533 299.552 204.298 299.552H201.354ZM230.969 299.872C228.452 299.872 226.511 299.232 225.145 297.952C223.78 296.672 223.044 294.901 222.937 292.64L222.905 291.232L222.937 289.824C223.044 287.584 223.791 285.824 225.177 284.544C226.564 283.242 228.495 282.592 230.969 282.592C233.423 282.592 235.343 283.242 236.729 284.544C238.116 285.824 238.863 287.584 238.969 289.824C238.991 290.08 239.001 290.549 239.001 291.232C239.001 291.914 238.991 292.384 238.969 292.64C238.863 294.901 238.127 296.672 236.761 297.952C235.396 299.232 233.465 299.872 230.969 299.872ZM230.969 296.64C232.1 296.64 232.964 296.288 233.561 295.584C234.18 294.88 234.511 293.845 234.553 292.48C234.575 292.266 234.585 291.85 234.585 291.232C234.585 290.613 234.575 290.197 234.553 289.984C234.511 288.618 234.18 287.584 233.561 286.88C232.943 286.154 232.079 285.792 230.969 285.792C229.839 285.792 228.964 286.154 228.345 286.88C227.727 287.584 227.396 288.618 227.353 289.984L227.321 291.232L227.353 292.48C227.396 293.845 227.727 294.88 228.345 295.584C228.964 296.288 229.839 296.64 230.969 296.64ZM249.938 299.872C247.421 299.872 245.48 299.232 244.114 297.952C242.749 296.672 242.013 294.901 241.906 292.64L241.874 291.232L241.906 289.824C242.013 287.584 242.76 285.824 244.146 284.544C245.533 283.242 247.464 282.592 249.938 282.592C252.392 282.592 254.312 283.242 255.698 284.544C257.085 285.824 257.832 287.584 257.938 289.824C257.96 290.08 257.97 290.549 257.97 291.232C257.97 291.914 257.96 292.384 257.938 292.64C257.832 294.901 257.096 296.672 255.73 297.952C254.365 299.232 252.434 299.872 249.938 299.872ZM249.938 296.64C251.069 296.64 251.933 296.288 252.53 295.584C253.149 294.88 253.48 293.845 253.522 292.48C253.544 292.266 253.554 291.85 253.554 291.232C253.554 290.613 253.544 290.197 253.522 289.984C253.48 288.618 253.149 287.584 252.53 286.88C251.912 286.154 251.048 285.792 249.938 285.792C248.808 285.792 247.933 286.154 247.314 286.88C246.696 287.584 246.365 288.618 246.322 289.984L246.29 291.232L246.322 292.48C246.365 293.845 246.696 294.88 247.314 295.584C247.933 296.288 248.808 296.64 249.938 296.64ZM262.283 299.552C262.07 299.552 261.888 299.477 261.739 299.328C261.59 299.178 261.515 298.997 261.515 298.784V283.712C261.515 283.477 261.59 283.285 261.739 283.136C261.888 282.986 262.07 282.912 262.283 282.912H264.907C265.142 282.912 265.334 282.986 265.483 283.136C265.632 283.285 265.707 283.477 265.707 283.712V285.024C266.774 283.616 268.31 282.912 270.315 282.912H271.659C271.894 282.912 272.075 282.986 272.203 283.136C272.352 283.264 272.427 283.445 272.427 283.68V286.016C272.427 286.229 272.352 286.41 272.203 286.56C272.075 286.709 271.894 286.784 271.659 286.784H269.131C268.128 286.784 267.339 287.072 266.763 287.648C266.187 288.224 265.899 289.013 265.899 290.016V298.784C265.899 298.997 265.824 299.178 265.675 299.328C265.526 299.477 265.344 299.552 265.131 299.552H262.283ZM279.503 299.872C278.415 299.872 277.413 299.658 276.495 299.232C275.599 298.784 274.885 298.186 274.351 297.44C273.839 296.693 273.583 295.872 273.583 294.976C273.583 293.525 274.17 292.352 275.343 291.456C276.517 290.56 278.127 289.952 280.175 289.632L284.559 288.992V288.32C284.559 287.402 284.325 286.709 283.855 286.24C283.386 285.77 282.639 285.536 281.615 285.536C280.911 285.536 280.346 285.664 279.919 285.92C279.493 286.176 279.141 286.442 278.863 286.72C278.607 286.976 278.437 287.146 278.351 287.232C278.266 287.488 278.106 287.616 277.871 287.616H275.375C275.183 287.616 275.013 287.552 274.863 287.424C274.735 287.296 274.671 287.125 274.671 286.912C274.693 286.378 274.949 285.781 275.439 285.12C275.951 284.437 276.73 283.85 277.775 283.36C278.821 282.848 280.111 282.592 281.647 282.592C284.165 282.592 285.999 283.157 287.151 284.288C288.303 285.418 288.879 286.901 288.879 288.736V298.784C288.879 298.997 288.805 299.178 288.655 299.328C288.527 299.477 288.346 299.552 288.111 299.552H285.455C285.242 299.552 285.061 299.477 284.911 299.328C284.762 299.178 284.687 298.997 284.687 298.784V297.536C284.218 298.218 283.557 298.784 282.703 299.232C281.85 299.658 280.783 299.872 279.503 299.872ZM280.591 296.8C281.765 296.8 282.725 296.416 283.471 295.648C284.218 294.88 284.591 293.77 284.591 292.32V291.68L281.391 292.192C278.938 292.576 277.711 293.397 277.711 294.656C277.711 295.338 277.989 295.872 278.543 296.256C279.119 296.618 279.802 296.8 280.591 296.8ZM295.554 305.632C295.384 305.632 295.224 305.568 295.074 305.44C294.946 305.312 294.882 305.162 294.882 304.992C294.882 304.842 294.925 304.672 295.01 304.48L297.538 298.56L291.394 284.064C291.309 283.872 291.266 283.722 291.266 283.616C291.288 283.424 291.362 283.264 291.49 283.136C291.618 282.986 291.778 282.912 291.97 282.912H294.626C295.01 282.912 295.288 283.114 295.458 283.52L299.714 293.952L304.034 283.52C304.248 283.114 304.546 282.912 304.93 282.912H307.522C307.714 282.912 307.874 282.976 308.002 283.104C308.13 283.232 308.194 283.381 308.194 283.552C308.194 283.701 308.152 283.872 308.066 284.064L299.01 305.024C298.84 305.429 298.541 305.632 298.114 305.632H295.554ZM311.816 293.312C311.603 293.312 311.422 293.237 311.272 293.088C311.123 292.938 311.048 292.757 311.048 292.544V277.92C311.048 277.685 311.123 277.504 311.272 277.376C311.422 277.226 311.603 277.152 311.816 277.152H314.472C314.686 277.152 314.867 277.226 315.016 277.376C315.166 277.525 315.24 277.706 315.24 277.92V292.544C315.24 292.757 315.166 292.938 315.016 293.088C314.867 293.237 314.686 293.312 314.472 293.312H311.816ZM311.624 299.552C311.411 299.552 311.23 299.477 311.08 299.328C310.931 299.178 310.856 298.997 310.856 298.784V295.744C310.856 295.509 310.931 295.328 311.08 295.2C311.23 295.05 311.411 294.976 311.624 294.976H314.632C314.867 294.976 315.059 295.05 315.208 295.2C315.358 295.349 315.432 295.53 315.432 295.744V298.784C315.432 298.997 315.358 299.178 315.208 299.328C315.059 299.477 314.867 299.552 314.632 299.552H311.624Z" fill="#333333"/>
<path d="M50.9014 341.74C50.7548 341.74 50.6374 341.696 50.5494 341.608C50.4614 341.52 50.4174 341.403 50.4174 341.256V335.866L45.0494 327.066C44.9908 326.949 44.9614 326.854 44.9614 326.78C44.9614 326.663 45.0054 326.56 45.0934 326.472C45.1814 326.384 45.2841 326.34 45.4014 326.34H45.8414C46.0468 326.34 46.2154 326.45 46.3474 326.67L51.1214 334.436L55.8954 326.67C56.0274 326.45 56.1961 326.34 56.4014 326.34H56.8414C56.9588 326.34 57.0614 326.384 57.1494 326.472C57.2374 326.56 57.2814 326.663 57.2814 326.78C57.2814 326.854 57.2521 326.949 57.1934 327.066L51.8254 335.866V341.256C51.8254 341.403 51.7741 341.52 51.6714 341.608C51.5834 341.696 51.4661 341.74 51.3194 341.74H50.9014ZM62.3817 341.96C60.8563 341.96 59.6683 341.498 58.8177 340.574C57.9817 339.636 57.5417 338.426 57.4977 336.944L57.4757 336.02L57.4977 335.096C57.5417 333.615 57.9817 332.412 58.8177 331.488C59.6683 330.55 60.8563 330.08 62.3817 330.08C63.907 330.08 65.0877 330.55 65.9237 331.488C66.7743 332.412 67.2217 333.615 67.2657 335.096C67.2803 335.243 67.2877 335.551 67.2877 336.02C67.2877 336.49 67.2803 336.798 67.2657 336.944C67.2217 338.426 66.7743 339.636 65.9237 340.574C65.0877 341.498 63.907 341.96 62.3817 341.96ZM62.3817 340.684C63.423 340.684 64.259 340.354 64.8897 339.694C65.535 339.02 65.8797 338.066 65.9237 336.834C65.9383 336.688 65.9457 336.416 65.9457 336.02C65.9457 335.624 65.9383 335.353 65.9237 335.206C65.8797 333.974 65.535 333.028 64.8897 332.368C64.259 331.694 63.423 331.356 62.3817 331.356C61.3403 331.356 60.497 331.694 59.8517 332.368C59.221 333.028 58.8837 333.974 58.8397 335.206L58.8177 336.02L58.8397 336.834C58.8837 338.066 59.221 339.02 59.8517 339.694C60.497 340.354 61.3403 340.684 62.3817 340.684ZM74.5832 341.96C73.1459 341.96 72.0532 341.506 71.3052 340.596C70.5572 339.687 70.1832 338.499 70.1832 337.032V330.784C70.1832 330.638 70.2272 330.52 70.3152 330.432C70.4032 330.344 70.5206 330.3 70.6672 330.3H71.0412C71.1879 330.3 71.3052 330.344 71.3932 330.432C71.4812 330.52 71.5252 330.638 71.5252 330.784V336.922C71.5252 339.43 72.6179 340.684 74.8032 340.684C75.8592 340.684 76.6952 340.354 77.3112 339.694C77.9419 339.02 78.2572 338.096 78.2572 336.922V330.784C78.2572 330.638 78.3012 330.52 78.3892 330.432C78.4772 330.344 78.5946 330.3 78.7412 330.3H79.1152C79.2619 330.3 79.3792 330.344 79.4672 330.432C79.5552 330.52 79.5992 330.638 79.5992 330.784V341.256C79.5992 341.403 79.5552 341.52 79.4672 341.608C79.3792 341.696 79.2619 341.74 79.1152 341.74H78.7412C78.5946 341.74 78.4772 341.696 78.3892 341.608C78.3012 341.52 78.2572 341.403 78.2572 341.256V340.222C77.8172 340.794 77.3112 341.227 76.7392 341.52C76.1819 341.814 75.4632 341.96 74.5832 341.96ZM83.6464 341.74C83.4997 341.74 83.3824 341.696 83.2944 341.608C83.2064 341.52 83.1624 341.403 83.1624 341.256V330.806C83.1624 330.66 83.2064 330.542 83.2944 330.454C83.3824 330.352 83.4997 330.3 83.6464 330.3H83.9984C84.145 330.3 84.2624 330.352 84.3504 330.454C84.453 330.542 84.5044 330.66 84.5044 330.806V331.818C85.0324 330.806 86.0297 330.3 87.4964 330.3H88.3104C88.457 330.3 88.5744 330.344 88.6624 330.432C88.7504 330.52 88.7944 330.638 88.7944 330.784V331.092C88.7944 331.239 88.7504 331.356 88.6624 331.444C88.5744 331.532 88.457 331.576 88.3104 331.576H87.3644C86.4844 331.576 85.7877 331.833 85.2744 332.346C84.761 332.86 84.5044 333.556 84.5044 334.436V341.256C84.5044 341.403 84.453 341.52 84.3504 341.608C84.2624 341.696 84.145 341.74 83.9984 341.74H83.6464ZM100.302 341.96C98.7762 341.96 97.5882 341.498 96.7376 340.574C95.9016 339.636 95.4616 338.426 95.4176 336.944L95.3956 336.02L95.4176 335.096C95.4616 333.615 95.9016 332.412 96.7376 331.488C97.5882 330.55 98.7762 330.08 100.302 330.08C101.827 330.08 103.008 330.55 103.844 331.488C104.694 332.412 105.142 333.615 105.186 335.096C105.2 335.243 105.208 335.551 105.208 336.02C105.208 336.49 105.2 336.798 105.186 336.944C105.142 338.426 104.694 339.636 103.844 340.574C103.008 341.498 101.827 341.96 100.302 341.96ZM100.302 340.684C101.343 340.684 102.179 340.354 102.81 339.694C103.455 339.02 103.8 338.066 103.844 336.834C103.858 336.688 103.866 336.416 103.866 336.02C103.866 335.624 103.858 335.353 103.844 335.206C103.8 333.974 103.455 333.028 102.81 332.368C102.179 331.694 101.343 331.356 100.302 331.356C99.2602 331.356 98.4169 331.694 97.7716 332.368C97.1409 333.028 96.8036 333.974 96.7596 335.206L96.7376 336.02L96.7596 336.834C96.8036 338.066 97.1409 339.02 97.7716 339.694C98.4169 340.354 99.2602 340.684 100.302 340.684ZM108.697 341.74C108.55 341.74 108.433 341.696 108.345 341.608C108.257 341.52 108.213 341.403 108.213 341.256V330.806C108.213 330.66 108.257 330.542 108.345 330.454C108.433 330.352 108.55 330.3 108.697 330.3H109.049C109.196 330.3 109.313 330.352 109.401 330.454C109.504 330.542 109.555 330.66 109.555 330.806V331.818C110.083 330.806 111.08 330.3 112.547 330.3H113.361C113.508 330.3 113.625 330.344 113.713 330.432C113.801 330.52 113.845 330.638 113.845 330.784V331.092C113.845 331.239 113.801 331.356 113.713 331.444C113.625 331.532 113.508 331.576 113.361 331.576H112.415C111.535 331.576 110.838 331.833 110.325 332.346C109.812 332.86 109.555 333.556 109.555 334.436V341.256C109.555 341.403 109.504 341.52 109.401 341.608C109.313 341.696 109.196 341.74 109.049 341.74H108.697ZM119.718 341.96C118.134 341.96 116.961 341.447 116.198 340.42C115.45 339.379 115.054 338.118 115.01 336.636L114.988 336.02L115.01 335.404C115.054 333.923 115.45 332.669 116.198 331.642C116.961 330.601 118.134 330.08 119.718 330.08C121.317 330.08 122.549 330.66 123.414 331.818V326.604C123.414 326.458 123.458 326.34 123.546 326.252C123.634 326.164 123.752 326.12 123.898 326.12H124.272C124.419 326.12 124.536 326.164 124.624 326.252C124.712 326.34 124.756 326.458 124.756 326.604V341.256C124.756 341.403 124.712 341.52 124.624 341.608C124.536 341.696 124.419 341.74 124.272 341.74H123.898C123.752 341.74 123.634 341.696 123.546 341.608C123.458 341.52 123.414 341.403 123.414 341.256V340.222C122.564 341.381 121.332 341.96 119.718 341.96ZM119.85 340.684C121.009 340.684 121.882 340.303 122.468 339.54C123.055 338.763 123.37 337.854 123.414 336.812C123.429 336.666 123.436 336.38 123.436 335.954C123.436 335.529 123.429 335.243 123.414 335.096C123.4 334.466 123.26 333.872 122.996 333.314C122.732 332.742 122.336 332.273 121.808 331.906C121.28 331.54 120.628 331.356 119.85 331.356C118.662 331.356 117.79 331.738 117.232 332.5C116.69 333.248 116.396 334.216 116.352 335.404L116.33 336.02C116.33 337.384 116.594 338.506 117.122 339.386C117.65 340.252 118.56 340.684 119.85 340.684ZM132.59 341.96C131.197 341.96 130.075 341.506 129.224 340.596C128.373 339.672 127.889 338.44 127.772 336.9L127.75 336.02L127.772 335.14C127.889 333.615 128.366 332.39 129.202 331.466C130.053 330.542 131.182 330.08 132.59 330.08C134.115 330.08 135.303 330.586 136.154 331.598C137.019 332.61 137.452 333.996 137.452 335.756V336.086C137.452 336.233 137.401 336.35 137.298 336.438C137.21 336.526 137.093 336.57 136.946 336.57H129.114V336.79C129.143 337.48 129.297 338.125 129.576 338.726C129.869 339.313 130.273 339.79 130.786 340.156C131.299 340.508 131.901 340.684 132.59 340.684C133.397 340.684 134.049 340.53 134.548 340.222C135.061 339.9 135.428 339.577 135.648 339.254C135.78 339.078 135.875 338.968 135.934 338.924C136.007 338.88 136.132 338.858 136.308 338.858H136.66C136.792 338.858 136.902 338.895 136.99 338.968C137.078 339.042 137.122 339.137 137.122 339.254C137.122 339.562 136.924 339.936 136.528 340.376C136.147 340.802 135.611 341.176 134.922 341.498C134.233 341.806 133.455 341.96 132.59 341.96ZM136.11 335.338V335.25C136.11 334.121 135.787 333.19 135.142 332.456C134.511 331.723 133.661 331.356 132.59 331.356C131.519 331.356 130.669 331.723 130.038 332.456C129.422 333.19 129.114 334.121 129.114 335.25V335.338H136.11ZM140.838 341.74C140.691 341.74 140.574 341.696 140.486 341.608C140.398 341.52 140.354 341.403 140.354 341.256V330.806C140.354 330.66 140.398 330.542 140.486 330.454C140.574 330.352 140.691 330.3 140.838 330.3H141.19C141.336 330.3 141.454 330.352 141.542 330.454C141.644 330.542 141.696 330.66 141.696 330.806V331.818C142.224 330.806 143.221 330.3 144.688 330.3H145.502C145.648 330.3 145.766 330.344 145.854 330.432C145.942 330.52 145.986 330.638 145.986 330.784V331.092C145.986 331.239 145.942 331.356 145.854 331.444C145.766 331.532 145.648 331.576 145.502 331.576H144.556C143.676 331.576 142.979 331.833 142.466 332.346C141.952 332.86 141.696 333.556 141.696 334.436V341.256C141.696 341.403 141.644 341.52 141.542 341.608C141.454 341.696 141.336 341.74 141.19 341.74H140.838ZM153.643 341.74C153.496 341.74 153.379 341.696 153.291 341.608C153.203 341.52 153.159 341.403 153.159 341.256V326.604C153.159 326.458 153.203 326.34 153.291 326.252C153.379 326.164 153.496 326.12 153.643 326.12H154.017C154.164 326.12 154.281 326.164 154.369 326.252C154.457 326.34 154.501 326.458 154.501 326.604V331.818C154.941 331.246 155.44 330.814 155.997 330.52C156.569 330.227 157.302 330.08 158.197 330.08C159.634 330.08 160.742 330.542 161.519 331.466C162.296 332.376 162.685 333.556 162.685 335.008V341.256C162.685 341.403 162.641 341.52 162.553 341.608C162.465 341.696 162.348 341.74 162.201 341.74H161.827C161.68 341.74 161.563 341.696 161.475 341.608C161.387 341.52 161.343 341.403 161.343 341.256V335.118C161.343 333.93 161.05 333.006 160.463 332.346C159.891 331.686 159.062 331.356 157.977 331.356C156.921 331.356 156.078 331.694 155.447 332.368C154.816 333.028 154.501 333.945 154.501 335.118V341.256C154.501 341.403 154.457 341.52 154.369 341.608C154.281 341.696 154.164 341.74 154.017 341.74H153.643ZM169.215 341.96C168.511 341.96 167.858 341.814 167.257 341.52C166.656 341.227 166.172 340.831 165.805 340.332C165.453 339.834 165.277 339.284 165.277 338.682C165.277 337.714 165.666 336.922 166.443 336.306C167.235 335.69 168.298 335.294 169.633 335.118L173.109 334.634V333.864C173.109 333.058 172.86 332.442 172.361 332.016C171.877 331.576 171.129 331.356 170.117 331.356C169.369 331.356 168.753 331.503 168.269 331.796C167.8 332.09 167.499 332.442 167.367 332.852C167.308 333.028 167.235 333.153 167.147 333.226C167.074 333.285 166.971 333.314 166.839 333.314H166.531C166.399 333.314 166.282 333.27 166.179 333.182C166.091 333.08 166.047 332.962 166.047 332.83C166.047 332.508 166.194 332.134 166.487 331.708C166.78 331.268 167.235 330.887 167.851 330.564C168.467 330.242 169.222 330.08 170.117 330.08C171.686 330.08 172.801 330.454 173.461 331.202C174.121 331.95 174.451 332.86 174.451 333.93V341.256C174.451 341.403 174.407 341.52 174.319 341.608C174.231 341.696 174.114 341.74 173.967 341.74H173.593C173.446 341.74 173.329 341.696 173.241 341.608C173.153 341.52 173.109 341.403 173.109 341.256V340.222C172.786 340.706 172.31 341.117 171.679 341.454C171.063 341.792 170.242 341.96 169.215 341.96ZM169.435 340.684C170.506 340.684 171.386 340.332 172.075 339.628C172.764 338.924 173.109 337.912 173.109 336.592V335.844L170.271 336.24C169.068 336.402 168.159 336.68 167.543 337.076C166.927 337.472 166.619 337.971 166.619 338.572C166.619 339.247 166.898 339.768 167.455 340.134C168.027 340.501 168.687 340.684 169.435 340.684ZM181.56 341.96C180.607 341.96 179.8 341.799 179.14 341.476C178.495 341.154 178.003 340.787 177.666 340.376C177.343 339.966 177.182 339.636 177.182 339.386C177.182 339.254 177.233 339.152 177.336 339.078C177.439 338.99 177.549 338.946 177.666 338.946H177.996C178.099 338.946 178.179 338.968 178.238 339.012C178.311 339.042 178.392 339.115 178.48 339.232C178.803 339.687 179.191 340.046 179.646 340.31C180.115 340.56 180.753 340.684 181.56 340.684C182.469 340.684 183.203 340.516 183.76 340.178C184.317 339.826 184.596 339.328 184.596 338.682C184.596 338.286 184.479 337.964 184.244 337.714C184.024 337.465 183.657 337.252 183.144 337.076C182.645 336.886 181.897 336.673 180.9 336.438C179.595 336.145 178.7 335.742 178.216 335.228C177.747 334.715 177.512 334.062 177.512 333.27C177.512 332.728 177.659 332.214 177.952 331.73C178.26 331.246 178.707 330.85 179.294 330.542C179.895 330.234 180.614 330.08 181.45 330.08C182.33 330.08 183.071 330.234 183.672 330.542C184.288 330.836 184.743 331.18 185.036 331.576C185.344 331.972 185.498 332.295 185.498 332.544C185.498 332.676 185.447 332.786 185.344 332.874C185.256 332.948 185.146 332.984 185.014 332.984H184.684C184.479 332.984 184.317 332.889 184.2 332.698C183.907 332.258 183.569 331.928 183.188 331.708C182.821 331.474 182.242 331.356 181.45 331.356C180.599 331.356 179.954 331.532 179.514 331.884C179.074 332.236 178.854 332.698 178.854 333.27C178.854 333.622 178.942 333.916 179.118 334.15C179.294 334.385 179.624 334.605 180.108 334.81C180.592 335.001 181.296 335.199 182.22 335.404C183.584 335.712 184.545 336.123 185.102 336.636C185.659 337.15 185.938 337.832 185.938 338.682C185.938 339.284 185.769 339.834 185.432 340.332C185.095 340.831 184.596 341.227 183.936 341.52C183.276 341.814 182.484 341.96 181.56 341.96ZM199.49 341.96C197.877 341.96 196.645 341.381 195.794 340.222V341.256C195.794 341.403 195.75 341.52 195.662 341.608C195.574 341.696 195.457 341.74 195.31 341.74H194.936C194.789 341.74 194.672 341.696 194.584 341.608C194.496 341.52 194.452 341.403 194.452 341.256V326.604C194.452 326.458 194.496 326.34 194.584 326.252C194.672 326.164 194.789 326.12 194.936 326.12H195.31C195.457 326.12 195.574 326.164 195.662 326.252C195.75 326.34 195.794 326.458 195.794 326.604V331.818C196.659 330.66 197.891 330.08 199.49 330.08C201.074 330.08 202.24 330.601 202.988 331.642C203.751 332.669 204.154 333.923 204.198 335.404C204.213 335.551 204.22 335.756 204.22 336.02C204.22 336.284 204.213 336.49 204.198 336.636C204.154 338.118 203.751 339.379 202.988 340.42C202.24 341.447 201.074 341.96 199.49 341.96ZM199.358 340.684C200.546 340.684 201.411 340.31 201.954 339.562C202.511 338.8 202.812 337.824 202.856 336.636C202.871 336.49 202.878 336.284 202.878 336.02C202.878 334.656 202.614 333.542 202.086 332.676C201.558 331.796 200.649 331.356 199.358 331.356C198.581 331.356 197.928 331.54 197.4 331.906C196.872 332.273 196.476 332.742 196.212 333.314C195.948 333.872 195.809 334.466 195.794 335.096L195.772 335.954L195.794 336.812C195.838 337.854 196.153 338.763 196.74 339.54C197.327 340.303 198.199 340.684 199.358 340.684ZM211.438 341.96C210.044 341.96 208.922 341.506 208.072 340.596C207.221 339.672 206.737 338.44 206.62 336.9L206.598 336.02L206.62 335.14C206.737 333.615 207.214 332.39 208.05 331.466C208.9 330.542 210.03 330.08 211.438 330.08C212.963 330.08 214.151 330.586 215.002 331.598C215.867 332.61 216.3 333.996 216.3 335.756V336.086C216.3 336.233 216.248 336.35 216.146 336.438C216.058 336.526 215.94 336.57 215.794 336.57H207.962V336.79C207.991 337.48 208.145 338.125 208.424 338.726C208.717 339.313 209.12 339.79 209.634 340.156C210.147 340.508 210.748 340.684 211.438 340.684C212.244 340.684 212.897 340.53 213.396 340.222C213.909 339.9 214.276 339.577 214.496 339.254C214.628 339.078 214.723 338.968 214.782 338.924C214.855 338.88 214.98 338.858 215.156 338.858H215.508C215.64 338.858 215.75 338.895 215.838 338.968C215.926 339.042 215.97 339.137 215.97 339.254C215.97 339.562 215.772 339.936 215.376 340.376C214.994 340.802 214.459 341.176 213.77 341.498C213.08 341.806 212.303 341.96 211.438 341.96ZM214.958 335.338V335.25C214.958 334.121 214.635 333.19 213.99 332.456C213.359 331.723 212.508 331.356 211.438 331.356C210.367 331.356 209.516 331.723 208.886 332.456C208.27 333.19 207.962 334.121 207.962 335.25V335.338H214.958ZM223.447 341.96C222.054 341.96 220.932 341.506 220.081 340.596C219.231 339.672 218.747 338.44 218.629 336.9L218.607 336.02L218.629 335.14C218.747 333.615 219.223 332.39 220.059 331.466C220.91 330.542 222.039 330.08 223.447 330.08C224.973 330.08 226.161 330.586 227.011 331.598C227.877 332.61 228.309 333.996 228.309 335.756V336.086C228.309 336.233 228.258 336.35 228.155 336.438C228.067 336.526 227.95 336.57 227.803 336.57H219.971V336.79C220.001 337.48 220.155 338.125 220.433 338.726C220.727 339.313 221.13 339.79 221.643 340.156C222.157 340.508 222.758 340.684 223.447 340.684C224.254 340.684 224.907 340.53 225.405 340.222C225.919 339.9 226.285 339.577 226.505 339.254C226.637 339.078 226.733 338.968 226.791 338.924C226.865 338.88 226.989 338.858 227.165 338.858H227.517C227.649 338.858 227.759 338.895 227.847 338.968C227.935 339.042 227.979 339.137 227.979 339.254C227.979 339.562 227.781 339.936 227.385 340.376C227.004 340.802 226.469 341.176 225.779 341.498C225.09 341.806 224.313 341.96 223.447 341.96ZM226.967 335.338V335.25C226.967 334.121 226.645 333.19 225.999 332.456C225.369 331.723 224.518 331.356 223.447 331.356C222.377 331.356 221.526 331.723 220.895 332.456C220.279 333.19 219.971 334.121 219.971 335.25V335.338H226.967ZM231.695 341.74C231.549 341.74 231.431 341.696 231.343 341.608C231.255 341.52 231.211 341.403 231.211 341.256V330.784C231.211 330.638 231.255 330.52 231.343 330.432C231.431 330.344 231.549 330.3 231.695 330.3H232.069C232.216 330.3 232.333 330.344 232.421 330.432C232.509 330.52 232.553 330.638 232.553 330.784V331.818C232.993 331.246 233.492 330.814 234.049 330.52C234.621 330.227 235.355 330.08 236.249 330.08C237.687 330.08 238.794 330.542 239.571 331.466C240.349 332.376 240.737 333.556 240.737 335.008V341.256C240.737 341.403 240.693 341.52 240.605 341.608C240.517 341.696 240.4 341.74 240.253 341.74H239.879C239.733 341.74 239.615 341.696 239.527 341.608C239.439 341.52 239.395 341.403 239.395 341.256V335.118C239.395 333.93 239.102 333.006 238.515 332.346C237.943 331.686 237.115 331.356 236.029 331.356C234.973 331.356 234.13 331.694 233.499 332.368C232.869 333.028 232.553 333.945 232.553 335.118V341.256C232.553 341.403 232.509 341.52 232.421 341.608C232.333 341.696 232.216 341.74 232.069 341.74H231.695ZM253.49 341.96C252.536 341.96 251.73 341.799 251.07 341.476C250.424 341.154 249.933 340.787 249.596 340.376C249.273 339.966 249.112 339.636 249.112 339.386C249.112 339.254 249.163 339.152 249.266 339.078C249.368 338.99 249.478 338.946 249.596 338.946H249.926C250.028 338.946 250.109 338.968 250.168 339.012C250.241 339.042 250.322 339.115 250.41 339.232C250.732 339.687 251.121 340.046 251.576 340.31C252.045 340.56 252.683 340.684 253.49 340.684C254.399 340.684 255.132 340.516 255.69 340.178C256.247 339.826 256.526 339.328 256.526 338.682C256.526 338.286 256.408 337.964 256.174 337.714C255.954 337.465 255.587 337.252 255.074 337.076C254.575 336.886 253.827 336.673 252.83 336.438C251.524 336.145 250.63 335.742 250.146 335.228C249.676 334.715 249.442 334.062 249.442 333.27C249.442 332.728 249.588 332.214 249.882 331.73C250.19 331.246 250.637 330.85 251.224 330.542C251.825 330.234 252.544 330.08 253.38 330.08C254.26 330.08 255 330.234 255.602 330.542C256.218 330.836 256.672 331.18 256.966 331.576C257.274 331.972 257.428 332.295 257.428 332.544C257.428 332.676 257.376 332.786 257.274 332.874C257.186 332.948 257.076 332.984 256.944 332.984H256.614C256.408 332.984 256.247 332.889 256.13 332.698C255.836 332.258 255.499 331.928 255.118 331.708C254.751 331.474 254.172 331.356 253.38 331.356C252.529 331.356 251.884 331.532 251.444 331.884C251.004 332.236 250.784 332.698 250.784 333.27C250.784 333.622 250.872 333.916 251.048 334.15C251.224 334.385 251.554 334.605 252.038 334.81C252.522 335.001 253.226 335.199 254.15 335.404C255.514 335.712 256.474 336.123 257.032 336.636C257.589 337.15 257.868 337.832 257.868 338.682C257.868 339.284 257.699 339.834 257.362 340.332C257.024 340.831 256.526 341.227 255.866 341.52C255.206 341.814 254.414 341.96 253.49 341.96ZM264.978 341.96C263.54 341.96 262.448 341.506 261.7 340.596C260.952 339.687 260.578 338.499 260.578 337.032V330.784C260.578 330.638 260.622 330.52 260.71 330.432C260.798 330.344 260.915 330.3 261.062 330.3H261.436C261.582 330.3 261.7 330.344 261.788 330.432C261.876 330.52 261.92 330.638 261.92 330.784V336.922C261.92 339.43 263.012 340.684 265.198 340.684C266.254 340.684 267.09 340.354 267.706 339.694C268.336 339.02 268.652 338.096 268.652 336.922V330.784C268.652 330.638 268.696 330.52 268.784 330.432C268.872 330.344 268.989 330.3 269.136 330.3H269.51C269.656 330.3 269.774 330.344 269.862 330.432C269.95 330.52 269.994 330.638 269.994 330.784V341.256C269.994 341.403 269.95 341.52 269.862 341.608C269.774 341.696 269.656 341.74 269.51 341.74H269.136C268.989 341.74 268.872 341.696 268.784 341.608C268.696 341.52 268.652 341.403 268.652 341.256V340.222C268.212 340.794 267.706 341.227 267.134 341.52C266.576 341.814 265.858 341.96 264.978 341.96ZM277.891 341.96C276.366 341.96 275.185 341.52 274.349 340.64C273.513 339.746 273.073 338.499 273.029 336.9L273.007 336.02L273.029 335.14C273.073 333.542 273.513 332.302 274.349 331.422C275.185 330.528 276.366 330.08 277.891 330.08C278.859 330.08 279.68 330.256 280.355 330.608C281.044 330.946 281.558 331.386 281.895 331.928C282.232 332.456 282.416 333.006 282.445 333.578C282.46 333.71 282.416 333.828 282.313 333.93C282.21 334.018 282.093 334.062 281.961 334.062H281.653C281.506 334.062 281.396 334.033 281.323 333.974C281.264 333.901 281.198 333.776 281.125 333.6C280.832 332.794 280.421 332.222 279.893 331.884C279.365 331.532 278.698 331.356 277.891 331.356C276.835 331.356 275.992 331.679 275.361 332.324C274.745 332.955 274.415 333.93 274.371 335.25L274.349 336.02L274.371 336.79C274.415 338.11 274.745 339.093 275.361 339.738C275.992 340.369 276.835 340.684 277.891 340.684C278.698 340.684 279.365 340.516 279.893 340.178C280.421 339.826 280.832 339.247 281.125 338.44C281.198 338.264 281.264 338.147 281.323 338.088C281.396 338.015 281.506 337.978 281.653 337.978H281.961C282.093 337.978 282.21 338.03 282.313 338.132C282.416 338.22 282.46 338.33 282.445 338.462C282.416 339.034 282.232 339.592 281.895 340.134C281.558 340.662 281.044 341.102 280.355 341.454C279.68 341.792 278.859 341.96 277.891 341.96ZM289.686 341.96C288.16 341.96 286.98 341.52 286.144 340.64C285.308 339.746 284.868 338.499 284.824 336.9L284.802 336.02L284.824 335.14C284.868 333.542 285.308 332.302 286.144 331.422C286.98 330.528 288.16 330.08 289.686 330.08C290.654 330.08 291.475 330.256 292.15 330.608C292.839 330.946 293.352 331.386 293.69 331.928C294.027 332.456 294.21 333.006 294.24 333.578C294.254 333.71 294.21 333.828 294.108 333.93C294.005 334.018 293.888 334.062 293.756 334.062H293.448C293.301 334.062 293.191 334.033 293.118 333.974C293.059 333.901 292.993 333.776 292.92 333.6C292.626 332.794 292.216 332.222 291.688 331.884C291.16 331.532 290.492 331.356 289.686 331.356C288.63 331.356 287.786 331.679 287.156 332.324C286.54 332.955 286.21 333.93 286.166 335.25L286.144 336.02L286.166 336.79C286.21 338.11 286.54 339.093 287.156 339.738C287.786 340.369 288.63 340.684 289.686 340.684C290.492 340.684 291.16 340.516 291.688 340.178C292.216 339.826 292.626 339.247 292.92 338.44C292.993 338.264 293.059 338.147 293.118 338.088C293.191 338.015 293.301 337.978 293.448 337.978H293.756C293.888 337.978 294.005 338.03 294.108 338.132C294.21 338.22 294.254 338.33 294.24 338.462C294.21 339.034 294.027 339.592 293.69 340.134C293.352 340.662 292.839 341.102 292.15 341.454C291.475 341.792 290.654 341.96 289.686 341.96ZM301.393 341.96C299.999 341.96 298.877 341.506 298.027 340.596C297.176 339.672 296.692 338.44 296.575 336.9L296.553 336.02L296.575 335.14C296.692 333.615 297.169 332.39 298.005 331.466C298.855 330.542 299.985 330.08 301.393 330.08C302.918 330.08 304.106 330.586 304.957 331.598C305.822 332.61 306.255 333.996 306.255 335.756V336.086C306.255 336.233 306.203 336.35 306.101 336.438C306.013 336.526 305.895 336.57 305.749 336.57H297.917V336.79C297.946 337.48 298.1 338.125 298.379 338.726C298.672 339.313 299.075 339.79 299.589 340.156C300.102 340.508 300.703 340.684 301.393 340.684C302.199 340.684 302.852 340.53 303.351 340.222C303.864 339.9 304.231 339.577 304.451 339.254C304.583 339.078 304.678 338.968 304.737 338.924C304.81 338.88 304.935 338.858 305.111 338.858H305.463C305.595 338.858 305.705 338.895 305.793 338.968C305.881 339.042 305.925 339.137 305.925 339.254C305.925 339.562 305.727 339.936 305.331 340.376C304.949 340.802 304.414 341.176 303.725 341.498C303.035 341.806 302.258 341.96 301.393 341.96ZM304.913 335.338V335.25C304.913 334.121 304.59 333.19 303.945 332.456C303.314 331.723 302.463 331.356 301.393 331.356C300.322 331.356 299.471 331.723 298.841 332.456C298.225 333.19 297.917 334.121 297.917 335.25V335.338H304.913ZM312.787 341.96C311.833 341.96 311.027 341.799 310.367 341.476C309.721 341.154 309.23 340.787 308.893 340.376C308.57 339.966 308.409 339.636 308.409 339.386C308.409 339.254 308.46 339.152 308.563 339.078C308.665 338.99 308.775 338.946 308.893 338.946H309.223C309.325 338.946 309.406 338.968 309.465 339.012C309.538 339.042 309.619 339.115 309.707 339.232C310.029 339.687 310.418 340.046 310.873 340.31C311.342 340.56 311.98 340.684 312.787 340.684C313.696 340.684 314.429 340.516 314.987 340.178C315.544 339.826 315.823 339.328 315.823 338.682C315.823 338.286 315.705 337.964 315.471 337.714C315.251 337.465 314.884 337.252 314.371 337.076C313.872 336.886 313.124 336.673 312.127 336.438C310.821 336.145 309.927 335.742 309.443 335.228C308.973 334.715 308.739 334.062 308.739 333.27C308.739 332.728 308.885 332.214 309.179 331.73C309.487 331.246 309.934 330.85 310.521 330.542C311.122 330.234 311.841 330.08 312.677 330.08C313.557 330.08 314.297 330.234 314.899 330.542C315.515 330.836 315.969 331.18 316.263 331.576C316.571 331.972 316.725 332.295 316.725 332.544C316.725 332.676 316.673 332.786 316.571 332.874C316.483 332.948 316.373 332.984 316.241 332.984H315.911C315.705 332.984 315.544 332.889 315.427 332.698C315.133 332.258 314.796 331.928 314.415 331.708C314.048 331.474 313.469 331.356 312.677 331.356C311.826 331.356 311.181 331.532 310.741 331.884C310.301 332.236 310.081 332.698 310.081 333.27C310.081 333.622 310.169 333.916 310.345 334.15C310.521 334.385 310.851 334.605 311.335 334.81C311.819 335.001 312.523 335.199 313.447 335.404C314.811 335.712 315.771 336.123 316.329 336.636C316.886 337.15 317.165 337.832 317.165 338.682C317.165 339.284 316.996 339.834 316.659 340.332C316.321 340.831 315.823 341.227 315.163 341.52C314.503 341.814 313.711 341.96 312.787 341.96ZM321.547 341.74C321.4 341.74 321.283 341.696 321.195 341.608C321.107 341.52 321.063 341.403 321.063 341.256V331.576H319.105C318.958 331.576 318.841 331.532 318.753 331.444C318.665 331.356 318.621 331.239 318.621 331.092V330.784C318.621 330.638 318.665 330.52 318.753 330.432C318.841 330.344 318.958 330.3 319.105 330.3H321.063V329.046C321.063 327.932 321.305 327.059 321.789 326.428C322.273 325.783 323.138 325.46 324.385 325.46H325.529C325.675 325.46 325.793 325.504 325.881 325.592C325.969 325.68 326.013 325.798 326.013 325.944V326.252C326.013 326.399 325.969 326.516 325.881 326.604C325.793 326.692 325.675 326.736 325.529 326.736H324.385C323.637 326.736 323.116 326.934 322.823 327.33C322.544 327.712 322.405 328.32 322.405 329.156V330.3H325.309C325.455 330.3 325.573 330.344 325.661 330.432C325.749 330.52 325.793 330.638 325.793 330.784V331.092C325.793 331.239 325.749 331.356 325.661 331.444C325.573 331.532 325.455 331.576 325.309 331.576H322.405V341.256C322.405 341.403 322.361 341.52 322.273 341.608C322.185 341.696 322.067 341.74 321.921 341.74H321.547ZM332.202 341.96C330.765 341.96 329.672 341.506 328.924 340.596C328.176 339.687 327.802 338.499 327.802 337.032V330.784C327.802 330.638 327.846 330.52 327.934 330.432C328.022 330.344 328.14 330.3 328.286 330.3H328.66C328.807 330.3 328.924 330.344 329.012 330.432C329.1 330.52 329.144 330.638 329.144 330.784V336.922C329.144 339.43 330.237 340.684 332.422 340.684C333.478 340.684 334.314 340.354 334.93 339.694C335.561 339.02 335.876 338.096 335.876 336.922V330.784C335.876 330.638 335.92 330.52 336.008 330.432C336.096 330.344 336.214 330.3 336.36 330.3H336.734C336.881 330.3 336.998 330.344 337.086 330.432C337.174 330.52 337.218 330.638 337.218 330.784V341.256C337.218 341.403 337.174 341.52 337.086 341.608C336.998 341.696 336.881 341.74 336.734 341.74H336.36C336.214 341.74 336.096 341.696 336.008 341.608C335.92 341.52 335.876 341.403 335.876 341.256V340.222C335.436 340.794 334.93 341.227 334.358 341.52C333.801 341.814 333.082 341.96 332.202 341.96ZM341.288 341.74C341.141 341.74 341.024 341.696 340.936 341.608C340.848 341.52 340.804 341.403 340.804 341.256V326.604C340.804 326.458 340.848 326.34 340.936 326.252C341.024 326.164 341.141 326.12 341.288 326.12H341.662C341.808 326.12 341.926 326.164 342.014 326.252C342.102 326.34 342.146 326.458 342.146 326.604V341.256C342.146 341.403 342.102 341.52 342.014 341.608C341.926 341.696 341.808 341.74 341.662 341.74H341.288ZM346.229 341.74C346.082 341.74 345.965 341.696 345.877 341.608C345.789 341.52 345.745 341.403 345.745 341.256V326.604C345.745 326.458 345.789 326.34 345.877 326.252C345.965 326.164 346.082 326.12 346.229 326.12H346.603C346.75 326.12 346.867 326.164 346.955 326.252C347.043 326.34 347.087 326.458 347.087 326.604V341.256C347.087 341.403 347.043 341.52 346.955 341.608C346.867 341.696 346.75 341.74 346.603 341.74H346.229ZM352.6 345.92C352.483 345.92 352.38 345.876 352.292 345.788C352.204 345.7 352.16 345.598 352.16 345.48C352.16 345.407 352.204 345.26 352.292 345.04L353.986 341.08L349.784 331.18C349.696 330.96 349.652 330.814 349.652 330.74C349.652 330.623 349.696 330.52 349.784 330.432C349.872 330.344 349.975 330.3 350.092 330.3H350.554C350.789 330.3 350.958 330.41 351.06 330.63L354.756 339.342L358.54 330.63C358.658 330.41 358.826 330.3 359.046 330.3H359.486C359.604 330.3 359.706 330.344 359.794 330.432C359.882 330.52 359.926 330.623 359.926 330.74C359.926 330.814 359.882 330.96 359.794 331.18L353.546 345.59C353.444 345.81 353.275 345.92 353.04 345.92H352.6ZM371.778 341.96C370.252 341.96 369.072 341.52 368.236 340.64C367.4 339.746 366.96 338.499 366.916 336.9L366.894 336.02L366.916 335.14C366.96 333.542 367.4 332.302 368.236 331.422C369.072 330.528 370.252 330.08 371.778 330.08C372.746 330.08 373.567 330.256 374.242 330.608C374.931 330.946 375.444 331.386 375.782 331.928C376.119 332.456 376.302 333.006 376.332 333.578C376.346 333.71 376.302 333.828 376.2 333.93C376.097 334.018 375.98 334.062 375.848 334.062H375.54C375.393 334.062 375.283 334.033 375.21 333.974C375.151 333.901 375.085 333.776 375.012 333.6C374.718 332.794 374.308 332.222 373.78 331.884C373.252 331.532 372.584 331.356 371.778 331.356C370.722 331.356 369.878 331.679 369.248 332.324C368.632 332.955 368.302 333.93 368.258 335.25L368.236 336.02L368.258 336.79C368.302 338.11 368.632 339.093 369.248 339.738C369.878 340.369 370.722 340.684 371.778 340.684C372.584 340.684 373.252 340.516 373.78 340.178C374.308 339.826 374.718 339.247 375.012 338.44C375.085 338.264 375.151 338.147 375.21 338.088C375.283 338.015 375.393 337.978 375.54 337.978H375.848C375.98 337.978 376.097 338.03 376.2 338.132C376.302 338.22 376.346 338.33 376.332 338.462C376.302 339.034 376.119 339.592 375.782 340.134C375.444 340.662 374.931 341.102 374.242 341.454C373.567 341.792 372.746 341.96 371.778 341.96ZM383.595 341.96C382.069 341.96 380.881 341.498 380.031 340.574C379.195 339.636 378.755 338.426 378.711 336.944L378.689 336.02L378.711 335.096C378.755 333.615 379.195 332.412 380.031 331.488C380.881 330.55 382.069 330.08 383.595 330.08C385.12 330.08 386.301 330.55 387.137 331.488C387.987 332.412 388.435 333.615 388.479 335.096C388.493 335.243 388.501 335.551 388.501 336.02C388.501 336.49 388.493 336.798 388.479 336.944C388.435 338.426 387.987 339.636 387.137 340.574C386.301 341.498 385.12 341.96 383.595 341.96ZM383.595 340.684C384.636 340.684 385.472 340.354 386.103 339.694C386.748 339.02 387.093 338.066 387.137 336.834C387.151 336.688 387.159 336.416 387.159 336.02C387.159 335.624 387.151 335.353 387.137 335.206C387.093 333.974 386.748 333.028 386.103 332.368C385.472 331.694 384.636 331.356 383.595 331.356C382.553 331.356 381.71 331.694 381.065 332.368C380.434 333.028 380.097 333.974 380.053 335.206L380.031 336.02L380.053 336.834C380.097 338.066 380.434 339.02 381.065 339.694C381.71 340.354 382.553 340.684 383.595 340.684ZM391.99 341.74C391.843 341.74 391.726 341.696 391.638 341.608C391.55 341.52 391.506 341.403 391.506 341.256V330.784C391.506 330.638 391.55 330.52 391.638 330.432C391.726 330.344 391.843 330.3 391.99 330.3H392.364C392.511 330.3 392.628 330.344 392.716 330.432C392.804 330.52 392.848 330.638 392.848 330.784V331.818C393.288 331.246 393.787 330.814 394.344 330.52C394.916 330.227 395.649 330.08 396.544 330.08C397.981 330.08 399.089 330.542 399.866 331.466C400.643 332.376 401.032 333.556 401.032 335.008V341.256C401.032 341.403 400.988 341.52 400.9 341.608C400.812 341.696 400.695 341.74 400.548 341.74H400.174C400.027 341.74 399.91 341.696 399.822 341.608C399.734 341.52 399.69 341.403 399.69 341.256V335.118C399.69 333.93 399.397 333.006 398.81 332.346C398.238 331.686 397.409 331.356 396.324 331.356C395.268 331.356 394.425 331.694 393.794 332.368C393.163 333.028 392.848 333.945 392.848 335.118V341.256C392.848 341.403 392.804 341.52 392.716 341.608C392.628 341.696 392.511 341.74 392.364 341.74H391.99ZM405.851 341.74C405.705 341.74 405.587 341.696 405.499 341.608C405.411 341.52 405.367 341.403 405.367 341.256V331.576H403.409C403.263 331.576 403.145 331.532 403.057 331.444C402.969 331.356 402.925 331.239 402.925 331.092V330.784C402.925 330.638 402.969 330.52 403.057 330.432C403.145 330.344 403.263 330.3 403.409 330.3H405.367V329.046C405.367 327.932 405.609 327.059 406.093 326.428C406.577 325.783 407.443 325.46 408.689 325.46H409.833C409.98 325.46 410.097 325.504 410.185 325.592C410.273 325.68 410.317 325.798 410.317 325.944V326.252C410.317 326.399 410.273 326.516 410.185 326.604C410.097 326.692 409.98 326.736 409.833 326.736H408.689C407.941 326.736 407.421 326.934 407.127 327.33C406.849 327.712 406.709 328.32 406.709 329.156V330.3H409.613C409.76 330.3 409.877 330.344 409.965 330.432C410.053 330.52 410.097 330.638 410.097 330.784V331.092C410.097 331.239 410.053 331.356 409.965 331.444C409.877 331.532 409.76 331.576 409.613 331.576H406.709V341.256C406.709 341.403 406.665 341.52 406.577 341.608C406.489 341.696 406.372 341.74 406.225 341.74H405.851ZM412.459 327.946C412.312 327.946 412.195 327.902 412.107 327.814C412.019 327.726 411.975 327.609 411.975 327.462V326.626C411.975 326.48 412.019 326.362 412.107 326.274C412.195 326.172 412.312 326.12 412.459 326.12H413.295C413.442 326.12 413.559 326.172 413.647 326.274C413.75 326.362 413.801 326.48 413.801 326.626V327.462C413.801 327.609 413.75 327.726 413.647 327.814C413.559 327.902 413.442 327.946 413.295 327.946H412.459ZM412.701 341.74C412.554 341.74 412.437 341.696 412.349 341.608C412.261 341.52 412.217 341.403 412.217 341.256V330.784C412.217 330.638 412.261 330.52 412.349 330.432C412.437 330.344 412.554 330.3 412.701 330.3H413.075C413.222 330.3 413.339 330.344 413.427 330.432C413.515 330.52 413.559 330.638 413.559 330.784V341.256C413.559 341.403 413.515 341.52 413.427 341.608C413.339 341.696 413.222 341.74 413.075 341.74H412.701ZM417.599 341.74C417.453 341.74 417.335 341.696 417.247 341.608C417.159 341.52 417.115 341.403 417.115 341.256V330.806C417.115 330.66 417.159 330.542 417.247 330.454C417.335 330.352 417.453 330.3 417.599 330.3H417.951C418.098 330.3 418.215 330.352 418.303 330.454C418.406 330.542 418.457 330.66 418.457 330.806V331.818C418.985 330.806 419.983 330.3 421.449 330.3H422.263C422.41 330.3 422.527 330.344 422.615 330.432C422.703 330.52 422.747 330.638 422.747 330.784V331.092C422.747 331.239 422.703 331.356 422.615 331.444C422.527 331.532 422.41 331.576 422.263 331.576H421.317C420.437 331.576 419.741 331.833 419.227 332.346C418.714 332.86 418.457 333.556 418.457 334.436V341.256C418.457 341.403 418.406 341.52 418.303 341.608C418.215 341.696 418.098 341.74 417.951 341.74H417.599ZM425.248 341.74C425.101 341.74 424.984 341.696 424.896 341.608C424.808 341.52 424.764 341.403 424.764 341.256V330.784C424.764 330.638 424.808 330.52 424.896 330.432C424.984 330.344 425.101 330.3 425.248 330.3H425.622C425.769 330.3 425.886 330.344 425.974 330.432C426.062 330.52 426.106 330.638 426.106 330.784V331.554C426.487 331.07 426.927 330.704 427.426 330.454C427.939 330.205 428.548 330.08 429.252 330.08C430.895 330.08 432.068 330.77 432.772 332.148C433.124 331.518 433.623 331.019 434.268 330.652C434.928 330.271 435.676 330.08 436.512 330.08C437.729 330.08 438.719 330.498 439.482 331.334C440.245 332.156 440.626 333.329 440.626 334.854V341.256C440.626 341.403 440.582 341.52 440.494 341.608C440.406 341.696 440.289 341.74 440.142 341.74H439.768C439.621 341.74 439.504 341.696 439.416 341.608C439.328 341.52 439.284 341.403 439.284 341.256V335.074C439.284 333.74 439.005 332.786 438.448 332.214C437.905 331.642 437.187 331.356 436.292 331.356C435.5 331.356 434.811 331.65 434.224 332.236C433.652 332.808 433.366 333.754 433.366 335.074V341.256C433.366 341.403 433.322 341.52 433.234 341.608C433.146 341.696 433.029 341.74 432.882 341.74H432.508C432.361 341.74 432.244 341.696 432.156 341.608C432.068 341.52 432.024 341.403 432.024 341.256V335.074C432.024 333.754 431.738 332.808 431.166 332.236C430.594 331.65 429.883 331.356 429.032 331.356C428.24 331.356 427.551 331.65 426.964 332.236C426.392 332.808 426.106 333.747 426.106 335.052V341.256C426.106 341.403 426.062 341.52 425.974 341.608C425.886 341.696 425.769 341.74 425.622 341.74H425.248ZM448.324 341.96C446.931 341.96 445.809 341.506 444.958 340.596C444.108 339.672 443.624 338.44 443.506 336.9L443.484 336.02L443.506 335.14C443.624 333.615 444.1 332.39 444.936 331.466C445.787 330.542 446.916 330.08 448.324 330.08C449.85 330.08 451.038 330.586 451.888 331.598C452.754 332.61 453.186 333.996 453.186 335.756V336.086C453.186 336.233 453.135 336.35 453.032 336.438C452.944 336.526 452.827 336.57 452.68 336.57H444.848V336.79C444.878 337.48 445.032 338.125 445.31 338.726C445.604 339.313 446.007 339.79 446.52 340.156C447.034 340.508 447.635 340.684 448.324 340.684C449.131 340.684 449.784 340.53 450.282 340.222C450.796 339.9 451.162 339.577 451.382 339.254C451.514 339.078 451.61 338.968 451.668 338.924C451.742 338.88 451.866 338.858 452.042 338.858H452.394C452.526 338.858 452.636 338.895 452.724 338.968C452.812 339.042 452.856 339.137 452.856 339.254C452.856 339.562 452.658 339.936 452.262 340.376C451.881 340.802 451.346 341.176 450.656 341.498C449.967 341.806 449.19 341.96 448.324 341.96ZM451.844 335.338V335.25C451.844 334.121 451.522 333.19 450.876 332.456C450.246 331.723 449.395 331.356 448.324 331.356C447.254 331.356 446.403 331.723 445.772 332.456C445.156 333.19 444.848 334.121 444.848 335.25V335.338H451.844ZM460.224 341.96C458.64 341.96 457.467 341.447 456.704 340.42C455.956 339.379 455.56 338.118 455.516 336.636L455.494 336.02L455.516 335.404C455.56 333.923 455.956 332.669 456.704 331.642C457.467 330.601 458.64 330.08 460.224 330.08C461.823 330.08 463.055 330.66 463.92 331.818V326.604C463.92 326.458 463.964 326.34 464.052 326.252C464.14 326.164 464.257 326.12 464.404 326.12H464.778C464.925 326.12 465.042 326.164 465.13 326.252C465.218 326.34 465.262 326.458 465.262 326.604V341.256C465.262 341.403 465.218 341.52 465.13 341.608C465.042 341.696 464.925 341.74 464.778 341.74H464.404C464.257 341.74 464.14 341.696 464.052 341.608C463.964 341.52 463.92 341.403 463.92 341.256V340.222C463.069 341.381 461.837 341.96 460.224 341.96ZM460.356 340.684C461.515 340.684 462.387 340.303 462.974 339.54C463.561 338.763 463.876 337.854 463.92 336.812C463.935 336.666 463.942 336.38 463.942 335.954C463.942 335.529 463.935 335.243 463.92 335.096C463.905 334.466 463.766 333.872 463.502 333.314C463.238 332.742 462.842 332.273 462.314 331.906C461.786 331.54 461.133 331.356 460.356 331.356C459.168 331.356 458.295 331.738 457.738 332.5C457.195 333.248 456.902 334.216 456.858 335.404L456.836 336.02C456.836 337.384 457.1 338.506 457.628 339.386C458.156 340.252 459.065 340.684 460.356 340.684ZM469.158 341.74C469.011 341.74 468.894 341.696 468.806 341.608C468.718 341.52 468.674 341.403 468.674 341.256V340.2C468.674 340.054 468.718 339.936 468.806 339.848C468.894 339.746 469.011 339.694 469.158 339.694H470.214C470.361 339.694 470.478 339.746 470.566 339.848C470.669 339.936 470.72 340.054 470.72 340.2V341.256C470.72 341.403 470.669 341.52 470.566 341.608C470.478 341.696 470.361 341.74 470.214 341.74H469.158Z" fill="#363636"/>
<path opacity="0.1" d="M217.882 23.377H196.737C195.871 23.377 195.168 24.079 195.168 24.9449V30.9074C195.168 31.7734 195.871 32.4754 196.737 32.4754H217.882C218.748 32.4754 219.451 31.7734 219.451 30.9074V24.9449C219.451 24.079 218.748 23.377 217.882 23.377Z" fill="#2D86DA"/>
<path opacity="0.1" d="M290.124 15.1885H268.979C268.113 15.1885 267.41 15.8905 267.41 16.7564V22.719C267.41 23.5849 268.113 24.2869 268.979 24.2869H290.124C290.991 24.2869 291.693 23.5849 291.693 22.719V16.7564C291.693 15.8905 290.991 15.1885 290.124 15.1885Z" fill="#2D86DA"/>
<path opacity="0.1" d="M276.767 107.688H255.623C254.756 107.688 254.054 108.39 254.054 109.256V115.219C254.054 116.085 254.756 116.787 255.623 116.787H276.767C277.634 116.787 278.337 116.085 278.337 115.219V109.256C278.337 108.39 277.634 107.688 276.767 107.688Z" fill="#2D86DA"/>
<path opacity="0.1" d="M287.695 117.697H266.551C265.684 117.697 264.981 118.399 264.981 119.265V125.228C264.981 126.094 265.684 126.796 266.551 126.796H287.695C288.562 126.796 289.264 126.094 289.264 125.228V119.265C289.264 118.399 288.562 117.697 287.695 117.697Z" fill="#2D86DA"/>
<path opacity="0.1" d="M352.652 113.148H331.508C330.641 113.148 329.938 113.85 329.938 114.716V120.679C329.938 121.545 330.641 122.247 331.508 122.247H352.652C353.519 122.247 354.222 121.545 354.222 120.679V114.716C354.222 113.85 353.519 113.148 352.652 113.148Z" fill="#2D86DA"/>
<path opacity="0.1" d="M155.049 120.427H133.904C133.038 120.427 132.335 121.129 132.335 121.995V127.957C132.335 128.823 133.038 129.525 133.904 129.525H155.049C155.915 129.525 156.618 128.823 156.618 127.957V121.995C156.618 121.129 155.915 120.427 155.049 120.427Z" fill="#2D86DA"/>
<path opacity="0.1" d="M269.18 127.706H248.035C247.168 127.706 246.466 128.408 246.466 129.274V135.237C246.466 136.102 247.168 136.805 248.035 136.805H269.18C270.046 136.805 270.749 136.102 270.749 135.237V129.274C270.749 128.408 270.046 127.706 269.18 127.706Z" fill="#2D86DA"/>
<path d="M313.216 55.2849L302.089 23.0097L298.088 23.6163L294.506 24.0742C294.597 22.8611 294.755 18.506 292.533 16.2223C292.318 15.4398 291.75 14.5512 290.657 13.5504C285.333 8.67358 284.225 18.6485 284.225 18.6485C284.225 18.6485 283.011 20.7533 281.339 23.6951L280.462 23.5283L280.213 25.6998C276.509 32.2416 271.589 41.0944 271.589 41.9254C271.589 43.2568 270.924 45.0279 270.924 45.0279C270.924 45.0279 267.154 51.2331 265.822 54.3387C265.046 56.1708 263.911 57.8291 262.483 59.2154C262.483 59.2154 262.161 59.4611 261.633 59.822C261.667 59.235 261.769 58.6538 261.937 58.0903C262.422 56.5041 263.551 55.1454 263.852 53.5137C263.922 53.1226 263.949 52.7249 263.931 52.3279C264.001 50.4142 263.069 48.5308 262.68 46.6171C262.228 44.4001 262.471 41.9587 261.287 40.0329C260.376 38.562 258.762 37.6461 257.083 37.2245C255.541 36.8393 254.023 36.9758 252.469 36.812C251.043 36.6604 249.68 36.0296 248.253 35.796C247.491 35.6305 246.702 35.6305 245.94 35.796C243.527 36.4602 242.771 39.4991 240.907 41.1702C240.237 41.7768 239.414 42.1953 238.807 42.8595C237.924 43.8269 237.617 45.1765 237.663 46.4989C237.651 46.9421 237.677 47.3855 237.742 47.8242C237.972 49.4104 238.585 50.9116 238.956 52.4674C239.236 53.6189 239.387 54.7977 239.408 55.9825C239.408 56.2494 239.408 56.5162 239.384 56.7801C239.395 57.3143 239.253 57.8405 238.974 58.2965C238.637 58.7605 238.082 58.985 237.587 59.2822C235.969 57.9997 234.756 56.2794 234.09 54.3265C234.09 54.3265 234.008 54.4297 233.868 54.6298V54.3265C233.868 54.3265 230.833 49.8744 230.372 46.238L231.428 46.3472L233.856 12.2129L227.655 11.303C227.482 9.54097 227.012 6.98431 225.764 5.11913C226.805 3.06895 227.33 0.29392 222.765 0.017934C217.423 -0.306577 217.751 3.85141 218.318 6.12602C218.061 7.36722 217.959 8.63555 218.015 9.90188L212.551 9.10728L212.521 9.55007H211.221L207.245 44.3728L210.633 44.203L223.047 45.495C224.04 54.5115 225.6 65.6541 227.452 68.2805C227.513 68.3692 227.581 68.4533 227.655 68.5322V84.4879C227.655 84.4879 227.433 105.111 223.66 108.426C225.975 107.603 228.423 107.219 230.879 107.295C230.836 107.431 230.794 107.577 230.751 107.731C230.199 109.767 229.814 111.844 229.601 113.943C229.548 114.406 229.501 114.889 229.458 115.392C229.111 120.012 229.175 124.653 229.649 129.261C231.203 145.663 233.644 157.412 233.644 157.412L234.324 166.947C234.324 166.947 233.659 183.127 235.432 188.447C236.1 189.062 236.868 189.559 237.702 189.918C237.717 190.069 237.736 190.221 237.751 190.382C237.766 190.542 237.79 190.791 237.811 191.003C237.016 191.364 235.532 192.796 235.21 198.419C235.21 198.419 235.653 202.631 234.545 204.624C233.437 206.616 234.102 212.382 237.429 213.046C239.555 213.437 241.735 213.437 243.861 213.046C243.861 213.046 245.415 213.046 244.304 207.505L244.11 206.086C244.086 203.341 244.201 200.402 244.747 199.526C245.855 197.751 244.304 195.98 244.304 195.98C244.304 195.98 244.195 196.041 244.016 196.123C243.73 194.591 243.357 192.104 243.491 190.206C243.491 190.045 243.518 189.902 243.536 189.736C244.213 189.382 244.844 188.947 245.415 188.441V167.39C245.415 167.39 245.193 135.03 247.634 134.363C247.634 134.363 248.742 146.109 248.299 151.874C247.855 157.639 248.963 163.844 248.963 163.844L249.407 187.34C249.407 187.34 249.832 187.543 250.518 187.783L250.472 188.21C250.202 190.821 249.768 194.764 249.373 197.178C249.107 197.284 248.87 197.452 248.682 197.668C248.495 197.885 248.362 198.143 248.296 198.422C247.631 200.639 248.074 206.18 246.741 207.732C245.955 208.642 245.014 210.495 245.476 211.805C245.187 212.955 245.315 214.75 248.739 215.048C253.841 215.49 256.06 212.831 256.06 212.831C256.06 212.831 256.725 211.724 256.06 209.728C255.395 207.732 256.282 204.187 256.282 204.187C256.282 204.187 256.758 201.178 255.978 200.784C255.911 200.426 255.851 200.199 255.851 200.199C255.861 199.517 255.61 198.858 255.15 198.355C255.131 196.035 255.225 191.743 256.042 188.917C256.09 188.756 256.139 188.614 256.191 188.447C256.848 188.333 257.482 188.111 258.066 187.789C258.066 187.789 257.845 182.69 259.399 179.145C260.953 175.6 260.064 161.412 260.064 161.412C260.064 161.412 259.399 157.685 260.337 154.664C261.411 151.317 262.217 147.889 262.747 144.413L264.055 135.257C264.055 135.257 267.5 124.112 262.963 112.672C262.777 112.199 262.574 111.726 262.355 111.252C261.979 110.431 261.56 109.606 261.093 108.787C261.02 108.659 260.941 108.529 260.865 108.402C261.342 108.283 261.612 108.214 261.612 108.214C261.612 108.214 255.623 94.2626 259.393 87.1568C259.393 87.1568 261.518 85.0338 261.821 82.7016C262.198 79.6172 262.607 76.5358 263.281 73.503L263.4 72.9693C263.4 72.9693 263.418 72.8661 263.448 72.6811C263.533 72.6265 263.615 72.5689 263.697 72.5083C270.09 67.8438 275.602 48.3671 275.602 48.3671L277.378 45.031L278.221 43.2477L276.491 58.3299L290.023 61.666L298.674 61.0018L298.65 59.1427L305.242 58.6301L313.216 55.2849ZM227.436 11.3091L225.032 10.9573C224.611 8.78883 224.325 7.36644 224.325 7.36644C224.829 6.74408 225.275 6.07714 225.658 5.37388C226.82 7.15111 227.266 9.57736 227.436 11.297V11.3091ZM218.458 6.65373C218.625 7.2239 218.777 7.59087 218.777 7.59087L219.08 10.0929L218.261 9.97466C218.214 8.85973 218.281 7.74294 218.461 6.6416L218.458 6.65373ZM294.282 24.1258L291.028 24.5443C291.486 23.1977 292.054 20.9898 291.723 18.9912C292.041 18.6999 292.287 18.3387 292.442 17.9361C292.597 17.5335 292.656 17.1005 292.615 16.6711C294.549 18.9791 294.367 23.0552 294.282 24.1167V24.1258ZM288.879 20.6653C289.848 20.3414 290.748 19.836 291.529 19.1762C291.808 21.1385 291.225 23.2948 290.782 24.5746L287.746 24.9628L286.909 24.8021L288.879 20.6653Z" fill="url(#paint0_linear)"/>
<path d="M312.637 55.858L304.718 59.1607L295.518 27.1069L297.676 24.5472L301.631 23.9346L312.637 55.858Z" fill="#2D86DA"/>
<path opacity="0.2" d="M312.637 55.858L304.718 59.1607L295.518 27.1069L297.676 24.5472L301.631 23.9346L312.637 55.858Z" fill="white"/>
<path d="M297.676 24.5469L283.932 26.3089L290.977 60.2279L304.718 59.1604L297.676 24.5469Z" fill="#2D86DA"/>
<path opacity="0.07" d="M297.676 24.5469L283.932 26.3089L290.977 60.2279L304.718 59.1604L297.676 24.5469Z" fill="white"/>
<path d="M294.103 25.3118L293.885 25.2845C293.885 25.2026 294.795 17.196 289.766 16.186L289.808 15.9707C295.053 17.0231 294.121 25.2299 294.103 25.3118Z" fill="#535461"/>
<path d="M258.401 48.6826H243.261V70.8252H258.401V48.6826Z" fill="#774E55"/>
<path opacity="0.2" d="M258.401 48.6826H243.261V70.8252H258.401V48.6826Z" fill="black"/>
<path d="M298.222 61.5053L289.665 62.1634L290.982 28.8418L293.833 27.0889L297.782 27.747L298.222 61.5053Z" fill="#2D86DA"/>
<path opacity="0.2" d="M298.222 61.5053L289.665 62.1634L290.982 28.8418L293.833 27.0889L297.782 27.747L298.222 61.5053Z" fill="black"/>
<path d="M293.833 27.0885L280.231 24.4561L276.282 58.8755L289.665 62.163L293.833 27.0885Z" fill="#2D86DA"/>
<path d="M213.75 10.6484H211.774L207.825 45.0648L216.6 44.6281L213.75 10.6484Z" fill="#2D86DA"/>
<path opacity="0.2" d="M213.75 10.6484H211.774L207.825 45.0648L216.6 44.6281L213.75 10.6484Z" fill="black"/>
<path d="M213.091 10.208L210.678 44.8458L231.74 47.0385L234.153 13.2772L213.091 10.208Z" fill="#2D86DA"/>
<path d="M238.543 189.972C238.543 189.972 235.911 189.754 235.471 197.427C235.471 197.427 235.911 201.591 234.812 203.565C233.714 205.54 234.372 211.238 237.666 211.897C239.773 212.285 241.933 212.285 244.04 211.897C244.04 211.897 245.576 211.897 244.48 206.416L242.286 190.412L238.543 189.972Z" fill="#5C3D53"/>
<path opacity="0.05" d="M238.543 189.972C238.543 189.972 235.911 189.754 235.471 197.427C235.471 197.427 235.911 201.591 234.812 203.565C233.714 205.54 234.372 211.238 237.666 211.897C239.773 212.285 241.933 212.285 244.04 211.897C244.04 211.897 245.576 211.897 244.48 206.416L242.286 190.412L238.543 189.972Z" fill="black"/>
<path d="M252.339 63.3798C252.151 66.6431 252.803 68.5355 252.803 68.5355L247.1 70.0702C247.1 70.0702 237.666 71.3864 241.396 67.6439C242.686 66.355 243.321 64.144 243.597 61.8088C243.77 60.2137 243.824 58.6079 243.758 57.0048C243.707 55.5028 243.578 54.0046 243.369 52.5162C243.369 52.5162 257.192 47.6941 254.121 55.5854C253.561 57.0128 253.119 58.4836 252.8 59.983C252.563 61.1023 252.409 62.2377 252.339 63.3798Z" fill="#F8BDC5"/>
<path opacity="0.1" d="M254.121 55.5884C253.562 57.0157 253.12 58.4865 252.801 59.9859C251.165 60.3333 249.466 60.2407 247.877 59.7175C246.289 59.1942 244.867 58.2592 243.759 57.0077C243.708 55.5058 243.578 54.0075 243.37 52.5192C243.37 52.5192 257.193 47.697 254.121 55.5884Z" fill="black"/>
<path d="M250.83 59.7524C256.041 59.7524 260.264 55.5322 260.264 50.3264C260.264 45.1206 256.041 40.9004 250.83 40.9004C245.62 40.9004 241.396 45.1206 241.396 50.3264C241.396 55.5322 245.62 59.7524 250.83 59.7524Z" fill="#F8BDC5"/>
<path d="M234.155 54.9305V57.7814L229.328 70.2766L228.011 68.9603C227.938 68.8824 227.871 68.7992 227.811 68.7116C224.623 64.1867 222.304 34.1042 222.304 34.1042L219.236 8.66797C219.236 8.66797 215.945 0.782649 223.182 1.21331C230.418 1.64397 224.718 8.44657 224.718 8.44657C224.718 8.44657 229.544 32.5605 228.885 33.437C228.226 34.3134 228.885 36.9459 228.885 36.9459C228.885 36.9459 230.861 41.9895 230.64 45.7138C230.418 49.4381 234.155 54.9305 234.155 54.9305Z" fill="#F8BDC5"/>
<path d="M288.566 21.6085L277.156 45.7224L275.402 49.0039C275.402 49.0039 269.938 68.2684 263.628 72.8813C263.265 73.1519 262.872 73.3789 262.456 73.5576L261.139 63.0337L262.353 59.9766L262.444 59.7431C263.852 58.3712 264.97 56.7316 265.734 54.9209C267.052 51.8517 270.782 45.7133 270.782 45.7133C270.782 45.7133 271.441 43.9603 271.441 42.6441C271.441 41.3279 283.947 19.625 283.947 19.625C283.947 19.625 285.042 9.7593 290.321 14.5815C295.599 19.4036 288.566 21.6085 288.566 21.6085Z" fill="#F8BDC5"/>
<path d="M244.464 196.547C244.464 196.547 237.004 199.617 237.881 196.766C238.415 195.037 238.218 191.771 237.981 189.487C237.829 187.998 237.659 186.912 237.659 186.912L244.033 187.57C243.811 188.126 243.686 188.716 243.666 189.314C243.457 192.223 244.464 196.547 244.464 196.547Z" fill="#F8BDC5"/>
<path d="M256.067 188.019C254.916 192.01 255.217 198.961 255.217 198.961C255.217 198.961 248.415 199.838 249.073 198.085C249.532 196.871 250.202 190.86 250.567 187.327C250.728 185.783 250.828 184.713 250.828 184.713L256.971 186.029C256.553 186.633 256.247 187.307 256.067 188.019Z" fill="#F8BDC5"/>
<path opacity="0.1" d="M237.663 186.903L244.037 187.561C243.815 188.117 243.69 188.707 243.67 189.305C242.799 189.761 241.835 190.013 240.852 190.043C239.869 190.073 238.892 189.88 237.994 189.478C237.833 187.986 237.663 186.903 237.663 186.903Z" fill="black"/>
<path opacity="0.1" d="M256.974 186.026C256.553 186.63 256.245 187.305 256.063 188.019C253.99 188.352 251.814 187.767 250.566 187.327C250.727 185.783 250.827 184.713 250.827 184.713L256.974 186.026Z" fill="black"/>
<path d="M263.995 134.945L262.702 144.001C262.177 147.439 261.379 150.829 260.316 154.14C259.387 157.127 260.046 160.812 260.046 160.812C260.046 160.812 260.923 174.842 259.387 178.351C257.851 181.86 258.07 186.9 258.07 186.9C254.558 188.875 249.513 186.461 249.513 186.461L249.073 163.223C249.073 163.223 247.977 157.085 248.414 151.395C248.851 145.706 247.756 134.078 247.756 134.078C245.327 134.736 245.561 166.741 245.561 166.741V187.568C240.295 192.171 235.687 187.568 235.687 187.568C233.932 182.306 234.591 166.302 234.591 166.302L233.932 156.876C233.932 156.876 231.504 145.257 229.986 129.034C229.517 124.476 229.454 119.886 229.798 115.317C229.841 114.819 229.887 114.341 229.938 113.882C230.148 111.808 230.528 109.754 231.073 107.741C231.247 107.077 231.47 106.427 231.741 105.797L255.317 106.892L256.707 106.955L260.046 107.11C260.41 107.659 260.753 108.217 261.072 108.775C261.533 109.585 261.949 110.401 262.319 111.201C262.532 111.668 262.732 112.138 262.926 112.606C267.41 123.915 263.995 134.945 263.995 134.945Z" fill="#5E52AD"/>
<path opacity="0.1" d="M238.103 107.984C238.103 107.984 237.071 118.295 229.795 115.311C229.837 114.813 229.884 114.335 229.935 113.876C231.647 114.34 236.385 114.98 236.564 107.98L238.103 107.984Z" fill="black"/>
<path opacity="0.1" d="M262.915 112.609C257.876 114.407 255.976 109.618 255.326 106.886L256.716 106.949C257.472 111.247 260.489 111.499 262.326 111.195C262.532 111.675 262.729 112.145 262.915 112.609Z" fill="black"/>
<path d="M240.498 195.383C239.378 195.207 237.666 194.592 238.203 192.441C238.203 192.441 236.13 191.726 236.348 200.275C236.348 200.275 236.13 204.439 235.69 205.319C235.25 206.198 235.69 211.457 240.297 211.017C240.297 211.017 243.588 212.112 244.465 210.359C244.465 210.359 243.806 200.275 244.905 198.531C246.004 196.788 244.465 195.022 244.465 195.022C244.465 195.022 242.911 195.884 241.794 195.629C241.369 195.511 240.932 195.453 240.498 195.383Z" fill="#5C3D53"/>
<path d="M246.001 209.701C246.001 209.701 243.807 213.428 248.854 213.865C253.902 214.302 256.094 211.672 256.094 211.672C256.094 211.672 256.752 210.577 256.094 208.603C255.435 206.629 256.312 203.123 256.312 203.123C256.312 203.123 256.971 198.959 255.435 199.835C253.899 200.712 246.001 209.701 246.001 209.701Z" fill="#5C3D53"/>
<path opacity="0.05" d="M246.001 209.701C246.001 209.701 243.807 213.428 248.854 213.865C253.902 214.302 256.094 211.672 256.094 211.672C256.094 211.672 256.752 210.577 256.094 208.603C255.435 206.629 256.312 203.123 256.312 203.123C256.312 203.123 256.971 198.959 255.435 199.835C253.899 200.712 246.001 209.701 246.001 209.701Z" fill="black"/>
<path d="M251.708 196.329C251.708 196.329 249.076 195.235 248.417 197.424C247.758 199.614 248.199 205.097 246.881 206.632C245.564 208.166 243.809 212.331 249.076 212.112C254.342 211.894 255.45 210.138 255.45 210.138C255.45 210.138 255.232 204.657 255.89 203.123C256.549 201.588 255.89 199.18 255.89 199.18C255.89 199.18 256.094 196.096 251.708 196.329Z" fill="#5C3D53"/>
<path opacity="0.2" d="M218.795 13.7174C219.038 13.7174 219.235 13.5205 219.235 13.2776C219.235 13.0348 219.038 12.8379 218.795 12.8379C218.552 12.8379 218.354 13.0348 218.354 13.2776C218.354 13.5205 218.552 13.7174 218.795 13.7174Z" fill="black"/>
<path opacity="0.2" d="M228.01 14.8121C228.254 14.8121 228.451 14.6152 228.451 14.3724C228.451 14.1295 228.254 13.9326 228.01 13.9326C227.767 13.9326 227.57 14.1295 227.57 14.3724C227.57 14.6152 227.767 14.8121 228.01 14.8121Z" fill="black"/>
<path d="M228.12 14.3749H227.901C227.901 14.2809 228.056 5.03382 222.741 4.1816C221.694 4.0148 220.838 4.25136 220.198 4.88522C218.003 7.05974 218.911 13.2012 218.92 13.2619L218.704 13.2952C218.665 13.0374 217.772 6.98089 220.046 4.73054C220.738 4.04209 221.661 3.7843 222.778 3.96324C228.278 4.84276 228.123 14.2809 228.12 14.3749Z" fill="#535461"/>
<path d="M290.203 26.6974L290.005 26.6033C290.039 26.5306 293.42 19.2124 288.952 16.6618L289.061 16.4707C293.703 19.1214 290.239 26.6215 290.203 26.6974Z" fill="#535461"/>
<path opacity="0.1" d="M252.803 68.5227L247.1 70.0573C247.1 70.0573 237.666 71.3735 241.396 67.631C242.686 66.3421 243.321 64.1312 243.597 61.7959C245.087 64.1312 246.881 63.467 246.881 63.467L252.321 63.3608H252.342C252.151 66.6423 252.803 68.5227 252.803 68.5227Z" fill="black"/>
<path opacity="0.1" d="M263.631 72.8872C263.268 73.1578 262.875 73.3848 262.459 73.5635L261.142 63.0396L262.356 59.9826L262.659 59.749C265.4 60.5285 263.986 70.6095 263.631 72.8872Z" fill="black"/>
<path opacity="0.1" d="M234.154 54.9297V57.7805L229.327 70.2757L228.01 68.9595C227.937 68.8815 227.87 68.7984 227.81 68.7108C228.38 62.1963 234.154 54.9297 234.154 54.9297Z" fill="black"/>
<path opacity="0.1" d="M261.069 108.768C258 109.536 241.979 113.296 237.226 109.736C235.35 108.332 233.14 107.816 231.073 107.734C231.247 107.07 231.47 106.421 231.741 105.79L255.317 106.885L256.707 106.949L260.046 107.103C260.41 107.655 260.75 108.21 261.069 108.768Z" fill="black"/>
<path d="M219.784 3.08398C219.784 3.08398 223.075 8.56428 225.269 3.08398H219.784Z" fill="#F8BDC5"/>
<path d="M287.471 14.3721C287.471 14.3721 286.153 20.9502 291.417 17.881L287.471 14.3721Z" fill="#F8BDC5"/>
<g opacity="0.1">
<path opacity="0.1" d="M246.736 136.24C246.63 134.905 246.551 134.071 246.551 134.071C244.123 134.729 244.357 166.735 244.357 166.735V187.561C242.815 188.908 241.321 189.466 240.001 189.584C241.585 189.723 243.473 189.281 245.465 187.561V166.735C245.465 166.735 245.295 143.543 246.736 136.24Z" fill="black"/>
<path opacity="0.1" d="M262.805 112.608C262.62 112.141 262.423 111.671 262.198 111.204C261.828 110.391 261.412 109.576 260.951 108.778C260.647 108.22 260.289 107.665 259.925 107.113L256.586 106.958L255.196 106.895L231.62 105.8L231.599 105.848L254.1 106.895L255.49 106.958L258.829 107.113C259.193 107.662 259.536 108.22 259.855 108.778C260.316 109.588 260.732 110.404 261.103 111.204C261.315 111.671 261.515 112.141 261.71 112.608C266.196 123.921 262.79 134.945 262.79 134.945L261.497 144.001C260.973 147.439 260.175 150.829 259.111 154.14C258.182 157.127 258.841 160.812 258.841 160.812C258.841 160.812 259.718 174.842 258.182 178.351C256.647 181.86 256.865 186.9 256.865 186.9C256.018 187.357 255.077 187.617 254.115 187.658C255.443 187.778 256.778 187.515 257.961 186.9C257.961 186.9 257.742 181.857 259.278 178.351C260.814 174.845 259.937 160.812 259.937 160.812C259.937 160.812 259.278 157.124 260.207 154.14C261.271 150.829 262.068 147.439 262.593 144.001L263.886 134.945C263.886 134.945 267.292 123.915 262.805 112.608Z" fill="black"/>
</g>
<path d="M252.321 63.8102C255.356 65.2387 262.459 59.7523 262.459 59.7523C265.531 60.6288 263.336 73.3454 263.336 73.3454L263.218 73.8731C262.55 76.8726 262.146 79.9205 261.773 82.9716C261.491 85.2735 259.387 87.3782 259.387 87.3782C255.657 94.3931 261.582 108.205 261.582 108.205C261.582 108.205 242.492 113.248 237.229 109.299C231.966 105.351 224.064 108.423 224.064 108.423C227.795 105.135 228.01 84.7458 228.01 84.7458V68.9751C228.451 62.3969 234.385 54.9453 234.385 54.9453C236.813 61.7419 243.561 62.1907 243.561 62.1907C245.057 64.617 246.9 63.9346 246.9 63.9346L252.321 63.8102Z" fill="#EB6475"/>
<path opacity="0.1" d="M248.375 37.0426C247.622 36.879 246.842 36.879 246.089 37.0426C243.703 37.7007 242.954 40.7062 241.111 42.356C240.45 42.9626 239.633 43.369 239.032 44.0271C237.964 45.1978 237.748 46.9326 237.976 48.5005C238.203 50.0685 238.81 51.5546 239.19 53.0922C239.565 54.6314 239.707 56.2179 239.612 57.7991C239.62 58.324 239.479 58.8404 239.205 59.2883C238.765 59.8948 237.954 60.0859 237.384 60.5711C235.641 62.0693 237.08 65.178 235.802 67.0917C235.253 67.9196 234.224 68.4655 234.015 69.436C233.866 70.1245 234.181 70.819 234.491 71.4529C235.305 73.1209 236.148 74.8345 237.526 76.0779C238.904 77.3214 240.607 77.9461 242.301 78.58C242.814 78.771 243.458 78.9379 243.849 78.5588C244.332 78.0856 243.968 77.285 243.634 76.6996C243.105 75.7898 242.693 74.6919 243.002 73.6668C243.312 72.6417 244.304 71.9624 244.972 71.1071C246.693 68.8932 246.129 65.7148 245.276 63.0459C244.915 61.9207 244.508 60.7228 244.814 59.5794C244.945 59.0881 245.203 58.6423 245.367 58.16C246.095 56.0128 244.872 53.6563 245.23 51.4181C245.416 50.5441 245.723 49.7 246.141 48.91L248.068 44.7702C248.262 44.2719 248.552 43.8165 248.921 43.4297C249.52 42.9485 250.28 42.7122 251.046 42.7685C251.827 42.786 252.597 42.9619 253.308 43.2857C254.019 43.6094 254.657 44.0742 255.183 44.6519C257.247 46.9447 257.117 50.4142 256.868 53.4713L256.689 55.6792C256.558 57.2684 256.385 58.9637 255.384 60.2011C254.603 61.1595 253.344 61.8116 253.022 63.0065C252.743 64.0346 253.268 65.1507 252.992 66.1788C252.579 67.7164 250.679 68.2715 249.674 69.5149C249.251 70.0553 249.002 70.7104 248.957 71.3948C248.913 72.0792 249.076 72.761 249.425 73.3514C249.808 73.958 250.418 74.5645 250.336 75.2772C250.266 75.8505 249.75 76.3145 249.753 76.8907C249.778 77.1485 249.88 77.3929 250.046 77.5915C250.213 77.7902 250.435 77.9339 250.685 78.0037C251.187 78.1338 251.711 78.1586 252.224 78.0765L257.666 77.5852C258.007 77.5839 258.341 77.4918 258.634 77.3183C259.014 77.0454 259.138 76.5419 259.19 76.0779C259.408 74.143 258.886 72.0291 259.855 70.3368C260.158 69.7939 260.604 69.342 260.941 68.8204C262.799 65.9089 260.926 61.9602 261.937 58.6574C262.417 57.0895 263.534 55.7429 263.831 54.1325C264.226 51.9852 263.106 49.8865 262.672 47.7636C262.225 45.5708 262.465 43.1567 261.293 41.2491C260.398 39.7933 258.795 38.8865 257.138 38.471C255.62 38.0889 254.103 38.2254 252.585 38.0616C251.134 37.8948 249.786 37.27 248.375 37.0426Z" fill="black"/>
<path d="M248.375 36.6031C247.622 36.4396 246.842 36.4396 246.089 36.6031C243.703 37.2612 242.954 40.2667 241.111 41.9166C240.45 42.5232 239.633 42.9296 239.032 43.5877C237.964 44.7583 237.748 46.4931 237.976 48.0611C238.203 49.629 238.81 51.1151 239.19 52.6528C239.565 54.192 239.707 55.7785 239.612 57.3597C239.62 57.8845 239.479 58.401 239.205 58.8488C238.765 59.4554 237.954 59.6464 237.384 60.1317C235.641 61.6299 237.08 64.7385 235.802 66.6522C235.253 67.4802 234.224 68.0261 234.015 68.9966C233.866 69.6851 234.181 70.3796 234.491 71.0134C235.305 72.6815 236.148 74.395 237.526 75.6385C238.904 76.8819 240.607 77.5067 242.301 78.1405C242.814 78.3316 243.458 78.4984 243.849 78.1193C244.332 77.6462 243.968 76.8455 243.634 76.2602C243.105 75.3503 242.693 74.2525 243.002 73.2274C243.312 72.2023 244.304 71.5229 244.972 70.6677C246.693 68.4537 246.129 65.2753 245.276 62.6065C244.915 61.4813 244.508 60.2833 244.814 59.14C244.945 58.6486 245.203 58.2028 245.367 57.7206C246.095 55.5734 244.872 53.2169 245.23 50.9786C245.416 50.1046 245.723 49.2606 246.141 48.4705L248.068 44.3307C248.262 43.8325 248.552 43.3771 248.921 42.9902C249.52 42.509 250.28 42.2727 251.046 42.3291C251.827 42.3465 252.597 42.5225 253.308 42.8462C254.019 43.17 254.657 43.6348 255.183 44.2124C257.247 46.5052 257.117 49.9748 256.868 53.0319L256.689 55.2398C256.558 56.8289 256.385 58.5243 255.384 59.7617C254.603 60.72 253.344 61.3721 253.022 62.567C252.743 63.5952 253.268 64.7112 252.992 65.7394C252.579 67.277 250.679 67.832 249.674 69.0755C249.251 69.6159 249.002 70.271 248.957 70.9553C248.913 71.6397 249.076 72.3216 249.425 72.912C249.808 73.5185 250.418 74.1251 250.336 74.8378C250.266 75.411 249.75 75.875 249.753 76.4513C249.778 76.7091 249.88 76.9534 250.046 77.1521C250.213 77.3507 250.435 77.4945 250.685 77.5643C251.187 77.6943 251.711 77.7191 252.224 77.6371L257.666 77.1458C258.007 77.1445 258.341 77.0523 258.634 76.8789C259.014 76.6059 259.138 76.1025 259.19 75.6385C259.408 73.7035 258.886 71.5897 259.855 69.8974C260.158 69.3545 260.604 68.9026 260.941 68.3809C262.799 65.4694 260.926 61.5207 261.937 58.218C262.417 56.65 263.534 55.3034 263.831 53.693C264.226 51.5458 263.106 49.4471 262.672 47.3241C262.225 45.1314 262.465 42.7173 261.293 40.8096C260.398 39.3539 258.795 38.4471 257.138 38.0316C255.62 37.6494 254.103 37.7859 252.585 37.6221C251.134 37.4584 249.786 36.8336 248.375 36.6031Z" fill="#774E55"/>
<path opacity="0.1" d="M236.677 86.8266C236.677 86.8266 241.066 88.1428 247.428 85.292H250.715C250.715 85.292 250.934 88.3612 259.491 87.045" fill="black"/>
<path opacity="0.1" d="M258 224.149C348.022 224.149 421 217.496 421 209.289C421 201.081 348.022 194.428 258 194.428C167.978 194.428 95 201.081 95 209.289C95 217.496 167.978 224.149 258 224.149Z" fill="#2D86DA"/>
<path opacity="0.1" d="M194.205 78.2705H173.061C172.194 78.2705 171.491 78.9725 171.491 79.8385V85.801C171.491 86.6669 172.194 87.369 173.061 87.369H194.205C195.072 87.369 195.774 86.6669 195.774 85.801V79.8385C195.774 78.9725 195.072 78.2705 194.205 78.2705Z" fill="#2D86DA"/>
<path opacity="0.1" d="M205.133 88.2793H183.988C183.122 88.2793 182.419 88.9813 182.419 89.8473V95.8098C182.419 96.6757 183.122 97.3777 183.988 97.3777H205.133C205.999 97.3777 206.702 96.6757 206.702 95.8098V89.8473C206.702 88.9813 205.999 88.2793 205.133 88.2793Z" fill="#2D86DA"/>
<path opacity="0.1" d="M300.748 78.877H279.603C278.737 78.877 278.034 79.579 278.034 80.4449V86.4074C278.034 87.2734 278.737 87.9754 279.603 87.9754H300.748C301.615 87.9754 302.317 87.2734 302.317 86.4074V80.4449C302.317 79.579 301.615 78.877 300.748 78.877Z" fill="#2D86DA"/>
<path opacity="0.1" d="M311.675 88.8857H290.53C289.664 88.8857 288.961 89.5877 288.961 90.4537V96.4162C288.961 97.2822 289.664 97.9842 290.53 97.9842H311.675C312.541 97.9842 313.244 97.2822 313.244 96.4162V90.4537C313.244 89.5877 312.541 88.8857 311.675 88.8857Z" fill="#2D86DA"/>
<path opacity="0.1" d="M186.617 98.2871H165.473C164.606 98.2871 163.903 98.9891 163.903 99.8551V105.818C163.903 106.684 164.606 107.386 165.473 107.386H186.617C187.484 107.386 188.186 106.684 188.186 105.818V99.8551C188.186 98.9891 187.484 98.2871 186.617 98.2871Z" fill="#2D86DA"/>
<path opacity="0.1" d="M210.9 133.771H189.756C188.889 133.771 188.187 134.473 188.187 135.339V141.302C188.187 142.168 188.889 142.87 189.756 142.87H210.9C211.767 142.87 212.47 142.168 212.47 141.302V135.339C212.47 134.473 211.767 133.771 210.9 133.771Z" fill="#2D86DA"/>
<path opacity="0.1" d="M221.827 143.779H200.683C199.816 143.779 199.113 144.481 199.113 145.347V151.31C199.113 152.176 199.816 152.878 200.683 152.878H221.827C222.694 152.878 223.396 152.176 223.396 151.31V145.347C223.396 144.481 222.694 143.779 221.827 143.779Z" fill="#2D86DA"/>
<path opacity="0.1" d="M203.311 153.788H182.167C181.3 153.788 180.598 154.49 180.598 155.356V161.319C180.598 162.185 181.3 162.886 182.167 162.886H203.311C204.178 162.886 204.881 162.185 204.881 161.319V155.356C204.881 154.49 204.178 153.788 203.311 153.788Z" fill="#2D86DA"/>
<path opacity="0.1" d="M308.64 159.247H287.495C286.628 159.247 285.926 159.949 285.926 160.815V166.778C285.926 167.644 286.628 168.346 287.495 168.346H308.64C309.506 168.346 310.209 167.644 310.209 166.778V160.815C310.209 159.949 309.506 159.247 308.64 159.247Z" fill="#2D86DA"/>
<path opacity="0.1" d="M290.124 169.255H268.979C268.113 169.255 267.41 169.957 267.41 170.823V176.785C267.41 177.651 268.113 178.353 268.979 178.353H290.124C290.991 178.353 291.693 177.651 291.693 176.785V170.823C291.693 169.957 290.991 169.255 290.124 169.255Z" fill="#2D86DA"/>
<g opacity="0.1">
<path opacity="0.1" d="M381.922 201.218C381.922 201.218 377.527 178.969 386.579 163.72C390.415 157.348 392.08 149.905 391.323 142.508C390.933 138.999 390.221 135.534 389.198 132.154" stroke="#535461" stroke-width="2" stroke-miterlimit="10"/>
<path opacity="0.1" d="M394.85 122.51C394.607 125.163 389.082 132.421 389.082 132.421C389.082 132.421 384.979 124.281 385.224 121.624C385.366 120.369 385.994 119.219 386.975 118.421C387.955 117.623 389.209 117.241 390.468 117.356C391.727 117.472 392.891 118.076 393.71 119.039C394.528 120.001 394.936 121.247 394.847 122.507L394.85 122.51Z" fill="#2D86DA"/>
<path opacity="0.1" d="M401.452 137.947C399.804 140.043 391.223 143.139 391.223 143.139C391.223 143.139 392.206 134.077 393.854 131.981C394.235 131.452 394.719 131.006 395.277 130.669C395.835 130.332 396.456 130.111 397.101 130.02C397.747 129.929 398.405 129.969 399.034 130.139C399.664 130.308 400.253 130.603 400.765 131.006C401.278 131.409 401.703 131.912 402.016 132.483C402.329 133.055 402.523 133.684 402.587 134.332C402.65 134.981 402.581 135.635 402.385 136.256C402.188 136.878 401.868 137.453 401.443 137.947H401.452Z" fill="#2D86DA"/>
<path opacity="0.1" d="M398.792 163.037C396.309 164.014 387.34 162.358 387.34 162.358C387.34 162.358 392.767 155.03 395.25 154.054C396.437 153.608 397.753 153.646 398.912 154.161C400.071 154.675 400.981 155.624 401.446 156.803C401.911 157.983 401.894 159.297 401.397 160.463C400.901 161.63 399.965 162.554 398.792 163.037Z" fill="#2D86DA"/>
<path opacity="0.1" d="M392.5 181.583C390.217 182.966 381.096 182.848 381.096 182.848C381.096 182.848 385.206 174.711 387.488 173.328C388.031 172.987 388.636 172.757 389.269 172.651C389.902 172.546 390.549 172.568 391.173 172.715C391.797 172.862 392.386 173.132 392.904 173.509C393.423 173.886 393.861 174.362 394.194 174.91C394.527 175.458 394.747 176.067 394.841 176.7C394.936 177.334 394.904 177.98 394.746 178.601C394.589 179.223 394.309 179.806 393.923 180.318C393.537 180.83 393.053 181.26 392.5 181.583Z" fill="#2D86DA"/>
<path opacity="0.1" d="M381.072 142.718C382.808 144.744 391.511 147.473 391.511 147.473C391.511 147.473 390.145 138.46 388.412 136.437C388.002 135.945 387.499 135.539 386.931 135.243C386.363 134.947 385.742 134.767 385.104 134.713C384.465 134.66 383.823 134.733 383.213 134.929C382.604 135.126 382.04 135.441 381.553 135.857C381.067 136.274 380.668 136.782 380.38 137.354C380.092 137.926 379.921 138.549 379.876 139.187C379.831 139.825 379.914 140.466 380.119 141.072C380.325 141.678 380.648 142.238 381.072 142.718Z" fill="#2D86DA"/>
<path opacity="0.1" d="M373.987 164.499C376.248 165.913 385.373 165.916 385.373 165.916C385.373 165.916 381.372 157.727 379.108 156.311C378.57 155.965 377.968 155.729 377.338 155.617C376.707 155.505 376.061 155.519 375.436 155.658C374.812 155.798 374.221 156.06 373.699 156.43C373.176 156.8 372.733 157.269 372.393 157.812C372.054 158.354 371.826 158.959 371.723 159.59C371.619 160.221 371.642 160.866 371.791 161.489C371.939 162.111 372.209 162.697 372.586 163.214C372.964 163.731 373.44 164.168 373.987 164.499Z" fill="#2D86DA"/>
<path opacity="0.1" d="M370.005 186.605C371.996 188.38 380.987 189.926 380.987 189.926C380.987 189.926 378.428 181.177 376.434 179.402C375.965 178.956 375.41 178.607 374.804 178.379C374.198 178.15 373.551 178.046 372.904 178.072C372.256 178.098 371.62 178.255 371.034 178.531C370.448 178.808 369.924 179.2 369.492 179.683C369.061 180.166 368.731 180.732 368.523 181.345C368.315 181.958 368.232 182.607 368.28 183.253C368.328 183.899 368.505 184.528 368.801 185.104C369.098 185.68 369.507 186.191 370.005 186.605Z" fill="#2D86DA"/>
</g>
<g opacity="0.1">
<path opacity="0.1" d="M343.789 196.335C343.789 196.335 341.431 184.389 346.287 176.2C348.348 172.779 349.241 168.782 348.834 164.809C348.626 162.925 348.246 161.065 347.699 159.25" stroke="#535461" stroke-width="2" stroke-miterlimit="10"/>
<path opacity="0.1" d="M350.731 154.07C350.601 155.495 347.635 159.393 347.635 159.393C347.635 159.393 345.432 155.022 345.562 153.597C345.661 152.943 346.006 152.351 346.527 151.942C347.048 151.534 347.706 151.34 348.366 151.401C349.025 151.461 349.637 151.771 350.075 152.267C350.513 152.764 350.745 153.409 350.722 154.07H350.731Z" fill="#2D86DA"/>
<path opacity="0.1" d="M354.273 162.359C353.387 163.484 348.779 165.146 348.779 165.146C348.779 165.146 349.307 160.293 350.194 159.156C350.626 158.639 351.244 158.31 351.915 158.24C352.586 158.169 353.258 158.363 353.789 158.78C354.32 159.196 354.667 159.803 354.757 160.471C354.848 161.139 354.674 161.816 354.273 162.359Z" fill="#2D86DA"/>
<path opacity="0.1" d="M352.847 175.837C351.514 176.361 346.697 175.473 346.697 175.473C346.697 175.473 349.611 171.53 350.947 171.014C351.581 170.787 352.28 170.815 352.894 171.093C353.508 171.372 353.99 171.877 354.237 172.504C354.484 173.131 354.478 173.829 354.219 174.451C353.96 175.073 353.469 175.57 352.85 175.837H352.847Z" fill="#2D86DA"/>
<path opacity="0.1" d="M349.468 185.784C348.254 186.528 343.346 186.464 343.346 186.464C343.346 186.464 345.552 182.094 346.779 181.35C347.07 181.164 347.396 181.038 347.737 180.98C348.078 180.921 348.428 180.932 348.765 181.01C349.102 181.088 349.419 181.233 349.7 181.436C349.98 181.639 350.216 181.896 350.396 182.192C350.575 182.487 350.693 182.816 350.744 183.158C350.794 183.5 350.776 183.848 350.689 184.183C350.603 184.518 350.45 184.832 350.241 185.107C350.031 185.382 349.768 185.612 349.468 185.784Z" fill="#2D86DA"/>
<path opacity="0.1" d="M343.33 164.925C344.262 166.014 348.937 167.479 348.937 167.479C348.937 167.479 348.205 162.626 347.273 161.552C346.826 161.03 346.189 160.706 345.502 160.652C344.816 160.599 344.136 160.82 343.613 161.267C343.09 161.715 342.765 162.351 342.712 163.037C342.658 163.723 342.88 164.402 343.327 164.925H343.33Z" fill="#2D86DA"/>
<path opacity="0.1" d="M339.527 176.616C340.742 177.374 345.641 177.377 345.641 177.377C345.641 177.377 343.492 172.98 342.277 172.222C341.694 171.87 340.996 171.762 340.334 171.921C339.671 172.079 339.098 172.492 338.737 173.069C338.376 173.646 338.257 174.341 338.405 175.006C338.553 175.67 338.956 176.249 339.527 176.619V176.616Z" fill="#2D86DA"/>
<path opacity="0.1" d="M337.394 188.486C338.462 189.439 343.291 190.27 343.291 190.27C343.291 190.27 341.919 185.572 340.863 184.619C340.347 184.176 339.678 183.952 338.999 183.997C338.32 184.042 337.686 184.351 337.233 184.858C336.78 185.366 336.544 186.031 336.577 186.71C336.61 187.389 336.909 188.028 337.409 188.489L337.394 188.486Z" fill="#2D86DA"/>
</g>
<g opacity="0.1">
<path opacity="0.1" d="M151.65 198.155C151.65 198.155 149.291 186.208 154.148 178.02C156.208 174.598 157.102 170.601 156.694 166.628C156.487 164.745 156.107 162.884 155.559 161.069" stroke="#535461" stroke-width="2" stroke-miterlimit="10"/>
<path opacity="0.1" d="M158.592 155.889C158.461 157.315 155.496 161.212 155.496 161.212C155.496 161.212 153.292 156.842 153.423 155.416C153.521 154.762 153.866 154.17 154.388 153.762C154.909 153.353 155.567 153.159 156.226 153.22C156.886 153.28 157.497 153.59 157.935 154.087C158.373 154.583 158.605 155.228 158.583 155.889H158.592Z" fill="#2D86DA"/>
<path opacity="0.1" d="M162.134 164.178C161.247 165.303 156.64 166.965 156.64 166.965C156.64 166.965 157.168 162.113 158.054 160.976C158.487 160.458 159.104 160.129 159.775 160.059C160.446 159.989 161.119 160.182 161.649 160.599C162.18 161.016 162.527 161.622 162.618 162.29C162.708 162.959 162.535 163.636 162.134 164.178Z" fill="#2D86DA"/>
<path opacity="0.1" d="M160.707 177.656C159.375 178.181 154.558 177.292 154.558 177.292C154.558 177.292 157.472 173.349 158.807 172.834C159.442 172.606 160.14 172.635 160.754 172.913C161.368 173.191 161.85 173.697 162.097 174.323C162.345 174.95 162.338 175.648 162.079 176.27C161.82 176.892 161.329 177.389 160.71 177.656H160.707Z" fill="#2D86DA"/>
<path opacity="0.1" d="M157.329 187.604C156.115 188.347 151.207 188.283 151.207 188.283C151.207 188.283 153.414 183.913 154.64 183.17C154.932 182.984 155.257 182.858 155.599 182.799C155.94 182.741 156.289 182.751 156.626 182.829C156.963 182.908 157.281 183.052 157.561 183.255C157.841 183.458 158.078 183.715 158.257 184.011C158.436 184.307 158.555 184.635 158.605 184.977C158.656 185.319 158.637 185.668 158.551 186.003C158.464 186.337 158.312 186.651 158.102 186.926C157.892 187.201 157.63 187.432 157.329 187.604Z" fill="#2D86DA"/>
<path opacity="0.1" d="M151.191 166.744C152.123 167.833 156.797 169.298 156.797 169.298C156.797 169.298 156.066 164.445 155.134 163.372C154.686 162.849 154.049 162.525 153.363 162.472C152.676 162.418 151.996 162.639 151.473 163.087C150.95 163.534 150.626 164.171 150.572 164.856C150.519 165.542 150.74 166.221 151.188 166.744H151.191Z" fill="#2D86DA"/>
<path opacity="0.1" d="M147.388 178.436C148.602 179.194 153.501 179.197 153.501 179.197C153.501 179.197 151.352 174.799 150.138 174.041C149.555 173.69 148.856 173.582 148.194 173.74C147.532 173.899 146.958 174.311 146.597 174.888C146.237 175.465 146.117 176.161 146.265 176.825C146.413 177.489 146.816 178.069 147.388 178.439V178.436Z" fill="#2D86DA"/>
<path opacity="0.1" d="M145.254 190.306C146.322 191.258 151.152 192.089 151.152 192.089C151.152 192.089 149.78 187.391 148.723 186.439C148.208 185.995 147.538 185.771 146.859 185.816C146.18 185.861 145.546 186.17 145.093 186.678C144.64 187.185 144.405 187.85 144.438 188.529C144.471 189.208 144.769 189.847 145.269 190.309L145.254 190.306Z" fill="#2D86DA"/>
</g>
<defs>
<linearGradient id="paint0_linear" x1="260.231" y1="215.093" x2="260.231" y2="0.0239974" gradientUnits="userSpaceOnUse">
<stop stop-color="#808080" stop-opacity="0.25"/>
<stop offset="0.54" stop-color="#808080" stop-opacity="0.12"/>
<stop offset="1" stop-color="#808080" stop-opacity="0.1"/>
</linearGradient>
</defs>
</svg>
