<svg xmlns="http://www.w3.org/2000/svg" xmlns:xlink="http://www.w3.org/1999/xlink" width="284" height="277.274" viewBox="0 0 284 277.274"><defs><style>.a{fill:url(#a);}.b{opacity:0.8;fill:url(#b);}.c{fill:#005ab8;}.d{fill:#2e78c5;}.e{fill:#ffe7a1;}.f{fill:#47b3a8;}.g{fill:#ffaf43;}.h,.w{fill:#eac4a8;}.i{fill:#98b2ff;}.j{fill:#00469b;}.k{fill:#cdddff;}.l{fill:#ff9a51;}.m{fill:#77d8ae;}.n{fill:#d6b59b;}.ac,.o{fill:none;}.o{stroke:#00469b;stroke-linejoin:round;stroke-width:13.029px;}.p{fill:#efa4c4;}.q{fill:#8671c4;}.r{fill:#2e4d5e;}.s{fill:#fff;}.t{fill:#ce4e03;}.u{fill:#ffc75f;}.v{fill:#ffd683;}.w{opacity:0.6;}.x{fill:#818466;}.y{fill:#cca483;}.z{fill:#342f10;}.aa{fill:#baac57;}.ab{fill:#9a9590;}.ad{fill:url(#c);}.ae{fill:url(#d);}.af{fill:#dcdae9;}.ag{fill:#005fad;font-size:37px;font-family:Helvetica;}</style><linearGradient id="a" x1="0.497" y1="1.001" x2="0.497" y2="-0.049" gradientUnits="objectBoundingBox"><stop offset="0" stop-color="#fff2bc"/><stop offset="0.287" stop-color="#fff0b8"/><stop offset="0.515" stop-color="#ffeaae"/><stop offset="0.722" stop-color="#ffe19e"/><stop offset="0.915" stop-color="#ffd486"/><stop offset="1" stop-color="#ffce7a"/></linearGradient><radialGradient id="b" cx="109.86" cy="14.678" r="772.888" gradientTransform="translate(95.182 14.412) scale(0.134 0.018)" gradientUnits="userSpaceOnUse"><stop offset="0" stop-color="#b0aacc"/><stop offset="1" stop-color="#e3e1ed" stop-opacity="0"/></radialGradient><linearGradient id="c" x1="0.445" y1="0.08" x2="0.549" y2="0.887" gradientUnits="objectBoundingBox"><stop offset="0.212" stop-color="#fff"/><stop offset="0.703" stop-color="#eae9f2"/><stop offset="1" stop-color="#fff"/></linearGradient><linearGradient id="d" x1="0.409" y1="-0.007" x2="0.634" y2="1.251" gradientUnits="objectBoundingBox"><stop offset="0.148" stop-color="#4393ff"/><stop offset="0.582" stop-color="#3757ff"/></linearGradient></defs><g transform="translate(-47.875 -34.055)"><path class="a" d="M319.251,160.06c15.83,63.158,29.964,103.8-44.548,122.478S65.249,290.849,49.42,227.69,142.867,72.5,217.379,53.822,303.421,96.9,319.251,160.06Z" transform="translate(0 -5.006)"/><g transform="translate(64.391 34.055)"><g transform="translate(0 129.328)"><ellipse class="b" cx="109.86" cy="14.678" rx="109.86" ry="14.678" transform="translate(0 118.591)"/><g transform="translate(66.745 96.745)"><rect class="c" width="110.082" height="34.933"/><rect class="d" width="110.082" height="11.302"/></g><path class="e" d="M314.579,360.98l.209,1.78s.086,1.164.679,1.371,2.777-1.08,2.777-1.08l-.874-3.37Z" transform="translate(-145.911 -262.913)"/><path class="e" d="M288.617,360.98l-.21,1.78s-.086,1.164-.679,1.371-2.777-1.08-2.777-1.08l.873-3.37Z" transform="translate(-136.856 -262.913)"/><path class="f" d="M289.574,299.826l-.044,4.318-2.768,17.285L285.11,342.4l2.139.987,2.379-.987,4.068-21.221,4.289-11.61.691-.123,1.441,12.1,4.924,21.715,2.569.37,1.784-1.727-2.856-21.55-.66-16.645-.318-3.642Z" transform="translate(-136.904 -244.618)"/><path class="g" d="M314.3,363.931l.551.147s.22.734.807.66a.8.8,0,0,0,.66-.7l1.541-1.064,1.834,1.725,3.522.477.514-.257.7,1.248s-.624.954-4.66,1.174-5.614-.66-5.614-.66S313.378,365.729,314.3,363.931Z" transform="translate(-145.687 -263.92)"/><path class="g" d="M285.726,363.931l-.551.147s-.22.734-.808.66a.8.8,0,0,1-.66-.7l-1.541-1.064-1.834,1.725-3.522.477-.514-.257-.7,1.248s.624.954,4.66,1.174,5.614-.66,5.614-.66S286.643,365.729,285.726,363.931Z" transform="translate(-133.997 -263.92)"/><g transform="translate(134.24 6.098)"><path class="h" d="M314.794,234.864l-.475-1.412-1.151-.788-1.188-.3.432-.547,1.376.2,1.13-.285,3.575-2.082,1.606-.557.171.435-1.7.932-1.69,2.077.1,2.072Z" transform="translate(-279.357 -229.097)"/><path class="h" d="M272.18,242.764l-.137-1.483.734-1.187.965-.753-.616-.326-1.176.743-1.149.2-4.111-.458-1.694.141.019.467,1.932.165,2.386,1.216.747,1.935Z" transform="translate(-264.996 -232.129)"/><g transform="translate(3.936 4.983)"><path class="i" d="M274.513,242.572l-3.849,1.127,3.965,14.411.082.378.882.934,8.717,9.226,4.7-6.817-10.017-6.156Z" transform="translate(-270.664 -238.2)"/><path class="i" d="M317.349,251.2l-1.714-14.921-4.286.274.74,14.069L304.7,261.479l6.471,4.192,5.768-12.829.494-1.1Z" transform="translate(-281.067 -236.275)"/></g><path class="i" d="M289.444,272.635l1.651-4.063a14.579,14.579,0,0,1,2.847-1.194,34.883,34.883,0,0,1,6.663-.514,53.642,53.642,0,0,1,5.9,1l.44,2.945-1.321,11.173,1.982,10.665s-2.825,1.942-9.871,1.942-7.706-1.615-7.706-1.615l.954-13.227Z" transform="translate(-272.469 -240.634)"/></g><g transform="translate(52.091 33.666)"><g transform="translate(59.979 95.887)"><path class="j" d="M243.064,413.257s-4.115-1.57-4.335-1.56a8.908,8.908,0,0,1-1.421-.521l-.01-.051-1.1.731s-.22,1.5-1.174,1.357a1.7,1.7,0,0,1-1.065-.742l-.216,1.076a7.628,7.628,0,0,0,.2,1.482c1.282.031,3.955.381,6.33.276a15.971,15.971,0,0,0,3.224-.6Z" transform="translate(-233.275 -408.191)"/><path class="k" d="M234.82,411.922c.954.147,1.174-1.357,1.174-1.357l1.1-.731-.571-2.934-3.453,1.559.77,2.314-.082.408A1.7,1.7,0,0,0,234.82,411.922Z" transform="translate(-233.067 -406.899)"/></g><path class="l" d="M195.791,367.829l11.024,20.908,2.583,1.2,2.965-1.623L202.6,363.371l-.207-.528-.851-.861-16.156-16.325-1.474-1.49-2.447.05-11.572.237-3.506.072-1.272,2.412q-1.183,2.243-2.409,4.457l-2.441,4.435c-1.659,2.934-3.288,5.889-4.98,8.8l-.517.889-.081.5c-1.254,7.71-2.375,15.447-3.567,23.17l2.84.928,2.4-.923c1.851-7.246,5.069-13,6.871-20.253,2.047-2.441,4.143-4.847,6.215-7.27l3.334-3.809c.366-.419.741-.83,1.109-1.248l5.623-.3Z" transform="translate(-148.039 -291.837)"/><path class="m" d="M172.12,334.6l-1.076-17.774-1.812-6.48s1.714-4.02,3.328-5.047c4.624-1.1,10.733-2.77,15.632.092,2.517.692,1.814.721,2.127,1.315.8,1.512-.614,5.636-.614,5.636l-.43,21.28s-2.314,2.239-8.7,1.962S172.12,334.6,172.12,334.6Z" transform="translate(-153.576 -279.499)"/><path class="m" d="M169.993,296.314l-4.712-2.334L160.822,287l-.268-13.495-3.836-.094-.756,15.362,6.592,11.445,4.2,6.841Z" transform="translate(-149.52 -270.209)"/><path class="m" d="M195.218,297.979l5.216-.673,6.489-5.153,4.646-12.673,3.657,1.16-4.286,14.772-9.959,8.676-6.2,5.1Z" transform="translate(-161.385 -272.066)"/><g transform="translate(0 96.987)"><path class="k" d="M152.732,410.384l2.82.035c-.028-.122-.051-.208-.051-.208l.61-1.639-3.543-.089-.7,1.878C152.086,410.356,152.4,410.359,152.732,410.384Z" transform="translate(-148.269 -408.483)"/><path class="j" d="M154.078,411.828a5.817,5.817,0,0,1-.6.915,1.123,1.123,0,0,1-1.184-1.183c-.152-.217-.652-.306-1.145-.344l-.869-.011-.132.355-1.914,1.273-1.489.743-.06,1.27s.076.565,1.017.692a32.7,32.7,0,0,0,4.492-.585l2.162-.574s.344-1.731-.219-2.084C154.12,412.126,154.1,411.971,154.078,411.828Z" transform="translate(-146.684 -409.315)"/><path class="k" d="M157.618,411.278l-.444-.006c.032.137.072.326.11.576C157.466,411.543,157.618,411.278,157.618,411.278Z" transform="translate(-149.89 -409.335)"/><path class="k" d="M154.258,411.565a1.123,1.123,0,0,0,1.184,1.183,5.816,5.816,0,0,0,.6-.915c-.039-.251-.078-.439-.11-.576l-2.82-.035C153.606,411.258,154.106,411.348,154.258,411.565Z" transform="translate(-148.649 -409.32)"/><path class="k" d="M151.473,411.2l.269,0,0-.012C151.584,411.191,151.473,411.2,151.473,411.2Z" transform="translate(-148.148 -409.31)"/><path class="k" d="M151.866,411.187l0,.012.869.011C152.4,411.185,152.084,411.182,151.866,411.187Z" transform="translate(-148.266 -409.309)"/></g><path class="n" d="M158.556,272.608l.007-1.49.845-1.11,1.034-.657-.582-.384-1.242.626-1.162.084-4.048-.853-1.7-.024-.026.466,1.907.351,2.258,1.44.557,2Z" transform="translate(-148.211 -268.801)"/></g><g transform="translate(78.004)"><path class="h" d="M262.091,297.484l.564,1.379-.356,1.349-.7,1,.685.132.908-1.054,1.042-.522,4.066-.761,1.58-.628-.154-.441-1.9.406-2.637-.467-1.279-1.633Z" transform="translate(-207.721 -243.523)"/><path class="h" d="M213.24,224.069l-.145-1.482.727-1.191.961-.759-.618-.323-1.172.749-1.148.2-4.113-.435-1.693.15.021.467,1.933.154,2.393,1.2.758,1.931Z" transform="translate(-190.74 -220.314)"/><path class="o" d="M195.875,292.278l5.31-11.806,9.168,12.226,4.734,5.614,3.119,18.274L214.426,336.4" transform="translate(-187.633 -238.702)"/><path class="p" d="M217.2,283.311l2.532,6.385,6.384,1.761,3.486-9.137,5.614-7.926,1.431-4.733-9.1-6.935-4.953,3.082-1.1,3.853S221.164,272.854,217.2,283.311Z" transform="translate(-194.152 -233.278)"/><path class="p" d="M226.589,251.172l-6.9-11.082-3.89-16.366-3.3,1.468,2.789,15.925,6.238,15.118Z" transform="translate(-192.714 -221.357)"/><path class="p" d="M242.338,271.682l12,5.246,4.149,12.136-3.007,1.285-5.025-11.013-9.241-1.815Z" transform="translate(-201.492 -236.015)"/><path class="q" d="M220.575,358.842l-1.331,2.368-.49,1.4,1.965.206.943.414,1.52-3.513Z" transform="translate(-194.626 -262.656)"/><path class="r" d="M218.486,361.8l.394.243s-.481.917-.021,1.221,1.005-.255,1.005-.255l1.849.332.765,2,3.042,1.888-.326.964a6.242,6.242,0,0,1-2.578-.442,26.614,26.614,0,0,1-4.792-2.552l-.658-1.505Z" transform="translate(-194.141 -263.562)"/><path class="q" d="M196.048,296.884l-.67,2.633-.612,1.352-1.565-1.206-.969-.351,1.323-3.592Z" transform="translate(-186.52 -243.363)"/><path class="r" d="M193.274,300.646l-.453-.1s-.284,1-.828.9-.553-.878-.553-.878l-1.567-1.035-1.936.921-3.5-.732-.43.923a6.246,6.246,0,0,0,2.171,1.458,26.616,26.616,0,0,0,5.23,1.46l1.514-.636Z" transform="translate(-184.005 -244.529)"/></g><g transform="translate(97.637 44.37)"><g transform="translate(0 8.781)"><g transform="translate(46.473 41.23)"><path class="h" d="M282.019,356.411l-1.068,3.359s.247,1.5,1.017,1.545,2.216-1.2,2.216-1.2l.766-3.871Z" transform="translate(-279.743 -356.243)"/><path class="s" d="M280.373,361.4s-1.152.892-1.162,1.736a8.6,8.6,0,0,0,.263,1.889,25.84,25.84,0,0,0,3.537.49c1.03-.017,6.009.333,6.009.333l.424-1.005-1.362-.626-3.361-1.694-1.019-1.49s-1.018,1.12-1.934,1.069A1.949,1.949,0,0,1,280.373,361.4Z" transform="translate(-279.211 -357.706)"/></g><g transform="translate(0 42.345)"><path class="h" d="M225.153,361.125l-3.522-.144s-1.383.635-1.221,1.389,1.743,1.821,1.743,1.821l3.936-.284Z" transform="translate(-214.761 -358.807)"/><path class="s" d="M221.562,360.137s-.351-1.414-1.119-1.764a8.581,8.581,0,0,0-1.834-.523,6,6,0,0,1-1.371,1.98c-.8.643-4.957,3.413-4.957,3.413l.281,1.055,1.46-.337,3.695-.717,1.718.555s.12-1.508.876-2.028A4.554,4.554,0,0,0,221.562,360.137Z" transform="translate(-212.28 -357.85)"/></g><path class="t" d="M254.521,326.573l2.039,2.979,15.868,1.155,2.816,4.9-6.8,13.294-4.436-.521,3.858-11.914-16.911-.221-3.448,18.441-20.355.249-1.155-5.025,15.229-.258.274-14.869a8.3,8.3,0,0,1,.524-7.468Z" transform="translate(-216.472 -305.944)"/><path class="u" d="M284.636,307.512l2.9,12.583s.847,1.957.424,2.963-6.6,8.049-6.6,8.049l-2.064.437-1.123-1.606,5.768-8.574-4.313-11.044Z" transform="translate(-232.421 -300.118)"/><path class="v" d="M248.5,317.245s5.773-14.41,11.309-17.738a20.613,20.613,0,0,1,11.816-2.568s4.091,4.017,4.36,4.715c-.2,1.3-.083,3.469-1.323,4.869-2.819.928-12.823,9.487-11.8,17.2a30.422,30.422,0,0,1-3.451,5.951l-.353-.481a27.5,27.5,0,0,0-7.468-6.838C249.77,321.2,248.061,319.479,248.5,317.245Z" transform="translate(-223.329 -296.864)"/><path class="h" d="M280.038,298.431c-.653.292-.949,2.207-.033,3.581s2.046,2.87,2.046,2.87l-2.479,3.942,3.913-2.981.315-1.691a18.125,18.125,0,0,1-1.237-2.549C282.282,300.7,281.79,297.645,280.038,298.431Z" transform="translate(-232.804 -297.304)"/><g transform="translate(44.044 29.626)"><path class="h" d="M278.4,339.824a1.35,1.35,0,0,1,1.312-.175,1.962,1.962,0,0,1,.816.944l-.484,1.462s-.388,1.964-.393,2.056a26.226,26.226,0,0,1-2.678-.365l.728-2.5Z" transform="translate(-276.097 -339.531)"/><path class="h" d="M276.97,345.6s.235,1.543.512,1.765a7.393,7.393,0,0,0,2.128.408c.35.019.873-.841.762-1.074s-.533-.092-.533-.092l-.192-.642" transform="translate(-276.097 -341.387)"/><path class="h" d="M277.314,342l-.867,1.461-.083.388a.552.552,0,0,1-.6.09,2.013,2.013,0,0,0-.035.639s.15.277.7.1a2.981,2.981,0,0,0,1.078-.809Z" transform="translate(-275.712 -340.285)"/></g><path class="u" d="M265.908,305.621c-2.93.829-1.329,16.239-1.329,16.239l2.8,17.046,2.443.29,1.282-1.176-1.422-16.372.579-12.768S270.669,304.275,265.908,305.621Z" transform="translate(-228.132 -299.465)"/><path class="h" d="M271.9,351.668l.477,2.642s-.073,1.174-.073,1.578-1.578,1.468-2.239,1.688-1.285-1.064-1.285-1.064-.4-1.028-.183-1.5a.587.587,0,0,1,.734-.294l.22-2.275Z" transform="translate(-229.472 -313.615)"/></g><path class="h" d="M279.936,295.9l3.109-.622,2.225-5.323s1.131-2.023,2.712-1.831,4.836,1.16,4.741,3.516-2.648,5.622-4.367,6.355a41.524,41.524,0,0,0-5.58,3.734S279.352,299.285,279.936,295.9Z" transform="translate(-232.939 -285.406)"/><path class="w" d="M284.072,298.528a2.356,2.356,0,0,0,.265,2.268c.821.832,4.817-.06,4.817-.06a36.952,36.952,0,0,1-4.782,1.047c-.9-.022-1.262-3.047-1.262-3.047Z" transform="translate(-233.93 -288.591)"/><path class="x" d="M288.165,288.327s-.6-.478-.043-1.857,2.089-2.445,2.809-2.225a2.761,2.761,0,0,1,1.249,1.132l.99,1.039.042.668a2.686,2.686,0,0,1,2.579,1.337,4.407,4.407,0,0,1-.306,4.344,34.441,34.441,0,0,1-3.084,2.856,11.277,11.277,0,0,0,1.51-2.516,2.536,2.536,0,0,0-.112-1.395l-1.5,1.937-.3-.617.507-1.816a3.041,3.041,0,0,0-.093-2.177C291.879,288.271,289.8,289.121,288.165,288.327Z" transform="translate(-235.39 -284.216)"/></g><g transform="translate(69.974 42.795)"><path class="y" d="M180.829,305.573l3.575,3.616,2.841-3.677a1.692,1.692,0,0,0-.785-2.634h0l-1.028-4.11-4.11.257.085,3.938h0A1.59,1.59,0,0,0,180.829,305.573Z" transform="translate(-174.863 -287.089)"/><path class="n" d="M186.6,291.939a11.281,11.281,0,0,0-1.321-4.678s-.385-3.027-5.229-1.762-3.8,6.44-2.532,7.32a14.844,14.844,0,0,0,1.647.982l.059.283,1.651,2.972,5.56,1.266A33.705,33.705,0,0,0,186.6,291.939Z" transform="translate(-173.669 -282.938)"/><path class="z" d="M180.09,291.278l-.385-2.2.88-1.652v-.715l3.027-1.6a3.953,3.953,0,0,0-.385-2.311c-.605-1.321-3.3-.716-3.3-.716s-3.193-.44-3.963.551l-2.091,4.238H172.44l1.266.605-.88,1.211.991-.716s-.441.826.5,2.422,3.908,2.752,3.908,2.752l-.55-2.642.715-1.266.88,2.477Z" transform="translate(-172.44 -281.948)"/><path class="y" d="M180.522,293.941s-.5-1.018-1.294-.826-.3,1.651.083,2.064a3.866,3.866,0,0,0,1.266.715h.66Z" transform="translate(-174.384 -285.354)"/></g><g transform="translate(109.038 16.201)"><path class="h" d="M230.642,266.044l2.091-.385,3.963,3.3.11,1.816-5.229.551-2.422,2.642S227.45,268.906,230.642,266.044Z" transform="translate(-228.7 -250.376)"/><path class="h" d="M237.094,268.4l-.11-3.247.88-3.027-3.632-1.541-2.147,4.4-.826.605.771,2.036A7.215,7.215,0,0,0,237.094,268.4Z" transform="translate(-229.482 -248.825)"/><path class="h" d="M232.916,255.058a16.914,16.914,0,0,0-1.6,5.394c-.165,2.532.22,2.587.22,2.587l1.156.5a13.9,13.9,0,0,0,4.073-1.816l.936-1.046s-.331.606.55.881,3.027-3.193,2.2-3.522a3.844,3.844,0,0,0,.771-3.027C240.9,253.241,235.338,249.719,232.916,255.058Z" transform="translate(-229.488 -246.269)"/><path class="w" d="M231.453,266.781a2.614,2.614,0,0,0,2.184.66c1.394-.183,3.816-2.972,3.816-2.972s-2.348,3.3-3.523,3.633-2.935-1.1-2.935-1.1l.183-1.174Z" transform="translate(-229.402 -250.012)"/><path class="aa" d="M234.329,249.042l.367,1.8s.22.7,2.092.7a2.376,2.376,0,0,1,2.458,1.578,13.613,13.613,0,0,1-.293,2.091l-.074,1.5.514-.294.954-1.578.532.569.2.532a5.6,5.6,0,0,0,2.238-1.982,2.311,2.311,0,0,0,.221-2.2l1.174-.147-1.248-.294.551-1.028-1.248.771a5.816,5.816,0,0,0-.367-3.009c-.624-.991-4.33-.4-5.541-1.835a3.08,3.08,0,0,1-.917-2.568l-.954,2.936-.624-2.569S230.549,246.364,234.329,249.042Z" transform="translate(-229.91 -243.648)"/></g><path class="h" d="M296.048,267.552a11.28,11.28,0,0,1,3.482-.706,9.6,9.6,0,0,1,3.779.458,4.268,4.268,0,0,1-4,3.075A2.884,2.884,0,0,1,296.048,267.552Z" transform="translate(-140.247 -234.53)"/><path class="h" d="M302.535,265.479l-.807-.514-.954-4.036-3.156.367-.44,2.642-.44,1.761s.294,1.248,2.788,1.174S302.535,265.479,302.535,265.479Z" transform="translate(-140.458 -232.729)"/><path class="h" d="M291.218,251.556s-.5,1.091.333,3.493a9.29,9.29,0,0,0,1.6,3.194s3.042,3.726,5.389,2.708,2.078-4.055,1.562-6.073-2.268-5.033-3.61-5.458S291.218,251.556,291.218,251.556Z" transform="translate(-138.726 -229.196)"/><path class="ab" d="M297.087,249.833a2.85,2.85,0,0,0-.385-2.092,2.586,2.586,0,0,0-1.376-1.155,3.061,3.061,0,0,0-1.789-1.569,6.6,6.6,0,0,0-4.706,1.294c-1.623,1.156-.715,4.458-.715,4.458s-1.294.853-.991,1.982,3.193,3.633,4.321,3.5a11.659,11.659,0,0,1-1.128-2.725l.467-.413L292,254.567l.193-.413-1.046-3.027s3.045-2.339,4.476-2.641C295.821,248.264,297.087,249.833,297.087,249.833Z" transform="translate(-137.506 -227.843)"/><path class="h" d="M291.673,258.076s-1.019-.633-1.514-.055,1.266,2.642,2.091,2.587a2.732,2.732,0,0,0,1.211-.3Z" transform="translate(-138.421 -231.765)"/></g><g transform="translate(21.881)"><path class="ac" d="M254.36,57.583c3.61,7.819,4.291,16.122,3.748,24.584-.152,2.375-.469,4.742-.768,7.105-.427,3.376.914,5.107,3.979,5.087-2.834-.1-4.059-1.834-3.648-5.087.3-2.364.616-4.73.768-7.105.543-8.462-.138-16.765-3.748-24.584-2.348-5.086-5.663-9.356-10.919-11.765a10.336,10.336,0,0,0-4.263-1.024,10.559,10.559,0,0,1,3.932,1.024C248.7,48.228,252.012,52.5,254.36,57.583Z" transform="translate(-144.846 -37.337)"/><path class="ac" d="M309.623,129.747a3.451,3.451,0,0,0,1.432-3.258,33.1,33.1,0,0,0-.287-5.91,8.357,8.357,0,0,0-1.989-4.287c-3.861-3.677-8.426-5.912-13.672-5.919,5.108.1,9.561,2.319,13.341,5.919a8.357,8.357,0,0,1,1.989,4.287,33.047,33.047,0,0,1,.287,5.91,3.45,3.45,0,0,1-1.432,3.258c-1.525,1.1-1.466,3.138-.235,5.031a13.116,13.116,0,0,1,2.034,9.835,11.792,11.792,0,0,1-2.086,4.7,6.072,6.072,0,0,0-1.238,5.191,27.621,27.621,0,0,1,.142,11.093,10.422,10.422,0,0,1-3.815,6.469,4.107,4.107,0,0,0-1.623,4.3c.839,4.953-.5,9.453-3.077,13.64a5.887,5.887,0,0,1-4.7,2.881c-11,1.2-21.989,2.507-32.983,3.779-10.819,1.251-21.635,2.532-32.459,3.739-.32.036-.635.058-.946.07a12.561,12.561,0,0,0,1.278-.07c10.824-1.207,21.641-2.489,32.46-3.739,10.993-1.271,21.982-2.582,32.983-3.779a5.887,5.887,0,0,0,4.7-2.881c2.577-4.186,3.916-8.686,3.077-13.64a4.107,4.107,0,0,1,1.623-4.3,10.422,10.422,0,0,0,3.815-6.469A27.622,27.622,0,0,0,308.1,154.5a6.074,6.074,0,0,1,1.238-5.191,11.792,11.792,0,0,0,2.086-4.7,13.113,13.113,0,0,0-2.034-9.835C308.157,132.884,308.1,130.844,309.623,129.747Z" transform="translate(-141.421 -57.382)"/><path class="ac" d="M172.185,133.031c-.483-4.18-2.382-6.083-6.14-6.057,3.54.085,5.339,2,5.809,6.057q4.375,37.841,8.75,75.682c.51,4.413-1.3,6.695-5.717,7.207q-19.441,2.251-38.882,4.5a11.658,11.658,0,0,1-1.285.075,11.3,11.3,0,0,0,1.616-.075q19.442-2.243,38.882-4.5c4.418-.512,6.226-2.793,5.717-7.207Q176.56,170.871,172.185,133.031Z" transform="translate(-112.817 -62.456)"/><path class="ad" d="M253.473,176.621c10.993-1.271,21.982-2.582,32.983-3.779a5.887,5.887,0,0,0,4.7-2.881c2.577-4.186,3.916-8.686,3.077-13.64a4.107,4.107,0,0,1,1.623-4.3,10.422,10.422,0,0,0,3.815-6.469,27.622,27.622,0,0,0-.142-11.093,6.072,6.072,0,0,1,1.238-5.191,11.793,11.793,0,0,0,2.087-4.7,13.116,13.116,0,0,0-2.034-9.835c-1.23-1.893-1.289-3.933.235-5.031a3.449,3.449,0,0,0,1.432-3.258,33.044,33.044,0,0,0-.287-5.91,8.357,8.357,0,0,0-1.989-4.287c-3.78-3.6-8.234-5.821-13.341-5.919a19.01,19.01,0,0,0-2,.1c-11.295,1.18-22.568,2.58-33.851,3.874a8.95,8.95,0,0,1-1.361.059c-3.066.019-4.406-1.712-3.979-5.087.3-2.364.616-4.73.768-7.105.543-8.462-.138-16.765-3.748-24.584-2.348-5.086-5.663-9.356-10.919-11.765a10.56,10.56,0,0,0-3.932-1.024,8.129,8.129,0,0,0-2.185.279c-1.973.538-2.559,1.4-2.33,3.38.634,5.5,1.294,10.99,1.886,16.491a8.915,8.915,0,0,1-.11,3.108c-1.553,6.021-2.986,12.086-4.857,18.01-3.593,11.375-8.942,21.729-18.33,29.559a2.356,2.356,0,0,0-.551,1.812q3.193,28.125,6.487,56.239a2.52,2.52,0,0,0,.575,1.569c3.464,2.743,7.079,5.232,11.636,5.19.311-.012.626-.034.946-.07C231.838,179.153,242.654,177.872,253.473,176.621Z" transform="translate(-133.185 -37.337)"/><path class="ae" d="M168.55,215.919c4.511-.512,6.357-2.793,5.837-7.207q-4.466-37.841-8.933-75.682c-.479-4.056-2.317-5.971-5.931-6.057a13.83,13.83,0,0,0-1.449.086q-19.5,2.2-38.988,4.415c-4.9.558-6.729,2.851-6.16,7.687q2.217,18.834,4.445,37.667,2.233,18.921,4.469,37.841c.455,3.839,2.294,5.722,5.7,5.819a12.146,12.146,0,0,0,1.311-.075Q148.7,218.171,168.55,215.919Z" transform="translate(-106.125 -62.456)"/><path class="c" d="M279,110.418a3.2,3.2,0,0,1-.117-1.623c.428-2.563,1.22-5.1,1.319-7.675.168-4.4-.215-8.823-3.374-12.318-5.86-6.484-13.309-9.692-21.95-9.052-9.694.718-19.337,2.143-29,3.261l-1.785.206c.062-4.3.3-8.427.144-12.544-.342-8.936-2.482-17.388-7.6-24.876-3.945-5.771-9.044-10.021-16.082-11.433-6.016-1.207-11.695,1.2-14.22,6.046a6.776,6.776,0,0,0-.679,3.481,92.719,92.719,0,0,0,1.223,10.586c1.2,6.167.461,12.074-1.276,18.042-2.529,8.686-5.142,17.309-10.276,24.89-1.479,2.184-3.231,4.182-5.086,6.559a18.345,18.345,0,0,1-.491-1.852c-.85-6.644-7.437-11.942-15.348-10.9-12.936,1.707-25.92,3.053-38.884,4.553-8.333.964-13.183,7.061-12.223,15.374q4.393,38.024,8.792,76.047c.964,8.327,6.97,13.254,15.328,12.341,13.088-1.43,26.163-2.991,39.24-4.522a13.359,13.359,0,0,0,12.328-13.353c.191-.022.257-.051.3-.031.48.2.961.407,1.433.63a22.141,22.141,0,0,0,12.513,2.122c21.745-2.643,43.512-5.112,65.278-7.581a11.328,11.328,0,0,0,7.877-4.335,27.383,27.383,0,0,0,5.86-17.351,6.579,6.579,0,0,1,.879-2.636c1.252-2.53,2.92-4.91,3.8-7.556,1.444-4.319,1.085-8.849.593-13.329a3.005,3.005,0,0,1,.189-1.8C281.742,123.556,281.628,117.084,279,110.418Zm-113.427,77.1q-19.441,2.251-38.882,4.5a11.3,11.3,0,0,1-1.616.075c-3.547.019-5.455-1.855-5.916-5.819q-2.2-18.919-4.378-37.841-2.178-18.834-4.354-37.667c-.558-4.836,1.236-7.13,6.033-7.687q19.093-2.218,38.189-4.415a12.605,12.605,0,0,1,1.75-.086c3.758-.026,5.657,1.877,6.14,6.057q4.375,37.841,8.75,75.682C171.8,184.724,169.994,187.006,165.576,187.518Zm107.6-66.232a11.792,11.792,0,0,1-2.086,4.7,6.074,6.074,0,0,0-1.238,5.191,27.621,27.621,0,0,1,.142,11.094,10.422,10.422,0,0,1-3.815,6.469,4.107,4.107,0,0,0-1.623,4.3c.839,4.953-.5,9.453-3.077,13.64a5.887,5.887,0,0,1-4.7,2.881c-11,1.2-21.99,2.507-32.983,3.779-10.819,1.251-21.636,2.532-32.46,3.739a12.57,12.57,0,0,1-1.278.07c-4.715.171-8.419-2.381-11.967-5.19a2.52,2.52,0,0,1-.575-1.569q-3.28-28.116-6.487-56.239a2.356,2.356,0,0,1,.551-1.812c9.388-7.829,14.737-18.184,18.329-29.559,1.871-5.924,3.305-11.989,4.858-18.01a8.9,8.9,0,0,0,.11-3.108c-.592-5.5-1.251-10.995-1.885-16.491-.228-1.983.358-2.842,2.33-3.38a8.14,8.14,0,0,1,2.516-.279,10.336,10.336,0,0,1,4.263,1.024c5.256,2.409,8.571,6.679,10.919,11.765,3.61,7.819,4.291,16.122,3.748,24.584-.152,2.375-.469,4.742-.768,7.105-.411,3.253.814,4.983,3.648,5.087a9.517,9.517,0,0,0,1.03-.059c11.283-1.294,22.556-2.694,33.851-3.874a18.947,18.947,0,0,1,2.332-.1c5.246.007,9.811,2.242,13.672,5.919a8.357,8.357,0,0,1,1.989,4.287,33.112,33.112,0,0,1,.287,5.91,3.452,3.452,0,0,1-1.432,3.258c-1.525,1.1-1.466,3.138-.235,5.031A13.113,13.113,0,0,1,273.175,121.286Z" transform="translate(-103.175 -34.055)"/><path class="c" d="M207.711,173.668q-3.28-28.116-6.487-56.239a2.356,2.356,0,0,1,.551-1.812c9.387-7.829,14.737-18.184,18.33-29.559,1.871-5.924,3.3-11.989,4.857-18.01a8.915,8.915,0,0,0,.11-3.108c-.592-5.5-1.252-10.995-1.886-16.491-.228-1.983.358-2.842,2.33-3.38a8.129,8.129,0,0,1,2.185-.279,8.14,8.14,0,0,0-2.516.279c-1.973.538-2.559,1.4-2.33,3.38.634,5.5,1.294,10.99,1.885,16.491a8.9,8.9,0,0,1-.11,3.108c-1.553,6.021-2.986,12.086-4.858,18.01-3.592,11.375-8.942,21.729-18.329,29.559a2.356,2.356,0,0,0-.551,1.812q3.193,28.125,6.487,56.239a2.52,2.52,0,0,0,.575,1.569c3.548,2.809,7.252,5.361,11.967,5.19-4.556.042-8.172-2.448-11.636-5.19A2.52,2.52,0,0,1,207.711,173.668Z" transform="translate(-133.039 -37.334)"/><path class="c" d="M272.282,114.344c11.283-1.294,22.556-2.694,33.851-3.874a19.01,19.01,0,0,1,2-.1,18.947,18.947,0,0,0-2.332.1c-11.295,1.18-22.568,2.58-33.851,3.874a9.517,9.517,0,0,1-1.03.059A8.951,8.951,0,0,0,272.282,114.344Z" transform="translate(-154.448 -57.381)"/><path class="c" d="M122.644,214.669q-2.2-18.919-4.378-37.841-2.178-18.834-4.354-37.667c-.558-4.836,1.236-7.13,6.034-7.687q19.092-2.218,38.188-4.415a13.255,13.255,0,0,1,1.419-.086,12.6,12.6,0,0,0-1.75.086q-19.1,2.2-38.189,4.415c-4.8.558-6.591,2.851-6.033,7.687q2.173,18.834,4.354,37.667,2.187,18.921,4.378,37.841c.461,3.963,2.368,5.838,5.916,5.819C124.892,220.391,123.091,218.508,122.644,214.669Z" transform="translate(-106.325 -62.455)"/><path class="af" d="M310.641,114.837c-1.23-1.893-1.29-3.933.235-5.031a3.452,3.452,0,0,0,1.432-3.258,33.123,33.123,0,0,0-.287-5.911,8.366,8.366,0,0,0-1.989-4.286c-4.345-4.137-9.577-6.456-15.672-5.82-11.3,1.18-22.567,2.58-33.851,3.874-3.8.435-5.48-1.294-5.009-5.028.3-2.364.617-4.73.769-7.105.542-8.461-.138-16.765-3.749-24.584-2.348-5.086-5.662-9.356-10.919-11.765a9.265,9.265,0,0,0-6.448-.745c-1.706.465-2.372,1.174-2.374,2.638a9.283,9.283,0,0,1,6.393.758c5.256,2.409,8.571,6.679,10.919,11.765,3.61,7.819,4.29,16.122,3.748,24.584-.152,2.375-.469,4.742-.768,7.105-.472,3.734,1.21,5.463,5.009,5.028,11.283-1.294,22.555-2.694,33.851-3.874,6.095-.637,11.328,1.683,15.673,5.819a8.368,8.368,0,0,1,1.989,4.287,33.051,33.051,0,0,1,.287,5.911,3.45,3.45,0,0,1-1.432,3.258c-1.525,1.1-1.466,3.137-.235,5.031a13.118,13.118,0,0,1,2.034,9.835,11.794,11.794,0,0,1-2.087,4.7,6.072,6.072,0,0,0-1.238,5.191,27.633,27.633,0,0,1,.142,11.093,12.161,12.161,0,0,1-1.523,3.936c.048-.038.087-.079.137-.117a10.425,10.425,0,0,0,3.815-6.469,27.642,27.642,0,0,0-.142-11.093,6.073,6.073,0,0,1,1.237-5.192,11.792,11.792,0,0,0,2.086-4.7A13.116,13.116,0,0,0,310.641,114.837Z" transform="translate(-142.789 -37.366)"/><path class="af" d="M165.812,133.136c-.552-4.678-2.908-6.513-7.718-5.971q-19.5,2.2-38.989,4.415c-3.193.364-5.075,1.471-5.846,3.534a10.383,10.383,0,0,1,3.365-.883q19.493-2.219,38.989-4.415c4.81-.542,7.166,1.292,7.718,5.97q4.467,37.841,8.933,75.683a8.086,8.086,0,0,1-.3,3.75c2.27-1.088,3.162-3.171,2.781-6.4Q170.28,170.977,165.812,133.136Z" transform="translate(-106.257 -62.487)"/><circle class="s" cx="5.463" cy="5.463" r="5.463" transform="translate(40.369 78.012)"/></g></g><text class="ag" transform="translate(243.116 233.652)"><tspan x="0" y="0">+99</tspan></text></g></svg>