<svg xmlns="http://www.w3.org/2000/svg" width="284" height="211.641" viewBox="0 0 284 211.641"><defs><style>.a{fill:#d1e3ff;}.b{fill:#e3eeff;}.c{fill:#f3f8ff;}.d{fill:#cadefc;}.e{fill:#fff;}.f{fill:#f0f6ff;}.g{fill:#004daa;}.h{fill:#0053cc;}.i{fill:#0f73ea;}.j{fill:#ff8b7b;}.k{fill:#0f264c;}.l{fill:#407bff;}.m{fill:#ea7063;}.n{fill:#9fc6ff;}.o{fill:#77b3fc;}.p{fill:#ff5652;}</style></defs><g transform="translate(0 -54.953)"><g transform="translate(0 54.953)"><rect class="a" width="284" height="0.142" transform="translate(0 185.989)"/><rect class="a" width="19.541" height="0.142" transform="translate(57.466 192.005)"/><rect class="a" width="10.996" height="0.142" transform="translate(42.304 192.076)"/><rect class="a" width="22.288" height="0.142" transform="translate(99.4 191.742)"/><rect class="a" width="65.762" height="0.142" transform="translate(112.906 189.723)"/><rect class="a" width="30.096" height="0.142" transform="translate(204.867 189.794)"/><path class="a" d="M151.129,215.61H41.449a3.246,3.246,0,0,1-3.242-3.242V58.195a3.246,3.246,0,0,1,3.242-3.242h109.68a3.246,3.246,0,0,1,3.242,3.242V212.368A3.246,3.246,0,0,1,151.129,215.61ZM41.449,55.095a3.1,3.1,0,0,0-3.1,3.1V212.368a3.1,3.1,0,0,0,3.1,3.1h109.68a3.1,3.1,0,0,0,3.1-3.1V58.195a3.1,3.1,0,0,0-3.1-3.1Z" transform="translate(-16.505 -54.953)"/><path class="a" d="M367.426,215.61H257.747a3.246,3.246,0,0,1-3.242-3.242V58.195a3.245,3.245,0,0,1,3.242-3.242h109.68a3.246,3.246,0,0,1,3.243,3.242V212.368A3.246,3.246,0,0,1,367.426,215.61ZM257.747,55.095a3.1,3.1,0,0,0-3.1,3.1V212.368a3.1,3.1,0,0,0,3.1,3.1h109.68a3.1,3.1,0,0,0,3.1-3.1V58.195a3.1,3.1,0,0,0-3.1-3.1Z" transform="translate(-109.946 -54.953)"/><g transform="translate(41.071 18.468)"><g transform="translate(0 80.171)"><g transform="translate(66.887 31.805)"><path class="b" d="M203.513,284.61v0c-.312,0-.627.006-.943.028a13.451,13.451,0,0,0-12.042,16.912,67.334,67.334,0,0,1,2.108,17.515v17.2a2.258,2.258,0,0,0,2.258,2.258h54.592V284.61Z" transform="translate(-190.067 -284.61)"/><path class="c" d="M297.9,298.055a13.446,13.446,0,1,0-26.431,3.5,67.309,67.309,0,0,1,2.108,17.515v17.2a2.258,2.258,0,0,0,2.258,2.258h17.239a2.258,2.258,0,0,0,2.258-2.258V318.059a61.394,61.394,0,0,1,2.082-16.411A13.409,13.409,0,0,0,297.9,298.055Z" transform="translate(-225.031 -284.609)"/></g><rect class="b" width="49" height="32.735" transform="translate(58.777 52.986)"/><path class="d" d="M17.916,0H47.669A17.916,17.916,0,0,1,65.585,17.916V60.387a0,0,0,0,1,0,0H0a0,0,0,0,1,0,0V17.916A17.916,17.916,0,0,1,17.916,0Z" transform="translate(18.278)"/><path class="c" d="M17.053,0H48.532A17.053,17.053,0,0,1,65.585,17.053V60.387a0,0,0,0,1,0,0H0a0,0,0,0,1,0,0V17.053A17.053,17.053,0,0,1,17.053,0Z" transform="translate(31.09)"/><path class="d" d="M1.553,0H43.8A5.2,5.2,0,0,1,49,5.2V8.132a5.2,5.2,0,0,1-5.2,5.2H1.553A1.553,1.553,0,0,1,0,11.778V1.553A1.553,1.553,0,0,1,1.553,0Z" transform="translate(61.102 49.997)"/><g transform="translate(0 31.805)"><path class="b" d="M85.754,284.61v0c-.312,0-.627.006-.943.028a13.453,13.453,0,0,0-12.042,16.912,67.31,67.31,0,0,1,2.108,17.515v17.2a2.258,2.258,0,0,0,2.258,2.258h54.591V284.61Z" transform="translate(-72.308 -284.61)"/><path class="c" d="M180.136,298.055a13.447,13.447,0,1,0-26.431,3.5,67.31,67.31,0,0,1,2.108,17.515v17.2a2.258,2.258,0,0,0,2.258,2.258h17.238a2.258,2.258,0,0,0,2.258-2.258V318.059a61.394,61.394,0,0,1,2.082-16.411A13.433,13.433,0,0,0,180.136,298.055Z" transform="translate(-107.272 -284.609)"/></g><path class="d" d="M207.365,381.169H96.424a1.637,1.637,0,0,1-1.637-1.637H209A1.637,1.637,0,0,1,207.365,381.169Z" transform="translate(-82.019 -293.81)"/></g><g transform="translate(7.706 7.947)"><rect class="d" width="32.646" height="33.83"/><rect class="c" width="31.823" height="33.83" transform="translate(2.678)"/><rect class="e" width="28.498" height="26.491" transform="translate(31.835 2.666) rotate(90)"/><path class="c" d="M113.093,118.555,105.848,131.1h14.49Z" transform="translate(-94.503 -108.844)"/><g transform="translate(43.511 14.249)"><rect class="d" width="32.646" height="33.83"/><rect class="c" width="31.823" height="33.83" transform="translate(2.678)"/><rect class="e" width="28.498" height="26.491" transform="translate(31.835 2.666) rotate(90)"/><path class="c" d="M193.208,156.861l3.143-5.443a3.744,3.744,0,0,0-3.242-5.615h-6.285a3.744,3.744,0,0,0-3.242,5.615l3.143,5.443A3.743,3.743,0,0,0,193.208,156.861Z" transform="translate(-171.376 -134.864)"/></g></g><g transform="translate(150.549 64.378)"><g transform="translate(0 22.519)"><rect class="b" width="8.922" height="77.936" transform="translate(0 0)"/><rect class="b" width="49.422" height="2.689" transform="translate(2.354 77.936)"/><rect class="c" width="45.208" height="77.936" transform="translate(54.129 77.936) rotate(180)"/><rect class="b" width="35.568" height="13.916" transform="translate(49.309 54.499) rotate(180)"/><rect class="b" width="35.568" height="13.916" transform="translate(49.309 72.713) rotate(180)"/><rect class="c" width="12.106" height="1.908" rx="0.954" transform="translate(25.473 46.586)"/><rect class="c" width="12.106" height="1.908" rx="0.954" transform="translate(25.473 64.801)"/><rect class="b" width="35.568" height="13.916" transform="translate(49.309 18.214) rotate(180)"/><rect class="b" width="35.568" height="13.916" transform="translate(49.309 36.285) rotate(180)"/><rect class="c" width="12.106" height="1.908" rx="0.954" transform="translate(25.473 10.302)"/><rect class="c" width="12.106" height="1.908" rx="0.954" transform="translate(25.473 28.372)"/></g><g transform="translate(9.515)"><path class="c" d="M405.256,200.808h-8.379a38.472,38.472,0,0,1,1.455,7.978c0,2.955-6.372,14.541,2.735,14.541s2.734-11.586,2.734-14.541A38.471,38.471,0,0,1,405.256,200.808Z" transform="translate(-372.278 -200.808)"/><g transform="translate(0 2.743)"><path class="c" d="M367.688,209.643a4.006,4.006,0,1,1-4.006-4.006A4.005,4.005,0,0,1,367.688,209.643Z" transform="translate(-356.516 -205.637)"/><path class="c" d="M379.759,213A4.006,4.006,0,1,1,375.754,209,4.006,4.006,0,0,1,379.759,213Z" transform="translate(-361.73 -207.089)"/><path class="c" d="M390.072,210.289a4.006,4.006,0,1,1-4.006-4.006A4.005,4.005,0,0,1,390.072,210.289Z" transform="translate(-366.185 -205.916)"/><path class="b" d="M354.111,216.182v4.574c0,5.067,4.9,9.212,10.89,9.212h5.406c5.99,0,10.89-4.145,10.89-9.212v-4.574Z" transform="translate(-354.111 -210.192)"/></g></g></g><g transform="translate(130.326)"><path class="d" d="M314.711,157.7a11.377,11.377,0,0,1,0-22.754h1.4V157.7Z" transform="translate(-302.438 -107.98)"/><circle class="c" cx="11.377" cy="11.377" r="11.377" transform="matrix(0.228, -0.974, 0.974, 0.228, 0, 46.834)"/><path class="d" d="M325.644,130.537a1.42,1.42,0,0,1,0-2.84,12.3,12.3,0,0,0,12.283-12.283V96.533a1.42,1.42,0,1,1,2.84,0v18.881A15.14,15.14,0,0,1,325.644,130.537Z" transform="translate(-311.462 -90.77)"/><path class="c" d="M354.064,112.075H327.206l3-24.608h20.856Z" transform="translate(-312.75 -87.467)"/></g></g></g><g transform="translate(31.871 85.404)"><ellipse class="f" cx="110.129" cy="6.432" rx="110.129" ry="6.432" transform="translate(0 168.327)"/><g transform="translate(15.832)"><path class="g" d="M264.215,232.461l-.975-7.552a4.66,4.66,0,0,0-4.622-4.063H233.456a4.66,4.66,0,0,1-4.622-4.064L223.61,176.3a4.661,4.661,0,0,1,4.622-5.257h22.757a4.66,4.66,0,0,0,4.622-5.256l-.974-7.552a4.661,4.661,0,0,0-4.622-4.064H224.853a4.66,4.66,0,0,1-4.622-4.063l-4.836-37.478a4.659,4.659,0,0,0-4.622-4.064H203.3a4.661,4.661,0,0,0-4.622,5.257l4.528,35.092a4.66,4.66,0,0,1-4.622,5.256H137.671a4.66,4.66,0,0,1-4.622-4.063l-4.836-37.478a4.66,4.66,0,0,0-4.622-4.064h-7.474a4.66,4.66,0,0,0-4.622,5.257l4.528,35.092a4.66,4.66,0,0,1-4.622,5.256H88.645a4.661,4.661,0,0,0-4.622,5.257L85,166.978a4.66,4.66,0,0,0,4.622,4.063h25.162a4.661,4.661,0,0,1,4.622,4.064l5.223,40.484A4.66,4.66,0,0,1,120,220.846H97.249a4.66,4.66,0,0,0-4.622,5.256l.974,7.552a4.66,4.66,0,0,0,4.622,4.063h25.162a4.661,4.661,0,0,1,4.622,4.064l4.835,37.478a4.66,4.66,0,0,0,4.622,4.064h7.474a4.66,4.66,0,0,0,4.622-5.256l-4.528-35.093a4.66,4.66,0,0,1,4.622-5.257h60.912a4.661,4.661,0,0,1,4.622,4.064l4.836,37.478a4.659,4.659,0,0,0,4.622,4.064h7.474a4.66,4.66,0,0,0,4.622-5.256l-4.528-35.093a4.66,4.66,0,0,1,4.622-5.257h22.757A4.66,4.66,0,0,0,264.215,232.461ZM141.653,216.782,136.429,176.3a4.661,4.661,0,0,1,4.622-5.257h60.912a4.66,4.66,0,0,1,4.622,4.064l5.224,40.484a4.661,4.661,0,0,1-4.622,5.257H146.275A4.661,4.661,0,0,1,141.653,216.782Z" transform="translate(-83.984 -108.564)"/><path class="h" d="M199.187,271.889l-.557-4.315.563-.073.557,4.315Zm79.691-58.049-2-15.475.564-.073,2,15.475ZM184.41,157.36l-.8-6.217.563-.073.8,6.217Zm-1.3-10.038-1.362-10.549.564-.073,1.362,10.549Z" transform="translate(-126.22 -120.719)"/><path class="h" d="M278.87,232.461l-.975-7.552a4.66,4.66,0,0,0-4.622-4.063H248.112a4.66,4.66,0,0,1-4.622-4.064L238.266,176.3a4.661,4.661,0,0,1,4.622-5.257h22.757a4.66,4.66,0,0,0,4.622-5.256l-.974-7.552a4.661,4.661,0,0,0-4.622-4.064H239.509a4.66,4.66,0,0,1-4.622-4.063l-4.836-37.478a4.66,4.66,0,0,0-4.622-4.064h-7.474a4.661,4.661,0,0,0-4.622,5.257l4.528,35.092a4.66,4.66,0,0,1-4.622,5.256H152.327a4.66,4.66,0,0,1-4.622-4.063l-4.836-37.478a4.66,4.66,0,0,0-4.622-4.064h-7.474a4.66,4.66,0,0,0-4.622,5.257l4.528,35.092a4.66,4.66,0,0,1-4.622,5.256H103.3a4.661,4.661,0,0,0-4.622,5.257l.975,7.552a4.66,4.66,0,0,0,4.622,4.063h25.162a4.661,4.661,0,0,1,4.622,4.064l5.223,40.484a4.66,4.66,0,0,1-4.622,5.257H111.9a4.66,4.66,0,0,0-4.622,5.256l.974,7.552a4.66,4.66,0,0,0,4.622,4.063h25.162a4.661,4.661,0,0,1,4.622,4.064l4.835,37.478a4.66,4.66,0,0,0,4.622,4.064h7.474a4.66,4.66,0,0,0,4.622-5.256l-4.528-35.093a4.66,4.66,0,0,1,4.622-5.257h60.912a4.661,4.661,0,0,1,4.622,4.064l4.836,37.478a4.659,4.659,0,0,0,4.622,4.064h7.474a4.66,4.66,0,0,0,4.622-5.256l-4.528-35.093a4.66,4.66,0,0,1,4.622-5.257h22.757A4.66,4.66,0,0,0,278.87,232.461ZM156.309,216.782,151.085,176.3a4.661,4.661,0,0,1,4.622-5.257h60.912a4.66,4.66,0,0,1,4.622,4.064l5.224,40.484a4.661,4.661,0,0,1-4.622,5.257H160.93A4.661,4.661,0,0,1,156.309,216.782Z" transform="translate(-90.316 -108.564)"/><path class="i" d="M248.017,282.932h-7.474a3.034,3.034,0,0,1-3-2.64l-4.836-37.478a6.307,6.307,0,0,0-6.241-5.488H165.552a6.294,6.294,0,0,0-6.242,7.1l4.528,35.093a3.027,3.027,0,0,1-3,3.414h-7.474a3.034,3.034,0,0,1-3-2.64l-4.836-37.478a6.309,6.309,0,0,0-6.241-5.488H114.12a3.033,3.033,0,0,1-3-2.64l-.975-7.552a3.028,3.028,0,0,1,3-3.415H135.9a6.293,6.293,0,0,0,6.241-7.1l-5.223-40.483a6.309,6.309,0,0,0-6.242-5.487H105.517a3.034,3.034,0,0,1-3-2.64l-.975-7.551a3.028,3.028,0,0,1,3-3.415H127.3a6.293,6.293,0,0,0,6.241-7.1l-4.528-35.092a3.026,3.026,0,0,1,3-3.415h7.474a3.033,3.033,0,0,1,3,2.639l4.837,37.478a6.307,6.307,0,0,0,6.241,5.487h60.912a6.293,6.293,0,0,0,6.242-7.1l-4.528-35.092a3.026,3.026,0,0,1,3-3.415h7.474a3.033,3.033,0,0,1,3,2.639l4.836,37.478a6.309,6.309,0,0,0,6.242,5.487h25.162a3.034,3.034,0,0,1,3,2.639l.974,7.552a3.028,3.028,0,0,1-3,3.415H244.131a6.293,6.293,0,0,0-6.242,7.1l5.224,40.484a6.308,6.308,0,0,0,6.242,5.487h25.162a3.034,3.034,0,0,1,3,2.641l.974,7.551a3.027,3.027,0,0,1-3,3.414H252.734a6.294,6.294,0,0,0-6.242,7.1l4.528,35.093a3.027,3.027,0,0,1-3,3.414Zm-82.465-45.748h60.912a6.449,6.449,0,0,1,6.382,5.612l4.836,37.478a2.892,2.892,0,0,0,2.862,2.516h7.474a2.884,2.884,0,0,0,2.861-3.255l-4.528-35.092a6.436,6.436,0,0,1,6.383-7.259H275.49a2.884,2.884,0,0,0,2.861-3.255l-.974-7.551a2.892,2.892,0,0,0-2.862-2.516H249.354a6.45,6.45,0,0,1-6.383-5.612l-5.224-40.484a6.436,6.436,0,0,1,6.383-7.258h22.756a2.886,2.886,0,0,0,2.861-3.255l-.974-7.552a2.892,2.892,0,0,0-2.862-2.516H240.75a6.451,6.451,0,0,1-6.383-5.611L229.532,114.1a2.891,2.891,0,0,0-2.861-2.516H219.2a2.885,2.885,0,0,0-2.862,3.254l4.528,35.092a6.435,6.435,0,0,1-6.383,7.258H153.569a6.449,6.449,0,0,1-6.382-5.611L142.351,114.1a2.891,2.891,0,0,0-2.861-2.516h-7.474a2.884,2.884,0,0,0-2.862,3.254l4.528,35.092a6.435,6.435,0,0,1-6.382,7.258H104.543a2.885,2.885,0,0,0-2.862,3.255l.974,7.551a2.892,2.892,0,0,0,2.861,2.517h25.162a6.451,6.451,0,0,1,6.383,5.611l5.223,40.484a6.435,6.435,0,0,1-6.382,7.258H113.146a2.887,2.887,0,0,0-2.862,3.255l.975,7.552a2.891,2.891,0,0,0,2.861,2.515h25.162a6.451,6.451,0,0,1,6.382,5.612l4.836,37.478a2.891,2.891,0,0,0,2.862,2.516h7.474a2.884,2.884,0,0,0,2.861-3.255l-4.528-35.092a6.437,6.437,0,0,1,6.383-7.259Zm57.532-13.322H162.173a6.451,6.451,0,0,1-6.383-5.612l-5.223-40.484a6.436,6.436,0,0,1,6.383-7.258h60.912a6.451,6.451,0,0,1,6.382,5.611l5.223,40.484a6.434,6.434,0,0,1-6.382,7.258Zm-66.136-53.211a6.293,6.293,0,0,0-6.242,7.1l5.223,40.484a6.309,6.309,0,0,0,6.242,5.487h60.912a6.293,6.293,0,0,0,6.241-7.1L224.1,176.139a6.309,6.309,0,0,0-6.241-5.487Z" transform="translate(-91.557 -109.806)"/></g><g transform="translate(78.888 38.691)"><path class="j" d="M275.917,367.285l4.463,2.61,6.73-9.933-4.463-2.609Z" transform="translate(-229.956 -254.731)"/><path class="k" d="M277.541,375.626l-3.666-4.5a.409.409,0,0,0-.534-.1l-3.982,2.388a.831.831,0,0,0-.19,1.223c1.306,1.548,2.014,2.23,3.627,4.211.992,1.218,2.917,3.842,4.287,5.525,1.34,1.646,3.107.418,2.687-.406-1.882-3.692-1.957-5.687-1.93-7.469A1.347,1.347,0,0,0,277.541,375.626Z" transform="translate(-226.959 -260.612)"/><path class="l" d="M285.47,382.412a.673.673,0,0,1-.106-.009c-.728-.114-1.5-1.384-1.9-2.132a.086.086,0,0,1,.012-.1.087.087,0,0,1,.1-.02c.239.1,2.34,1.029,2.468,1.722a.359.359,0,0,1-.111.334A.652.652,0,0,1,285.47,382.412Zm-1.727-2c.6,1.075,1.208,1.748,1.648,1.817a.469.469,0,0,0,.424-.148.187.187,0,0,0,.062-.179C285.792,381.448,284.471,380.751,283.743,380.414Z" transform="translate(-233.213 -264.577)"/><path class="l" d="M285.22,380.151a4.52,4.52,0,0,1-1.714-.342.089.089,0,0,1-.048-.072.087.087,0,0,1,.038-.078,3.429,3.429,0,0,1,2.006-.652.852.852,0,0,1,.569.377c.175.265.11.436.025.531A1.229,1.229,0,0,1,285.22,380.151Zm-1.493-.434c.7.277,1.982.375,2.24.085.024-.027.1-.11-.04-.322a.681.681,0,0,0-.458-.3A2.982,2.982,0,0,0,283.727,379.717Z" transform="translate(-233.213 -264.077)"/><path class="j" d="M259.574,237.127l.214.865.243.934c.168.626.352,1.254.543,1.882.366,1.262.763,2.524,1.2,3.777s.869,2.511,1.348,3.755c.235.624.466,1.25.714,1.87l.29.744a1.482,1.482,0,0,0,.225.356,6.579,6.579,0,0,0,2.518,1.591,23.544,23.544,0,0,0,3.581,1.111c1.259.295,2.557.539,3.869.739,1.3.221,2.658.368,3.951.51l.047,2.671a41.092,41.092,0,0,1-8.53,0,24.854,24.854,0,0,1-4.38-.849,14.468,14.468,0,0,1-2.254-.888,8.7,8.7,0,0,1-2.268-1.594,6.437,6.437,0,0,1-1-1.287c-.074-.12-.138-.253-.2-.382l-.131-.266-.23-.473c-.308-.63-.614-1.262-.9-1.9-.575-1.28-1.14-2.571-1.635-3.891s-.983-2.647-1.415-4c-.206-.682-.405-1.367-.59-2.063l-.269-1.054c-.082-.373-.154-.688-.237-1.137Z" transform="translate(-220.607 -202.794)"/><path class="h" d="M255.657,226.95c2.131.542,3.621,9.311,3.621,9.311l-5.871,3.993s-5.63-8.846-3.991-11.188C251.122,226.626,252.547,226.158,255.657,226.95Z" transform="translate(-218.378 -198.245)"/><path class="g" d="M257.168,232.83l-4.561,1.056-.437,4.459a51.692,51.692,0,0,0,2.556,4.6l3.561-2.42C258.134,238.476,257.748,234.216,257.168,232.83Z" transform="translate(-219.697 -200.938)"/><path class="j" d="M294.794,266.164l3.667-3.716.482,5.235s-2.75,1.861-4.652.861Z" transform="translate(-237.893 -213.733)"/><path class="j" d="M305.943,261.47l.166,4.4-4,1.386-.482-5.235Z" transform="translate(-241.065 -213.31)"/><path class="j" d="M262.968,383.726h5.17l1.662-11.972h-5.17Z" transform="translate(-224.361 -260.953)"/><path class="k" d="M266.168,387.991l-5.126-2.73a.409.409,0,0,0-.53.118l-2.744,3.745a.83.83,0,0,0,.3,1.2c1.8.921,2.721,1.275,4.975,2.475,1.387.738,4.867,2.776,6.782,3.8,1.874,1,3.026-.82,2.32-1.416-3.166-2.673-4.7-4.85-5.363-6.5A1.348,1.348,0,0,0,266.168,387.991Z" transform="translate(-222.052 -266.766)"/><path class="k" d="M210.59,185.193c-.129,5.683-7.082,3.333-7.859,9.877-.437,3.68-4.893,4.056-5.7,7.4-.773,3.219,2.367,5.561,0,9.569-3.169,5.366-4.941,14.729,12.84,15.7,13.226.721,17.873-12.708,15.634-20.965s-3.5-9.524-1.036-11.8,6.4-3.438,5.142-10.35c-.976-5.365-3.349-4.734-3.349-4.734C226.162,176.915,210.876,172.555,210.59,185.193Z" transform="translate(-194.999 -176.681)"/><g transform="translate(39.407 102.622)"><path class="m" d="M289.585,359.964l-3.468,5.121-4.465-2.611,3.468-5.121Z" transform="translate(-271.84 -357.354)"/><path class="m" d="M265.237,371.759h5.172l-.859,6.171h-5.172Z" transform="translate(-264.378 -363.577)"/></g><path class="h" d="M239.952,226.08s2.463.867-2.471,31.2h-21c.353-8.546.362-13.815-3.722-31.352a61.946,61.946,0,0,1,8.916-1.175,66.769,66.769,0,0,1,9.534,0C235.308,225.129,239.952,226.08,239.952,226.08Z" transform="translate(-202.673 -197.375)"/><path class="j" d="M229.4,205.986c.6,3.068,1.2,8.689-.945,10.736,0,0,.838,3.112,6.539,3.112,5.483,0,3-3.112,3-3.112-3.42-.817-3.332-3.355-2.737-5.739Z" transform="translate(-209.454 -189.341)"/><path class="m" d="M234.242,209.576l3.464,2.956a9.8,9.8,0,0,0-.294,1.692c-1.307-.189-3.1-1.623-3.241-2.992A4.6,4.6,0,0,1,234.242,209.576Z" transform="translate(-211.905 -190.892)"/><path class="j" d="M229.139,186.974c-.592,5.1-.952,7.241,1.131,10.284,3.134,4.577,9.523,4.19,11.626-.627,1.893-4.336,2.544-11.942-2.032-14.83A7,7,0,0,0,229.139,186.974Z" transform="translate(-209.549 -178.411)"/><path class="k" d="M228.577,189.193c.718,1.339,11.762-4.763,10.5-8.045a3.5,3.5,0,0,0-4.542-2.087s-5.835,1.326-6.814,4.355A7.324,7.324,0,0,0,228.577,189.193Z" transform="translate(-209.013 -177.618)"/><path class="j" d="M225.692,196.637a3.892,3.892,0,0,0,1.325,2.539c1,.847,1.992.1,2.131-1.125.125-1.1-.244-2.863-1.444-3.239A1.589,1.589,0,0,0,225.692,196.637Z" transform="translate(-208.255 -184.48)"/><path class="n" d="M244.535,282.152s32.682,3.144,32.343,18.91c-.352,16.4-12.129,31.164-12.129,31.164l-6.174-3.494s6.791-14.431,6.463-24.266c-.281-8.408-31.622-10.018-31.622-10.018l-4.324-12.3Z" transform="translate(-209.727 -222.245)"/><path class="o" d="M276.33,298.42l.659,6.7c4.572,1.431,8.088,3.391,8.435,6.055C286.2,305.247,282.061,301.743,276.33,298.42Z" transform="translate(-230.134 -229.272)"/><path class="n" d="M234.094,282.152s22.4,7.431,22.967,16.624c1.04,16.93-6.4,39.249-6.4,39.249h-7.05s.4-14.809,1.242-30.148c1.059-19.273-32.945-.266-26.209-25.725Z" transform="translate(-204.831 -222.245)"/><path class="k" d="M242.492,196.142c-.073.411.085.782.353.83s.546-.246.619-.657-.085-.782-.353-.83S242.566,195.731,242.492,196.142Z" transform="translate(-215.508 -184.803)"/><path class="k" d="M250.661,197.6c-.074.411.084.783.353.83s.545-.246.619-.656-.085-.783-.353-.83S250.734,197.193,250.661,197.6Z" transform="translate(-219.037 -185.434)"/><path class="k" d="M251.548,196.872l1.037-.108S251.941,197.443,251.548,196.872Z" transform="translate(-219.428 -185.357)"/><path class="p" d="M247.9,198.962a11.126,11.126,0,0,0,.995,2.881,1.794,1.794,0,0,1-1.513.013Z" transform="translate(-217.629 -186.307)"/><path class="k" d="M241.815,204.386a.083.083,0,0,1-.03-.006,3.561,3.561,0,0,1-1.807-1.927.078.078,0,0,1,.047-.1.079.079,0,0,1,.1.047,3.464,3.464,0,0,0,1.72,1.835.078.078,0,0,1-.03.15Z" transform="translate(-214.428 -187.77)"/><path class="k" d="M241.482,192.718a.156.156,0,0,1-.1-.273,2.337,2.337,0,0,1,2.07-.583.156.156,0,0,1-.082.3,2.02,2.02,0,0,0-1.781.515A.158.158,0,0,1,241.482,192.718Z" transform="translate(-215.012 -183.218)"/><path class="k" d="M253.861,193.624a.155.155,0,0,1-.143-.094,2.046,2.046,0,0,0-1.4-1.216.157.157,0,0,1-.128-.18.156.156,0,0,1,.181-.128,2.334,2.334,0,0,1,1.634,1.4.156.156,0,0,1-.081.205A.148.148,0,0,1,253.861,193.624Z" transform="translate(-219.704 -183.301)"/><path class="l" d="M274.619,392.41a3.725,3.725,0,0,1-1.9-1.044.087.087,0,0,1,.049-.151c.207-.019,2.053-.175,2.444.333a.386.386,0,0,1,.048.384.666.666,0,0,1-.46.457A.755.755,0,0,1,274.619,392.41Zm-1.624-1.039c.748.626,1.4.945,1.767.849a.493.493,0,0,0,.34-.348.212.212,0,0,0-.022-.219C274.827,391.326,273.635,391.332,272.995,391.371Z" transform="translate(-228.563 -269.344)"/><path class="l" d="M272.78,390.277a.087.087,0,0,1-.074-.041.085.085,0,0,1,0-.086c.03-.055.728-1.352,1.442-1.523a.6.6,0,0,1,.506.094.389.389,0,0,1,.19.454c-.157.523-1.434,1.085-2.058,1.1Zm1.522-1.5a.474.474,0,0,0-.116.015c-.509.122-1.047.954-1.248,1.293.6-.093,1.619-.571,1.737-.963.019-.064.026-.16-.123-.264A.428.428,0,0,0,274.3,388.78Z" transform="translate(-228.563 -268.233)"/><path class="k" d="M243.38,195.41l1.037-.107S243.773,195.982,243.38,195.41Z" transform="translate(-215.9 -184.726)"/><path class="k" d="M218.622,279.863l-.168,1.879c-.073.146.1.295.342.295h21.24c.189,0,.346-.093.358-.212l.189-1.88c.014-.13-.151-.24-.358-.24H218.964A.38.38,0,0,0,218.622,279.863Z" transform="translate(-205.124 -221.188)"/><path class="n" d="M223.21,282.113h-.569c-.114,0-.2-.059-.192-.13l.267-2.442c.008-.071.107-.13.22-.13h.57c.113,0,.2.059.192.13l-.268,2.442C223.423,282.055,223.323,282.113,223.21,282.113Z" transform="translate(-206.857 -221.061)"/><path class="n" d="M253.067,282.113H252.5c-.114,0-.2-.059-.192-.13l.267-2.442c.008-.071.107-.13.22-.13h.569c.114,0,.2.059.192.13l-.267,2.442C253.279,282.055,253.18,282.113,253.067,282.113Z" transform="translate(-219.755 -221.061)"/><path class="n" d="M238.138,282.113h-.57c-.113,0-.2-.059-.192-.13l.267-2.442c.008-.071.107-.13.22-.13h.57c.114,0,.2.059.192.13l-.267,2.442C238.351,282.055,238.251,282.113,238.138,282.113Z" transform="translate(-213.306 -221.061)"/></g><path class="g" d="M219.4,241.29,216.69,243.6c.579,3.067.966,5.623,1.216,7.9C218.411,249.214,219.7,243.034,219.4,241.29Z" transform="translate(-125.481 -165.902)"/><g transform="translate(83.133 67.13)"><path class="e" d="M290.426,256.6H253.579l-5.34,21.759h36.847Z" transform="translate(-222.243 -239.647)"/><path class="e" d="M261.506,287.776l-22.536,5.255-14.463-4.053.149-1.2Z" transform="translate(-211.991 -253.114)"/><path class="j" d="M211.453,238.823c-.441,1.444-.918,2.941-1.341,4.42-.442,1.481-.876,2.961-1.263,4.442s-.754,2.959-1.039,4.409c-.14.724-.265,1.443-.352,2.127a10.578,10.578,0,0,0-.095,1.439,2.566,2.566,0,0,0,.624,1.032,9.2,9.2,0,0,0,1.422,1.256,26.861,26.861,0,0,0,3.733,2.234c1.336.688,2.734,1.315,4.158,1.895,1.41.6,2.88,1.152,4.3,1.677l-.64,2.594c-1.63-.257-3.179-.619-4.757-1.016-1.563-.425-3.12-.9-4.672-1.477a27.144,27.144,0,0,1-4.61-2.188,13.823,13.823,0,0,1-2.253-1.7,7.075,7.075,0,0,1-1.923-2.9,5.572,5.572,0,0,1-.225-1.041l-.026-.274-.01-.2-.014-.366c-.011-.48,0-.933.024-1.379.047-.886.144-1.729.264-2.558.237-1.658.553-3.257.925-4.837a93.558,93.558,0,0,1,2.649-9.3Z" transform="translate(-202.471 -231.228)"/><path class="h" d="M208.714,226.867c-2.1.64-5.323,8.9-5.323,8.9l8.161,5.835s3.669-7.059,2.785-9.778C213.417,228.987,211.115,226.137,208.714,226.867Z" transform="translate(-202.869 -226.751)"/><path class="j" d="M232.892,283.394l4.9-1.242-2.336,4.709s-3.317.141-4.411-1.707Z" transform="translate(-214.817 -250.684)"/><path class="j" d="M245.113,283.941l-2.169,3.837-4.128-.916,2.336-4.71Z" transform="translate(-218.172 -250.684)"/><path class="k" d="M292.423,256.6H255.576l-5.34,21.759h36.847Z" transform="translate(-223.105 -239.647)"/><path class="k" d="M286.968,294.91l-.149,1.2H249.97l.149-1.2Z" transform="translate(-222.991 -256.196)"/></g><path class="k" d="M245.609,184.233c4.966,1.988,5.374,4.848,5.112,2.826a7.59,7.59,0,0,0-4.481-5.651C245.236,181,243.438,183.364,245.609,184.233Z" transform="translate(-137.531 -140.013)"/><path class="h" d="M229.788,190.888l-.333.388a.291.291,0,0,0,.025.4l2.678,2.446a.289.289,0,0,0,.392,0l.462-.428a.289.289,0,0,0-.009-.432l-2.806-2.407A.29.29,0,0,0,229.788,190.888Z" transform="translate(-130.966 -144.084)"/><g transform="translate(123.429 17.212)"><path class="n" d="M305.391,155.017c-.867-8.923-8.71-16.154-17.518-16.15s-15.246,7.24-14.38,16.164a18.234,18.234,0,0,0,9.258,13.946l-.143,5.668,4.726-3.888a16.319,16.319,0,0,0,3.676.425C299.82,171.177,306.258,163.94,305.391,155.017Z" transform="translate(-273.415 -138.867)"/><g transform="translate(5.913 7.994)"><path class="e" d="M295.3,158.289c-3.9-1.171-6.656-5.347-6.656-5.347s-1.206-.068-1.157,1.029a6.038,6.038,0,0,0,1.959,3.987l-1.831-.1a5.752,5.752,0,0,0-1.907.207l-.588.168a1.839,1.839,0,0,0-1.176,2.432l1.215,3.587a5.1,5.1,0,0,0,2.253,2.75,4.6,4.6,0,0,0,2.991.606c1.829-.275,4.675-.705,5.167-.795h0l1.309-.114-.333-8.047Z" transform="translate(-283.826 -152.942)"/><path class="l" d="M310.916,170.994l-5.1,0a.819.819,0,0,1-.792-.73l-.888-9.14a.65.65,0,0,1,.65-.731l5.1,0a.819.819,0,0,1,.792.73l.888,9.14A.65.65,0,0,1,310.916,170.994Z" transform="translate(-292.598 -156.161)"/></g></g><g transform="translate(32.104 51.327)"><path class="l" d="M153.106,224.655l-5.1-4.848a18,18,0,0,0-.036-3.03c-.958-9.862-9.625-17.853-19.36-17.849s-16.85,8-15.892,17.864,9.625,17.853,19.36,17.848a15.651,15.651,0,0,0,14.387-8.918Z" transform="translate(-112.633 -198.928)"/><path class="n" d="M143.75,217.718c-2.663-2.455-6.594-2.453-8.78,0-2.663-2.455-6.594-2.454-8.78,0s-1.8,6.439.863,8.895l9.644,8.891,7.917-8.9C146.8,224.155,146.413,220.173,143.75,217.718Z" transform="translate(-117.877 -206.25)"/></g><path class="n" d="M226.867,224.216c.055.433.533,2.563,4.592,3.363a10.067,10.067,0,0,0-1.885,4.451s-7.111-2.787-4.958-7.308a.269.269,0,0,1,.184-.144l1.979-.419A.07.07,0,0,1,226.867,224.216Z" transform="translate(-128.73 -158.5)"/><path class="n" d="M243.663,224.75c.486.517,1.82,2.271-1.551,3.077a6.48,6.48,0,0,1,2.729,4.28s5.052-3.471.458-7.244a.077.077,0,0,0-.037-.016l-1.536-.213A.07.07,0,0,0,243.663,224.75Z" transform="translate(-136.463 -158.706)"/></g></g></svg>