<svg xmlns="http://www.w3.org/2000/svg" xmlns:xlink="http://www.w3.org/1999/xlink" width="777.682" height="472" viewBox="0 0 777.682 472"><defs><style>.a{fill:none;}.b{fill:url(#a);}.c{fill:#e1e1e1;}.d{clip-path:url(#b);}.ag,.aj,.e,.t,.w{fill:#fff;}.f{fill:url(#c);}.g{fill:#dee1e7;}.h{fill:#eac389;}.i{fill:url(#d);}.j{fill:url(#e);}.k{fill:url(#f);}.ai,.l{fill:#2d2355;}.m{fill:#e8bfaf;}.n{fill:#e9af9e;}.o{fill:#46348f;}.p{fill:url(#g);}.q{fill:url(#h);}.r{fill:url(#i);}.s{fill:#8074c2;}.t{opacity:0.26;}.u{fill:url(#j);}.v{fill:#e0edeb;}.w{opacity:0.3;}.x{fill:#d1944c;}.y{fill:#c8a272;}.z{fill:url(#k);}.aa{fill:url(#l);}.ab{fill:#2a3053;}.ac{fill:url(#m);}.ad{opacity:0.28;fill:url(#n);}.ae{fill:#9f8ff0;}.af{fill:#3e2c79;}.ag{font-size:41px;}.ag,.aj{font-family:Helvetica;}.ah{fill:url(#o);}.ai{opacity:0.24;}.aj{font-size:37px;letter-spacing:0.025em;}.ak{fill:#dbe5ee;}.al{fill:url(#p);}.am{fill:#7493fc;}</style><linearGradient id="a" x1="4.01" y1="-6.47" x2="5.046" y2="-6.47" gradientUnits="objectBoundingBox"><stop offset="0" stop-color="#b7e9b3"/><stop offset="1" stop-color="#91d3ab"/></linearGradient><clipPath id="b"><path class="a" d="M2.863,0H527.718a2.863,2.863,0,0,1,2.863,2.863V347.992a2.864,2.864,0,0,1-2.864,2.864H2.863A2.863,2.863,0,0,1,0,347.992V2.863A2.863,2.863,0,0,1,2.863,0Z"/></clipPath><linearGradient id="c" x1="0.495" y1="-2.592" x2="0.508" y2="5.706" gradientUnits="objectBoundingBox"><stop offset="0.134" stop-color="#cb6573"/><stop offset="1" stop-color="#66428d"/></linearGradient><linearGradient id="d" y1="0.5" x2="1" y2="0.5" gradientUnits="objectBoundingBox"><stop offset="0" stop-color="#76b6de"/><stop offset="1" stop-color="#9bebf1"/></linearGradient><linearGradient id="e" x1="4.454" y1="-12.145" x2="5.34" y2="-12.145" xlink:href="#a"/><linearGradient id="f" x1="0.628" y1="-2.524" x2="1.289" y2="-1.571" gradientUnits="objectBoundingBox"><stop offset="0" stop-color="#91d592"/><stop offset="1" stop-color="#5fa79c"/></linearGradient><linearGradient id="g" x1="0.513" y1="2.84" x2="0.502" y2="0.651" xlink:href="#c"/><linearGradient id="h" x1="0.883" y1="1.991" x2="0.343" y2="-0.095" xlink:href="#c"/><linearGradient id="i" x1="0.061" y1="1.284" x2="0.864" y2="0.016" xlink:href="#c"/><linearGradient id="j" x1="0.428" y1="1.046" x2="0.464" y2="0.518" gradientUnits="objectBoundingBox"><stop offset="0" stop-color="#76b6de"/><stop offset="1" stop-color="#9bebf1" stop-opacity="0"/></linearGradient><linearGradient id="k" y1="0.5" x2="1" y2="0.5" gradientUnits="objectBoundingBox"><stop offset="0" stop-color="#fff"/><stop offset="0.992" stop-color="#e5e5e5"/></linearGradient><linearGradient id="l" x1="0.668" y1="1.362" x2="0.461" y2="0.324" xlink:href="#j"/><linearGradient id="m" x1="0" y1="0.5" x2="1" y2="0.5" xlink:href="#k"/><linearGradient id="n" x1="1112.063" y1="-573.065" x2="1113.063" y2="-573.065" xlink:href="#k"/><linearGradient id="o" x1="0.593" y1="0.049" x2="0.48" y2="0.822" xlink:href="#d"/><linearGradient id="p" x1="0.464" y1="-0.027" x2="0.543" y2="0.975" xlink:href="#d"/></defs><g transform="translate(-276.606 -169.067)"><g transform="translate(945.277 458.035)"><path class="b" d="M622.9,465.46c-12.1-.972-22-12.245-26.434-23.547a33.339,33.339,0,0,1,6.354-33.958c5.678-6.177,13.842-10.319,17.479-17.883,4.323-9,.882-20.086,4.462-29.406,3.344-8.7,11.973-13.983,18.182-20.937,4.731-5.3,8.092-11.651,12.078-17.536s8.875-11.51,15.416-14.284,15.04-1.932,19.56,3.548c3.879,4.7,4,11.468,2.9,17.462s-3.226,11.874-3.161,17.971c.1,9.212,5.125,17.523,9.018,25.874s6.7,18.359,2.469,26.546c-4.426,8.566-15.463,12.777-18.333,21.983-1.793,5.75.133,11.908.528,17.917A35.028,35.028,0,0,1,622.9,465.46" transform="translate(-594.322 -306.369)"/><g transform="translate(41.192 40.641)"><path class="c" d="M613.963,454.324a6.166,6.166,0,0,1-.065-1.36c-.015-.892.036-2.208.145-3.9a98.045,98.045,0,0,1,2.168-14.173c1.29-5.922,3.3-12.849,5.569-20.5s4.771-16.075,7.394-24.91c5.274-17.666,10.113-33.64,13.669-45.186,1.8-5.737,3.252-10.393,4.27-13.655.52-1.576.926-2.814,1.219-3.7a6.119,6.119,0,0,1,.5-1.267,5.8,5.8,0,0,1-.276,1.332c-.242.9-.579,2.157-1.01,3.759-.937,3.288-2.271,7.979-3.917,13.76-3.359,11.607-8.071,27.617-13.347,45.283-2.652,8.825-5.18,17.231-7.48,24.885-2.323,7.64-4.407,14.516-5.792,20.379a114.519,114.519,0,0,0-2.517,14.032c-.177,1.675-.3,2.978-.36,3.866A6.047,6.047,0,0,1,613.963,454.324Z" transform="translate(-613.895 -325.679)"/></g><g transform="translate(57.953 85.77)"><path class="c" d="M651.627,347.268c.006.194-1.936.309-4.982.918a43.932,43.932,0,0,0-5.259,1.4,42.112,42.112,0,0,0-11.754,6.127,43.631,43.631,0,0,0-4.159,3.511c-2.244,2.151-3.454,3.675-3.607,3.557-.1-.069.882-1.783,3.022-4.129a34.678,34.678,0,0,1,4.1-3.786,37.129,37.129,0,0,1,12.076-6.295,34.787,34.787,0,0,1,5.449-1.191C649.661,346.969,651.627,347.142,651.627,347.268Z" transform="translate(-621.859 -347.121)"/></g><g transform="translate(47.796 125.234)"><path class="c" d="M645.718,365.97c.017.187-1.856.4-4.782,1.1a46.2,46.2,0,0,0-5.049,1.519,43.79,43.79,0,0,0-11.3,6.131,46.08,46.08,0,0,0-4.026,3.4c-2.18,2.075-3.376,3.529-3.525,3.414-.107-.076.865-1.717,2.942-3.988a35.434,35.434,0,0,1,3.957-3.673,37.819,37.819,0,0,1,11.594-6.291,35.44,35.44,0,0,1,5.236-1.317C643.8,365.76,645.713,365.842,645.718,365.97Z" transform="translate(-617.032 -365.873)"/></g><g transform="translate(39.338 78.843)"><path class="c" d="M627.7,379.627c-.177.019-.495-2.168-1.174-5.655a84.635,84.635,0,0,0-3.679-13.329,64.434,64.434,0,0,0-3.121-6.922,50.845,50.845,0,0,0-3.258-5.276c-2.048-2.883-3.588-4.47-3.449-4.611.082-.088,1.842,1.3,4.1,4.121a41.433,41.433,0,0,1,3.536,5.251,54,54,0,0,1,3.271,7.029,64.2,64.2,0,0,1,3.4,13.6C627.816,377.392,627.843,379.617,627.7,379.627Z" transform="translate(-613.014 -343.83)"/></g><g transform="translate(32.411 117.929)"><path class="c" d="M621.478,394.811c-.192-.015-.1-2-.36-5.173a47.943,47.943,0,0,0-.781-5.52,45.787,45.787,0,0,0-4.628-12.773,48.887,48.887,0,0,0-2.938-4.738c-1.835-2.6-3.178-4.07-3.039-4.2.088-.093,1.65,1.183,3.694,3.71a37.423,37.423,0,0,1,3.214,4.71,40.064,40.064,0,0,1,4.746,13.093,37.57,37.57,0,0,1,.549,5.674C621.985,392.846,621.6,394.826,621.478,394.811Z" transform="translate(-609.722 -362.402)"/></g></g><g transform="translate(449.528 275.47)"><g class="d"><rect class="e" width="530.581" height="350.854" rx="2.863" transform="translate(-1.084 -0.09)"/><g transform="translate(-0.436 -2.717)"><path class="f" d="M876.748,218.333l-506.129,1.282c-7.535,0-12.28,1.435-12.049,9.694,0,0,.187,8.82.452,11.613,7.743-.194,531.37.072,531.37.072V229.309C890.392,223.245,884.285,218.333,876.748,218.333Z" transform="translate(-358.562 -218.333)"/></g><path class="e" d="M373.777,224.953a2.835,2.835,0,1,1-2.835-2.833A2.835,2.835,0,0,1,373.777,224.953Z" transform="translate(-348.455 -216.866)"/><path class="e" d="M380.232,224.953a2.834,2.834,0,1,1-2.835-2.833A2.835,2.835,0,0,1,380.232,224.953Z" transform="translate(-341.322 -216.866)"/><path class="e" d="M386.69,224.953a2.835,2.835,0,1,1-2.835-2.833A2.835,2.835,0,0,1,386.69,224.953Z" transform="translate(-334.191 -216.866)"/><rect class="g" width="531.008" height="21.056" transform="translate(-0.427 19.855)"/><g transform="translate(28.341 80.74)"><rect class="g" width="35.326" height="31.34" transform="translate(125.453)"/><rect class="g" width="35.325" height="31.34" transform="translate(165.023)"/><rect class="g" width="35.326" height="31.339" transform="translate(125.453 36.134)"/><rect class="g" width="35.325" height="31.339" transform="translate(165.023 36.134)"/><rect class="g" width="35.326" height="31.338" transform="translate(125.224 71.704)"/><rect class="g" width="35.326" height="31.338" transform="translate(164.793 71.704)"/><rect class="h" width="69.927" height="9.284" transform="translate(224.94 21.366)"/><rect class="h" width="110.357" height="9.282" transform="translate(224.94 5.613)"/><rect class="g" width="174.663" height="9.282" transform="translate(224.94 49.039)"/><rect class="g" width="116.15" height="103.042"/><g transform="translate(43.338 111.653)"><rect class="g" width="4.99" height="4.99"/><rect class="g" width="4.99" height="4.99" transform="translate(12.453)"/><rect class="g" width="4.989" height="4.99" transform="translate(24.484)"/></g><path class="i" d="M570.421,317H491.666a11.144,11.144,0,0,1-11.144-11.144h0a11.142,11.142,0,0,1,11.144-11.144h78.755a11.145,11.145,0,0,1,11.144,11.144h0A11.146,11.146,0,0,1,570.421,317Z" transform="translate(-252.62 -217.421)"/></g><g transform="translate(22.487 232.807)"><rect class="g" width="62.465" height="55.418"/><rect class="g" width="163.254" height="4.993" transform="translate(69.484 28.669)"/><rect class="h" width="37.607" height="4.993" transform="translate(69.484 12.906)"/><rect class="h" width="59.35" height="4.992" transform="translate(69.484 4.435)"/><rect class="g" width="163.254" height="4.993" transform="translate(69.484 39.548)"/><rect class="g" width="93.935" height="4.993" transform="translate(69.484 50.425)"/></g><g transform="translate(270.85 232.807)"><rect class="g" width="62.465" height="55.418"/><rect class="g" width="163.255" height="4.993" transform="translate(69.483 28.669)"/><rect class="h" width="37.608" height="4.993" transform="translate(69.483 12.906)"/><rect class="h" width="59.35" height="4.992" transform="translate(69.483 4.435)"/><rect class="g" width="163.255" height="4.993" transform="translate(69.483 39.548)"/><rect class="g" width="93.936" height="4.993" transform="translate(69.483 50.425)"/></g><g transform="translate(22.487 312.006)"><rect class="g" width="62.465" height="55.416"/><rect class="g" width="163.254" height="4.992" transform="translate(69.484 28.669)"/><rect class="h" width="37.607" height="4.992" transform="translate(69.484 12.906)"/><rect class="h" width="59.35" height="4.993" transform="translate(69.484 4.433)"/><rect class="g" width="163.254" height="4.992" transform="translate(69.484 39.546)"/><rect class="g" width="93.935" height="4.992" transform="translate(69.484 50.424)"/></g><g transform="translate(270.85 312.006)"><rect class="g" width="62.465" height="55.416"/><rect class="g" width="163.255" height="4.992" transform="translate(69.483 28.669)"/><rect class="h" width="37.608" height="4.992" transform="translate(69.483 12.906)"/><rect class="h" width="59.35" height="4.993" transform="translate(69.483 4.433)"/><rect class="g" width="163.255" height="4.992" transform="translate(69.483 39.546)"/><rect class="g" width="93.936" height="4.992" transform="translate(69.483 50.424)"/></g></g><rect class="g" width="6.607" height="294.443" transform="translate(514.74 52.025)"/></g><g transform="translate(276.607 387.472)"><g transform="translate(0 107.564)"><path class="j" d="M359.725,452.39c-7.147,7.76-20.173,8.5-30.281,5.478A28.984,28.984,0,0,1,309.6,435.328c-1.185-7.2.354-15.006-2.875-21.547-3.843-7.781-13.278-11.365-17.738-18.809-4.163-6.949-3.157-15.688-4.592-23.662-1.092-6.078-3.639-11.782-5.531-17.662s-3.125-12.243-1.517-18.205,6.733-11.331,12.908-11.489c5.3-.139,9.991,3.407,13.505,7.373s6.4,8.57,10.605,11.79c6.36,4.868,14.741,5.882,22.543,7.69s16.157,5.251,19.5,12.533c3.492,7.619.463,17.431,5.226,24.327,2.976,4.306,8.221,6.289,12.546,9.239a30.447,30.447,0,0,1-14.45,55.484" transform="translate(-276.606 -323.949)"/><g transform="translate(16.587 19.069)"><path class="c" d="M364.306,439.757a6,6,0,0,1-1.111-.787c-.711-.539-1.715-1.389-2.98-2.515a97.812,97.812,0,0,1-9.824-10.445c-3.868-4.666-8.082-10.519-12.714-17.02l-15.059-21.175c-10.66-15.044-20.259-28.7-27.158-38.616-3.412-4.95-6.179-8.966-8.122-11.78l-2.159-3.235a5.852,5.852,0,0,1-.688-1.174,6.165,6.165,0,0,1,.88,1.038c.558.743,1.341,1.785,2.336,3.113,2.012,2.763,4.883,6.705,8.421,11.567,7.071,9.795,16.774,23.376,27.434,38.42l14.985,21.225c4.586,6.541,8.715,12.417,12.48,17.123a114.1,114.1,0,0,0,9.5,10.628c1.212,1.174,2.164,2.073,2.822,2.667A6.094,6.094,0,0,1,364.306,439.757Z" transform="translate(-284.488 -333.009)"/></g><g transform="translate(51.415 37.84)"><path class="c" d="M309.008,341.932c.156.114-.947,1.715-2.349,4.489a44.793,44.793,0,0,0-2.138,5,42.154,42.154,0,0,0-2.42,13.034,44.241,44.241,0,0,0,.2,5.438c.314,3.092.766,4.984.581,5.034-.12.038-.861-1.793-1.391-4.927a34.687,34.687,0,0,1-.455-5.558,36.961,36.961,0,0,1,2.486-13.39,34.62,34.62,0,0,1,2.42-5.024C307.562,343.3,308.909,341.854,309.008,341.932Z" transform="translate(-301.036 -341.929)"/></g><g transform="translate(76.3 70.986)"><path class="c" d="M320.06,357.68c.158.1-.831,1.707-2.086,4.443a46.7,46.7,0,0,0-1.915,4.914,43.766,43.766,0,0,0-2.134,12.67,45.8,45.8,0,0,0,.2,5.268c.288,3,.7,4.834.514,4.883-.124.036-.819-1.743-1.326-4.778a35.524,35.524,0,0,1-.453-5.379,37.792,37.792,0,0,1,2.191-13.007,35.376,35.376,0,0,1,2.191-4.935C318.715,359.059,319.955,357.6,320.06,357.68Z" transform="translate(-312.86 -357.678)"/></g><g transform="translate(24.008 70.884)"><path class="c" d="M325.247,368.825c-.095.151-2.012-.947-5.179-2.561a84.381,84.381,0,0,0-12.762-5.316,64.316,64.316,0,0,0-7.375-1.81,50.937,50.937,0,0,0-6.162-.684c-3.531-.166-5.731.069-5.754-.126-.023-.12,2.159-.648,5.771-.69a40.374,40.374,0,0,1,6.316.448,54.366,54.366,0,0,1,7.549,1.757,64.085,64.085,0,0,1,12.809,5.7C323.557,367.36,325.323,368.707,325.247,368.825Z" transform="translate(-288.014 -357.629)"/></g><g transform="translate(50.516 100.499)"><path class="c" d="M333.367,383.052c-.128.141-1.642-1.155-4.3-2.906a48.417,48.417,0,0,0-4.828-2.787,45.718,45.718,0,0,0-12.912-4.226,47.426,47.426,0,0,0-5.541-.608c-3.178-.158-5.163-.006-5.182-.2-.019-.128,1.949-.57,5.2-.623a37.753,37.753,0,0,1,5.689.373,40.026,40.026,0,0,1,13.238,4.333,37.171,37.171,0,0,1,4.807,3.064C332.13,381.44,333.456,382.959,333.367,383.052Z" transform="translate(-300.609 -371.7)"/></g></g><g transform="translate(46.866)"><path class="k" d="M358.527,506.9c-15.85,5.485-34.646-3.279-46.525-15.12a46.075,46.075,0,0,1-10.818-46.5c3.757-10.971,11.788-20.745,12.19-32.335.476-13.785-10.037-25.906-10.679-39.687-.6-12.863,7.385-24.344,11.38-36.589,3.045-9.334,3.772-19.238,5.55-28.9s4.836-19.5,11.575-26.636,17.957-10.795,26.722-6.371c7.52,3.8,11.424,12.291,13.36,20.488s2.511,16.818,5.977,24.494c5.241,11.607,16.214,19.331,25.777,27.737S421.707,367,420.9,379.7c-.844,13.3-12.47,24.757-10.99,38,.922,8.269,6.775,14.993,10.614,22.376,9.13,17.572,6,40.727-7.469,55.242S376.73,514.692,358.527,506.9" transform="translate(-298.875 -272.841)"/><path class="c" d="M353.507,497.041a8.19,8.19,0,0,1-.991-1.928c-.6-1.286-1.376-3.229-2.307-5.758a153.109,153.109,0,0,1-5.948-22.017c-1.919-9.446-3.426-20.817-5.026-33.4-1.587-12.607-3.332-26.449-5.163-40.981-3.6-29.09-6.747-55.436-8.915-74.521-1.084-9.542-1.924-17.266-2.456-22.612-.267-2.673-.457-4.75-.56-6.162a8.217,8.217,0,0,1-.051-2.166,8.214,8.214,0,0,1,.48,2.113c.244,1.4.568,3.456.962,6.112.787,5.314,1.858,13.011,3.136,22.528,2.555,19.036,5.937,45.353,9.54,74.443,1.772,14.541,3.46,28.389,5,41,1.492,12.611,2.835,23.944,4.55,33.365A184.277,184.277,0,0,0,351,489.09C352.6,494.2,353.675,496.972,353.507,497.041Z" transform="translate(-273.278 -256.657)"/><path class="c" d="M361.4,315.306c.152.314-2.58,1.764-6.6,4.611a71.741,71.741,0,0,0-6.726,5.411A67.73,67.73,0,0,0,334.9,341.719a72.1,72.1,0,0,0-3.835,7.735c-1.913,4.544-2.74,7.522-3.079,7.444-.24-.048.061-3.178,1.656-7.985a54.023,54.023,0,0,1,3.523-8.155,58.211,58.211,0,0,1,13.589-16.917,54.091,54.091,0,0,1,7.2-5.2C358.314,316.051,361.306,315.08,361.4,315.306Z" transform="translate(-266.793 -225.968)"/><path class="c" d="M364.75,345.98c.164.3-2.408,1.837-6.2,4.742A71.4,71.4,0,0,0,336,379.774c-1.873,4.392-2.723,7.263-3.058,7.181-.244-.053.084-3.077,1.635-7.726A58.658,58.658,0,0,1,357.67,349.48C361.791,346.824,364.641,345.755,364.75,345.98Z" transform="translate(-261.324 -192.081)"/><path class="c" d="M352.459,367.827c-.284.16-2.176-2.8-5.415-7.423a137.83,137.83,0,0,0-13.891-17,103.846,103.846,0,0,0-8.938-8.08,82.673,82.673,0,0,0-8.08-5.615c-4.8-2.911-8.04-4.272-7.909-4.607.074-.221,3.546.644,8.658,3.281a63.822,63.822,0,0,1,8.536,5.367,85.107,85.107,0,0,1,9.273,8.147,99.793,99.793,0,0,1,13.623,17.677C351.268,364.462,352.692,367.7,352.459,367.827Z" transform="translate(-288.549 -215.151)"/><path class="c" d="M353.094,393.911c-.326.116-1.5-2.82-3.927-7.25a78.221,78.221,0,0,0-4.681-7.505,73.573,73.573,0,0,0-14.867-15.6,78.778,78.778,0,0,0-7.269-5.041c-4.31-2.633-7.185-3.952-7.053-4.272.084-.231,3.191.594,7.8,2.946a58.375,58.375,0,0,1,7.72,4.784,62.847,62.847,0,0,1,15.307,16.065,58.666,58.666,0,0,1,4.405,7.943C352.656,390.695,353.33,393.837,353.094,393.911Z" transform="translate(-280.738 -182.968)"/></g></g><g transform="translate(730.695 501.047)"><g transform="translate(44.997 3.349)"><path class="l" d="M544.026,339.4a10.142,10.142,0,0,0-13.148-10.557c-5.2,1.637-8.141,6.992-10.559,11.881q-2.6,5.253-5.2,10.506a13.813,13.813,0,0,0-1.376,6.284c.025,4.363,1.675,8.473,3.5,9.646,4.815,3.1,10.784,1.256,16.494,1.631,3.264.217,3.395,2.336,6.665,2.444,3.241.107,8.945,0,12.783-1.658,2.978-1.288,4.243-1.366,6.209-3.946-4.413-.32-4.834-4.112-5.668-8.456s-.229-8.869-1.063-13.213c-.442-2.313-1.408-4.693-3.374-5.99s-5.1-.945-6.129,1.174" transform="translate(-513.745 -328.397)"/><path class="m" d="M519.578,331.29l.278,27.857,5.177,1.747-1.048,11.361,11.744,1.787s3.694-35.292,3.851-35.768S519.578,331.29,519.578,331.29Z" transform="translate(-507.301 -325.201)"/><path class="l" d="M524.416,336.748a8.375,8.375,0,0,0-2.14.3c-1.126.4-1.926,1.021-2,.926a3.2,3.2,0,0,1,1.863-1.334A2.387,2.387,0,0,1,524.416,336.748Z" transform="translate(-506.542 -319.521)"/><path class="l" d="M522.658,339.006a.731.731,0,1,1-.73-.73A.729.729,0,0,1,522.658,339.006Z" transform="translate(-505.515 -317.484)"/><path class="l" d="M527.106,339.066a.659.659,0,1,1-.659-.659A.658.658,0,0,1,527.106,339.066Z" transform="translate(-500.442 -317.339)"/><path class="l" d="M529.213,337.594c-.069.105-.852-.345-1.913-.566s-1.957-.145-1.978-.269a3.691,3.691,0,0,1,3.891.835Z" transform="translate(-500.958 -319.437)"/><path class="n" d="M524.706,341.152a2.264,2.264,0,0,1-4.335.122c-.086-.886.863-1.64,2.121-1.675S524.74,340.262,524.706,341.152Z" transform="translate(-506.432 -316.024)"/><path class="n" d="M528.954,341.16a1.78,1.78,0,1,1-1.7-1.684A1.7,1.7,0,0,1,528.954,341.16Z" transform="translate(-500.859 -316.16)"/><path class="n" d="M526.081,342.157a1.335,1.335,0,1,1-2.054,1.309,2.812,2.812,0,0,1,.305-1.791A2.852,2.852,0,0,1,526.081,342.157Z" transform="translate(-502.395 -313.769)"/><path class="n" d="M526.284,342.511a1.334,1.334,0,1,1-2.052,1.309,1.223,1.223,0,1,1,2.052-1.309Z" transform="translate(-502.169 -313.378)"/><path class="n" d="M527.8,347.544c-.2.56-1.608.577-3.155.036s-2.639-1.433-2.443-2,1.608-.577,3.155-.036S528,346.982,527.8,347.544Z" transform="translate(-504.426 -309.887)"/><g transform="translate(30.686 20.63)"><path class="m" d="M528.961,338.831s4.287-2.065,4.287,1.269-1.271,4.763-4.923,4.287" transform="translate(-528.325 -338.199)"/><path class="n" d="M528.994,341.606c.12-.084.36,0,.608-.116a.748.748,0,0,0,.4-.764,1.84,1.84,0,0,0-.442-1.008c-.166-.164-.4-.13-.522-.2-.156-.038.025-.6.745-.528a1.8,1.8,0,0,1,1.294,1.669,1.419,1.419,0,0,1-1.456,1.593C528.97,342.142,528.863,341.658,528.994,341.606Z" transform="translate(-527.64 -337.333)"/></g><path class="l" d="M518.612,339.818c.657,3.969,4.23,3.641,8.959,2.311s11.759-2.686,11.759-2.686v9.513l1.6-2.214,1.3-7.265-20.665-9.547-3.2,7.945" transform="translate(-508.644 -326.703)"/><path class="l" d="M524.784,345.893c-.025.027-.3-.154-.669-.575a5.638,5.638,0,0,1-1.122-2.016l-.12-.372.4.149c.4.154.766.295,1.12.429.372.118.941.461.833.158.347-3.1,0-5.657.135-5.67a5.191,5.191,0,0,1,.318,1.656,19.565,19.565,0,0,1-.027,4.075.545.545,0,0,1-.3.457.64.64,0,0,1-.472-.025c-.21-.086-.419-.171-.633-.257l-1.162-.486.276-.221A9.36,9.36,0,0,0,524.784,345.893Z" transform="translate(-503.662 -317.793)"/><path class="l" d="M527.4,341.6c.118.013-.227,1.176-1.444,1.867a2.536,2.536,0,0,1-2.34.314,9.151,9.151,0,0,0,2.124-.686C526.824,342.488,527.291,341.54,527.4,341.6Z" transform="translate(-502.837 -313.818)"/><path class="l" d="M521.564,338.926c-.04.109-.37.084-.669-.16s-.389-.562-.29-.623.322.095.564.288S521.608,338.812,521.564,338.926Z" transform="translate(-506.21 -317.648)"/><path class="l" d="M521.505,338.84c-.114.04-.278-.135-.421-.36s-.227-.45-.141-.537.337.034.507.307S521.617,338.8,521.505,338.84Z" transform="translate(-505.832 -317.881)"/><path class="l" d="M527.14,338.179c.078.088-.017.3-.213.467s-.417.232-.495.141.019-.3.213-.467S527.063,338.088,527.14,338.179Z" transform="translate(-499.759 -317.637)"/><path class="l" d="M527.609,338.533c.038.112-.179.286-.484.392s-.585.1-.623-.017.179-.288.484-.392S527.571,338.42,527.609,338.533Z" transform="translate(-499.657 -317.299)"/></g><g transform="translate(0 92.369)"><g transform="translate(75.335 36.05)"><path class="e" d="M528.179,387.823l24.552,2.757a2.047,2.047,0,0,1,1.44,3.218h0a2.047,2.047,0,0,1-1.684.861l-22.907-.192Z" transform="translate(-528.139 -387.823)"/><path class="l" d="M538.932,388.807a12.809,12.809,0,0,1-.575,4.641,12.8,12.8,0,0,1,.575-4.641Z" transform="translate(-516.974 -386.736)"/><path class="l" d="M535.855,389.108c.118.017.12.716,0,1.562s-.3,1.517-.421,1.5-.12-.716-.006-1.562S535.737,389.093,535.855,389.108Z" transform="translate(-520.22 -386.404)"/><path class="l" d="M535.262,389.04a3.429,3.429,0,0,1-.015,1.686c-.126.913-.322,1.642-.44,1.625s-.111-.77.013-1.684S535.144,389.023,535.262,389.04Z" transform="translate(-520.911 -386.479)"/><path class="l" d="M534.562,388.916c.118.019.086.775-.07,1.686s-.377,1.635-.495,1.616a3.437,3.437,0,0,1,.069-1.688C534.223,389.619,534.446,388.9,534.562,388.916Z" transform="translate(-521.791 -386.616)"/><path class="l" d="M533.723,388.988a7.254,7.254,0,0,1-.419,3.483,7.255,7.255,0,0,1,.419-3.483Z" transform="translate(-522.577 -386.536)"/><path class="l" d="M534.284,390.768a1.981,1.981,0,0,1-.716-.076,10.7,10.7,0,0,1-1.877-.56c-.337-.145-.981-.36-.974-1.067a1.1,1.1,0,0,1,1.427-.8,2.618,2.618,0,0,1,1.839,2.972,7.631,7.631,0,0,1-1.45,3.317.67.67,0,0,1-.478.259.514.514,0,0,1-.486-.316,1.287,1.287,0,0,1,.008-.857,4.763,4.763,0,0,1,.549-1.269,4.549,4.549,0,0,1,1.376-1.421,1.633,1.633,0,0,1,.652-.309,6.443,6.443,0,0,0-1.766,1.884,4.669,4.669,0,0,0-.465,1.2.956.956,0,0,0-.011.612c.067.122.164.128.322-.046a7.657,7.657,0,0,0,1.318-3.1,2.236,2.236,0,0,0-1.492-2.542c-.467-.13-.947.084-.989.452-.046.349.383.6.737.749C533.293,390.513,534.3,390.7,534.284,390.768Z" transform="translate(-525.335 -387.388)"/><path class="l" d="M528.16,387.842a2.3,2.3,0,0,1,.512.01c.45.036.928.074,1.452.114l5.335.495,7.907.8a31.643,31.643,0,0,1,9.521,2.189,1.157,1.157,0,0,1,.543.558.893.893,0,0,1-.1.808,2.136,2.136,0,0,1-1.153.774,11.629,11.629,0,0,1-2.477.482c-1.637.139-3.2.187-4.7.246-2.993.105-5.689.12-7.951.086s-4.1-.109-5.358-.179l-1.454-.1a2.331,2.331,0,0,1-.505-.065,2.16,2.16,0,0,1,.509-.021c.45,0,.93.01,1.456.017l5.352.04c2.26,0,4.952-.05,7.937-.177,1.49-.072,3.066-.128,4.672-.271a11.219,11.219,0,0,0,2.384-.467,1.745,1.745,0,0,0,.926-.6c.189-.28.059-.577-.293-.755a32.2,32.2,0,0,0-9.357-2.172c-2.9-.326-5.55-.623-7.9-.888-2.048-.242-3.818-.452-5.32-.631l-1.444-.194A2.289,2.289,0,0,1,528.16,387.842Z" transform="translate(-528.16 -387.812)"/></g><path class="o" d="M568.407,397.392l-74.468-22.9-1.351,7.011a12.218,12.218,0,0,0,9.338,14.242l61.562,13.735Z" transform="translate(-492.365 -366.494)"/><path class="p" d="M560.873,386.925l-67.76-8.229L497,396.189l59.83,6.968h20.541l39.9-14.654a6.745,6.745,0,0,0,3.98-8.73l-3.456-9.079Z" transform="translate(-491.538 -370.694)"/><path class="q" d="M570.384,398.958,493.723,374.5l-.9,4.658a14.534,14.534,0,0,0,11.255,16.972l62.943,13.358Z" transform="translate(-492.149 -366.494)"/><path class="r" d="M523.463,418.345l60.676-23.227a12.305,12.305,0,0,0,6.941-16.269l-3.431-8.155L520.4,409.1l.432,1.307.242.722Z" transform="translate(-461.396 -370.694)"/><g transform="translate(34.386 38.216)"><path class="e" d="M535.459,395.389H510.751a2.045,2.045,0,0,1-1.789-3.035h0a2.037,2.037,0,0,1,1.578-1.044l22.783-2.368Z" transform="translate(-508.703 -388.753)"/><path class="l" d="M511.057,394.642a12.776,12.776,0,0,1,.053-4.674,12.767,12.767,0,0,1-.053,4.674Z" transform="translate(-506.314 -387.619)"/><path class="l" d="M514,393.177c-.118,0-.2-.7-.179-1.549s.131-1.543.25-1.541.2.7.179,1.551S514.124,393.181,514,393.177Z" transform="translate(-503.048 -387.488)"/><path class="l" d="M514.617,393.306c-.118,0-.2-.751-.175-1.673s.137-1.669.257-1.665a3.451,3.451,0,0,1,.175,1.673C514.85,392.565,514.737,393.31,514.617,393.306Z" transform="translate(-502.368 -387.619)"/><path class="l" d="M515.355,393.351c-.12-.008-.172-.762-.118-1.686s.194-1.667.312-1.661a3.445,3.445,0,0,1,.118,1.686C515.614,392.615,515.473,393.358,515.355,393.351Z" transform="translate(-501.51 -387.578)"/><path class="l" d="M516.146,393.275a3.738,3.738,0,0,1-.2-1.755,3.782,3.782,0,0,1,.229-1.751,7.264,7.264,0,0,1-.029,3.506Z" transform="translate(-500.703 -387.839)"/><path class="l" d="M517.031,393.124a1.909,1.909,0,0,1,.718,0,10.645,10.645,0,0,1,1.928.347c.351.107,1.014.248,1.086.951a1.1,1.1,0,0,1-1.328.958,2.624,2.624,0,0,1-2.159-2.749,7.655,7.655,0,0,1,1.069-3.458.68.68,0,0,1,.448-.311.52.52,0,0,1,.518.261,1.285,1.285,0,0,1,.086.85,4.723,4.723,0,0,1-.4,1.324,4.569,4.569,0,0,1-1.206,1.566,1.672,1.672,0,0,1-.614.381,6.486,6.486,0,0,0,1.543-2.071,4.643,4.643,0,0,0,.328-1.246.981.981,0,0,0-.057-.608c-.08-.114-.181-.112-.316.08a7.668,7.668,0,0,0-.964,3.226,2.237,2.237,0,0,0,1.766,2.359c.478.078.932-.189.935-.56.006-.351-.45-.553-.817-.663C518.043,393.267,517.021,393.2,517.031,393.124Z" transform="translate(-499.504 -388.852)"/><path class="l" d="M534.905,395.148a2.355,2.355,0,0,1-.507.046l-1.456.051q-2.267.041-5.356.1l-7.947.093a31.607,31.607,0,0,1-9.706-1.113,1.127,1.127,0,0,1-.6-.495.879.879,0,0,1,0-.812,2.143,2.143,0,0,1,1.059-.9,11.472,11.472,0,0,1,2.41-.753c1.612-.322,3.159-.545,4.641-.772,2.961-.438,5.64-.753,7.894-.972s4.081-.349,5.344-.421l1.456-.065a2.3,2.3,0,0,1,.509.008,2.195,2.195,0,0,1-.5.078l-1.45.145-5.325.558c-2.245.257-4.914.6-7.867,1.061-1.471.238-3.033.474-4.611.793a11.149,11.149,0,0,0-2.319.73,1.748,1.748,0,0,0-.852.7c-.156.3.006.581.377.718a32.1,32.1,0,0,0,9.54,1.113c2.913,0,5.586,0,7.945,0l5.358.034,1.456.032A2.169,2.169,0,0,1,534.905,395.148Z" transform="translate(-508.116 -388.545)"/></g></g><path class="s" d="M529.491,340.883c-.074-.01.257-.467.932-.24a1.567,1.567,0,0,1,.594,2.208,1.315,1.315,0,0,1-2.2.015c-.335-.579-.116-1-.078-.966.067,0,0,.385.326.791a.994.994,0,0,0,1.591-.072,1.307,1.307,0,0,0-.356-1.7A1.149,1.149,0,0,0,529.491,340.883Z" transform="translate(-452.304 -311.589)"/><g transform="translate(22.694 47.454)"><path class="m" d="M546.85,369.971c.37.836,4.014,7.9,4.014,7.9L523.4,385.322l.716,7.939s41.434-3.818,39.99-10.765a76.408,76.408,0,0,0-6.453-18.434Z" transform="translate(-480.771 -333.105)"/><path class="g" d="M507.234,368.813S517.147,357,519.679,355.1a25.438,25.438,0,0,1,19.615-5.485c10.336,1.477,29.248.9,36.067,17.929,4.342,10.841,5.485,16.662,5.485,16.662s-9.281,4.218-16.029,2.953l-5.131-11.544s-3.094.627-.415,16.4l3.4,16.843-42.45,3.189,3.464-37.332-4.851,4.508Z" transform="translate(-498.634 -349.353)"/><path class="m" d="M522.921,367.6c-.549.728-5.672,6.8-5.672,6.8l25.11,13.383-2.469,7.581s-39.542-12.95-36.585-19.4a76.351,76.351,0,0,1,10.4-16.534Z" transform="translate(-503.148 -338.218)"/><path class="t" d="M515.36,357.125a2.435,2.435,0,1,1-2.435-2.433A2.435,2.435,0,0,1,515.36,357.125Z" transform="translate(-495.038 -343.455)"/><path class="t" d="M516.313,363.942a2.436,2.436,0,1,1,0-3.445A2.436,2.436,0,0,1,516.313,363.942Z" transform="translate(-493.198 -337.831)"/><path class="t" d="M520.442,359.7a2.435,2.435,0,1,1,0-3.443A2.436,2.436,0,0,1,520.442,359.7Z" transform="translate(-488.639 -342.513)"/><ellipse class="t" cx="2.436" cy="2.436" rx="2.436" ry="2.436" transform="translate(29.633 1.589)"/><path class="t" d="M524.779,362.693a2.435,2.435,0,1,1,0-3.443A2.436,2.436,0,0,1,524.779,362.693Z" transform="translate(-483.846 -339.209)"/><ellipse class="t" cx="2.435" cy="2.435" rx="2.435" ry="2.435" transform="translate(41.392 5.579)"/><path class="t" d="M534.9,362.693a2.435,2.435,0,1,1,0-3.443A2.436,2.436,0,0,1,534.9,362.693Z" transform="translate(-472.665 -339.209)"/><path class="t" d="M519.661,365.626a2.435,2.435,0,1,1,0-3.445A2.438,2.438,0,0,1,519.661,365.626Z" transform="translate(-489.499 -335.971)"/><path class="t" d="M524.616,374a2.437,2.437,0,1,1,0-3.445A2.442,2.442,0,0,1,524.616,374Z" transform="translate(-484.028 -326.721)"/><ellipse class="t" cx="2.435" cy="2.435" rx="2.435" ry="2.435" transform="translate(49.116 39.874)"/><path class="t" d="M519.285,370.619a2.435,2.435,0,1,1,0-3.443A2.436,2.436,0,0,1,519.285,370.619Z" transform="translate(-489.917 -330.453)"/><path class="t" d="M532.822,368.173a2.435,2.435,0,1,1,0-3.443A2.434,2.434,0,0,1,532.822,368.173Z" transform="translate(-474.962 -333.155)"/><ellipse class="t" cx="2.435" cy="2.435" rx="2.435" ry="2.435" transform="translate(48.05 23.607)"/><path class="t" d="M525.4,368.8a2.435,2.435,0,1,1,0-3.445A2.438,2.438,0,0,1,525.4,368.8Z" transform="translate(-483.158 -332.467)"/><path class="t" d="M531.178,360a2.435,2.435,0,1,1,0-3.443A2.432,2.432,0,0,1,531.178,360Z" transform="translate(-476.778 -342.178)"/><path class="t" d="M537.711,358.262a2.435,2.435,0,1,1,0-3.445A2.438,2.438,0,0,1,537.711,358.262Z" transform="translate(-469.562 -344.105)"/><path class="t" d="M541.9,362.41a2.435,2.435,0,1,1,0-3.443A2.434,2.434,0,0,1,541.9,362.41Z" transform="translate(-464.934 -339.521)"/><path class="t" d="M538.859,367.327a2.436,2.436,0,1,1,0-3.445A2.436,2.436,0,0,1,538.859,367.327Z" transform="translate(-468.295 -334.092)"/><path class="t" d="M543.246,368.173a2.435,2.435,0,1,1,0-3.443A2.436,2.436,0,0,1,543.246,368.173Z" transform="translate(-463.447 -333.155)"/><path class="t" d="M533.572,355.22a2.435,2.435,0,1,1,0-3.445A2.434,2.434,0,0,1,533.572,355.22Z" transform="translate(-474.133 -347.466)"/></g><g transform="translate(36.807)"><path class="u" d="M518.278,433.4l-8.424-106.59h62.585L561.589,437.2Z" transform="translate(-509.854 -326.805)"/><g transform="translate(4.811 82.025)"><path class="v" d="M512.14,395.037l1.161-29.258,48.354.781-.719,29.767Z" transform="translate(-512.14 -365.779)"/><path class="e" d="M527.2,373.592a2.268,2.268,0,1,1-2.262-2.113A2.191,2.191,0,0,1,527.2,373.592Z" transform="translate(-500.503 -359.483)"/><path class="w" d="M527.47,375.961a3.172,3.172,0,0,1-4.272,0,2.7,2.7,0,0,1,0-3.993,3.177,3.177,0,0,1,4.272,0A2.693,2.693,0,0,1,527.47,375.961Z" transform="translate(-500.9 -359.854)"/></g></g></g><g transform="translate(560.758 169.067)"><g transform="translate(49.36 22.746)"><path class="m" d="M435.073,201.125l8.233-9.605s4.8,3.431,5.049,3.788-8.151,10.868-8.151,10.868Z" transform="translate(-435.073 -167.011)"/><g transform="translate(3.524)"><path class="h" d="M448.993,205.948l-5.125,3.181-5.222-4.528,2.8-23.354,2.059-1.372Z" transform="translate(-434.65 -179.875)"/><g transform="translate(7.437 0.047)"><path class="x" d="M445.288,207.979c-.126.021-1.347-6.247-2.726-14s-2.4-14.059-2.271-14.082,1.345,6.247,2.723,14S445.412,207.956,445.288,207.979Z" transform="translate(-440.281 -179.897)"/></g><g transform="translate(4.808 17.073)"><path class="x" d="M442.052,188.387c-.01.128-.7.171-1.53.1s-1.5-.238-1.49-.364.7-.171,1.53-.1S442.065,188.261,442.052,188.387Z" transform="translate(-439.032 -187.987)"/></g><g transform="translate(4.404 14.899)"><path class="x" d="M442.115,187.634c-.023.126-.775.093-1.68-.076s-1.618-.4-1.6-.528.775-.09,1.68.076S442.138,187.51,442.115,187.634Z" transform="translate(-438.84 -186.954)"/></g><g transform="translate(4.732 13.022)"><path class="x" d="M441.654,186.472c-.013.126-.619.166-1.353.088s-1.318-.244-1.3-.37.619-.166,1.353-.088S441.669,186.346,441.654,186.472Z" transform="translate(-438.996 -186.062)"/></g><g transform="translate(0 17.795)"><path class="x" d="M441.32,189.4a1.637,1.637,0,0,1-.095.81,4.125,4.125,0,0,1-1.179,1.894,4.283,4.283,0,0,1-1.33.833,1.372,1.372,0,0,1-.964.1.507.507,0,0,1-.3-.6,1.451,1.451,0,0,1,.255-.465,8.265,8.265,0,0,1,3.085-2.616c.2-.1.412-.191.608-.269l.2.417a6.484,6.484,0,0,1-3.8.434,1.532,1.532,0,0,1-.922-.271.471.471,0,0,1-.019-.619,1.014,1.014,0,0,1,.379-.276,4.278,4.278,0,0,1,3.464-.135,1.593,1.593,0,0,1,.646.389,5.382,5.382,0,0,0-2.662-.351c-.6.042-2.542.829-.848.848a6.3,6.3,0,0,0,3.54-.423l.2.415c-.185.076-.381.16-.575.255a8.108,8.108,0,0,0-2.942,2.454c-.215.269-.255.406-.141.436a1.045,1.045,0,0,0,.673-.082,4.112,4.112,0,0,0,1.248-.718A5.059,5.059,0,0,0,441.32,189.4Z" transform="translate(-436.747 -188.33)"/></g><g transform="translate(5.927 19.821)"><path class="x" d="M442.384,189.706c.017-.023.213.061.53.28a3.711,3.711,0,0,1,1.122,1.2,2.145,2.145,0,0,1-.162,2.435,2.3,2.3,0,0,1-2.888.631,2.566,2.566,0,0,1-1.4-2.633,2.786,2.786,0,0,1,1.328-2.071,1.638,1.638,0,0,1,1.652-.067c.354.213.427.448.406.457-.032.025-.156-.16-.486-.295a1.486,1.486,0,0,0-1.4.183,2.51,2.51,0,0,0-1.075,1.839,2.162,2.162,0,0,0,1.181,2.176,1.881,1.881,0,0,0,2.349-.486,1.818,1.818,0,0,0,.2-2.02A7.992,7.992,0,0,0,442.384,189.706Z" transform="translate(-439.564 -189.292)"/></g></g></g><path class="m" d="M419.8,194.751l.913-14s6.545-.151,7,0,0,15.069,0,15.069Z" transform="translate(-402.581 -156.241)"/><path class="y" d="M418.275,235.64l34.908-42.317,13.967,6.555-36.815,44.256-13.149-6.171" transform="translate(-405.473 -142.273)"/><path class="l" d="M522.662,207.069a17.539,17.539,0,0,0,6.552-14.836,16.451,16.451,0,0,0-9.075-13.327,15.5,15.5,0,0,0-15.934,1.726c-7.812,6.2-8.111,19.068-16.456,24.529-6.981,4.567-17.243,2.212-23.481,7.751-4.11,3.647-5.175,9.681-8.7,13.9-2.6,3.111-6.48,5.186-8.25,8.827-2.519,5.182.5,11.773,5.377,14.833s11.016,3.311,16.742,2.69c9.757-1.061,19.133-4.35,28.158-8.206,5.832-2.492,11.74-5.363,15.886-10.163,6.4-7.408,7.435-17.9,8.181-27.657" transform="translate(-373.188 -159.793)"/><path class="h" d="M502.868,236.344l7.469,23.989H411.62l11.6-73.931h13.328c-.564,20.423,0,52.839,0,52.839,12.655.208,27.834.429,39.994-1.269C476.545,237.971,500.544,233.835,502.868,236.344Z" transform="translate(-411.62 -149.92)"/><path class="m" d="M493.108,202.1l10.237,36.77-13.278,2.011-7.643-34.753Z" transform="translate(-333.408 -132.581)"/><path class="z" d="M503.744,193.771s-11.967-.947-25.375,10.313C471.613,209.76,454.89,228.3,454.89,228.3l8.625,24.519s26.154-1.587,38.075-10.7l9.73-13.293,3.9-4.58,11.274-7.442S516.665,192.824,503.744,193.771Z" transform="translate(-363.823 -141.809)"/><path class="m" d="M469.864,204.942s-20.594,27.392-10.121,35.682L521.362,237l-3.753-6.989-45.384-.636,8.833-14.589-11.194-9.839" transform="translate(-361.743 -129.439)"/><g transform="translate(130.571 19.711)"><path class="m" d="M474.794,179.7l.257,26.131,5.339,1.753L478.9,217.929l10.961,1.667s3.445-32.933,3.593-33.377S474.794,179.7,474.794,179.7Z" transform="translate(-472.407 -177.032)"/><g transform="translate(3.732 12.721)"><path class="l" d="M479.311,184.82a12.5,12.5,0,0,0-1.98.328c-1.036.373-1.8.924-1.888.815s.556-.876,1.719-1.3C478.36,184.216,479.394,184.7,479.311,184.82Z" transform="translate(-475.433 -184.477)"/></g><path class="l" d="M477.669,186.9a.683.683,0,1,1-.684-.682A.684.684,0,0,1,477.669,186.9Z" transform="translate(-470.741 -169.83)"/><path class="l" d="M481.816,186.956a.614.614,0,1,1-.612-.612A.614.614,0,0,1,481.816,186.956Z" transform="translate(-466.006 -169.694)"/><g transform="translate(13.664 12.869)"><path class="l" d="M483.784,185.611c-.084.122-.819-.271-1.8-.474s-1.806-.162-1.831-.307c-.04-.128.846-.434,1.94-.194S483.87,185.508,483.784,185.611Z" transform="translate(-480.152 -184.548)"/></g><g transform="translate(3.935 19.852)"><path class="n" d="M479.578,188.451c-.013.352-.911.665-2.006.7s-2.008-.232-2.042-.585.865-.663,2.006-.695S479.592,188.1,479.578,188.451Z" transform="translate(-475.53 -187.866)"/></g><g transform="translate(13.844 19.608)"><path class="n" d="M483.54,188.46c-.015.351-.764.608-1.677.572s-1.64-.354-1.625-.707.764-.608,1.677-.572S483.555,188.106,483.54,188.46Z" transform="translate(-480.238 -187.749)"/></g><g transform="translate(11.911 24.874)"><path class="n" d="M480.926,190.269c.343.08.427.838-.154,1.435s-1.345.528-1.433.189.189-.737.516-1.084S480.581,190.176,480.926,190.269Z" transform="translate(-479.32 -190.252)"/></g><g transform="translate(7.601 30.244)"><path class="n" d="M482.5,194.811c-.116.335-1.381.2-2.824-.309s-2.517-1.183-2.4-1.517,1.379-.194,2.822.311S482.622,194.478,482.5,194.811Z" transform="translate(-477.272 -192.803)"/></g><g transform="translate(19.565 16.239)"><path class="m" d="M483.55,186.738s4-1.926,4,1.185-1.187,4.443-4.592,4" transform="translate(-482.956 -186.149)"/><g transform="translate(1.247 1.7)"><path class="n" d="M483.564,189.245c.055-.048.248.12.57.065a.812.812,0,0,0,.615-.9,1.462,1.462,0,0,0-.606-1.092c-.282-.133-.488.019-.539-.021-.082-.01.1-.415.644-.324a1.554,1.554,0,0,1,1.01,1.406,1.146,1.146,0,0,1-1.115,1.3C483.629,189.622,483.5,189.262,483.564,189.245Z" transform="translate(-483.549 -186.957)"/></g></g><path class="l" d="M474.251,190.625c16.117.421,18.973-4.86,18.973-4.86v10.422l1.488-2.067,1.219-6.781-19.285-8.907-2.986,7.413" transform="translate(-473.66 -178.433)"/><g transform="translate(8.636 15.602)"><path class="l" d="M479.842,192.766c.034.042-.45.423-1.4.421a1.014,1.014,0,0,1-.41-.074.455.455,0,0,1-.24-.554,2.179,2.179,0,0,1,.587-.726A6.631,6.631,0,0,1,480,190.72l-.135.29-.029-.152a25,25,0,0,1-.648-5.013,24.794,24.794,0,0,1,1.145,4.891l.029.152.036.206-.175.084a7.3,7.3,0,0,0-1.534,1,2.563,2.563,0,0,0-.5.507c-.057.05.036.114.282.141A9.669,9.669,0,0,0,479.842,192.766Z" transform="translate(-477.763 -185.846)"/></g><g transform="translate(15.988 16.148)"><path class="l" d="M481.857,186.155c.1.1.065.305-.084.463s-.356.208-.459.112-.063-.305.086-.463S481.754,186.058,481.857,186.155Z" transform="translate(-481.257 -186.106)"/></g><g transform="translate(16.365 16.744)"><path class="l" d="M482.106,186.495c.072.122-.017.3-.2.4s-.381.084-.45-.038.019-.305.2-.406S482.038,186.37,482.106,186.495Z" transform="translate(-481.436 -186.389)"/></g><g transform="translate(3.44 16.261)"><path class="l" d="M476.314,186.681c-.053.13-.322.145-.6.03s-.465-.312-.41-.444.322-.143.6-.029S476.369,186.55,476.314,186.681Z" transform="translate(-475.294 -186.159)"/></g><g transform="translate(3.739 15.759)"><path class="l" d="M476.6,186.635c-.067.122-.383.08-.7-.1s-.52-.421-.45-.545.381-.08.7.1S476.671,186.51,476.6,186.635Z" transform="translate(-475.437 -185.921)"/></g><path class="e" d="M478.828,190.522a3.322,3.322,0,0,0,.64,1.111,1,1,0,0,0,1.8-.69,3.341,3.341,0,0,0-.257-1.231" transform="translate(-467.951 -165.974)"/></g><path class="aa" d="M568.657,223.832l-53.235-35.99L458.988,222.37l47.4,32.187,42.074,1.152Z" transform="translate(-359.297 -148.328)"/><g transform="translate(122.724 75.503)"><path class="ab" d="M505.475,204.942c-.318.953-12.377,31.1-12.377,31.1H469.932v3.494h68.684l17.953-34.6Z" transform="translate(-469.932 -204.942)"/><g transform="translate(51.71 15.183)"><path class="ac" d="M498.878,214.493a2.038,2.038,0,1,1-2.037-2.039A2.038,2.038,0,0,1,498.878,214.493Z" transform="translate(-494.172 -211.827)"/><path class="ad" d="M494.5,214.823a2.668,2.668,0,1,1,2.669,2.667A2.666,2.666,0,0,1,494.5,214.823Z" transform="translate(-494.502 -212.156)"/></g></g><g transform="translate(149.87 40.742)"><path class="ae" d="M484.3,188.784c-.13-.006.423-.688,1.3-.156.815.625.873,1.936.617,3.184-.278,1.347-1.778,2.145-2.641,1.627-.861-.442-.781-1.187-.711-1.136.067-.027.145.549.85.8.659.305,1.755-.305,2.008-1.427.24-1.088.181-2.33-.339-2.759A1.043,1.043,0,0,0,484.3,188.784Z" transform="translate(-482.83 -188.425)"/></g><g transform="translate(4.286)"><path class="h" d="M436.936,188.551l-2.43,6.232-7.648-.542L413.8,171.655l.912-2.588Z" transform="translate(-413.497 -169.067)"/><g transform="translate(0 0.974)"><path class="x" d="M436.777,191.127c-.095.1-5.35-4.647-11.733-10.609s-11.483-10.881-11.386-10.986,5.35,4.647,11.735,10.612S436.874,191.022,436.777,191.127Z" transform="translate(-413.656 -169.53)"/></g><g transform="translate(9.072 16.16)"><path class="x" d="M420.831,176.772c.076.12-.505.615-1.294,1.1s-1.49.789-1.564.669.505-.615,1.294-1.1S420.758,176.652,420.831,176.772Z" transform="translate(-417.967 -176.745)"/></g><g transform="translate(7.231 14.574)"><path class="x" d="M420.4,176.023c.063.126-.627.6-1.541,1.05s-1.7.718-1.768.591.627-.6,1.541-1.05S420.341,175.9,420.4,176.023Z" transform="translate(-417.092 -175.992)"/></g><g transform="translate(6.304 12.861)"><path class="x" d="M419.207,175.21c.072.122-.44.56-1.143.979s-1.332.661-1.406.539.44-.56,1.143-.979S419.136,175.088,419.207,175.21Z" transform="translate(-416.652 -175.178)"/></g><g transform="translate(5.772 19.219)"><path class="x" d="M420.6,178.563a1.894,1.894,0,0,1,.455.783,4.593,4.593,0,0,1,.215,2.464,4.7,4.7,0,0,1-.627,1.625,1.505,1.505,0,0,1-.791.728.564.564,0,0,1-.663-.328,1.588,1.588,0,0,1-.082-.583,9.179,9.179,0,0,1,1-4.373c.114-.227.238-.444.362-.644l.448.238a7.175,7.175,0,0,1-3.083,2.915,1.688,1.688,0,0,1-1,.373.518.518,0,0,1-.429-.537,1.127,1.127,0,0,1,.152-.5,4.594,4.594,0,0,1,.974-1.3,4.667,4.667,0,0,1,2.008-1.126,1.789,1.789,0,0,1,.833-.084,6.007,6.007,0,0,0-2.6,1.461c-.509.438-1.707,2.427-.187,1.315a6.96,6.96,0,0,0,2.858-2.732l.45.24c-.114.189-.232.4-.339.608a9.043,9.043,0,0,0-.981,4.136c-.008.381.046.53.168.48.2-.04.379-.286.541-.522a4.509,4.509,0,0,0,.627-1.467A5.626,5.626,0,0,0,420.6,178.563Z" transform="translate(-416.399 -178.199)"/></g><g transform="translate(12.96 17.694)"><path class="x" d="M421.445,177.806c0-.034.227-.088.657-.105a4.118,4.118,0,0,1,1.8.32,2.384,2.384,0,0,1,1.477,2.269,2.553,2.553,0,0,1-2.145,2.481,2.841,2.841,0,0,1-2.989-1.408,3.091,3.091,0,0,1-.2-2.723,1.812,1.812,0,0,1,1.423-1.158c.455-.044.676.116.661.135a5.753,5.753,0,0,0-.625.061,1.647,1.647,0,0,0-1.122,1.1,2.784,2.784,0,0,0,.269,2.349,2.391,2.391,0,0,0,2.494,1.145,2.088,2.088,0,0,0,1.762-2,2.009,2.009,0,0,0-1.164-1.926A8.807,8.807,0,0,0,421.445,177.806Z" transform="translate(-419.814 -177.474)"/></g></g></g><g transform="translate(516.159 331.167)"><path class="af" d="M458.659,280.2a34.115,34.115,0,1,1-34.114-34.114A34.115,34.115,0,0,1,458.659,280.2Z" transform="translate(-390.429 -246.088)"/><path class="af" d="M410.1,280.733l21.328,15.112-5.423-25.973Z" transform="translate(-368.696 -219.816)"/><text class="ag" transform="translate(25.847 45.956)"><tspan x="0" y="0">!</tspan></text></g><g transform="translate(526.503 382.591)"><g transform="translate(0 5.178)"><g transform="translate(61.665 13.57)"><path class="m" d="M428.643,280.02s-4-1.928-4,1.185,1.185,4.443,4.592,4" transform="translate(-424.644 -279.43)"/></g><g transform="translate(96.095 44.827)"><path class="m" d="M451.894,307.32c.408.749,3.986,8.2,3.986,8.2l21.088-16.132,5.482,5.032s-26.314,28.551-30.647,23.544A81.891,81.891,0,0,1,441,311.119Z" transform="translate(-441.003 -288.64)"/><g transform="translate(35.022)"><path class="m" d="M472.381,307.077a48.807,48.807,0,0,0-5.47,3.473,3.056,3.056,0,0,1-3.572-.059l-5.182-4.792a1.589,1.589,0,0,1-.261-2.031c1.078-1.663,2.9-4.784,2.553-6.272-.553-2.332-.918-2.8-.3-3.031,1.656-.61,4.714,2.115,2.723,7.766" transform="translate(-457.643 -294.281)"/><path class="m" d="M459.283,302.725s9.816-8.294,11.268-8.421-3.658,6.583-5.335,7.56c0,0,8.654-5.232,9.723-4.506s-7.027,6.577-7.027,6.415,8.627-4.839,9.039-3.609c.3.894-5.91,4.645-5.91,4.645s5.752-.871,5.739.431c-.006.648-9.147,2.854-9.147,2.854Z" transform="translate(-455.832 -294.257)"/></g></g><g transform="translate(65.285)"><path class="m" d="M426.364,272.982l.274,27.75,4.468,1.581-.629,8.9,10.959,1.669s3.445-32.933,3.595-33.377S426.364,272.982,426.364,272.982Z" transform="translate(-426.364 -272.982)"/><g transform="translate(17.178 13.57)"><path class="m" d="M435.12,280.02s4-1.928,4,1.185-1.185,4.443-4.592,4" transform="translate(-434.526 -279.43)"/></g></g><g transform="translate(0 227.186)"><path class="h" d="M395.344,390.7s20.556-1.551,28.021-7.128l7.311,3.565v5.887H395.965Z" transform="translate(-395.344 -378.003)"/><path class="l" d="M430.884,387.824a8.768,8.768,0,0,1-1.4.086c-1.16.023-2.418.048-3.805.078l-12.554.09-12.554-.036c-1.389-.021-2.648-.042-3.807-.059a8.838,8.838,0,0,1-1.4-.082,8.642,8.642,0,0,1,1.393-.086c1.157-.023,2.416-.048,3.8-.078l12.562-.09c4.7.015,8.955.025,12.558.036,1.387.021,2.646.042,3.805.061A8.618,8.618,0,0,1,430.884,387.824Z" transform="translate(-395.316 -373.505)"/><path class="l" d="M413.038,386.383a19.744,19.744,0,0,1-5.779.833,19.943,19.943,0,0,1,5.779-.833Z" transform="translate(-382.183 -374.958)"/><path class="l" d="M405.312,388.551c-.105.055-.558-.589-1.01-1.44s-.737-1.585-.631-1.642.558.589,1.01,1.44S405.417,388.494,405.312,388.551Z" transform="translate(-386.171 -375.914)"/><path class="l" d="M405.991,388.37c-.109.046-.505-.638-.882-1.526s-.6-1.646-.486-1.692.505.636.882,1.524A3.718,3.718,0,0,1,405.991,388.37Z" transform="translate(-385.126 -376.264)"/><path class="l" d="M407.347,388.116c-.105.059-.581-.619-1.065-1.509a4.092,4.092,0,0,1-.688-1.715c.105-.057.581.619,1.065,1.509A4.1,4.1,0,0,1,407.347,388.116Z" transform="translate(-384.045 -376.553)"/><path class="l" d="M409.286,389.673a6.2,6.2,0,0,1-.669-1.021,12.05,12.05,0,0,1-1.162-3.123,12.424,12.424,0,0,1-.3-2.292,12.676,12.676,0,0,1,.019-1.292,1.566,1.566,0,0,1,.168-.728.554.554,0,0,1,.88-.122,13.788,13.788,0,0,1,1.341,5.958,5.03,5.03,0,0,1-.074,1.216.993.993,0,0,1-1,.857,1.849,1.849,0,0,1-1.08-.608c-.265-.261-.518-.528-.758-.8a16.469,16.469,0,0,1-2.281-3.3l-.2-.375.4.116a6.514,6.514,0,0,1,3.917,3.159,4.532,4.532,0,0,1,.589,1.82,11.575,11.575,0,0,0-.77-1.72,6.469,6.469,0,0,0-3.828-2.913l.2-.259a16.85,16.85,0,0,0,2.273,3.2c.476.476.985,1.177,1.557,1.259.6.04.652-.9.612-1.642a14.622,14.622,0,0,0-1.185-5.685c-.2-.231-.4.156-.394.6a12.1,12.1,0,0,0-.042,1.254,12.654,12.654,0,0,0,.24,2.239A17.1,17.1,0,0,0,409.286,389.673Z" transform="translate(-385.584 -380.928)"/></g><path class="ah" d="M438.322,319.12s-8.317,52.4-12.886,70.612c-3.056,12.182-18.8,70.913-18.8,70.913a8.629,8.629,0,0,0,2.913,1.93c3.332,1.343,7.953,2.894,12.093,2.795,0,0,18.5-56.095,26.173-88.975,5.531-23.7,7.575-45.361,9.949-45.9,7.791-1.757-2.713,133.619-2.713,133.619l14.833,2.227s22.492-122.207,1.456-152.539Z" transform="translate(-382.867 -227.889)"/><g transform="translate(1.926 25.174)"><path class="m" d="M430.286,307.1c-.619.587-6.322,6.569-6.322,6.569l-15.078-21.857-6.766,3.092s16.21,35.286,21.878,31.86a81.842,81.842,0,0,0,15.475-12.687Z" transform="translate(-389.785 -277.354)"/><g transform="translate(5.351 3.522)"><path class="m" d="M398.8,295.244a48.237,48.237,0,0,1,4.129,4.992,3.052,3.052,0,0,0,3.416,1.044l6.409-2.955a1.583,1.583,0,0,0,.873-1.85c-.509-1.917-1.284-5.449-.488-6.754,1.246-2.048,1.738-2.384,1.223-2.789-1.387-1.094-5.135.553-4.988,6.543" transform="translate(-398.802 -286.617)"/></g><path class="m" d="M413.681,296.461s-6.773-10.921-8.115-11.489,1.448,7.391,2.74,8.837c0,0-6.617-7.648-7.857-7.286s4.651,8.425,4.7,8.269-6.71-7.267-7.48-6.223c-.56.758,4.184,6.242,4.184,6.242s-5.2-2.6-5.592-1.362c-.2.617,7.819,5.539,7.819,5.539Z" transform="translate(-396.259 -284.943)"/></g><g transform="translate(35.306 105.433)"><g transform="translate(0 125.976)"><path class="l" d="M413.724,382.935a15.629,15.629,0,0,1-1.578,4.912,15.447,15.447,0,0,1,1.578-4.912Z" transform="translate(-412.119 -382.935)"/></g><g transform="translate(4.501 107.605)"><path class="l" d="M417.141,374.206a27.178,27.178,0,0,1-1.229,4.66,27.516,27.516,0,0,1-1.64,4.533,53.95,53.95,0,0,1,2.869-9.193Z" transform="translate(-414.258 -374.206)"/></g><g transform="translate(10.198 89.194)"><path class="l" d="M419.767,365.458a26.692,26.692,0,0,1-1.187,4.668,27.173,27.173,0,0,1-1.6,4.544,53.876,53.876,0,0,1,2.786-9.212Z" transform="translate(-416.965 -365.458)"/></g><g transform="translate(15.73 70.713)"><path class="l" d="M422.305,356.677a53.933,53.933,0,0,1-2.7,9.248,53.77,53.77,0,0,1,2.7-9.248Z" transform="translate(-419.594 -356.677)"/></g><g transform="translate(21.062 52.165)"><path class="l" d="M424.71,347.864a54.125,54.125,0,0,1-2.566,9.283,53.972,53.972,0,0,1,2.566-9.283Z" transform="translate(-422.127 -347.864)"/></g><g transform="translate(26.105 33.518)"><path class="l" d="M426.905,339a27.072,27.072,0,0,1-.972,4.721,27.455,27.455,0,0,1-1.391,4.618A53.745,53.745,0,0,1,426.905,339Z" transform="translate(-424.523 -339.004)"/></g><g transform="translate(30.671 14.701)"><path class="l" d="M428.67,330.063a53.938,53.938,0,0,1-1.955,9.437,27.29,27.29,0,0,1,.766-4.763A27.008,27.008,0,0,1,428.67,330.063Z" transform="translate(-426.692 -330.063)"/></g><g transform="translate(33.998)"><path class="l" d="M428.672,323.078a7.873,7.873,0,0,1,.074,2.587,7.79,7.79,0,0,1-.358,2.57,15.542,15.542,0,0,1,.284-5.156Z" transform="translate(-428.273 -323.078)"/></g></g><g transform="translate(83.921 92.178)"><g transform="translate(0 136.059)"><path class="l" d="M436.749,381.427a61.806,61.806,0,0,1-1.5,10.218,61.8,61.8,0,0,1,1.5-10.218Z" transform="translate(-435.219 -381.427)"/></g><g transform="translate(2.865 115.564)"><path class="l" d="M437.874,371.689a62.434,62.434,0,0,1-1.259,10.254,61.747,61.747,0,0,1,1.259-10.254Z" transform="translate(-436.58 -371.689)"/></g><g transform="translate(5.263 95.002)"><path class="l" d="M438.792,361.919a62.3,62.3,0,0,1-1.029,10.285,31.322,31.322,0,0,1,.3-5.165A30.8,30.8,0,0,1,438.792,361.919Z" transform="translate(-437.72 -361.919)"/></g><g transform="translate(7.174 74.402)"><path class="l" d="M439.433,352.131a62.378,62.378,0,0,1-.747,10.3,61.774,61.774,0,0,1,.747-10.3Z" transform="translate(-438.627 -352.131)"/></g><g transform="translate(8.453 53.749)"><path class="l" d="M439.7,342.318a62.3,62.3,0,0,1-.366,10.33,30.874,30.874,0,0,1-.032-5.173A31.413,31.413,0,0,1,439.7,342.318Z" transform="translate(-439.235 -342.318)"/></g><g transform="translate(8.673 33.077)"><path class="l" d="M439.469,332.5a30.812,30.812,0,0,1,.328,5.163,31.326,31.326,0,0,1-.1,5.173,30.986,30.986,0,0,1-.328-5.165A31.347,31.347,0,0,1,439.469,332.5Z" transform="translate(-439.34 -332.496)"/></g><g transform="translate(6.704 12.511)"><path class="l" d="M438.436,322.724a61.817,61.817,0,0,1,1.381,10.25,62.407,62.407,0,0,1-1.381-10.25Z" transform="translate(-438.404 -322.724)"/></g><g transform="translate(3.098)"><path class="l" d="M436.727,316.783c.107-.048.425.476.705,1.172s.419,1.294.307,1.334-.427-.484-.7-1.172S436.62,316.833,436.727,316.783Z" transform="translate(-436.691 -316.78)"/></g></g><path class="l" d="M422.454,387.116a1.959,1.959,0,0,1-.661.042,16.217,16.217,0,0,1-1.8-.114,24.554,24.554,0,0,1-11.045-4.11,16.66,16.66,0,0,1-1.433-1.086c-.322-.278-.49-.442-.471-.465.042-.055.791.505,2.071,1.3a29.428,29.428,0,0,0,10.919,4.064C421.523,386.981,422.458,387.046,422.454,387.116Z" transform="translate(-382.417 -153.243)"/><path class="l" d="M446.021,385.414a159.122,159.122,0,0,1-16.477-1.667,159.016,159.016,0,0,1,16.477,1.667Z" transform="translate(-357.566 -150.658)"/><path class="h" d="M414.844,308s9.252-11.022,11.613-12.794a23.729,23.729,0,0,1,18.3-5.116c9.645,1.376,27.293.84,33.657,16.73,4.054,10.117,5.118,15.549,5.118,15.549s-8.66,3.936-14.96,2.755l-4.786-10.774s-2.888.587-.387,15.3l3.174,15.717-39.613,2.976L430.2,313.51l-4.527,4.205Z" transform="translate(-373.804 -254.361)"/><path class="ai" d="M459.847,315.479c.008.12-8.821.842-19.716,1.616s-19.739,1.307-19.748,1.187,8.818-.842,19.718-1.616S459.838,315.361,459.847,315.479Z" transform="translate(-367.685 -226.057)"/><g transform="translate(70.66 236.118)"><path class="h" d="M429.178,392.766l.93-6.819,7.9-.775,17.2,6.508v2.015Z" transform="translate(-428.63 -385.172)"/><path class="l" d="M455.038,388.584a4.781,4.781,0,0,1-1.01.213c-.657.114-1.608.244-2.789.375a79.052,79.052,0,0,1-18.533-.189c-1.179-.156-2.128-.305-2.78-.429a4.768,4.768,0,0,1-1.008-.236,4.853,4.853,0,0,1,1.031.069l2.791.293c2.355.236,5.619.474,9.231.513s6.88-.139,9.239-.324l2.8-.238A4.843,4.843,0,0,1,455.038,388.584Z" transform="translate(-428.918 -381.71)"/></g><path class="l" d="M450.451,320.1c.029.114-5.8,1.707-13.015,3.555s-13.095,3.256-13.124,3.14,5.8-1.707,13.017-3.557S450.422,319.982,450.451,320.1Z" transform="translate(-363.345 -220.944)"/></g><path class="l" d="M445.183,273.155c-2.652-4.134-9.566-3.062-12.512.867s-2.957,9.279-2.477,14.168,1.3,9.974-.377,14.591c-1.282,3.538-3.9,6.4-5.937,9.565S420.332,319.457,421.6,323c1.017,2.833,3.628,4.864,4.655,7.692,1.806,4.975-1.816,10.416-1.094,15.658.89,6.451,8.8,10.353,14.97,8.3s10.1-8.608,10.515-15.1c.349-5.413-1.153-11.514,2.17-15.8,1.69-2.183,4.394-3.46,5.874-5.792,2.376-3.742.764-8.722-1.536-12.514s-5.316-7.431-5.765-11.843c-.3-3,.64-5.973,1.357-8.9s1.193-6.118.019-8.9-4.584-4.8-7.3-3.49" transform="translate(-366.853 -270.522)"/></g><g transform="translate(819.495 466.56)"><path class="af" d="M5.554,0H62.626a5.555,5.555,0,0,1,5.555,5.555v33.4a5.554,5.554,0,0,1-5.554,5.554H5.554A5.554,5.554,0,0,1,0,38.956V5.554A5.554,5.554,0,0,1,5.554,0Z"/><path class="af" d="M542.384,329.286l.626,18.87,12.127-15.361Z" transform="translate(-525.913 -289.578)"/></g><text class="aj" transform="translate(833.973 489.086)"><tspan x="0" y="0">...</tspan></text><g transform="translate(895.761 378.267)"><g transform="translate(0)"><path class="m" d="M605.737,306.206c-.619.587-6.324,6.569-6.324,6.569l-15.075-21.857-6.766,3.094s16.21,35.282,21.878,31.858a81.916,81.916,0,0,0,15.475-12.687Z" transform="translate(-563.31 -243.667)"/><g transform="translate(0 234.802)"><path class="ak" d="M570.8,389.807s20.554-1.551,28.021-7.128l7.309,3.563v5.889H571.414Z" transform="translate(-570.795 -377.107)"/><path class="l" d="M606.335,386.928a8.774,8.774,0,0,1-1.4.086c-1.16.023-2.418.048-3.807.078l-12.552.09-12.556-.036c-1.387-.021-2.646-.042-3.805-.059a8.851,8.851,0,0,1-1.4-.082,8.643,8.643,0,0,1,1.393-.086l3.8-.076c3.6-.027,7.859-.057,12.562-.093,4.7.015,8.955.025,12.558.036,1.387.021,2.645.042,3.805.061A8.621,8.621,0,0,1,606.335,386.928Z" transform="translate(-570.767 -372.609)"/><path class="l" d="M588.488,385.487a19.939,19.939,0,0,1-5.779.833,19.973,19.973,0,0,1,5.779-.833Z" transform="translate(-557.634 -374.062)"/><path class="l" d="M580.761,387.655c-.105.057-.558-.589-1.01-1.44s-.734-1.585-.629-1.642.558.589,1.01,1.44S580.866,387.6,580.761,387.655Z" transform="translate(-561.622 -375.018)"/><path class="l" d="M581.442,387.474c-.109.046-.505-.638-.882-1.526s-.6-1.646-.486-1.692.505.636.882,1.524A3.724,3.724,0,0,1,581.442,387.474Z" transform="translate(-560.577 -375.368)"/><path class="l" d="M582.8,387.22c-.105.057-.581-.619-1.067-1.509a4.071,4.071,0,0,1-.686-1.715c.1-.057.581.619,1.065,1.509A4.091,4.091,0,0,1,582.8,387.22Z" transform="translate(-559.496 -375.656)"/><path class="l" d="M584.738,388.775a6.2,6.2,0,0,1-.669-1.021,12.022,12.022,0,0,1-1.164-3.121,12.411,12.411,0,0,1-.3-2.294,12.081,12.081,0,0,1,.019-1.29,1.573,1.573,0,0,1,.17-.73.554.554,0,0,1,.88-.12,13.79,13.79,0,0,1,1.339,5.958,5.029,5.029,0,0,1-.072,1.216,1,1,0,0,1-1,.857,1.854,1.854,0,0,1-1.082-.608c-.265-.263-.516-.528-.756-.8a16.465,16.465,0,0,1-2.281-3.3l-.2-.375.4.116a6.514,6.514,0,0,1,3.917,3.159,4.532,4.532,0,0,1,.589,1.821,11.556,11.556,0,0,0-.77-1.72,6.47,6.47,0,0,0-3.828-2.913l.2-.259a16.847,16.847,0,0,0,2.273,3.2c.476.476.983,1.177,1.557,1.257.606.04.65-.9.612-1.642a14.6,14.6,0,0,0-1.187-5.68c-.194-.234-.4.154-.394.594a11.511,11.511,0,0,0-.04,1.254,12.671,12.671,0,0,0,.238,2.239A17.1,17.1,0,0,0,584.738,388.775Z" transform="translate(-561.036 -380.032)"/></g><path class="af" d="M613.774,318.222s-8.317,52.4-12.886,70.614c-3.058,12.18-18.8,70.913-18.8,70.913A8.689,8.689,0,0,0,585,461.68c3.33,1.345,7.951,2.894,12.091,2.795,0,0,18.5-56.1,26.175-88.977,5.529-23.694,7.572-45.361,9.948-45.9,7.789-1.757-2.715,133.621-2.715,133.621l14.835,2.225s22.492-122.207,1.454-152.539Z" transform="translate(-558.319 -219.377)"/><g transform="translate(95.482 72.346)"><path class="m" d="M616.163,308.531s11.6,39.7,10.085,43.829l8.069,1.418s-3.447-41.236-7.857-50.936Z" transform="translate(-616.163 -302.842)"/></g><g transform="translate(35.304 113.05)"><g transform="translate(0 125.974)"><path class="l" d="M589.177,382.038a15.56,15.56,0,0,1-1.581,4.912,15.569,15.569,0,0,1,1.581-4.912Z" transform="translate(-587.569 -382.038)"/></g><g transform="translate(4.501 107.603)"><path class="l" d="M592.591,373.309a54.081,54.081,0,0,1-2.869,9.193,53.953,53.953,0,0,1,2.869-9.193Z" transform="translate(-589.708 -373.309)"/></g><g transform="translate(10.198 89.194)"><path class="l" d="M595.219,364.562a27.232,27.232,0,0,1-1.187,4.666,26.84,26.84,0,0,1-1.6,4.544,54.033,54.033,0,0,1,2.789-9.21Z" transform="translate(-592.415 -364.562)"/></g><g transform="translate(15.732 70.711)"><path class="l" d="M597.754,355.78a26.843,26.843,0,0,1-1.141,4.685,27.285,27.285,0,0,1-1.553,4.565,26.84,26.84,0,0,1,1.141-4.685A27.175,27.175,0,0,1,597.754,355.78Z" transform="translate(-595.044 -355.78)"/></g><g transform="translate(21.062 52.163)"><path class="l" d="M600.159,346.967a53.988,53.988,0,0,1-2.566,9.284,27.13,27.13,0,0,1,1.075-4.7A27.455,27.455,0,0,1,600.159,346.967Z" transform="translate(-597.577 -346.967)"/></g><g transform="translate(26.106 33.518)"><path class="l" d="M602.357,338.108a54.176,54.176,0,0,1-2.366,9.338,27.372,27.372,0,0,1,.974-4.723A27,27,0,0,1,602.357,338.108Z" transform="translate(-599.973 -338.108)"/></g><g transform="translate(30.673 14.701)"><path class="l" d="M604.121,329.167a54.45,54.45,0,0,1-1.955,9.437,27.281,27.281,0,0,1,.766-4.763A26.983,26.983,0,0,1,604.121,329.167Z" transform="translate(-602.143 -329.167)"/></g><g transform="translate(33.999)"><path class="l" d="M604.124,322.182a15.554,15.554,0,0,1-.284,5.156,15.547,15.547,0,0,1,.284-5.156Z" transform="translate(-603.724 -322.182)"/></g></g><g transform="translate(83.921 99.794)"><g transform="translate(0 136.057)"><path class="l" d="M612.2,380.53a62.181,62.181,0,0,1-1.5,10.22,62.145,62.145,0,0,1,1.5-10.22Z" transform="translate(-610.67 -380.53)"/></g><g transform="translate(2.863 115.562)"><path class="l" d="M613.324,370.792a61.813,61.813,0,0,1-1.259,10.254,62.424,62.424,0,0,1,1.259-10.254Z" transform="translate(-612.03 -370.792)"/></g><g transform="translate(5.262 95)"><path class="l" d="M614.241,361.022a61.994,61.994,0,0,1-1.027,10.285,30.9,30.9,0,0,1,.3-5.165A31.322,31.322,0,0,1,614.241,361.022Z" transform="translate(-613.17 -361.022)"/></g><g transform="translate(7.173 74.4)"><path class="l" d="M614.882,351.234a61.7,61.7,0,0,1-.747,10.3,62.392,62.392,0,0,1,.747-10.3Z" transform="translate(-614.078 -351.234)"/></g><g transform="translate(8.453 53.747)"><path class="l" d="M615.153,341.421a62.012,62.012,0,0,1-.368,10.329,31.423,31.423,0,0,1-.031-5.173A30.981,30.981,0,0,1,615.153,341.421Z" transform="translate(-614.686 -341.421)"/></g><g transform="translate(8.672 33.075)"><path class="l" d="M614.92,331.6a62.028,62.028,0,0,1,.225,10.336,62.042,62.042,0,0,1-.225-10.336Z" transform="translate(-614.79 -331.599)"/></g><g transform="translate(6.703 12.509)"><path class="l" d="M613.887,321.827a62.439,62.439,0,0,1,1.381,10.249,61.778,61.778,0,0,1-1.381-10.249Z" transform="translate(-613.855 -321.827)"/></g><g transform="translate(3.098)"><path class="l" d="M612.178,315.887c.107-.048.423.476.705,1.172s.419,1.292.307,1.332-.429-.484-.707-1.17S612.071,315.937,612.178,315.887Z" transform="translate(-612.142 -315.884)"/></g></g><path class="l" d="M619.461,322.8a3.652,3.652,0,0,1-1.787.141,6.821,6.821,0,0,1-6.061-5.529,3.617,3.617,0,0,1-.023-1.793c.074,0,.048.684.32,1.726a7.077,7.077,0,0,0,5.8,5.3C618.775,322.817,619.454,322.728,619.461,322.8Z" transform="translate(-525.828 -216.38)"/><path class="l" d="M604.737,316.505a1.746,1.746,0,0,1,.175.638,8.742,8.742,0,0,1,.116,1.793,10.4,10.4,0,0,1-6.426,9.3,8.715,8.715,0,0,1-1.719.526,1.732,1.732,0,0,1-.657.063c-.017-.076.909-.234,2.252-.867a10.815,10.815,0,0,0,6.246-9.044C604.842,317.437,604.661,316.516,604.737,316.505Z" transform="translate(-542.703 -215.403)"/><path class="l" d="M609.21,321.543a2.434,2.434,0,0,1-1.179.785,1.713,1.713,0,0,1-1.6-.2c-.585-.452-.545-1.265-.541-1.869a26.251,26.251,0,0,1,.223-4.727,26.236,26.236,0,0,1,.208,4.727c-.011.654-.019,1.267.358,1.56a1.45,1.45,0,0,0,1.263.215C608.722,321.808,609.174,321.469,609.21,321.543Z" transform="translate(-532.027 -216.476)"/><path class="l" d="M597.906,386.218a1.981,1.981,0,0,1-.661.044,16.75,16.75,0,0,1-1.8-.114,24.573,24.573,0,0,1-11.047-4.11,16.627,16.627,0,0,1-1.433-1.086c-.322-.278-.49-.442-.472-.465.044-.055.794.505,2.071,1.3a29.367,29.367,0,0,0,10.921,4.062C596.975,386.083,597.908,386.148,597.906,386.218Z" transform="translate(-557.869 -144.731)"/><path class="l" d="M621.472,384.518A158.945,158.945,0,0,1,605,382.851a159.017,159.017,0,0,1,16.477,1.667Z" transform="translate(-533.017 -142.146)"/><path class="al" d="M590.295,307.1s9.252-11.02,11.613-12.792a23.733,23.733,0,0,1,18.3-5.118c9.643,1.378,27.293.842,33.657,16.73,4.051,10.117,5.118,15.551,5.118,15.551s-8.661,3.936-14.96,2.755l-4.786-10.774s-2.888.585-.387,15.3l3.174,15.717-39.613,2.976,3.231-34.838-4.525,4.207Z" transform="translate(-549.255 -245.85)"/><path class="ai" d="M602.614,306.465a10.424,10.424,0,0,1-1.953-1.153,54.337,54.337,0,0,1-4.382-3.275c-1.646-1.364-3.058-2.69-4.039-3.689a10.192,10.192,0,0,1-1.5-1.7,14.151,14.151,0,0,1,1.711,1.482c1.029.939,2.464,2.222,4.1,3.578s3.168,2.521,4.283,3.357A13.866,13.866,0,0,1,602.614,306.465Z" transform="translate(-548.763 -237.341)"/><path class="ai" d="M607.285,299.362a17.155,17.155,0,0,1,1.837.053,32.5,32.5,0,0,0,4.8-.192l.206-.023,0,.21a37.8,37.8,0,0,1-.265,6.135,2.571,2.571,0,0,1-1.391,2.269,2.409,2.409,0,0,1-2.41-.65,8.8,8.8,0,0,1-2-3.6,9.515,9.515,0,0,1-.394-2.734,3.267,3.267,0,0,1,.1-1.008,14.485,14.485,0,0,0,.585,3.652,8.879,8.879,0,0,0,1.978,3.4,2.022,2.022,0,0,0,2,.545c.707-.244,1-1.1,1.109-1.938a42.56,42.56,0,0,0,.312-6.068l.208.187a26.8,26.8,0,0,1-4.849.038c-.585-.051-1.042-.112-1.353-.164A1.55,1.55,0,0,1,607.285,299.362Z" transform="translate(-530.488 -234.519)"/><path class="ai" d="M629.911,301.92c.021.017-.09.217-.341.543a8.44,8.44,0,0,1-1.221,1.252,13.233,13.233,0,0,1-5.133,2.566,26.093,26.093,0,0,1-5.685.76,12.149,12.149,0,0,1-2.37-.034,14.152,14.152,0,0,1,2.351-.272,33.4,33.4,0,0,0,5.592-.869,14.518,14.518,0,0,0,5.053-2.389C629.307,302.6,629.852,301.872,629.911,301.92Z" transform="translate(-521.786 -231.517)"/><path class="ai" d="M635.3,314.582c.009.12-8.818.844-19.714,1.618s-19.739,1.307-19.748,1.189,8.818-.844,19.716-1.618S635.287,314.464,635.3,314.582Z" transform="translate(-543.136 -217.546)"/><g transform="translate(58.174)"><path class="l" d="M605.979,295.753c.253-3.654-1.254-8-3.205-11.1-1.168-1.852-2.692-3.506-3.473-5.55-.985-2.578-1.419-6,.295-8.164s5.554-2.925,8.223-2.218a9.108,9.108,0,0,1,4.384,2.932,26.952,26.952,0,0,1,2.959,4.451,2.828,2.828,0,0,1,2.833-1.873,4.209,4.209,0,0,1,3.073,1.77,8.466,8.466,0,0,1,1.381,3.361c1.366-1.046,3.849.621,4.434,2.239.545,1.5-.225,4.742-1.227,6.579-1.212,2.218-1.227,7.848-3.26,10.934" transform="translate(-598.436 -268.467)"/><path class="m" d="M601.815,272.086l.274,27.752,4.466,1.578-.629,8.9,10.959,1.669s3.447-32.933,3.6-33.379S601.815,272.086,601.815,272.086Z" transform="translate(-594.703 -264.47)"/><path class="l" d="M606.329,277.185a8.769,8.769,0,0,0-1.991.29c-1.048.377-1.8.945-1.875.852s.577-.84,1.732-1.259A2.181,2.181,0,0,1,606.329,277.185Z" transform="translate(-593.996 -259.176)"/><path class="l" d="M604.688,279.287a.682.682,0,1,1-.682-.682A.68.68,0,0,1,604.688,279.287Z" transform="translate(-593.036 -257.269)"/><path class="l" d="M608.838,279.343a.615.615,0,1,1-.615-.615A.615.615,0,0,1,608.838,279.343Z" transform="translate(-588.303 -257.133)"/><path class="l" d="M610.806,277.976c-.072.105-.8-.309-1.789-.514s-1.823-.143-1.844-.267a2.5,2.5,0,0,1,1.932-.154C610.191,277.271,610.88,277.892,610.806,277.976Z" transform="translate(-588.785 -259.098)"/><path class="l" d="M609.19,281.567a2.595,2.595,0,0,1-3.294,3.277,4.135,4.135,0,0,0,2.359-.924A4.092,4.092,0,0,0,609.19,281.567Z" transform="translate(-590.201 -254.003)"/><path class="l" d="M608.647,282.469c-.114.034-.32-.335-.739-.478s-.81,0-.876-.1c-.1-.076.351-.528,1.021-.305C608.71,281.838,608.771,282.473,608.647,282.469Z" transform="translate(-588.954 -254.044)"/><path class="n" d="M606.6,280.783c-.013.3-.911.564-2.01.6s-2.01-.185-2.037-.482.869-.562,2.008-.6S606.609,280.486,606.6,280.783Z" transform="translate(-593.891 -255.399)"/><path class="l" d="M607.25,285.119c.078-.011-.4.673-1.421.332a1.371,1.371,0,0,1-.781-1.482,1.407,1.407,0,0,1,1.675-1.132,1.348,1.348,0,0,1,.4.145l-.316.229a10.864,10.864,0,0,1-.139-4.607c.126,0,.036,2.031.56,4.521l.095.45-.41-.219a.939.939,0,0,0-.274-.1,1.01,1.01,0,0,0-1.2.775,1.055,1.055,0,0,0,.518,1.141A1.539,1.539,0,0,0,607.25,285.119Z" transform="translate(-591.151 -257.269)"/><path class="n" d="M610.564,280.79c-.013.3-.762.507-1.675.471s-1.642-.307-1.631-.606.762-.507,1.675-.469S610.575,280.494,610.564,280.79Z" transform="translate(-588.691 -255.527)"/><path class="n" d="M608.459,282.65c.286.065.333.787-.229,1.364s-1.286.547-1.358.263.24-.646.587-1.014S608.169,282.57,608.459,282.65Z" transform="translate(-589.132 -252.813)"/><path class="n" d="M609.329,288.037c-.1.282-1.347.1-2.791-.4s-2.534-1.141-2.435-1.421,1.347-.1,2.791.4S609.428,287.757,609.329,288.037Z" transform="translate(-592.183 -249.013)"/><g transform="translate(24.29 21.185)"><path class="m" d="M610.57,279.122s4-1.926,4,1.185-1.185,4.445-4.592,4" transform="translate(-609.977 -278.533)"/><path class="n" d="M610.582,281.615c.046-.042.236.141.572.095a.837.837,0,0,0,.655-.934,1.447,1.447,0,0,0-.638-1.115c-.305-.13-.509.042-.549,0-.072-.006.114-.389.638-.295a1.537,1.537,0,0,1,.979,1.381,1.116,1.116,0,0,1-1.077,1.263C610.664,281.97,610.527,281.627,610.582,281.615Z" transform="translate(-609.321 -277.626)"/></g><path class="l" d="M600.912,280.044a11.092,11.092,0,0,0,6.7-.032c4.411-1.242,12.638,1.429,12.638,1.429v7.13l1.488-2.067,1.217-6.781-19.283-8.907-2.988,7.412" transform="translate(-595.957 -265.872)"/></g><path class="l" d="M615.129,350.125a22.9,22.9,0,0,1-4.725,4.136,11.712,11.712,0,0,1,2.22-2.229A11.594,11.594,0,0,1,615.129,350.125Z" transform="translate(-527.047 -178.273)"/><path class="l" d="M616.165,352.534c.067.109-1.419,1.109-3.026,2.6s-2.736,2.879-2.839,2.8a14.247,14.247,0,0,1,5.866-5.4Z" transform="translate(-527.164 -175.613)"/><path class="l" d="M599.369,340.3a9.537,9.537,0,0,1-1.764,2.214,9.4,9.4,0,0,1-2.079,1.922,9.484,9.484,0,0,1,1.764-2.214A9.343,9.343,0,0,1,599.369,340.3Z" transform="translate(-543.484 -189.125)"/><path class="l" d="M601.2,343.247a45.35,45.35,0,0,1-6.794,5.613,45.362,45.362,0,0,1,6.794-5.613Z" transform="translate(-544.722 -185.869)"/><g transform="translate(71.464 240.097)"><path class="ak" d="M605.011,391.868l.931-6.817,7.9-.775,17.2,6.508V392.8Z" transform="translate(-604.464 -380.639)"/><path class="l" d="M630.869,387.687a4.833,4.833,0,0,1-1.01.215c-.655.112-1.608.242-2.789.375a79.047,79.047,0,0,1-18.533-.189c-1.179-.156-2.128-.305-2.78-.431a4.774,4.774,0,0,1-1.006-.236,4.841,4.841,0,0,1,1.031.069c.907.095,1.829.194,2.791.295,2.355.234,5.619.474,9.231.511s6.878-.137,9.239-.324c.962-.08,1.886-.16,2.795-.236A4.79,4.79,0,0,1,630.869,387.687Z" transform="translate(-604.751 -377.179)"/><path class="l" d="M616.9,386.63c-.013.124-2,0-4.441.034s-4.422.21-4.439.086a21.763,21.763,0,0,1,8.88-.12Z" transform="translate(-601.144 -378.481)"/><path class="l" d="M615.957,385.887a37.829,37.829,0,0,1-8.067-.255,37.84,37.84,0,0,1,8.067.255Z" transform="translate(-601.284 -379.276)"/><path class="l" d="M612.5,388.555a2.919,2.919,0,0,1-.3-1.023,6.9,6.9,0,0,1,.143-2.9c.2-.547.261-1.374,1.141-1.734a.957.957,0,0,1,1.071.636,2.588,2.588,0,0,1,.211,1.219c-.036.819.023,1.659-.1,2.57a1.18,1.18,0,0,1-1.031,1.071,2.24,2.24,0,0,1-1.362-.6,23.4,23.4,0,0,1-3.814-3.633c-.229-.333-.57-.545-.68-1.078a.478.478,0,0,1,.581-.507,1.365,1.365,0,0,1,.554.276,6.539,6.539,0,0,1,2.65,4.068,2.873,2.873,0,0,1,.067,1.063,7.694,7.694,0,0,0-1.5-3.532,6.371,6.371,0,0,0-1.421-1.3c-.292-.232-.608-.28-.558-.095.029.238.366.549.606.852a24.515,24.515,0,0,0,3.769,3.546,1.923,1.923,0,0,0,1.084.52c.347,0,.558-.335.638-.735.114-.819.069-1.679.114-2.462.074-.737-.232-1.65-.8-1.524-.541.166-.756.941-.93,1.469A8.593,8.593,0,0,0,612.5,388.555Z" transform="translate(-601.407 -382.548)"/></g><g transform="translate(1.924 32.79)"><g transform="translate(5.353 3.522)"><path class="m" d="M574.253,294.346a48.738,48.738,0,0,1,4.127,4.992,3.057,3.057,0,0,0,3.418,1.046l6.407-2.957a1.583,1.583,0,0,0,.875-1.848c-.511-1.917-1.286-5.449-.49-6.756,1.248-2.046,1.738-2.382,1.223-2.786-1.387-1.094-5.135.551-4.988,6.543" transform="translate(-574.253 -285.721)"/></g><path class="m" d="M589.133,295.565s-6.773-10.921-8.115-11.489,1.446,7.391,2.738,8.839c0,0-6.615-7.65-7.856-7.288s4.651,8.425,4.7,8.269-6.712-7.267-7.482-6.223c-.56.76,4.184,6.242,4.184,6.242s-5.2-2.6-5.592-1.364c-.194.619,7.821,5.542,7.821,5.542Z" transform="translate(-571.709 -284.047)"/></g></g><path class="m" d="M618.252,334.743s.017,2.4,2.422,1.1a24.57,24.57,0,0,1,3.26-1.587s.368,4.521-.61,4.413l-1.5.147s1.48,3.982,4,1.181c0,0,.625,3.21,3.332-.589,0,0,1.257,2.519,3-.286s2.319-6.644-.4-13.482l-7.671.345S624.461,332.447,618.252,334.743Z" transform="translate(-518.373 -205.317)"/></g><g transform="translate(920.751 328.841)"><path class="am" d="M612.016,250.493l-9.37-3.574a.44.44,0,1,0-.314.823l8.292,3.161-5.742,2.189-7.219-3.268a.44.44,0,0,0-.362.8l6.423,2.909-6.242,2.378L584.344,250.9l13.139-5.009,3.239,1.233a.439.439,0,1,0,.314-.821l-3.395-1.294a.425.425,0,0,0-.314,0l-14.377,5.48a.438.438,0,0,0-.282.41v2.01a.438.438,0,0,0,.282.41l4.489,1.711v1.526a.44.44,0,1,0,.88,0v-1.189l9.008,3.433a.4.4,0,0,0,.156.029.413.413,0,0,0,.158-.029l6.787-2.587v6.964a14.916,14.916,0,0,1-16.109-1.427V258.32a.44.44,0,1,0-.88,0v3.647a.434.434,0,0,0,.166.343,15.785,15.785,0,0,0,16.822,1.856v1.783a1.672,1.672,0,1,0,.882,0V263.7a15.781,15.781,0,0,0,2.052-1.393.438.438,0,0,0,.164-.343v-6.933l4.489-1.711a.44.44,0,0,0,.284-.41V250.9A.44.44,0,0,0,612.016,250.493Zm-6.354,17.069a.792.792,0,1,1-.793-.791A.792.792,0,0,1,605.662,267.562Zm-22.113-16.018,13.495,5.144v1.067l-13.495-5.144Zm14.375,6.211v-1.067l6.505-2.479v1.067Zm8.724,4a15.29,15.29,0,0,1-1.336.926v-6.8l1.336-.509Zm-1.336-6.815v-1.069l6.107-2.328v1.067Z" transform="translate(-582.669 -244.983)"/></g></g></svg>