<svg width="23" height="18" viewBox="0 0 23 18" fill="none" xmlns="http://www.w3.org/2000/svg">
<path d="M20.9639 0.483398C21.4717 0.483398 21.9014 0.678711 22.292 1.03027C22.6436 1.4209 22.8389 1.85059 22.8389 2.3584V16.1084C22.8389 16.6553 22.6436 17.085 22.292 17.4365C21.9014 17.8271 21.4717 17.9834 20.9639 17.9834H2.21387C1.66699 17.9834 1.2373 17.8271 0.885742 17.4365C0.495117 17.085 0.338867 16.6553 0.338867 16.1084V2.3584C0.338867 1.85059 0.495117 1.4209 0.885742 1.03027C1.2373 0.678711 1.66699 0.483398 2.21387 0.483398H20.9639ZM2.21387 1.7334C2.01855 1.7334 1.8623 1.81152 1.74512 1.92871C1.62793 2.0459 1.58887 2.20215 1.58887 2.3584V4.2334H21.5889V2.3584C21.5889 2.20215 21.5107 2.0459 21.3936 1.92871C21.2764 1.81152 21.1201 1.7334 20.9639 1.7334H2.21387ZM20.9639 16.7334C21.1201 16.7334 21.2764 16.6943 21.3936 16.5771C21.5107 16.46 21.5889 16.3037 21.5889 16.1084V7.9834H1.58887V16.1084C1.58887 16.3037 1.62793 16.46 1.74512 16.5771C1.8623 16.6943 2.01855 16.7334 2.21387 16.7334H20.9639ZM7.83887 13.4521C7.83887 13.335 7.76074 13.2178 7.68262 13.1396C7.60449 13.0615 7.4873 12.9834 7.37012 12.9834H4.55762C4.40137 12.9834 4.28418 13.0615 4.20605 13.1396C4.12793 13.2178 4.08887 13.335 4.08887 13.4521V13.7646C4.08887 13.9209 4.12793 14.0381 4.20605 14.1162C4.28418 14.1943 4.40137 14.2334 4.55762 14.2334H7.37012C7.4873 14.2334 7.60449 14.1943 7.68262 14.1162C7.76074 14.0381 7.83887 13.9209 7.83887 13.7646V13.4521ZM15.3389 13.4521C15.3389 13.335 15.2607 13.2178 15.1826 13.1396C15.1045 13.0615 14.9873 12.9834 14.8701 12.9834H9.55762C9.40137 12.9834 9.28418 13.0615 9.20605 13.1396C9.12793 13.2178 9.08887 13.335 9.08887 13.4521V13.7646C9.08887 13.9209 9.12793 14.0381 9.20605 14.1162C9.28418 14.1943 9.40137 14.2334 9.55762 14.2334H14.8701C14.9873 14.2334 15.1045 14.1943 15.1826 14.1162C15.2607 14.0381 15.3389 13.9209 15.3389 13.7646V13.4521Z" fill="#2D86DA"/>
</svg>
