<svg xmlns="http://www.w3.org/2000/svg" width="298" height="245.215" viewBox="0 0 298 245.215"><defs><style>.a{fill:#e1e8f6;}.a,.b,.c{fill-rule:evenodd;}.b{fill:#c0cdea;}.c{fill:#9fb2d9;}.d{fill:#475993;opacity:0.5;}.e{fill:#fff;}.f{fill:#f5f5f5;}.g{fill:#e3e5e1;}.h{fill:#f23b3b;}.i{fill:#f4ea3d;}.j{fill:#8def1b;}.k{opacity:0.7;}.l{fill:#76a9e9;}</style></defs><g transform="translate(-69 -1100)"><path class="a" d="M107.9,168.275H81.763a25.651,25.651,0,0,0-25.577,25.577h0a25.651,25.651,0,0,0,25.577,25.576H302.771a41.537,41.537,0,0,0,41.415-41.415h0A41.537,41.537,0,0,0,302.771,136.6h0a17.563,17.563,0,0,1-17.511-17.512h0a17.562,17.562,0,0,1,17.511-17.511h21.076a18.259,18.259,0,0,0,18.205-18.207h0a18.259,18.259,0,0,0-18.205-18.206H297.2a7.109,7.109,0,0,1-7.087-7.088h0a7.108,7.108,0,0,1,7.087-7.088h4.7a4.906,4.906,0,0,0,4.892-4.892h0a4.907,4.907,0,0,0-4.892-4.892H271.067c-6.492,0-7.215,7.67-23.614,7.67H209.426a6.4,6.4,0,0,0-6.383,6.383h0a6.4,6.4,0,0,0,6.383,6.383h6.13a9.277,9.277,0,0,1,9.25,9.249h0a9.277,9.277,0,0,1-9.25,9.249H197.107c-24.912,0-28.431,6.51-32.794,19.459s-27.023,13.993-27.023,13.993H106.3a13.979,13.979,0,0,0-13.938,13.937h0A13.979,13.979,0,0,0,106.3,141.463h1.6a13.445,13.445,0,0,1,13.406,13.406h0A13.445,13.445,0,0,1,107.9,168.275ZM315.621,50.986a4.892,4.892,0,1,1,4.892-4.892A4.892,4.892,0,0,1,315.621,50.986Z" transform="translate(22.814 1098.321)"/><path class="b" d="M108.4,303.026Zm2.991-11.389a5.754,5.754,0,1,1-1.685,4.07,5.736,5.736,0,0,1,1.685-4.07Zm1.242-5.7a10.108,10.108,0,0,0-2.255.96,10.314,10.314,0,0,0-1.979,1.491.353.353,0,0,1-.421.052l-2.674-1.544-.014-.01a.669.669,0,0,0-.891.252l-.011.019-1.88,3.258a.667.667,0,0,0,.242.906l.019.011,2.652,1.532a.353.353,0,0,1,.167.389h0a10.309,10.309,0,0,0-.223,3.694,10,10,0,0,0,.224,1.216.356.356,0,0,1-.187.4l-2.652,1.529h0a.668.668,0,0,0-.307.4.658.658,0,0,0,.065.5l1.892,3.277h0a.662.662,0,0,0,.9.242l.021-.009,2.655-1.534a.352.352,0,0,1,.419.051,10.212,10.212,0,0,0,1.979,1.491,10.1,10.1,0,0,0,2.269.965.355.355,0,0,1,.257.342v3.084a.664.664,0,0,0,.662.661h3.784a.663.663,0,0,0,.662-.661v-3.086a.356.356,0,0,1,.272-.344,10.051,10.051,0,0,0,2.254-.961,10.192,10.192,0,0,0,1.98-1.491.353.353,0,0,1,.438-.04l2.656,1.533a.669.669,0,0,0,.5.065.661.661,0,0,0,.4-.309l.011-.018L128.41,301h0a.663.663,0,0,0,.065-.5.67.67,0,0,0-.306-.4l-2.672-1.542a.352.352,0,0,1-.167-.389h0a10.083,10.083,0,0,0,.223-1.217,10.374,10.374,0,0,0,0-2.48,10.107,10.107,0,0,0-.223-1.215.352.352,0,0,1,.187-.4l2.652-1.532a.665.665,0,0,0,.306-.4.657.657,0,0,0-.065-.5l-.01-.019-1.881-3.259h0a.667.667,0,0,0-.905-.243h0l-2.673,1.544a.353.353,0,0,1-.43-.06,10.2,10.2,0,0,0-1.971-1.484,10.066,10.066,0,0,0-2.269-.964.356.356,0,0,1-.257-.341v-3.084a.661.661,0,0,0-.662-.661h-3.784a.663.663,0,0,0-.662.661v3.084A.354.354,0,0,1,112.631,285.934Z" transform="translate(70.582 867.73)"/><path class="b" d="M55.231,216.461A8.408,8.408,0,1,1,53.4,219.2a8.421,8.421,0,0,1,1.827-2.734Zm3.029-1.108a7.68,7.68,0,1,0,2.922-.578,7.667,7.667,0,0,0-2.922.578Zm-.93-6.193a13.608,13.608,0,0,0-1.551.553,13.761,13.761,0,0,0-1.49.744,13.878,13.878,0,0,0-2.685,2.025.879.879,0,0,1-1.053.127c-1.236-.713-2.536-1.42-3.746-2.163a.519.519,0,0,0-.182-.056.558.558,0,0,0-.207.016.551.551,0,0,0-.189.092.537.537,0,0,0-.136.155c-.9,1.363-1.806,3.125-2.639,4.57a.508.508,0,0,0-.067.194.562.562,0,0,0,.016.213.543.543,0,0,0,.092.189.532.532,0,0,0,.156.137c1.112.735,2.544,1.471,3.723,2.151a.88.88,0,0,1,.427.6l.076.025-.086.348c-.067.273-.127.546-.177.818s-.091.542-.126.831-.06.561-.076.837-.025.553-.025.846.008.577.025.846.042.556.076.838.077.566.126.83.11.545.177.819a.878.878,0,0,1-.455.994l-3.3,1.9v0l-.391.225a.524.524,0,0,0-.156.136.548.548,0,0,0-.092.189.567.567,0,0,0-.016.214.506.506,0,0,0,.067.193l2.441,4.23h0l.2.341a.531.531,0,0,0,.136.155.553.553,0,0,0,.4.108.513.513,0,0,0,.193-.065c1.181-.742,2.514-1.45,3.732-2.153a.882.882,0,0,1,1.049.126l0,0a13.747,13.747,0,0,0,5.764,3.332.88.88,0,0,1,.462.316.889.889,0,0,1,.178.532v4.3a.524.524,0,0,0,.158.376.518.518,0,0,0,.376.158h5.28a.537.537,0,0,0,.2-.04.552.552,0,0,0,.174-.117.563.563,0,0,0,.117-.174.519.519,0,0,0,.04-.2v-4.3a.889.889,0,0,1,.68-.859,13.521,13.521,0,0,0,1.55-.553,13.683,13.683,0,0,0,1.491-.744,13.967,13.967,0,0,0,2.685-2.024.882.882,0,0,1,1.1-.1l3.683,2.126a.529.529,0,0,0,.2.065.573.573,0,0,0,.213-.016.555.555,0,0,0,.189-.093.525.525,0,0,0,.137-.155c.874-1.526,1.763-3.046,2.639-4.571a.519.519,0,0,0,.066-.194.569.569,0,0,0-.016-.212.547.547,0,0,0-.092-.189.479.479,0,0,0-.152-.136l-3.727-2.152a.876.876,0,0,1-.371-.417.858.858,0,0,1-.047-.142l-.1-.02.1-.4c.068-.273.127-.546.177-.818s.091-.542.126-.831.061-.561.077-.838.025-.552.025-.846-.009-.575-.025-.845-.042-.556-.076-.837-.078-.571-.126-.833-.109-.545-.177-.816a.878.878,0,0,1,.452-.994l3.69-2.131a.488.488,0,0,0,.154-.136.52.52,0,0,0,.092-.189.567.567,0,0,0,.016-.211.525.525,0,0,0-.066-.195c-.9-1.34-1.8-3.13-2.639-4.571a.538.538,0,0,0-.137-.155.553.553,0,0,0-.189-.092.56.56,0,0,0-.212-.016.53.53,0,0,0-.2.067l-3.728,2.152a.873.873,0,0,1-.559.112.886.886,0,0,1-.5-.249,13.814,13.814,0,0,0-2.675-2.014A13.718,13.718,0,0,0,65,209.15a.882.882,0,0,1-.64-.85l0-4.3a.517.517,0,0,0-.04-.2.539.539,0,0,0-.118-.173.529.529,0,0,0-.173-.118.537.537,0,0,0-.2-.039h-5.28a.533.533,0,0,0-.2.039.557.557,0,0,0-.174.117.537.537,0,0,0-.157.376v4.3a.884.884,0,0,1-.679.859ZM55.474,209a14.405,14.405,0,0,0-1.574.787,14.555,14.555,0,0,0-2.835,2.137.094.094,0,0,1-.059.027.1.1,0,0,1-.064-.012q-1.881-1.085-3.761-2.171a1.291,1.291,0,0,0-.471-.148,1.322,1.322,0,0,0-.955.263,1.291,1.291,0,0,0-.338.384c-.908,1.471-1.771,3.065-2.64,4.569a1.311,1.311,0,0,0-.164.487,1.329,1.329,0,0,0,.035.512,1.31,1.31,0,0,0,.61.8c1.2.74,2.5,1.443,3.726,2.151a.1.1,0,0,1,.042.048.106.106,0,0,1,.006.065l-.086.348,0,0c-.038.169-.072.341-.1.515-.055.3-.1.591-.135.879s-.061.58-.079.883-.028.6-.028.892.01.588.028.892.045.6.079.884.081.58.135.879.118.585.186.864a.1.1,0,0,1-.007.068.1.1,0,0,1-.046.05c-1.369.732-2.759,1.592-4.113,2.374l.048.06-.041.052a1.329,1.329,0,0,0-.261.972,1.3,1.3,0,0,0,.164.486l2.837,4.912.052-.031a1.122,1.122,0,0,0,.088.073,1.317,1.317,0,0,0,.97.26,1.3,1.3,0,0,0,.473-.156c1.241-.658,2.518-1.454,3.743-2.161a.111.111,0,0,1,.062-.011.113.113,0,0,1,.062.028A14.532,14.532,0,0,0,53.9,235.04a14.257,14.257,0,0,0,1.585.792,14.493,14.493,0,0,0,1.669.592.106.106,0,0,1,.055.036.1.1,0,0,1,.021.063v4.3a1.318,1.318,0,0,0,1.313,1.313h5.28a1.286,1.286,0,0,0,.5-.1,1.334,1.334,0,0,0,.427-.285,1.315,1.315,0,0,0,.385-.927v-4.3a.108.108,0,0,1,.021-.065.1.1,0,0,1,.059-.035l.017-.007a14.5,14.5,0,0,0,1.659-.588A14.6,14.6,0,0,0,71.3,232.9a.1.1,0,0,1,.061-.028.1.1,0,0,1,.067.017l3.726,2.151a1.3,1.3,0,0,0,.484.163,1.32,1.32,0,0,0,.972-.26,1.306,1.306,0,0,0,.331-.373c.979-1.574,1.9-3.3,2.837-4.915l-.05-.03c.009-.041.016-.083.021-.125a1.335,1.335,0,0,0-.033-.51,1.314,1.314,0,0,0-.228-.46,1.284,1.284,0,0,0-.383-.338l-3.727-2.151a.105.105,0,0,1-.048-.115l.1-.394h-.005c.033-.153.064-.31.093-.467.054-.3.1-.592.135-.88s.062-.581.08-.884.028-.6.028-.892-.009-.587-.028-.891-.045-.6-.08-.886-.079-.578-.135-.879-.116-.583-.186-.861a.107.107,0,0,1,.008-.069.1.1,0,0,1,.047-.049l3.722-2.149a1.272,1.272,0,0,0,.383-.338,1.309,1.309,0,0,0,.26-.969,1.308,1.308,0,0,0-.157-.475c-.887-1.644-1.9-3.3-2.843-4.925l-.053.032c-.028-.026-.057-.05-.087-.074a1.319,1.319,0,0,0-.971-.26,1.294,1.294,0,0,0-.484.161l-.276.158v0l-3.456,1.995a.1.1,0,0,1-.067.013.1.1,0,0,1-.059-.028l-.009-.01a14.7,14.7,0,0,0-1.349-1.149,14.461,14.461,0,0,0-4.729-2.36.1.1,0,0,1-.054-.036.094.094,0,0,1-.022-.064V204a1.305,1.305,0,0,0-.387-.927,1.336,1.336,0,0,0-.425-.285,1.3,1.3,0,0,0-.5-.1h-5.28a1.307,1.307,0,0,0-.5.1,1.359,1.359,0,0,0-.426.285,1.308,1.308,0,0,0-.386.927v4.3a.121.121,0,0,1-.021.067.114.114,0,0,1-.058.035l-.017.006A14.509,14.509,0,0,0,55.474,209Z" transform="translate(26.396 1020.451)"/><path class="b" d="M341.44,114.4Zm2.991-11.389a5.755,5.755,0,1,1-1.685,4.069,5.736,5.736,0,0,1,1.685-4.069Zm1.243-5.7a10.1,10.1,0,0,0-2.256.961,10.235,10.235,0,0,0-1.978,1.491.351.351,0,0,1-.421.052l-2.674-1.543-.014-.01a.664.664,0,0,0-.488-.054.649.649,0,0,0-.4.307l-.011.017-1.881,3.259a.667.667,0,0,0,.243.906l.018.011,2.653,1.531a.353.353,0,0,1,.166.389h0a10.271,10.271,0,0,0,0,4.911.355.355,0,0,1-.186.4l-2.652,1.53h0a.667.667,0,0,0-.243.906l1.892,3.277h0a.663.663,0,0,0,.9.243l.021-.01,2.655-1.534a.353.353,0,0,1,.419.052,10.149,10.149,0,0,0,4.248,2.456.354.354,0,0,1,.258.339v3.085a.663.663,0,0,0,.661.661h3.785a.661.661,0,0,0,.466-.195.653.653,0,0,0,.2-.467v-3.085a.353.353,0,0,1,.271-.343,10.16,10.16,0,0,0,2.255-.961,10.276,10.276,0,0,0,1.979-1.491.353.353,0,0,1,.438-.041l2.656,1.533a.663.663,0,0,0,.905-.243l.011-.018,1.883-3.259h0a.662.662,0,0,0,.066-.5.67.67,0,0,0-.307-.4l-2.672-1.542a.355.355,0,0,1-.167-.39h0a9.637,9.637,0,0,0,.222-1.216,10.144,10.144,0,0,0,0-2.48,9.553,9.553,0,0,0-.222-1.216.353.353,0,0,1,.187-.4l2.652-1.531a.665.665,0,0,0,.241-.905l-.01-.02-1.881-3.258h0a.649.649,0,0,0-.4-.307.66.66,0,0,0-.5.063h0l-2.675,1.543a.352.352,0,0,1-.428-.059,10.221,10.221,0,0,0-1.972-1.484,10.049,10.049,0,0,0-2.27-.964.355.355,0,0,1-.256-.34V93.875a.667.667,0,0,0-.661-.661h-3.785a.664.664,0,0,0-.661.661V96.96A.353.353,0,0,1,345.675,97.3Z" transform="translate(5.459 1224.277)"/><path class="b" d="M665.854,241.06Zm2.991-11.39a5.759,5.759,0,1,1-1.683,4.069,5.74,5.74,0,0,1,1.683-4.069Zm1.242-5.7a10.1,10.1,0,0,0-2.254.961,10.214,10.214,0,0,0-1.979,1.491.354.354,0,0,1-.422.051l-2.673-1.543-.014-.009a.67.67,0,0,0-.891.252l-.012.018-1.879,3.258a.663.663,0,0,0,.243.906l.016.012,2.653,1.53a.356.356,0,0,1,.167.39h0a10.256,10.256,0,0,0-.225,1.216,10.61,10.61,0,0,0,0,2.479,10.306,10.306,0,0,0,.225,1.216.354.354,0,0,1-.188.4l-2.649,1.529h0a.675.675,0,0,0-.31.4.665.665,0,0,0,.067.5l1.891,3.276h0a.668.668,0,0,0,.905.244l.02-.011,2.655-1.534a.355.355,0,0,1,.42.052,10.2,10.2,0,0,0,1.979,1.491,10.086,10.086,0,0,0,2.269.964.356.356,0,0,1,.257.341v3.084a.666.666,0,0,0,.662.661h3.785a.667.667,0,0,0,.662-.661v-3.084a.354.354,0,0,1,.271-.345,10.115,10.115,0,0,0,2.256-.96,10.3,10.3,0,0,0,1.979-1.491.353.353,0,0,1,.439-.041l2.654,1.534a.667.667,0,0,0,.905-.244l.012-.018,1.88-3.259h0a.657.657,0,0,0,.065-.5.666.666,0,0,0-.306-.4l-2.672-1.542a.351.351,0,0,1-.167-.39h0a10.322,10.322,0,0,0,.223-1.215,10.383,10.383,0,0,0,0-2.48,10.272,10.272,0,0,0-.223-1.216.353.353,0,0,1,.186-.4l2.653-1.531a.667.667,0,0,0,.241-.9l-.011-.02-1.88-3.259h0a.671.671,0,0,0-.907-.244h0l-2.673,1.543a.352.352,0,0,1-.429-.058,10.14,10.14,0,0,0-4.242-2.449.353.353,0,0,1-.255-.34v-3.084a.667.667,0,0,0-.662-.661h-3.785a.666.666,0,0,0-.662.661v3.084A.352.352,0,0,1,670.087,223.966Z" transform="translate(-318.953 880.123)"/><path class="c" d="M694.495,270.3a.986.986,0,1,0-1.972,0v2.322H690.2a.987.987,0,0,0,0,1.974h2.322v2.32a.986.986,0,1,0,1.972,0v-2.32h2.32a.987.987,0,1,0,0-1.974h-2.32Z" transform="translate(-503.555 844.428)"/><g transform="translate(78.105 1130.13)"><path class="d" d="M251.1,180.061H75.9l-3.237-3.237L75.9,63.116l171.967-3.237,3.237,3.237Z" transform="translate(0 0)"/><rect class="e" width="175.204" height="116.945" transform="translate(72.659 59.879)"/><rect class="f" width="175.204" height="14.033" transform="translate(72.659 59.879)"/><rect class="g" width="175.204" height="0.851" transform="translate(72.659 73.062)"/><circle class="h" cx="3.827" cy="3.827" r="3.827" transform="translate(74.859 69.103) rotate(-76.718)"/><circle class="i" cx="3.827" cy="3.827" r="3.827" transform="translate(84.21 64.268) rotate(-23.425)"/><circle class="j" cx="3.827" cy="3.827" r="3.827" transform="translate(93.621 66.58) rotate(-48.415)"/></g><g class="k" transform="translate(199.793 1209)"><path class="l" d="M25.373,17.309a5.674,5.674,0,0,0,5.689-5.678V5.689a5.687,5.687,0,1,0-11.375,0v5.945A5.673,5.673,0,0,0,25.373,17.309Z" transform="translate(35.379)"/><path class="l" d="M80.961,3.587H69.51V6.479a8.659,8.659,0,1,1-17.317,0V3.587H29.086V6.479a8.661,8.661,0,1,1-17.323,0V3.587L.208,3.443V75.758h75.07l5.77-.017ZM75.272,70H5.987V23.8H75.278V70Z" transform="translate(0 6.253)"/><path class="l" d="M11.019,17.309a5.677,5.677,0,0,0,5.692-5.678V5.689a5.687,5.687,0,1,0-11.375,0v5.945A5.667,5.667,0,0,0,11.019,17.309Z" transform="translate(9.314)"/><rect class="l" width="9.099" height="8.032" transform="translate(29.103 36.253)"/><rect class="l" width="9.108" height="8.032" transform="translate(43.815 36.253)"/><rect class="l" width="9.099" height="8.032" transform="translate(57.459 36.253)"/><rect class="l" width="9.099" height="8.026" transform="translate(29.103 49.591)"/><rect class="l" width="9.108" height="8.026" transform="translate(43.815 49.591)"/><rect class="l" width="9.099" height="8.026" transform="translate(57.459 49.591)"/><rect class="l" width="9.099" height="8.026" transform="translate(29.103 63.194)"/><rect class="l" width="9.094" height="8.026" transform="translate(14.65 49.591)"/><rect class="l" width="9.094" height="8.026" transform="translate(14.65 63.194)"/><rect class="l" width="9.108" height="8.026" transform="translate(43.815 63.194)"/><rect class="l" width="9.099" height="8.026" transform="translate(57.459 63.194)"/></g></g></svg>