<svg xmlns="http://www.w3.org/2000/svg" width="60" height="60" viewBox="0 0 60 60"><defs><style>.a{opacity:0.5;}.b{fill:#036892;}</style></defs><g class="a"><path class="b" d="M58.242,0H1.758A1.758,1.758,0,0,0,0,1.758V46.945A1.758,1.758,0,0,0,1.758,48.7H11.3v9.539a1.758,1.758,0,0,0,3,1.243L25.08,48.7H58.242A1.758,1.758,0,0,0,60,46.945V1.758A1.758,1.758,0,0,0,58.242,0ZM56.484,45.188H24.352a1.758,1.758,0,0,0-1.243.515l-8.3,8.3V46.945a1.758,1.758,0,0,0-1.758-1.758H3.516V3.516H56.484Z"/><g transform="translate(16.004 11.297)"><path class="b" d="M162.8,102.049h-4.209L158.9,98.3a1.758,1.758,0,1,0-3.5-.292l-.336,4.037H147.3l.312-3.745a1.758,1.758,0,0,0-3.5-.292l-.336,4.037h-3.56a1.758,1.758,0,0,0,0,3.516h3.267l-.648,7.781h-4.5a1.758,1.758,0,1,0,0,3.516h4.209l-.312,3.745a1.758,1.758,0,0,0,1.606,1.9q.075.006.148.006a1.758,1.758,0,0,0,1.75-1.612l.336-4.037h7.769l-.312,3.745a1.758,1.758,0,0,0,1.606,1.9c.05,0,.1.006.148.006a1.758,1.758,0,0,0,1.75-1.612l.336-4.037h3.56a1.758,1.758,0,0,0,0-3.516h-3.267l.648-7.781h4.5a1.758,1.758,0,1,0,0-3.516Zm-8.678,11.3h-7.769l.648-7.781h7.769Z" transform="translate(-136.567 -96.4)"/></g></g></svg>