<svg width="233" height="230" viewBox="0 0 233 230" fill="none" xmlns="http://www.w3.org/2000/svg">
<path d="M131.94 211.919C127.416 212.72 122.892 213.521 118.235 213.566C91.9311 214.33 67.0386 205.5 47.461 187.163C28.0171 169.582 16.6849 145.113 15.9083 118.776C15.1317 92.4389 23.9377 67.5198 42.2409 47.9272C59.7901 28.4682 84.2217 17.1346 110.525 16.371C136.829 15.6073 161.722 24.4376 181.299 42.7741C200.743 60.3557 212.075 84.8241 212.852 111.161C213.629 137.499 204.823 162.418 186.519 182.01C172.205 197.782 153.051 208.181 131.94 211.919Z" fill="url(#paint0_linear)"/>
<circle cx="124.224" cy="109.254" r="108.275" stroke="#D83E7F"/>
<defs>
<linearGradient id="paint0_linear" x1="97.1503" y1="17.6871" x2="131.551" y2="211.988" gradientUnits="userSpaceOnUse">
<stop stop-color="#D83E7F"/>
<stop offset="1" stop-color="#D83E7F" stop-opacity="0.7"/>
</linearGradient>
</defs>
</svg>
