<svg width="236" height="215" viewBox="0 0 236 215" fill="none" xmlns="http://www.w3.org/2000/svg">
<path d="M121.173 99.8862C118.937 99.8862 117.311 101.513 117.311 103.749C117.311 105.986 118.937 107.612 121.173 107.612C123.41 107.612 125.036 105.986 125.036 103.749C125.036 101.513 123.41 99.8862 121.173 99.8862Z" fill="#F08345" fill-opacity="0.7"/>
<path d="M160.412 99.8862C158.176 99.8862 156.346 101.513 156.346 103.749C156.346 105.986 157.972 107.815 160.209 107.815C162.445 107.815 164.072 106.189 164.275 103.952C164.072 101.716 162.648 100.09 160.412 99.8862Z" fill="#F08345" fill-opacity="0.7"/>
<path d="M199.244 99.8862C197.007 99.8862 195.381 101.513 195.381 103.749C195.381 105.986 197.007 107.612 199.244 107.612C201.48 107.612 203.107 105.986 203.107 103.749C203.31 101.716 201.684 99.8862 199.244 99.8862Z" fill="#F08345" fill-opacity="0.7"/>
<path d="M23.3805 127.332C25.6169 127.332 27.2434 125.706 27.2434 123.469C27.2434 121.233 25.6169 119.606 23.3805 119.606C21.1441 119.606 19.5176 121.233 19.5176 123.469C19.5176 125.706 21.1441 127.332 23.3805 127.332Z" fill="#F08345" fill-opacity="0.7"/>
<path d="M62.4156 127.332C64.6521 127.332 66.2786 125.705 66.4819 123.469C66.4819 121.233 64.8554 119.606 62.619 119.403C60.3825 119.403 58.756 121.029 58.5527 123.266C58.5527 125.502 60.1792 127.332 62.4156 127.332Z" fill="#F08345" fill-opacity="0.7"/>
<path d="M101.654 119.403C99.4175 119.403 97.791 121.029 97.791 123.266C97.791 125.502 99.4175 127.129 101.654 127.129C103.89 127.129 105.517 125.502 105.517 123.266C105.517 121.029 103.89 119.403 101.654 119.403Z" fill="#F08345" fill-opacity="0.7"/>
<path d="M140.894 119.403C138.658 119.403 136.828 120.826 136.828 123.062C136.828 125.299 138.455 127.129 140.691 127.129C142.927 127.129 144.757 125.502 144.757 123.266C144.757 121.233 143.131 119.606 140.894 119.403Z" fill="#F08345" fill-opacity="0.7"/>
<path d="M179.93 119.403C177.693 119.403 176.067 121.029 175.863 123.266C175.863 125.502 177.49 127.129 179.726 127.332C181.963 127.332 183.589 125.705 183.792 123.469C183.792 121.233 182.166 119.606 179.93 119.403Z" fill="#F08345" fill-opacity="0.7"/>
<path d="M43.1027 146.851C45.3391 146.851 46.9656 145.224 46.9656 142.988C46.9656 140.751 45.3391 139.125 43.1027 139.125C40.8663 139.125 39.2398 140.751 39.2398 142.988C39.0365 145.224 40.663 146.851 43.1027 146.851Z" fill="#F08345" fill-opacity="0.7"/>
<path d="M78.0718 142.581C77.8685 144.817 79.495 146.647 81.7314 146.851C83.9679 147.054 85.7977 145.427 86.001 143.191C86.2043 140.954 84.5778 139.125 82.3414 138.921C80.105 138.921 78.2752 140.345 78.0718 142.581Z" fill="#F08345" fill-opacity="0.7"/>
<path d="M121.377 139.125C119.14 139.125 117.311 140.548 117.311 142.785C117.311 145.021 118.734 146.851 120.97 146.851C123.207 146.851 125.036 145.224 125.036 142.988C125.036 140.751 123.613 139.125 121.377 139.125Z" fill="#F08345" fill-opacity="0.7"/>
<path d="M160.209 139.125C157.972 139.125 156.346 140.752 156.346 143.191C156.346 145.428 157.972 147.054 160.412 147.054C162.648 147.054 164.275 145.428 164.275 142.988C164.072 140.548 162.445 138.922 160.209 139.125Z" fill="#F08345" fill-opacity="0.7"/>
<path d="M62.6203 166.369C64.8567 166.369 66.4832 164.742 66.4832 162.506C66.4832 160.27 64.8567 158.643 62.6203 158.643C60.3838 158.643 58.7574 160.27 58.7574 162.506C58.554 164.742 60.1805 166.369 62.6203 166.369Z" fill="#F08345" fill-opacity="0.7"/>
<path d="M101.451 158.643C99.2144 158.643 97.5879 160.269 97.5879 162.709C97.5879 164.945 99.4177 166.572 101.654 166.572C103.891 166.572 105.517 164.945 105.517 162.506C105.517 160.066 103.891 158.439 101.451 158.643Z" fill="#F08345" fill-opacity="0.7"/>
<path d="M140.693 158.643C138.457 158.643 136.83 160.27 136.627 162.506C136.627 164.742 138.253 166.369 140.49 166.572C142.726 166.572 144.353 164.946 144.556 162.709C144.556 160.27 142.93 158.643 140.693 158.643Z" fill="#F08345" fill-opacity="0.7"/>
<path d="M81.9346 185.886C84.171 185.886 86.0008 184.26 86.0008 182.023C86.0008 179.787 84.5776 177.957 82.3412 177.957C80.1048 177.957 78.275 179.38 78.275 181.617C78.0717 184.056 79.6981 185.886 81.9346 185.886Z" fill="#F08345" fill-opacity="0.7"/>
<path d="M121.172 178.161C118.935 178.161 117.105 179.788 117.105 182.024C117.105 184.26 118.732 186.09 120.968 186.09C123.205 186.09 124.831 184.464 125.035 182.227C125.035 179.788 123.408 178.161 121.172 178.161Z" fill="#F08345" fill-opacity="0.7"/>
<path d="M101.451 197.678C99.2144 197.678 97.5879 199.304 97.5879 201.744C97.5879 203.98 99.2144 205.607 101.654 205.607C103.891 205.607 105.517 203.98 105.517 201.541C105.517 199.304 103.891 197.678 101.451 197.678Z" fill="#F08345" fill-opacity="0.7"/>
<path d="M62.6206 49.2615C64.857 49.2615 66.4835 47.635 66.4835 45.3986C66.4835 43.1621 64.857 41.5356 62.6206 41.5356C60.3841 41.5356 58.7576 43.1621 58.7576 45.3986C58.5543 47.4317 60.3841 49.2615 62.6206 49.2615Z" fill="#F08345" fill-opacity="0.7"/>
<path d="M105.519 45.6016C105.722 43.3652 104.095 41.5354 101.859 41.3321C99.6225 41.1288 97.7927 42.7553 97.5894 44.9917C97.3861 47.2281 99.0126 49.0579 101.249 49.2612C103.689 49.2612 105.315 47.8381 105.519 45.6016Z" fill="#F08345" fill-opacity="0.7"/>
<path d="M140.693 41.3315C138.457 41.3315 136.83 42.958 136.627 45.1945C136.627 47.4309 138.253 49.0574 140.49 49.2607C142.726 49.2607 144.353 47.6342 144.556 45.3978C144.556 42.958 142.93 41.3315 140.693 41.3315Z" fill="#F08345" fill-opacity="0.7"/>
<path d="M43.1014 68.7797C45.3378 68.7797 46.9643 67.1532 46.9643 64.7135C46.9643 62.4771 45.3378 60.8506 42.8981 60.8506C40.6616 60.8506 39.0352 62.4771 39.0352 64.9168C39.0352 67.1532 40.865 68.7797 43.1014 68.7797Z" fill="#F08345" fill-opacity="0.7"/>
<path d="M82.1385 60.8506C79.9021 60.8506 78.2756 62.4771 78.0723 64.7135C78.0723 66.9499 79.6987 68.5764 81.9352 68.7797C84.1716 68.7797 85.7981 67.1532 86.0014 64.9168C86.0014 62.4771 84.3749 60.8506 82.1385 60.8506Z" fill="#F08345" fill-opacity="0.7"/>
<path d="M121.173 60.8506C118.937 60.8506 117.311 62.4771 117.311 64.7135C117.311 66.9499 118.937 68.5764 121.173 68.5764C123.41 68.5764 125.036 66.9499 125.036 64.7135C125.036 62.4771 123.41 60.8506 121.173 60.8506Z" fill="#F08345" fill-opacity="0.7"/>
<path d="M160.209 60.8506C157.972 60.8506 156.346 62.4771 156.346 64.7135C156.346 66.9499 157.972 68.5764 160.209 68.5764C162.445 68.5764 164.072 66.9499 164.072 64.7135C164.072 62.4771 162.445 60.8506 160.209 60.8506Z" fill="#F08345" fill-opacity="0.7"/>
<path d="M23.3805 88.2971C25.6169 88.2971 27.2434 86.6706 27.2434 84.4342C27.2434 82.1978 25.6169 80.5713 23.3805 80.5713C21.1441 80.5713 19.5176 82.1978 19.5176 84.4342C19.5176 86.4673 21.1441 88.2971 23.3805 88.2971Z" fill="#F08345" fill-opacity="0.7"/>
<path d="M62.4156 88.2971C64.6521 88.2971 66.2786 86.6706 66.2786 84.4342C66.2786 82.1978 64.6521 80.5713 62.4156 80.5713C60.1792 80.5713 58.5527 82.1978 58.5527 84.4342C58.5527 86.4673 60.1792 88.2971 62.4156 88.2971Z" fill="#F08345" fill-opacity="0.7"/>
<path d="M101.857 80.3682C99.6208 80.3682 97.791 81.7913 97.791 84.0278C97.791 86.2642 99.4175 88.094 101.654 88.094C103.89 88.094 105.72 86.6708 105.72 84.2311C105.517 82.198 104.094 80.5715 101.857 80.3682Z" fill="#F08345" fill-opacity="0.7"/>
<path d="M140.691 80.3682C138.455 80.3682 136.828 81.9946 136.828 84.2311C136.828 86.4675 138.455 88.094 140.691 88.094C142.927 88.094 144.554 86.4675 144.554 84.2311C144.554 81.9946 142.927 80.3682 140.691 80.3682Z" fill="#F08345" fill-opacity="0.7"/>
<path d="M179.726 80.3682C177.49 80.3682 175.863 81.9946 175.863 84.2311C175.863 86.4675 177.49 88.094 179.726 88.094C181.963 88.094 183.589 86.4675 183.589 84.2311C183.589 81.9946 182.166 80.3682 179.726 80.3682Z" fill="#F08345" fill-opacity="0.7"/>
<path d="M3.86291 107.814C6.09933 107.814 7.72582 106.188 7.72582 103.951C7.72582 101.715 6.09933 100.088 3.86291 100.088C1.62649 100.088 0 101.715 0 103.951C0 106.188 1.62649 107.814 3.86291 107.814Z" fill="#F08345" fill-opacity="0.7"/>
<path d="M42.8994 107.815C45.1358 107.815 46.9656 106.392 46.9656 103.952C46.9656 101.716 45.5425 99.8862 43.306 99.8862C41.0696 99.8862 39.2398 101.309 39.2398 103.546C39.0365 105.986 40.663 107.815 42.8994 107.815Z" fill="#F08345" fill-opacity="0.7"/>
<path d="M82.1385 99.8862C79.9021 99.8862 78.2756 101.513 78.0723 103.749C78.0723 105.986 79.6987 107.612 81.9352 107.815C84.1716 107.815 85.7981 106.189 86.0014 103.952C86.0014 101.716 84.3749 99.8862 82.1385 99.8862Z" fill="#F08345" fill-opacity="0.7"/>
<path d="M121.377 22.2207C119.14 22.2207 117.311 23.8472 117.311 26.0836C117.311 28.32 118.734 30.1498 120.97 30.1498C123.207 30.1498 125.036 28.7267 125.036 26.4902C125.036 24.0505 123.613 22.2207 121.377 22.2207Z" fill="#F08345" fill-opacity="0.7"/>
<path d="M81.9352 30.1498C84.1716 30.1498 86.0014 28.5233 86.0014 26.2869C86.0014 24.0505 84.3749 22.2207 82.1385 22.2207C79.9021 22.2207 78.2756 23.8472 78.0723 26.0836C78.0723 28.32 79.6987 29.9465 81.9352 30.1498Z" fill="#F08345" fill-opacity="0.7"/>
<path d="M101.656 10.6323C103.892 10.6323 105.519 9.00577 105.519 6.56604C105.519 4.32961 103.892 2.70312 101.453 2.70312C99.2163 2.70312 97.5898 4.32961 97.5898 6.76935C97.7932 9.00577 99.4196 10.6323 101.656 10.6323Z" fill="#F08345" fill-opacity="0.7"/>
<rect x="22.1792" y="103.014" width="150.815" height="150.815" transform="rotate(-42.716 22.1792 103.014)" stroke="#F08345"/>
</svg>
