<svg width="27" height="28" viewBox="0 0 27 28" fill="none" xmlns="http://www.w3.org/2000/svg">
<path d="M13.4938 2.47469C17.0921 2.47469 17.5419 2.47469 18.8913 2.58714C20.2407 2.69959 20.9153 2.81204 21.3651 3.03693C22.0398 3.26183 22.4896 3.59917 22.9394 4.04897C23.3892 4.49876 23.7266 4.94855 23.9514 5.62324C24.1763 6.07303 24.4012 6.86017 24.4012 8.0971C24.5137 9.55892 24.5137 9.89627 24.5137 13.4946C24.5137 17.0929 24.5137 17.5427 24.4012 18.8921C24.2888 20.2415 24.1763 20.9162 23.9514 21.366C23.7266 22.0407 23.3892 22.4905 22.9394 22.9403C22.4896 23.39 22.0398 23.7274 21.3651 23.9523C20.9153 24.1772 20.1282 24.4021 18.8913 24.4021C17.4295 24.5145 17.0921 24.5145 13.4938 24.5145C9.89544 24.5145 9.44564 24.5145 8.09626 24.4021C6.74688 24.2896 6.0722 24.1772 5.62241 23.9523C4.94772 23.7274 4.49792 23.39 4.04813 22.9403C3.59834 22.4905 3.26099 22.0407 3.0361 21.366C2.8112 20.9162 2.5863 20.129 2.5863 18.8921C2.47385 17.4303 2.47386 17.0929 2.47386 13.4946C2.47386 9.89627 2.47385 9.44648 2.5863 8.0971C2.69875 6.74772 2.8112 6.07303 3.0361 5.62324C3.26099 4.94855 3.59834 4.49876 4.04813 4.04897C4.49792 3.59917 4.94772 3.26183 5.62241 3.03693C6.0722 2.81204 6.85933 2.58714 8.09626 2.58714C9.44564 2.47469 9.89544 2.47469 13.4938 2.47469ZM13.4938 0.113281C9.89544 0.113281 9.44564 0.113281 7.98382 0.225729C6.52199 0.338178 5.6224 0.563074 4.72282 0.900418C3.82323 1.23776 3.14855 1.68756 2.36141 2.47469C1.57427 3.26183 1.12448 3.93652 0.787134 4.8361C0.449789 5.73569 0.224895 6.63527 0.112446 8.0971C-1.7175e-06 9.55892 0 10.0087 0 13.6071C0 17.2054 -1.7175e-06 17.6552 0.112446 19.117C0.224895 20.5788 0.449789 21.4784 0.787134 22.378C1.12448 23.2776 1.57427 23.9523 2.36141 24.7394C3.14855 25.5266 3.82323 25.9764 4.72282 26.3137C5.6224 26.651 6.52199 26.8759 7.98382 26.9884C9.44564 27.1008 9.89544 27.1008 13.4938 27.1008C17.0921 27.1008 17.5419 27.1008 19.0037 26.9884C20.4656 26.8759 21.3651 26.651 22.2647 26.3137C23.1643 25.9764 23.839 25.5266 24.6261 24.7394C25.4133 23.9523 25.8631 23.2776 26.2004 22.378C26.5378 21.4784 26.7627 20.5788 26.8751 19.117C26.9876 17.6552 26.9875 17.2054 26.9875 13.6071C26.9875 10.0087 26.9876 9.55892 26.8751 8.0971C26.7627 6.63527 26.5378 5.73569 26.2004 4.8361C25.8631 3.93652 25.4133 3.26183 24.6261 2.47469C23.839 1.68756 23.1643 1.23776 22.2647 0.900418C21.3651 0.563074 20.4656 0.338178 19.0037 0.225729C17.5419 0.113281 17.0921 0.113281 13.4938 0.113281Z" fill="white"/>
<path d="M13.4941 6.63477C9.67086 6.63477 6.63477 9.67087 6.63477 13.4941C6.63477 17.3173 9.67086 20.3534 13.4941 20.3534C17.3173 20.3534 20.3534 17.3173 20.3534 13.4941C20.3534 9.67087 17.3173 6.63477 13.4941 6.63477ZM13.4941 17.992C11.0202 17.992 8.99617 15.968 8.99617 13.4941C8.99617 11.0202 11.0202 8.99618 13.4941 8.99618C15.968 8.99618 17.992 11.0202 17.992 13.4941C17.992 15.968 15.968 17.992 13.4941 17.992Z" fill="white"/>
<path d="M22.2638 6.29791C22.2638 7.19749 21.5891 7.87218 20.6895 7.87218C19.7899 7.87218 19.1152 7.19749 19.1152 6.29791C19.1152 5.39832 19.7899 4.72363 20.6895 4.72363C21.5891 4.72363 22.2638 5.51077 22.2638 6.29791Z" fill="white"/>
</svg>
