<svg width="23" height="23" viewBox="0 0 27 27" fill="none" xmlns="http://www.w3.org/2000/svg">
<path d="M13.0644 2.28627C16.5482 2.28627 16.9837 2.28627 18.2902 2.39514C19.5966 2.50401 20.2498 2.61288 20.6853 2.83062C21.3385 3.04836 21.774 3.37497 22.2095 3.81045C22.645 4.24593 22.9716 4.68141 23.1893 5.33463C23.4071 5.77011 23.6248 6.5322 23.6248 7.72977C23.7337 9.14508 23.7337 9.47169 23.7337 12.9555C23.7337 16.4394 23.7337 16.8749 23.6248 18.1813C23.5159 19.4877 23.4071 20.141 23.1893 20.5764C22.9716 21.2297 22.645 21.6651 22.2095 22.1006C21.774 22.5361 21.3385 22.8627 20.6853 23.0804C20.2498 23.2982 19.4877 23.5159 18.2902 23.5159C16.8748 23.6248 16.5482 23.6248 13.0644 23.6248C9.58056 23.6248 9.14508 23.6248 7.83864 23.5159C6.5322 23.4071 5.87898 23.2982 5.4435 23.0804C4.79028 22.8627 4.3548 22.5361 3.91932 22.1006C3.48384 21.6651 3.15723 21.2297 2.93949 20.5764C2.72175 20.141 2.50401 19.3789 2.50401 18.1813C2.39514 16.766 2.39514 16.4394 2.39514 12.9555C2.39514 9.47169 2.39514 9.03621 2.50401 7.72977C2.61288 6.42333 2.72175 5.77011 2.93949 5.33463C3.15723 4.68141 3.48384 4.24593 3.91932 3.81045C4.3548 3.37497 4.79028 3.04836 5.4435 2.83062C5.87898 2.61288 6.64107 2.39514 7.83864 2.39514C9.14508 2.28627 9.58056 2.28627 13.0644 2.28627ZM13.0644 0C9.58056 0 9.14508 0 7.72977 0.10887C6.31446 0.21774 5.4435 0.43548 4.57254 0.76209C3.70158 1.0887 3.04836 1.52418 2.28627 2.28627C1.52418 3.04836 1.0887 3.70158 0.762087 4.57254C0.435477 5.4435 0.217738 6.31446 0.108868 7.72977C-1.66285e-06 9.14508 0 9.58056 0 13.0644C0 16.5482 -1.66285e-06 16.9837 0.108868 18.399C0.217738 19.8143 0.435477 20.6853 0.762087 21.5563C1.0887 22.4272 1.52418 23.0804 2.28627 23.8425C3.04836 24.6046 3.70158 25.0401 4.57254 25.3667C5.4435 25.6933 6.31446 25.9111 7.72977 26.0199C9.14508 26.1288 9.58056 26.1288 13.0644 26.1288C16.5482 26.1288 16.9837 26.1288 18.399 26.0199C19.8143 25.9111 20.6853 25.6933 21.5563 25.3667C22.4272 25.0401 23.0804 24.6046 23.8425 23.8425C24.6046 23.0804 25.0401 22.4272 25.3667 21.5563C25.6933 20.6853 25.9111 19.8143 26.0199 18.399C26.1288 16.9837 26.1288 16.5482 26.1288 13.0644C26.1288 9.58056 26.1288 9.14508 26.0199 7.72977C25.9111 6.31446 25.6933 5.4435 25.3667 4.57254C25.0401 3.70158 24.6046 3.04836 23.8425 2.28627C23.0804 1.52418 22.4272 1.0887 21.5563 0.76209C20.6853 0.43548 19.8143 0.21774 18.399 0.10887C16.9837 0 16.5482 0 13.0644 0Z" fill="#FA4D7C"/>
<path d="M13.0649 6.31396C9.36332 6.31396 6.42383 9.25346 6.42383 12.955C6.42383 16.6566 9.36332 19.5961 13.0649 19.5961C16.7665 19.5961 19.706 16.6566 19.706 12.955C19.706 9.25346 16.7665 6.31396 13.0649 6.31396ZM13.0649 17.3098C10.6698 17.3098 8.7101 15.3502 8.7101 12.955C8.7101 10.5599 10.6698 8.60024 13.0649 8.60024C15.46 8.60024 17.4197 10.5599 17.4197 12.955C17.4197 15.3502 15.46 17.3098 13.0649 17.3098Z" fill="#FA4D7C"/>
<path d="M21.5562 5.9878C21.5562 6.85876 20.903 7.51198 20.032 7.51198C19.161 7.51198 18.5078 6.85876 18.5078 5.9878C18.5078 5.11684 19.161 4.46362 20.032 4.46362C20.903 4.46362 21.5562 5.22571 21.5562 5.9878Z" fill="#FA4D7C"/>
</svg>
