<svg width="23" height="23" viewBox="0 0 26 26" fill="none" xmlns="http://www.w3.org/2000/svg">
<path d="M24.103 0H1.89699C0.781112 0 0 0.888889 0 1.88889V24.1111C0 25.1111 0.8927 26 1.89699 26H24.103C25.2189 26 26 25.1111 26 24.1111V1.88889C26 0.888889 25.1073 0 24.103 0ZM7.69957 22.1111H3.79399V9.77778H7.69957V22.1111ZM5.69098 8C4.46352 8 3.45923 7 3.45923 5.77778C3.45923 4.55555 4.46352 3.55556 5.69098 3.55556C6.91845 3.55556 7.92274 4.55555 7.92274 5.77778C7.92274 7 6.91845 8 5.69098 8ZM22.206 22.1111H18.3004V16.1111C18.3004 14.6667 18.3004 12.7778 16.2918 12.7778C14.2833 12.7778 13.9485 14.3333 13.9485 16V22.1111H10.0429V9.77778H13.7253V11.4444C14.2833 10.4444 15.5107 9.44444 17.4077 9.44444C21.3133 9.44444 22.0944 12 22.0944 15.3333V22.1111H22.206Z" fill="#0077B5"/>
</svg>
