<svg width="27" height="27" viewBox="0 0 27 27" fill="none" xmlns="http://www.w3.org/2000/svg">
<path d="M24.2888 0.336914H1.91161C0.787134 0.336914 0 1.2365 0 2.24853V24.7382C0 25.7502 0.899582 26.6498 1.91161 26.6498H24.2888C25.4133 26.6498 26.2004 25.7502 26.2004 24.7382V2.24853C26.2004 1.2365 25.3008 0.336914 24.2888 0.336914ZM7.75892 22.7141H3.82324V10.2324H7.75892V22.7141ZM5.73485 8.43318C4.49792 8.43318 3.48589 7.42115 3.48589 6.18422C3.48589 4.94729 4.49792 3.93525 5.73485 3.93525C6.97178 3.93525 7.98382 4.94729 7.98382 6.18422C7.98382 7.42115 6.97178 8.43318 5.73485 8.43318ZM22.3772 22.7141H18.4415V16.6419C18.4415 15.1801 18.4415 13.2684 16.4174 13.2684C14.3934 13.2684 14.056 14.8427 14.056 16.5294V22.7141H10.1203V10.2324H13.8311V11.9191C14.3934 10.907 15.6303 9.89501 17.5419 9.89501C21.4776 9.89501 22.2647 12.4813 22.2647 15.8548V22.7141H22.3772Z" fill="white"/>
</svg>
