<svg width="29" height="26" viewBox="0 0 29 26" fill="none" xmlns="http://www.w3.org/2000/svg">
<path d="M27.3644 0.125H2.3644C1.4855 0.125 0.801905 0.857422 0.801905 1.6875V23.5625C0.801905 24.4414 1.4855 25.125 2.3644 25.125H27.3644C28.1945 25.125 28.9269 24.4414 28.9269 23.5625V1.6875C28.9269 0.857422 28.1945 0.125 27.3644 0.125ZM27.3644 23.5625H2.3644V13.4062H8.90737L11.007 17.7031C11.1535 17.9473 11.3976 18.0938 11.6906 18.0938C11.7394 18.0938 11.7394 18.0938 11.7882 18.0938C12.0812 18.0938 12.3742 17.8984 12.4718 17.6055L14.8644 10.4277L15.6457 12.918C15.7433 13.2109 16.0851 13.4062 16.4269 13.4062H23.8488C24.0441 13.4062 24.2394 13.2598 24.2394 13.0156V12.2344C24.2394 12.0391 24.0441 11.8438 23.8488 11.8438H16.964L15.5968 7.69336C15.3527 7.05859 14.3273 7.05859 14.0832 7.69336L11.5929 15.3105L10.0792 12.2832C9.93276 12.0391 9.6398 11.8926 9.39565 11.8926H2.3644V1.6875H27.3644V23.5625Z" fill="#2D86DA"/>
</svg>
