<svg width="21" height="21" viewBox="0 0 21 21" fill="none" xmlns="http://www.w3.org/2000/svg">
<path d="M19.4297 3.64893L17.3203 1.53955C16.3047 0.523926 14.625 0.523926 13.6094 1.53955L1.1875 13.8833L0.25 19.7036C0.132812 20.3286 0.679688 20.8755 1.30469 20.7583L7.125 19.8208L19.4688 7.39893C20.4844 6.3833 20.4844 4.70361 19.4297 3.64893ZM4.9375 12.5552L11.5781 5.95361L15.0547 9.43018L8.45312 16.0708V14.4302H6.57812V12.5552H4.9375ZM3.45312 18.688L2.32031 17.5552L2.82812 14.7036L3.53125 13.9614H5.17188V15.8364H7.04688V17.4771L6.30469 18.1802L3.45312 18.688ZM18.2578 6.18799L16.3438 8.10205L12.9062 4.66455L14.8203 2.75049C15.1719 2.39893 15.7578 2.39893 16.1094 2.75049L18.2188 4.85986C18.6094 5.25049 18.6094 5.83643 18.2578 6.18799Z" fill="#2D86DA"/>
</svg>
