<svg xmlns="http://www.w3.org/2000/svg" width="66" height="66" viewBox="0 0 66 66"><defs><style>.a{stroke:#fff;stroke-width:2px;}</style></defs><g transform="translate(-7 -7)"><path class="a" d="M61.333,16H24V10.667A2.668,2.668,0,0,0,21.333,8,13.348,13.348,0,0,0,8,21.333V50.667A10.679,10.679,0,0,0,18.667,61.333H56v8A2.668,2.668,0,0,0,58.667,72H64a8.008,8.008,0,0,0,8-8V26.667A10.679,10.679,0,0,0,61.333,16Zm-48,5.333a8.014,8.014,0,0,1,5.333-7.543V40a10.6,10.6,0,0,0-5.333,1.432ZM18.667,56a5.333,5.333,0,1,1,0-10.667h2.667A2.668,2.668,0,0,0,24,42.667V21.333H61.333a5.339,5.339,0,0,1,5.333,5.333v29.8A7.968,7.968,0,0,0,64,56ZM64,66.667H61.333V61.333H64a2.667,2.667,0,0,1,0,5.333Z"/><path d="M53.333,24H26.667C25.195,24,24,24.9,24,26s1.195,2,2.667,2H53.333C54.805,28,56,27.1,56,26S54.805,24,53.333,24Z" transform="translate(5.333 5.333)"/><path d="M45.333,32H26.667C25.195,32,24,32.9,24,34s1.195,2,2.667,2H45.333C46.805,36,48,35.1,48,34S46.805,32,45.333,32Z" transform="translate(5.333 8)"/></g></svg>