<svg xmlns="http://www.w3.org/2000/svg" width="30" height="29.998" viewBox="0 0 30 29.998"><defs><style>.a{fill:#e04f5f;}.b{fill:#fff;}</style></defs><g transform="translate(0 -0.004)"><path class="a" d="M30,15A15,15,0,1,0,15,30,15,15,0,0,0,30,15Z"/><path class="b" d="M149.48,134.9l4.385-5.091a1.327,1.327,0,0,0-2.011-1.732l-4.126,4.79-4.125-4.79a1.327,1.327,0,1,0-2.011,1.732l4.385,5.091-4.385,5.091a1.327,1.327,0,0,0,2.011,1.732l4.125-4.79,4.126,4.79a1.327,1.327,0,0,0,2.011-1.732Z" transform="translate(-132.728 -119.896)"/></g></svg>