<svg xmlns="http://www.w3.org/2000/svg" width="54.499" height="64" viewBox="0 0 54.499 64"><g transform="translate(0 0.001)"><path d="M54.436,17.364l0-.05c-.028-.615-.046-1.265-.058-1.989A6.783,6.783,0,0,0,47.99,8.68C40.631,8.27,34.939,5.87,30.075,1.13l-.042-.04a4.1,4.1,0,0,0-5.566,0l-.042.04C19.562,5.87,13.87,8.27,6.511,8.681A6.783,6.783,0,0,0,.125,15.326c-.011.719-.03,1.369-.058,1.988l0,.116c-.143,7.5-.321,16.842,2.8,25.318A32.228,32.228,0,0,0,10.6,54.791a40.447,40.447,0,0,0,15.131,8.95,4.679,4.679,0,0,0,.62.169,4.581,4.581,0,0,0,1.8,0,4.683,4.683,0,0,0,.623-.17,40.473,40.473,0,0,0,15.115-8.955A32.276,32.276,0,0,0,51.62,42.739C54.756,34.237,54.579,24.881,54.436,17.364ZM48.1,41.439C44.8,50.373,38.076,56.508,27.534,60.195a.966.966,0,0,1-.119.032.844.844,0,0,1-.33,0,.95.95,0,0,1-.118-.032C16.414,56.515,9.684,50.383,6.391,41.449,3.512,33.636,3.675,25.064,3.819,17.5V17.46c.029-.65.049-1.331.06-2.079A3.015,3.015,0,0,1,6.721,12.43,32.95,32.95,0,0,0,17.9,9.97a29.258,29.258,0,0,0,9.114-6.123.346.346,0,0,1,.465,0A29.269,29.269,0,0,0,36.6,9.97a32.95,32.95,0,0,0,11.184,2.46,3.014,3.014,0,0,1,2.841,2.951c.011.752.031,1.433.06,2.078C50.825,25.031,50.984,33.61,48.1,41.439Zm0,0"/><path d="M106.348,128.41a15.95,15.95,0,1,0,15.95,15.95A15.968,15.968,0,0,0,106.348,128.41Zm0,28.144a12.194,12.194,0,1,1,12.194-12.194A12.208,12.208,0,0,1,106.348,156.554Zm0,0" transform="translate(-79.098 -112.36)"/><path d="M166.3,212.542l-7.408,7.408-2.011-2.011a1.878,1.878,0,0,0-2.656,2.655l3.339,3.339a1.878,1.878,0,0,0,2.655,0l8.736-8.736a1.878,1.878,0,0,0-2.656-2.655Zm0,0" transform="translate(-134.464 -185.493)"/></g></svg>