<svg xmlns="http://www.w3.org/2000/svg" width="572" height="472.104" viewBox="0 0 572 472.104"><defs><style>.a,.i{opacity:0.1;}.b,.i{fill:#3315e8;}.c,.m{fill:#fff;}.d{fill:#8781f5;}.e{fill:#c2c0f5;}.f{fill:#b8a7f3;}.g{fill:#ad97f0;}.h{fill:#9898f8;}.j{fill:#edb94e;}.k{fill:#2f2661;}.l,.m{opacity:0.2;}.n{fill:#e8a287;}.o{fill:#251d46;}.p{fill:#240ec8;}.q{fill:#b2791c;}.r{fill:#dfa133;}.s{fill:#8d8af7;}</style></defs><g transform="translate(-296.009 -114.802)"><g transform="translate(296.009 137.041)"><g class="a" transform="translate(0 16.686)"><path class="b" d="M736.009,509.2c-118.679-4.6-177.457.2-296.188,2.594-6.3.128-63.788,4.621-93.433-28.335-19.467-21.641-36.822-45.069-44.7-74.629s-7.542-54.244.953-83.278c7.593-25.951,30.41-46.651,69.819-25.153,14.685,8.012,35.884-.92,45.2-16.589,10.314-17.338-1.994-57.92-1.147-78.8,1.557-38.348,36.352-66.338,70.279-66.512s62.441,25.759,69,63.424c3.468,19.922.767,40.709,4.1,60.66s28.936,40.047,46.879,40.452c14.839.337,27.04-13.289,34.778-27.62s13.2-30.655,23.97-42.215c15.763-16.924,41.257-19.809,60.718-8.865s42.918,26.459,45.747,50.838,3.79,45.589-8.607,65.784c-4.077,6.643-9.007,14.583-6.285,22.063,2.016,5.543,7.67,8.306,12.955,8.733,19.316,1.561,15.278-7.549,31.292-19.87,19.216-14.782,49.857-15.308,61.929,7.156,9.55,17.773,3.315,41.162-6.64,58.648C827.765,468.375,786.3,511.148,736.009,509.2Z" transform="translate(-296.009 -138.496)"/><g transform="translate(29.838 202.566)"><path class="c" d="M325.3,270.092a2.836,2.836,0,1,1-2.837,2.837A2.836,2.836,0,0,1,325.3,270.092Z" transform="translate(-308.843 -256.473)"/><path class="c" d="M346.414,275.445l-3.964-.742a12.184,12.184,0,0,0-.948-2.3l2.293-3.353a.852.852,0,0,0-.1-1.042l-2.829-2.831a.854.854,0,0,0-1.042-.1l-3.355,2.295a12.117,12.117,0,0,0-2.366-.966l-.739-3.944a.854.854,0,0,0-.8-.669h-4a.855.855,0,0,0-.807.669l-.747,3.982a12.266,12.266,0,0,0-2.269.948l-3.312-2.265a.854.854,0,0,0-1.043.1l-2.829,2.829a.852.852,0,0,0-.1,1.043l2.279,3.332a12.407,12.407,0,0,0-.933,2.267l-3.962.742a.856.856,0,0,0-.67.807v4a.858.858,0,0,0,.67.808l3.961.743a12.317,12.317,0,0,0,.953,2.313l-2.254,3.3a.854.854,0,0,0,.1,1.042l2.831,2.831a.852.852,0,0,0,1.04.1l3.3-2.256a12.24,12.24,0,0,0,2.246.936l.746,3.982a.856.856,0,0,0,.807.67h4a.857.857,0,0,0,.808-.67l.739-3.943a12.453,12.453,0,0,0,2.339-.953l3.335,2.28a.855.855,0,0,0,1.045-.1l2.829-2.829a.852.852,0,0,0,.1-1.04l-2.27-3.317a12.272,12.272,0,0,0,.968-2.343l3.957-.741a.856.856,0,0,0,.67-.808v-4A.848.848,0,0,0,346.414,275.445ZM331.97,285a6.87,6.87,0,1,1,5.395-5.39A6.876,6.876,0,0,1,331.97,285Z" transform="translate(-314.172 -261.802)"/></g><g transform="translate(63.753 273.214)"><path class="c" d="M345.524,312.543a2.245,2.245,0,1,1-2.992-1.066A2.245,2.245,0,0,1,345.524,312.543Z" transform="translate(-330.682 -300.659)"/><path class="c" d="M355,327.99l-.815-3.089a9.692,9.692,0,0,0,1.319-1.457l3.177.5a.677.677,0,0,0,.713-.422l1.063-2.985a.677.677,0,0,0-.284-.779l-2.781-1.62a9.728,9.728,0,0,0-.112-2.021l2.569-1.868a.677.677,0,0,0,.205-.8l-1.359-2.86a.676.676,0,0,0-.752-.35l-3.1.818a9.762,9.762,0,0,0-1.449-1.3l.5-3.139a.678.678,0,0,0-.424-.713l-2.985-1.063a.678.678,0,0,0-.779.286l-1.608,2.763a9.609,9.609,0,0,0-1.939.1l-1.878-2.582a.679.679,0,0,0-.805-.205l-2.86,1.359a.68.68,0,0,0-.35.754l.813,3.083a9.763,9.763,0,0,0-1.331,1.469l-3.121-.493a.672.672,0,0,0-.713.422l-1.063,2.987a.673.673,0,0,0,.284.777l2.732,1.59a9.7,9.7,0,0,0,.092,1.924l-2.594,1.886a.679.679,0,0,0-.205.8l1.359,2.862a.68.68,0,0,0,.754.35l3.07-.81a9.794,9.794,0,0,0,1.477,1.349l-.5,3.159a.678.678,0,0,0,.424.715l2.985,1.063a.678.678,0,0,0,.777-.284l1.6-2.75a9.666,9.666,0,0,0,2-.1l1.874,2.579a.679.679,0,0,0,.807.205l2.86-1.359A.671.671,0,0,0,355,327.99ZM343.269,320.9a5.439,5.439,0,1,1,5.686,2.029A5.444,5.444,0,0,1,343.269,320.9Z" transform="translate(-334.817 -304.807)"/></g><g transform="translate(515.952 220.645)"><circle class="c" cx="1.923" cy="1.923" r="1.923" transform="translate(8.952 12.748) rotate(-80.748)"/><path class="c" d="M631.942,282.059l-2.688-.5a8.4,8.4,0,0,0-.642-1.556l1.554-2.274a.575.575,0,0,0-.066-.706l-1.919-1.92a.577.577,0,0,0-.706-.064L625.2,276.59a8.22,8.22,0,0,0-1.6-.656l-.5-2.674a.578.578,0,0,0-.547-.453h-2.712a.581.581,0,0,0-.547.453l-.506,2.7a8.292,8.292,0,0,0-1.539.642L615,275.068a.577.577,0,0,0-.708.066l-1.917,1.917a.577.577,0,0,0-.066.708l1.546,2.26a8.2,8.2,0,0,0-.632,1.538l-2.688.5a.581.581,0,0,0-.455.547v2.712a.58.58,0,0,0,.455.547l2.684.5a8.378,8.378,0,0,0,.647,1.569l-1.528,2.234a.577.577,0,0,0,.066.708l1.919,1.919a.579.579,0,0,0,.706.066l2.234-1.529a8.276,8.276,0,0,0,1.521.634l.508,2.7a.58.58,0,0,0,.547.455h2.712a.58.58,0,0,0,.547-.455l.5-2.673a8.39,8.39,0,0,0,1.587-.647l2.261,1.547a.584.584,0,0,0,.71-.066l1.919-1.919a.58.58,0,0,0,.066-.706l-1.541-2.249a8.262,8.262,0,0,0,.657-1.587l2.684-.5a.58.58,0,0,0,.455-.547v-2.712A.577.577,0,0,0,631.942,282.059Zm-9.794,6.476a4.659,4.659,0,1,1,3.659-3.655A4.663,4.663,0,0,1,622.148,288.535Z" transform="translate(-610.078 -272.807)"/></g><g transform="translate(477.771 262.746)"><path class="c" d="M601.6,308.787a3.143,3.143,0,1,1-4.432-.333A3.142,3.142,0,0,1,601.6,308.787Z" transform="translate(-580.9 -292.483)"/><path class="c" d="M618.916,328.022l-2.239-3.869a13.514,13.514,0,0,0,1.244-2.454l4.475-.494a.947.947,0,0,0,.8-.833l.335-4.422a.943.943,0,0,0-.672-.945l-4.352-1.163a13.634,13.634,0,0,0-.9-2.684l2.78-3.471a.945.945,0,0,0-.02-1.16l-2.89-3.361a.947.947,0,0,0-1.145-.194l-3.885,2.249A13.687,13.687,0,0,0,610.02,304l-.488-4.419a.947.947,0,0,0-.834-.807l-4.421-.333a.946.946,0,0,0-.946.672l-1.153,4.324a13.557,13.557,0,0,0-2.579.853l-3.488-2.793a.945.945,0,0,0-1.161.02l-3.361,2.888a.95.95,0,0,0-.194,1.147l2.236,3.864a13.626,13.626,0,0,0-1.255,2.472l-4.4.486a.947.947,0,0,0-.807.835l-.333,4.422a.944.944,0,0,0,.67.945l4.275,1.14a13.732,13.732,0,0,0,.835,2.563l-2.806,3.5a.947.947,0,0,0,.02,1.161l2.89,3.363a.948.948,0,0,0,1.145.194l3.847-2.226a13.576,13.576,0,0,0,2.492,1.276l.49,4.45a.951.951,0,0,0,.838.808l4.419.334a.945.945,0,0,0,.945-.67l1.148-4.3a13.585,13.585,0,0,0,2.666-.877l3.483,2.789a.95.95,0,0,0,1.163-.02l3.361-2.89A.939.939,0,0,0,618.916,328.022Zm-18.457-5.24a7.612,7.612,0,1,1,8.426.641A7.619,7.619,0,0,1,600.459,322.782Z" transform="translate(-586.837 -298.435)"/></g><g transform="translate(170.14 20.97)"><path class="c" d="M426.506,169.9a6,6,0,1,1-8.319,1.7A6,6,0,0,1,426.506,169.9Z" transform="translate(-388.254 -139.92)"/><path class="c" d="M465.669,199.718l-6.131-5.94a25.729,25.729,0,0,0,1-5.158l7.966-3.243a1.808,1.808,0,0,0,1.047-1.952l-1.692-8.3a1.8,1.8,0,0,0-1.725-1.387l-8.6.133a25.945,25.945,0,0,0-3.046-4.467l3.3-7.826a1.808,1.808,0,0,0-.641-2.123l-7.062-4.67a1.811,1.811,0,0,0-2.2.24l-5.97,6.159a25.949,25.949,0,0,0-5.112-.977l-3.2-7.867a1.809,1.809,0,0,0-1.955-1.047l-8.3,1.692a1.807,1.807,0,0,0-1.388,1.728l.133,8.544a26.133,26.133,0,0,0-4.294,2.913l-7.864-3.315a1.809,1.809,0,0,0-2.124.642l-4.671,7.061a1.813,1.813,0,0,0,.242,2.208L409.5,178.7a25.941,25.941,0,0,0-1.017,5.2l-7.828,3.185a1.81,1.81,0,0,0-1.046,1.953l1.692,8.3a1.8,1.8,0,0,0,1.725,1.385l8.449-.135a26.148,26.148,0,0,0,2.872,4.275l-3.332,7.9a1.813,1.813,0,0,0,.642,2.124l7.062,4.672a1.813,1.813,0,0,0,2.208-.242l5.909-6.1a26.273,26.273,0,0,0,5.244,1.05l3.222,7.92a1.815,1.815,0,0,0,1.96,1.048l8.3-1.69a1.8,1.8,0,0,0,1.387-1.725l-.135-8.506a26.1,26.1,0,0,0,4.444-3l7.853,3.31a1.812,1.812,0,0,0,2.127-.642l4.67-7.061A1.8,1.8,0,0,0,465.669,199.718Zm-36.649-.007a14.54,14.54,0,1,1,15.815-3.217A14.554,14.554,0,0,1,429.02,199.712Z" transform="translate(-399.576 -151.261)"/></g></g><g transform="translate(25.581 21.88)"><g class="a" transform="translate(399.196)"><path class="b" d="M571.16,173.359a38.544,38.544,0,0,1-10.7-1.216c-5.088-1.221-6.307-4.442-5.766-6.052.567-1.686,2.771-4.465,4.772-5.07,4.634-1.4,7.159-1.474,12.768-.565-3.535-.9-4.57-1.6-6.665-3.571-1.342-1.267-1.16-4.365.177-5.357,4.636-3.435,9-1.8,15.413.793-3.451-1.638-3.516-1.932-4.9-3.179a4.246,4.246,0,0,1-1.551-3.631c.348-1.916,4.631-3.54,6.979-3.746,5.188-.453,9.188.555,13.972,2.262s8.823,5.273,9.39,9.525c.242-2.752,3.808-4.848,7.15-4.519a7.825,7.825,0,0,1,6.786,5.4c.711,2.7-.383,5.574-2.412,7.775,3.078-.8,5.515-2.017,8.644-1.365s6.68,3.052,5.625,7.079c-.3,1.147-2.3,4.739-7.565,5.362-8.584,1.017-10.787,1.068-20.322.807Z" transform="translate(-554.578 -141.658)"/></g><g class="a" transform="translate(0 37.668)"><path class="b" d="M326.76,199.992a29.2,29.2,0,0,1-9.794-1.357c-4.656-1.364-5.773-4.963-5.277-6.76.519-1.883,2.536-4.988,4.368-5.661,4.242-1.564,6.555-1.648,11.688-.631a10.575,10.575,0,0,1-6.1-3.989c-1.229-1.414-1.061-4.876.163-5.983,4.243-3.838,8.234-2.008,14.108.885-3.159-1.83-3.218-2.159-4.482-3.552a5.272,5.272,0,0,1-1.419-4.054c.319-2.137,4.238-3.954,6.389-4.183,4.749-.506,8.411.619,12.789,2.527s8.078,5.889,8.6,10.637c.222-3.072,3.486-5.413,6.545-5.047a7.663,7.663,0,0,1,6.213,6.034,10.906,10.906,0,0,1-2.208,8.682c2.817-.894,5.048-2.252,7.913-1.524s6.115,3.409,5.149,7.905a8.381,8.381,0,0,1-6.924,5.99c-7.859,1.135-9.875,1.193-18.6.9Z" transform="translate(-311.581 -164.587)"/></g></g><g transform="translate(26.817)"><g transform="translate(456.481 135.361)"><path class="d" d="M623.331,219.712c-1.168,1.038-2.829.583-2.829-1.439v-4.866a2.684,2.684,0,0,0-2.671-2.671h-3.412a5.684,5.684,0,0,1,.6,2.5,5.452,5.452,0,0,1-5.551,5.4h-.209a5.452,5.452,0,0,1-5.551-5.4,5.6,5.6,0,0,1,.6-2.5h-3.619a2.622,2.622,0,0,0-2.62,2.62v4.917c0,2.022-1.687,2.464-2.854,1.439-1.934-1.7-4.878-.792-5.007,2.308.13,3.1,3.074,4.008,4.994,2.31,1.168-1.038,2.867-.583,2.867,1.439v4.813a2.622,2.622,0,0,0,2.62,2.62h4.878c2.024,0,2.464,1.7,1.439,2.867-1.7,1.934-.79,4.9,2.31,5.034,3.1-.13,4.008-3.1,2.308-5.034-1.037-1.168-.583-2.88,1.441-2.88h4.851a2.622,2.622,0,0,0,2.62-2.62v-4.813c0-2.022,1.648-2.464,2.814-1.439,1.907,1.7,4.853.792,4.983-2.3C628.2,218.92,625.263,218.014,623.331,219.712Z" transform="translate(-590.201 -210.736)"/></g><g transform="translate(55.695 18.88)"><path class="d" d="M375.5,148.123h-5.185c-2.136,0-2.6-1.779-1.52-3.01,1.792-2.039.835-5.145-2.435-5.282-3.271.136-4.227,3.243-2.436,5.267,1.1,1.232.616,3.024-1.518,3.024H357.33a2.764,2.764,0,0,0-2.763,2.763v5.144c0,2.136-1.792,2.6-3.023,1.52-2.039-1.792-5.172-.835-5.308,2.435.122,3.243,3.269,4.2,5.293,2.408,1.232-1.094,3.038-.616,3.038,1.518v5.117a2.765,2.765,0,0,0,2.763,2.763h5.076c2.134,0,2.6,1.738,1.518,2.969-1.791,2.039-.835,5.145,2.436,5.282,3.269-.136,4.227-3.228,2.435-5.267-1.094-1.232-.616-2.983,1.52-2.983h5.13a2.83,2.83,0,0,0,2.817-2.817v-3.6a5.992,5.992,0,0,1-2.64.629,5.751,5.751,0,0,1-5.692-5.855v-.219a5.751,5.751,0,0,1,5.692-5.855,5.9,5.9,0,0,1,2.64.629v-3.818A2.764,2.764,0,0,0,375.5,148.123Z" transform="translate(-346.236 -139.832)"/></g><path class="e" d="M540.99,143.542l1.745-1.745-1.746-1.745a2.021,2.021,0,0,1,2.858-2.858l1.745,1.746,1.745-1.746a2.021,2.021,0,0,1,2.859,2.858l-1.746,1.745,1.745,1.745a2.021,2.021,0,0,1-2.858,2.857l-1.743-1.745-1.745,1.745a2.02,2.02,0,0,1-2.857-2.857Z" transform="translate(-165.734 -123.029)"/><path class="b" d="M329.184,219.357l1.745-1.745-1.745-1.745a2.02,2.02,0,1,1,2.857-2.857l1.746,1.746,1.745-1.746a2.021,2.021,0,0,1,2.858,2.857l-1.746,1.745,1.745,1.745a2.021,2.021,0,0,1-2.858,2.858l-1.743-1.745-1.745,1.745a2.021,2.021,0,0,1-2.858-2.858Z" transform="translate(-301.883 -74.294)"/><path class="b" d="M621.094,304.939l1.745-1.745-1.746-1.745a2.021,2.021,0,0,1,2.857-2.858l1.746,1.746,1.745-1.746a2.021,2.021,0,0,1,2.859,2.858l-1.746,1.745,1.745,1.745a2.021,2.021,0,0,1-2.858,2.858l-1.743-1.745-1.745,1.745a2.021,2.021,0,0,1-2.857-2.858Z" transform="translate(-114.244 -19.283)"/><path class="e" d="M312.926,304.625l1.746-1.745-1.746-1.745a2.021,2.021,0,0,1,2.857-2.858l1.746,1.746,1.745-1.746a2.021,2.021,0,0,1,2.858,2.858l-1.746,1.745,1.745,1.745a2.021,2.021,0,1,1-2.858,2.857l-1.743-1.745-1.745,1.745a2.021,2.021,0,0,1-2.858-2.857Z" transform="translate(-312.333 -19.485)"/><path class="e" d="M381.665,135.279l1.745-1.745-1.746-1.745a2.021,2.021,0,1,1,2.858-2.857l1.745,1.745,1.745-1.745a2.021,2.021,0,1,1,2.858,2.857l-1.746,1.745,1.745,1.745a2.021,2.021,0,1,1-2.857,2.858l-1.745-1.745-1.745,1.745a2.021,2.021,0,1,1-2.857-2.858Z" transform="translate(-268.149 -128.339)"/></g></g><g transform="translate(382.043 182.997)"><g transform="translate(76.871)"><g transform="translate(10.368 6.377)"><path class="e" d="M432.591,224.413a89.092,89.092,0,0,1-22-29.782A85.679,85.679,0,0,1,405,178.4a83.491,83.491,0,0,1-1.664-9.587c-.309-2.724,0-5.779-.838-8.382-.12-.368-.6-.258-.688.061-.729,2.6-.064,5.776.25,8.434A85.469,85.469,0,0,0,403.6,177.8a87.4,87.4,0,0,0,15.6,33.41,81.994,81.994,0,0,0,13.338,13.271.043.043,0,0,0,.056-.066Z" transform="translate(-401.483 -160.195)"/></g><path class="e" d="M421.239,195.529c.348-.222-1.81.631-3.6-.041-4.2-1.646-4.5-2.047-9.26-3a3.188,3.188,0,0,0-2.149.215,1.413,1.413,0,0,0-.26,1.548,2.82,2.82,0,0,0,1.061,1.138c4.252,2.942,9.09,1.414,14.365.647Z" transform="translate(-388.306 -133.113)"/><path class="e" d="M417.909,191.011a15.623,15.623,0,0,1-3.864.383c-3.2-.876-4.071-2.509-9.034-3.984a3.4,3.4,0,0,0-2.382.074,1.82,1.82,0,0,0-.623,1.748,2.681,2.681,0,0,0,.9,1.387c3.967,3.711,12.395,2.316,15.106,1.081Z" transform="translate(-390.799 -136.441)"/><path class="e" d="M415.393,188.359a4.068,4.068,0,0,1-3.468-.651c-4.3-3.3-4.1-3.78-9.275-6.471-.572-.3-1.935-.777-2.551-.468a1.694,1.694,0,0,0-.815,1.7,3.373,3.373,0,0,0,.843,1.667c3.92,4.815,10.478,5.172,15.559,4.853Z" transform="translate(-392.536 -140.658)"/><path class="e" d="M413.162,185.519c.494-.069-2.821-1.291-4.491-2.947-4.992-4.37-4.089-5.576-8.94-9.062-.536-.384-1.842-1.073-2.5-.856a1.672,1.672,0,0,0-1.027,1.587,3.536,3.536,0,0,0,.637,1.8c3.332,5.434,10.077,7.639,16.32,9.474Z" transform="translate(-394.508 -145.836)"/><path class="e" d="M409.724,177.518c.452-.084-2.354-.38-3.755-1.917-3.746-2.819-3.391-5.043-7.552-8.235-.458-.352-1.6-.969-2.2-.736a1.845,1.845,0,0,0-1.035,1.567,3.244,3.244,0,0,0,.457,1.718c2.653,5.126,11.373,8.569,14.09,7.6Z" transform="translate(-395.172 -149.716)"/><path class="e" d="M407.072,171.718c.434-.061-1.242-.979-2.231-2.3-2.283-3.174-2.85-4.506-6.06-7.274a2.551,2.551,0,0,0-1.891-.664,2.08,2.08,0,0,0-1.265,1.3,2.3,2.3,0,0,0,.08,1.456c1.436,4.368,6.566,6.075,11.367,7.488Z" transform="translate(-394.935 -153.019)"/><path class="e" d="M405.024,167.919c.365.108-1.145-.94-1.644-2.474-1.659-3.23-.606-4.628-2.44-7.927-.2-.363-.8-1.117-1.341-1.193a1.569,1.569,0,0,0-1.368.552,1.811,1.811,0,0,0-.327,1.157c-.023,3.9,3.642,7.066,7.12,9.885Z" transform="translate(-393.415 -156.314)"/><path class="e" d="M416.443,200.589c-.353.194,1.363-1.207,1.549-2.88.379-3.962.15-4.344,1.4-8.493.138-.458.608-1.441,1.143-1.631a1.51,1.51,0,0,1,1.5.371,2.255,2.255,0,0,1,.554,1.268c.764,4.483-2.743,7.767-5.758,11.68Z" transform="translate(-381.529 -136.258)"/><path class="e" d="M412.943,196.777a15.19,15.19,0,0,0,2.413-2.918c1-3.021.1-4.559,1.546-9.31.159-.524.711-1.653,1.352-1.883a1.879,1.879,0,0,1,1.805.391,2.5,2.5,0,0,1,.678,1.433c.969,5.086-4.766,11.166-7.273,12.72Z" transform="translate(-383.787 -139.431)"/><path class="e" d="M409.784,192.566a3.711,3.711,0,0,0,1.769-2.722c.3-4.758-.187-4.886,1.152-9.9.148-.554.674-1.748,1.309-2a1.821,1.821,0,0,1,1.815.386,2.71,2.71,0,0,1,.711,1.5c1.087,5.337-2.918,10-6.471,13.284Z" transform="translate(-385.815 -142.474)"/><path class="e" d="M406.614,187.47c-.458.153,1.763-2.131,2.351-4.063,2.055-5.339.664-5.871,3.047-10.488.263-.509,1.033-1.564,1.707-1.672a1.819,1.819,0,0,1,1.69.767,2.712,2.712,0,0,1,.375,1.618c-.085,5.452-4.749,9.886-9.17,13.837Z" transform="translate(-387.856 -146.725)"/><path class="e" d="M404.432,180.81c-.435.12,1.865-1.27,2.334-3.057,1.884-3.759.488-5.36,2.553-9.584.228-.467.917-1.421,1.561-1.49a1.972,1.972,0,0,1,1.667.8,2.689,2.689,0,0,1,.442,1.539c.192,5.122-5.72,11.424-8.557,11.787Z" transform="translate(-389.254 -149.655)"/><path class="e" d="M402.864,174.356c-.427.1.789-1.372,1.217-2.967.944-3.793.979-5.241,2.934-9,.217-.414.877-1.262,1.51-1.316a2.083,2.083,0,0,1,1.658.736,2.321,2.321,0,0,1,.463,1.383c.286,4.588-3.849,8.074-7.782,11.166Z" transform="translate(-390.285 -153.259)"/><path class="e" d="M402.216,168.122c-.36.154,1.015-.992,1.253-2.362,1.133-3-.21-3.974,1.091-7.059a2.409,2.409,0,0,1,1.173-1.237,1.918,1.918,0,0,1,1.52.215,1.385,1.385,0,0,1,.549.907c.733,3.253-2.492,6.556-5.585,9.536Z" transform="translate(-390.682 -155.619)"/></g><g transform="translate(20.762 52.504)"><path class="f" d="M452.115,240.146c4.132-4.761-2.185-9.854-8.569-8.827-5.365.862-12.117,3.9-14.687.253-.217-4.92,4.038-9.272,7.107-13.7,3.161-4.447,4.457-10.734-1.285-13.349-6.425-2.819-13.97.956-20.5,2.78-3.016.854-7.12,1.017-9.3-1.042-4.509-4.038,4.6-10.815-2.052-13.346-3.08-.432-6.133.375-7.467,1.973-1.566,1.925-2.494,5.329-5.863,4.22-3.89-1.263-1.107-5.331-4.007-7.71a7.009,7.009,0,0,0-6.885-.532c-1.6.971-1.92,2.6-2.172,4.145-4.618-1.242-2.8-4.712-11.178-6.571-5.406-1.184-5.613,4.394-.818,6.74,3.87,1.955,10.32,2.844,10.438,5.561.085,1.9-3.7,2.106-3.562,3.985.184,2.4,5.259,3.762,8.432,3.736,3.217-.033,8.252,1.088,8.341,3.619-5.01.312-10.213.729-12.62,3.456-2.221,2.694-.059,8.651,4.531,10.68,3.2,1.442,6.047.232,8.815-.6,2.863-.846,7.069-.912,9.3,1.778-2.292,2.881-4.23,7.256-1.211,10.492,4.045,4.7,12.579-.54,16.361,4.238-2.627,2.09-5.214,4.263-6.519,7.305-1.267,3.038-1.114,7.258,1.014,9.6,4.033,4.79,14.22-1.352,16.131,5.061.652,2.709-1.147,6.182-.836,9.009.288,3.984,4.478,4.61,8.3,3.231,6.067-2.134,17.486-10.088,17.885-17.563,0-3.9-5.367-5.068-5.372-8.888C443.659,244.865,448.826,244.006,452.115,240.146Z" transform="translate(-361.017 -188.274)"/><g transform="translate(26.155 11.808)"><g transform="translate(0 2.416)"><path class="g" d="M377.015,196.938c7.5,2.771,13.552,7.876,18.831,12.37a168.436,168.436,0,0,1,15.814,16.8,124.894,124.894,0,0,1,11.033,18.44c2.536,6.4,5.5,13.161,5.572,20.376-.008.311-.485.657-.588.353-2.113-5.513-3.083-12.408-5.27-18.3a124.793,124.793,0,0,0-10.074-17.948,168.745,168.745,0,0,0-14.915-16.9,148.055,148.055,0,0,0-20.451-15.125c-.059-.036-.02-.094.048-.069Z" transform="translate(-376.938 -196.932)"/></g><g transform="translate(29.828 10.43)"><path class="g" d="M395.174,215.419c-.522-4.68,1.626-9.637,4.815-13.43.353-.411,1.27-.043.93.391-3.208,4.2-4.39,8.306-5.441,13.077-.033.146-.291.1-.3-.038Z" transform="translate(-395.095 -201.81)"/></g><g transform="translate(10.301)"><path class="g" d="M384.5,202.658l.1.044c.051.025.076.064.059.1l-.041.1c-.028.071-.151.084-.245.049-1.168-.419-1-2.423-1.063-3.107-.128-1.424-.294-3.18.673-4.33.107-.125.47-.026.495.131.192,1.181-.279,2.3-.288,3.476-.01,1.142.179,2.471.269,3.55,0-.015.016-.03.039-.018Z" transform="translate(-383.209 -195.462)"/></g><g transform="translate(6.262 16.241)"><path class="g" d="M392.75,206.25a23.421,23.421,0,0,0-7.751.187c-1.24.289-2.647,1.344-4.015,1.191-.146-.016-.269-.131-.225-.246.412-1.063,2.788-1.492,4.061-1.733a25.569,25.569,0,0,1,7.928.023c.409.053.412.621,0,.578Z" transform="translate(-380.75 -205.348)"/></g><g transform="translate(28.589 47.073)"><path class="g" d="M406.292,225.411a15.577,15.577,0,0,0-11.421,1.828c-.371.218-.742-.381-.388-.652,3.256-2.459,8.341-3.272,11.988-1.571.232.108.077.44-.179.394Z" transform="translate(-394.341 -224.116)"/></g><g transform="translate(46.826 39.152)"><path class="g" d="M405.45,230.454c1.152-3.964,4.043-9.126,8.592-11.115.467-.2.836.332.378.621-4.546,2.911-6.055,6.51-8.672,10.545-.1.148-.353.14-.3-.051Z" transform="translate(-405.442 -219.294)"/></g><g transform="translate(16.775 30.219)"><path class="g" d="M403.153,216.686c-5.222-1.5-10.721-3.612-15.363-.848-.411.253-.9-.44-.476-.682,4.516-2.5,11.058-1.04,15.9,1.419.066.033.016.13-.056.11Z" transform="translate(-387.15 -213.856)"/></g></g></g><g transform="translate(0 113.331)"><path class="d" d="M472.772,253.057c-11.84-2.824-20.818,12.556-30.027-3.049a17.311,17.311,0,0,1-2.482-8.046c-.892-9.763-11.657-19.955-22.533-15.092-5.594,2.486-9.954,8.447-15.772,8.007a14.315,14.315,0,0,1-5.686-2.085c-7.529-3.91-15.794-7.851-25.081-7.465-10.11.453-19.426,6.172-22.081,13.551-2.462,7.264,1.485,15.952,9.052,21.038,6.405,4.592,14.918,6.5,20.049,12.127,5.234,6.1,5.763,15.129,11.59,20.548,9.847,10.062,27.783-.31,36.314,10.655,3.062,4.312,3.474,10.716,6.177,15.312,2.946,5.315,8.311,7.276,13.341,6.993,5.057-.3,10.171-2.538,15.355-3.879,6.433-1.692,12.548-5.19,18.669-6.366,3.619-.706,7.015-5.267,7.508-10.189C489.684,274.2,488.856,257.307,472.772,253.057Z" transform="translate(-348.379 -225.3)"/><g transform="translate(21.325 12.631)"><path class="h" d="M362.212,242.471a150.033,150.033,0,0,1,20,3.1c-2.612-3.323-5.2-7.554-4.96-11.6.012-.2.4-.32.493-.108.784,1.851,1.03,3.839,1.786,5.712a31.727,31.727,0,0,0,3.281,6.065c.015.021,0,.039.007.061,2.849.651,5.668,1.357,8.419,2.172a186.646,186.646,0,0,1,27.318,11.67q2.509,1.459,4.925,2.914a95.273,95.273,0,0,1-5.1-9.926c-1.378-.849-2.586-2.008-3.846-2.929q-2.72-1.957-5.549-3.824c-.5-.327.279-1.037.77-.69,1.825,1.3,3.609,2.633,5.336,4.013.867.7,1.86,1.416,2.745,2.19a51.7,51.7,0,0,1-3.456-12.024c-.082-.534.872-.874,1.045-.338,2.486,8.048,4.758,15.8,8.8,23.346.108.212-.072.406-.276.47a271.98,271.98,0,0,1,31.642,21.972,112.352,112.352,0,0,1-.534-12.323c-.83-1.37-1.4-2.977-2.113-4.4q-1.52-2.992-3.162-5.908c-.279-.49.678-1.038.94-.534,1.015,1.991,1.988,4.007,2.893,6.062.473,1.094,1.025,2.21,1.46,3.368a70.041,70.041,0,0,1,1.794-14.059c.148-.613,1.078-.682,1-.066-1.163,9.426-2.167,18.56-1.6,27.776a.417.417,0,0,1-.294.407c1.526,1.252,3.008,2.512,4.46,3.777l.13-.1c.356-.273.636.128.333.457l-.025.025a172.317,172.317,0,0,1,15.968,15.868,154.315,154.315,0,0,1,16.863,29.312.784.784,0,1,1-1.436.631,152.82,152.82,0,0,0-16.648-28.959,170.064,170.064,0,0,0-15.84-15.728c-7.421,7.358-17.542,10.218-25.9,13.45-.156.061-.232-.215-.076-.284,4.252-1.881,8.594-3.711,12.949-5.714a66.946,66.946,0,0,0,12.408-7.992,239.926,239.926,0,0,0-27.136-20.149,13.217,13.217,0,0,1-2.752,1.838c-3.282,1.96-6.581,3.806-9.814,5.668-4.511,2.594-9.356,6.538-14.527,6.869a.255.255,0,0,1-.067-.5c5.063-1.224,9.61-4.36,14.246-6.975,3.859-2.178,8.837-4.247,12.544-7.136q-6.562-4.229-13.854-8.472c-5.41-2.734-11.567-5.71-18.166-8.344-4.909.854-9.541,1.753-13.7,4.317-4.14,2.556-7.181,6.032-10.867,8.766-.038.028-.1-.01-.062-.044,3.248-3.54,7.253-7.623,12.017-10.208a35.227,35.227,0,0,1,11.256-3.374c-2.449-.95-4.956-1.848-7.509-2.661a144.905,144.905,0,0,0-28.695-5.333.783.783,0,0,1-.716-.848A.8.8,0,0,1,362.212,242.471Z" transform="translate(-361.36 -232.502)"/><path class="h" d="M375.189,237.359a13.005,13.005,0,0,1-2.247,3.358c-.081.072-.205.02-.194-.062.164-1.186,1.117-2.4,1.746-3.519.743-1.314,1.467-2.645,2.3-3.946.25-.391.961-.156.747.233C376.813,234.754,375.983,236.056,375.189,237.359Z" transform="translate(-354.04 -232.989)"/><path class="h" d="M382.18,247.257c.173.046.079.243-.072.263-2.433.312-4.915.011-7.381.2a66.292,66.292,0,0,0-8.3,1.268c-.079.016-.123-.069-.046-.094C370.9,247.395,377.46,246.025,382.18,247.257Z" transform="translate(-358.161 -224.124)"/><path class="h" d="M404.83,259.215c.26.028.172.46-.09.439-6.617-.494-13.185.37-19.788.2a.152.152,0,0,1-.048-.3C391.152,257.924,398.611,258.552,404.83,259.215Z" transform="translate(-346.304 -216.576)"/><path class="h" d="M413.716,274.523c.008-.01.025-.007.021.007a21.076,21.076,0,0,1-3.118,6.226c-1.114,1.754-2.438,4.146-4.168,5.134a.136.136,0,0,1-.181-.186c.813-1.812,2.5-3.315,3.639-4.988C411.266,278.737,412.229,276.422,413.716,274.523Z" transform="translate(-332.501 -206.294)"/></g></g><path class="e" d="M519.176,425.765a79.714,79.714,0,0,0-8.418-12.227,7.5,7.5,0,0,0,.642-1.385c.271-.882.4-2.331.711-3.2a19.329,19.329,0,0,0,1.418-6.285,7.053,7.053,0,0,0-2.5-5.717,1.707,1.707,0,0,0-1.079-.417,1.731,1.731,0,0,0-1.155.744,8.846,8.846,0,0,0-1.62,3.879c-.647,3.215.25,6.678,1.363,9.824a89.731,89.731,0,0,0-12.95-11.5,7.106,7.106,0,0,0,.429-1.158c.219-.894.268-2.349.524-3.235a19.3,19.3,0,0,0,1.051-6.356,7.047,7.047,0,0,0-2.831-5.561,1.708,1.708,0,0,0-1.1-.357,1.732,1.732,0,0,0-1.109.812,8.851,8.851,0,0,0-1.393,3.964c-.49,3.453.78,7.084,2.177,10.307a90.831,90.831,0,0,0-11.707-6.786,8,8,0,0,0,.692-1.679c.217-.894.268-2.349.524-3.233a19.357,19.357,0,0,0,1.051-6.358,7.054,7.054,0,0,0-2.831-5.561,1.7,1.7,0,0,0-1.1-.355,1.736,1.736,0,0,0-1.109.81,8.839,8.839,0,0,0-1.393,3.966c-.511,3.6.889,7.393,2.352,10.716a5.358,5.358,0,0,1,.258.936c-2.29-1.084-4.654-2-7-2.95-2.763-.943-5.508-1.948-8.347-2.643-.861-.237-1.722-.444-2.581-.659.046-.161.089-.32.112-.452.159-.907.115-2.362.315-3.261a19.322,19.322,0,0,0,.641-6.41,7.053,7.053,0,0,0-3.182-5.369,1.711,1.711,0,0,0-1.122-.284,1.733,1.733,0,0,0-1.055.879,8.85,8.85,0,0,0-1.135,4.048c-.269,3.5,1.257,7.074,2.872,10.22-3.916-.915-7.818-1.717-11.649-2.725a82.213,82.213,0,0,1-9.118-2.9,8.1,8.1,0,0,0,1.142-1.388c.471-.792.946-2.168,1.452-2.937a19.269,19.269,0,0,0,2.873-5.766,7.051,7.051,0,0,0-1.069-6.149,1.7,1.7,0,0,0-.948-.664,1.738,1.738,0,0,0-1.3.448,8.847,8.847,0,0,0-2.5,3.381c-1.546,3.289-1.324,7.327-.9,10.934a11.046,11.046,0,0,1-.082,1.6,37.769,37.769,0,0,1-5.171-2.668,24.987,24.987,0,0,1-6.225-5.37,20.147,20.147,0,0,1-2.16-3.092,7.98,7.98,0,0,0,1.912-.78c.782-.488,1.835-1.493,2.637-1.947a19.29,19.29,0,0,0,5.195-3.81,7.047,7.047,0,0,0,1.866-5.955,1.7,1.7,0,0,0-.54-1.023,1.735,1.735,0,0,0-1.359-.2,8.863,8.863,0,0,0-3.769,1.861c-2.88,2.216-4.534,5.908-5.811,9.306a9.9,9.9,0,0,1-.762,1.313,15.408,15.408,0,0,1-1.2-2.875,36.384,36.384,0,0,1-1.61-12.014,1.422,1.422,0,0,0,.263.028,7.7,7.7,0,0,0,2.315-.609c.831-.4,1.986-1.286,2.831-1.651a19.317,19.317,0,0,0,5.577-3.225,7.053,7.053,0,0,0,2.5-5.72,1.715,1.715,0,0,0-.425-1.076,1.739,1.739,0,0,0-1.331-.342,8.859,8.859,0,0,0-3.948,1.442c-3.1,1.892-5.145,5.383-6.781,8.625a11.908,11.908,0,0,1-.976,1.327c.031-1.2.087-2.4.168-3.6.233-3.746.564-7.511.7-11.294.021,0,.028.007.049,0a7.665,7.665,0,0,0,2.315-.609c.83-.4,1.985-1.286,2.831-1.649a19.322,19.322,0,0,0,5.577-3.227,7.048,7.048,0,0,0,2.5-5.719,1.693,1.693,0,0,0-.425-1.076,1.733,1.733,0,0,0-1.329-.343,8.848,8.848,0,0,0-3.948,1.444c-3.1,1.891-5.147,5.382-6.783,8.623a6.86,6.86,0,0,1-.721,1c.03-1.474.023-2.951-.044-4.431L421.2,325.8l-.1-1.089-.205-1.078c-.143-.716-.264-1.441-.426-2.155l-.659-2.106a7.9,7.9,0,0,0-.422-1.2,23.62,23.62,0,0,0,2.039-1.873c.649-.654,1.332-1.272,2.009-1.9a19.247,19.247,0,0,0,4.183-4.9,7.041,7.041,0,0,0,.448-6.223,1.706,1.706,0,0,0-.759-.874,1.736,1.736,0,0,0-1.368.122,8.836,8.836,0,0,0-3.241,2.676,18.551,18.551,0,0,0-3.706,9.743,10.943,10.943,0,0,1-.416,1.444c-.166-.366-.337-.733-.534-1.084a23.312,23.312,0,0,0-2.551-3.647,27.439,27.439,0,0,0-6.016-5.232c.2-.665.278-1.707.422-2.182.269-.88.586-1.746.894-2.615a19.273,19.273,0,0,0,1.414-6.285,7.053,7.053,0,0,0-2.507-5.715,1.708,1.708,0,0,0-1.079-.417,1.727,1.727,0,0,0-1.153.746,8.806,8.806,0,0,0-1.618,3.879,19.715,19.715,0,0,0,.882,10.721c.028.072.059.159.094.25a55.082,55.082,0,0,0-5.962-2.842c-1.868-.759-3.751-1.436-5.635-2.095.1-.57.172-1.191.274-1.526.269-.88.586-1.746.894-2.615a19.312,19.312,0,0,0,1.413-6.285,7.046,7.046,0,0,0-2.505-5.715,1.706,1.706,0,0,0-1.079-.417,1.734,1.734,0,0,0-1.155.746,8.845,8.845,0,0,0-1.618,3.879,19.732,19.732,0,0,0,.884,10.721l.09.241c-2.629-.892-5.245-1.763-7.81-2.722-1.538-.586-3.064-1.217-4.557-1.9.223-.494.429-1.015.6-1.291.485-.784,1.012-1.541,1.531-2.3a19.369,19.369,0,0,0,2.969-5.719,7.053,7.053,0,0,0-.969-6.165,1.707,1.707,0,0,0-.936-.678,1.734,1.734,0,0,0-1.306.427,8.837,8.837,0,0,0-2.553,3.338,19.736,19.736,0,0,0-1.878,10.593c.016.153.038.357.066.578a30.8,30.8,0,0,1-7.329-5.19,25.55,25.55,0,0,1-3.143-3.775c.5-.329,1.125-1.01,1.487-1.26.649-.448,1.322-.863,1.991-1.281a16.562,16.562,0,0,0,4.289-3.47,6.038,6.038,0,0,0,1.354-5.17,1.46,1.46,0,0,0-.5-.854,1.482,1.482,0,0,0-1.171-.113,7.575,7.575,0,0,0-3.148,1.745,16.9,16.9,0,0,0-5.1,7.669c-.077.237-.192.6-.288.994-.21-.368-.429-.731-.623-1.111a33.651,33.651,0,0,1-2.719-7.923c-.069-.31-.107-.628-.169-.938.352-.273.754-.7,1-.864.495-.342,1.007-.655,1.515-.976a12.583,12.583,0,0,0,3.266-2.642,4.588,4.588,0,0,0,1.03-3.935,1.1,1.1,0,0,0-.383-.651,1.128,1.128,0,0,0-.89-.085,5.746,5.746,0,0,0-2.4,1.327,12.821,12.821,0,0,0-3.616,5.162,127.459,127.459,0,0,1-1.111-13.425h-.3c-.163,2.873-.253,5.753-.205,8.646.031,1.945.128,3.9.335,5.848-.067-.023-.149-.046-.2-.067-.547-.246-1.083-.522-1.618-.79a12.561,12.561,0,0,0-3.953-1.424,4.6,4.6,0,0,0-3.9,1.158,1.113,1.113,0,0,0-.356.664,1.126,1.126,0,0,0,.388.807,5.759,5.759,0,0,0,2.379,1.362,12.863,12.863,0,0,0,7.007.3c.126-.03.307-.074.5-.128.048.319.085.637.141.954a35.363,35.363,0,0,0,2.474,8.47c.156.347.34.683.511,1.025a4.61,4.61,0,0,1-.59-.135c-.747-.248-1.483-.539-2.219-.82a16.562,16.562,0,0,0-5.352-1.342,6.038,6.038,0,0,0-4.945,2.027,1.464,1.464,0,0,0-.381.915,1.494,1.494,0,0,0,.614,1,7.563,7.563,0,0,0,3.287,1.465,16.881,16.881,0,0,0,9.2-.531,10.332,10.332,0,0,0,1.478-.618,24.59,24.59,0,0,0,3.4,4.426,29.733,29.733,0,0,0,5.484,4.445c-.128-.031-.255-.057-.383-.087a16.563,16.563,0,0,0-5.48-.639,6.04,6.04,0,0,0-4.641,2.65,1.194,1.194,0,0,0,.48,1.871,7.574,7.574,0,0,0,3.45,1.03,16.892,16.892,0,0,0,9.05-1.717,9.536,9.536,0,0,0,1.48-.876c1.848.923,3.741,1.735,5.625,2.474,1.779.695,3.57,1.318,5.36,1.924a16.208,16.208,0,0,0-5.237,1.247,6.038,6.038,0,0,0-3.461,4.071,1.451,1.451,0,0,0,.082.987,1.474,1.474,0,0,0,1.005.609,7.561,7.561,0,0,0,3.593-.205,16.883,16.883,0,0,0,7.927-4.694c.128-.135.31-.328.5-.545,2.195.723,4.378,1.446,6.52,2.241a61.772,61.772,0,0,1,5.971,2.532l-.025.007c-.779.122-1.566.2-2.349.291a16.536,16.536,0,0,0-5.37,1.265,6.038,6.038,0,0,0-3.463,4.069,1.466,1.466,0,0,0,.082.989,1.489,1.489,0,0,0,1.007.609,7.561,7.561,0,0,0,3.593-.207,16.883,16.883,0,0,0,7.927-4.694,11.408,11.408,0,0,0,.923-1.066,25.871,25.871,0,0,1,5.993,4.684,21.693,21.693,0,0,1,2.553,3.282c.315.5.575,1.043.853,1.572-.526-.01-1.111.025-1.431-.016-.784-.1-1.561-.241-2.338-.375a16.562,16.562,0,0,0-5.51-.281,6.037,6.037,0,0,0-4.46,2.946,1.459,1.459,0,0,0-.2.971,1.487,1.487,0,0,0,.8.866,7.586,7.586,0,0,0,3.509.8,16.9,16.9,0,0,0,8.919-2.3,9.008,9.008,0,0,0,1.483-1.023,6.078,6.078,0,0,1,.23.58l.7,1.985c.174.68.312,1.373.47,2.06l.232,1.033.13,1.053.248,2.113c.11,1.653.12,3.309.077,4.966-.531-.271-1.418-.491-1.8-.685-.7-.353-1.39-.747-2.078-1.132a16.546,16.546,0,0,0-5.1-2.1,6.034,6.034,0,0,0-5.186,1.29,1.46,1.46,0,0,0-.509.851,1.49,1.49,0,0,0,.462,1.081,7.569,7.569,0,0,0,3.041,1.927,16.892,16.892,0,0,0,9.177.8,7.888,7.888,0,0,0,1.952-.57c-.159,3.562-.549,7.131-.833,10.713-.084,1.089-.156,2.18-.207,3.272-.491-.279-1.137-.545-1.434-.749-.652-.444-1.281-.922-1.914-1.393a16.494,16.494,0,0,0-4.782-2.75,6.034,6.034,0,0,0-5.31.6,1.46,1.46,0,0,0-.616.777,1.481,1.481,0,0,0,.317,1.132,7.578,7.578,0,0,0,2.763,2.308,16.889,16.889,0,0,0,8.993,2,8.554,8.554,0,0,0,1.911-.269c-.061,1.247-.058,2.5-.062,3.752a33.138,33.138,0,0,0,1.247,8.7,11.011,11.011,0,0,0,.5,1.61,2.824,2.824,0,0,1-.266-.172c-.629-.476-1.232-.987-1.838-1.49a16.576,16.576,0,0,0-4.634-2.995,6.042,6.042,0,0,0-5.334.327,1.459,1.459,0,0,0-.656.744,1.479,1.479,0,0,0,.258,1.147,7.569,7.569,0,0,0,2.64,2.448,16.892,16.892,0,0,0,8.878,2.458,8.561,8.561,0,0,0,1.907-.168c.038.089.077.177.113.266a24.654,24.654,0,0,0,2.374,3.8,25.327,25.327,0,0,0,6.533,6.1c.682.457,1.38.882,2.085,1.29a15.285,15.285,0,0,0-5.022.058,6.036,6.036,0,0,0-4.3,3.172,1.453,1.453,0,0,0-.145.979,1.483,1.483,0,0,0,.839.823,7.576,7.576,0,0,0,3.545.621,16.884,16.884,0,0,0,8.789-2.76c.214-.14.544-.36.872-.613a74.793,74.793,0,0,0,9.52,3.271c3.481.979,6.989,1.791,10.453,2.647-.434.067-.867.141-1.3.207a16.533,16.533,0,0,0-5.324,1.444,6.037,6.037,0,0,0-3.323,4.184,1.458,1.458,0,0,0,.115.986,1.486,1.486,0,0,0,1.025.575,7.575,7.575,0,0,0,3.585-.327,16.879,16.879,0,0,0,7.764-4.96,10.251,10.251,0,0,0,.954-1.207c.915.245,1.833.485,2.735.751,2.732.736,5.388,1.713,8.065,2.627,1.4.572,2.806,1.137,4.2,1.725-.265.021-.527.051-.792.074a16.534,16.534,0,0,0-5.406,1.1,6.038,6.038,0,0,0-3.585,3.962,1.452,1.452,0,0,0,.053.991,1.484,1.484,0,0,0,.986.639,7.581,7.581,0,0,0,3.6-.1,16.89,16.89,0,0,0,8.066-4.45c.154-.151.379-.375.611-.629.02.01.043.018.062.028a96.821,96.821,0,0,1,11.907,6.6c-.729.041-1.46.054-2.191.069a16.574,16.574,0,0,0-5.464.766,6.035,6.035,0,0,0-3.823,3.736,1.466,1.466,0,0,0-.008.991,1.491,1.491,0,0,0,.945.7,7.584,7.584,0,0,0,3.6.125,16.891,16.891,0,0,0,8.324-3.946,11.752,11.752,0,0,0,.933-.889c.153.107.312.2.463.31a85.12,85.12,0,0,1,12.945,10.953c.205.215.4.442.6.659a7.538,7.538,0,0,1-.871.1c-.789,0-1.577-.034-2.366-.064a16.561,16.561,0,0,0-5.5.448,6.035,6.035,0,0,0-4.031,3.507,1.461,1.461,0,0,0-.066.989,1.482,1.482,0,0,0,.9.754,7.574,7.574,0,0,0,3.583.332,16.879,16.879,0,0,0,8.539-3.457,10.091,10.091,0,0,0,1.212-1.073,80.553,80.553,0,0,1,8.487,11.168c1.378,2.482,2.863,4.923,4,7.547l.917,1.94.752,2c.485,1.347,1.063,2.661,1.5,4.035l.289-.084A70.548,70.548,0,0,0,519.176,425.765Z" transform="translate(-346.932 -92.046)"/><g transform="translate(229.298 11.436)"><g transform="translate(55.414)"><g transform="translate(0 6.301)"><path class="e" d="M521.7,230.862a89.083,89.083,0,0,0,22.451-29.447,85.577,85.577,0,0,0,5.83-16.149,83.65,83.65,0,0,0,1.809-9.561c.35-2.719.082-5.779.964-8.367a.36.36,0,0,1,.687.069c.69,2.615-.021,5.778-.376,8.429a87.286,87.286,0,0,1-17.773,42.024,81.97,81.97,0,0,1-13.535,13.068.044.044,0,0,1-.056-.067Z" transform="translate(-521.688 -167.111)"/></g><path class="e" d="M527.037,202.157c-.345-.227,1.8.657,3.6.013,4.23-1.584,4.528-1.978,9.3-2.858a3.185,3.185,0,0,1,2.147.248,1.409,1.409,0,0,1,.235,1.549,2.8,2.8,0,0,1-1.078,1.124c-4.3,2.878-9.111,1.276-14.373.43Z" transform="translate(-518.357 -140.155)"/><path class="e" d="M530.633,197.692a15.7,15.7,0,0,0,3.857.44c3.21-.826,4.109-2.446,9.093-3.847a3.4,3.4,0,0,1,2.382.11,1.824,1.824,0,0,1,.6,1.756,2.691,2.691,0,0,1-.922,1.373c-4.023,3.65-12.429,2.129-15.12.853Z" transform="translate(-516.012 -143.445)"/><path class="e" d="M533.359,195.073a4.051,4.051,0,0,0,3.478-.6c4.349-3.238,4.156-3.716,9.372-6.328.575-.289,1.945-.747,2.558-.43a1.692,1.692,0,0,1,.789,1.709,3.372,3.372,0,0,1-.867,1.654c-3.992,4.756-10.555,5.014-15.63,4.618Z" transform="translate(-514.38 -147.633)"/><path class="e" d="M535.891,192.269c-.493-.077,2.84-1.249,4.536-2.88,5.058-4.293,4.173-5.513,9.076-8.925.542-.376,1.858-1.045,2.51-.816a1.668,1.668,0,0,1,1,1.6,3.542,3.542,0,0,1-.665,1.8c-3.412,5.383-10.19,7.485-16.461,9.226Z" transform="translate(-512.591 -152.781)"/><path class="e" d="M538.5,184.32c-.45-.09,2.361-.343,3.785-1.86,3.787-2.762,3.466-4.991,7.674-8.12.465-.345,1.612-.945,2.216-.7a1.846,1.846,0,0,1,1.012,1.584,3.239,3.239,0,0,1-.483,1.71c-2.73,5.086-11.5,8.4-14.2,7.389Z" transform="translate(-510.915 -156.651)"/><path class="e" d="M540.059,178.565c-.434-.069,1.255-.963,2.265-2.27,2.329-3.139,2.918-4.462,6.169-7.182a2.555,2.555,0,0,1,1.9-.636,2.089,2.089,0,0,1,1.247,1.317,2.322,2.322,0,0,1-.105,1.456c-1.5,4.345-6.656,5.973-11.477,7.315Z" transform="translate(-509.925 -159.958)"/><path class="e" d="M540.441,174.8c-.366.1,1.16-.923,1.681-2.449,1.708-3.205.677-4.618,2.561-7.889.207-.361.818-1.106,1.357-1.173a1.574,1.574,0,0,1,1.36.572,1.813,1.813,0,0,1,.309,1.163c-.036,3.9-3.747,7.01-7.268,9.776Z" transform="translate(-509.67 -163.275)"/><path class="e" d="M528.135,207.307c.35.2-1.345-1.227-1.506-2.9-.319-3.967-.084-4.345-1.268-8.511-.13-.46-.585-1.449-1.117-1.649a1.517,1.517,0,0,0-1.506.348,2.262,2.262,0,0,0-.572,1.262c-.831,4.47,2.625,7.807,5.582,11.766Z" transform="translate(-521.463 -143.419)"/><path class="e" d="M532.346,203.556a15.162,15.162,0,0,1-2.369-2.954c-.951-3.036-.03-4.559-1.4-9.331-.153-.527-.687-1.664-1.324-1.9a1.879,1.879,0,0,0-1.81.361,2.5,2.5,0,0,0-.7,1.423c-1.046,5.071,4.6,11.237,7.079,12.83Z" transform="translate(-519.811 -146.565)"/><path class="e" d="M535.192,199.388a3.71,3.71,0,0,1-1.728-2.748c-.232-4.762.261-4.884-1-9.919-.14-.555-.646-1.758-1.278-2.016a1.817,1.817,0,0,0-1.82.358,2.7,2.7,0,0,0-.734,1.487c-1.168,5.321,2.765,10.044,6.269,13.381Z" transform="translate(-517.362 -149.572)"/><path class="e" d="M539.3,194.355c.457.159-1.73-2.157-2.288-4.1-1.973-5.369-.575-5.88-2.89-10.532-.255-.513-1.009-1.579-1.68-1.7a1.821,1.821,0,0,0-1.7.741,2.717,2.717,0,0,0-.4,1.612c0,5.454,4.6,9.959,8.958,13.975Z" transform="translate(-516.123 -153.806)"/><path class="e" d="M541.349,187.725c.432.126-1.847-1.3-2.288-3.092-1.828-3.788-.407-5.369-2.408-9.624-.222-.47-.9-1.434-1.539-1.511a1.968,1.968,0,0,0-1.679.779,2.681,2.681,0,0,0-.463,1.531c-.271,5.119,5.546,11.511,8.378,11.917Z" transform="translate(-514.442 -156.71)"/><path class="e" d="M542.728,181.29c.424.11-.769-1.383-1.173-2.985-.887-3.808-.9-5.255-2.8-9.045-.21-.419-.858-1.275-1.49-1.339a2.083,2.083,0,0,0-1.667.711,2.305,2.305,0,0,0-.485,1.375c-.355,4.583,3.726,8.132,7.613,11.283Z" transform="translate(-513.071 -160.294)"/><path class="e" d="M542.632,175.055c.357.161-1-1.007-1.219-2.38-1.087-3.013.271-3.971-.984-7.074a2.4,2.4,0,0,0-1.155-1.255,1.919,1.919,0,0,0-1.521.191,1.4,1.4,0,0,0-.562.9c-.782,3.241,2.394,6.593,5.441,9.619Z" transform="translate(-511.801 -162.637)"/></g><g transform="translate(65.9 43.895)"><path class="f" d="M528.907,229.764c-3.389-5.788,4.211-9.878,10.688-7.557,5.441,1.95,11.91,6.446,15.309,3.136,1.189-5.106-2.412-10.488-4.754-15.722-2.438-5.268-2.564-12.1,3.952-13.709,7.271-1.694,14.424,3.729,20.892,6.911,2.99,1.483,7.25,2.456,9.931.729,5.505-3.343-2.694-12.209,4.754-13.558,3.305.151,6.341,1.59,7.424,3.524,1.262,2.318,1.566,6.06,5.306,5.559,4.315-.562,2.2-5.359,5.7-7.279a7.447,7.447,0,0,1,7.3.789c1.485,1.327,1.5,3.093,1.462,4.759,5.071-.4,3.848-4.38,12.975-4.689,5.885-.182,5.01,5.694-.463,7.21-4.429,1.286-11.349.956-12,3.773-.461,1.966,3.458,2.928,2.946,4.864-.662,2.479-6.234,2.908-9.55,2.261-3.358-.664-8.843-.476-9.43,2.155,5.18,1.3,10.54,2.757,12.525,6.08,1.8,3.251-1.63,9.06-6.827,10.286-3.627.882-6.369-.941-9.1-2.349-2.829-1.446-7.215-2.336-10.075.041,1.835,3.461,3.006,8.416-.782,11.21-5.149,4.123-13.052-3.024-17.939,1.235,2.338,2.7,4.62,5.477,5.39,8.915.729,3.422-.255,7.807-2.937,9.844-5.155,4.22-14.608-4.194-17.86,2.141-1.211,2.706-.008,6.688-.885,9.586-1.079,4.109-5.584,3.946-9.308,1.756-5.927-3.415-16.315-13.965-15.271-21.861.766-4.081,6.6-4.252,7.355-8.245C536.827,236.353,531.593,234.444,528.907,229.764Z" transform="translate(-528.072 -189.995)"/><g transform="translate(9.139 8.357)"><g transform="translate(0 4.72)"><path class="g" d="M600.525,197.957c-8.388,1.433-15.71,5.589-22.11,9.257A179.474,179.474,0,0,0,558.593,221.7a133.09,133.09,0,0,0-15.143,17.13c-3.9,6.2-8.321,12.691-9.811,20.221-.051.327.379.782.549.485,3.286-5.354,5.65-12.374,9.086-18.109a132.9,132.9,0,0,1,14.043-16.8,179.1,179.1,0,0,1,18.9-14.762,157.431,157.431,0,0,1,24.343-11.823c.069-.026.041-.094-.036-.081Z" transform="translate(-533.634 -197.955)"/></g><g transform="translate(27.965 6.227)"><path class="g" d="M554.162,214.143c1.462-4.792.182-10.4-2.412-14.986-.289-.5-1.319-.294-1.048.227,2.535,5.02,2.967,9.545,3.134,14.739.006.161.284.166.325.02Z" transform="translate(-550.658 -198.872)"/></g><g transform="translate(53.721)"><path class="g" d="M566.534,202.545l-.113.028c-.059.015-.092.053-.084.1l.025.113c.016.08.141.117.246.1,1.3-.21,1.523-2.338,1.718-3.041.412-1.467.928-3.271.141-4.661a.375.375,0,0,0-.544.039c-.43,1.2-.156,2.466-.376,3.693-.214,1.194-.67,2.55-.976,3.66,0-.015-.011-.035-.038-.028Z" transform="translate(-566.335 -195.082)"/></g><g transform="translate(44.718 15.958)"><path class="g" d="M561.132,205.4a24.927,24.927,0,0,1,8.071,1.71c1.239.545,2.505,1.924,3.966,2.03.154.012.307-.084.283-.214-.223-1.191-2.624-2.1-3.908-2.605a27.206,27.206,0,0,0-8.3-1.526c-.439-.025-.554.57-.115.6Z" transform="translate(-560.855 -204.796)"/></g><g transform="translate(15.33 44.114)"><path class="g" d="M543.23,222.686a16.567,16.567,0,0,1,11.587,4.145c.347.3.851-.253.534-.606-2.924-3.208-8.084-5.053-12.229-3.985-.264.069-.168.445.108.447Z" transform="translate(-542.966 -221.935)"/></g><g transform="translate(1.141 32.27)"><path class="g" d="M541.82,228.124c-.429-4.371-2.444-10.333-6.813-13.305-.448-.3-.94.184-.516.577,4.184,3.933,5.06,7.992,7.008,12.723.071.174.342.215.32,0Z" transform="translate(-534.329 -214.725)"/></g><g transform="translate(26.627 29.089)"><path class="g" d="M549.922,214.061c5.753-.545,11.919-1.682,16.232,2.116.381.345,1.028-.284.632-.619-4.233-3.5-11.362-3.248-16.9-1.623-.076.023-.044.133.036.127Z" transform="translate(-549.843 -212.789)"/></g></g></g><g transform="translate(5.193 111.989)"><path class="d" d="M527.063,250.08c12.152-.716,18.311,15.993,30.1,2.231a17.315,17.315,0,0,0,3.846-7.491c2.579-9.458,14.956-17.616,24.818-10.933,5.075,3.422,8.329,10.052,14.136,10.634a14.3,14.3,0,0,0,5.962-1.063c8.1-2.536,16.921-4.978,26-2.978,9.876,2.21,18.053,9.463,19.38,17.194,1.16,7.581-4.242,15.447-12.579,19.137-7.108,3.405-15.823,3.8-21.854,8.447-6.218,5.1-8.312,13.893-15,18.214-11.45,8.191-27.3-5.149-37.615,4.163-3.768,3.713-5.29,9.947-8.753,14-3.826,4.72-9.451,5.715-14.355,4.56-4.928-1.173-9.573-4.273-14.445-6.5-6.039-2.788-11.45-7.3-17.272-9.522-3.44-1.327-5.99-6.41-5.617-11.342C506.725,267.947,510.485,251.461,527.063,250.08Z" transform="translate(-482.978 -231.445)"/><g transform="translate(0 17.664)"><path class="h" d="M636.754,255.618a150.392,150.392,0,0,0-20.231-.437c3.149-2.816,6.438-6.53,6.9-10.56.023-.2-.342-.384-.468-.191-1.093,1.686-1.682,3.6-2.752,5.313a31.861,31.861,0,0,1-4.289,5.4c-.016.018-.01.039-.016.059-2.919.145-5.817.348-8.669.67A186.875,186.875,0,0,0,578.3,262.6q-2.725,1-5.355,2.012a95.645,95.645,0,0,0,6.752-8.884c1.5-.6,2.895-1.528,4.3-2.216q3.019-1.451,6.131-2.8c.552-.235-.094-1.069-.637-.813q-3.038,1.442-5.955,3.021c-.977.542-2.078,1.069-3.085,1.677a51.58,51.58,0,0,0,5.5-11.237c.176-.511-.706-1.012-.969-.514-3.849,7.491-7.439,14.731-12.735,21.453-.145.191,0,.412.189.511a271.991,271.991,0,0,0-34.988,16.121,112.012,112.012,0,0,0,2.674-12.042c1.055-1.2,1.9-2.686,2.847-3.964q2.018-2.683,4.145-5.267c.36-.434-.488-1.14-.833-.688-1.347,1.782-2.655,3.6-3.907,5.464-.656,1-1.393,2-2.024,3.062a69.959,69.959,0,0,0,.683-14.156c-.038-.631-.941-.859-.976-.24-.5,9.484-1.1,18.652-3.266,27.63a.416.416,0,0,0,.219.452c-1.722.966-3.4,1.948-5.05,2.941l-.112-.118c-.3-.332-.649.015-.407.391l.02.03a172.085,172.085,0,0,0-18.49,12.84,154.382,154.382,0,0,0-21.713,25.923.785.785,0,0,0,.215,1.089.8.8,0,0,0,.279.118.788.788,0,0,0,.81-.333A152.606,152.606,0,0,1,514,298.453a170.33,170.33,0,0,1,18.338-12.727c6.024,8.539,15.492,13.118,23.16,17.759.145.085.266-.172.125-.268-3.859-2.592-7.815-5.152-11.754-7.882A66.974,66.974,0,0,1,533.039,285.3a239.566,239.566,0,0,1,30.232-15.11,13.386,13.386,0,0,0,2.389,2.29c2.891,2.5,5.817,4.894,8.677,7.291,3.989,3.34,8.073,8.068,13.108,9.295a.255.255,0,0,0,.154-.485c-4.774-2.088-8.7-5.968-12.814-9.351-3.42-2.819-7.961-5.722-11.107-9.214q7.2-3.021,15.117-5.927c5.8-1.75,12.385-3.608,19.342-5.05,4.685,1.7,9.091,3.389,12.737,6.639s6.021,7.192,9.173,10.525c.033.035.1.008.069-.033-2.581-4.051-5.812-8.769-10.054-12.145a35.182,35.182,0,0,0-10.494-5.285c2.578-.509,5.2-.956,7.856-1.313a144.879,144.879,0,0,1,29.186-.248.784.784,0,0,0,.853-.711A.794.794,0,0,0,636.754,255.618Z" transform="translate(-491.118 -241.908)"/><path class="h" d="M568.841,246.854a13.074,13.074,0,0,0,1.628,3.7c.067.085.2.054.2-.028.044-1.2-.682-2.553-1.107-3.769-.5-1.424-.982-2.862-1.575-4.288-.177-.427-.92-.322-.777.1C567.7,244.006,568.287,245.435,568.841,246.854Z" transform="translate(-442.217 -242.197)"/><path class="h" d="M564.529,255.991c-.177.015-.12.225.023.271,2.343.731,4.84.866,7.235,1.483a66.888,66.888,0,0,1,7.954,2.7c.074.03.133-.046.061-.085C575.616,258.092,569.39,255.6,564.529,255.991Z" transform="translate(-444 -233.356)"/><path class="h" d="M541.806,264.006c-.26-.018-.25.422.013.447,6.6.667,12.919,2.663,19.449,3.647.184.028.284-.2.1-.287C555.5,265.118,548.047,264.435,541.806,264.006Z" transform="translate(-458.658 -228.178)"/><path class="h" d="M525.425,276.94c0-.012-.023-.012-.021,0a21.075,21.075,0,0,0,1.984,6.673c.792,1.922,1.679,4.508,3.21,5.781a.135.135,0,0,0,.21-.149c-.485-1.927-1.884-3.7-2.714-5.546C527.1,281.515,526.559,279.068,525.425,276.94Z" transform="translate(-469.079 -219.869)"/></g></g><path class="e" d="M643.029,291.446a5.256,5.256,0,0,0-4.258-1.871,14.422,14.422,0,0,0-4.684,1.051c-.647.228-1.293.465-1.95.665a4.139,4.139,0,0,1-.516.1c.156-.294.324-.582.467-.881a30.747,30.747,0,0,0,2.338-7.314c.056-.274.1-.55.143-.826.168.051.322.094.432.122a11.178,11.178,0,0,0,6.1-.107,5,5,0,0,0,2.1-1.132.976.976,0,0,0,.355-.693.965.965,0,0,0-.3-.586,4,4,0,0,0-3.368-1.091,10.978,10.978,0,0,0-3.468,1.152c-.473.223-.943.452-1.426.652-.043.018-.115.038-.174.056.222-1.692.348-3.389.419-5.081.1-2.513.087-5.02.01-7.524l-.261-.007a110.816,110.816,0,0,1-1.258,11.654,11.127,11.127,0,0,0-3.033-4.569,5.023,5.023,0,0,0-2.055-1.207.985.985,0,0,0-.777.054.971.971,0,0,0-.348.559,4,4,0,0,0,.812,3.445,10.967,10.967,0,0,0,2.783,2.369c.435.289.874.573,1.3.882.207.15.549.527.848.772-.061.269-.1.544-.167.812a29.235,29.235,0,0,1-2.538,6.832c-.176.327-.375.639-.565.954-.074-.343-.166-.664-.228-.871a14.688,14.688,0,0,0-4.273-6.781,6.588,6.588,0,0,0-2.7-1.587,1.3,1.3,0,0,0-1.02.072,1.269,1.269,0,0,0-.455.733,5.249,5.249,0,0,0,1.065,4.526,14.363,14.363,0,0,0,3.655,3.112c.572.379,1.148.754,1.7,1.158.309.225.841.831,1.265,1.129a22.316,22.316,0,0,1-2.814,3.217,26.847,26.847,0,0,1-6.488,4.353c.028-.192.053-.37.069-.5a17.157,17.157,0,0,0-1.4-9.254,7.692,7.692,0,0,0-2.147-2.959,1.514,1.514,0,0,0-1.127-.4,1.49,1.49,0,0,0-.83.572,6.133,6.133,0,0,0-.976,5.341,16.806,16.806,0,0,0,2.458,5.038c.434.674.875,1.342,1.28,2.035.143.243.31.7.494,1.137-1.314.562-2.655,1.078-4.005,1.554-2.251.779-4.547,1.48-6.852,2.2l.084-.209a17.154,17.154,0,0,0,1-9.3,7.676,7.676,0,0,0-1.322-3.409,1.5,1.5,0,0,0-.987-.673,1.48,1.48,0,0,0-.948.34,6.13,6.13,0,0,0-2.3,4.915,16.784,16.784,0,0,0,1.094,5.5c.248.762.5,1.523.72,2.295.082.294.13.835.205,1.332-1.653.532-3.305,1.081-4.947,1.7A47.56,47.56,0,0,0,594,309.34l.089-.217a17.154,17.154,0,0,0,1-9.3,7.708,7.708,0,0,0-1.322-3.41,1.51,1.51,0,0,0-.987-.672,1.483,1.483,0,0,0-.948.338,6.135,6.135,0,0,0-2.3,4.917,16.78,16.78,0,0,0,1.092,5.5c.248.762.506,1.523.721,2.3.115.416.159,1.322.319,1.906a23.873,23.873,0,0,0-5.346,4.421,20.281,20.281,0,0,0-2.3,3.116c-.177.3-.335.616-.488.931a9.571,9.571,0,0,1-.329-1.265,16.145,16.145,0,0,0-3.013-8.556,7.679,7.679,0,0,0-2.76-2.4,1.51,1.51,0,0,0-1.188-.135,1.488,1.488,0,0,0-.68.743,6.139,6.139,0,0,0,.255,5.425,16.822,16.822,0,0,0,3.532,4.353c.575.557,1.157,1.111,1.707,1.694a20.956,20.956,0,0,0,1.732,1.672,6.79,6.79,0,0,0-.393,1.032l-.619,1.817c-.155.618-.276,1.245-.416,1.866l-.2.933-.112.945-.227,1.886c-.09,1.288-.13,2.571-.136,3.854a6.02,6.02,0,0,1-.6-.882c-1.354-2.855-3.054-5.935-5.712-7.649a7.691,7.691,0,0,0-3.4-1.341,1.506,1.506,0,0,0-1.165.268,1.488,1.488,0,0,0-.393.927,6.135,6.135,0,0,0,2.047,5.03,16.816,16.816,0,0,0,4.781,2.926c.729.335,1.714,1.132,2.427,1.5a6.65,6.65,0,0,0,2,.582.4.4,0,0,1,.043,0c.039,3.294.245,6.576.366,9.839q.064,1.562.067,3.133a10.377,10.377,0,0,1-.82-1.176c-1.352-2.855-3.054-5.935-5.712-7.649a7.684,7.684,0,0,0-3.4-1.341,1.5,1.5,0,0,0-1.163.269,1.472,1.472,0,0,0-.394.927,6.134,6.134,0,0,0,2.049,5.029,16.773,16.773,0,0,0,4.781,2.928c.728.335,1.713,1.13,2.426,1.5a6.689,6.689,0,0,0,2,.58,1.154,1.154,0,0,0,.23-.018,31.66,31.66,0,0,1-1.661,10.415,13.571,13.571,0,0,1-1.1,2.474,8.612,8.612,0,0,1-.636-1.158c-1.037-2.983-2.394-6.231-4.851-8.221a7.682,7.682,0,0,0-3.238-1.7,1.5,1.5,0,0,0-1.186.141,1.475,1.475,0,0,0-.491.879,6.134,6.134,0,0,0,1.492,5.221,16.813,16.813,0,0,0,4.437,3.425c.688.412,1.582,1.309,2.251,1.751a6.918,6.918,0,0,0,1.649.72,17.487,17.487,0,0,1-1.95,2.643,21.756,21.756,0,0,1-5.53,4.536,37.648,37.648,0,0,1-7.807,3.364,4.412,4.412,0,0,1,0-.8c.445-3.128.726-6.635-.547-9.53a7.685,7.685,0,0,0-2.1-2.995,1.512,1.512,0,0,0-1.119-.419,1.489,1.489,0,0,0-.84.557,6.129,6.129,0,0,0-1.065,5.324,16.806,16.806,0,0,0,2.374,5.078c.424.682.807,1.888,1.2,2.587a5.514,5.514,0,0,0,.483.68c-1.421.409-2.857.779-4.3,1.124-3.555.841-7.174,1.474-10.808,2.242.016-.021.033-.046.049-.064,2.062-2.394,4.189-5.2,4.679-8.322a7.709,7.709,0,0,0-.153-3.654,1.514,1.514,0,0,0-.718-.954,1.484,1.484,0,0,0-1.007.015,6.133,6.133,0,0,0-3.767,3.911,16.765,16.765,0,0,0-.739,5.556c-.011.8-.338,2.026-.384,2.826a6.265,6.265,0,0,0,.074,1.132c-.637.145-1.275.279-1.912.437-2.486.544-4.894,1.359-7.319,2.118-2.06.78-4.137,1.523-6.151,2.415a4.5,4.5,0,0,1,.245-.81c1.345-2.858,2.643-6.128,2.279-9.269a7.7,7.7,0,0,0-1.125-3.479,1.511,1.511,0,0,0-.948-.729,1.487,1.487,0,0,0-.966.284,6.139,6.139,0,0,0-2.583,4.777,16.8,16.8,0,0,0,.777,5.551c.2.775.215,2.042.384,2.826a6.992,6.992,0,0,0,.565,1.474,79.178,79.178,0,0,0-10.331,5.65c1.286-2.775,2.469-5.9,2.117-8.917a7.679,7.679,0,0,0-1.125-3.479,1.5,1.5,0,0,0-.946-.729,1.485,1.485,0,0,0-.966.284,6.134,6.134,0,0,0-2.582,4.777,16.759,16.759,0,0,0,.775,5.551c.2.775.215,2.042.386,2.826a6.021,6.021,0,0,0,.348,1.015,77.792,77.792,0,0,0-11.514,9.72c1.037-2.712,1.892-5.705,1.4-8.516a7.692,7.692,0,0,0-1.324-3.409,1.5,1.5,0,0,0-.987-.672,1.477,1.477,0,0,0-.948.34,6.137,6.137,0,0,0-2.3,4.917,16.835,16.835,0,0,0,1.1,5.5c.248.762.332,2.026.549,2.8a6.654,6.654,0,0,0,.529,1.219,69.372,69.372,0,0,0-7.588,10.451,61.33,61.33,0,0,0-5.692,13.957l.25.079c.407-1.184.941-2.315,1.391-3.475l.7-1.73.838-1.666c1.043-2.259,2.387-4.348,3.64-6.478a69.969,69.969,0,0,1,7.624-9.53,8.8,8.8,0,0,0,1.032.959,14.691,14.691,0,0,0,7.352,3.192,6.6,6.6,0,0,0,3.125-.21,1.3,1.3,0,0,0,.8-.636,1.278,1.278,0,0,0-.036-.862,5.256,5.256,0,0,0-3.432-3.138,14.379,14.379,0,0,0-4.774-.509c-.685.008-1.373.025-2.058,0a6.2,6.2,0,0,1-.756-.108c.182-.184.355-.378.537-.56a74.062,74.062,0,0,1,11.5-9.246c.135-.089.274-.171.411-.26a10.868,10.868,0,0,0,.792.793,14.707,14.707,0,0,0,7.154,3.613,6.614,6.614,0,0,0,3.131-.03,1.293,1.293,0,0,0,.838-.588,1.262,1.262,0,0,0,.015-.862,5.247,5.247,0,0,0-3.245-3.332,14.394,14.394,0,0,0-4.736-.785c-.634-.03-1.27-.056-1.9-.107a84.191,84.191,0,0,1,10.5-5.482l.056-.023c.194.227.386.425.516.56a14.7,14.7,0,0,0,6.919,4.046,6.607,6.607,0,0,0,3.128.163,1.3,1.3,0,0,0,.872-.536,1.272,1.272,0,0,0,.067-.859,5.255,5.255,0,0,0-3.033-3.525,14.4,14.4,0,0,0-4.68-1.074c-.228-.025-.457-.056-.685-.08,1.226-.481,2.459-.943,3.69-1.41,2.349-.736,4.68-1.528,7.072-2.109,1.4-.376,2.821-.711,4.25-1.035a7.457,7.457,0,0,0,.963,1.347,14.673,14.673,0,0,0,6.645,4.482,6.583,6.583,0,0,0,3.11.363,1.291,1.291,0,0,0,.905-.478,1.267,1.267,0,0,0,.122-.854,5.257,5.257,0,0,0-2.8-3.713,14.386,14.386,0,0,0-4.6-1.372c-.608-.105-1.217-.21-1.82-.335,2.6-.564,5.222-1.119,7.828-1.782,1.608-.406,3.221-.856,4.82-1.367.192.223.38.421.509.554a14.69,14.69,0,0,0,6.91,4.063,6.579,6.579,0,0,0,3.126.171,1.3,1.3,0,0,0,.874-.534,1.273,1.273,0,0,0,.069-.859,5.252,5.252,0,0,0-3.024-3.532,14.343,14.343,0,0,0-4.677-1.086c-.1-.012-.189-.025-.284-.035a36.307,36.307,0,0,0,5.9-2.972,22.075,22.075,0,0,0,5.816-5.162,21.364,21.364,0,0,0,2.147-3.256c.035-.076.071-.151.105-.228a7.446,7.446,0,0,0,1.656.187,14.7,14.7,0,0,0,7.776-1.945,6.6,6.6,0,0,0,2.349-2.072,1.293,1.293,0,0,0,.25-.992,1.27,1.27,0,0,0-.554-.66,5.256,5.256,0,0,0-4.633-.4,14.4,14.4,0,0,0-4.1,2.5c-.539.424-1.074.856-1.631,1.257a2.549,2.549,0,0,1-.235.145,9.612,9.612,0,0,0,.473-1.39,28.717,28.717,0,0,0,1.273-7.539c.023-1.091.054-2.18.028-3.266a7.427,7.427,0,0,0,1.656.276,14.694,14.694,0,0,0,7.866-1.541,6.6,6.6,0,0,0,2.454-1.947,1.29,1.29,0,0,0,.3-.977,1.268,1.268,0,0,0-.518-.69,5.255,5.255,0,0,0-4.606-.639,14.424,14.424,0,0,0-4.22,2.288c-.56.4-1.117.8-1.694,1.171-.263.169-.83.388-1.263.619-.021-.951-.061-1.9-.108-2.85-.169-3.121-.43-6.236-.493-9.336a6.955,6.955,0,0,0,1.686.539,14.682,14.682,0,0,0,8-.5,6.589,6.589,0,0,0,2.688-1.608,1.3,1.3,0,0,0,.426-.931,1.276,1.276,0,0,0-.424-.751,5.255,5.255,0,0,0-4.483-1.235,14.371,14.371,0,0,0-4.483,1.718c-.608.319-1.212.646-1.833.94-.338.159-1.116.332-1.582.555,0-1.442.044-2.883.176-4.317l.261-1.833.136-.913.223-.894c.153-.593.288-1.193.455-1.781l.654-1.71a4.781,4.781,0,0,1,.212-.5,7.915,7.915,0,0,0,1.268.922,14.689,14.689,0,0,0,7.708,2.195,6.607,6.607,0,0,0,3.07-.621,1.3,1.3,0,0,0,.711-.736,1.273,1.273,0,0,0-.15-.849,5.251,5.251,0,0,0-3.815-2.658,14.379,14.379,0,0,0-4.8.125c-.678.1-1.357.205-2.04.274-.279.028-.787-.013-1.245-.016.253-.455.49-.918.775-1.35a18.782,18.782,0,0,1,2.292-2.8,22.468,22.468,0,0,1,5.315-3.944,10.1,10.1,0,0,0,.78.948,14.713,14.713,0,0,0,6.793,4.255,6.578,6.578,0,0,0,3.121.256,1.284,1.284,0,0,0,.887-.508,1.265,1.265,0,0,0,.094-.858,5.253,5.253,0,0,0-2.924-3.616,14.355,14.355,0,0,0-4.643-1.216c-.68-.1-1.362-.182-2.037-.306l-.021,0a53.5,53.5,0,0,1,5.25-2.073c1.879-.644,3.795-1.226,5.719-1.805.159.191.314.365.422.483a14.7,14.7,0,0,0,6.793,4.257,6.578,6.578,0,0,0,3.121.256,1.285,1.285,0,0,0,.887-.508,1.267,1.267,0,0,0,.094-.858,5.253,5.253,0,0,0-2.924-3.616,14.1,14.1,0,0,0-4.526-1.2c1.57-.488,3.141-.991,4.7-1.556,1.654-.6,3.318-1.268,4.946-2.03a8.265,8.265,0,0,0,1.268.793,14.7,14.7,0,0,0,7.836,1.69,6.61,6.61,0,0,0,3.021-.82,1.285,1.285,0,0,0,.662-.78,1.27,1.27,0,0,0-.2-.838,5.249,5.249,0,0,0-3.979-2.405,14.416,14.416,0,0,0-4.782.435c-.11.025-.222.044-.333.067a25.746,25.746,0,0,0,4.866-3.747,21.327,21.327,0,0,0,3.051-3.775,8.978,8.978,0,0,0,1.271.57,14.719,14.719,0,0,0,7.989.662,6.625,6.625,0,0,0,2.891-1.2,1.3,1.3,0,0,0,.555-.859A1.275,1.275,0,0,0,643.029,291.446Z" transform="translate(-487.957 -95.871)"/></g></g><g transform="translate(328.021 490.372)"><ellipse class="i" cx="36.113" cy="6.677" rx="36.113" ry="6.677" transform="translate(0 54.161)"/><g transform="translate(4.493)"><g transform="translate(17.815)"><path class="f" d="M367.736,353.312c-12.369,3.521-20.055,16.98-22.214,28.834-.051.286.375.412.442.122,1.455-6.144,3.573-12.063,7.343-17.2a30.949,30.949,0,0,1,6.106-6.21.2.2,0,0,0,.044,0c.618.992,2.081.864,3.08.774a.173.173,0,0,0,.172-.171,1.623,1.623,0,0,0-1.05-1.518,1.833,1.833,0,0,0-.963-.028,53.135,53.135,0,0,1,7.205-4.2C368.13,353.6,367.967,353.246,367.736,353.312Zm-5.41,5.991a4.6,4.6,0,0,1-2.791-.473,4.478,4.478,0,0,1,1.48-.547A1.2,1.2,0,0,1,362.326,359.3Z" transform="translate(-318.505 -337.063)"/><path class="f" d="M362.5,352.681a1.457,1.457,0,0,0-2.154-.421,1.277,1.277,0,0,0,.32,2.159,1.4,1.4,0,0,0,.439.136,1.1,1.1,0,0,0,1.043-.32l.041-.043A1.426,1.426,0,0,0,362.5,352.681Zm-1.669.6a.325.325,0,0,1,.437-.315c-.023.026-.054.044-.067.081a.749.749,0,0,0,.049.68.8.8,0,0,1-.34-.128A.58.58,0,0,1,360.831,353.285Z" transform="translate(-309.277 -337.924)"/><path class="f" d="M359.769,352.062a2.11,2.11,0,0,0-.775-.146.135.135,0,0,0-.067.25,2.291,2.291,0,0,0,.8.218C359.921,352.409,359.934,352.118,359.769,352.062Z" transform="translate(-309.928 -337.955)"/><path class="f" d="M360.556,351.792a1.266,1.266,0,0,0-.194-.779.1.1,0,0,0-.174.023,1.2,1.2,0,0,0,.03.8A.173.173,0,0,0,360.556,351.792Z" transform="translate(-309.111 -338.564)"/><path class="f" d="M362.155,351.326c.049-.069-.033-.14-.1-.13a.537.537,0,0,0-.5.66.031.031,0,0,0,.046.018A1.7,1.7,0,0,0,362.155,351.326Z" transform="translate(-308.208 -338.418)"/><path class="f" d="M363.092,352.612a.826.826,0,0,0-.862-.085.147.147,0,0,0-.034.265.823.823,0,0,0,.853.156A.186.186,0,0,0,363.092,352.612Z" transform="translate(-307.828 -337.616)"/><path class="f" d="M361.86,353.75c-.059-.018-.131.044-.107.107a1.54,1.54,0,0,0,.5.759.065.065,0,0,0,.094-.036C362.51,354.186,362.239,353.87,361.86,353.75Z" transform="translate(-308.072 -336.778)"/><path class="f" d="M360.572,354.8c-.016.043.031.079.071.071.325-.067.421-.258.332-.573a.042.042,0,0,0-.071-.018A1.592,1.592,0,0,0,360.572,354.8Z" transform="translate(-308.83 -336.446)"/><path class="f" d="M359.565,354.018c-.174.089-.018.363.154.264a1.252,1.252,0,0,0,.452-.345.07.07,0,0,0-.067-.115A1.237,1.237,0,0,0,359.565,354.018Z" transform="translate(-309.524 -336.73)"/><path class="f" d="M359.007,352.88c-.13.011-.23.177-.115.279a.581.581,0,0,0,.849.048.166.166,0,0,0-.084-.306A2.782,2.782,0,0,0,359.007,352.88Z" transform="translate(-309.941 -337.342)"/><path class="f" d="M350.163,361.556a.027.027,0,0,0,.046-.025c-.008-.043-.028-.082-.038-.125a.143.143,0,0,0,.163-.02,2.952,2.952,0,0,0,.458-2.463c-.061-.365-.258-1.592-.9-1.431-.559.138-.539,1.3-.534,1.712A3.176,3.176,0,0,0,350.163,361.556Zm-.371-3.4q.035-.367.4.125a3.9,3.9,0,0,1,.126.508,4.11,4.11,0,0,1,.046.984c-.033.48-.243.923-.266,1.391a9.79,9.79,0,0,1-.35-1.142C349.692,359.726,349.5,358.4,349.792,358.152Z" transform="translate(-316.038 -334.379)"/><path class="f" d="M350.572,354.364a.186.186,0,0,0-.223-.291c-9.237,5.986-12.257,18.445-11.263,28.756.025.245.4.253.389,0-.437-8.48,1.2-15.825,5.561-22.193.754.516,1.807.12,2.573-.179a.148.148,0,0,0,.1-.179,1.39,1.39,0,0,0-1.161-.986,1.366,1.366,0,0,0-.6.089A36.145,36.145,0,0,1,350.572,354.364Zm-4.674,5.423c.317-.169,1.635-.223,1.377.5-.056.154-.9.3-1.051.329a3.04,3.04,0,0,1-1.125-.072c.092-.133.191-.263.286-.394A2.94,2.94,0,0,1,345.9,359.786Z" transform="translate(-322.756 -336.586)"/><path class="f" d="M347.421,354.743a.9.9,0,0,0,.15-.015.845.845,0,0,0,.281,0c.031,0,.048-.031.076-.039a.963.963,0,0,0,.22-.115.943.943,0,0,0,.253-.184.964.964,0,0,0,.077-.133,1.184,1.184,0,0,0-.034-1.375,1.241,1.241,0,0,0-1.914.245A1.1,1.1,0,0,0,347.421,354.743Zm-.071-.769-.038-.069c-.141-.32,0-.478.191-.5a.206.206,0,0,0-.035.085.683.683,0,0,0,.22.552.615.615,0,0,1-.287,0A.38.38,0,0,1,347.35,353.974Z" transform="translate(-317.953 -337.557)"/><path class="f" d="M346.194,353.188c.163-.025.11-.266-.038-.274a1.855,1.855,0,0,0-.667.066c-.1.03-.115.2,0,.218A1.953,1.953,0,0,0,346.194,353.188Z" transform="translate(-318.575 -337.316)"/><path class="f" d="M346.719,352.486a1.072,1.072,0,0,0-.342-.588.082.082,0,0,0-.138.058,1.018,1.018,0,0,0,.214.642A.146.146,0,0,0,346.719,352.486Z" transform="translate(-318.042 -337.981)"/><path class="f" d="M347.568,352.337a2.618,2.618,0,0,0,.309-.555c.028-.061-.033-.146-.1-.1-.269.176-.363.33-.255.651A.026.026,0,0,0,347.568,352.337Z" transform="translate(-317.246 -338.115)"/><path class="f" d="M349.028,352.872a.158.158,0,0,0-.038-.284.719.719,0,0,0-.747.153c-.082.062-.021.176.054.205A.7.7,0,0,0,349.028,352.872Z" transform="translate(-316.779 -337.551)"/><path class="f" d="M348.786,354.375a.053.053,0,0,0,.067-.051c.041-.36-.255-.554-.593-.56a.074.074,0,0,0-.051.125A1.252,1.252,0,0,0,348.786,354.375Z" transform="translate(-316.787 -336.767)"/><path class="f" d="M347.564,354.443a1.372,1.372,0,0,0-.146.5.048.048,0,0,0,.072.041.333.333,0,0,0,.136-.545A.038.038,0,0,0,347.564,354.443Z" transform="translate(-317.284 -336.342)"/><path class="f" d="M346.437,354.575c-.122.115.067.3.182.182a1.037,1.037,0,0,0,.288-.388.058.058,0,0,0-.079-.08A1.048,1.048,0,0,0,346.437,354.575Z" transform="translate(-317.939 -336.434)"/><path class="f" d="M345.693,354.043a.508.508,0,0,0,.724-.187c.084-.108-.054-.22-.156-.205a2.313,2.313,0,0,0-.536.138C345.626,353.826,345.573,353.986,345.693,354.043Z" transform="translate(-318.437 -336.841)"/><path class="f" d="M339.339,359.7c-.427.218-.164,1.117-.072,1.451a2.783,2.783,0,0,0,1.239,1.8.024.024,0,0,0,.031-.031c-.018-.033-.043-.061-.061-.092a.113.113,0,0,0,.126-.054,2.467,2.467,0,0,0-.177-2.045C340.285,360.422,339.841,359.439,339.339,359.7Zm1.023,2.959a8.1,8.1,0,0,1-.6-.935c-.079-.161-.577-1.464-.371-1.557C340.167,359.809,340.273,362.137,340.362,362.658Z" transform="translate(-322.629 -332.98)"/><path class="f" d="M332.451,367.295a31.213,31.213,0,0,1,3.289-14.665c.15-.3,3.281-5.714,3.9-4.339.039.085.172.039.172-.048,0-.184,0-.37,0-.554a.207.207,0,0,0-.105-.182c-1.929-1-3.217,2.441-3.926,3.729a31.315,31.315,0,0,0,3.882,35.838c.214.253.573-.112.363-.361A31.468,31.468,0,0,1,332.451,367.295Z" transform="translate(-327.276 -340.904)"/><path class="f" d="M340.962,346.478a1.525,1.525,0,0,0-1.336-1.748c-2.044-.32-2.359,2.9-.557,3.381C340.1,348.385,340.87,347.429,340.962,346.478Zm-1.344.325a.34.34,0,0,0,.1,0,.77.77,0,0,0,.509-.8l.023-.049c0,.013.013.023.016.036a.775.775,0,0,1-.578.9C339.668,346.854,339.638,346.833,339.618,346.8Z" transform="translate(-323.41 -342.589)"/><path class="f" d="M337.928,344.577c.2.018.246-.235.148-.36l-.113-.145c-.291-.368-.81.429-.2.488Z" transform="translate(-323.673 -343.059)"/><path class="f" d="M339.2,344.614a.849.849,0,0,0,.406-.977.311.311,0,0,0-.562-.072,2,2,0,0,0-.25.738C338.755,344.514,338.979,344.772,339.2,344.614Z" transform="translate(-322.831 -343.418)"/><path class="f" d="M340.364,345.139a.735.735,0,0,0,.437-.067.23.23,0,0,0,.1-.378.492.492,0,0,0-.616-.138A.3.3,0,0,0,340.364,345.139Z" transform="translate(-322.005 -342.718)"/><path class="f" d="M339.824,348.825a.87.87,0,0,0-.076-1.007.083.083,0,0,0-.141,0,.866.866,0,0,0,0,1.007A.129.129,0,0,0,339.824,348.825Z" transform="translate(-322.41 -340.614)"/><path class="f" d="M338.341,347.393a.179.179,0,0,0-.274-.036c-.168.177-.253.393-.43.559a.2.2,0,0,0,.141.342.68.68,0,0,0,.654-.435.3.3,0,0,0,0-.3Z" transform="translate(-323.608 -340.918)"/><path class="f" d="M337.35,345.719a1.214,1.214,0,0,0-.7-.03c-.207.031-.161.319,0,.376a.987.987,0,0,0,.639.087A.222.222,0,0,0,337.35,345.719Z" transform="translate(-324.292 -341.981)"/><path class="f" d="M329.35,357.8a.224.224,0,0,0-.271.271,5.915,5.915,0,0,0,4.143,4.907.02.02,0,0,0,.016-.036,7.58,7.58,0,0,1-3.632-4.588,4.893,4.893,0,0,1,3.1,3.047,3.627,3.627,0,0,0,.375,1.069.182.182,0,0,0,.329-.043c.319-.889-.55-2.178-1.1-2.827A5.484,5.484,0,0,0,329.35,357.8Z" transform="translate(-329.075 -334.176)"/><path class="f" d="M333.357,356.693a.4.4,0,0,0,.214.774,3.684,3.684,0,0,0,2.975-3.742.355.355,0,0,0-.524-.3,7.022,7.022,0,0,0-2.239,1.406c-.4.4-1.147,1.209-.931,1.81a.036.036,0,0,0,.053.021c.5-.241.751-1.014,1.137-1.419a3.756,3.756,0,0,1,1.694-1.068A3.294,3.294,0,0,1,333.357,356.693Z" transform="translate(-326.672 -337.01)"/><path class="f" d="M340.633,347.07a1.413,1.413,0,0,0,.628.455c.238.082.378-.2.3-.383a1.291,1.291,0,0,0-.467-.529C340.772,346.357,340.342,346.761,340.633,347.07Z" transform="translate(-321.707 -341.416)"/></g><path class="f" d="M330.148,391.423c12.493.145,25.007-.7,37.477.105a5.072,5.072,0,0,0,2.047-.143,4.823,4.823,0,0,0,1.444-.954c3-2.556,6.29-5.083,8.674-8.23s2.642-3.969,2.8-5.819a2.6,2.6,0,0,0-1.672-3,4.776,4.776,0,0,0-2.515.085c-3.084,1.534-4.812,3.783-7.149,8.431a11.211,11.211,0,0,0-.7-12.167c-.736-.971-1.85-1.888-3.046-1.648a3.552,3.552,0,0,0-2.1,1.869A19.449,19.449,0,0,0,362.621,380a24.571,24.571,0,0,0-.634-9.819,11.141,11.141,0,0,0-2.888-5.354,5.4,5.4,0,0,0-5.686-1.234c-1.917.861-2.914,3.046-3.148,5.134s.13,4.2.1,6.3a15.756,15.756,0,0,0-3.534-7.6,5.994,5.994,0,0,0-2.193-1.758,2.709,2.709,0,0,0-2.689.263,3.606,3.606,0,0,0-1.073,2.249,12.608,12.608,0,0,0,1.424,8.29,29.321,29.321,0,0,0-5.25-6.906,9.886,9.886,0,0,0-7.982-2.683,3.382,3.382,0,0,0-2.182,1.142,3.466,3.466,0,0,0-.55,2.111,10.82,10.82,0,0,0,2.553,6.53,27.343,27.343,0,0,0,5.29,4.772,13.1,13.1,0,0,0-5.352-2.84c-3.1-.991-6.877-1.511-9.277.685a3.539,3.539,0,0,0-1.147,3.7,4.42,4.42,0,0,0,1.086,1.5,14.923,14.923,0,0,0,5.03,3.282,4.713,4.713,0,0,0-1.866-.233,1.59,1.59,0,0,0-1.37,1.132c-.182.9.7,1.646,1.543,2.017C324.789,391.548,328.975,391.408,330.148,391.423Z" transform="translate(-318.23 -330.687)"/></g></g><g transform="translate(630.243 176.026)"><path class="b" d="M529.222,152.07a5.491,5.491,0,0,1,5.668,5.666v12.6A5.646,5.646,0,0,1,529.222,176H519.61a4.405,4.405,0,0,0-2.734,1.143l-6.247,6.328c-.624.631-1.265.437-1.431-.434l-1.048-5.461A1.882,1.882,0,0,0,506.489,176h-1.359a5.446,5.446,0,0,1-5.668-5.673v-12.6a5.39,5.39,0,0,1,5.668-5.666Z" transform="translate(-499.463 -152.07)"/><g transform="translate(3.749 7.993)"><path class="c" d="M505.686,157.076l.954,1.932a.247.247,0,0,0,.189.138l2.132.31a.251.251,0,0,1,.14.429l-1.543,1.5a.25.25,0,0,0-.072.223l.363,2.124a.251.251,0,0,1-.365.264l-1.907-1a.254.254,0,0,0-.233,0l-1.907,1a.252.252,0,0,1-.365-.264l.365-2.124a.255.255,0,0,0-.072-.223l-1.544-1.5a.252.252,0,0,1,.14-.429l2.132-.31a.251.251,0,0,0,.19-.138l.953-1.932A.251.251,0,0,1,505.686,157.076Z" transform="translate(-501.745 -156.935)"/><g transform="translate(10.458)"><path class="c" d="M512.052,157.076l.954,1.932a.246.246,0,0,0,.189.138l2.132.31a.251.251,0,0,1,.14.429l-1.543,1.5a.251.251,0,0,0-.072.223l.363,2.124a.251.251,0,0,1-.365.264l-1.907-1a.254.254,0,0,0-.233,0l-1.907,1a.252.252,0,0,1-.365-.264l.365-2.124a.255.255,0,0,0-.072-.223l-1.544-1.5a.252.252,0,0,1,.14-.429l2.132-.31a.246.246,0,0,0,.189-.138l.954-1.932A.251.251,0,0,1,512.052,157.076Z" transform="translate(-508.111 -156.935)"/></g><g transform="translate(20.916)"><path class="c" d="M518.418,157.076l.954,1.932a.246.246,0,0,0,.189.138l2.132.31a.251.251,0,0,1,.14.429l-1.544,1.5a.249.249,0,0,0-.071.223l.363,2.124a.251.251,0,0,1-.365.264l-1.907-1a.254.254,0,0,0-.233,0l-1.907,1a.252.252,0,0,1-.365-.264l.365-2.124a.255.255,0,0,0-.072-.223l-1.544-1.5a.252.252,0,0,1,.14-.429l2.132-.31a.246.246,0,0,0,.189-.138l.954-1.932A.251.251,0,0,1,518.418,157.076Z" transform="translate(-514.477 -156.935)"/></g></g></g><g transform="translate(459.575 197.425)"><ellipse class="i" cx="91.412" cy="20.53" rx="91.412" ry="20.53" transform="translate(32.664 329.608)"/><path class="j" d="M605.642,362.339a113.347,113.347,0,0,0,32.815-79.794C638.368,217.353,583.032,165.1,516.522,165.1,451.245,165.1,404.088,213.747,396.61,266c-4.662,34.839,6.6,68.8,30,94.486a119.554,119.554,0,0,1,31.847,81.642l0,2.816H575.636l0-2.816C575.641,410.989,585.935,382.484,605.642,362.339Z" transform="translate(-395.574 -165.096)"/><path class="k" d="M433.132,323.413s22.664,7.215,59.742,7.215,59.676-7.215,59.676-7.215-3.468,71.413-3.672,76.738c-.256,6.673-33.764,15.048-52.151,15.048-27.449,0-59.752-7.963-60.683-14S433.132,323.413,433.132,323.413Z" transform="translate(-371.432 -63.33)"/><g transform="translate(40.133 97.838)"><path class="c" d="M527.923,372.682c-.049,0-.1,0-.154,0a2.47,2.47,0,0,1-2.313-2.619l3.632-58.939a2.406,2.406,0,0,1,.118-.618c1.086-3.315,5.947-18.054,11.769-34.241-.287,0-.562,0-.835,0-11.15-.041-21.31-3.908-25.881-9.85-3.813-4.955-5.291-10.115-6.479-14.258-1.6-5.594-2.374-7.47-5.231-7.78h-2.541c-2.855.311-3.629,2.187-5.232,7.78-1.186,4.143-2.665,9.3-6.478,14.258-4.57,5.942-14.728,9.809-25.879,9.85-.276,0-.557,0-.835,0,5.824,16.187,10.683,30.926,11.769,34.241a2.474,2.474,0,0,1,.118.618l3.632,58.939a2.471,2.471,0,0,1-4.933.306l-3.613-58.623c-3.507-10.7-7.917-23.568-12.379-35.864a42.606,42.606,0,0,1-28.355-15.9c-11.026-14.117-9.006-26.684-2.463-32.384,4.693-4.091,10.941-3.888,15.193.491,4.367,4.5,12.245,24.124,19.213,43.173.948.054,1.818.066,2.633.071,9.38-.035,18.419-3.291,21.979-7.92,3.24-4.209,4.518-8.671,5.646-12.608,1.511-5.277,3.075-10.737,9.628-11.348.076-.007.153-.01.23-.01h2.788c.077,0,.153,0,.23.01,6.553.611,8.117,6.072,9.63,11.348,1.129,3.938,2.405,8.4,5.645,12.608,3.562,4.629,12.6,7.885,21.981,7.92.816,0,1.687-.016,2.633-.071C549.757,252.2,557.636,232.58,562,228.079c4.25-4.378,10.5-4.582,15.193-.491,6.543,5.7,8.562,18.268-2.464,32.384a41.9,41.9,0,0,1-28.353,15.907c-4.463,12.295-8.871,25.163-12.38,35.861l-3.612,58.623A2.469,2.469,0,0,1,527.923,372.682Zm41.79-143.075a5.7,5.7,0,0,0-4.161,1.916c-3.368,3.47-10.21,20.05-17.228,39.044a36.743,36.743,0,0,0,22.514-13.635c9.047-11.582,7.955-21.4,3.113-25.618A6.612,6.612,0,0,0,569.712,229.607Zm-136.865,0a6.608,6.608,0,0,0-4.238,1.707c-4.843,4.219-5.934,14.034,3.111,25.618a36.748,36.748,0,0,0,22.515,13.635c-7.016-18.994-13.86-35.576-17.228-39.044A5.707,5.707,0,0,0,432.847,229.607Z" transform="translate(-420.004 -224.652)"/></g><g class="l" transform="translate(68.461 272.031)"><path class="c" d="M437.248,330.686a91.722,91.722,0,0,0,12.9,3.269c4.344.862,8.73,1.495,13.128,1.973a246.476,246.476,0,0,0,26.493,1.375,249.921,249.921,0,0,0,26.5-1.347c4.4-.468,8.787-1.087,13.129-1.952a86.136,86.136,0,0,0,12.88-3.318,45,45,0,0,1-6.185,2.566c-2.109.746-4.255,1.38-6.409,1.993-4.334,1.127-8.733,1.976-13.152,2.691a181.772,181.772,0,0,1-53.517-.038C454.193,336.46,445.347,334.494,437.248,330.686Z" transform="translate(-437.248 -330.686)"/><path class="c" d="M437.248,339.5a91.7,91.7,0,0,0,12.9,3.271c4.344.861,8.73,1.493,13.128,1.971a246.052,246.052,0,0,0,26.493,1.375,249.937,249.937,0,0,0,26.5-1.347c4.4-.468,8.787-1.088,13.129-1.952a86.132,86.132,0,0,0,12.88-3.318,45.217,45.217,0,0,1-6.185,2.568c-2.109.744-4.255,1.378-6.409,1.991-4.334,1.127-8.733,1.976-13.152,2.691a181.625,181.625,0,0,1-53.517-.038C454.193,345.274,445.347,343.308,437.248,339.5Z" transform="translate(-437.248 -325.02)"/><path class="c" d="M437.248,348.315a91.937,91.937,0,0,0,12.9,3.269c4.344.861,8.73,1.493,13.128,1.971a246.044,246.044,0,0,0,26.493,1.375,249.057,249.057,0,0,0,26.5-1.347c4.4-.467,8.787-1.086,13.129-1.952a86.131,86.131,0,0,0,12.88-3.317,45.209,45.209,0,0,1-6.185,2.566c-2.109.744-4.255,1.378-6.409,1.991-4.334,1.127-8.733,1.976-13.152,2.691a181.7,181.7,0,0,1-53.517-.036C454.193,354.089,445.347,352.123,437.248,348.315Z" transform="translate(-437.248 -319.354)"/><path class="c" d="M437.248,357.129a91.916,91.916,0,0,0,12.9,3.269c4.344.863,8.73,1.493,13.128,1.971a246.06,246.06,0,0,0,26.493,1.375,249.041,249.041,0,0,0,26.5-1.347c4.4-.466,8.787-1.086,13.129-1.952a86.131,86.131,0,0,0,12.88-3.317,45.205,45.205,0,0,1-6.185,2.566c-2.109.744-4.255,1.38-6.409,1.991-4.334,1.129-8.733,1.976-13.152,2.691a181.693,181.693,0,0,1-53.517-.036C454.193,362.9,445.347,360.937,437.248,357.129Z" transform="translate(-437.248 -313.688)"/><path class="c" d="M437.248,365.943a91.7,91.7,0,0,0,12.9,3.269c4.344.862,8.73,1.495,13.128,1.971a246.462,246.462,0,0,0,26.493,1.377,249.478,249.478,0,0,0,26.5-1.349c4.4-.467,8.787-1.086,13.129-1.952a86.138,86.138,0,0,0,12.88-3.317,45.209,45.209,0,0,1-6.185,2.566c-2.109.744-4.255,1.38-6.409,1.993-4.334,1.127-8.733,1.976-13.152,2.691a181.776,181.776,0,0,1-53.517-.038C454.193,371.717,445.347,369.751,437.248,365.943Z" transform="translate(-437.248 -308.023)"/></g><ellipse class="m" cx="67.158" cy="69.648" rx="67.158" ry="69.648" transform="translate(91.355 49.648)"/><g transform="translate(46.355 331.474)"><path class="f" d="M530.69,388.961c-9.6-.1-19.2-.956-28.8-.549a3.9,3.9,0,0,1-1.569-.145,3.738,3.738,0,0,1-1.1-.759,43.171,43.171,0,0,1-6.527-6.469c-1.774-2.453-1.961-3.1-2.049-4.519a2,2,0,0,1,1.334-2.274,3.664,3.664,0,0,1,1.932.107c2.344,1.232,3.634,2.99,5.352,6.6a8.615,8.615,0,0,1,.743-9.338,2.576,2.576,0,0,1,2.367-1.216,2.723,2.723,0,0,1,1.58,1.472,14.948,14.948,0,0,1,1.971,7.764,18.864,18.864,0,0,1,.652-7.534,8.556,8.556,0,0,1,2.31-4.066,4.154,4.154,0,0,1,4.389-.853,4.77,4.77,0,0,1,2.331,4c.144,1.608-.169,3.223-.179,4.838a12.109,12.109,0,0,1,2.844-5.779,4.59,4.59,0,0,1,1.713-1.313,2.082,2.082,0,0,1,2.063.246,2.775,2.775,0,0,1,.785,1.746,9.686,9.686,0,0,1-1.234,6.346,22.5,22.5,0,0,1,4.151-5.219,7.6,7.6,0,0,1,6.179-1.927,2.594,2.594,0,0,1,1.657.915,2.663,2.663,0,0,1,.388,1.63,8.309,8.309,0,0,1-2.073,4.976,21.023,21.023,0,0,1-4.145,3.578,10.04,10.04,0,0,1,4.161-2.093c2.4-.708,5.31-1.045,7.117.683a2.713,2.713,0,0,1,.818,2.862,3.376,3.376,0,0,1-.859,1.133,11.442,11.442,0,0,1-3.92,2.438,3.6,3.6,0,0,1,1.437-.148,1.224,1.224,0,0,1,1.035.894c.123.693-.568,1.252-1.221,1.523C534.805,389.147,531.592,388.971,530.69,388.961Z" transform="translate(-380.819 -366.87)"/><path class="f" d="M433.184,390.866c9.683-.1,19.362-.964,29.036-.554a3.947,3.947,0,0,0,1.584-.146,3.752,3.752,0,0,0,1.1-.764,43.512,43.512,0,0,0,6.581-6.524c1.789-2.472,1.979-3.12,2.067-4.557a2.012,2.012,0,0,0-1.345-2.292,3.692,3.692,0,0,0-1.948.108c-2.362,1.24-3.664,3.013-5.395,6.653a8.685,8.685,0,0,0-.749-9.413,2.6,2.6,0,0,0-2.387-1.226,2.744,2.744,0,0,0-1.593,1.483,15.072,15.072,0,0,0-1.988,7.828,18.993,18.993,0,0,0-.657-7.6,8.638,8.638,0,0,0-2.33-4.1,4.187,4.187,0,0,0-4.426-.861,4.814,4.814,0,0,0-2.351,4.033c-.144,1.621.171,3.248.182,4.877a12.218,12.218,0,0,0-2.868-5.827,4.608,4.608,0,0,0-1.728-1.324,2.1,2.1,0,0,0-2.078.248,2.8,2.8,0,0,0-.794,1.761,9.776,9.776,0,0,0,1.244,6.4,22.7,22.7,0,0,0-4.184-5.262,7.663,7.663,0,0,0-6.229-1.943,2.62,2.62,0,0,0-1.671.923,2.683,2.683,0,0,0-.391,1.643,8.374,8.374,0,0,0,2.09,5.017,21.113,21.113,0,0,0,4.179,3.608,10.154,10.154,0,0,0-4.2-2.111c-2.42-.713-5.354-1.053-7.176.69a2.734,2.734,0,0,0-.825,2.885,3.4,3.4,0,0,0,.866,1.143,11.538,11.538,0,0,0,3.953,2.458,3.6,3.6,0,0,0-1.449-.148,1.229,1.229,0,0,0-1.043.9c-.125.7.573,1.265,1.229,1.538C429.035,391.053,432.274,390.874,433.184,390.866Z" transform="translate(-423.791 -365.763)"/></g></g><g transform="translate(503.198 114.802)"><ellipse class="i" cx="40.717" cy="23.345" rx="40.717" ry="23.345" transform="translate(35.929 82.55)"/><g transform="translate(55.628 87.683)"><g transform="translate(15.177 0.672)"><g transform="translate(77.861 58.704)"><path class="n" d="M522.016,210.016c.841-.391,2.063-.509,2.891-.928,1.018-.514,2.262-1.85,2.146-2.84-.337-.641-.6-.7-1.235-.352a11.58,11.58,0,0,1-2.085.92,9.176,9.176,0,0,1-3.251.544,4.568,4.568,0,0,1-2.694-.774c-.9-.67-1.3-2.026-2.394-2.26-.613-.131-2.456,1.846-2.77,2.277.685,1.191,2.027,1.682,2.991,2.617,1.005.976.879,2.259,2.63,2.89C519.719,211.976,520.5,210.721,522.016,210.016Z" transform="translate(-512.624 -204.319)"/><path class="o" d="M522.537,206.273c-.365.123-.8.24-1.24.342a3.453,3.453,0,0,1-.935,1.308,7.734,7.734,0,0,1-5.594,1.8,3.52,3.52,0,0,0,2.052,2.068c1.534-.138,2.344-1.447,3.928-2.182.877-.407,2.149-.531,3.011-.966,1.063-.537,2.359-1.929,2.237-2.96-.352-.669-.629-.734-1.288-.366A12.006,12.006,0,0,1,522.537,206.273Z" transform="translate(-511.246 -203.822)"/></g><path class="o" d="M538.862,213.044q-5.212-8.467-10.979-16.577a23.447,23.447,0,0,0-7.636-7.1c-1.129-.585-2.231-1.224-3.35-1.824q-3.6-1.925-7.236-3.757c-4.878-2.461-9.808-4.813-14.767-7.1-5.278-2.436-10.588-4.8-15.907-7.146-1.369-.6-2.87-1.214-4.319-.843-1.922.493-3,2.486-3.8,4.3-1.584,3.578-4.414,4.071-5.636,7.788,7.4,7.938,20.284,12.958,31.423,15.16,5.778,1.14,12.467,3.13,17.906,3.93.749,4.112,3.277,7.92,6.021,11.2,2.29,2.732,17.775,17.455,24.34,20.213l.585-.133a8.97,8.97,0,0,0,2.417-1.856C547.65,225.294,540.326,215.423,538.862,213.044Z" transform="translate(-465.229 -168.585)"/></g><g transform="translate(55.178 85.894)"><path class="n" d="M497.26,228.113c.923-.084,2.113.218,3.034.105,1.134-.14,2.755-.974,2.982-1.945-.1-.718-.33-.867-1.045-.751a11.512,11.512,0,0,1-2.272.161,9.217,9.217,0,0,1-3.245-.588,4.584,4.584,0,0,1-2.272-1.641c-.616-.933-.539-2.348-1.488-2.937-.531-.332-2.936.907-3.376,1.206.24,1.352,1.337,2.269,1.929,3.475.616,1.258.062,2.423,1.5,3.609C494.436,229.181,495.591,228.263,497.26,228.113Z" transform="translate(-489.578 -220.461)"/><path class="k" d="M499.329,223.731c-.386-.008-.83-.043-1.285-.1a3.447,3.447,0,0,1-1.321.913,7.736,7.736,0,0,1-5.873-.2,3.524,3.524,0,0,0,1.23,2.642c1.492.389,2.7-.568,4.434-.724.964-.085,2.2.23,3.162.112,1.181-.146,2.872-1.017,3.107-2.029-.105-.747-.343-.9-1.088-.78A11.884,11.884,0,0,1,499.329,223.731Z" transform="translate(-488.76 -218.49)"/></g><path class="k" d="M512.786,238.347q-2.038-9.731-4.718-19.314A17.335,17.335,0,0,0,505.492,213c-.046-.059-.1-.112-.148-.171a3.113,3.113,0,0,0-.567-1.111c-8.091-9.785-17.062-19.2-26.076-28.3.081-.02.159-.048.24-.064a2.283,2.283,0,0,1-.639-2.077c1.552-4.656,4.509-9.182,5.1-12.733-3,1.712-5.51,1.751-10.015,1.556-5.337-.23-10.479-.394-15.561-1.922-7.808,19.063,11.178,36.938,21.159,42.125,4.122,2.142,10.327,5.291,15.317,7.793-.565,4.018.518,8.316,1.947,12.209,1.229,3.345,10.815,22.441,16.058,27.257l.6.074a8.933,8.933,0,0,0,2.9-.928C516.908,252.849,513.36,241.08,512.786,238.347Z" transform="translate(-455.99 -168.176)"/></g><path class="n" d="M508.368,117.156a2.975,2.975,0,0,0,1.314-2.354c-1.712,1.124-4.253,2.06-5.135,3.908-.555,1.163-.718,2.477-1.184,3.675a26.967,26.967,0,0,0-3.033,3.93c-2.348,3.655-7.094,8.262-10.46,17.079a8.162,8.162,0,0,0-.48,2.032c-1.015.613-1.986,1.311-2.844,1.842-5.265,3.263-9.474,6.632-14.549,9.318-3.31,1.751-6.857,3.754-8.319,7.2,1.98,2.464,5.484,2.939,8.633,3.207q3.359.286,6.722.532a3.57,3.57,0,0,0,1.745-.164,5.506,5.506,0,0,0,1.132-.973c7.164-6.065,9.15-9.085,13.555-17.052A15.943,15.943,0,0,0,499,144.432c2.86-5.365,3.622-9.062,5.641-15.48a28.328,28.328,0,0,0,.8-3.5,11.387,11.387,0,0,1,3.767-5.536c1.557-1.1,3.486-1.551,5.129-2.52C514.668,115.351,510.182,116.088,508.368,117.156Z" transform="translate(-395.42 -114.802)"/><path class="n" d="M475.785,149.917c-5.7-.708-10.829-2.362-16.909-3.54-.991-.192-2.147-.5-3.314-.71a8.089,8.089,0,0,0-1.17-1.73c-6.28-7.046-12.354-9.665-15.846-12.247a31.536,31.536,0,0,0-3.481-2.224l-.008-.007c-1.058-1-2.219-2.091-3.272-3.1-1.482-1.414-4.072-1.669-6.072-2.113a2.975,2.975,0,0,0,2.065,1.735c-2.075-.355-6.53.552-5.5,2.348,1.881.322,3.843.056,5.691.532a10.944,10.944,0,0,1,5.167,3.479,11.975,11.975,0,0,0,.846,1.74c3.2,5.567,7.664,10.067,12.244,14.066a15.915,15.915,0,0,0,5.045,3.33c6.947,5.883,9.878,8,18.728,11.122a5.505,5.505,0,0,0,1.4.508,3.564,3.564,0,0,0,1.689-.467q3.056-1.424,6.095-2.886c2.849-1.368,5.955-3.059,6.929-6.065C483.529,150.99,479.5,150.379,475.785,149.917Z" transform="translate(-422.128 -108.728)"/><path class="b" d="M492.355,153.9c2.293-1.474,7.769-5.433,7.769-5.433l-.923-1.027a47.929,47.929,0,0,1-3.359-6.79c-1.2-3.23-1.577-4.733-1.577-4.733s-11.96,3.4-12.745,3.511a26.321,26.321,0,0,0-4.662,2.361c-3.857-.739-8.285-.989-11.836,0a13.727,13.727,0,0,0-2.377-.611c-.794.018-13.152-1.321-13.152-1.321s-.117,1.546-.761,4.93a48,48,0,0,1-2.172,7.258l-.737,1.166s6.18,2.108,8.689,3.176c2.139.908,3.32,1.666,5.114,2.431.734,3.184,1.631,6.292,2.119,8.753.131.665.291,1.326.425,1.989l.046.343s.038,15.04-.835,17.755,4.808,6.095,16.324,7.085,14.163-5.723,14.163-5.723a165.394,165.394,0,0,1-1.889-23.17l0,0a57.368,57.368,0,0,0-.435-8.482A9.1,9.1,0,0,1,492.355,153.9Z" transform="translate(-406.899 -101.232)"/><g transform="translate(53.096 7.184)"><path class="n" d="M476.833,137.421a.669.669,0,0,0-.126-.352q-.687-1.153-1.373-2.3c-.122-.2-.245-.416-.375-.621a20.726,20.726,0,0,0-1.227-4.756,9.974,9.974,0,0,0-5.74-5.878,8.6,8.6,0,0,0-8.51,2.27,11.878,11.878,0,0,0-3.218,8.436A11.566,11.566,0,0,0,460.03,143c.923.777,1.993,1.373,2.87,2.2s.853,2.111.7,3.307c-.082.647-1.6,1.531-1.613,2.183-.051,3.828,11.555,4.192,9.688.309-.741-1.544-1.81-2.438-1.73-4.409.153-3.751,2.913-1.46,4.845-2.67,1.035-.649,1.032-2.132.907-3.348q-.109-1.042-.215-2.083a2.634,2.634,0,0,0,1.191-.738A.561.561,0,0,0,476.833,137.421Z" transform="translate(-453.283 -116.62)"/><path class="o" d="M462.464,138.389c-.821-1.594-1.254-4.516-.544-6.17a5.307,5.307,0,0,1,3.631-2.923,10.021,10.021,0,0,1,4.667.151c1.782.409,3.617,1.053,5.388.585,1.878-.5,3.381-3.647,3.535-5.707a4.954,4.954,0,0,0-2.891-4.881,4.3,4.3,0,0,0-5.117,1.771,3.491,3.491,0,0,0-5.25-1.161c-1,.866-1.5,2.274-2.528,3.1-1.424,1.132-3.465.853-5.033,1.741-1.258.715-2.612,3.044-3.136,4.459-2.073,5.607.44,13.865,4.971,17.461,1.342,1.066,3.158,1.856,4.654,1.065.813-.6.463-2.04-.31-2.693a24.583,24.583,0,0,0-2.642-1.406c-.84-.55-1.487-1.777-.918-2.637a1.8,1.8,0,0,1,2.362-.274c.738.4,1.345,1.01,2.114,1.344A23.92,23.92,0,0,1,462.464,138.389Z" transform="translate(-454.449 -119.175)"/></g></g><g transform="translate(618.061 395.338)"><ellipse class="i" cx="37.66" cy="8.458" rx="37.66" ry="8.458" transform="translate(85.281 174.652)"/><g transform="translate(0 0)"><g transform="translate(17.866 72.55)"><path class="o" d="M534.118,330.8c-2.7-1.873-5.783-1.226-7.721,1.572a5.913,5.913,0,0,0-.713,5.39l-1.814-1.181c-.775-.537-2.04-.613-2.5.056l-9.225,13.308c-.463.669.051,1.827.826,2.364l4.206,3.136-11.794,3.524c-.634-.992-1.326-1.534-1.858-1.336-.766.286-.8,2.053-.1,3.928s1.9,3.172,2.663,2.886c.585-.219.751-1.295.485-2.628l18.071-.8,4.685,3.521a1.47,1.47,0,0,0,2.121-.32L541.512,349.7a1.47,1.47,0,0,0-.442-2.1l-2.6-1.659a22.864,22.864,0,0,1-.663-6C537.7,336.481,537.638,333.235,534.118,330.8Zm2.453,13.938-7.977-5.111c-1.1-1.416-2.443-3.91-.8-6.284,1.423-2.052,3.435-2.469,5.385-1.117,2.814,1.95,2.893,4.542,2.991,7.825A32.021,32.021,0,0,0,536.571,344.733Z" transform="translate(-502.923 -329.732)"/></g><g transform="translate(50.152)"><g transform="translate(0 30.179)"><g transform="translate(0 11.957)"><path class="n" d="M534.9,333.485c-2.527.866-5.025,1.378-7.695.261-1.759-.738-3.751-1.227-4.544.685-.432,1.947.757,1.29,2.7,2.091.542.54-2.538,1.547-2.086,2.812,2.609-.583,3.394-1.058,5.4-1.469,1.426-.291,2.7-1.124,4.125-1.408,2.2-.439,4.431.476,6.67.683a10.735,10.735,0,0,0,6.667-1.6c3.207-2.024-.8-4.33-3.006-4.427C540.441,331,537.384,332.634,534.9,333.485Z" transform="translate(-522.576 -298.431)"/><path class="o" d="M570.019,324.876q-1.19-3.154-2.42-6.294c-1.151-2.944-2.6-6.167-5.53-7.365-2.89,2.382-3.8,6.351-4.539,10.023-1.133,5.628-3.167,10.621-4.8,16.6-.2.723-.465,1.534-.713,2.372-.1,0-.2,0-.3,0-9.408.752-15.163,4.015-19.331,5.241-2.047.6-5.006,1.347-5.088,1.807a2.775,2.775,0,0,0,1.329,2.5,8.529,8.529,0,0,0,2.918.772c6.367.812,12.651-.033,18.6-1.27,2.445-.509,4.984-1.148,6.509-2.668a3.669,3.669,0,0,0,.583-.79c6.392-6.494,8.723-9.255,12.5-17.851a5.458,5.458,0,0,0,.61-1.364A3.564,3.564,0,0,0,570.019,324.876Z" transform="translate(-519.551 -311.218)"/></g><path class="k" d="M547.877,316.4c-.917,1.2-.764,5.421-.777,6.928-.03,3.754.427,6.165,2.29,8.722,6.228,8.543,15.24,15.147,19.627,24.767a6.734,6.734,0,0,0,2.083,3.077,5.855,5.855,0,0,0,3.254.642c3.039-.013,6.315-.274,8.646-2.224,3.964-3.315,3.225-9.512,2-14.532q-2.279-9.359-5.157-18.559c-1.689-5.4-3.11-14.688-6.936-18.95C566.362,298.982,551.792,311.288,547.877,316.4Z" transform="translate(-506.814 -303.888)"/><g transform="translate(60.228)"><path class="n" d="M598.6,316.073c2.6.591,5.426.936,7.87-.141,1.746-.769,3.121-2.191,4.8-3.1,1.769,1.166-1.015,4.237-2.863,5.244a2.969,2.969,0,0,1,2.694.084c-1.845.889-3.806,1.8-5.847,1.607-1.447-.138-2.8-.828-4.25-.958-2.239-.2-4.357.946-6.56,1.391a10.733,10.733,0,0,1-6.8-.876c-3.4-1.671.329-4.391,2.517-4.723C592.829,314.194,596.044,315.493,598.6,316.073Z" transform="translate(-541.86 -298.225)"/><path class="k" d="M620.769,322.731c-.131-.448-3.286-1.319-5.385-1.7-4.275-.772-10.345-3.4-19.779-3.143a7.882,7.882,0,0,0-2.987.682,37.263,37.263,0,0,0-4.457-2.484c-5.443-2.957-10.453-4.943-15.3-8.022-3.161-2.008-11.163-5.574-13.428-3.494-1.16,2.939,3.213,6.055,4.541,8.924q1.417,3.061,2.87,6.1a3.586,3.586,0,0,0,1.005,1.434,5.546,5.546,0,0,0,1.406.5c9.009,3.289,12.564,3.458,22.115,3.32.041,0,.074-.02.113-.023,1.679,1.285,4.211,1.651,6.648,1.891,6.052.595,12.388.762,18.634-.726a8.5,8.5,0,0,0,2.817-1.081A2.223,2.223,0,0,0,620.769,322.731Z" transform="translate(-559.238 -303.939)"/></g></g><g transform="translate(58.914 66.893)"><g transform="translate(2.918 10.965)"><path class="n" d="M577.81,332.978c-3.908-.194-7.511,1.454-11.419,1.648-1.981.1-4.229.388-5.378,2-.867,1.219-.838,2.84-.764,4.334.769,15.745,3.946,47.447,3.92,47.2-.071-.631-.064.4.1,1.656a22.35,22.35,0,0,0-.094,5.04c.407,6.617,1.311,12.682,2.157,19.257.353,2.75,1.994,12.97,2.878,18.739a2.967,2.967,0,0,1-.074.542,4.578,4.578,0,0,1-1.61,2.3,9.178,9.178,0,0,1-2.87,1.621,11.648,11.648,0,0,1-2.2.595c-.715.123-.882.34-.741,1.05.532.843,2.338,1.1,3.455.861.907-.2,1.93-.872,2.83-1.1,1.625-.406,3.019.082,4.248-.741.966-1.592.061-2.51.23-3.9a9.011,9.011,0,0,1,.335-1.437c3.371-6.272,6.157-27.453,6.219-31.016.09-5.134-.539-10.67-3.775-14.585,1.58-5.627,3.808-13.76,5.171-18.943C583.321,357.117,582.562,342.735,577.81,332.978Z" transform="translate(-560.214 -332.962)"/><path class="b" d="M564.033,397.394c.361-.135.769-.314,1.18-.514a3.48,3.48,0,0,0,1.549.429,7.745,7.745,0,0,0,5.482-2.118,3.529,3.529,0,0,1-.3,2.9c-1.281.856-2.734.348-4.427.77-.938.235-2,.94-2.949,1.143-1.165.25-3.046-.018-3.6-.9-.146-.741.028-.968.772-1.1A11.933,11.933,0,0,0,564.033,397.394Z" transform="translate(-559.759 -292.962)"/></g><g transform="translate(14.644 2.011)"><path class="n" d="M628.7,327.611c-.927.038-2.05.531-2.975.6-1.671.123-2.96-.595-4.312.008-1.222,1.4-.486,2.464-.889,3.806a7.131,7.131,0,0,1-.409,1.017c-.011.018-1.439,2.786-1.441,2.786a111.946,111.946,0,0,0-7.729,18.912,44.723,44.723,0,0,0-1.239,6.647c-2.025-2.867-4.028-5.681-5.592-7.851-6.642-9.211-18.227-17.768-28.779-20.305-2.635,2.895-3.654,6.722-5.99,9.862-1.183,1.592-2.387,3.511-1.871,5.426.389,1.446,1.659,2.451,2.859,3.346,12.538,9.352,25.554,18.869,38.926,26.983a32.6,32.6,0,0,0,4.193,2.187,2.613,2.613,0,0,0,1.828.907,6.125,6.125,0,0,0,5.213-3.486,17.341,17.341,0,0,0,1.559-6.369q1.079-9.884,1.5-19.827c.118-2.773-.176-11.37-.016-18.472a2.809,2.809,0,0,1,.164-.522,4.577,4.577,0,0,1,1.976-1.989,9.153,9.153,0,0,1,3.1-1.109,11.456,11.456,0,0,1,2.269-.214c.724,0,.925-.186.909-.91C631.579,328.124,629.842,327.563,628.7,327.611Z" transform="translate(-567.352 -327.451)"/><path class="b" d="M608.172,330.18a12.745,12.745,0,0,0-1.25.307,3.442,3.442,0,0,0-1.454-.687,7.746,7.746,0,0,0-5.761,1.155,3.521,3.521,0,0,1,.784-2.806c1.408-.626,2.753.122,4.493-.008.964-.072,2.136-.585,3.1-.626,1.188-.049,3,.536,3.4,1.495.018.754-.192.946-.946.948A11.839,11.839,0,0,0,608.172,330.18Z" transform="translate(-546.558 -327.512)"/></g><path class="j" d="M558.438,336.825s8.033-.687,12.216-4.247a45.929,45.929,0,0,0,6.266-6.29,19.669,19.669,0,0,0,8.124,6.282A84.733,84.733,0,0,1,602.9,342.1a78.933,78.933,0,0,1,9.246,7.606s-2.558,12.466-10.118,17.928c-13.977,10.1-17.1,1.8-28.943,7.948a108.978,108.978,0,0,1-13.136,5.612s-.721-4.237-.7-19.474S559.714,342.8,558.438,336.825Z" transform="translate(-558.438 -326.288)"/></g><g transform="translate(29.661)"><path class="p" d="M545.67,290.934c.928-2.246,4.206-4.539,6.578-5.068a10.075,10.075,0,0,1,4.322-.112,10.591,10.591,0,0,1,5.137,3.11c1.17,1.193,2.293,3,3.706,3.893,1.952,1.232,2.941,1.759,4.986,1.715a26.9,26.9,0,0,1,6.12.158,6.114,6.114,0,0,1,4.667,3.562,6.739,6.739,0,0,1-.725,5.178c-.544,1.071-1.243,2.239-.9,3.387.4,1.321,1.927,1.851,3.082,2.609a6.471,6.471,0,0,1,2.752,4.028,4.421,4.421,0,0,1-.09,2.372,5.861,5.861,0,0,1-2.458,2.693,6.217,6.217,0,0,1-4.363,1.36c-2.178-.381-3.542-2.793-3.442-5,.043-.938.288-1.86.309-2.8a3.079,3.079,0,0,0-.969-2.535,3.169,3.169,0,0,0-2.538-.414c-.867.164-1.7.5-2.578.606a5.221,5.221,0,0,1-4.554-1.776c-1.855-2.193-1.575-5.456-2.693-8.1a2.22,2.22,0,0,0-.647-.946c-.762-.568-1.83-.141-2.692.26a9.936,9.936,0,0,1-9.847-.649C546.34,297.019,544.5,293.765,545.67,290.934Z" transform="translate(-537.624 -285.569)"/><path class="n" d="M564.293,315.19c-.383-.529-2.136-.376-2.576-.858-.813-.89-1.574-1.925-1.332-3.107s.772-2.285,1.079-3.452a11.569,11.569,0,0,0-1.98-9.354,11.881,11.881,0,0,0-7.489-5.045,8.6,8.6,0,0,0-8.263,3.044,9.967,9.967,0,0,0-1.308,8.11,20.657,20.657,0,0,0,1.733,4.595c.011.243.034.486.053.723l.2,2.674a.664.664,0,0,0,.1.361.559.559,0,0,0,.325.181,2.619,2.619,0,0,0,1.4-.082q.513.914,1.023,1.827c.6,1.066,1.449,2.282,2.67,2.214,2.275-.122,3.213-3.583,5.5-.6,1.2,1.564.843,2.911,1.124,4.6C557.26,325.269,566.537,318.289,564.293,315.19Z" transform="translate(-539.681 -280.634)"/><path class="b" d="M543.708,309.494a6.714,6.714,0,0,1-2.546-3.1,8.789,8.789,0,0,1-.365-4.762c.282-2.788,1.707-4.743,3.7-6.708,2.407-2.366,6.456-3.271,9.826-3.084a14.456,14.456,0,0,1,4.689,1.226c2.517,1.1,5.393,4,5.914,5.832a13.459,13.459,0,0,1-.366,9.819,7.835,7.835,0,0,1-3.228,3.425c-1.5-1-1.454-1.189-3.015-2.335-.447-.329-.936-.537-.963-1.091.67-1.032,1.345-.24,1.548-2.053a5.032,5.032,0,0,0-.877-3.427c-.631-.647-1.664-1.043-2.257-.361-1.158,1.331-.471,2.783-1.444,4.255,0-1.3-1.352-2.464-3.072-3.245a6.4,6.4,0,0,0-4.7-.46A11.706,11.706,0,0,1,543.708,309.494Z" transform="translate(-540.631 -281.552)"/></g></g><g transform="translate(0 105.972)"><g transform="translate(5.666)"><path class="c" d="M496.228,350.636l1.576.516a.192.192,0,0,0,.177-.031l1.316-1.005a.193.193,0,0,1,.311.154l0,1.656a.191.191,0,0,0,.082.159l1.363.941a.194.194,0,0,1-.049.343l-1.577.509a.194.194,0,0,0-.126.128l-.473,1.589a.193.193,0,0,1-.342.057l-.973-1.342a.191.191,0,0,0-.161-.079l-1.656.039a.194.194,0,0,1-.161-.307l.976-1.339a.191.191,0,0,0,.026-.177l-.549-1.564A.193.193,0,0,1,496.228,350.636Z" transform="translate(-495.496 -350.076)"/></g><g transform="translate(0.026 12.995)"><path class="c" d="M492.8,358.548l1.574.514a.2.2,0,0,0,.177-.03l1.318-1.005a.193.193,0,0,1,.31.153l0,1.658a.2.2,0,0,0,.084.159l1.364.941a.194.194,0,0,1-.051.343l-1.577.509a.188.188,0,0,0-.125.128l-.475,1.587a.193.193,0,0,1-.342.057l-.971-1.341a.193.193,0,0,0-.161-.081l-1.656.039a.193.193,0,0,1-.161-.307l.976-1.339a.19.19,0,0,0,.026-.177l-.55-1.562A.194.194,0,0,1,492.8,358.548Z" transform="translate(-492.064 -357.986)"/></g><g transform="translate(13.812 7.059)"><path class="c" d="M500.527,357.442l1.288-1.043a.2.2,0,0,0,.071-.166l-.13-1.651a.193.193,0,0,1,.3-.177l1.39.9a.193.193,0,0,0,.179.016l1.531-.634a.194.194,0,0,1,.261.228l-.429,1.6a.191.191,0,0,0,.039.174l1.076,1.26a.193.193,0,0,1-.136.319l-1.654.087a.192.192,0,0,0-.155.092l-.867,1.413a.193.193,0,0,1-.345-.031l-.593-1.548a.194.194,0,0,0-.136-.118l-1.61-.388A.192.192,0,0,1,500.527,357.442Z" transform="translate(-500.455 -354.373)"/></g><g transform="translate(22.126 14.21)"><path class="c" d="M505.588,361.793l1.286-1.042a.2.2,0,0,0,.072-.166l-.13-1.651a.192.192,0,0,1,.3-.177l1.39.9a.2.2,0,0,0,.179.016l1.531-.634a.193.193,0,0,1,.26.228l-.427,1.6a.194.194,0,0,0,.039.176l1.074,1.26a.193.193,0,0,1-.136.319l-1.654.087a.191.191,0,0,0-.154.092l-.866,1.413a.193.193,0,0,1-.345-.033l-.595-1.546a.2.2,0,0,0-.135-.118l-1.612-.388A.194.194,0,0,1,505.588,361.793Z" transform="translate(-505.516 -358.726)"/></g><g transform="translate(0 24.442)"><path class="c" d="M492.119,368.021l1.288-1.043a.192.192,0,0,0,.071-.164l-.13-1.653a.194.194,0,0,1,.3-.176l1.39.9a.2.2,0,0,0,.179.016l1.529-.634a.193.193,0,0,1,.261.228l-.429,1.6a.194.194,0,0,0,.039.176l1.076,1.26a.194.194,0,0,1-.136.319l-1.654.087a.192.192,0,0,0-.154.092l-.866,1.413a.193.193,0,0,1-.345-.033l-.595-1.546a.2.2,0,0,0-.135-.118l-1.612-.388A.194.194,0,0,1,492.119,368.021Z" transform="translate(-492.048 -364.954)"/></g><g transform="translate(11.952 17.08)"><path class="c" d="M499.451,362.909l1.559-.558a.191.191,0,0,0,.122-.133l.424-1.6a.193.193,0,0,1,.34-.067l1.014,1.309a.193.193,0,0,0,.163.076l1.654-.092a.193.193,0,0,1,.171.3l-.933,1.368a.193.193,0,0,0-.021.179l.6,1.544a.2.2,0,0,1-.235.256l-1.59-.465a.193.193,0,0,0-.176.034l-1.285,1.047a.193.193,0,0,1-.315-.143l-.049-1.656a.193.193,0,0,0-.089-.158l-1.391-.9A.192.192,0,0,1,499.451,362.909Z" transform="translate(-499.323 -360.473)"/></g></g></g></g><g transform="translate(381.22 345.127)"><ellipse class="i" cx="46.107" cy="10.355" rx="46.107" ry="10.355" transform="translate(16.876 212.611)"/><path class="q" d="M506.7,273.337a1.969,1.969,0,0,0-2.615.963l-4.835,10.456H457.615l4.9-10.591a1.97,1.97,0,1,0-3.576-1.653l-54.85,118.635a1.941,1.941,0,0,0-.614,1.326l-34.4,74.409a1.971,1.971,0,0,0,3.578,1.654l4.841-10.473h41.635l-5.2,11.248a1.97,1.97,0,1,0,3.576,1.653l90.167-195.012A1.971,1.971,0,0,0,506.7,273.337Zm-9.274,15.36-7.966,17.228H447.827l7.964-17.228Zm-17.754,38.4H438.039L446,309.868H487.64Zm-9.789,21.171H428.25l7.966-17.228h41.635ZM460.1,369.439H418.462l7.966-17.23h41.635Zm-9.788,21.169H408.674l7.964-17.228h41.635Zm-9.789,21.171H398.885l7.966-17.23h41.635Zm-9.788,21.171H389.1l7.966-17.23H438.7ZM379.309,454.12l7.966-17.228h41.633l-7.966,17.228Z" transform="translate(-334.376 -244.486)"/><g transform="translate(0 0)"><path class="o" d="M411.337,258.989a12.285,12.285,0,0,0-6.933-3.481,17.23,17.23,0,0,0-15.409,4.973,16.288,16.288,0,0,0-3.54,16.234,3.879,3.879,0,0,1,.4,1.9,2.854,2.854,0,0,1-.636,1.273c-2.233,2.867-6,3.82-8.677,6.231a12.581,12.581,0,0,0-3.9,9.131,15.556,15.556,0,0,0,3.233,9.433c1.649,2.172,3.962,4.5,3.31,7.225a5.972,5.972,0,0,1-1.564,2.6c-2.1,2.252-4.846,3.711-7.1,5.8s-4.058,5.247-3.281,8.257c.618,2.389,2.709,4.031,4.884,4.966,4.053,1.743,8.618,1.623,13.009,1.219,6.059-.557,12.188-1.636,17.672-4.47s13.616-7.54,15.5-13.645.307-13.489-4.573-17.217c-1.63-1.242-3.718-2.287-4.192-4.352-.332-1.437-.368-5.438,6.151-11.738a5.9,5.9,0,0,0,2.04-4.523c-.291-3.21-4.7-4.789-4.615-8.017.033-1.27.816-2.382.864-3.637a15.779,15.779,0,0,0-.317-2.293A9.538,9.538,0,0,0,411.337,258.989Z" transform="translate(-335.552 -254.851)"/><g transform="translate(70.611 33.035)"><path class="n" d="M422.852,292.748c2.3.981,4.851,1.771,7.287,1.184,1.74-.417,3.248-1.5,4.948-2.062,1.648,1.032-1.644,3.742-3.519,4.362a2.788,2.788,0,0,1,2.472.527c-1.851.513-3.815,1.027-5.664.508-1.314-.37-2.448-1.234-3.764-1.6-2.034-.559-4.178.146-6.287.191a10.075,10.075,0,0,1-6.129-1.945c-2.863-2.109,1.037-4,3.111-3.939C417.838,290.051,420.588,291.786,422.852,292.748Z" transform="translate(-377.797 -265.56)"/><path class="r" d="M435.491,301.505c-3.816-1.428-8.981-4.868-17.732-6.206a7.547,7.547,0,0,0-1.681-.051,33.989,33.989,0,0,0-3.473-3.363c-4.22-3.99-8.286-7-11.94-10.956-2.382-2.581-5.05-5.316-8.526-5.815-1.759,2.387-1.35,5.679-.838,8.6q.547,3.115,1.132,6.225a3.349,3.349,0,0,0,.567,1.541,5.144,5.144,0,0,0,1.155.793c7.375,5.15,10.3,6.938,18.991,9.113h.008a13.941,13.941,0,0,0,5.462,2.49,52.805,52.805,0,0,0,17.32,2.441,8,8,0,0,0,2.781-.527c.851-.375,1.538-1.094,1.459-1.815C440.13,303.538,437.366,302.205,435.491,301.505Z" transform="translate(-390.861 -275.114)"/></g><g transform="translate(53.542 73.546)"><g transform="translate(35.873 87.47)"><path class="n" d="M409.631,360.108c.864-.1,1.986.166,2.847.043,1.061-.151,2.566-.966,2.76-1.881-.108-.67-.325-.807-.994-.683a10.63,10.63,0,0,1-2.127.192,8.588,8.588,0,0,1-3.052-.49,4.3,4.3,0,0,1-2.164-1.5c-.595-.864-.547-2.192-1.449-2.727-.5-.3-2.737.905-3.144,1.193.251,1.265,1.3,2.1,1.873,3.223.6,1.168.105,2.272,1.472,3.358C407,361.163,408.068,360.279,409.631,360.108Z" transform="translate(-402.307 -353.018)"/><path class="s" d="M411.492,356.02a11.979,11.979,0,0,1-1.206-.069,3.237,3.237,0,0,1-1.222.882,7.261,7.261,0,0,1-5.512-.079,3.3,3.3,0,0,0,1.2,2.454c1.406.337,2.517-.583,4.145-.762.9-.1,2.07.174,2.967.046,1.105-.159,2.674-1.007,2.876-1.96-.113-.7-.34-.841-1.037-.713A11.079,11.079,0,0,1,411.492,356.02Z" transform="translate(-401.507 -351.244)"/></g><path class="p" d="M417.544,372.526q-2.094-9.088-4.785-18.025c-1.033-3.427-2.331-6.75-3.161-10.335-1-4.317-2.1-8.612-3.276-12.886-2.346-8.551-4.976-17.019-7.649-25.473-.422-1.339-.118-2.632-.78-5.477-.421-1.814-4.912,1.342-6.686,1.9-3.5,1.1-7.209.825-10.583,2.269-1.005,10.13,3.01,23.029,9.122,31.75,2.886,4.117,7.494,10.548,10.714,14.982-1.572,4.5-.324,9.573,1.426,14.059,1.216,3.115,10.562,20.844,15.569,25.265l.56.057a8.434,8.434,0,0,0,2.706-.925C421.681,386.049,418.133,375.079,417.544,372.526Z" transform="translate(-380.47 -299.774)"/></g><path class="j" d="M407.345,284.056c-.5-1.321-1.745-5.088-2.939-5.842-5.107-3.223-21.931-9.306-25.317-.764-1.98,4.994-.205,13.629.066,18.928q.463,9.024,1.5,18.005c.087.746-1.562,1.428-1.429,2.2,5.632,2.7,13.936,5.313,19.056,1.626a1.653,1.653,0,0,1,.429-.218,3.33,3.33,0,0,1,.662-.506c1.538-8.621,6.387-16.5,8.792-25.01C408.976,289.618,408.592,287.349,407.345,284.056Z" transform="translate(-328.411 -243.381)"/><g transform="translate(0 30.537)"><path class="n" d="M360.319,295.116c-2.1,1.367-4.468,2.589-6.969,2.438-1.787-.11-3.461-.913-5.232-1.168-1.176,1.6,2.272,3.4,4.227,3.68a2.8,2.8,0,0,0-2.344.953c1.912.181,3.936.345,5.666-.49,1.23-.593,2.195-1.641,3.428-2.228,1.9-.905,4.14-.585,6.223-.91a10.07,10.07,0,0,0,5.7-2.983c2.451-2.578-1.718-3.757-3.752-3.337C364.785,291.584,362.38,293.772,360.319,295.116Z" transform="translate(-347.879 -262.411)"/><path class="j" d="M398.713,273.593c-3.415.825-6.138,3.8-8.267,6.6-3.263,4.286-7.025,7.664-10.849,12.037a34.988,34.988,0,0,0-3.113,3.637,7.376,7.376,0,0,0-2.85.371c-8.383,2.844-12.868,7.133-16.377,9.2-1.723,1.019-4.212,2.811-4.183,3.248.049.724.851,1.313,1.753,1.534a7.982,7.982,0,0,0,2.831.033,52.737,52.737,0,0,0,16.628-5.426,19.467,19.467,0,0,0,3.847-2.292l0,0c8.447-2.987,13.011-5.844,19.865-11.669a5.1,5.1,0,0,0,1.074-.9,3.341,3.341,0,0,0,.419-1.587q.286-3.152.537-6.3C400.267,279.118,400.689,275.8,398.713,273.593Z" transform="translate(-344.539 -273.593)"/></g><g transform="translate(0.766 71.715)"><g transform="translate(0 13.858)"><path class="n" d="M353.534,308.858c-.816.3-1.966.314-2.773.641-.994.4-2.261,1.554-2.229,2.489.266.624.509.7,1.129.424a10.849,10.849,0,0,1,2.019-.7,8.622,8.622,0,0,1,3.082-.256,4.309,4.309,0,0,1,2.458.933c.785.7,1.06,2,2.063,2.3.562.171,2.44-1.536,2.765-1.914-.545-1.166-1.763-1.73-2.591-2.679-.864-.991-.647-2.18-2.234-2.906C355.833,307.2,355.009,308.316,353.534,308.858Z" transform="translate(-348.225 -307.031)"/><path class="s" d="M351.626,311.807a11.823,11.823,0,0,1,1.186-.222,3.245,3.245,0,0,1,.976-1.15,7.259,7.259,0,0,1,5.369-1.245,3.3,3.3,0,0,0-1.756-2.095c-1.446.011-2.3,1.171-3.843,1.735-.851.312-2.05.327-2.891.667-1.035.421-2.354,1.62-2.321,2.594.276.651.531.734,1.176.442A11.206,11.206,0,0,1,351.626,311.807Z" transform="translate(-348.345 -307.095)"/></g><path class="b" d="M401.991,300.819c-2.739-.711-5.454-3.149-6.982-1.717-8.03,6.254-14.608,18.056-16.711,28.5-.448,2.226-1,5.045-1.559,7.959-4.046-4.856-14.669-16.369-19.781-19.037l-.559.077a8.408,8.408,0,0,0-2.4,1.547c-.059,3.762,6.018,13.561,7.2,15.9q4.211,8.322,8.97,16.351a16.233,16.233,0,0,0,3.8,4.836,5.742,5.742,0,0,0,5.8.958c1.922-.928,2.686-3.12,3.75-4.815,1.359-2.159,3.039-4.115,4.424-6.289,1.966-3.087,3.785-6.264,5.669-9.4,3.131-5.218,5.733-11.076,9.239-16.032,1.993-2.819,4.419-5.29,6.579-7.974a33.609,33.609,0,0,0,4.855-8.493c.228-.554.987-1.874.631-2.436-.979.4-1.838,1.056-2.853,1.375a8.187,8.187,0,0,1-3.213.338A43.475,43.475,0,0,1,401.991,300.819Z" transform="translate(-344.712 -298.659)"/></g><g transform="translate(55.729)"><path class="n" d="M405.362,272.164a.567.567,0,0,0-.123-.338q-.7-1.109-1.406-2.216a7.485,7.485,0,0,0-.8-1.106c-.223-1.318-.509-2.63-.843-3.944-.774-3.043-1.873-6.147-4.687-7.537a9.552,9.552,0,0,0-9.711,1.163,13.2,13.2,0,0,0-4.858,8.772c-.5,3.618,2.689,3.22,4.534,5.632,1.46,1.914,1.533,4.311,1.043,7.488a7.412,7.412,0,0,1-.388,3.806c-.192.7-1.364,1.372-1.475,2.088-.655,4.2,12.26,7.427,10.6,1.855-.542-1.822-1.608-2.964-1.212-5.117.756-4.1,3.43-1.15,5.743-2.178,1.24-.55,1.469-2.182,1.521-3.539l.127-3.245c0-.145-.01-.286-.007-.429a3.661,3.661,0,0,0,1.738-.83A.567.567,0,0,0,405.362,272.164Z" transform="translate(-381.104 -254.249)"/><path class="o" d="M392.758,263.4a15.581,15.581,0,0,0,8.838,1.41,6.448,6.448,0,0,0,3.113-1.117,3.38,3.38,0,0,0,1.383-3.018,4.31,4.31,0,0,0-2.017-2.694,15.4,15.4,0,0,0-8.774-2.975,12.994,12.994,0,0,0-8.73,3.279,14.77,14.77,0,0,0-4.362,7.767,19.121,19.121,0,0,0,.287,9.011c.631,2.351,1.59,1.746,3.065.434a22.97,22.97,0,0,0,3.192-3.506,23.905,23.905,0,0,0,2.446-4.123C391.376,267.49,393.032,263.533,392.758,263.4Z" transform="translate(-381.802 -255.005)"/></g></g></g></g></svg>