<svg xmlns="http://www.w3.org/2000/svg" xmlns:xlink="http://www.w3.org/1999/xlink" width="897.374" height="472.001" viewBox="0 0 897.374 472.001"><defs><style>.a{fill:url(#a);}.b{fill:url(#b);}.c{fill:url(#c);}.d{fill:url(#d);}.e{fill:url(#e);}.f{fill:url(#g);}.g{fill:none;}.h{fill:url(#h);}.i{fill:url(#i);}.j{fill:url(#j);}.k{fill:url(#k);}.bl,.cq,.l{fill:url(#l);}.ab,.cc,.cm,.cn,.co,.m{fill:url(#m);}.n{fill:url(#n);}.cg,.ck,.o{fill:url(#o);}.bz,.ca,.p{fill:url(#q);}.q{fill:url(#v);}.r{fill:url(#y);}.aa,.s,.v,.z{fill:#fff;}.cc,.s{opacity:0.42;}.t{fill:url(#z);}.u{fill:url(#aa);}.v{opacity:0.68;}.w{fill:url(#ae);}.x{fill:url(#ag);}.y{fill:#bdbcd8;}.z{opacity:0.34;}.aa{opacity:0.22;}.ab{opacity:0.44;}.ac{clip-path:url(#ao);}.ad{clip-path:url(#ar);}.ae{fill:url(#as);}.af{fill:url(#av);}.ag{clip-path:url(#ax);}.ah{fill:url(#ay);}.ai{clip-path:url(#ba);}.aj{fill:url(#bb);}.ak{clip-path:url(#bd);}.al{fill:url(#be);}.am{clip-path:url(#bg);}.an{clip-path:url(#bj);}.ao{fill:url(#bk);}.ap{fill:url(#bl);}.aq{fill:url(#bm);}.ar{fill:url(#bo);}.as{fill:#7ea2da;opacity:0.2;}.at{fill:#e6fafc;}.au{clip-path:url(#bs);}.av{opacity:0.7;fill:url(#bt);}.aw{fill:#f8feff;opacity:0.35;}.ax{fill:url(#bw);}.ay{clip-path:url(#by);}.az,.bh,.bp{opacity:0.39;}.az{fill:url(#bz);}.ba{clip-path:url(#cb);}.bb,.be{opacity:0.27;}.bb{fill:url(#cc);}.bc{fill:url(#cd);}.bd{clip-path:url(#cf);}.be{fill:url(#cg);}.bf{fill:url(#ch);}.bg{clip-path:url(#cj);}.bh{fill:url(#ck);}.bi{fill:url(#cl);}.bj{fill:url(#cm);}.bk{clip-path:url(#co);}.bl{opacity:0.28;}.bm{fill:url(#cs);}.bn{clip-path:url(#cu);}.bo{clip-path:url(#cz);}.bp{fill:url(#da);}.bq{fill:url(#db);}.br{fill:url(#dc);}.bs{fill:url(#dd);}.bt{fill:url(#de);}.bu{clip-path:url(#dh);}.bv{clip-path:url(#dk);}.bw{fill:url(#dl);}.bx{fill:#ebd0bd;opacity:0.32;}.by{clip-path:url(#dn);}.bz{opacity:0.48;}.ca{opacity:0.36;}.cb{clip-path:url(#ds);}.cd{opacity:0.31;fill:url(#du);}.ce{fill:url(#dy);}.cf{clip-path:url(#ea);}.cg,.cn{opacity:0.43;}.ch{clip-path:url(#ed);}.ci{clip-path:url(#eg);}.cj{clip-path:url(#ek);}.ck{opacity:0.58;}.cl{clip-path:url(#en);}.cm{opacity:0.26;}.co{opacity:0.3;}.cp{clip-path:url(#et);}.cq{opacity:0.29;}.cr{fill:url(#ew);}</style><linearGradient id="a" x1="1" y1="0.5" x2="0" y2="0.5" gradientUnits="objectBoundingBox"><stop offset="0.003" stop-color="#70aeab"/><stop offset="1" stop-color="#678ec4"/></linearGradient><linearGradient id="b" x1="10.968" y1="0.5" x2="9.968" y2="0.5" xlink:href="#a"/><linearGradient id="c" x1="3.291" y1="-3.228" x2="1.704" y2="-3.228" xlink:href="#a"/><linearGradient id="d" x1="1.534" y1="1.944" x2="1.422" y2="2.523" xlink:href="#a"/><linearGradient id="e" x1="13.982" y1="1.24" x2="12.971" y2="1.24" xlink:href="#a"/><linearGradient id="g" x1="6.395" y1="-9.433" x2="4.808" y2="-9.433" xlink:href="#a"/><linearGradient id="h" x1="66.306" y1="33.301" x2="67.342" y2="33.301" gradientUnits="objectBoundingBox"><stop offset="0.002" stop-color="#e5b5bb"/><stop offset="1" stop-color="#ebd1bd"/></linearGradient><linearGradient id="i" x1="-13.761" y1="-107.724" x2="-14.256" y2="-108.423" gradientUnits="objectBoundingBox"><stop offset="0.007" stop-color="#ca8194"/><stop offset="1" stop-color="#b7496a"/></linearGradient><linearGradient id="j" x1="67.775" y1="-20.096" x2="67.127" y2="-20.829" xlink:href="#i"/><linearGradient id="k" x1="86.04" y1="-33.403" x2="85.533" y2="-34.132" xlink:href="#h"/><linearGradient id="l" y1="0.5" x2="1" y2="0.5" gradientUnits="objectBoundingBox"><stop offset="0.007" stop-color="#67a1c2"/><stop offset="0.995" stop-color="#3e5b97"/></linearGradient><linearGradient id="m" y1="0.5" x2="1" y2="0.5" gradientUnits="objectBoundingBox"><stop offset="0" stop-color="#d88b2f"/><stop offset="1" stop-color="#e6bd4a"/></linearGradient><linearGradient id="n" x1="77.795" y1="28.45" x2="78.915" y2="28.45" xlink:href="#h"/><linearGradient id="o" x1="0" y1="0.5" x2="1" y2="0.5" xlink:href="#h"/><linearGradient id="q" y1="0.5" x2="1" y2="0.5" gradientUnits="objectBoundingBox"><stop offset="0" stop-color="#3d365f"/><stop offset="0.998" stop-color="#58467f"/></linearGradient><linearGradient id="v" x1="-0.032" y1="0.198" x2="0.966" y2="0.198" xlink:href="#h"/><linearGradient id="y" y1="0.5" x2="1" y2="0.5" gradientUnits="objectBoundingBox"><stop offset="0" stop-color="#dedde9"/><stop offset="0.994" stop-color="#b0bfe8"/></linearGradient><linearGradient id="z" x1="0.079" y1="-0.123" x2="0.899" y2="1.157" xlink:href="#a"/><linearGradient id="aa" x1="0.079" y1="-0.123" x2="0.899" y2="1.157" gradientUnits="objectBoundingBox"><stop offset="0.011" stop-color="#cfa08e"/><stop offset="1" stop-color="#d26a8f"/></linearGradient><linearGradient id="ae" x1="0" y1="0.5" x2="1" y2="0.5" xlink:href="#a"/><linearGradient id="ag" x1="0" y1="0.5" x2="1" y2="0.5" xlink:href="#i"/><clipPath id="ao"><path class="a" d="M623,343.028s56.818-11.7,73.529-28.409,66.846,0,66.846,0-26.738-21.726-48.463-23.4l-18.383,11.7,6.686-11.7s-36.765-23.4-53.476-10.027S614.647,312.947,623,343.028Z" transform="translate(-620.92 -277.07)"/></clipPath><clipPath id="ar"><path class="b" d="M448.727,364.91s-56.819-11.7-73.53-28.409-66.845,0-66.845,0,26.738-21.726,48.463-23.4L375.2,324.8l-6.684-11.7s36.765-23.4,53.476-10.027S457.082,334.829,448.727,364.91Z" transform="translate(-308.352 -298.952)"/></clipPath><linearGradient id="as" x1="13.45" y1="0.5" x2="14.45" y2="0.5" xlink:href="#a"/><linearGradient id="av" x1="0.904" y1="0.605" x2="0.116" y2="0.008" xlink:href="#a"/><clipPath id="ax"><path class="c" d="M637.929,362.473s10.379-40.127,32.6-71.1,26.288-67.384,72.048-88.765c0,0-29.462,4.743-37.586,1.9s-33.429,34.35-39.643,31.266,5.529,12.871,5.529,12.871l-11.6-7.243s-25.45,28.479-21.488,36.7a106.888,106.888,0,0,0,6.361,11.795l-12.186-4.259s-11.159,18.889-9.2,34.157S623.445,347.839,637.929,362.473Z" transform="translate(-622.533 -202.606)"/></clipPath><linearGradient id="ay" x1="1.855" y1="-3.355" x2="3.562" y2="-3.355" xlink:href="#a"/><clipPath id="ba"><path class="d" d="M147.08,390s-19.614-16.822-26.728-34.373-17.975-21.233-19.1-31.7-24.752-14.333-26.4-26.613-20.943-21.343-20.943-21.343,23.885-11.928,34.333,3.66,8.233,28.023,22.432,29.744,31.586,14.287,34.463,34.064S162.8,373.593,147.08,390Z" transform="translate(-53.909 -271.599)"/></clipPath><linearGradient id="bb" x1="1.751" y1="3.129" x2="2.351" y2="3.129" xlink:href="#a"/><clipPath id="bd"><path class="e" d="M151.711,368.412s-24.8-3.95-47.385.894-43.791-1.712-66.744,18.528c0,0,9.767-15.215,10.156-20.414S74.911,357.168,74.7,352.97s5.811,6.186,5.811,6.186L79.3,350.961s21.98-7.242,25.586-3.05A64.83,64.83,0,0,1,109.9,354.3l.584-7.8s13.192-1.627,21.2,3.156S147.089,356.824,151.711,368.412Z" transform="translate(-37.583 -346.234)"/></clipPath><linearGradient id="be" x1="13.815" y1="1.514" x2="14.822" y2="1.514" xlink:href="#a"/><clipPath id="bg"><path class="a" d="M130.077,372.446s37.1-7.638,48.01-18.549,43.643,0,43.643,0-17.458-14.184-31.642-15.275l-12,7.637,4.364-7.637s-24-15.276-34.916-6.547S124.622,352.806,130.077,372.446Z" transform="translate(-128.717 -329.381)"/></clipPath><clipPath id="bj"><path class="f" d="M132.389,389.142s7.485-28.943,23.513-51.284,18.96-48.6,51.965-64.022c0,0-21.248,3.422-27.108,1.374s-24.111,24.775-28.593,22.55,3.987,9.284,3.987,9.284l-8.365-5.226s-18.356,20.54-15.5,26.471a77.2,77.2,0,0,0,4.588,8.506l-8.788-3.071s-8.05,13.623-6.639,24.635S121.941,378.587,132.389,389.142Z" transform="translate(-121.284 -273.836)"/></clipPath><linearGradient id="bk" x1="5.443" y1="-9.896" x2="7.15" y2="-9.896" xlink:href="#a"/><linearGradient id="bl" x1="0" y1="0.5" x2="1" y2="0.5" xlink:href="#aa"/><linearGradient id="bm" x1="-1.23" y1="2.087" x2="-0.204" y2="2.087" xlink:href="#a"/><linearGradient id="bo" x1="0.147" y1="0.886" x2="-0.762" y2="0.377" xlink:href="#a"/><clipPath id="bs"><circle class="g" cx="153.662" cy="153.662" r="153.662"/></clipPath><linearGradient id="bt" x1="0.733" y1="0.374" x2="0.206" y2="0.992" gradientUnits="objectBoundingBox"><stop offset="0" stop-color="#d88b2f"/><stop offset="1" stop-color="#e6bd4a" stop-opacity="0"/></linearGradient><linearGradient id="bw" x1="1.177" y1="0.198" x2="0.115" y2="0.936" xlink:href="#q"/><clipPath id="by"><path class="h" d="M244.595,117.316s5.022-.621,8.179,8.083c4.376,12.068,5.065,13.524,5.988,23.791,0,0,17.11-2.512,23-8.4l2.944,1.767s-14.7,17.563-31.212,12.957C253.493,155.513,225.465,121.025,244.595,117.316Z" transform="translate(-237.913 -117.307)"/></clipPath><linearGradient id="bz" x1="165.783" y1="-129.744" x2="166.803" y2="-129.744" xlink:href="#h"/><clipPath id="cb"><path class="i" d="M241.236,115.189c.459-.252,4.621-1.336,8.9,3.621s5.886,13.7,5.886,13.7-7.316.391-9.241,2.67a10.2,10.2,0,0,1-6.343,3.374S231.7,120.433,241.236,115.189Z" transform="translate(-236.78 -114.913)"/></clipPath><linearGradient id="cc" x1="175.743" y1="-52.381" x2="175.022" y2="-53.192" xlink:href="#i"/><linearGradient id="cd" x1="135.395" y1="-102.844" x2="135.141" y2="-103.54" xlink:href="#q"/><clipPath id="cf"><path class="j" d="M243.321,107.728s2,11.136,10.079,11.091c0,0,4.588,11.445-2.967,18.111s-8.015,11.355-6.713,13.125-3.7,8.759-.287,12.294-21.74,15.438-27.39,10.693C212.329,169.925,199.609,120.575,243.321,107.728Z" transform="translate(-211.443 -107.728)"/></clipPath><linearGradient id="cg" x1="83.107" y1="-21.563" x2="82.365" y2="-22.296" xlink:href="#i"/><linearGradient id="ch" x1="143.511" y1="-49.875" x2="142.933" y2="-50.616" xlink:href="#i"/><clipPath id="cj"><path class="k" d="M235.028,115.58l8.831-9.744s.871-17.454,9.43-18.148,22.5,8.436,9.208,28.545c0,0-4.309,1.031-9.226-3.018-2.03-1.672-8,14.586-8,14.586S232.659,125.287,235.028,115.58Z" transform="translate(-234.732 -87.652)"/></clipPath><linearGradient id="ck" x1="162.422" y1="-136.481" x2="162.187" y2="-137.191" xlink:href="#h"/><linearGradient id="cl" x1="76.24" y1="-55.821" x2="75.964" y2="-56.558" xlink:href="#q"/><linearGradient id="cm" x1="676.532" y1="126.371" x2="676" y2="125.682" xlink:href="#h"/><clipPath id="co"><path class="l" d="M297.579,206.081c-3.552-11.832-2.084-23.412-6.713-28.406s-19.226-27.113-34.727-26.437c-4.764.208-11.418-1.751-12.47-.173-3.534,5.3-12.073,7.3-12.073,7.3-5.043-1.087-12.544-1.649-16.195,3.3-5.789,7.842-3.967,18.449-2.357,22.378s-2.785,14.305-.947,20.084-2,18.823-.5,20.327a2.618,2.618,0,0,1,.572,3.119l6.35,1.281.7-3.463a19.925,19.925,0,0,0,5.8-13.85c-.1-8.431,6.906-17.247,9.226-22.787s7.691-4.471,10.011-10.011c2.077-4.962,9.407-5.287,10.913-5.3a68.785,68.785,0,0,1,8.694,5.153c6.119,4.773,16.171,7.366,16.054,11.271s1.8,22.857,5.452,27.3,4.1,9.459,6.6,8.887l.713,2.785,6.262-2.126-1.127-2.225S301.132,217.912,297.579,206.081Z" transform="translate(-211.245 -150.445)"/></clipPath><linearGradient id="cs" x1="0" y1="0.5" x2="1" y2="0.5" xlink:href="#l"/><clipPath id="cu"><path class="m" d="M189.588,153.519s-4.483,6.145,2.153,10.2l154.725-33.5,39.806-13.011-43.339,1.233Z" transform="translate(-188.108 -117.207)"/></clipPath><clipPath id="cz"><path class="n" d="M236.552,117.258s3.471,3.684-1.684,11.375c-7.147,10.662-7.914,12.079-15.65,18.893,0,0,15.823,6.971,26.424,4.026l1.766,2.357s-35.4,11.3-38.868-5.3C208.541,148.608,218.552,103.85,236.552,117.258Z" transform="translate(-208.541 -114.752)"/></clipPath><linearGradient id="da" x1="155.166" y1="-90.156" x2="156.344" y2="-90.156" xlink:href="#h"/><linearGradient id="db" x1="98.381" y1="-45.014" x2="97.954" y2="-45.739" xlink:href="#i"/><linearGradient id="dc" x1="0" y1="0.5" x2="1" y2="0.5" xlink:href="#h"/><linearGradient id="dd" x1="0" y1="0.5" x2="1" y2="0.5" xlink:href="#h"/><linearGradient id="de" y1="0.5" x2="1" y2="0.5" gradientUnits="objectBoundingBox"><stop offset="0.003" stop-color="#9b4a7a"/><stop offset="1" stop-color="#bd677d"/></linearGradient><clipPath id="dh"><path class="o" d="M260.318,403.491l.5,11.045s-9.037,2.511-11.548,2.511-2.008,2.008.5,2.008,16.569,1.506,16.569-.5a14.841,14.841,0,0,0-1-4.519l1.506-10.041Z" transform="translate(-247.622 -403.491)"/></clipPath><clipPath id="dk"><path class="o" d="M279.337,403.719c0,.5.5,11.548.5,11.548s-2.008,3.515-1,3.515,11.045,0,12.05-.5-7.531-2.009-7.531-4.017,1.505-11.547,1.505-11.547Z" transform="translate(-278.554 -402.715)"/></clipPath><linearGradient id="dl" x1="0" y1="0.5" x2="1" y2="0.5" xlink:href="#q"/><clipPath id="dn"><path class="p" d="M266.03,307.662c0,.5-6.025,27.614-5.021,44.685s-6.026,44.686-3.515,50.21-5.02,26.108-.5,30.627h11.047s3.515-3.515,3.013-14.058c-.434-9.083,2.007-23.6,4.016-30.126s4.017-33.138,4.017-33.138,0,41.674,2.511,47.2-2.009,25.606,2.511,29.121c2.658,2.068,7.531,1.506,8.535,0s6.025-6.528,3.515-12.05,1-20.586,4.017-26.109-2.511-52.719,0-58.242,2.511-25.1-5.523-28.116Z" transform="translate(-255.515 -307.662)"/></clipPath><clipPath id="ds"><path class="m" d="M286.992,257.613s-2.511,3.013-13.054,4.519c0,0-13.055-.5-14.562,9.037s-7.028,9.54-5.522,14.562c0,0-4.017,4.016-4.519,7.028s0,2.009,0,2.009,8.535,5.021,8.535,9.54c0,0,3.013-1,3.013-2.009s3.013,0,3.515-1c0,0-1.506,10.543,1,13.556s-.5,7.532,2.511,9.038c0,0,12.552-1.506,15.062,0s11.548,7.028,14.56,0c0,0,2.008-4.519,1-7.03s0-4.017,1.506-7.532,1.506-12.05,3.515-17.573S317.619,261.128,286.992,257.613Z" transform="translate(-249.113 -257.613)"/></clipPath><linearGradient id="du" x1="0" y1="0.5" x2="1" y2="0.5" xlink:href="#m"/><linearGradient id="dy" x1="35.35" y1="15.933" x2="36.073" y2="15.933" xlink:href="#h"/><clipPath id="ea"><path class="o" d="M582.075,310.838l-1.446-4.139L579,298.509s-23.8-17.424-28.6-25.1-3.679-33.092-2.24-34.051a2.047,2.047,0,0,1,2.517,0s5.482,25.413,9.322,28.772,15.851,14.019,24.955,15.836l1.439-1.919,15.836-4.319h4.8s-1.6-20.751-2.86-22.009c-7.551-7.551-33.352-21.4-33.352-21.4l1.258-1.259s33.983,8.182,40.9,18.25c2.078,3.023,6.047,25.454,7.488,38.891s-13.917,19.2-13.917,19.2S583.514,315.158,582.075,310.838Z" transform="translate(-546.922 -233.062)"/></clipPath><clipPath id="ed"><path class="o" d="M645.654,400.57c.959,0,8.637,11.038,8.637,11.038l-1.439,6.718s-7.678,2.879-4.8,3.84,10.077,0,10.077,0l3.84-12-5.279-2.879-5.759-11.038Z" transform="translate(-645.654 -396.25)"/></clipPath><clipPath id="eg"><path class="o" d="M593.28,412.96l1.919,9.6s-13.437,2.4-15.356,2.879-.96,2.4,6.239,2.4,16.8.48,16.8-1.439-2.4-4.8-2.4-4.8l-.479-12Z" transform="translate(-578.981 -409.6)"/></clipPath><clipPath id="ek"><path class="q" d="M595.185,255.968l-12.578-8.581s-15.711,10.371-11.43,17.361c1.865,3.045,5.469,3.7,8.944,3.47,3.913,5.311.767,8.457-1.75,10.345,0,0,16.991,23.284,16.991-5.034,0,0-5.034-1.888-5.195-9.426Z" transform="translate(-570.439 -247.387)"/></clipPath><clipPath id="en"><path class="m" d="M594.306,316.634s12.906.369,28.264-8.27c0,0,14.876,7.2,16.8,23.514s5.279,27.834,11.517,31.194,7.679,19.2,9.6,24.475,13.437,13.437,12,22.075,5.279,12,5.279,12L667.2,429.3s-11.038-10.079-12.477-14.4-21.6-31.673-24.955-37.912-15.324-25.115-15.324-25.115-4.831,21.756-10.11,25.6-6.239,12.957-8.638,14.4,5.279,8.157,3.358,13.916,8.638,23.036,7.679,26.4,2.88,6.718,1.919,8.158-14.4,4.8-14.4,4.8-21.6-48.949-20.155-59.027S588.013,333,594.306,316.634Z" transform="translate(-574.032 -308.365)"/></clipPath><clipPath id="et"><path class="l" d="M574.8,272.854s6.718,5.279,8.637,18.236-8.836,7.826-11.716-2.732c0,0-1.267,16.565,8.81,23.284s5.419,9.706,10.7,12.585,3.726,4.294,3.726,4.294,9.6,4.8,17.277,0a67.635,67.635,0,0,0,11.038-8.158s1.919-9.118-1.44-14.4-8.637-25.914-8.637-25.914-11.038-3.84-13.438-12.477h-4.8s6.719,25.434-15.836,4.318A6.124,6.124,0,0,0,574.8,272.854Z" transform="translate(-571.666 -267.575)"/></clipPath><linearGradient id="ew" x1="-37.858" y1="7.149" x2="-36.531" y2="7.149" xlink:href="#q"/></defs><g transform="translate(-37.583 -65.582)"><path class="r" d="M833.169,499.391H152.253S-12.7,322.563,58.561,147.057,437.947,117.365,463.68,231.51s199.26,51.465,265.24-1.319S1060.8,265.16,833.169,499.391Z" transform="translate(0.916)"/><path class="s" d="M42.383,103l214.81,18.914V240.8l-214.81-9.457Z" transform="translate(1.412 11.006)"/><path class="s" d="M71.755,168.917l146.554,12.9v81.112L71.755,256.481Z" transform="translate(10.051 30.394)"/><path class="s" d="M265.755,147.917l146.554,12.9v81.112l-146.554-6.452Z" transform="translate(67.113 24.217)"/><path class="s" d="M166.8,323l117.979,10.388v65.3L166.8,393.491Z" transform="translate(38.005 75.715)"/><path class="t" d="M76.488,220.584l100.058,8.81v55.378L76.488,280.367Z" transform="translate(11.443 45.591)"/><path class="u" d="M140.937,329.32l100.058,8.81v55.378L140.937,389.1Z" transform="translate(30.4 77.574)"/><ellipse class="r" cx="44.994" cy="5.664" rx="44.994" ry="5.664" transform="translate(292.709 510.757)"/><path class="r" d="M215.189,419.789c0,2.953-30.569,5.349-68.278,5.349s-68.278-2.4-68.278-5.349,30.57-5.349,68.278-5.349S215.189,416.834,215.189,419.789Z" transform="translate(12.074 102.61)"/><path class="r" d="M705.145,420.017c0,4.692-30.583,15.418-64.817,15.418s-94.394-9.782-94.394-14.474,62.992-9.439,97.226-9.439S705.145,415.325,705.145,420.017Z" transform="translate(149.523 101.752)"/><g transform="translate(117.167 153.076)"><path class="v" d="M501.5,231.69l8.725,177.784a4.428,4.428,0,0,1-4.422,4.646H104.78a4.428,4.428,0,0,1-4.427-4.428V187.917Z" transform="translate(-98.704 -117.093)"/><g transform="translate(0)"><g transform="translate(1.649)"><g transform="translate(336.586 33.625)"><path class="w" d="M375.6,209.282v-3.956c-6.076,0-11.208-9.662-11.208-21.1s5.133-21.1,11.208-21.1v-3.956c-8.5,0-15.165,11.005-15.165,25.054S367.1,209.282,375.6,209.282Z" transform="translate(-360.439 -159.173)"/></g><g transform="translate(76.812)"><path class="w" d="M174.87,183.3v-3.956c-6.075,0-11.208-9.662-11.208-21.1s5.134-21.1,11.208-21.1V133.19c-8.5,0-15.163,11-15.163,25.054S166.368,183.3,174.87,183.3Z" transform="translate(-159.707 -133.19)"/></g><path class="x" d="M100.353,151.612v37.736L501.5,233.121l-1.416-28.833a4.426,4.426,0,0,0-3.828-4.171L105.374,147.225A4.427,4.427,0,0,0,100.353,151.612Zm347.136,56.251c0-4.188,2.065-7.582,4.615-7.582s4.615,3.394,4.615,7.582-2.065,7.582-4.615,7.582S447.488,212.05,447.488,207.863ZM187.055,173.931c0-5.085,2.508-9.206,5.6-9.206s5.6,4.122,5.6,9.206-2.509,9.208-5.6,9.208S187.055,179.016,187.055,173.931Z" transform="translate(-100.353 -129.074)"/><g transform="translate(91.975)"><path class="a" d="M171.424,183.3c8.5,0,15.165-11.005,15.165-25.054s-6.661-25.054-15.165-25.054v3.955c6.076,0,11.208,9.662,11.208,21.1s-5.133,21.1-11.208,21.1Z" transform="translate(-171.424 -133.19)"/></g><g transform="translate(351.75 33.625)"><path class="a" d="M372.157,209.282c8.5,0,15.165-11.005,15.165-25.054s-6.661-25.054-15.165-25.054v3.956c6.076,0,11.208,9.662,11.208,21.1s-5.133,21.1-11.208,21.1Z" transform="translate(-372.157 -159.173)"/></g></g><g transform="translate(1.571 82.08)"><g transform="translate(0 46.841)"><rect class="y" width="1.979" height="404.606" transform="translate(0 1.973) rotate(-85.615)"/></g><g transform="translate(0.034 108.139)"><rect class="y" width="1.979" height="406.786" transform="translate(0 1.977) rotate(-87.492)"/></g><g transform="translate(0.055 168.11)"><rect class="y" width="1.978" height="406.501" transform="translate(0 1.978) rotate(-88.692)"/></g><g transform="translate(330.738 24.995)"><rect class="y" width="1.978" height="190.299" transform="translate(0 0.13) rotate(-3.771)"/></g><g transform="translate(258.229 19.079)"><rect class="y" width="1.978" height="196.037" transform="translate(0 0.093) rotate(-2.685)"/></g><g transform="translate(184.995 11.183)"><rect class="y" width="1.978" height="203.839" transform="matrix(0.999, -0.033, 0.033, 0.999, 0, 0.064)"/></g><g transform="translate(99.998 0)"><rect class="y" width="1.978" height="215.274" transform="matrix(1, -0.006, 0.006, 1, 0, 0.012)"/></g></g><g transform="translate(0 68.986)"><path class="l" d="M506.178,416.185H105.155a6.083,6.083,0,0,1-6.076-6.076V186.5L503.453,230.62l8.794,179.191a6.075,6.075,0,0,1-6.068,6.374Zm-403.8-226.012V410.109a2.783,2.783,0,0,0,2.78,2.78H506.178a2.781,2.781,0,0,0,2.776-2.916L500.3,233.593Z" transform="translate(-99.079 -186.497)"/></g></g></g><circle class="z" cx="164.875" cy="164.875" r="164.875" transform="translate(485.273 155.836)"/><circle class="aa" cx="34.611" cy="34.611" r="34.611" transform="translate(773.315 415.552) rotate(-76.561)"/><circle class="aa" cx="34.611" cy="34.611" r="34.611" transform="translate(684.267 459.155) rotate(-45)"/><circle class="aa" cx="20.767" cy="20.767" r="20.767" transform="translate(457.584 262.815)"/><circle class="aa" cx="12.586" cy="12.586" r="12.586" transform="translate(808.551 389.933) rotate(-45)"/><path class="v" d="M122.754,214.584,248.316,225.64v69.494l-125.563-5.528Z" transform="translate(25.051 43.826)"/><path class="v" d="M202.144,308.672l91.247,8.034v50.5l-91.247-4.017Z" transform="translate(48.403 71.501)"/><path class="t" d="M278.488,214.584l100.057,8.81v55.378l-100.057-4.405Z" transform="translate(70.858 43.826)"/><path class="ab" d="M261.654,298.708l70.629,6.219v39.09l-70.629-3.11Z" transform="translate(65.907 68.57)"/><path class="u" d="M120.937,259.321l100.058,8.81v55.378L120.937,319.1Z" transform="translate(24.517 56.985)"/><g transform="translate(792.499 339.275)"><path class="a" d="M623,343.028s56.818-11.7,73.529-28.409,66.846,0,66.846,0-26.738-21.726-48.463-23.4l-18.383,11.7,6.686-11.7s-36.765-23.4-53.476-10.027S614.647,312.947,623,343.028Z" transform="translate(-620.92 -277.07)"/><g class="ac"><path class="w" d="M621.238,336.143c1.672,0,10.027-40.108,28.41-33.422s25.066,0,25.066,0l3.343,10.026s21.725-19.166,42.613-9.583-66.008,46.348-66.008,46.348l-33.424-13.368" transform="translate(-620.827 -270.184)"/></g></g><g transform="translate(387.994 367.593)"><path class="b" d="M448.727,364.91s-56.819-11.7-73.53-28.409-66.845,0-66.845,0,26.738-21.726,48.463-23.4L375.2,324.8l-6.684-11.7s36.765-23.4,53.476-10.027S457.082,334.829,448.727,364.91Z" transform="translate(-308.352 -298.952)"/><g class="ad"><path class="ae" d="M441.449,358.025c-1.671,0-10.027-40.108-28.409-33.422s-25.067,0-25.067,0l-3.343,10.026s-21.725-19.166-42.613-9.583,66.01,46.348,66.01,46.348l33.422-13.368" transform="translate(-299.404 -292.066)"/></g></g><g transform="translate(759.946 391.427)"><path class="w" d="M595.766,352.911s15.039,18.382,35.093,6.684,35.094-15.04,35.094-15.04L617.491,324.5S599.108,332.857,595.766,352.911Z" transform="translate(-595.766 -315.271)"/><path class="w" d="M595.766,352.911s15.039,18.382,35.093,6.684,35.094-15.04,35.094-15.04L617.491,324.5S599.108,332.857,595.766,352.911Z" transform="translate(-595.766 -315.271)"/><path class="af" d="M612.553,341.639V326.6s10.026-5.014,31.752,0,20.053-13.37,35.093-8.356,43.449,25.067,45.121,43.449,1.671,56.819-11.7,71.859c0,0,3.343-8.356-6.684-21.726s-28.409-36.764-23.4-36.764,11.7-13.37,11.7-13.37l-25.067,3.343s-18.382-21.725-35.093-18.383S612.553,341.639,612.553,341.639Z" transform="translate(-590.828 -317.369)"/></g><g transform="translate(794.586 242.909)"><path class="c" d="M637.929,362.473s10.379-40.127,32.6-71.1,26.288-67.384,72.048-88.765c0,0-29.462,4.743-37.586,1.9s-33.429,34.35-39.643,31.266,5.529,12.871,5.529,12.871l-11.6-7.243s-25.45,28.479-21.488,36.7a106.888,106.888,0,0,0,6.361,11.795l-12.186-4.259s-11.159,18.889-9.2,34.157S623.445,347.839,637.929,362.473Z" transform="translate(-622.533 -202.606)"/><g class="ag" transform="translate(0 0)"><path class="ah" d="M638.444,362.537c-3.229-2.5-10.323-20.016-4.4-34.354s7.686-23.294,7.686-23.294l13.459-8.513-11.7-.443s2.938-14.925,18.4-30.486,22.222-30.975,22.222-30.975l8.368,4.748.2-13.605s19.871-19.034,39.936-13.845S664.775,348.5,664.775,348.5Z" transform="translate(-619.82 -200.174)"/></g></g><g transform="translate(37.583 332.196)"><g transform="translate(21.128)"><path class="d" d="M147.08,390s-19.614-16.822-26.728-34.373-17.975-21.233-19.1-31.7-24.752-14.333-26.4-26.613-20.943-21.343-20.943-21.343,23.885-11.928,34.333,3.66,8.233,28.023,22.432,29.744,31.586,14.287,34.463,34.064S162.8,373.593,147.08,390Z" transform="translate(-53.909 -271.599)"/><g class="ai"><path class="aj" d="M79.968,304.513c3.6-1.057,19.292,9.063,31.275,23.218s3.938,23.393,13,27.6,15.171,25,15.171,25L98.87,358.862Z" transform="translate(-46.244 -261.941)"/></g></g><g transform="translate(0 96.587)"><path class="e" d="M151.711,368.412s-24.8-3.95-47.385.894-43.791-1.712-66.744,18.528c0,0,9.767-15.215,10.156-20.414S74.911,357.168,74.7,352.97s5.811,6.186,5.811,6.186L79.3,350.961s21.98-7.242,25.586-3.05A64.83,64.83,0,0,1,109.9,354.3l.584-7.8s13.192-1.627,21.2,3.156S147.089,356.824,151.711,368.412Z" transform="translate(-37.583 -346.234)"/><g class="ak"><path class="al" d="M150.46,368.343c-.6-2.4-8.619-10.58-18.017-10.761a83.5,83.5,0,0,1-14.8-1.371l-7.986,5.415,2.586-6.6s-9-1.983-21.388,2.842a69.277,69.277,0,0,1-22.584,4.844l.612,5.8-7.6-3.184s-15.383,6.429-17.357,18.83,92.364-4.585,92.364-4.585Z" transform="translate(-35.727 -343.767)"/></g></g><g transform="translate(117.94 74.777)"><path class="a" d="M130.077,372.446s37.1-7.638,48.01-18.549,43.643,0,43.643,0-17.458-14.184-31.642-15.275l-12,7.637,4.364-7.637s-24-15.276-34.916-6.547S124.622,352.806,130.077,372.446Z" transform="translate(-128.717 -329.381)"/><g class="am"><path class="w" d="M128.925,367.95c1.091,0,6.547-26.187,18.549-21.822s16.367,0,16.367,0l2.182,6.547s14.185-12.514,27.824-6.257-43.1,30.261-43.1,30.261l-21.823-8.729" transform="translate(-128.656 -324.885)"/></g></g><g transform="translate(108.32 2.894)"><path class="f" d="M132.389,389.142s7.485-28.943,23.513-51.284,18.96-48.6,51.965-64.022c0,0-21.248,3.422-27.108,1.374s-24.111,24.775-28.593,22.55,3.987,9.284,3.987,9.284l-8.365-5.226s-18.356,20.54-15.5,26.471a77.2,77.2,0,0,0,4.588,8.506l-8.788-3.071s-8.05,13.623-6.639,24.635S121.941,378.587,132.389,389.142Z" transform="translate(-121.284 -273.836)"/><g class="an"><path class="ao" d="M132.761,389.188c-2.329-1.8-7.446-14.437-3.175-24.779a99.478,99.478,0,0,0,5.544-16.8l9.707-6.141-8.436-.318s2.12-10.766,13.274-21.989A82.46,82.46,0,0,0,165.7,296.82l6.036,3.424.142-9.812s14.331-13.729,28.8-9.986-48.934,98.613-48.934,98.613Z" transform="translate(-119.326 -272.082)"/></g></g><path class="ap" d="M125.027,362.925s-13.251,70.466-9.588,71.511c3.017.862,29.826.3,39.177.08a2.591,2.591,0,0,0,2.458-3.194L140.48,361.75Z" transform="translate(-14.871 -245.083)"/><g transform="translate(117.665 104.905)"><path class="aq" d="M128.505,364.117s4.5,14.013,18.716,11.822,23.648-.7,23.648-.7L147.481,352.67S134.985,353.313,128.505,364.117Z" transform="translate(-128.505 -352.659)"/><path class="aq" d="M128.505,364.117s4.5,14.013,18.716,11.822,23.648-.7,23.648-.7L147.481,352.67S134.985,353.313,128.505,364.117Z" transform="translate(-128.505 -352.659)"/><path class="ar" d="M140.529,361.345l3.415-8.672s6.918-.615,18.306,7.208,14.6-3.155,22.131,3.15,19.359,24.318,16.149,35.295-11.937,33.139-23.059,38.775c0,0,3.824-4.058,1.078-14.043s-8.033-27.648-5.142-26.509,9.78-5.052,9.78-5.052l-15.211-3.763s-5.667-16.7-16.06-18.567S140.529,361.345,140.529,361.345Z" transform="translate(-124.968 -352.661)"/></g></g><g transform="translate(429.369 86.004)"><path class="l" d="M546.139,136.343s-.533-18.566,13.3-16.97,66.505,23.41,33.519,40.436C592.959,159.81,563.7,137.353,546.139,136.343Z" transform="translate(-279.788 -70.211)"/><path class="l" d="M389.063,299.561s-18.924,11.029-25.078-4.2-13.288-82.071,22.954-57.523C386.939,237.843,380.2,280.813,389.063,299.561Z" transform="translate(-334.84 -36.914)"/><circle class="l" cx="176.242" cy="176.242" r="176.242" transform="translate(44.751 58.739)"/><circle class="as" cx="159.657" cy="159.657" r="159.657" transform="translate(0 225.789) rotate(-45)"/><circle class="at" cx="153.662" cy="153.662" r="153.662" transform="translate(72.127 66.132)"/><g transform="translate(72.127 66.132)"><g class="au"><path class="av" d="M539.946,108l12.941,200.59L380.768,361.65S303.12,157.177,539.946,108Z" transform="translate(-404.137 -139.66)"/><path class="aw" d="M385,321.473,707.239,139l20.706,22L399.235,378.415Z" transform="translate(-399.31 -130.542)"/><path class="aw" d="M422,377.355,724.827,213l-23.294,41.412L428.471,390.3Z" transform="translate(-388.427 -108.776)"/><path class="aw" d="M391,305.943c2.588-5.177,273.062-159.178,273.062-159.178L649.827,139Z" transform="translate(-397.545 -130.542)"/><path class="aw" d="M385,278.767c2.588-2.588,236.826-143.649,236.826-143.649L584.3,117,387.588,247.707Z" transform="translate(-399.31 -137.013)"/><path class="aw" d="M515,413.708,697.473,261l-11.647,80.236S615.942,448.649,515,413.708Z" transform="translate(-361.072 -94.658)"/></g></g><g transform="translate(83.856 73.105)"><path class="l" d="M645.237,203.221l-60.454,31.186-48.192,40.141a9.465,9.465,0,0,0-13.557-.379l-46.349-42.99-23.276-6.754,12.519,23.489,55.522,28.277a9.49,9.49,0,1,0,16.13-.382l58.239-33.725Z" transform="translate(-390.918 -118.625)"/><path class="l" d="M553.564,146.1a8.247,8.247,0,1,1-8.247-8.246A8.248,8.248,0,0,1,553.564,146.1Zm.265,265.227a8.247,8.247,0,1,0,8.248,8.247A8.247,8.247,0,0,0,553.83,411.326ZM413.368,280.441a8.247,8.247,0,1,0,8.246,8.247A8.248,8.248,0,0,0,413.368,280.441Zm68.1-119.179a3.99,3.99,0,1,0,3.99,3.991A3.99,3.99,0,0,0,481.471,161.262Zm-48.949,53.206a3.99,3.99,0,1,0,3.991,3.99A3.99,3.99,0,0,0,432.522,214.467Zm0,137.8a3.99,3.99,0,1,0,3.991,3.991A3.991,3.991,0,0,0,432.522,352.268Zm53.206,45.757a3.99,3.99,0,1,0,3.99,3.991A3.99,3.99,0,0,0,485.727,398.024Zm124.5,0a3.99,3.99,0,1,0,3.991,3.991A3.991,3.991,0,0,0,610.227,398.024ZM659.708,337.9a3.99,3.99,0,1,0,3.991,3.99A3.99,3.99,0,0,0,659.708,337.9Zm4.256-127.692a3.99,3.99,0,1,0,3.991,3.99A3.989,3.989,0,0,0,663.964,210.211Zm-53.738-45.225a3.99,3.99,0,1,0,3.991,3.991A3.991,3.991,0,0,0,610.227,164.986Zm71.3,106.942a8.247,8.247,0,1,0,8.248,8.247A8.247,8.247,0,0,0,681.522,271.928Z" transform="translate(-405.121 -137.852)"/></g></g><path class="ax" d="M214.459,208.262s-7.066,8.834-5.888,10.013,10.6,3.533,10.6,1.178v-11.19Z" transform="translate(50.254 41.967)"/><g transform="translate(296.837 132.52)"><path class="h" d="M244.595,117.316s5.022-.621,8.179,8.083c4.376,12.068,5.065,13.524,5.988,23.791,0,0,17.11-2.512,23-8.4l2.944,1.767s-14.7,17.563-31.212,12.957C253.493,155.513,225.465,121.025,244.595,117.316Z" transform="translate(-237.913 -117.307)"/><g class="ay"><path class="az" d="M258.764,138.263a8.008,8.008,0,0,0-9.219,1.592c-4.267,4.233-7.681,1.825-7.681,1.825l4.417-6.258,6.943-3.2,2.755,1.662Z" transform="translate(-236.751 -112.919)"/></g></g><g transform="translate(295.37 129.423)"><path class="i" d="M241.236,115.189c.459-.252,4.621-1.336,8.9,3.621s5.886,13.7,5.886,13.7-7.316.391-9.241,2.67a10.2,10.2,0,0,1-6.343,3.374S231.7,120.433,241.236,115.189Z" transform="translate(-236.78 -114.913)"/><g class="ba"><path class="bb" d="M250.633,117.924c-.053.959,3.832,14.779-8.264,22.863s-5.49-11.545-5.49-11.545l6.925-6.192,6.829-5.126" transform="translate(-237.28 -114.027)"/></g></g><path class="bc" d="M279.369,208.483s3.673,8.624,12.72,5.785c0,0,3.9-.58-.678,3.489s-6.81,3.8-10.86,2.711-8.095-1.488-7.824-3.024,3.572-9.5,3.572-9.5Z" transform="translate(69.159 41.873)"/><g transform="translate(262.581 120.124)"><path class="j" d="M243.321,107.728s2,11.136,10.079,11.091c0,0,4.588,11.445-2.967,18.111s-8.015,11.355-6.713,13.125-3.7,8.759-.287,12.294-21.74,15.438-27.39,10.693C212.329,169.925,199.609,120.575,243.321,107.728Z" transform="translate(-211.443 -107.728)"/><g class="bd"><path class="be" d="M242.922,117.109c0-.01,1.4,13.635-8.246,21.836S223.7,145.614,221.3,149.59s-5.7,5.1-4.132,9.271,6.921,16.918,5.617,19.787-9.266-3.031-9.266-3.031l-6.08-23.969,4.571-9.494,15.55-15.062,15.359-9.984" transform="translate(-212.62 -104.969)"/><path class="bf" d="M240.851,136.315c-1.1.005-5.932,2.455-3.5,3.983s-6.135,5.319-4.366,6.63,1.545,9.316-5.994,15.267,14.846-7.608,14.846-7.608l3.9-10.812-.692-5.721Z" transform="translate(-207.327 -99.32)"/></g></g><g transform="translate(292.72 94.143)"><path class="k" d="M235.028,115.58l8.831-9.744s.871-17.454,9.43-18.148,22.5,8.436,9.208,28.545c0,0-4.309,1.031-9.226-3.018-2.03-1.672-8,14.586-8,14.586S232.659,125.287,235.028,115.58Z" transform="translate(-234.732 -87.652)"/><g class="bg"><path class="bh" d="M249.015,93.886s9.747,10.515,16.087,2.332-12.809-6.755-12.809-6.755Z" transform="translate(-230.531 -87.147)"/></g></g><path class="bi" d="M249.019,105.524s-4.392,2.226-6.6,1.138c0,0,.414-4.627-1.8-6.816s-1.385-11.443,3.464-10.589,6.995-9.068,12.519-5.8,3.345,7.688,11.256,4.782,9.483,2.368,8.623,6.117c-1.106,4.823-8.572,2.69-5.245,7.076s-4.737,3.009-4.737,3.009.788-4.329-.89-7.062c0,0-1.2,4.752-6.5,1.919s-6.618-2.165-6.618-2.165,2.45,4.83-3.049,5.962" transform="translate(59.377 5.063)"/><path class="bj" d="M245.515,98.761c-.55,1.68-.053,3.351,1.11,3.731s2.552-.674,3.1-2.354.053-3.351-1.11-3.731S246.064,97.08,245.515,98.761Z" transform="translate(61.094 9.044)"/><g transform="translate(262.324 175.407)"><path class="l" d="M297.579,206.081c-3.552-11.832-2.084-23.412-6.713-28.406s-19.226-27.113-34.727-26.437c-4.764.208-11.418-1.751-12.47-.173-3.534,5.3-12.073,7.3-12.073,7.3-5.043-1.087-12.544-1.649-16.195,3.3-5.789,7.842-3.967,18.449-2.357,22.378s-2.785,14.305-.947,20.084-2,18.823-.5,20.327a2.618,2.618,0,0,1,.572,3.119l6.35,1.281.7-3.463a19.925,19.925,0,0,0,5.8-13.85c-.1-8.431,6.906-17.247,9.226-22.787s7.691-4.471,10.011-10.011c2.077-4.962,9.407-5.287,10.913-5.3a68.785,68.785,0,0,1,8.694,5.153c6.119,4.773,16.171,7.366,16.054,11.271s1.8,22.857,5.452,27.3,4.1,9.459,6.6,8.887l.713,2.785,6.262-2.126-1.127-2.225S301.132,217.912,297.579,206.081Z" transform="translate(-211.245 -150.445)"/><g class="bk"><path class="bl" d="M231.27,186.175s1.847-4.319,1.218-7.465-3.147-11.956-6.293-11.956,4.405-1.258,8.81,1.259,5.663-.63,5.034-3.776-13.823-6.871-14.778-6.9,12.057-4.791,12.057-4.791,3.349,5.394,7.754,2.877-2.517,8.81,5.034,10.7,5.034,8.809,12.585,9.439,13.216,6.292,13.845,9.439,3.288,28.36,6.05,33.373-24.929-39.038-31.851-35.89-18.8,6.748-19.466,3.688" transform="translate(-207.137 -149.826)"/><path class="bl" d="M215.387,159.15s-4.405,12.585,0,20.766-1.888,13.216-.629,17.621-.664,9.873-.962,14.69-5.332-.216-5.332-.216l1.888-28.947-1.888-16.991Z" transform="translate(-212.063 -147.885)"/><path class="l" d="M270.364,209.65c.629.63,5.034,3.147,13.845-3.775s3.776,3.775,3.776,3.775L275.4,215.943l-5.663-2.517Z" transform="translate(-194.041 -134.828)"/><path class="bm" d="M210.353,208.262h15.1l-1.888,6.922-10.7-.629-4.405-5.034,1.259-1.259" transform="translate(-212.063 -133.44)"/></g></g><g transform="translate(232.382 132.392)"><path class="m" d="M189.588,153.519s-4.483,6.145,2.153,10.2l154.725-33.5,39.806-13.011-43.339,1.233Z" transform="translate(-188.108 -117.207)"/><g class="bn"><path class="o" d="M309.181,114.9s-8.18,16.992,5.664,19.509,43.421-9.439,43.421-9.439l.629-10.07H309.181Z" transform="translate(-153.202 -117.886)"/><path class="p" d="M329.872,111.009s-5.035,15.733,3.775,18.25,20.138-13.216,20.138-13.216Z" transform="translate(-146.832 -119.03)"/><path class="p" d="M199.341,142.073s-5.034,11.328,5.034,18.25-16.991,4.405-16.991,4.405l-5.663-13.216,4.4-11.328Z" transform="translate(-189.987 -110.448)"/></g></g><g transform="translate(258.825 129.214)"><path class="n" d="M236.552,117.258s3.471,3.684-1.684,11.375c-7.147,10.662-7.914,12.079-15.65,18.893,0,0,15.823,6.971,26.424,4.026l1.766,2.357s-35.4,11.3-38.868-5.3C208.541,148.608,218.552,103.85,236.552,117.258Z" transform="translate(-208.541 -114.752)"/><g class="bo"><path class="bp" d="M227.314,138.512a9.532,9.532,0,0,0-8.016-7.732c-7.069-1.117-7.158-6.09-7.158-6.09l9.118-.164,7.956,4.417.343,3.816Z" transform="translate(-207.482 -111.877)"/></g></g><path class="bq" d="M238.651,112.12c.616.325,4.867,4.157,2.493,12.539s-10.917,16.577-10.917,16.577-5.794-7.844-9.736-8.314a13.578,13.578,0,0,1-8.394-4.577S225.841,105.366,238.651,112.12Z" transform="translate(51.33 13.323)"/><path class="br" d="M237.21,144.526s0-2.355,1.178-2.944,1.178-2.944,1.766-2.944,1.178,1.766,0,2.944a2.045,2.045,0,0,0-.575,2.346l6.421-1.39s-.546,3.756-2.9,3.756a14.376,14.376,0,0,0-4.122.589" transform="translate(58.717 21.488)"/><path class="bs" d="M274.873,138.353s-3.533,1.178-3.533,0,.589-2.944,1.766-3.533,1.891-2.417,2.944-2.944c1.178-.589,4.123-.589,2.5,3.514A4.761,4.761,0,0,1,274.873,138.353Z" transform="translate(68.755 19.417)"/><g transform="translate(271.674 275.964)"><path class="bt" d="M278.247,262.223v-1.506H222.515v38.159h55.732Z" transform="translate(-217.28 -218.569)"/><path class="o" d="M228.223,283.972s23.6,22.594,34.143,20.586c0,0,7.531-5.02,7.028-9.539S258.349,291,258.349,291s-23.389-5.227-28.766-10.4a12.077,12.077,0,0,0-.783-4.311c-.784-1.569,0-5.879,0-5.879h-.392c-.784,0-2.351,3.136-2.351,3.92s-2.351-.784-2.351-.784V271.2s-2.351.784-2.744,1.959-3.136,4.7-2.351,5.487,2.744,6.27,3.919,5.878a44.981,44.981,0,0,1,5.487-.784" transform="translate(-218.47 -215.716)"/><g transform="translate(37.726 226.917)"><path class="o" d="M260.318,403.491l.5,11.045s-9.037,2.511-11.548,2.511-2.008,2.008.5,2.008,16.569,1.506,16.569-.5a14.841,14.841,0,0,0-1-4.519l1.506-10.041Z" transform="translate(-247.622 -403.491)"/><g class="bu"><path class="p" d="M266.675,411.25s-3.776,3.775-6.922,0-13.845,5.034-13.845,5.034l21.4,10.7,3.775-11.956-5.139-3.644" transform="translate(-248.126 -401.486)"/></g></g><g transform="translate(77.757 225.913)"><path class="o" d="M279.337,403.719c0,.5.5,11.548.5,11.548s-2.008,3.515-1,3.515,11.045,0,12.05-.5-7.531-2.009-7.531-4.017,1.505-11.547,1.505-11.547Z" transform="translate(-278.554 -402.715)"/><g class="bv"><path class="bw" d="M280.318,412.915s3.146,1.259,4.405-1.258,10.068,3.776,10.068,3.776l-4.405,2.517-13.843-1.888,3.775-3.147" transform="translate(-279.145 -400.26)"/><path class="bx" d="M278.664,406.058s5.034.63,6.922-.629-1.888-3.146-1.888-3.146l-5.811,2.32Z" transform="translate(-278.75 -402.842)"/></g></g><g transform="translate(47.942 102.901)"><path class="p" d="M266.03,307.662c0,.5-6.025,27.614-5.021,44.685s-6.026,44.686-3.515,50.21-5.02,26.108-.5,30.627h11.047s3.515-3.515,3.013-14.058c-.434-9.083,2.007-23.6,4.016-30.126s4.017-33.138,4.017-33.138,0,41.674,2.511,47.2-2.009,25.606,2.511,29.121c2.658,2.068,7.531,1.506,8.535,0s6.025-6.528,3.515-12.05,1-20.586,4.017-26.109-2.511-52.719,0-58.242,2.511-25.1-5.523-28.116Z" transform="translate(-255.515 -307.662)"/><g class="by"><path class="bz" d="M263.64,308.865c.336-.26,9.146-1.519,16.068,4.145s16.362,3.775,18.25-1.259-12.585-8.18-12.585-8.18l-21.732,5.294" transform="translate(-253.125 -308.865)"/><path class="ca" d="M272.869,363.073s1.185-20.4,1.814-21.03,1.259-2.517,2.517-5.034a9.738,9.738,0,0,0,1.259-3.776s-1.888,10.7,0,16.362-3.776,15.733-2.517,19.508-1.259,23.913.629,26.43-4.405,1.888-4.405,1.888l1.259-34.612" transform="translate(-250.618 -300.141)"/></g></g><path class="o" d="M287.043,243.732l-13.577-9.7s-17.457,10.99-12.931,18.748c1.971,3.379,5.9,4.183,9.716,4.013.6,4.127.876,11.953-1.958,16.676,0,0,10.991,0,16.809-5.818,0,0-3.221-8.382-3.749-15.13Z" transform="translate(-206.317 -226.417)"/><g transform="translate(39.656 38.131)"><path class="m" d="M286.992,257.613s-2.511,3.013-13.054,4.519c0,0-13.055-.5-14.562,9.037s-7.028,9.54-5.522,14.562c0,0-4.017,4.016-4.519,7.028s0,2.009,0,2.009,8.535,5.021,8.535,9.54c0,0,3.013-1,3.013-2.009s3.013,0,3.515-1c0,0-1.506,10.543,1,13.556s-.5,7.532,2.511,9.038c0,0,12.552-1.506,15.062,0s11.548,7.028,14.56,0c0,0,2.008-4.519,1-7.03s0-4.017,1.506-7.532,1.506-12.05,3.515-17.573S317.619,261.128,286.992,257.613Z" transform="translate(-249.113 -257.613)"/><g class="cb"><path class="cc" d="M257.578,299.109l4.405-4.405s4.405,0,4.405-5.034,5.034-7.551,5.034-9.439c0,0,2.517,4.405-.629,6.922s.629,7.551-1.259,8.81-6.922,9.439-4.405,11.957-3.775,5.034-3.775,5.034Z" transform="translate(-246.623 -250.961)"/><path class="cd" d="M249.6,283.148s11.326,6.292,11.326,11.326-2.517,4.405-2.517,4.405l-4.4-5.034-5.664-8.18Z" transform="translate(-249.34 -250.102)"/><path class="cc" d="M282.937,312.152c-.629,0-5.034-5.664-8.809-5.664s-8.81,2.517-11.956,1.259,2.517,4.405,2.517,4.405l11.326.629h7.553" transform="translate(-245.552 -243.237)"/><path class="m" d="M289.128,310.951s-6.293,5.663-3.146,0,1.887-10.7,3.775-13.845-1.888-7.551,1.259-10.068,6.292-8.81,7.551-14.474-4.405,38.387-4.405,38.387Z" transform="translate(-238.527 -253.363)"/></g></g><path class="p" d="M290.375,242.689c-6.293-5.035-.629-7.553-6.922-6.922s-8.81-14.474-12.585-3.776c0,0-3.776,4.405,2.517,9.439s5.663,4.405,5.663,4.405-1.034,2.7-1.571,4.148a1.553,1.553,0,0,1-1.292,1.006c-2.191.23-6.077.381-7.835-1.377-2.517-2.517-3.787-4.493-4.726-4.764s-7.861,7.91-5.972,12.315,8.181,3.775,10.068,2.517a6.355,6.355,0,0,1,3.147-1.259,65.151,65.151,0,0,1,6.907-6.027c.705,1.3,2.078,2.793,4.421,1.622,0,0,4.4.63,5.034-1.887S296.669,247.723,290.375,242.689Z" transform="translate(-207.04 -228.148)"/><path class="ce" d="M274.221,248.822c-1.187.267-2.3-.2-2.494-1.053s.617-1.751,1.805-2.016,2.3.2,2.492,1.052S275.408,248.555,274.221,248.822Z" transform="translate(-202.813 -222.992)"/></g><path class="v" d="M299.755,323.021l125.562,11.056v69.494l-125.562-5.528Z" transform="translate(77.113 75.721)"/><g transform="translate(694.357 275.736)"><g transform="translate(2.378 6.587)"><path class="o" d="M582.075,310.838l-1.446-4.139L579,298.509s-23.8-17.424-28.6-25.1-3.679-33.092-2.24-34.051a2.047,2.047,0,0,1,2.517,0s5.482,25.413,9.322,28.772,15.851,14.019,24.955,15.836l1.439-1.919,15.836-4.319h4.8s-1.6-20.751-2.86-22.009c-7.551-7.551-33.352-21.4-33.352-21.4l1.258-1.259s33.983,8.182,40.9,18.25c2.078,3.023,6.047,25.454,7.488,38.891s-13.917,19.2-13.917,19.2S583.514,315.158,582.075,310.838Z" transform="translate(-546.922 -233.062)"/><g class="cf"><path class="cg" d="M594.957,253.417c-.225.718,5.439,25.26,15.508,20.855S618.645,290,618.645,290L594.1,286.857,589.7,262.315l5.259-8.9" transform="translate(-534.34 -227.075)"/></g></g><g transform="translate(130.15 217.774)"><path class="o" d="M645.654,400.57c.959,0,8.637,11.038,8.637,11.038l-1.439,6.718s-7.678,2.879-4.8,3.84,10.077,0,10.077,0l3.84-12-5.279-2.879-5.759-11.038Z" transform="translate(-645.654 -396.25)"/><g class="ch"><path class="p" d="M650.4,414.241s6.922,0,8.181-12.585,19.508,11.328,19.508,11.328l-13.216,16.991L646.62,426.2l-4.405-7.551Z" transform="translate(-646.666 -395.736)"/></g></g><g transform="translate(43.867 235.051)"><path class="o" d="M593.28,412.96l1.919,9.6s-13.437,2.4-15.356,2.879-.96,2.4,6.239,2.4,16.8.48,16.8-1.439-2.4-4.8-2.4-4.8l-.479-12Z" transform="translate(-578.981 -409.6)"/><g class="ci"><path class="p" d="M594.691,420.854s9.109-.877,10.367-3.395,7.553,6.293,7.553,6.293l-11.328,6.922-26.43-1.259-3.147-10.068,22.985,1.506" transform="translate(-581.121 -407.421)"/><path class="p" d="M650.109,413.51a19.516,19.516,0,0,0,8.81-10.7c2.517-7.551,13.845,5.663,13.845,5.663l-5.034,15.733-13.216,4.405-11.328-7.551Z" transform="translate(-560.096 -412.282)"/></g></g><g transform="translate(32.812 25.126)"><path class="q" d="M595.185,255.968l-12.578-8.581s-15.711,10.371-11.43,17.361c1.865,3.045,5.469,3.7,8.944,3.47,3.913,5.311.767,8.457-1.75,10.345,0,0,16.991,23.284,16.991-5.034,0,0-5.034-1.888-5.195-9.426Z" transform="translate(-570.439 -247.387)"/><g class="cj"><path class="ck" d="M580.02,260.779s-2.282,16.965,8.3,29.564,9.951-17.608,9.951-17.608L580.02,260.779" transform="translate(-567.682 -243.448)"/></g></g><g transform="translate(37.462 104.039)"><path class="m" d="M594.306,316.634s12.906.369,28.264-8.27c0,0,14.876,7.2,16.8,23.514s5.279,27.834,11.517,31.194,7.679,19.2,9.6,24.475,13.437,13.437,12,22.075,5.279,12,5.279,12L667.2,429.3s-11.038-10.079-12.477-14.4-21.6-31.673-24.955-37.912-15.324-25.115-15.324-25.115-4.831,21.756-10.11,25.6-6.239,12.957-8.638,14.4,5.279,8.157,3.358,13.916,8.638,23.036,7.679,26.4,2.88,6.718,1.919,8.158-14.4,4.8-14.4,4.8-21.6-48.949-20.155-59.027S588.013,333,594.306,316.634Z" transform="translate(-574.032 -308.365)"/><g class="cl"><path class="cm" d="M605.888,356.974l-.629-10.7s3.146-6.922,3.775-11.956a9.088,9.088,0,0,1,4.405-6.922s-.629,17.62,3.146,22.654,10.7,13.216,8.81,17.621,8.81,19.508,5.664,25.8S605.888,356.974,605.888,356.974Z" transform="translate(-564.847 -302.767)"/><path class="cn" d="M588.239,315.791s6.293,10.07,15.1,5.035,18.249-14.475,20.137-13.845-27.689,4.405-27.689,4.405Z" transform="translate(-569.853 -308.781)"/><path class="co" d="M606.261,353.133c-.309.677-3.457,9.487-9.12,11.375s-10.7,11.326-8.81,15.1-1.888,13.845,3.147,17.621,10.068,24.542,8.809,27.688S594,431.842,594,431.842l21.4-3.775-9.13-74.934" transform="translate(-569.945 -295.197)"/><path class="m" d="M640.469,358.948l-1.888-1.888s-3.776,16.362,2.517,21.4,10.7,7.551,10.068,11.957,2.517,13.216,1.888,17.621a4.4,4.4,0,0,0,3.169,5.263l8.158-10.3L656.2,386.007l-8.18-20.137Z" transform="translate(-555.376 -294.042)"/></g></g><g transform="translate(34.401 51.252)"><path class="l" d="M574.8,272.854s6.718,5.279,8.637,18.236-8.836,7.826-11.716-2.732c0,0-1.267,16.565,8.81,23.284s5.419,9.706,10.7,12.585,3.726,4.294,3.726,4.294,9.6,4.8,17.277,0a67.635,67.635,0,0,0,11.038-8.158s1.919-9.118-1.44-14.4-8.637-25.914-8.637-25.914-11.038-3.84-13.438-12.477h-4.8s6.719,25.434-15.836,4.318A6.124,6.124,0,0,0,574.8,272.854Z" transform="translate(-571.666 -267.575)"/><g class="cp"><path class="cq" d="M580.627,271.482c-.839,2.511,19.3,46.562,43.211,30.829S580.627,271.482,580.627,271.482Z" transform="translate(-569.038 -266.426)"/><path class="l" d="M576.537,288.553c-1.259,1.259-1.888,11.328,6.292,15.733s1.259,11.956,8.81,12.585-.629,4.405,7.551,4.405,11.957,5.664-6.293,2.517-30.835-35.241-25.8-37.758a28,28,0,0,0,8.18-6.292Z" transform="translate(-573.339 -263.996)"/></g></g><path class="cr" d="M577.607,251.2s-1.865-7.624,3.854-9.083,9.5,10.974,9.5,10.974,7.488-2.643,8.453,7.343.885,26.2,15.95,22.231,15.942,33.552-8.809,23.913-26.29-40.037-26.29-40.037,2.5,1.676,4.083-2.139-2.591-2.992-2.591-2.992-3.5-7.016-.374-11.469A7.5,7.5,0,0,0,577.607,251.2Z" transform="translate(-535.604 -223.846)"/><path class="o" d="M548.072,241.645s-4.405-6.922-2.517-8.18,8.18-5.664,7.551-3.146-1.888,10.068-1.888,10.068Z" transform="translate(-545.084 -227.506)"/><path class="o" d="M561.553,234.559a3.04,3.04,0,0,1,2.517,0c.563.282,1.258-.629,1.888-1.258s0-1.888,0-2.517,2.517-3.776,3.775-2.518-.629,5.035-1.258,6.293-1.259,1.259-1.259,1.259-.629,1.258-3.146,0C564.071,235.818,560.294,235.818,561.553,234.559Z" transform="translate(-540.316 -227.972)"/></g></g></svg>