<svg width="23" height="26" viewBox="0 0 23 26" fill="none" xmlns="http://www.w3.org/2000/svg">
<path d="M20.4582 3.25H18.1144V0.515625C18.1144 0.320312 17.9191 0.125 17.7238 0.125H16.9425C16.6984 0.125 16.5519 0.320312 16.5519 0.515625V3.25H7.1769V0.515625C7.1769 0.320312 6.98159 0.125 6.78628 0.125H6.00503C5.76089 0.125 5.6144 0.320312 5.6144 0.515625V3.25H3.27065C1.9523 3.25 0.926905 4.32422 0.926905 5.59375V22.7812C0.926905 24.0996 1.9523 25.125 3.27065 25.125H20.4582C21.7277 25.125 22.8019 24.0996 22.8019 22.7812V5.59375C22.8019 4.32422 21.7277 3.25 20.4582 3.25ZM21.2394 22.7812C21.2394 23.2207 20.8488 23.5625 20.4582 23.5625H3.27065C2.8312 23.5625 2.4894 23.2207 2.4894 22.7812V9.5H21.2394V22.7812ZM21.2394 7.9375H2.4894V5.59375C2.4894 5.20312 2.8312 4.8125 3.27065 4.8125H20.4582C20.8488 4.8125 21.2394 5.20312 21.2394 5.59375V7.9375ZM6.39565 18.875H11.0832C11.4738 18.875 11.8644 18.5332 11.8644 18.0938V13.4062C11.8644 13.0156 11.4738 12.625 11.0832 12.625H6.39565C5.9562 12.625 5.6144 13.0156 5.6144 13.4062V18.0938C5.6144 18.5332 5.9562 18.875 6.39565 18.875ZM7.1769 14.1875H10.3019V17.3125H7.1769V14.1875Z" fill="#909090"/>
</svg>
