<svg xmlns="http://www.w3.org/2000/svg" width="60" height="60" viewBox="0 0 60 60"><defs><style>.a{fill:#e30116;opacity:0.5;}</style></defs><path class="a" d="M35.4,0A24.59,24.59,0,0,0,16.431,40.256L0,56.686,3.314,60,19.744,43.569A24.6,24.6,0,1,0,35.4,0Zm0,44.519A19.916,19.916,0,1,1,55.314,24.6,19.939,19.939,0,0,1,35.4,44.519ZM37.74,24.6A2.343,2.343,0,1,1,35.4,22.259,2.343,2.343,0,0,1,37.74,24.6Zm-9.372,0a2.343,2.343,0,1,1-2.343-2.343A2.343,2.343,0,0,1,28.368,24.6Zm18.745,0a2.343,2.343,0,1,1-2.343-2.343A2.343,2.343,0,0,1,47.113,24.6Zm0,0"/></svg>