<svg xmlns="http://www.w3.org/2000/svg" width="64" height="53.059" viewBox="0 0 64 53.059"><g transform="translate(0 -43.77)"><g transform="translate(0 43.77)"><g transform="translate(0 0)"><path d="M62.34,49.478H22.9v-1.56a4.153,4.153,0,0,0-4.149-4.149H12.31a4.153,4.153,0,0,0-4.149,4.149v1.56h-6.5a1.659,1.659,0,0,0,0,3.319h6.5v1.559A4.153,4.153,0,0,0,12.31,58.5h6.438A4.153,4.153,0,0,0,22.9,54.356V52.8H62.34a1.659,1.659,0,0,0,0-3.319ZM19.578,54.356a.831.831,0,0,1-.83.83H12.31a.831.831,0,0,1-.83-.83V47.919a.831.831,0,0,1,.83-.83h6.438a.831.831,0,0,1,.83.83Z" transform="translate(0 -43.77)"/></g></g><g transform="translate(0 62.252)"><g transform="translate(0 0)"><path d="M62.341,197.335h-6.5v-1.56a4.153,4.153,0,0,0-4.149-4.149H45.252a4.153,4.153,0,0,0-4.149,4.149v1.56H1.659a1.659,1.659,0,0,0,0,3.319H41.1v1.559a4.153,4.153,0,0,0,4.149,4.148H51.69a4.153,4.153,0,0,0,4.149-4.148v-1.559h6.5a1.659,1.659,0,0,0,0-3.319Zm-9.821,4.878a.831.831,0,0,1-.83.83H45.252a.831.831,0,0,1-.83-.83v-6.438a.831.831,0,0,1,.83-.83H51.69a.831.831,0,0,1,.83.83Z" transform="translate(0 -191.626)"/></g></g><g transform="translate(0 82.093)"><path d="M62.341,356.061H34.554V354.5a4.153,4.153,0,0,0-4.149-4.148H23.968a4.153,4.153,0,0,0-4.149,4.148v1.559H1.659a1.659,1.659,0,0,0,0,3.319h18.16v1.56a4.153,4.153,0,0,0,4.149,4.148h6.438a4.153,4.153,0,0,0,4.149-4.148v-1.56H62.341a1.659,1.659,0,0,0,0-3.319Zm-31.106,4.879a.831.831,0,0,1-.83.83H23.968a.831.831,0,0,1-.83-.83V354.5a.831.831,0,0,1,.83-.83h6.438a.831.831,0,0,1,.83.83v6.438Z" transform="translate(0 -350.353)"/></g></g></svg>