<svg xmlns="http://www.w3.org/2000/svg" width="64" height="59.336" viewBox="0 0 64 59.336"><g transform="translate(0 -2.072)"><g transform="translate(0 2.071)"><path d="M61.1,44.5A29.668,29.668,0,0,0,24.4,3.779a29.4,29.4,0,0,0-16.763,15l-3.263-9.2A2.252,2.252,0,1,0,.131,11.083L5.367,25.847a2.251,2.251,0,0,0,2.874,1.369l15.586-5.528a2.252,2.252,0,1,0-1.506-4.244l-10.91,3.87a25.167,25.167,0,0,1,46.624,2.013A25.17,25.17,0,0,1,15.879,48.876a2.251,2.251,0,0,0-3.3,3.066A29.679,29.679,0,0,0,61.1,44.5Z" transform="translate(0 -2.071)"/><path d="M36.855,38.4c1.243,0,1.688-.58,1.688-1.822V16.314a2.251,2.251,0,0,0-4.5,0V33.9H19.97a2.251,2.251,0,1,0,0,4.5Z" transform="translate(2.226 -0.564)"/></g></g></svg>