<svg xmlns="http://www.w3.org/2000/svg" width="60" height="60" viewBox="0 0 60 60"><defs><style>.a{opacity:0.5;}.b{fill:#26a5dd;}</style></defs><g class="a" transform="translate(-6.6 -6.6)"><path class="b" d="M8.724,38.724h4.663A23.29,23.29,0,0,0,34.476,59.812v4.663a2.124,2.124,0,1,0,4.249,0V59.812A23.29,23.29,0,0,0,59.812,38.724h4.663a2.124,2.124,0,1,0,0-4.249H59.812A23.29,23.29,0,0,0,38.724,13.388V8.724a2.124,2.124,0,0,0-4.249,0v4.663A23.29,23.29,0,0,0,13.388,34.476H8.724A2.1,2.1,0,0,0,6.6,36.6a2.134,2.134,0,0,0,2.124,2.124Zm17.461-4.249H17.636A19.061,19.061,0,0,1,34.476,17.636v8.549a2.124,2.124,0,1,0,4.249,0V17.636A19.061,19.061,0,0,1,55.564,34.476H47.015a2.124,2.124,0,0,0,0,4.249h8.549A19.061,19.061,0,0,1,38.724,55.564V47.015a2.124,2.124,0,1,0-4.249,0v8.549A19.061,19.061,0,0,1,17.636,38.724h8.549A2.134,2.134,0,0,0,28.31,36.6a2.169,2.169,0,0,0-2.124-2.124Z" transform="translate(0 0)"/></g></svg>