<svg width="33" height="23" viewBox="0 0 33 23" fill="none" xmlns="http://www.w3.org/2000/svg">
<path d="M27.5382 10.0625C29.6867 10.0625 31.4445 8.35352 31.4445 6.15625C31.4445 4.00781 29.6867 2.25 27.5382 2.25C25.341 2.25 23.632 4.00781 23.632 6.15625C23.632 8.35352 25.341 10.0625 27.5382 10.0625ZM27.5382 3.8125C28.8078 3.8125 29.882 4.88672 29.882 6.15625C29.882 7.47461 28.8078 8.5 27.5382 8.5C26.2199 8.5 25.1945 7.47461 25.1945 6.15625C25.1945 4.88672 26.2199 3.8125 27.5382 3.8125ZM16.6007 11.625C19.5792 11.625 22.0695 9.18359 22.0695 6.15625C22.0695 3.17773 19.5792 0.6875 16.6007 0.6875C13.5734 0.6875 11.132 3.17773 11.132 6.15625C11.132 9.18359 13.5734 11.625 16.6007 11.625ZM16.6007 2.25C18.7492 2.25 20.507 4.00781 20.507 6.15625C20.507 8.35352 18.7492 10.0625 16.6007 10.0625C14.4035 10.0625 12.6945 8.35352 12.6945 6.15625C12.6945 4.00781 14.4035 2.25 16.6007 2.25ZM28.5148 11.625H26.5617C25.7804 11.625 25.0968 11.8691 24.5109 12.2598C24.9992 12.6016 25.3898 12.9434 25.7804 13.3828C26.0246 13.2852 26.2687 13.1875 26.5617 13.1875H28.5148C29.6867 13.1875 30.6632 14.2617 30.6632 15.5312C30.6632 15.9707 31.005 16.3125 31.4445 16.3125C31.8351 16.3125 32.2257 15.9707 32.2257 15.5312C32.2257 13.3828 30.5167 11.625 28.5148 11.625ZM5.66323 10.0625C7.81167 10.0625 9.56948 8.35352 9.56948 6.15625C9.56948 4.00781 7.81167 2.25 5.66323 2.25C3.46597 2.25 1.75698 4.00781 1.75698 6.15625C1.75698 8.35352 3.46597 10.0625 5.66323 10.0625ZM5.66323 3.8125C6.93276 3.8125 8.00698 4.88672 8.00698 6.15625C8.00698 7.47461 6.93276 8.5 5.66323 8.5C4.34487 8.5 3.31948 7.47461 3.31948 6.15625C3.31948 4.88672 4.34487 3.8125 5.66323 3.8125ZM20.507 12.6016C18.8468 12.6016 18.4562 13.1875 16.6007 13.1875C14.6964 13.1875 14.3058 12.6016 12.6457 12.6016C10.8878 12.6016 9.17886 13.4316 8.15347 14.8965C7.56753 15.8242 7.22573 16.8984 7.22573 18.0703V20.2188C7.22573 21.5371 8.25112 22.5625 9.56948 22.5625H23.632C24.9015 22.5625 25.9757 21.5371 25.9757 20.2188V18.0703C25.9757 16.8984 25.5851 15.8242 24.9992 14.8965C23.9738 13.4316 22.2648 12.6016 20.507 12.6016ZM24.4132 20.2188C24.4132 20.6582 24.0226 21 23.632 21H9.56948C9.13003 21 8.78823 20.6582 8.78823 20.2188V18.0703C8.78823 17.2402 8.98355 16.459 9.47183 15.7754C10.1066 14.7988 11.3273 14.1641 12.6457 14.1641C14.0128 14.1641 14.5011 14.75 16.6007 14.75C18.7003 14.75 19.1398 14.1641 20.507 14.1641C21.8253 14.1641 23.046 14.7988 23.6808 15.7754C24.1691 16.459 24.3644 17.2402 24.3644 18.0703V20.2188H24.4132ZM8.64175 12.2598C8.05581 11.8691 7.37222 11.625 6.6398 11.625H4.68667C2.63589 11.625 0.975733 13.3828 0.975733 15.5312C0.975733 15.9707 1.31753 16.3125 1.75698 16.3125C2.14761 16.3125 2.53823 15.9707 2.53823 15.5312C2.53823 14.2617 3.46597 13.1875 4.68667 13.1875H6.6398C6.88394 13.1875 7.12808 13.2852 7.37222 13.3828C7.76284 12.9434 8.15347 12.6016 8.64175 12.2598Z" fill="#2D86DA"/>
</svg>
