<svg xmlns="http://www.w3.org/2000/svg" xmlns:xlink="http://www.w3.org/1999/xlink" width="1440.254" height="531.671" viewBox="0 0 1440.254 531.671"><defs><style>.a{fill:none;}.b{fill:url(#a);}.c{clip-path:url(#b);}.d{fill:#dcd0fe;}.e{fill:#6242ba;}.f{fill:#bba4ff;}.g{fill:#f3a9b8;}.h{fill:#ea4272;}.i{fill:#e87d91;}.j{fill:#4f2caf;}.k{fill:#dfd2fd;}.l{fill:#d7c5ff;}.m{fill:#9c89e5;}.n{fill:#31193b;}.o{fill:#fff;}</style><linearGradient id="a" x1="0.5" y1="0.056" x2="0.5" y2="0.768" gradientUnits="objectBoundingBox"><stop offset="0" stop-color="#fff"/><stop offset="0.897" stop-color="#ece8ff"/><stop offset="1" stop-color="#eae6ff"/></linearGradient><clipPath id="b"><rect class="a" width="813.746" height="520.759"/></clipPath></defs><g transform="translate(236.382 -59.934)"><g transform="translate(76.873 59.934)"><rect class="b" width="1439.746" height="470.791" transform="translate(-313 48)"/></g><g transform="translate(76.873 59.934)"><g class="c"><g transform="translate(18.461 265.597)"><g transform="translate(0 101.945)"><g transform="translate(0 31.633)"><path class="a" d="M134.354,384.282l2.75,4.6q-1.1-2.229-2.184-4.586Z" transform="translate(-74.367 -329.573)"/><path class="d" d="M94.734,411.4c5.63,14.114,13.948,26.654,18.884,32.082l46.538-.322L140,411.4Z" transform="translate(-88.819 -318.744)"/><path class="d" d="M119.658,387.248l-28.006-1.906c-3.005,10.86-.243,24.041,4.523,36.111h45.189Z" transform="translate(-90.4 -329.15)"/><path class="d" d="M182.8,441.03l20.339-.14s-1.6-10.368-5.07-25.1l-17.951,19.1Z" transform="translate(-57.673 -316.989)"/><path class="d" d="M147.368,345.533c-13.581,2.071-18.658,10.081-19.107,20.283l28.9,2.144Z" transform="translate(-76.59 -345.048)"/><path class="d" d="M168.66,440.9l23.265-.161L181.343,416.52H154.1Z" transform="translate(-67.166 -316.698)"/><path class="d" d="M184.709,448.382l18.005-19.157c-3.288-13.883-8.23-31.548-15.059-48.077l-20.516,27.021Z" transform="translate(-62.409 -330.825)"/><path class="d" d="M150.589,404.791l-14.843,25.467,9.857,15.534,29.353-.2Z" transform="translate(-73.86 -321.382)"/><path class="d" d="M171.1,417.675l20.521-27.029c-5.361-12.912-11.875-25.1-19.659-34.2l-16.095,26.366Z" transform="translate(-66.522 -340.692)"/><path class="d" d="M157.331,362.432l-29.071-2.156c-.343,10.211,3.84,22.53,8.726,33.256l34.445,1.176Z" transform="translate(-76.597 -339.16)"/><path class="d" d="M176.586,360.666c-8.639-10-18.826-16.209-30.719-15.41-1.174.078-2.282.2-3.35.355l18.046,41.307Z" transform="translate(-71.39 -345.187)"/><path class="d" d="M141.518,441.37l14.849-25.477-14.921-24.982a76.059,76.059,0,0,0-13.926-14.765l-8.167,30.294Z" transform="translate(-79.839 -332.822)"/><path class="d" d="M136.953,388.881l23.986,40.159h27.3l-19.034-43.57L134.769,384.3Q135.848,386.648,136.953,388.881Z" transform="translate(-74.216 -329.568)"/><path class="d" d="M133.243,378.112c-8.733-6.7-19.1-10.133-30.382-4.948l22.259,35.08Z" transform="translate(-85.855 -335.016)"/><path class="d" d="M106.733,372.552c-.569.27-1.14.554-1.713.868a27.063,27.063,0,0,0-13.634,16.688l27.68,1.882Z" transform="translate(-90.041 -334.258)"/><path class="e" d="M147.825,443.176l-.055.092-.293-.178.141-.242-22.165-34.93-.02.076-.329-.092.1-.375-22.259-35.08c-.105.048-.209.1-.314.147l12.333,19.437.341.024-.023.348-.086-.006L136.9,426.6h.315v.35h-.094l20.153,31.76.405,0Z" transform="translate(-85.939 -334.3)"/><path class="e" d="M193.853,463.053l-.246-.244.176-.186-17.57-40.214-.063.083-.269-.214.175-.229L160.823,387.18l-.048.08-.289-.186.169-.277L142.609,345.49c-.12.017-.228.042-.348.06l9.8,22.426.285.021-.025.348-.1-.008,14.1,32.275.273.01-.011.35-.106,0,19.034,43.57h.265v.35h-.112l10.582,24.222.373,0-2.682-6.139Z" transform="translate(-71.483 -345.066)"/><path class="e" d="M150.515,411.59l.292.179-.143.248,24.366,40.8.4,0L160.867,428.43h-.306v-.35h.1l-23.986-40.159c.183.367.363.74.546,1.1-.54-.772-1.1-1.548-1.676-2.324l14.921,24.982Z" transform="translate(-73.934 -328.608)"/><path class="e" d="M119.091,386.979,91.411,385.1c-.033.113-.063.228-.094.343l28.006,1.906Z" transform="translate(-90.066 -329.248)"/><path class="e" d="M111.986,386.814l.023-.348-.34-.023.232.366Z" transform="translate(-82.642 -328.71)"/><path class="e" d="M119.419,406.506l8.167-30.294c-.1-.076-.194-.154-.292-.229l-8.123,30.131Z" transform="translate(-79.906 -332.887)"/><path class="e" d="M119.1,397.89l.329.093.02-.076-.249-.392Z" transform="translate(-79.933 -324.288)"/><path class="e" d="M139.82,411.147H94.631c.046.116.094.232.141.35h45.269Z" transform="translate(-88.857 -318.844)"/><path class="e" d="M128.057,411.5v-.35h-.315l.222.35Z" transform="translate(-76.779 -318.844)"/><path class="e" d="M150.443,404.55l-14.849,25.477.207.327,14.843-25.467Z" transform="translate(-73.915 -321.478)"/><path class="e" d="M135.491,423l.293.179.054-.093-.207-.327Z" transform="translate(-73.953 -314.207)"/><path class="e" d="M146.82,404.665l-.293-.179-.053.09.2.337Z" transform="translate(-69.946 -321.504)"/><path class="e" d="M157.167,362.171l-28.9-2.144c-.005.115,0,.232-.008.348l29.071,2.156Z" transform="translate(-76.592 -339.26)"/><path class="e" d="M149.7,361.928l.024-.348-.285-.021.158.362Z" transform="translate(-68.865 -338.648)"/><path class="e" d="M155.907,382.884,172,356.518c-.079-.092-.16-.178-.239-.27L155.739,382.5Z" transform="translate(-66.567 -340.769)"/><path class="e" d="M155.615,375.286l.289.186.049-.08-.168-.384Z" transform="translate(-66.612 -333.277)"/><path class="e" d="M169.25,385.572l-.156-.355-34.445-1.176.164.356Z" transform="translate(-74.26 -329.669)"/><path class="e" d="M160.15,385.24l.012-.35-.274-.009.155.356Z" transform="translate(-65.054 -329.334)"/><path class="e" d="M167.181,408.274,187.7,381.253c-.051-.123-.1-.246-.153-.369l-20.521,27.029Z" transform="translate(-62.451 -330.93)"/><path class="e" d="M166.9,400.428l.269.215.063-.083-.158-.361Z" transform="translate(-62.497 -323.216)"/><path class="e" d="M154.153,416.62H181.4l-.153-.35h-27.3Z" transform="translate(-67.222 -316.798)"/><path class="e" d="M174.213,416.62v-.35h-.264l.153.35Z" transform="translate(-59.924 -316.798)"/><path class="e" d="M153.874,416.27v.35h.3l-.209-.35Z" transform="translate(-67.247 -316.798)"/></g><path class="e" d="M549.653,364.938l.075-4.639-1.471,4.64Z" transform="translate(76.609 -307.518)"/><g transform="translate(66.293 74.414)"><path class="a" d="M175.336,447.053l-.044-.937-.2.009Z" transform="translate(-125.8 -347.659)"/><path class="e" d="M172.32,380.307l4.325,92.077,2.5-.112S185.816,381.774,172.32,380.307Z" transform="translate(-126.812 -373.942)"/><path class="e" d="M182.152,474.217,177.826,382.1c-.044,0-.086-.01-.131-.007-6.6.293-6.184,20.427-3.868,41.8-4.47-24.857-10.66-49.392-17.54-48.084l25.667,98.417Z" transform="translate(-132.66 -375.758)"/><path class="e" d="M183.63,468.789l.063-.035.329.9,2.622-.6-46.511-80.856C130.55,397.542,183.63,468.789,183.63,468.789Z" transform="translate(-138.975 -370.792)"/><path class="e" d="M186.973,473.812l.546.389h.022l-25.648-98.34c-7.24,2.3.048,31.893,8.086,58.092-10.319-22.138-22.933-45.023-29.572-41.337a3.192,3.192,0,0,0-.392.274l46.6,81.006Z" transform="translate(-138.596 -375.718)"/><path class="f" d="M140.1,388.9a2.808,2.808,0,0,1,.263-.229l-1.284-2.231" transform="translate(-138.939 -371.494)"/><path class="f" d="M140.086,388.029a2.809,2.809,0,0,0-.263.229l46.511,80.856.351-.08Z" transform="translate(-138.666 -370.858)"/><path class="f" d="M182.042,474.211l-25.667-98.417c-.035.006-.071,0-.108.011-.078.018-.146.057-.221.081l25.648,98.34Z" transform="translate(-132.748 -375.744)"/><path class="f" d="M172.069,380.292l4.326,92.114.341-.015-4.325-92.077A3.055,3.055,0,0,0,172.069,380.292Z" transform="translate(-126.904 -373.948)"/></g><g transform="translate(94.095)"><path class="f" d="M164.8,334.716c-22.785,5.343,33.147,148.6,33.147,148.6l.117-.027c.086,1.015.135,1.577.135,1.577l4.053.216L165.613,334.618A4.992,4.992,0,0,0,164.8,334.716Z" transform="translate(-159.346 -317.774)"/><path class="f" d="M202.071,489.971l.7.866.753.179,1.316-168.43c-12.857-.586-14.079,50.4-12.594,96.194-6.64-38.672-16.4-79.435-28.06-79.393l36.659,150.52Z" transform="translate(-157.58 -322.581)"/><path class="f" d="M194.456,491.368l31.6-148.942c-.083-.024-.157-.064-.243-.085-10.637-2.534-18.678,29.712-24.229,64.791,3.617-41.449,4.373-83.161-7.009-84.511l-1.316,168.462Z" transform="translate(-146.975 -322.566)"/><path class="f" d="M225.975,336.855,194.381,485.761l2.873.684S247.272,344.623,225.975,336.855Z" transform="translate(-146.567 -316.881)"/><path class="e" d="M193.353,491.1l1.316-168.462c-.1-.013-.2-.046-.3-.052l-.037,0-1.316,168.43Z" transform="translate(-147.066 -322.581)"/><path class="e" d="M164.279,334.591c-.113,0-.228.029-.341.038l36.644,150.462.356.02Z" transform="translate(-157.672 -317.785)"/><path class="e" d="M225.739,336.773l-31.6,148.942.333.078,31.594-148.906C225.958,336.849,225.851,336.807,225.739,336.773Z" transform="translate(-146.656 -316.914)"/></g><path class="f" d="M549.355,360.623l-.075,4.639h.341l.093-5.774Z" transform="translate(76.982 -307.842)"/><g transform="translate(597.403 17.953)"><path class="e" d="M585.545,346.618,549.623,459.9l-.093,5.774h2.387s.063-.451.173-1.264l.093.028S601.607,354.624,585.545,346.618Z" transform="translate(-520.329 -330.935)"/><path class="e" d="M550.108,467.3l3.656-.67L531.987,346.263C517.111,356.13,550.108,467.3,550.108,467.3Z" transform="translate(-528.134 -331.077)"/><path class="e" d="M553.466,470.8l.6-.666h.059l1.851-5.834,2.083-128.843c-8.947,1.265-9.994,34.492-8.777,67.635-3.043-28.448-8.2-54.723-16.862-53.137a4.091,4.091,0,0,0-1.228.456l21.8,120.478Z" transform="translate(-527.019 -335.393)"/><path class="e" d="M585.2,350.965c-.124-.049-.237-.112-.368-.15-9.667-2.811-19.568,30.67-26.7,62.5,3.052-36.8,4.134-77.9-6.262-77.9-.064,0-.124.018-.187.022l-2.066,127.748Z" transform="translate(-520.299 -335.411)"/><path class="f" d="M530.957,346.312c.1-.067.212-.112.317-.171" transform="translate(-527.104 -331.126)"/><path class="f" d="M531.274,346.141c-.105.059-.216.1-.317.171l21.778,120.367.336-.06Z" transform="translate(-527.104 -331.126)"/><path class="f" d="M549.708,463.175l2.066-127.747c-.116.006-.229.022-.343.039l-2.083,128.843Z" transform="translate(-520.395 -335.405)"/><path class="f" d="M549.6,459.936,585.52,346.655c-.1-.05-.212-.087-.318-.129L549.617,458.742Z" transform="translate(-520.305 -330.972)"/></g><g transform="translate(642.066 3.107)"><path class="a" d="M614.777,380.319a120.489,120.489,0,0,1-7.315,10.081c1.449-1.78,2.87-3.475,4.272-5.111l3.581-5.076Z" transform="translate(-543.861 -302.672)"/><path class="a" d="M617.133,377.037l-4.9,6.945c1.86-2.11,3.684-4.107,5.459-5.97Z" transform="translate(-542.121 -303.94)"/><path class="d" d="M588.581,422.555l15.968,22.611,19.95-25.686L608,395.028Z" transform="translate(-550.748 -296.755)"/><path class="d" d="M624.174,380.289l-30.747,6L581.7,415.862l19.022-1.669,20.41-28.933c-1.4,1.636-2.822,3.33-4.272,5.111A120.521,120.521,0,0,0,624.174,380.289Z" transform="translate(-553.259 -302.642)"/><path class="d" d="M651.033,384.587l-12.182-20.464c-6.562,3.936-14.019,10-22.437,18.791l15.263,26.592Z" transform="translate(-540.596 -309.098)"/><path class="d" d="M615.614,383.7l-12.649,17.932L619.473,426.1l16.883-21.736-15.284-26.63C619.3,379.6,617.474,381.593,615.614,383.7Z" transform="translate(-545.502 -303.662)"/><path class="d" d="M666.823,378.836c-.981-5.856-3.9-12.277-9.046-16.269l-10.453,13.459Z" transform="translate(-529.321 -309.719)"/><path class="d" d="M634.612,394.433l32.124,6.258c3.525-8.452,5.1-15.9,5.1-21.413a26.53,26.53,0,0,0-.322-4.011l-19.8-2.855Z" transform="translate(-533.958 -305.787)"/><path class="d" d="M662.7,363.478c-6.372-4.762-16.071-5.828-29.63,2.207l12.112,20.348Z" transform="translate(-534.52 -310.835)"/><path class="d" d="M622.8,325.629c-5.717-1.665-13.064-.9-22.048,3.065a36.216,36.216,0,0,0-10.554,7.362l19.612,22.328Z" transform="translate(-550.158 -324.802)"/><path class="d" d="M607.653,428.4l32.554,5.723a139.459,139.459,0,0,0,21-21.227l-36.151-6.9Z" transform="translate(-543.792 -292.378)"/><path class="d" d="M593.358,402.637l-22.4-23.314c-3.38,14.64-5.77,29.418-7.441,42.274l17.338,12.561Z" transform="translate(-559.89 -303.027)"/><path class="d" d="M564.438,409.812c-2.844,22.023-3.578,38.3-3.578,38.3h10.606l10.23-25.8Z" transform="translate(-560.86 -290.851)"/><path class="d" d="M586.222,406.443,568.9,450.119h4.244l31.979-45.334Z" transform="translate(-557.927 -292.859)"/><path class="d" d="M628.96,339.595c-2.214-7.064-6.511-12.142-12.9-14.13L609.582,341.8Z" transform="translate(-543.088 -324.537)"/><path class="d" d="M614.387,355.462l-19.715-22.446c-6.913,6.836-12.653,16.7-17.408,28.14l24.1,27.155Z" transform="translate(-554.876 -321.521)"/><path class="d" d="M604.217,380.538l-24.1-27.159a234.666,234.666,0,0,0-11.079,35.9l22.445,23.363Z" transform="translate(-557.876 -313.389)"/><path class="d" d="M590.405,395.4l30.863-6.019A107.9,107.9,0,0,0,635.626,356.5l-31.864,5.215Z" transform="translate(-550.083 -312.141)"/><path class="d" d="M594.3,414.913,572.32,446.074h31.287l6.652-8.565Z" transform="translate(-556.68 -288.814)"/><path class="d" d="M595.564,443.154h26.408a162.707,162.707,0,0,0,22.283-15.228l-32.435-5.7Z" transform="translate(-548.201 -285.894)"/><path class="d" d="M600.3,369.606l31.8-5.2c2.552-10.9,2.673-20.9.355-28.6l-19.634,2.233Z" transform="translate(-546.473 -320.408)"/><path class="d" d="M639.49,388.368l-18.909,24.346,36.15,6.9a110.151,110.151,0,0,0,14.988-24.971Z" transform="translate(-539.076 -299.415)"/><path class="e" d="M586.217,438.159l-.03-.349.278-.024,11.729-29.577-.09.017-.064-.343.307-.06,13.357-33.68-.1.017-.053-.346.3-.05,12.52-31.569-.1.013-.037-.348.284-.032L631,325.494c-.109-.035-.218-.069-.329-.1l-12.99,32.755.181.207-.252.234-.072-.083-13.027,32.849.183.206-.254.235-.072-.081-12.732,32.107.181.19-.243.245-.079-.083-12.5,31.521.175.127-.2.287-.111-.081-10.23,25.8H569l17.322-43.677Z" transform="translate(-558.025 -324.566)"/><path class="e" d="M611.836,446.09l.059-.344.284.05,17.4-22.408-.1-.02.062-.344.278.053,18.909-24.346-.1-.02.064-.343.277.055,17.1-22.021-.1-.014.048-.347.3.043,10.453-13.459c-.091-.07-.186-.136-.277-.2l-17.518,22.555.127.213-.291.182-.061-.1L639.4,410.186l.125.22-.292.178-.06-.1-16.884,21.736.131.193-.28.2-.072-.108-19.95,25.687.132.186-.277.206-.076-.108-6.652,8.566h.435l16.256-20.93Z" transform="translate(-548.318 -309.778)"/><path class="e" d="M594.276,427.86l.277-.2.072.1,19.419-27.527-.138-.2.28-.2.07.1L626.9,382q-1.109,1.26-2.24,2.576l-20.41,28.933.078-.007.03.348-.371.032-31.98,45.336h.422l21.982-31.161Z" transform="translate(-556.793 -301.958)"/><path class="e" d="M588.427,415l15.958,22.6.221-.285L588.638,414.7Z" transform="translate(-550.805 -288.899)"/><path class="e" d="M600.2,431.248l.277-.205-.132-.187-.221.285Z" transform="translate(-546.54 -282.446)"/><path class="e" d="M588.6,414.626l-.277.205.139.2.211-.3Z" transform="translate(-550.842 -288.928)"/><path class="e" d="M602.81,395.114l16.5,24.451.222-.286-16.509-24.466Z" transform="translate(-545.558 -296.841)"/><path class="e" d="M614.971,412.69l.28-.2-.131-.194-.222.286Z" transform="translate(-541.148 -289.858)"/><path class="e" d="M602.989,394.74l-.28.2.137.2.212-.3Z" transform="translate(-545.595 -296.87)"/><path class="e" d="M631.517,404.437l.227-.294L616.48,377.551c-.083.087-.164.168-.247.256Z" transform="translate(-540.662 -303.735)"/><path class="e" d="M627.492,396.951l.293-.178-.125-.219-.227.293Z" transform="translate(-536.577 -296.146)"/><path class="e" d="M645.261,384.346,633.149,364l-.295.175,12.182,20.464Z" transform="translate(-534.599 -309.148)"/><path class="e" d="M641.842,378.934l.291-.182-.127-.213-.226.291Z" transform="translate(-531.343 -303.34)"/><path class="e" d="M647.144,372.5l19.8,2.855c-.019-.122-.035-.241-.056-.362l-19.5-2.81Z" transform="translate(-529.387 -305.878)"/><path class="e" d="M647.121,372.154l-.048.346.1.014.247-.318Z" transform="translate(-529.413 -305.89)"/><path class="e" d="M634.436,388.456l32.229,6.28c.048-.111.089-.22.135-.33l-32.124-6.258Z" transform="translate(-534.022 -299.503)"/><path class="e" d="M634.426,388.109l-.064.343.1.02.24-.309Z" transform="translate(-534.049 -299.518)"/><path class="e" d="M620.4,406.077l36.151,6.9c.082-.1.158-.207.239-.311l-36.15-6.9Z" transform="translate(-539.14 -292.467)"/><path class="e" d="M620.332,406.073l.1.019.241-.31-.279-.053Z" transform="translate(-539.167 -292.482)"/><path class="e" d="M607.475,422.313l32.435,5.7c.12-.1.243-.193.362-.291L607.718,422Z" transform="translate(-543.857 -285.983)"/><path class="e" d="M607.4,422.31l.1.017.242-.312-.283-.05Z" transform="translate(-543.883 -285.997)"/><path class="e" d="M581.593,406.549l18.9-1.658.264-.374-19.023,1.669Z" transform="translate(-553.297 -292.966)"/><path class="e" d="M581.5,405.734l.029.349.1-.009.144-.364Z" transform="translate(-553.333 -292.489)"/><path class="e" d="M595.815,404.861l-.029-.348-.078.007-.264.374Z" transform="translate(-548.245 -292.968)"/><path class="e" d="M580.872,422.093l-17.338-12.561c-.018.132-.034.262-.052.392l17.258,12.5Z" transform="translate(-559.904 -290.963)"/><path class="e" d="M576.238,418.921l.2-.286-.176-.127-.132.333Z" transform="translate(-555.291 -287.378)"/><path class="e" d="M591.51,402.4l-22.445-23.363c-.03.134-.061.269-.093.4l22.4,23.314Z" transform="translate(-557.901 -303.142)"/><path class="e" d="M585.463,396.167l.242-.246-.182-.189-.14.353Z" transform="translate(-551.915 -296.474)"/><path class="e" d="M613.36,380.332l.291-.413-.56.109c-.089.137-.18.271-.269.409Z" transform="translate(-541.906 -302.789)"/><path class="e" d="M590.293,386.4l30.747-6c.089-.137.18-.271.269-.409l-30.863,6.019Z" transform="translate(-550.124 -302.758)"/><path class="e" d="M590.18,384.358l.064.343.091-.018.153-.385Z" transform="translate(-550.165 -301.04)"/><path class="e" d="M601.4,380.28l-24.1-27.155c-.049.118-.1.238-.145.355l24.1,27.159Z" transform="translate(-554.915 -313.49)"/><path class="e" d="M594.887,372.971l.253-.235-.183-.206-.143.36Z" transform="translate(-548.474 -305.74)"/><path class="e" d="M600.192,361.823l31.864-5.215c.03-.123.056-.245.085-.368l-31.8,5.2Z" transform="translate(-546.513 -312.246)"/><path class="e" d="M600.083,360.008l.053.346.1-.016.15-.379Z" transform="translate(-546.553 -310.761)"/><path class="e" d="M609.878,355.172l-19.612-22.328-.247.241,19.715,22.446Z" transform="translate(-550.224 -321.59)"/><path class="e" d="M604.537,349.24l.253-.234-.182-.207-.143.359Z" transform="translate(-544.954 -315.218)"/></g><g transform="translate(633.006 71.861)"><path class="f" d="M600.743,390.172a2.813,2.813,0,0,0-1.082-1.094c-5.971-3.317-17.319,17.27-26.6,37.183C580.2,403,586.676,376.768,580.584,374.1L558.3,459.26Z" transform="translate(-552.733 -373.868)"/><path class="f" d="M580.373,374.043c-.044-.011-.081-.035-.126-.045-6.227-1.427-11.834,20.765-15.875,43.241,2.084-19.222,2.459-37.333-3.479-37.6-.03,0-.06.006-.09,0l-2.809,79.935Z" transform="translate(-552.845 -373.933)"/><path class="f" d="M557.166,437.526l.363.016.277-1.058Z" transform="translate(-553.148 -348.952)"/><path class="f" d="M561.838,378.032c-12.131,1.345-6.133,82.725-6.133,82.725l2.144.1,1.145-1.865Z" transform="translate(-554.221 -372.296)"/><path class="f" d="M557.963,456.386l-.036,1.041,2.979.683s.106-.288.3-.807l.057.032s44.656-59.942,39.8-71.491l-42.918,69.865Z" transform="translate(-552.869 -369.176)"/><path class="e" d="M558.516,459.294,580.8,374.131a2.564,2.564,0,0,0-.323-.119L558.1,459.552l2.809-79.935a2.79,2.79,0,0,0-.343.021l-2.844,80.955Z" transform="translate(-552.946 -373.902)"/><path class="e" d="M558.322,435.77l-.614,1-.277,1.058.169.008.49-.349.017,0,.037-1.042Z" transform="translate(-553.05 -349.237)"/><path class="e" d="M558.008,436.349l.016-.466-1.146,1.865.391.017.64-1.042Z" transform="translate(-553.252 -349.192)"/><path class="e" d="M558.383,454.672l-.3,1.141L601,385.948a3.706,3.706,0,0,0-.179-.364Z" transform="translate(-552.813 -369.28)"/><path class="e" d="M557.733,436.72l-.1.374.614-1,.3-1.14-.8,1.3Z" transform="translate(-552.976 -349.563)"/></g><path class="e" d="M180.13,429.623l.08-.085-.15-.344-.175.186Z" transform="translate(-57.76 -280.003)"/><path class="e" d="M563.482,409.924c.018-.13.034-.26.052-.392" transform="translate(82.163 -287.856)"/><path class="e" d="M590.019,333.085l.247-.241" transform="translate(91.842 -318.483)"/><path class="e" d="M609.476,338.134l19.633-2.233c-.034-.115-.075-.225-.111-.339l-19.378,2.2Z" transform="translate(98.939 -317.397)"/><path class="e" d="M609.374,337.17l.037.347.1-.012.146-.368Z" transform="translate(98.902 -316.768)"/></g><path class="g" d="M544.505,262.775s-4.111-6.706-3.315-7.873c.7-.928,2.925,3.416,2.925,3.416s-.725-4.566-1.348-6.779,2.044-2.914,4.261.917,1.291,10.319,1.291,10.319Z" transform="translate(73.994 -249.731)"/><g transform="translate(153.573 14.39)"><path class="g" d="M413.72,308.335s-4.943-1.6-5.561,6c0,4.351,1.359,4.234,1.359,4.234l5.293-4.234Z" transform="translate(-128.067 -240.772)"/><g transform="translate(137.063 153.352)"><path class="h" d="M313.145,369.6l-9.788,168.891h9.9L339,395.154l15.13,143.337H363.4L363.93,369.6Z" transform="translate(-303.357 -369.6)"/></g><path class="i" d="M5.756,0h4.2a5.756,5.756,0,0,1,5.756,5.756V21.481a0,0,0,0,1,0,0H0a0,0,0,0,1,0,0V5.756A5.756,5.756,0,0,1,5.756,0Z" transform="translate(180.473 80.857) rotate(-180)"/><g transform="translate(155.87 43.984)"><path class="g" d="M321.3,291.458a3.7,3.7,0,0,0-4.16,4.019c0,4.47,5.358,4.923,5.358,4.923Z" transform="translate(-317.138 -291.445)"/><path class="g" d="M338.95,291.458a3.7,3.7,0,0,1,4.16,4.019c0,4.47-5.358,4.923-5.358,4.923Z" transform="translate(-309.619 -291.445)"/></g><rect class="g" width="25.586" height="36.582" rx="9.374" transform="translate(185.409 65.269) rotate(180)"/><path class="j" d="M264.208,374.3l-8.436,162.311h13.29l23.921-129.324,15.361,129.324h13.3l.866-162.311Z" transform="translate(-183.652 -214.37)"/><path class="k" d="M318.828,338.589c0-36.7-17.873-31.349-35.769-31.349s-17.151,31.349-17.151,31.349l-5.212,69c20.549,7.145,40.881,7.3,60.982,0Z" transform="translate(-181.856 -241.262)"/><g transform="translate(97.971 40.23)"><line class="g" x1="1.152" y1="8.593"/></g><path class="i" d="M285.595,316.613h0c-4.171,0-7.55-.111-7.55-4.386v-12.9h15.1v12.9C293.145,316.5,289.764,316.613,285.595,316.613Z" transform="translate(-175.527 -244.315)"/><rect class="g" width="24.589" height="35.157" rx="9.009" transform="translate(122.362 60.673) rotate(180)"/><path class="f" d="M551.066,338.589c0-36.7-17.873-31.349-35.769-31.349s-17.151,31.349-17.151,31.349l-3.5,62.607q29.151,11.956,58.3,0Z" transform="translate(-96.518 -241.262)"/><path class="h" d="M496.906,374.3,488.47,536.614h13.289L526.5,398.861l14.54,137.753h13.3L555.21,374.3A82.062,82.062,0,0,1,496.906,374.3Z" transform="translate(-98.772 -214.37)"/><g transform="translate(411.55 40.218)"><path class="g" d="M508.479,288.766a3.552,3.552,0,0,0-4,3.861c0,4.3,5.149,4.731,5.149,4.731Z" transform="translate(-504.482 -288.754)"/><path class="g" d="M525.445,288.766a3.552,3.552,0,0,1,4,3.861c0,4.3-5.151,4.731-5.151,4.731Z" transform="translate(-497.256 -288.754)"/></g><path class="i" d="M518.292,317.075h0c-4.171,0-7.55-.572-7.55-4.847v-12.9h15.1v12.9C525.842,316.5,522.461,317.075,518.292,317.075Z" transform="translate(-90.648 -244.315)"/><path class="g" d="M9.008,0h6.572a9.009,9.009,0,0,1,9.009,9.009v17.14a9.008,9.008,0,0,1-9.008,9.008H9.009A9.009,9.009,0,0,1,0,26.149V9.008A9.008,9.008,0,0,1,9.008,0Z" transform="translate(439.938 60.673) rotate(180)"/><path class="l" d="M427.154,310.123s-17.7-1.187-20.856,19.111c-3.8,24.458,9.94,27.25-3.8,64.125h50.786S442.015,379.968,451,349.375,441.168,310.123,427.154,310.123Z" transform="translate(-130.132 -240.007)"/><path class="i" d="M423.476,321.032h0c-4.339,0-7.856-.714-7.856-5.162V302.444h15.713V315.87C431.333,320.318,427.815,321.032,423.476,321.032Z" transform="translate(-125.345 -243.069)"/><g transform="translate(285.545 43.997)"><line class="g" x1="1.199" y1="8.941"/></g><path class="g" d="M424.795,317.1h0A13,13,0,0,1,412,303.978V293.631a13,13,0,0,1,12.792-13.118h0a13,13,0,0,1,12.793,13.118v10.347A13,13,0,0,1,424.795,317.1Z" transform="translate(-126.665 -251.827)"/><g transform="translate(8.103 162.669)"><path class="g" d="M218.113,376.258l-9.248,159.575h9.351L242.54,400.4l14.3,135.431H265.6l.5-159.575Z" transform="translate(-208.865 -376.258)"/></g><path class="h" d="M238.937,320.061s-16.725-1.122-19.706,18.056c-3.591,23.109,9.392,25.749-3.591,60.589h47.984s-10.647-12.652-2.158-41.559S252.178,320.061,238.937,320.061Z" transform="translate(-198.29 -236.037)"/><path class="i" d="M235.463,333.1h0a7.519,7.519,0,0,1-7.423-7.611V312.806h14.846v12.685A7.519,7.519,0,0,1,235.463,333.1Z" transform="translate(-193.767 -238.93)"/><g transform="translate(25.872 59.334)"><path class="g" d="M225.816,302.426a3.492,3.492,0,0,0-3.931,3.8c0,4.223,5.063,4.652,5.063,4.652Z" transform="translate(-221.885 -302.414)"/><path class="g" d="M242.495,302.426a3.492,3.492,0,0,1,3.931,3.8c0,4.223-5.063,4.652-5.063,4.652Z" transform="translate(-214.781 -302.414)"/></g><path class="g" d="M236.71,326.65h0a12.281,12.281,0,0,1-12.088-12.394v-9.776a12.28,12.28,0,0,1,12.088-12.394h0A12.278,12.278,0,0,1,248.8,304.479v9.776A12.279,12.279,0,0,1,236.71,326.65Z" transform="translate(-195.014 -247.206)"/><g transform="translate(323.15 152.518)"><path class="g" d="M449.8,369,439.709,538.729h10.2l26.535-144.045,15.6,144.045H501.6L502.143,369Z" transform="translate(-439.709 -369.004)"/></g><path class="e" d="M472.516,307.7s-18.247-1.224-21.5,19.7c-3.917,25.21,10.247,28.088-3.917,66.1h52.345s-11.613-13.8-2.354-45.336S486.96,307.7,472.516,307.7Z" transform="translate(-113.862 -240.975)"/><path class="i" d="M468.724,321.926h0a8.2,8.2,0,0,1-8.1-8.3V299.784h16.2v13.838A8.2,8.2,0,0,1,468.724,321.926Z" transform="translate(-108.928 -244.131)"/><g transform="translate(342.536 39.789)"><path class="g" d="M458.2,288.461a3.81,3.81,0,0,0-4.288,4.142c0,4.608,5.523,5.074,5.523,5.074Z" transform="translate(-453.913 -288.448)"/><path class="g" d="M476.4,288.461a3.81,3.81,0,0,1,4.288,4.142c0,4.608-5.525,5.074-5.525,5.074Z" transform="translate(-446.163 -288.448)"/></g><path class="g" d="M470.084,314.886h0A13.4,13.4,0,0,1,456.9,301.365V290.7a13.4,13.4,0,0,1,13.185-13.521h0A13.4,13.4,0,0,1,483.27,290.7v10.665A13.4,13.4,0,0,1,470.084,314.886Z" transform="translate(-110.288 -253.158)"/><path class="m" d="M411.571,335.6c0-37.425-18.225-31.967-36.475-31.967S357.607,335.6,357.607,335.6l-3.563,63.841a87.279,87.279,0,0,0,59.453,0Z" transform="translate(-147.806 -242.706)"/><path class="d" d="M356.343,372.016l-8.6,165.511h13.551l25.229-140.469,14.828,140.469h13.564l.883-165.511A102.965,102.965,0,0,1,356.343,372.016Z" transform="translate(-150.105 -215.283)"/><path class="i" d="M378.151,313.717h0c-4.253,0-7.7-.641-7.7-5V295.559h15.4v13.157C385.849,313.076,382.4,313.717,378.151,313.717Z" transform="translate(-141.821 -245.818)"/><path class="g" d="M379.444,309.918h0a12.736,12.736,0,0,1-12.537-12.855v-10.14a12.737,12.737,0,0,1,12.537-12.856h0a12.737,12.737,0,0,1,12.537,12.856v10.14A12.736,12.736,0,0,1,379.444,309.918Z" transform="translate(-143.114 -254.402)"/><path class="e" d="M337.575,311.679s-10.127,3.592-28.11,18.665-31.414,16.72-31.414,16.72l.112,11.528s33.491-4.257,56.881-28.087" transform="translate(-175.525 -239.38)"/><path class="h" d="M236.169,338.907s-23.756-15.319-27.507-59.548c-3.334,0-3.714.02-3.714.02s-5.144,54.7,18.82,81.407" transform="translate(-202.359 -252.288)"/><path class="h" d="M238.918,320.881s10.715,0,32.518,8.206,34.684,3.338,34.684,3.338l1.743,3.361s-30.838,16.706-60.546,2.035" transform="translate(-189.8 -235.705)"/><path class="e" d="M368.647,436.765a157.849,157.849,0,0,1-62.523,0,182.912,182.912,0,0,1,9.036-57.754,51.954,51.954,0,0,0,1.964-26.1c-1.261-6.83-2.8-13.308-1.187-23.673,3.154-20.3,20.856-19.111,20.856-19.111,14.013,0,32.828,8.658,23.844,39.252q-.231.791-.446,1.566a53.534,53.534,0,0,0,1.11,31.091C369.52,406.854,368.647,436.765,368.647,436.765Z" transform="translate(-165.285 -240.007)"/><path class="e" d="M336.762,311.679s10.127,3.592,28.11,18.665S396.2,344.657,396.2,344.657v11.681s-33.515-2-56.905-25.833" transform="translate(-154.11 -239.38)"/><path class="k" d="M300.185,307.162s-12.993-1.381-37.1,17.645c-23.306,15.592-44.317,5.066-44.317,5.066l-1.422,3.517s10.762,16.107,33.4,13.533a93.007,93.007,0,0,0,39.315-14.418Z" transform="translate(-197.667 -241.193)"/><path class="l" d="M426.2,310.6s10.473,2.323,30.086,15.081,34.856,11.605,34.856,11.605l-.7,4.919s-33.528,7.562-59.532-13.227" transform="translate(-121.487 -239.81)"/><path class="k" d="M289.109,307.124s11.235-3.654,38.174,10.831c25.578,11.244,44.5-2.2,44.5-2.2l3.075,4.626s-8.969,15.722-31.7,17.182a92.354,92.354,0,0,1-41.149-7.26Z" transform="translate(-171.492 -241.363)"/><path class="l" d="M424.717,312.581s-8.732,6.368-21.851,26.021-27.044,23.3-27.044,23.3l2.2,6.812s33.527-7.725,49.43-37.342" transform="translate(-139.862 -239.02)"/><path class="m" d="M381.664,303.356s13.062-1.278,35.136,20.183c21.625,17.961,43.173,9.548,43.173,9.548l1.74,7.482s-12.591,11.208-34.849,6.266A93.556,93.556,0,0,1,389.2,328.359Z" transform="translate(-137.731 -242.71)"/><path class="m" d="M391.218,303.551s-13.538-.286-35.612,21.175c-21.625,17.961-43.172,9.464-43.172,9.464l-2.585,6.392s13.433,12.383,35.693,7.44a93.543,93.543,0,0,0,37.665-18.476Z" transform="translate(-163.927 -242.626)"/><path class="f" d="M529.046,307.4s-13.061.137-34.908,21.84c-18.121,20.54-41.973,11.063-41.973,11.063l-.909,3.755s10.858,13.777,33.064,8.589a93.6,93.6,0,0,0,37.468-18.893Z" transform="translate(-112.347 -241.09)"/><path class="f" d="M521.806,325.885s25.48-16.031,29.707-65.871h3.839s16.773,31.637-19.572,90.388" transform="translate(-86.613 -260.014)"/><path class="e" d="M472.494,308.217s10.686.81,31.837,10.652,35.07,5.54,35.07,5.54l1.421,3.517s-24.672,14.889-61.175-2.179" transform="translate(-104.6 -240.763)"/><path class="e" d="M479.4,308.612s-10.556-2.4-33.409,1.853c-16.765,3.121-27.894-.092-32.636-2.026a3.034,3.034,0,0,0-3.9,1.609h0a3.194,3.194,0,0,0,1.219,4.074c7.452,4.478,31.362,16.83,57.623,9.187" transform="translate(-127.703 -240.875)"/><path class="n" d="M240.345,289.745a17.443,17.443,0,0,0-15.823,11.935c-4.135,11.934-15.1,21.408-6.9,27.317s2.107,17.708,19.037,20.148,19.512-8.95,19.512-18.987,7.6-7.3,4.56-19.857S247.87,289.745,240.345,289.745Z" transform="translate(-198.649 -248.14)"/><path class="h" d="M287.283,277.264s-11.39-.3-14.3,13.48,6.3,25.972,14.659,25.972,16.025-9.346,14.57-25.35S287.283,277.264,287.283,277.264Z" transform="translate(-177.574 -253.153)"/><path class="n" d="M430.567,280.339c7.678-8.433-10.6-10.8-11.994-4.442-.141.641.9,4.762,1.859,4.442,0,0-12.733,4.263-10.588,20.469.753,5.69,2.317,12.477,7.166,16.6,4.356,3.707,11.732,3.974,16.463.645,5.516-3.883,6.9-11.391,7.681-17.247C443.3,284.6,430.567,280.339,430.567,280.339Z" transform="translate(-127.541 -255.114)"/><path class="h" d="M489.464,291.5c-4.475-20.736-33.21-19.689-36.581,1.265a60.3,60.3,0,0,0-.711,9.573V349.13c13.489,3.591,26.333,3.542,38.561,0V302.825A56.655,56.655,0,0,0,489.464,291.5Z" transform="translate(-112.012 -253.434)"/><path class="j" d="M531.987,278.261c-3.513-7.037-17.8-7.075-21.328,0-2.934,5.88-9.877,7.28-8.554,16.58s6.367,9.593,8.554,15.716c3.245,9.076,18.086,9.075,21.33,0,2.188-6.124,7.232-6.418,8.554-15.716S534.923,284.142,531.987,278.261Z" transform="translate(-93.859 -254.84)"/><path class="g" d="M209.231,282.9s1.253-7.817.078-8.575c-.994-.578-1.4,4.312-1.4,4.312s-1.059-4.5-1.321-6.784S203.6,269.98,203,274.393s2.514,8.529,2.514,8.529Z" transform="translate(-202.928 -255.831)"/><path class="g" d="M221.79,324.385s-6.54-4.215-7.677-3.4c-.9.715,3.331,3,3.331,3s-4.453-.743-6.611-1.383-2.843,2.1.893,4.369,8.642.931,8.642.931Z" transform="translate(-200.687 -235.705)"/><path class="g" d="M281.269,337.1s-7.644-1.148-8.363.071c-.546,1.029,4.229,1.362,4.229,1.362s-4.366,1.166-6.593,1.475-1.773,3.094,2.54,3.626a16.067,16.067,0,0,0,8.3-1.525Z" transform="translate(-178.743 -229.421)"/><path class="g" d="M288.159,330.33s6.115-4.838,7.325-4.137c.968.623-3.037,3.311-3.037,3.311s4.363-1.177,6.453-2.025,3.024,1.807-.482,4.436-8.516,1.776-8.516,1.776Z" transform="translate(-171.838 -233.611)"/><path class="g" d="M315.143,326.446s-6.54-4.215-7.678-3.4c-.9.715,3.331,3,3.331,3s-4.453-.743-6.611-1.383-2.841,2.1.894,4.37,8.642.931,8.642.931Z" transform="translate(-166.636 -234.882)"/><path class="g" d="M378.6,347.828s-7.636,1.2-7.974,2.579c-.229,1.147,4.431.034,4.431.034s-3.842,2.425-5.882,3.389-.812,3.491,3.464,2.7,7.13-5.094,7.13-5.094Z" transform="translate(-142.638 -224.943)"/><path class="g" d="M380.312,335.9s7.109-3.1,8.107-2.107c.783.852-3.753,2.418-3.753,2.418s4.512-.01,6.742-.291,2.481,2.533-1.559,4.169-9.537.62-9.537.62Z" transform="translate(-138.224 -230.626)"/><path class="g" d="M439.043,325.256s7.109-3.1,8.107-2.109c.783.852-3.753,2.42-3.753,2.42s4.512-.01,6.742-.291,2.481,2.531-1.557,4.169-8.677-.486-8.677-.486Z" transform="translate(-116.801 -234.878)"/><path class="g" d="M454.381,331.257s-7.109-3.1-8.107-2.107c-.783.852,3.753,2.418,3.753,2.418s-4.512-.01-6.742-.29-2.481,2.532,1.557,4.169,8.677-.486,8.677-.486Z" transform="translate(-115.836 -232.481)"/><path class="g" d="M521.519,320.788s6.54-4.215,7.677-3.4c.9.715-3.331,3-3.331,3s4.453-.742,6.611-1.381,2.843,2.1-.893,4.369-8.643.931-8.643.931Z" transform="translate(-86.717 -237.142)"/><path class="n" d="M224.719,357.586s-17.791,40.21-17.791,88.773c12.658,6.019,58.861,4,66.662,0,0,0,1.65-65.205-11.976-88.773C261.614,357.586,247.389,362.154,224.719,357.586Z" transform="translate(-201.468 -221.046)"/><path class="n" d="M452.117,363.988c-14.082,4.78-35.949,3.557-44.326,0,0,0-6.846,9.989-5.713,32.337a319.94,319.94,0,0,1-.4,34.718l-6.357,109.69h9.9L430.967,397.4,446.1,540.733h9.275l.483-110.391a286.782,286.782,0,0,1,1.911-33.418C459.8,380.222,457.075,371.469,452.117,363.988Z" transform="translate(-132.748 -218.489)"/><path class="n" d="M496.852,340.671c-14.757,2.957-29.119,3.051-43.027-.127,0,0-10.131,36.128-10.131,82.816,15.3,5.348,53.317,2.555,61.869,0C505.563,423.36,504.8,362.846,496.852,340.671Z" transform="translate(-115.105 -227.852)"/><path class="f" d="M277.093,307.419l1.314-.627s-.008,6.469,7.55,6.469,7.558-6.744,7.558-6.744l1.152.451s1.3,8.559-8.71,8.559S277.093,307.419,277.093,307.419Z" transform="translate(-175.889 -241.441)"/><path class="e" d="M371.1,302.528s.456,7.294,7.7,7.294,7.7-7.589,7.7-7.589l2.305,1.706s.113,8.711-10,8.711-10.117-8.5-10.117-8.5Z" transform="translate(-142.467 -243.153)"/><path class="n" d="M314.813,349.415l-.288,3.23s17.569,6.1,40.95,0l-.139-3.23C332.253,354.56,314.813,349.415,314.813,349.415Z" transform="translate(-162.221 -224.309)"/><path class="a" d="M358.537,333.541s11.13-10.756.77-26.574" transform="translate(-146.167 -241.262)"/><path class="a" d="M397.857,334.839s-15.823-6.972-2.589-27.44" transform="translate(-134.694 -241.09)"/><path class="a" d="M265.76,384.372l18.965,3.711s1.321,15.185-10.632,15.185S265.76,384.372,265.76,384.372Z" transform="translate(-180.197 -210.349)"/><path class="a" d="M305.534,384.372l-18.965,3.711s-1.322,15.185,10.631,15.185S305.534,384.372,305.534,384.372Z" transform="translate(-172.434 -210.349)"/><path class="a" d="M497.527,371.225s27.649,8.258,50.376,0" transform="translate(-95.469 -215.599)"/><path class="a" d="M418.071,278.135s3.671,2.836,8.651,0" transform="translate(-124.451 -252.777)"/><path class="e" d="M404.993,362.713s22.838,6.184,43.283,0l.509,1.784s-6.855,3.665-21.9,3.665-22.43-3.665-22.43-3.665Z" transform="translate(-129.416 -218.999)"/><path class="n" d="M411.491,367.519v-3.563l1.715.233v3.733Z" transform="translate(-126.851 -218.502)"/><path class="n" d="M430.254,367.592v-3.453l-1.556.2v3.25Z" transform="translate(-120.575 -218.429)"/><g transform="translate(57.091 137.209)"><path class="e" d="M256.236,447.334l-.388.09c0-59.825-10.977-89-11.089-89.289l.348-.071C245.219,358.352,256.236,387.442,256.236,447.334Z" transform="translate(-244.76 -358.064)"/></g></g><path class="a" d="M266.382,311.089s4.546,9.377,0,21.98" transform="translate(-26.208 -225.226)"/><path class="a" d="M301.406,329.321s-4.844-8.55,0-20.289" transform="translate(-14.218 -226.048)"/><line class="a" x1="10.113" y2="164.27" transform="translate(354.329 172.363)"/><line class="a" x2="2.38" y2="152.51" transform="translate(413.77 172.611)"/><line class="a" x2="2.27" y2="5.671" transform="translate(393.391 137.275)"/><path class="n" d="M344.4,279.7a17.109,17.109,0,0,0-13.72,1.222,21.724,21.724,0,0,0-6.705,5.389l.011-.045a57.811,57.811,0,0,0-5.6,8c-1.7,3.308-11.929,12.838-10.439,21.914a15.1,15.1,0,0,1,2.742-7.106c-.974,2.406-1,5.078.831,8.719,3.976-6.033,14.424,2.512,31.619,2.512C358.617,320.3,363.11,286.465,344.4,279.7Z" transform="translate(-11.1 -238.128)"/><path class="j" d="M395.182,283.526c0-4.742-3.7-7.471-7.446-9.019-5.279-2.183-11.319-2.172-16.177.872a12.754,12.754,0,0,0-5.978,8.747h-.03v.155a16.229,16.229,0,0,0-.259,2.806c0,2.554.06,4.969.16,7.21l-.16,16.059.884-3.168v3.168h27.643s.116-1.153.441-6.293l.923,6.293Z" transform="translate(9.87 -240.45)"/><path class="m" d="M502.163,311.066a9.043,9.043,0,0,1,9.731-4.784c6.848,1.268,7.875,4.281,11.984,2.424s6.221-4.579,9.785-4.579c0,10.677-1.355,18.861-10.813,20.624S511.719,310.018,502.163,311.066Z" transform="translate(59.796 -228.006)"/><path class="m" d="M450.358,334.3l.86-3.7,1.274.436-.909,3.755Z" transform="translate(40.899 -217.433)"/><rect class="m" width="3.839" height="1.347" transform="translate(618.474 13.044)"/></g></g><path class="o" d="M76.873,412.31v42.548H1517.127V412.31C885.949,457.98,546.285,367.629,76.873,412.31Z" transform="translate(-390.127 76.813)"/><path class="o" d="M129.418,270.656h69.726s-3.632-17.432-23.968-11.621c-19.61-19.612-33.411-1.186-33.411-1.186S129.418,256.855,129.418,270.656Z" transform="translate(-57.706 16.103)"/><path class="o" d="M577.741,249.022h69.727S643.836,231.59,623.5,237.4c-19.612-19.612-33.412-1.186-33.412-1.186S577.741,235.221,577.741,249.022Z" transform="translate(105.825 7.448)"/><path class="o" d="M520.673,221.679h53.86s-5.151-13.406-18.907-7.7C546.269,198.482,520.673,204.081,520.673,221.679Z" transform="translate(85.009 -1.969)"/></g></g></svg>