<svg width="26" height="17" viewBox="0 0 26 17" fill="none" xmlns="http://www.w3.org/2000/svg">
<path d="M0.759912 2.37451H21.8537C22.049 2.37451 22.2443 2.22803 22.2443 1.98389V1.20264C22.2443 1.00732 22.049 0.812012 21.8537 0.812012H0.759912C0.515772 0.812012 0.369287 1.00732 0.369287 1.20264V1.98389C0.369287 2.22803 0.515772 2.37451 0.759912 2.37451ZM24.9787 7.84326H3.88491C3.64077 7.84326 3.49429 8.03857 3.49429 8.23389V9.01514C3.49429 9.25928 3.64077 9.40576 3.88491 9.40576H24.9787C25.174 9.40576 25.3693 9.25928 25.3693 9.01514V8.23389C25.3693 8.03857 25.174 7.84326 24.9787 7.84326ZM21.8537 14.8745H0.759912C0.515772 14.8745 0.369287 15.0698 0.369287 15.2651V16.0464C0.369287 16.2905 0.515772 16.437 0.759912 16.437H21.8537C22.049 16.437 22.2443 16.2905 22.2443 16.0464V15.2651C22.2443 15.0698 22.049 14.8745 21.8537 14.8745Z" fill="#2D86DA"/>
</svg>
