<svg width="29" height="26" viewBox="0 0 29 26" fill="none" xmlns="http://www.w3.org/2000/svg">
<path opacity="0.6" d="M4.70815 17.3125H1.58315C1.1437 17.3125 0.801905 17.7031 0.801905 18.0938V24.3438C0.801905 24.7832 1.1437 25.125 1.58315 25.125H4.70815C5.09878 25.125 5.4894 24.7832 5.4894 24.3438V18.0938C5.4894 17.7031 5.09878 17.3125 4.70815 17.3125ZM3.9269 23.5625H2.3644V18.875H3.9269V23.5625ZM28.1457 9.5H25.0207C24.5812 9.5 24.2394 9.89062 24.2394 10.2812V24.3438C24.2394 24.7832 24.5812 25.125 25.0207 25.125H28.1457C28.5363 25.125 28.9269 24.7832 28.9269 24.3438V10.2812C28.9269 9.89062 28.5363 9.5 28.1457 9.5ZM27.3644 23.5625H25.8019V11.0625H27.3644V23.5625ZM25.3136 4.4707C25.7042 4.71484 26.0949 4.8125 26.5832 4.8125C27.8527 4.8125 28.9269 3.78711 28.9269 2.46875C28.9269 1.19922 27.8527 0.125 26.5832 0.125C25.2648 0.125 24.2394 1.19922 24.2394 2.46875C24.2394 2.76172 24.2882 3.00586 24.3371 3.25L19.9914 6.76562C19.6007 6.52148 19.2101 6.375 18.7707 6.375C18.2824 6.375 17.8917 6.52148 17.5011 6.76562L13.1554 3.25C13.2042 3.00586 13.3019 2.76172 13.3019 2.46875C13.3019 1.19922 12.2277 0.125 10.9582 0.125C9.6398 0.125 8.6144 1.19922 8.6144 2.46875C8.6144 2.85938 8.66323 3.20117 8.80972 3.49414L4.12222 8.18164C3.82925 8.03516 3.48745 7.9375 3.14565 7.9375C1.8273 7.9375 0.801905 9.01172 0.801905 10.2812C0.801905 11.5996 1.8273 12.625 3.14565 12.625C4.41519 12.625 5.4894 11.5996 5.4894 10.2812C5.4894 9.93945 5.39175 9.59766 5.24526 9.30469L9.93276 4.61719C10.2257 4.76367 10.5675 4.8125 10.9582 4.8125C11.3976 4.8125 11.7882 4.71484 12.1789 4.4707L16.5246 7.98633C16.4757 8.23047 16.4269 8.47461 16.4269 8.71875C16.4269 10.0371 17.4523 11.0625 18.7707 11.0625C20.0402 11.0625 21.1144 10.0371 21.1144 8.71875C21.1144 8.47461 21.0167 8.23047 20.9679 7.98633L25.3136 4.4707ZM26.5832 1.6875C26.9738 1.6875 27.3644 2.07812 27.3644 2.46875C27.3644 2.9082 26.9738 3.25 26.5832 3.25C26.1437 3.25 25.8019 2.9082 25.8019 2.46875C25.8019 2.07812 26.1437 1.6875 26.5832 1.6875ZM3.14565 11.0625C2.7062 11.0625 2.3644 10.7207 2.3644 10.2812C2.3644 9.89062 2.7062 9.5 3.14565 9.5C3.53628 9.5 3.9269 9.89062 3.9269 10.2812C3.9269 10.7207 3.53628 11.0625 3.14565 11.0625ZM10.9582 3.25C10.5187 3.25 10.1769 2.9082 10.1769 2.46875C10.1769 2.07812 10.5187 1.6875 10.9582 1.6875C11.3488 1.6875 11.7394 2.07812 11.7394 2.46875C11.7394 2.9082 11.3488 3.25 10.9582 3.25ZM18.7707 9.5C18.3312 9.5 17.9894 9.1582 17.9894 8.71875C17.9894 8.32812 18.3312 7.9375 18.7707 7.9375C19.1613 7.9375 19.5519 8.32812 19.5519 8.71875C19.5519 9.1582 19.1613 9.5 18.7707 9.5ZM12.5207 9.5H9.39565C8.9562 9.5 8.6144 9.89062 8.6144 10.2812V24.3438C8.6144 24.7832 8.9562 25.125 9.39565 25.125H12.5207C12.9113 25.125 13.3019 24.7832 13.3019 24.3438V10.2812C13.3019 9.89062 12.9113 9.5 12.5207 9.5ZM11.7394 23.5625H10.1769V11.0625H11.7394V23.5625ZM20.3332 15.75H17.2082C16.7687 15.75 16.4269 16.1406 16.4269 16.5312V24.3438C16.4269 24.7832 16.7687 25.125 17.2082 25.125H20.3332C20.7238 25.125 21.1144 24.7832 21.1144 24.3438V16.5312C21.1144 16.1406 20.7238 15.75 20.3332 15.75ZM19.5519 23.5625H17.9894V17.3125H19.5519V23.5625Z" fill="#909090"/>
</svg>
