<svg width="23" height="21" viewBox="0 0 26 21" fill="none" xmlns="http://www.w3.org/2000/svg">
<path d="M26 2.49315C25.0299 2.87671 23.9627 3.16438 22.8955 3.35616C23.9627 2.68493 24.8358 1.63014 25.2239 0.383562C24.1567 0.958904 23.0896 1.43836 21.8284 1.63014C20.8582 0.575342 19.5 0 17.9478 0C15.0373 0 12.6119 2.39726 12.6119 5.27397C12.6119 5.65753 12.6119 6.13699 12.709 6.52055C8.34328 6.23288 4.36567 4.12329 1.74627 0.958904C1.26119 1.72603 1.06716 2.68493 1.06716 3.64384C1.06716 5.46575 2.03731 7.09589 3.49254 8.05479C2.6194 8.05479 1.74627 7.76712 1.06716 7.38356C1.06716 7.38356 1.06716 7.38356 1.06716 7.47945C1.06716 10.0685 2.91045 12.1781 5.33582 12.6575C4.85075 12.7534 4.36567 12.8493 3.8806 12.8493C3.49254 12.8493 3.20149 12.8493 2.91045 12.7534C3.58955 14.863 5.52985 16.3973 7.95522 16.3973C6.11194 17.8356 3.78358 18.6986 1.26119 18.6986C0.873134 18.6986 0.38806 18.6986 0 18.6027C2.32836 20.137 5.14179 21 8.24627 21C18.0448 21 23.4776 12.9452 23.4776 5.94521C23.4776 5.75343 23.4776 5.46575 23.4776 5.27397C24.3507 4.41096 25.3209 3.54795 26 2.49315Z" fill="#1DA1F2"/>
</svg>
