<svg width="31" height="25" viewBox="0 0 31 25" fill="none" xmlns="http://www.w3.org/2000/svg">
<path d="M30.1361 3.15998C29.0116 3.60977 27.7747 3.94712 26.5378 4.17201C27.7747 3.38488 28.7867 2.14795 29.2365 0.686121C27.9996 1.36081 26.7627 1.92305 25.3008 2.14795C24.1763 0.911017 22.6021 0.236328 20.8029 0.236328C17.4295 0.236328 14.6183 3.04753 14.6183 6.42098C14.6183 6.87077 14.6183 7.43301 14.7307 7.8828C9.67054 7.54546 5.06016 5.0716 2.02407 1.36081C1.46182 2.26039 1.23693 3.38488 1.23693 4.50936C1.23693 6.64587 2.36141 8.55749 4.04813 9.68197C3.0361 9.68197 2.02406 9.34463 1.23693 8.89483C1.23693 8.89483 1.23693 8.89483 1.23693 9.00728C1.23693 12.0434 3.37344 14.5172 6.18465 15.0795C5.62241 15.1919 5.06017 15.3044 4.49793 15.3044C4.04813 15.3044 3.71079 15.3044 3.37344 15.1919C4.16058 17.6658 6.40954 19.465 9.22075 19.465C7.08423 21.1517 4.38548 22.1637 1.46182 22.1637C1.01203 22.1637 0.449793 22.1637 0 22.0513C2.69876 23.8504 5.95975 24.8625 9.55809 24.8625C20.9154 24.8625 27.2124 15.4168 27.2124 7.20811C27.2124 6.98322 27.2124 6.64587 27.2124 6.42098C28.2245 5.40894 29.349 4.39691 30.1361 3.15998Z" fill="white"/>
</svg>
