<svg width="299" height="214" viewBox="0 0 299 214" fill="none" xmlns="http://www.w3.org/2000/svg">
<path d="M159.537 211C220.564 211 270.037 163.766 270.037 105.5C270.037 47.234 220.564 0 159.537 0C98.5091 0 49.0365 47.234 49.0365 105.5C49.0365 163.766 98.5091 211 159.537 211Z" fill="#F2F2F2"/>
<path d="M72.5258 166.857C64.3099 179.435 66.5638 195.431 66.5638 195.431C66.5638 195.431 82.1231 191.032 90.3027 178.454C98.4823 165.875 96.2647 149.88 96.2647 149.88C96.2647 149.88 80.7417 154.278 72.5258 166.857Z" fill="#3F3D56"/>
<path d="M66.5273 195.285C66.5273 195.285 66.3456 195.249 65.9457 195.176C65.6549 195.103 65.255 195.031 64.746 194.922C60.3472 193.867 48.6414 190.377 40.9708 181.144C31.3734 169.583 31.7733 153.442 31.7733 153.442C31.7733 153.442 46.4238 155.841 56.0939 166.202C56.5301 166.638 56.93 167.111 57.3299 167.584C65.6549 177.654 66.4546 191.177 66.5273 194.522C66.5273 195.031 66.5273 195.285 66.5273 195.285Z" fill="#2D86DA"/>
<path d="M60.638 166.857C68.8539 179.435 66.6 195.431 66.6 195.431C66.6 195.431 51.0406 191.032 42.861 178.454C34.6815 165.875 36.8991 149.88 36.8991 149.88C36.8991 149.88 52.422 154.278 60.638 166.857Z" stroke="#3F3D56" stroke-width="2" stroke-miterlimit="10"/>
<path opacity="0.1" d="M66.527 194.522C66.3089 194.776 66.1271 194.994 65.9454 195.176C65.5818 195.576 65.4001 195.794 65.4001 195.794C65.4001 195.794 65.1456 195.503 64.7457 194.922C62.5281 191.832 55.4028 180.853 55.9481 168.165C55.9845 167.511 56.0208 166.857 56.0935 166.202C56.5298 166.639 56.9297 167.111 57.3296 167.584C65.6909 177.654 66.4543 191.177 66.527 194.522Z" fill="black"/>
<path d="M78.7056 169.074C78.0512 184.088 66.927 195.794 66.927 195.794C66.927 195.794 56.857 183.18 57.475 168.165C58.0931 153.151 69.2536 141.446 69.2536 141.446C69.2536 141.446 79.3236 154.06 78.7056 169.074Z" fill="#2D86DA"/>
<path d="M66.8909 195.358L69.3629 142.064" stroke="#3F3D56" stroke-width="2" stroke-miterlimit="10"/>
<path d="M149.086 213.171C231.404 213.171 298.136 207.719 298.136 200.993C298.136 194.267 231.404 188.814 149.086 188.814C66.7684 188.814 0.0365295 194.267 0.0365295 200.993C0.0365295 207.719 66.7684 213.171 149.086 213.171Z" fill="#3F3D56"/>
<path d="M172.789 54.9967C169.081 56.269 165.7 59.1773 164.937 63.0308C164.573 64.8121 164.791 66.6662 164.5 68.4475C163.81 72.5918 160.538 75.7909 157.52 78.7356C154.503 81.6802 151.413 85.0975 151.195 89.3145C150.94 93.9314 154.285 98.2575 153.703 102.838C153.049 108.146 147.414 111.599 146.033 116.798C145.087 120.251 146.251 123.996 148.105 127.05C151.667 132.866 157.775 136.829 164.246 138.937C170.717 141.046 177.66 141.518 184.458 141.591C192.783 141.664 201.799 140.973 208.052 135.484C211.615 132.321 213.868 127.922 214.305 123.196C214.886 116.834 212.233 110.29 214.087 104.147C215.25 100.293 218.122 96.8033 217.686 92.8044C217.249 88.9146 213.868 86.1154 211.505 82.9889C209.324 80.0443 207.979 76.5543 206.707 73.1371L202.272 61.3949C201.399 59.1046 200.454 56.6689 198.491 55.1421C194.856 52.3065 189.003 52.8518 184.713 53.4335C180.787 53.9788 176.57 53.7243 172.789 54.9967Z" fill="#2F2E41"/>
<path d="M174.171 89.1694C174.171 89.1694 176.134 95.5676 161.374 102.947C146.615 110.327 162.865 118.216 162.865 118.216L180.096 122.142C180.096 122.142 197.837 119.67 199.8 116.725C201.763 113.781 205.217 103.929 204.235 102.438C203.508 101.384 202.672 100.403 201.763 99.4938C201.763 99.4938 189.948 97.5307 190.421 92.114C190.893 86.6973 174.171 89.1694 174.171 89.1694Z" fill="#FFB9B9"/>
<path opacity="0.1" d="M174.171 89.1694C174.171 89.1694 176.134 95.5676 161.374 102.947C146.615 110.327 162.865 118.216 162.865 118.216L180.096 122.142C180.096 122.142 197.837 119.67 199.8 116.725C201.763 113.781 205.217 103.929 204.235 102.438C203.508 101.384 202.672 100.403 201.763 99.4938C201.763 99.4938 189.948 97.5307 190.421 92.114C190.893 86.6973 174.171 89.1694 174.171 89.1694Z" fill="black"/>
<path d="M183.768 99.3118C192.481 99.3118 199.545 92.248 199.545 83.5343C199.545 74.8206 192.481 67.7568 183.768 67.7568C175.054 67.7568 167.99 74.8206 167.99 83.5343C167.99 92.248 175.054 99.3118 183.768 99.3118Z" fill="#FFB9B9"/>
<path d="M182.059 116.761C182.059 116.761 163.082 115.38 162.719 102.293C162.719 102.293 155.957 101.493 153.994 103.492C152.031 105.492 145.632 106.946 145.632 111.854C145.632 116.761 156.466 131.557 156.466 131.557C156.466 131.557 162.391 151.261 159.919 154.715C157.447 158.168 156.975 167.038 156.975 167.038C156.975 167.038 181.586 165.075 185.549 167.038C189.511 169.002 205.252 169.002 206.234 167.038C207.215 165.075 205.252 140.428 205.252 140.428C205.252 140.428 209.687 134.502 208.706 127.631L220.521 113.853C220.521 113.853 216.086 100.548 209.178 100.548C209.178 100.548 199.836 98.0756 199.581 99.3117C199.327 100.548 204.198 114.289 182.059 116.761Z" fill="#2D86DA"/>
<path d="M137.708 160.095C137.708 160.095 142.143 167.002 153.485 168.456C164.827 169.91 166.79 165.984 165.809 165.003C164.827 164.021 153.012 159.586 153.012 159.586L146.105 154.169L137.708 160.095Z" fill="#FFB9B9"/>
<path d="M218.485 154.206L205.689 161.586C205.689 161.586 188.93 160.604 195.328 165.512C201.726 170.42 213.541 168.456 213.541 168.456L224.883 163.04L218.485 154.206Z" fill="#FFB9B9"/>
<path d="M154.467 167.002C154.467 167.002 142.652 196.049 156.939 200.484C171.226 204.919 210.633 203.937 219.503 198.012C228.374 192.086 230.846 184.234 229.355 181.762C227.865 179.29 218.013 172.419 211.142 171.91C204.271 171.401 154.467 167.002 154.467 167.002Z" fill="#2F2E41"/>
<path opacity="0.05" d="M154.467 167.002C154.467 167.002 142.652 196.049 156.939 200.484C171.226 204.919 210.633 203.937 219.503 198.012C228.374 192.086 230.846 184.234 229.355 181.762C227.865 179.29 218.013 172.419 211.142 171.91C204.271 171.401 154.467 167.002 154.467 167.002Z" fill="black"/>
<path d="M210.269 168.82C210.269 168.82 252.003 153.733 251.494 171.946C250.985 190.159 224.884 195.104 224.884 195.104L216.995 196.085L173.661 197.576C173.661 197.576 175.152 189.687 171.698 188.705C171.698 188.705 183.041 185.761 183.513 185.252C184.022 184.743 212.087 174.891 214.05 174.418C216.013 173.909 221.939 169.983 226.374 170.492C226.374 170.492 231.282 166.566 236.735 167.547L221.466 168.529L210.269 168.82Z" fill="#2F2E41"/>
<path opacity="0.1" d="M210.269 168.82C210.269 168.82 252.003 153.733 251.494 171.946C250.985 190.159 224.884 195.104 224.884 195.104L216.995 196.085L173.661 197.576C173.661 197.576 175.152 189.687 171.698 188.705C171.698 188.705 183.041 185.761 183.513 185.252C184.022 184.743 212.087 174.891 214.05 174.418C216.013 173.909 221.939 169.983 226.374 170.492C226.374 170.492 231.282 166.566 236.735 167.547L221.466 168.529L210.269 168.82Z" fill="black"/>
<path d="M202.89 171.256L208.161 183.252L240.152 171.91L242.624 165.512L234.263 164.058L217.431 167.002L210.124 168.965L202.89 171.256Z" fill="#2F2E41"/>
<path opacity="0.1" d="M202.89 171.256L208.161 183.252L240.152 171.91L242.624 165.512L234.263 164.058L217.431 167.002L210.124 168.965L202.89 171.256Z" fill="black"/>
<path d="M134.763 185.724C134.763 185.724 144.106 197.539 154.939 200.484C165.772 203.429 171.698 199.502 171.698 199.502L168.245 185.724L166.754 176.854L160.356 172.419L147.559 166.493L132.291 161.586C132.291 161.586 125.893 160.604 125.893 161.586C125.893 162.567 131.818 177.363 131.818 177.363L134.763 185.724Z" fill="#2F2E41"/>
<path d="M146.105 192.122C146.105 192.122 148.068 206.409 150.541 207.391C153.013 208.372 160.392 206.409 162.355 205.428C164.319 204.446 171.008 199.902 171.008 199.902C171.008 199.902 147.56 191.141 146.105 192.122Z" fill="#F2F2F2"/>
<path d="M190.929 193.577L200.272 195.067L199.291 206.409L186.24 203.247L190.929 193.577Z" fill="#FFB9B9"/>
<path d="M196.782 196.74C196.782 196.74 192.383 201.974 196.818 204.919L199.763 207.391C199.763 207.391 209.615 209.354 210.596 210.336C211.578 211.317 215.504 208.845 215.504 208.845C215.504 208.845 216.013 194.086 215.504 193.068C214.995 192.086 209.106 191.105 208.597 192.086C208.088 193.068 202.199 194.558 198.745 193.577L196.782 196.74Z" fill="#F2F2F2"/>
<path d="M157.411 170.456C157.411 170.456 122.948 150.28 117.531 157.659C112.115 165.039 106.189 175.4 121.966 183.252C137.744 191.141 186.967 207.391 186.967 207.391C186.967 207.391 194.346 196.049 194.346 193.104C194.346 193.104 168.245 181.289 163.809 180.308C159.374 179.326 141.634 167.984 139.198 167.002C136.726 166.021 133.272 163.076 133.272 163.076L157.411 170.456Z" fill="#2F2E41"/>
<path d="M147.559 109.382L145.596 110.872C145.596 110.872 141.161 122.215 140.689 128.613C140.216 135.011 134.29 154.715 134.763 157.187C135.272 159.659 135.744 161.622 138.689 164.094C138.689 164.094 142.615 155.224 149.523 156.714L157.884 126.177L147.559 109.382Z" fill="#2D86DA"/>
<path d="M216.523 109.382L220.449 113.817C220.449 113.817 222.921 119.743 222.921 121.197C222.921 122.651 227.829 144.354 228.337 145.336C228.846 146.317 230.81 158.641 228.337 161.586C225.865 164.53 221.43 166.493 221.43 166.493C221.43 166.493 224.375 156.133 215.032 155.66L216.014 151.734L207.143 122.178L216.523 109.382Z" fill="#2D86DA"/>
<path d="M148.541 143.3V169.256C148.541 172.673 151.267 175.436 154.685 175.509L208.924 176.309C212.305 176.345 215.104 173.691 215.25 170.31L216.231 144.354C216.377 140.9 213.687 138.028 210.233 137.883C210.197 137.883 210.124 137.883 210.087 137.883L154.83 137.083C151.376 137.047 148.541 139.773 148.504 143.227C148.541 143.227 148.541 143.263 148.541 143.3Z" fill="#3F3D56"/>
<path d="M184.713 82.989C194.089 82.989 201.69 78.9037 201.69 73.8643C201.69 68.8248 194.089 64.7395 184.713 64.7395C175.337 64.7395 167.736 68.8248 167.736 73.8643C167.736 78.9037 175.337 82.989 184.713 82.989Z" fill="#2F2E41"/>
<path d="M181.805 160.822C183.973 160.822 185.731 159.064 185.731 156.896C185.731 154.728 183.973 152.97 181.805 152.97C179.636 152.97 177.878 154.728 177.878 156.896C177.878 159.064 179.636 160.822 181.805 160.822Z" fill="#F2F2F2"/>
<path d="M289.048 156.096V201.102C289.048 201.865 288.648 201.974 287.957 202.374C285.667 203.646 280.068 205.9 273.307 202.338C272.616 201.974 272.18 201.865 272.18 201.065V156.387C272.18 156.387 280.759 159.84 289.048 156.096Z" fill="#2F2E41"/>
<path d="M280.614 157.841C285.272 157.841 289.048 157.044 289.048 156.06C289.048 155.076 285.272 154.279 280.614 154.279C275.956 154.279 272.18 155.076 272.18 156.06C272.18 157.044 275.956 157.841 280.614 157.841Z" fill="#3F3D56" stroke="#2D86DA" stroke-miterlimit="10"/>
<g opacity="0.8">
<path opacity="0.8" d="M288.284 174.964C288.384 174.964 288.465 174.882 288.465 174.782C288.465 174.681 288.384 174.6 288.284 174.6C288.183 174.6 288.102 174.681 288.102 174.782C288.102 174.882 288.183 174.964 288.284 174.964Z" fill="black"/>
<path opacity="0.8" d="M287.302 175.255C287.402 175.255 287.484 175.173 287.484 175.073C287.484 174.972 287.402 174.891 287.302 174.891C287.201 174.891 287.12 174.972 287.12 175.073C287.12 175.173 287.201 175.255 287.302 175.255Z" fill="black"/>
<path opacity="0.8" d="M286.139 175.618C286.239 175.618 286.321 175.537 286.321 175.436C286.321 175.336 286.239 175.255 286.139 175.255C286.039 175.255 285.957 175.336 285.957 175.436C285.957 175.537 286.039 175.618 286.139 175.618Z" fill="black"/>
<path opacity="0.8" d="M283.994 176.091C284.094 176.091 284.176 176.009 284.176 175.909C284.176 175.809 284.094 175.727 283.994 175.727C283.893 175.727 283.812 175.809 283.812 175.909C283.812 176.009 283.893 176.091 283.994 176.091Z" fill="black"/>
<path opacity="0.8" d="M281.74 176.345C281.841 176.345 281.922 176.264 281.922 176.163C281.922 176.063 281.841 175.982 281.74 175.982C281.64 175.982 281.559 176.063 281.559 176.163C281.559 176.264 281.64 176.345 281.74 176.345Z" fill="black"/>
<path opacity="0.8" d="M279.451 176.454C279.551 176.454 279.632 176.373 279.632 176.272C279.632 176.172 279.551 176.091 279.451 176.091C279.35 176.091 279.269 176.172 279.269 176.272C279.269 176.373 279.35 176.454 279.451 176.454Z" fill="black"/>
<path opacity="0.8" d="M276.105 175.981C276.206 175.981 276.287 175.9 276.287 175.8C276.287 175.699 276.206 175.618 276.105 175.618C276.005 175.618 275.924 175.699 275.924 175.8C275.924 175.9 276.005 175.981 276.105 175.981Z" fill="black"/>
<path opacity="0.8" d="M277.196 176.272C277.296 176.272 277.378 176.191 277.378 176.091C277.378 175.99 277.296 175.909 277.196 175.909C277.096 175.909 277.014 175.99 277.014 176.091C277.014 176.191 277.096 176.272 277.196 176.272Z" fill="black"/>
<path opacity="0.8" d="M274.033 175.618C274.134 175.618 274.215 175.537 274.215 175.436C274.215 175.336 274.134 175.255 274.033 175.255C273.933 175.255 273.851 175.336 273.851 175.436C273.851 175.537 273.933 175.618 274.033 175.618Z" fill="black"/>
<path opacity="0.8" d="M275.015 175.8C275.115 175.8 275.196 175.718 275.196 175.618C275.196 175.518 275.115 175.436 275.015 175.436C274.914 175.436 274.833 175.518 274.833 175.618C274.833 175.718 274.914 175.8 275.015 175.8Z" fill="black"/>
<path opacity="0.8" d="M272.943 175.255C273.043 175.255 273.124 175.173 273.124 175.073C273.124 174.972 273.043 174.891 272.943 174.891C272.842 174.891 272.761 174.972 272.761 175.073C272.761 175.173 272.842 175.255 272.943 175.255Z" fill="black"/>
<path opacity="0.8" d="M285.048 175.873C285.149 175.873 285.23 175.791 285.23 175.691C285.23 175.59 285.149 175.509 285.048 175.509C284.948 175.509 284.867 175.59 284.867 175.691C284.867 175.791 284.948 175.873 285.048 175.873Z" fill="black"/>
<path opacity="0.8" d="M282.831 176.272C282.931 176.272 283.013 176.191 283.013 176.091C283.013 175.99 282.931 175.909 282.831 175.909C282.731 175.909 282.649 175.99 282.649 176.091C282.649 176.191 282.731 176.272 282.831 176.272Z" fill="black"/>
<path opacity="0.8" d="M280.468 176.454C280.568 176.454 280.65 176.373 280.65 176.272C280.65 176.172 280.568 176.091 280.468 176.091C280.367 176.091 280.286 176.172 280.286 176.272C280.286 176.373 280.367 176.454 280.468 176.454Z" fill="black"/>
<path opacity="0.8" d="M278.287 176.454C278.387 176.454 278.469 176.373 278.469 176.272C278.469 176.172 278.387 176.091 278.287 176.091C278.186 176.091 278.105 176.172 278.105 176.272C278.105 176.373 278.186 176.454 278.287 176.454Z" fill="black"/>
</g>
<g opacity="0.8">
<path opacity="0.8" d="M288.284 175.909C288.384 175.909 288.465 175.827 288.465 175.727C288.465 175.627 288.384 175.545 288.284 175.545C288.183 175.545 288.102 175.627 288.102 175.727C288.102 175.827 288.183 175.909 288.284 175.909Z" fill="black"/>
<path opacity="0.8" d="M287.302 176.163C287.402 176.163 287.484 176.082 287.484 175.981C287.484 175.881 287.402 175.8 287.302 175.8C287.201 175.8 287.12 175.881 287.12 175.981C287.12 176.082 287.201 176.163 287.302 176.163Z" fill="black"/>
<path opacity="0.8" d="M286.139 176.563C286.239 176.563 286.321 176.481 286.321 176.381C286.321 176.281 286.239 176.199 286.139 176.199C286.039 176.199 285.957 176.281 285.957 176.381C285.957 176.481 286.039 176.563 286.139 176.563Z" fill="black"/>
<path opacity="0.8" d="M283.994 176.999C284.094 176.999 284.176 176.918 284.176 176.818C284.176 176.717 284.094 176.636 283.994 176.636C283.893 176.636 283.812 176.717 283.812 176.818C283.812 176.918 283.893 176.999 283.994 176.999Z" fill="black"/>
<path opacity="0.8" d="M281.74 177.29C281.841 177.29 281.922 177.209 281.922 177.108C281.922 177.008 281.841 176.927 281.74 176.927C281.64 176.927 281.559 177.008 281.559 177.108C281.559 177.209 281.64 177.29 281.74 177.29Z" fill="black"/>
<path opacity="0.8" d="M279.451 177.399C279.551 177.399 279.632 177.318 279.632 177.217C279.632 177.117 279.551 177.036 279.451 177.036C279.35 177.036 279.269 177.117 279.269 177.217C279.269 177.318 279.35 177.399 279.451 177.399Z" fill="black"/>
<path opacity="0.8" d="M276.105 176.927C276.206 176.927 276.287 176.845 276.287 176.745C276.287 176.644 276.206 176.563 276.105 176.563C276.005 176.563 275.924 176.644 275.924 176.745C275.924 176.845 276.005 176.927 276.105 176.927Z" fill="black"/>
<path opacity="0.8" d="M277.196 177.181C277.296 177.181 277.378 177.1 277.378 176.999C277.378 176.899 277.296 176.817 277.196 176.817C277.096 176.817 277.014 176.899 277.014 176.999C277.014 177.1 277.096 177.181 277.196 177.181Z" fill="black"/>
<path opacity="0.8" d="M274.033 176.563C274.134 176.563 274.215 176.481 274.215 176.381C274.215 176.281 274.134 176.199 274.033 176.199C273.933 176.199 273.851 176.281 273.851 176.381C273.851 176.481 273.933 176.563 274.033 176.563Z" fill="black"/>
<path opacity="0.8" d="M275.015 176.745C275.115 176.745 275.196 176.663 275.196 176.563C275.196 176.462 275.115 176.381 275.015 176.381C274.914 176.381 274.833 176.462 274.833 176.563C274.833 176.663 274.914 176.745 275.015 176.745Z" fill="black"/>
<path opacity="0.8" d="M272.943 176.163C273.043 176.163 273.124 176.082 273.124 175.981C273.124 175.881 273.043 175.8 272.943 175.8C272.842 175.8 272.761 175.881 272.761 175.981C272.761 176.082 272.842 176.163 272.943 176.163Z" fill="black"/>
<path opacity="0.8" d="M285.048 176.817C285.149 176.817 285.23 176.736 285.23 176.636C285.23 176.535 285.149 176.454 285.048 176.454C284.948 176.454 284.867 176.535 284.867 176.636C284.867 176.736 284.948 176.817 285.048 176.817Z" fill="black"/>
<path opacity="0.8" d="M282.831 177.181C282.931 177.181 283.013 177.1 283.013 176.999C283.013 176.899 282.931 176.817 282.831 176.817C282.731 176.817 282.649 176.899 282.649 176.999C282.649 177.1 282.731 177.181 282.831 177.181Z" fill="black"/>
<path opacity="0.8" d="M280.468 177.399C280.568 177.399 280.65 177.318 280.65 177.217C280.65 177.117 280.568 177.036 280.468 177.036C280.367 177.036 280.286 177.117 280.286 177.217C280.286 177.318 280.367 177.399 280.468 177.399Z" fill="black"/>
<path opacity="0.8" d="M278.287 177.399C278.387 177.399 278.469 177.318 278.469 177.217C278.469 177.117 278.387 177.036 278.287 177.036C278.186 177.036 278.105 177.117 278.105 177.217C278.105 177.318 278.186 177.399 278.287 177.399Z" fill="black"/>
</g>
<g opacity="0.8">
<path opacity="0.8" d="M288.284 176.818C288.384 176.818 288.465 176.736 288.465 176.636C288.465 176.535 288.384 176.454 288.284 176.454C288.183 176.454 288.102 176.535 288.102 176.636C288.102 176.736 288.183 176.818 288.284 176.818Z" fill="black"/>
<path opacity="0.8" d="M287.302 177.109C287.402 177.109 287.484 177.027 287.484 176.927C287.484 176.826 287.402 176.745 287.302 176.745C287.201 176.745 287.12 176.826 287.12 176.927C287.12 177.027 287.201 177.109 287.302 177.109Z" fill="black"/>
<path opacity="0.8" d="M286.139 177.472C286.239 177.472 286.321 177.391 286.321 177.29C286.321 177.19 286.239 177.108 286.139 177.108C286.039 177.108 285.957 177.19 285.957 177.29C285.957 177.391 286.039 177.472 286.139 177.472Z" fill="black"/>
<path opacity="0.8" d="M283.994 177.945C284.094 177.945 284.176 177.863 284.176 177.763C284.176 177.663 284.094 177.581 283.994 177.581C283.893 177.581 283.812 177.663 283.812 177.763C283.812 177.863 283.893 177.945 283.994 177.945Z" fill="black"/>
<path opacity="0.8" d="M281.74 178.199C281.841 178.199 281.922 178.118 281.922 178.017C281.922 177.917 281.841 177.835 281.74 177.835C281.64 177.835 281.559 177.917 281.559 178.017C281.559 178.118 281.64 178.199 281.74 178.199Z" fill="black"/>
<path opacity="0.8" d="M279.451 178.308C279.551 178.308 279.632 178.227 279.632 178.126C279.632 178.026 279.551 177.945 279.451 177.945C279.35 177.945 279.269 178.026 279.269 178.126C279.269 178.227 279.35 178.308 279.451 178.308Z" fill="black"/>
<path opacity="0.8" d="M276.105 177.872C276.206 177.872 276.287 177.791 276.287 177.69C276.287 177.59 276.206 177.509 276.105 177.509C276.005 177.509 275.924 177.59 275.924 177.69C275.924 177.791 276.005 177.872 276.105 177.872Z" fill="black"/>
<path opacity="0.8" d="M277.196 178.126C277.296 178.126 277.378 178.045 277.378 177.945C277.378 177.844 277.296 177.763 277.196 177.763C277.096 177.763 277.014 177.844 277.014 177.945C277.014 178.045 277.096 178.126 277.196 178.126Z" fill="black"/>
<path opacity="0.8" d="M274.033 177.472C274.134 177.472 274.215 177.391 274.215 177.29C274.215 177.19 274.134 177.108 274.033 177.108C273.933 177.108 273.851 177.19 273.851 177.29C273.851 177.391 273.933 177.472 274.033 177.472Z" fill="black"/>
<path opacity="0.8" d="M275.015 177.654C275.115 177.654 275.196 177.572 275.196 177.472C275.196 177.371 275.115 177.29 275.015 177.29C274.914 177.29 274.833 177.371 274.833 177.472C274.833 177.572 274.914 177.654 275.015 177.654Z" fill="black"/>
<path opacity="0.8" d="M272.943 177.109C273.043 177.109 273.124 177.027 273.124 176.927C273.124 176.826 273.043 176.745 272.943 176.745C272.842 176.745 272.761 176.826 272.761 176.927C272.761 177.027 272.842 177.109 272.943 177.109Z" fill="black"/>
<path opacity="0.8" d="M285.048 177.763C285.149 177.763 285.23 177.681 285.23 177.581C285.23 177.481 285.149 177.399 285.048 177.399C284.948 177.399 284.867 177.481 284.867 177.581C284.867 177.681 284.948 177.763 285.048 177.763Z" fill="black"/>
<path opacity="0.8" d="M282.831 178.126C282.931 178.126 283.012 178.045 283.012 177.945C283.012 177.844 282.931 177.763 282.831 177.763C282.73 177.763 282.649 177.844 282.649 177.945C282.649 178.045 282.73 178.126 282.831 178.126Z" fill="black"/>
<path opacity="0.8" d="M280.468 178.308C280.568 178.308 280.65 178.227 280.65 178.126C280.65 178.026 280.568 177.945 280.468 177.945C280.367 177.945 280.286 178.026 280.286 178.126C280.286 178.227 280.367 178.308 280.468 178.308Z" fill="black"/>
<path opacity="0.8" d="M278.287 178.308C278.387 178.308 278.469 178.227 278.469 178.126C278.469 178.026 278.387 177.945 278.287 177.945C278.186 177.945 278.105 178.026 278.105 178.126C278.105 178.227 278.186 178.308 278.287 178.308Z" fill="black"/>
</g>
<g opacity="0.8">
<path opacity="0.8" d="M288.284 177.763C288.384 177.763 288.465 177.681 288.465 177.581C288.465 177.481 288.384 177.399 288.284 177.399C288.183 177.399 288.102 177.481 288.102 177.581C288.102 177.681 288.183 177.763 288.284 177.763Z" fill="black"/>
<path opacity="0.8" d="M287.302 178.017C287.402 178.017 287.484 177.936 287.484 177.835C287.484 177.735 287.402 177.654 287.302 177.654C287.201 177.654 287.12 177.735 287.12 177.835C287.12 177.936 287.201 178.017 287.302 178.017Z" fill="black"/>
<path opacity="0.8" d="M286.139 178.417C286.239 178.417 286.321 178.336 286.321 178.235C286.321 178.135 286.239 178.053 286.139 178.053C286.039 178.053 285.957 178.135 285.957 178.235C285.957 178.336 286.039 178.417 286.139 178.417Z" fill="black"/>
<path opacity="0.8" d="M283.994 178.854C284.094 178.854 284.176 178.772 284.176 178.672C284.176 178.571 284.094 178.49 283.994 178.49C283.893 178.49 283.812 178.571 283.812 178.672C283.812 178.772 283.893 178.854 283.994 178.854Z" fill="black"/>
<path opacity="0.8" d="M281.74 179.144C281.841 179.144 281.922 179.063 281.922 178.962C281.922 178.862 281.841 178.781 281.74 178.781C281.64 178.781 281.559 178.862 281.559 178.962C281.559 179.063 281.64 179.144 281.74 179.144Z" fill="black"/>
<path opacity="0.8" d="M279.451 179.253C279.551 179.253 279.632 179.172 279.632 179.071C279.632 178.971 279.551 178.89 279.451 178.89C279.35 178.89 279.269 178.971 279.269 179.071C279.269 179.172 279.35 179.253 279.451 179.253Z" fill="black"/>
<path opacity="0.8" d="M276.105 178.781C276.206 178.781 276.287 178.699 276.287 178.599C276.287 178.498 276.206 178.417 276.105 178.417C276.005 178.417 275.924 178.498 275.924 178.599C275.924 178.699 276.005 178.781 276.105 178.781Z" fill="black"/>
<path opacity="0.8" d="M277.196 179.072C277.296 179.072 277.378 178.99 277.378 178.89C277.378 178.789 277.296 178.708 277.196 178.708C277.096 178.708 277.014 178.789 277.014 178.89C277.014 178.99 277.096 179.072 277.196 179.072Z" fill="black"/>
<path opacity="0.8" d="M274.033 178.417C274.134 178.417 274.215 178.336 274.215 178.235C274.215 178.135 274.134 178.053 274.033 178.053C273.933 178.053 273.851 178.135 273.851 178.235C273.851 178.336 273.933 178.417 274.033 178.417Z" fill="black"/>
<path opacity="0.8" d="M275.015 178.599C275.115 178.599 275.196 178.517 275.196 178.417C275.196 178.316 275.115 178.235 275.015 178.235C274.914 178.235 274.833 178.316 274.833 178.417C274.833 178.517 274.914 178.599 275.015 178.599Z" fill="black"/>
<path opacity="0.8" d="M272.943 178.017C273.043 178.017 273.124 177.936 273.124 177.835C273.124 177.735 273.043 177.654 272.943 177.654C272.842 177.654 272.761 177.735 272.761 177.835C272.761 177.936 272.842 178.017 272.943 178.017Z" fill="black"/>
<path opacity="0.8" d="M285.048 178.672C285.149 178.672 285.23 178.59 285.23 178.49C285.23 178.389 285.149 178.308 285.048 178.308C284.948 178.308 284.867 178.389 284.867 178.49C284.867 178.59 284.948 178.672 285.048 178.672Z" fill="black"/>
<path opacity="0.8" d="M282.831 179.072C282.931 179.072 283.012 178.99 283.012 178.89C283.012 178.789 282.931 178.708 282.831 178.708C282.73 178.708 282.649 178.789 282.649 178.89C282.649 178.99 282.73 179.072 282.831 179.072Z" fill="black"/>
<path opacity="0.8" d="M280.468 179.253C280.568 179.253 280.65 179.172 280.65 179.071C280.65 178.971 280.568 178.89 280.468 178.89C280.367 178.89 280.286 178.971 280.286 179.071C280.286 179.172 280.367 179.253 280.468 179.253Z" fill="black"/>
<path opacity="0.8" d="M278.287 179.253C278.387 179.253 278.469 179.172 278.469 179.071C278.469 178.971 278.387 178.89 278.287 178.89C278.186 178.89 278.105 178.971 278.105 179.071C278.105 179.172 278.186 179.253 278.287 179.253Z" fill="black"/>
</g>
<g opacity="0.8">
<path opacity="0.8" d="M288.284 178.708C288.384 178.708 288.465 178.627 288.465 178.526C288.465 178.426 288.384 178.344 288.284 178.344C288.183 178.344 288.102 178.426 288.102 178.526C288.102 178.627 288.183 178.708 288.284 178.708Z" fill="black"/>
<path opacity="0.8" d="M287.302 178.962C287.402 178.962 287.484 178.881 287.484 178.781C287.484 178.68 287.402 178.599 287.302 178.599C287.201 178.599 287.12 178.68 287.12 178.781C287.12 178.881 287.201 178.962 287.302 178.962Z" fill="black"/>
<path opacity="0.8" d="M286.139 179.326C286.239 179.326 286.321 179.245 286.321 179.144C286.321 179.044 286.239 178.962 286.139 178.962C286.039 178.962 285.957 179.044 285.957 179.144C285.957 179.245 286.039 179.326 286.139 179.326Z" fill="black"/>
<path opacity="0.8" d="M283.994 179.799C284.094 179.799 284.176 179.717 284.176 179.617C284.176 179.517 284.094 179.435 283.994 179.435C283.893 179.435 283.812 179.517 283.812 179.617C283.812 179.717 283.893 179.799 283.994 179.799Z" fill="black"/>
<path opacity="0.8" d="M281.74 180.053C281.841 180.053 281.922 179.972 281.922 179.871C281.922 179.771 281.841 179.689 281.74 179.689C281.64 179.689 281.559 179.771 281.559 179.871C281.559 179.972 281.64 180.053 281.74 180.053Z" fill="black"/>
<path opacity="0.8" d="M279.451 180.162C279.551 180.162 279.632 180.081 279.632 179.98C279.632 179.88 279.551 179.799 279.451 179.799C279.35 179.799 279.269 179.88 279.269 179.98C279.269 180.081 279.35 180.162 279.451 180.162Z" fill="black"/>
<path opacity="0.8" d="M276.105 179.726C276.206 179.726 276.287 179.644 276.287 179.544C276.287 179.444 276.206 179.362 276.105 179.362C276.005 179.362 275.924 179.444 275.924 179.544C275.924 179.644 276.005 179.726 276.105 179.726Z" fill="black"/>
<path opacity="0.8" d="M277.196 179.98C277.296 179.98 277.378 179.899 277.378 179.799C277.378 179.698 277.296 179.617 277.196 179.617C277.096 179.617 277.014 179.698 277.014 179.799C277.014 179.899 277.096 179.98 277.196 179.98Z" fill="black"/>
<path opacity="0.8" d="M274.033 179.326C274.134 179.326 274.215 179.245 274.215 179.144C274.215 179.044 274.134 178.962 274.033 178.962C273.933 178.962 273.851 179.044 273.851 179.144C273.851 179.245 273.933 179.326 274.033 179.326Z" fill="black"/>
<path opacity="0.8" d="M275.015 179.544C275.115 179.544 275.196 179.463 275.196 179.362C275.196 179.262 275.115 179.18 275.015 179.18C274.914 179.18 274.833 179.262 274.833 179.362C274.833 179.463 274.914 179.544 275.015 179.544Z" fill="black"/>
<path opacity="0.8" d="M272.943 178.962C273.043 178.962 273.124 178.881 273.124 178.781C273.124 178.68 273.043 178.599 272.943 178.599C272.842 178.599 272.761 178.68 272.761 178.781C272.761 178.881 272.842 178.962 272.943 178.962Z" fill="black"/>
<path opacity="0.8" d="M285.048 179.617C285.149 179.617 285.23 179.536 285.23 179.435C285.23 179.335 285.149 179.253 285.048 179.253C284.948 179.253 284.867 179.335 284.867 179.435C284.867 179.536 284.948 179.617 285.048 179.617Z" fill="black"/>
<path opacity="0.8" d="M282.831 179.98C282.931 179.98 283.012 179.899 283.012 179.799C283.012 179.698 282.931 179.617 282.831 179.617C282.73 179.617 282.649 179.698 282.649 179.799C282.649 179.899 282.73 179.98 282.831 179.98Z" fill="black"/>
<path opacity="0.8" d="M280.468 180.162C280.568 180.162 280.65 180.081 280.65 179.98C280.65 179.88 280.568 179.799 280.468 179.799C280.367 179.799 280.286 179.88 280.286 179.98C280.286 180.081 280.367 180.162 280.468 180.162Z" fill="black"/>
<path opacity="0.8" d="M278.287 180.162C278.387 180.162 278.469 180.081 278.469 179.98C278.469 179.88 278.387 179.799 278.287 179.799C278.186 179.799 278.105 179.88 278.105 179.98C278.105 180.081 278.186 180.162 278.287 180.162Z" fill="black"/>
</g>
<g opacity="0.8">
<path opacity="0.8" d="M288.284 179.617C288.384 179.617 288.465 179.535 288.465 179.435C288.465 179.335 288.384 179.253 288.284 179.253C288.183 179.253 288.102 179.335 288.102 179.435C288.102 179.535 288.183 179.617 288.284 179.617Z" fill="black"/>
<path opacity="0.8" d="M287.302 179.908C287.402 179.908 287.484 179.826 287.484 179.726C287.484 179.626 287.402 179.544 287.302 179.544C287.201 179.544 287.12 179.626 287.12 179.726C287.12 179.826 287.201 179.908 287.302 179.908Z" fill="black"/>
<path opacity="0.8" d="M286.139 180.271C286.239 180.271 286.321 180.19 286.321 180.089C286.321 179.989 286.239 179.907 286.139 179.907C286.039 179.907 285.957 179.989 285.957 180.089C285.957 180.19 286.039 180.271 286.139 180.271Z" fill="black"/>
<path opacity="0.8" d="M283.994 180.744C284.094 180.744 284.176 180.663 284.176 180.562C284.176 180.462 284.094 180.38 283.994 180.38C283.893 180.38 283.812 180.462 283.812 180.562C283.812 180.663 283.893 180.744 283.994 180.744Z" fill="black"/>
<path opacity="0.8" d="M281.74 180.998C281.841 180.998 281.922 180.917 281.922 180.816C281.922 180.716 281.841 180.635 281.74 180.635C281.64 180.635 281.559 180.716 281.559 180.816C281.559 180.917 281.64 180.998 281.74 180.998Z" fill="black"/>
<path opacity="0.8" d="M279.451 181.107C279.551 181.107 279.632 181.026 279.632 180.925C279.632 180.825 279.551 180.744 279.451 180.744C279.35 180.744 279.269 180.825 279.269 180.925C279.269 181.026 279.35 181.107 279.451 181.107Z" fill="black"/>
<path opacity="0.8" d="M276.105 180.635C276.206 180.635 276.287 180.553 276.287 180.453C276.287 180.352 276.206 180.271 276.105 180.271C276.005 180.271 275.924 180.352 275.924 180.453C275.924 180.553 276.005 180.635 276.105 180.635Z" fill="black"/>
<path opacity="0.8" d="M277.196 180.926C277.296 180.926 277.378 180.844 277.378 180.744C277.378 180.643 277.296 180.562 277.196 180.562C277.096 180.562 277.014 180.643 277.014 180.744C277.014 180.844 277.096 180.926 277.196 180.926Z" fill="black"/>
<path opacity="0.8" d="M274.033 180.271C274.134 180.271 274.215 180.19 274.215 180.089C274.215 179.989 274.134 179.907 274.033 179.907C273.933 179.907 273.851 179.989 273.851 180.089C273.851 180.19 273.933 180.271 274.033 180.271Z" fill="black"/>
<path opacity="0.8" d="M275.015 180.453C275.115 180.453 275.196 180.371 275.196 180.271C275.196 180.17 275.115 180.089 275.015 180.089C274.914 180.089 274.833 180.17 274.833 180.271C274.833 180.371 274.914 180.453 275.015 180.453Z" fill="black"/>
<path opacity="0.8" d="M272.943 179.908C273.043 179.908 273.124 179.826 273.124 179.726C273.124 179.626 273.043 179.544 272.943 179.544C272.842 179.544 272.761 179.626 272.761 179.726C272.761 179.826 272.842 179.908 272.943 179.908Z" fill="black"/>
<path opacity="0.8" d="M285.048 180.526C285.149 180.526 285.23 180.444 285.23 180.344C285.23 180.243 285.149 180.162 285.048 180.162C284.948 180.162 284.867 180.243 284.867 180.344C284.867 180.444 284.948 180.526 285.048 180.526Z" fill="black"/>
<path opacity="0.8" d="M282.831 180.926C282.931 180.926 283.012 180.844 283.012 180.744C283.012 180.643 282.931 180.562 282.831 180.562C282.73 180.562 282.649 180.643 282.649 180.744C282.649 180.844 282.73 180.926 282.831 180.926Z" fill="black"/>
<path opacity="0.8" d="M280.468 181.107C280.568 181.107 280.65 181.026 280.65 180.925C280.65 180.825 280.568 180.744 280.468 180.744C280.367 180.744 280.286 180.825 280.286 180.925C280.286 181.026 280.367 181.107 280.468 181.107Z" fill="black"/>
<path opacity="0.8" d="M278.287 181.107C278.387 181.107 278.469 181.026 278.469 180.925C278.469 180.825 278.387 180.744 278.287 180.744C278.186 180.744 278.105 180.825 278.105 180.925C278.105 181.026 278.186 181.107 278.287 181.107Z" fill="black"/>
</g>
<g opacity="0.8">
<path opacity="0.8" d="M288.284 180.562C288.384 180.562 288.465 180.481 288.465 180.38C288.465 180.28 288.384 180.198 288.284 180.198C288.183 180.198 288.102 180.28 288.102 180.38C288.102 180.481 288.183 180.562 288.284 180.562Z" fill="black"/>
<path opacity="0.8" d="M287.302 180.816C287.402 180.816 287.484 180.735 287.484 180.635C287.484 180.534 287.402 180.453 287.302 180.453C287.201 180.453 287.12 180.534 287.12 180.635C287.12 180.735 287.201 180.816 287.302 180.816Z" fill="black"/>
<path opacity="0.8" d="M286.139 181.216C286.239 181.216 286.321 181.135 286.321 181.035C286.321 180.934 286.239 180.853 286.139 180.853C286.039 180.853 285.957 180.934 285.957 181.035C285.957 181.135 286.039 181.216 286.139 181.216Z" fill="black"/>
<path opacity="0.8" d="M283.994 181.653C284.094 181.653 284.176 181.571 284.176 181.471C284.176 181.371 284.094 181.289 283.994 181.289C283.893 181.289 283.812 181.371 283.812 181.471C283.812 181.571 283.893 181.653 283.994 181.653Z" fill="black"/>
<path opacity="0.8" d="M281.74 181.943C281.841 181.943 281.922 181.862 281.922 181.762C281.922 181.661 281.841 181.58 281.74 181.58C281.64 181.58 281.559 181.661 281.559 181.762C281.559 181.862 281.64 181.943 281.74 181.943Z" fill="black"/>
<path opacity="0.8" d="M279.451 182.053C279.551 182.053 279.632 181.971 279.632 181.871C279.632 181.77 279.551 181.689 279.451 181.689C279.35 181.689 279.269 181.77 279.269 181.871C279.269 181.971 279.35 182.053 279.451 182.053Z" fill="black"/>
<path opacity="0.8" d="M276.105 181.58C276.206 181.58 276.287 181.498 276.287 181.398C276.287 181.298 276.206 181.216 276.105 181.216C276.005 181.216 275.924 181.298 275.924 181.398C275.924 181.498 276.005 181.58 276.105 181.58Z" fill="black"/>
<path opacity="0.8" d="M277.196 181.834C277.296 181.834 277.378 181.753 277.378 181.653C277.378 181.552 277.296 181.471 277.196 181.471C277.096 181.471 277.014 181.552 277.014 181.653C277.014 181.753 277.096 181.834 277.196 181.834Z" fill="black"/>
<path opacity="0.8" d="M274.033 181.216C274.134 181.216 274.215 181.135 274.215 181.035C274.215 180.934 274.134 180.853 274.033 180.853C273.933 180.853 273.851 180.934 273.851 181.035C273.851 181.135 273.933 181.216 274.033 181.216Z" fill="black"/>
<path opacity="0.8" d="M275.015 181.398C275.115 181.398 275.196 181.317 275.196 181.216C275.196 181.116 275.115 181.034 275.015 181.034C274.914 181.034 274.833 181.116 274.833 181.216C274.833 181.317 274.914 181.398 275.015 181.398Z" fill="black"/>
<path opacity="0.8" d="M272.943 180.816C273.043 180.816 273.124 180.735 273.124 180.635C273.124 180.534 273.043 180.453 272.943 180.453C272.842 180.453 272.761 180.534 272.761 180.635C272.761 180.735 272.842 180.816 272.943 180.816Z" fill="black"/>
<path opacity="0.8" d="M285.048 181.471C285.149 181.471 285.23 181.39 285.23 181.289C285.23 181.189 285.149 181.107 285.048 181.107C284.948 181.107 284.867 181.189 284.867 181.289C284.867 181.39 284.948 181.471 285.048 181.471Z" fill="black"/>
<path opacity="0.8" d="M282.831 181.834C282.931 181.834 283.012 181.753 283.012 181.653C283.012 181.552 282.931 181.471 282.831 181.471C282.73 181.471 282.649 181.552 282.649 181.653C282.649 181.753 282.73 181.834 282.831 181.834Z" fill="black"/>
<path opacity="0.8" d="M280.468 182.053C280.568 182.053 280.65 181.971 280.65 181.871C280.65 181.77 280.568 181.689 280.468 181.689C280.367 181.689 280.286 181.77 280.286 181.871C280.286 181.971 280.367 182.053 280.468 182.053Z" fill="black"/>
<path opacity="0.8" d="M278.287 182.053C278.387 182.053 278.469 181.971 278.469 181.871C278.469 181.77 278.387 181.689 278.287 181.689C278.186 181.689 278.105 181.77 278.105 181.871C278.105 181.971 278.186 182.053 278.287 182.053Z" fill="black"/>
</g>
<g opacity="0.8">
<path opacity="0.8" d="M288.284 181.471C288.384 181.471 288.465 181.389 288.465 181.289C288.465 181.189 288.384 181.107 288.284 181.107C288.183 181.107 288.102 181.189 288.102 181.289C288.102 181.389 288.183 181.471 288.284 181.471Z" fill="black"/>
<path opacity="0.8" d="M287.302 181.762C287.402 181.762 287.484 181.68 287.484 181.58C287.484 181.48 287.402 181.398 287.302 181.398C287.201 181.398 287.12 181.48 287.12 181.58C287.12 181.68 287.201 181.762 287.302 181.762Z" fill="black"/>
<path opacity="0.8" d="M286.139 182.125C286.239 182.125 286.321 182.044 286.321 181.943C286.321 181.843 286.239 181.761 286.139 181.761C286.039 181.761 285.957 181.843 285.957 181.943C285.957 182.044 286.039 182.125 286.139 182.125Z" fill="black"/>
<path opacity="0.8" d="M283.994 182.598C284.094 182.598 284.176 182.517 284.176 182.416C284.176 182.316 284.094 182.234 283.994 182.234C283.893 182.234 283.812 182.316 283.812 182.416C283.812 182.517 283.893 182.598 283.994 182.598Z" fill="black"/>
<path opacity="0.8" d="M281.74 182.852C281.841 182.852 281.922 182.771 281.922 182.67C281.922 182.57 281.841 182.489 281.74 182.489C281.64 182.489 281.559 182.57 281.559 182.67C281.559 182.771 281.64 182.852 281.74 182.852Z" fill="black"/>
<path opacity="0.8" d="M279.451 182.961C279.551 182.961 279.632 182.88 279.632 182.779C279.632 182.679 279.551 182.598 279.451 182.598C279.35 182.598 279.269 182.679 279.269 182.779C279.269 182.88 279.35 182.961 279.451 182.961Z" fill="black"/>
<path opacity="0.8" d="M276.105 182.525C276.206 182.525 276.287 182.444 276.287 182.343C276.287 182.243 276.206 182.162 276.105 182.162C276.005 182.162 275.924 182.243 275.924 182.343C275.924 182.444 276.005 182.525 276.105 182.525Z" fill="black"/>
<path opacity="0.8" d="M277.196 182.78C277.296 182.78 277.378 182.698 277.378 182.598C277.378 182.497 277.296 182.416 277.196 182.416C277.096 182.416 277.014 182.497 277.014 182.598C277.014 182.698 277.096 182.78 277.196 182.78Z" fill="black"/>
<path opacity="0.8" d="M274.033 182.125C274.134 182.125 274.215 182.044 274.215 181.943C274.215 181.843 274.134 181.761 274.033 181.761C273.933 181.761 273.851 181.843 273.851 181.943C273.851 182.044 273.933 182.125 274.033 182.125Z" fill="black"/>
<path opacity="0.8" d="M275.015 182.307C275.115 182.307 275.196 182.225 275.196 182.125C275.196 182.024 275.115 181.943 275.015 181.943C274.914 181.943 274.833 182.024 274.833 182.125C274.833 182.225 274.914 182.307 275.015 182.307Z" fill="black"/>
<path opacity="0.8" d="M272.943 181.762C273.043 181.762 273.124 181.68 273.124 181.58C273.124 181.48 273.043 181.398 272.943 181.398C272.842 181.398 272.761 181.48 272.761 181.58C272.761 181.68 272.842 181.762 272.943 181.762Z" fill="black"/>
<path opacity="0.8" d="M285.048 182.416C285.149 182.416 285.23 182.334 285.23 182.234C285.23 182.134 285.149 182.052 285.048 182.052C284.948 182.052 284.867 182.134 284.867 182.234C284.867 182.334 284.948 182.416 285.048 182.416Z" fill="black"/>
<path opacity="0.8" d="M282.831 182.78C282.931 182.78 283.013 182.698 283.013 182.598C283.013 182.497 282.931 182.416 282.831 182.416C282.731 182.416 282.649 182.497 282.649 182.598C282.649 182.698 282.731 182.78 282.831 182.78Z" fill="black"/>
<path opacity="0.8" d="M280.468 182.961C280.568 182.961 280.65 182.88 280.65 182.779C280.65 182.679 280.568 182.598 280.468 182.598C280.367 182.598 280.286 182.679 280.286 182.779C280.286 182.88 280.367 182.961 280.468 182.961Z" fill="black"/>
<path opacity="0.8" d="M278.287 182.961C278.387 182.961 278.469 182.88 278.469 182.779C278.469 182.679 278.387 182.598 278.287 182.598C278.186 182.598 278.105 182.679 278.105 182.779C278.105 182.88 278.186 182.961 278.287 182.961Z" fill="black"/>
</g>
<g opacity="0.8">
<path opacity="0.8" d="M288.284 182.416C288.384 182.416 288.465 182.335 288.465 182.234C288.465 182.134 288.384 182.052 288.284 182.052C288.183 182.052 288.102 182.134 288.102 182.234C288.102 182.335 288.183 182.416 288.284 182.416Z" fill="black"/>
<path opacity="0.8" d="M287.302 182.67C287.402 182.67 287.484 182.589 287.484 182.489C287.484 182.388 287.402 182.307 287.302 182.307C287.201 182.307 287.12 182.388 287.12 182.489C287.12 182.589 287.201 182.67 287.302 182.67Z" fill="black"/>
<path opacity="0.8" d="M286.139 183.071C286.239 183.071 286.321 182.989 286.321 182.889C286.321 182.788 286.239 182.707 286.139 182.707C286.039 182.707 285.957 182.788 285.957 182.889C285.957 182.989 286.039 183.071 286.139 183.071Z" fill="black"/>
<path opacity="0.8" d="M283.994 183.507C284.094 183.507 284.176 183.425 284.176 183.325C284.176 183.225 284.094 183.143 283.994 183.143C283.893 183.143 283.812 183.225 283.812 183.325C283.812 183.425 283.893 183.507 283.994 183.507Z" fill="black"/>
<path opacity="0.8" d="M281.74 183.798C281.841 183.798 281.922 183.716 281.922 183.616C281.922 183.515 281.841 183.434 281.74 183.434C281.64 183.434 281.559 183.515 281.559 183.616C281.559 183.716 281.64 183.798 281.74 183.798Z" fill="black"/>
<path opacity="0.8" d="M279.451 183.907C279.551 183.907 279.632 183.825 279.632 183.725C279.632 183.624 279.551 183.543 279.451 183.543C279.35 183.543 279.269 183.624 279.269 183.725C279.269 183.825 279.35 183.907 279.451 183.907Z" fill="black"/>
<path opacity="0.8" d="M276.105 183.434C276.206 183.434 276.287 183.352 276.287 183.252C276.287 183.152 276.206 183.07 276.105 183.07C276.005 183.07 275.924 183.152 275.924 183.252C275.924 183.352 276.005 183.434 276.105 183.434Z" fill="black"/>
<path opacity="0.8" d="M277.196 183.725C277.296 183.725 277.378 183.643 277.378 183.543C277.378 183.443 277.296 183.361 277.196 183.361C277.096 183.361 277.014 183.443 277.014 183.543C277.014 183.643 277.096 183.725 277.196 183.725Z" fill="black"/>
<path opacity="0.8" d="M274.033 183.071C274.134 183.071 274.215 182.989 274.215 182.889C274.215 182.788 274.134 182.707 274.033 182.707C273.933 182.707 273.851 182.788 273.851 182.889C273.851 182.989 273.933 183.071 274.033 183.071Z" fill="black"/>
<path opacity="0.8" d="M275.015 183.252C275.115 183.252 275.196 183.171 275.196 183.07C275.196 182.97 275.115 182.889 275.015 182.889C274.914 182.889 274.833 182.97 274.833 183.07C274.833 183.171 274.914 183.252 275.015 183.252Z" fill="black"/>
<path opacity="0.8" d="M272.943 182.67C273.043 182.67 273.124 182.589 273.124 182.489C273.124 182.388 273.043 182.307 272.943 182.307C272.842 182.307 272.761 182.388 272.761 182.489C272.761 182.589 272.842 182.67 272.943 182.67Z" fill="black"/>
<path opacity="0.8" d="M285.048 183.325C285.149 183.325 285.23 183.244 285.23 183.143C285.23 183.043 285.149 182.961 285.048 182.961C284.948 182.961 284.867 183.043 284.867 183.143C284.867 183.244 284.948 183.325 285.048 183.325Z" fill="black"/>
<path opacity="0.8" d="M282.831 183.725C282.931 183.725 283.013 183.643 283.013 183.543C283.013 183.443 282.931 183.361 282.831 183.361C282.731 183.361 282.649 183.443 282.649 183.543C282.649 183.643 282.731 183.725 282.831 183.725Z" fill="black"/>
<path opacity="0.8" d="M280.468 183.907C280.568 183.907 280.65 183.825 280.65 183.725C280.65 183.624 280.568 183.543 280.468 183.543C280.367 183.543 280.286 183.624 280.286 183.725C280.286 183.825 280.367 183.907 280.468 183.907Z" fill="black"/>
<path opacity="0.8" d="M278.287 183.907C278.387 183.907 278.469 183.825 278.469 183.725C278.469 183.624 278.387 183.543 278.287 183.543C278.186 183.543 278.105 183.624 278.105 183.725C278.105 183.825 278.186 183.907 278.287 183.907Z" fill="black"/>
</g>
<g opacity="0.8">
<path opacity="0.8" d="M288.284 183.361C288.384 183.361 288.465 183.28 288.465 183.18C288.465 183.079 288.384 182.998 288.284 182.998C288.183 182.998 288.102 183.079 288.102 183.18C288.102 183.28 288.183 183.361 288.284 183.361Z" fill="black"/>
<path opacity="0.8" d="M287.302 183.616C287.402 183.616 287.484 183.534 287.484 183.434C287.484 183.334 287.402 183.252 287.302 183.252C287.201 183.252 287.12 183.334 287.12 183.434C287.12 183.534 287.201 183.616 287.302 183.616Z" fill="black"/>
<path opacity="0.8" d="M286.139 183.98C286.239 183.98 286.321 183.898 286.321 183.798C286.321 183.697 286.239 183.616 286.139 183.616C286.039 183.616 285.957 183.697 285.957 183.798C285.957 183.898 286.039 183.98 286.139 183.98Z" fill="black"/>
<path opacity="0.8" d="M283.994 184.452C284.094 184.452 284.176 184.371 284.176 184.27C284.176 184.17 284.094 184.089 283.994 184.089C283.893 184.089 283.812 184.17 283.812 184.27C283.812 184.371 283.893 184.452 283.994 184.452Z" fill="black"/>
<path opacity="0.8" d="M281.74 184.743C281.841 184.743 281.922 184.661 281.922 184.561C281.922 184.461 281.841 184.379 281.74 184.379C281.64 184.379 281.559 184.461 281.559 184.561C281.559 184.661 281.64 184.743 281.74 184.743Z" fill="black"/>
<path opacity="0.8" d="M279.451 184.815C279.551 184.815 279.632 184.734 279.632 184.634C279.632 184.533 279.551 184.452 279.451 184.452C279.35 184.452 279.269 184.533 279.269 184.634C279.269 184.734 279.35 184.815 279.451 184.815Z" fill="black"/>
<path opacity="0.8" d="M276.105 184.379C276.206 184.379 276.287 184.298 276.287 184.197C276.287 184.097 276.206 184.016 276.105 184.016C276.005 184.016 275.924 184.097 275.924 184.197C275.924 184.298 276.005 184.379 276.105 184.379Z" fill="black"/>
<path opacity="0.8" d="M277.196 184.634C277.296 184.634 277.378 184.552 277.378 184.452C277.378 184.352 277.296 184.27 277.196 184.27C277.096 184.27 277.014 184.352 277.014 184.452C277.014 184.552 277.096 184.634 277.196 184.634Z" fill="black"/>
<path opacity="0.8" d="M274.033 183.98C274.134 183.98 274.215 183.898 274.215 183.798C274.215 183.697 274.134 183.616 274.033 183.616C273.933 183.616 273.851 183.697 273.851 183.798C273.851 183.898 273.933 183.98 274.033 183.98Z" fill="black"/>
<path opacity="0.8" d="M275.015 184.197C275.115 184.197 275.196 184.116 275.196 184.016C275.196 183.915 275.115 183.834 275.015 183.834C274.914 183.834 274.833 183.915 274.833 184.016C274.833 184.116 274.914 184.197 275.015 184.197Z" fill="black"/>
<path opacity="0.8" d="M272.943 183.616C273.043 183.616 273.124 183.534 273.124 183.434C273.124 183.334 273.043 183.252 272.943 183.252C272.842 183.252 272.761 183.334 272.761 183.434C272.761 183.534 272.842 183.616 272.943 183.616Z" fill="black"/>
<path opacity="0.8" d="M285.048 184.27C285.149 184.27 285.23 184.189 285.23 184.089C285.23 183.988 285.149 183.907 285.048 183.907C284.948 183.907 284.867 183.988 284.867 184.089C284.867 184.189 284.948 184.27 285.048 184.27Z" fill="black"/>
<path opacity="0.8" d="M282.831 184.634C282.931 184.634 283.013 184.552 283.013 184.452C283.013 184.352 282.931 184.27 282.831 184.27C282.731 184.27 282.649 184.352 282.649 184.452C282.649 184.552 282.731 184.634 282.831 184.634Z" fill="black"/>
<path opacity="0.8" d="M280.468 184.815C280.568 184.815 280.65 184.734 280.65 184.634C280.65 184.533 280.568 184.452 280.468 184.452C280.367 184.452 280.286 184.533 280.286 184.634C280.286 184.734 280.367 184.815 280.468 184.815Z" fill="black"/>
<path opacity="0.8" d="M278.287 184.815C278.387 184.815 278.469 184.734 278.469 184.634C278.469 184.533 278.387 184.452 278.287 184.452C278.186 184.452 278.105 184.533 278.105 184.634C278.105 184.734 278.186 184.815 278.287 184.815Z" fill="black"/>
</g>
<g opacity="0.8">
<path opacity="0.8" d="M288.284 184.271C288.384 184.271 288.465 184.189 288.465 184.089C288.465 183.988 288.384 183.907 288.284 183.907C288.183 183.907 288.102 183.988 288.102 184.089C288.102 184.189 288.183 184.271 288.284 184.271Z" fill="black"/>
<path opacity="0.8" d="M287.302 184.562C287.402 184.562 287.484 184.48 287.484 184.38C287.484 184.279 287.402 184.198 287.302 184.198C287.201 184.198 287.12 184.279 287.12 184.38C287.12 184.48 287.201 184.562 287.302 184.562Z" fill="black"/>
<path opacity="0.8" d="M286.139 184.925C286.239 184.925 286.321 184.843 286.321 184.743C286.321 184.643 286.239 184.561 286.139 184.561C286.039 184.561 285.957 184.643 285.957 184.743C285.957 184.843 286.039 184.925 286.139 184.925Z" fill="black"/>
<path opacity="0.8" d="M283.994 185.397C284.094 185.397 284.176 185.316 284.176 185.216C284.176 185.115 284.094 185.034 283.994 185.034C283.893 185.034 283.812 185.115 283.812 185.216C283.812 185.316 283.893 185.397 283.994 185.397Z" fill="black"/>
<path opacity="0.8" d="M281.74 185.652C281.841 185.652 281.922 185.57 281.922 185.47C281.922 185.37 281.841 185.288 281.74 185.288C281.64 185.288 281.559 185.37 281.559 185.47C281.559 185.57 281.64 185.652 281.74 185.652Z" fill="black"/>
<path opacity="0.8" d="M279.451 185.761C279.551 185.761 279.632 185.68 279.632 185.579C279.632 185.479 279.551 185.397 279.451 185.397C279.35 185.397 279.269 185.479 279.269 185.579C279.269 185.68 279.35 185.761 279.451 185.761Z" fill="black"/>
<path opacity="0.8" d="M276.105 185.288C276.206 185.288 276.287 185.207 276.287 185.107C276.287 185.006 276.206 184.925 276.105 184.925C276.005 184.925 275.924 185.006 275.924 185.107C275.924 185.207 276.005 185.288 276.105 185.288Z" fill="black"/>
<path opacity="0.8" d="M277.196 185.579C277.296 185.579 277.378 185.498 277.378 185.398C277.378 185.297 277.296 185.216 277.196 185.216C277.096 185.216 277.014 185.297 277.014 185.398C277.014 185.498 277.096 185.579 277.196 185.579Z" fill="black"/>
<path opacity="0.8" d="M274.033 184.925C274.134 184.925 274.215 184.843 274.215 184.743C274.215 184.643 274.134 184.561 274.033 184.561C273.933 184.561 273.851 184.643 273.851 184.743C273.851 184.843 273.933 184.925 274.033 184.925Z" fill="black"/>
<path opacity="0.8" d="M275.015 185.106C275.115 185.106 275.196 185.025 275.196 184.925C275.196 184.824 275.115 184.743 275.015 184.743C274.914 184.743 274.833 184.824 274.833 184.925C274.833 185.025 274.914 185.106 275.015 185.106Z" fill="black"/>
<path opacity="0.8" d="M272.943 184.562C273.043 184.562 273.124 184.48 273.124 184.38C273.124 184.279 273.043 184.198 272.943 184.198C272.842 184.198 272.761 184.279 272.761 184.38C272.761 184.48 272.842 184.562 272.943 184.562Z" fill="black"/>
<path opacity="0.8" d="M285.048 185.179C285.149 185.179 285.23 185.098 285.23 184.998C285.23 184.897 285.149 184.816 285.048 184.816C284.948 184.816 284.867 184.897 284.867 184.998C284.867 185.098 284.948 185.179 285.048 185.179Z" fill="black"/>
<path opacity="0.8" d="M282.831 185.579C282.931 185.579 283.013 185.498 283.013 185.398C283.013 185.297 282.931 185.216 282.831 185.216C282.731 185.216 282.649 185.297 282.649 185.398C282.649 185.498 282.731 185.579 282.831 185.579Z" fill="black"/>
<path opacity="0.8" d="M280.468 185.761C280.568 185.761 280.65 185.68 280.65 185.579C280.65 185.479 280.568 185.397 280.468 185.397C280.367 185.397 280.286 185.479 280.286 185.579C280.286 185.68 280.367 185.761 280.468 185.761Z" fill="black"/>
<path opacity="0.8" d="M278.287 185.761C278.387 185.761 278.469 185.68 278.469 185.579C278.469 185.479 278.387 185.397 278.287 185.397C278.186 185.397 278.105 185.479 278.105 185.579C278.105 185.68 278.186 185.761 278.287 185.761Z" fill="black"/>
</g>
<g opacity="0.8">
<path opacity="0.8" d="M288.284 185.215C288.384 185.215 288.465 185.134 288.465 185.034C288.465 184.933 288.384 184.852 288.284 184.852C288.183 184.852 288.102 184.933 288.102 185.034C288.102 185.134 288.183 185.215 288.284 185.215Z" fill="black"/>
<path opacity="0.8" d="M287.302 185.47C287.402 185.47 287.484 185.388 287.484 185.288C287.484 185.188 287.402 185.106 287.302 185.106C287.201 185.106 287.12 185.188 287.12 185.288C287.12 185.388 287.201 185.47 287.302 185.47Z" fill="black"/>
<path opacity="0.8" d="M286.139 185.87C286.239 185.87 286.321 185.788 286.321 185.688C286.321 185.587 286.239 185.506 286.139 185.506C286.039 185.506 285.957 185.587 285.957 185.688C285.957 185.788 286.039 185.87 286.139 185.87Z" fill="black"/>
<path opacity="0.8" d="M283.994 186.306C284.094 186.306 284.176 186.225 284.176 186.124C284.176 186.024 284.094 185.943 283.994 185.943C283.893 185.943 283.812 186.024 283.812 186.124C283.812 186.225 283.893 186.306 283.994 186.306Z" fill="black"/>
<path opacity="0.8" d="M281.74 186.597C281.841 186.597 281.922 186.515 281.922 186.415C281.922 186.315 281.841 186.233 281.74 186.233C281.64 186.233 281.559 186.315 281.559 186.415C281.559 186.515 281.64 186.597 281.74 186.597Z" fill="black"/>
<path opacity="0.8" d="M279.451 186.706C279.551 186.706 279.632 186.624 279.632 186.524C279.632 186.424 279.551 186.342 279.451 186.342C279.35 186.342 279.269 186.424 279.269 186.524C279.269 186.624 279.35 186.706 279.451 186.706Z" fill="black"/>
<path opacity="0.8" d="M276.105 186.233C276.206 186.233 276.287 186.152 276.287 186.051C276.287 185.951 276.206 185.87 276.105 185.87C276.005 185.87 275.924 185.951 275.924 186.051C275.924 186.152 276.005 186.233 276.105 186.233Z" fill="black"/>
<path opacity="0.8" d="M277.196 186.488C277.296 186.488 277.378 186.406 277.378 186.306C277.378 186.206 277.296 186.124 277.196 186.124C277.096 186.124 277.014 186.206 277.014 186.306C277.014 186.406 277.096 186.488 277.196 186.488Z" fill="black"/>
<path opacity="0.8" d="M274.033 185.87C274.134 185.87 274.215 185.788 274.215 185.688C274.215 185.587 274.134 185.506 274.033 185.506C273.933 185.506 273.851 185.587 273.851 185.688C273.851 185.788 273.933 185.87 274.033 185.87Z" fill="black"/>
<path opacity="0.8" d="M275.015 186.051C275.115 186.051 275.196 185.97 275.196 185.87C275.196 185.769 275.115 185.688 275.015 185.688C274.914 185.688 274.833 185.769 274.833 185.87C274.833 185.97 274.914 186.051 275.015 186.051Z" fill="black"/>
<path opacity="0.8" d="M272.943 185.47C273.043 185.47 273.124 185.388 273.124 185.288C273.124 185.188 273.043 185.106 272.943 185.106C272.842 185.106 272.761 185.188 272.761 185.288C272.761 185.388 272.842 185.47 272.943 185.47Z" fill="black"/>
<path opacity="0.8" d="M285.048 186.124C285.149 186.124 285.23 186.043 285.23 185.943C285.23 185.842 285.149 185.761 285.048 185.761C284.948 185.761 284.867 185.842 284.867 185.943C284.867 186.043 284.948 186.124 285.048 186.124Z" fill="black"/>
<path opacity="0.8" d="M282.831 186.488C282.931 186.488 283.012 186.406 283.012 186.306C283.012 186.206 282.931 186.124 282.831 186.124C282.73 186.124 282.649 186.206 282.649 186.306C282.649 186.406 282.73 186.488 282.831 186.488Z" fill="black"/>
<path opacity="0.8" d="M280.468 186.706C280.568 186.706 280.65 186.624 280.65 186.524C280.65 186.424 280.568 186.342 280.468 186.342C280.367 186.342 280.286 186.424 280.286 186.524C280.286 186.624 280.367 186.706 280.468 186.706Z" fill="black"/>
<path opacity="0.8" d="M278.287 186.706C278.387 186.706 278.469 186.624 278.469 186.524C278.469 186.424 278.387 186.342 278.287 186.342C278.186 186.342 278.105 186.424 278.105 186.524C278.105 186.624 278.186 186.706 278.287 186.706Z" fill="black"/>
</g>
<g opacity="0.8">
<path opacity="0.8" d="M288.284 186.124C288.384 186.124 288.465 186.043 288.465 185.942C288.465 185.842 288.384 185.76 288.284 185.76C288.183 185.76 288.102 185.842 288.102 185.942C288.102 186.043 288.183 186.124 288.284 186.124Z" fill="black"/>
<path opacity="0.8" d="M287.302 186.415C287.402 186.415 287.484 186.334 287.484 186.233C287.484 186.133 287.402 186.052 287.302 186.052C287.201 186.052 287.12 186.133 287.12 186.233C287.12 186.334 287.201 186.415 287.302 186.415Z" fill="black"/>
<path opacity="0.8" d="M286.139 186.778C286.239 186.778 286.321 186.697 286.321 186.597C286.321 186.496 286.239 186.415 286.139 186.415C286.039 186.415 285.957 186.496 285.957 186.597C285.957 186.697 286.039 186.778 286.139 186.778Z" fill="black"/>
<path opacity="0.8" d="M283.994 187.251C284.094 187.251 284.176 187.17 284.176 187.069C284.176 186.969 284.094 186.888 283.994 186.888C283.893 186.888 283.812 186.969 283.812 187.069C283.812 187.17 283.893 187.251 283.994 187.251Z" fill="black"/>
<path opacity="0.8" d="M281.74 187.505C281.841 187.505 281.922 187.424 281.922 187.324C281.922 187.223 281.841 187.142 281.74 187.142C281.64 187.142 281.559 187.223 281.559 187.324C281.559 187.424 281.64 187.505 281.74 187.505Z" fill="black"/>
<path opacity="0.8" d="M279.451 187.615C279.551 187.615 279.632 187.533 279.632 187.433C279.632 187.332 279.551 187.251 279.451 187.251C279.35 187.251 279.269 187.332 279.269 187.433C279.269 187.533 279.35 187.615 279.451 187.615Z" fill="black"/>
<path opacity="0.8" d="M276.105 187.178C276.206 187.178 276.287 187.097 276.287 186.997C276.287 186.896 276.206 186.815 276.105 186.815C276.005 186.815 275.924 186.896 275.924 186.997C275.924 187.097 276.005 187.178 276.105 187.178Z" fill="black"/>
<path opacity="0.8" d="M277.196 187.433C277.296 187.433 277.378 187.351 277.378 187.251C277.378 187.151 277.296 187.069 277.196 187.069C277.096 187.069 277.014 187.151 277.014 187.251C277.014 187.351 277.096 187.433 277.196 187.433Z" fill="black"/>
<path opacity="0.8" d="M274.033 186.778C274.134 186.778 274.215 186.697 274.215 186.597C274.215 186.496 274.134 186.415 274.033 186.415C273.933 186.415 273.851 186.496 273.851 186.597C273.851 186.697 273.933 186.778 274.033 186.778Z" fill="black"/>
<path opacity="0.8" d="M275.015 186.96C275.115 186.96 275.196 186.879 275.196 186.778C275.196 186.678 275.115 186.596 275.015 186.596C274.914 186.596 274.833 186.678 274.833 186.778C274.833 186.879 274.914 186.96 275.015 186.96Z" fill="black"/>
<path opacity="0.8" d="M272.943 186.415C273.043 186.415 273.124 186.334 273.124 186.233C273.124 186.133 273.043 186.052 272.943 186.052C272.842 186.052 272.761 186.133 272.761 186.233C272.761 186.334 272.842 186.415 272.943 186.415Z" fill="black"/>
<path opacity="0.8" d="M285.048 187.069C285.149 187.069 285.23 186.988 285.23 186.887C285.23 186.787 285.149 186.706 285.048 186.706C284.948 186.706 284.867 186.787 284.867 186.887C284.867 186.988 284.948 187.069 285.048 187.069Z" fill="black"/>
<path opacity="0.8" d="M282.831 187.433C282.931 187.433 283.012 187.351 283.012 187.251C283.012 187.151 282.931 187.069 282.831 187.069C282.73 187.069 282.649 187.151 282.649 187.251C282.649 187.351 282.73 187.433 282.831 187.433Z" fill="black"/>
<path opacity="0.8" d="M280.468 187.615C280.568 187.615 280.65 187.533 280.65 187.433C280.65 187.332 280.568 187.251 280.468 187.251C280.367 187.251 280.286 187.332 280.286 187.433C280.286 187.533 280.367 187.615 280.468 187.615Z" fill="black"/>
<path opacity="0.8" d="M278.287 187.615C278.387 187.615 278.469 187.533 278.469 187.433C278.469 187.332 278.387 187.251 278.287 187.251C278.186 187.251 278.105 187.332 278.105 187.433C278.105 187.533 278.186 187.615 278.287 187.615Z" fill="black"/>
</g>
<g opacity="0.8">
<path opacity="0.8" d="M288.284 187.069C288.384 187.069 288.465 186.988 288.465 186.887C288.465 186.787 288.384 186.706 288.284 186.706C288.183 186.706 288.102 186.787 288.102 186.887C288.102 186.988 288.183 187.069 288.284 187.069Z" fill="black"/>
<path opacity="0.8" d="M287.302 187.323C287.402 187.323 287.484 187.242 287.484 187.142C287.484 187.041 287.402 186.96 287.302 186.96C287.201 186.96 287.12 187.041 287.12 187.142C287.12 187.242 287.201 187.323 287.302 187.323Z" fill="black"/>
<path opacity="0.8" d="M286.139 187.723C286.239 187.723 286.321 187.642 286.321 187.542C286.321 187.441 286.239 187.36 286.139 187.36C286.039 187.36 285.957 187.441 285.957 187.542C285.957 187.642 286.039 187.723 286.139 187.723Z" fill="black"/>
<path opacity="0.8" d="M283.994 188.16C284.094 188.16 284.176 188.079 284.176 187.978C284.176 187.878 284.094 187.796 283.994 187.796C283.893 187.796 283.812 187.878 283.812 187.978C283.812 188.079 283.893 188.16 283.994 188.16Z" fill="black"/>
<path opacity="0.8" d="M281.74 188.45C281.841 188.45 281.922 188.369 281.922 188.269C281.922 188.168 281.841 188.087 281.74 188.087C281.64 188.087 281.559 188.168 281.559 188.269C281.559 188.369 281.64 188.45 281.74 188.45Z" fill="black"/>
<path opacity="0.8" d="M279.451 188.56C279.551 188.56 279.632 188.478 279.632 188.378C279.632 188.277 279.551 188.196 279.451 188.196C279.35 188.196 279.269 188.277 279.269 188.378C279.269 188.478 279.35 188.56 279.451 188.56Z" fill="black"/>
<path opacity="0.8" d="M276.105 188.087C276.206 188.087 276.287 188.006 276.287 187.905C276.287 187.805 276.206 187.723 276.105 187.723C276.005 187.723 275.924 187.805 275.924 187.905C275.924 188.006 276.005 188.087 276.105 188.087Z" fill="black"/>
<path opacity="0.8" d="M277.196 188.378C277.296 188.378 277.378 188.297 277.378 188.196C277.378 188.096 277.296 188.014 277.196 188.014C277.096 188.014 277.014 188.096 277.014 188.196C277.014 188.297 277.096 188.378 277.196 188.378Z" fill="black"/>
<path opacity="0.8" d="M274.033 187.723C274.134 187.723 274.215 187.642 274.215 187.542C274.215 187.441 274.134 187.36 274.033 187.36C273.933 187.36 273.851 187.441 273.851 187.542C273.851 187.642 273.933 187.723 274.033 187.723Z" fill="black"/>
<path opacity="0.8" d="M275.015 187.905C275.115 187.905 275.196 187.824 275.196 187.723C275.196 187.623 275.115 187.542 275.015 187.542C274.914 187.542 274.833 187.623 274.833 187.723C274.833 187.824 274.914 187.905 275.015 187.905Z" fill="black"/>
<path opacity="0.8" d="M272.943 187.323C273.043 187.323 273.124 187.242 273.124 187.142C273.124 187.041 273.043 186.96 272.943 186.96C272.842 186.96 272.761 187.041 272.761 187.142C272.761 187.242 272.842 187.323 272.943 187.323Z" fill="black"/>
<path opacity="0.8" d="M285.048 187.978C285.149 187.978 285.23 187.897 285.23 187.796C285.23 187.696 285.149 187.615 285.048 187.615C284.948 187.615 284.867 187.696 284.867 187.796C284.867 187.897 284.948 187.978 285.048 187.978Z" fill="black"/>
<path opacity="0.8" d="M282.831 188.378C282.931 188.378 283.012 188.297 283.012 188.196C283.012 188.096 282.931 188.014 282.831 188.014C282.73 188.014 282.649 188.096 282.649 188.196C282.649 188.297 282.73 188.378 282.831 188.378Z" fill="black"/>
<path opacity="0.8" d="M280.468 188.56C280.568 188.56 280.65 188.478 280.65 188.378C280.65 188.277 280.568 188.196 280.468 188.196C280.367 188.196 280.286 188.277 280.286 188.378C280.286 188.478 280.367 188.56 280.468 188.56Z" fill="black"/>
<path opacity="0.8" d="M278.287 188.56C278.387 188.56 278.469 188.478 278.469 188.378C278.469 188.277 278.387 188.196 278.287 188.196C278.186 188.196 278.105 188.277 278.105 188.378C278.105 188.478 278.186 188.56 278.287 188.56Z" fill="black"/>
</g>
<g opacity="0.8">
<path opacity="0.8" d="M288.284 188.015C288.384 188.015 288.465 187.933 288.465 187.833C288.465 187.733 288.384 187.651 288.284 187.651C288.183 187.651 288.102 187.733 288.102 187.833C288.102 187.933 288.183 188.015 288.284 188.015Z" fill="black"/>
<path opacity="0.8" d="M287.302 188.269C287.402 188.269 287.484 188.188 287.484 188.087C287.484 187.987 287.402 187.906 287.302 187.906C287.201 187.906 287.12 187.987 287.12 188.087C287.12 188.188 287.201 188.269 287.302 188.269Z" fill="black"/>
<path opacity="0.8" d="M286.139 188.633C286.239 188.633 286.321 188.551 286.321 188.451C286.321 188.351 286.239 188.269 286.139 188.269C286.039 188.269 285.957 188.351 285.957 188.451C285.957 188.551 286.039 188.633 286.139 188.633Z" fill="black"/>
<path opacity="0.8" d="M283.994 189.105C284.094 189.105 284.176 189.024 284.176 188.924C284.176 188.823 284.094 188.742 283.994 188.742C283.893 188.742 283.812 188.823 283.812 188.924C283.812 189.024 283.893 189.105 283.994 189.105Z" fill="black"/>
<path opacity="0.8" d="M281.74 189.396C281.841 189.396 281.922 189.315 281.922 189.214C281.922 189.114 281.841 189.032 281.74 189.032C281.64 189.032 281.559 189.114 281.559 189.214C281.559 189.315 281.64 189.396 281.74 189.396Z" fill="black"/>
<path opacity="0.8" d="M279.451 189.505C279.551 189.505 279.632 189.424 279.632 189.323C279.632 189.223 279.551 189.142 279.451 189.142C279.35 189.142 279.269 189.223 279.269 189.323C279.269 189.424 279.35 189.505 279.451 189.505Z" fill="black"/>
<path opacity="0.8" d="M276.105 189.032C276.206 189.032 276.287 188.951 276.287 188.851C276.287 188.75 276.206 188.669 276.105 188.669C276.005 188.669 275.924 188.75 275.924 188.851C275.924 188.951 276.005 189.032 276.105 189.032Z" fill="black"/>
<path opacity="0.8" d="M277.196 189.287C277.296 189.287 277.378 189.206 277.378 189.105C277.378 189.005 277.296 188.924 277.196 188.924C277.096 188.924 277.014 189.005 277.014 189.105C277.014 189.206 277.096 189.287 277.196 189.287Z" fill="black"/>
<path opacity="0.8" d="M274.033 188.633C274.134 188.633 274.215 188.551 274.215 188.451C274.215 188.351 274.134 188.269 274.033 188.269C273.933 188.269 273.851 188.351 273.851 188.451C273.851 188.551 273.933 188.633 274.033 188.633Z" fill="black"/>
<path opacity="0.8" d="M275.015 188.851C275.115 188.851 275.196 188.769 275.196 188.669C275.196 188.568 275.115 188.487 275.015 188.487C274.914 188.487 274.833 188.568 274.833 188.669C274.833 188.769 274.914 188.851 275.015 188.851Z" fill="black"/>
<path opacity="0.8" d="M272.943 188.269C273.043 188.269 273.124 188.188 273.124 188.087C273.124 187.987 273.043 187.906 272.943 187.906C272.842 187.906 272.761 187.987 272.761 188.087C272.761 188.188 272.842 188.269 272.943 188.269Z" fill="black"/>
<path opacity="0.8" d="M285.048 188.924C285.149 188.924 285.23 188.842 285.23 188.742C285.23 188.641 285.149 188.56 285.048 188.56C284.948 188.56 284.867 188.641 284.867 188.742C284.867 188.842 284.948 188.924 285.048 188.924Z" fill="black"/>
<path opacity="0.8" d="M282.831 189.287C282.931 189.287 283.012 189.206 283.012 189.105C283.012 189.005 282.931 188.924 282.831 188.924C282.73 188.924 282.649 189.005 282.649 189.105C282.649 189.206 282.73 189.287 282.831 189.287Z" fill="black"/>
<path opacity="0.8" d="M280.468 189.505C280.568 189.505 280.65 189.424 280.65 189.323C280.65 189.223 280.568 189.142 280.468 189.142C280.367 189.142 280.286 189.223 280.286 189.323C280.286 189.424 280.367 189.505 280.468 189.505Z" fill="black"/>
<path opacity="0.8" d="M278.287 189.505C278.387 189.505 278.469 189.424 278.469 189.323C278.469 189.223 278.387 189.142 278.287 189.142C278.186 189.142 278.105 189.223 278.105 189.323C278.105 189.424 278.186 189.505 278.287 189.505Z" fill="black"/>
</g>
<g opacity="0.8">
<path opacity="0.8" d="M288.284 188.924C288.384 188.924 288.465 188.842 288.465 188.742C288.465 188.641 288.384 188.56 288.284 188.56C288.183 188.56 288.102 188.641 288.102 188.742C288.102 188.842 288.183 188.924 288.284 188.924Z" fill="black"/>
<path opacity="0.8" d="M287.302 189.215C287.402 189.215 287.484 189.133 287.484 189.033C287.484 188.932 287.402 188.851 287.302 188.851C287.201 188.851 287.12 188.932 287.12 189.033C287.12 189.133 287.201 189.215 287.302 189.215Z" fill="black"/>
<path opacity="0.8" d="M286.139 189.578C286.239 189.578 286.321 189.497 286.321 189.396C286.321 189.296 286.239 189.214 286.139 189.214C286.039 189.214 285.957 189.296 285.957 189.396C285.957 189.497 286.039 189.578 286.139 189.578Z" fill="black"/>
<path opacity="0.8" d="M283.994 190.051C284.094 190.051 284.176 189.969 284.176 189.869C284.176 189.769 284.094 189.687 283.994 189.687C283.893 189.687 283.812 189.769 283.812 189.869C283.812 189.969 283.893 190.051 283.994 190.051Z" fill="black"/>
<path opacity="0.8" d="M281.74 190.305C281.841 190.305 281.922 190.224 281.922 190.123C281.922 190.023 281.841 189.941 281.74 189.941C281.64 189.941 281.559 190.023 281.559 190.123C281.559 190.224 281.64 190.305 281.74 190.305Z" fill="black"/>
<path opacity="0.8" d="M279.451 190.414C279.551 190.414 279.632 190.333 279.632 190.232C279.632 190.132 279.551 190.051 279.451 190.051C279.35 190.051 279.269 190.132 279.269 190.232C279.269 190.333 279.35 190.414 279.451 190.414Z" fill="black"/>
<path opacity="0.8" d="M276.105 189.978C276.206 189.978 276.287 189.897 276.287 189.796C276.287 189.696 276.206 189.615 276.105 189.615C276.005 189.615 275.924 189.696 275.924 189.796C275.924 189.897 276.005 189.978 276.105 189.978Z" fill="black"/>
<path opacity="0.8" d="M277.196 190.232C277.296 190.232 277.378 190.151 277.378 190.051C277.378 189.95 277.296 189.869 277.196 189.869C277.096 189.869 277.014 189.95 277.014 190.051C277.014 190.151 277.096 190.232 277.196 190.232Z" fill="black"/>
<path opacity="0.8" d="M274.033 189.578C274.134 189.578 274.215 189.497 274.215 189.396C274.215 189.296 274.134 189.214 274.033 189.214C273.933 189.214 273.851 189.296 273.851 189.396C273.851 189.497 273.933 189.578 274.033 189.578Z" fill="black"/>
<path opacity="0.8" d="M275.015 189.76C275.115 189.76 275.196 189.678 275.196 189.578C275.196 189.477 275.115 189.396 275.015 189.396C274.914 189.396 274.833 189.477 274.833 189.578C274.833 189.678 274.914 189.76 275.015 189.76Z" fill="black"/>
<path opacity="0.8" d="M272.943 189.215C273.043 189.215 273.124 189.133 273.124 189.033C273.124 188.932 273.043 188.851 272.943 188.851C272.842 188.851 272.761 188.932 272.761 189.033C272.761 189.133 272.842 189.215 272.943 189.215Z" fill="black"/>
<path opacity="0.8" d="M285.048 189.869C285.149 189.869 285.23 189.787 285.23 189.687C285.23 189.587 285.149 189.505 285.048 189.505C284.948 189.505 284.867 189.587 284.867 189.687C284.867 189.787 284.948 189.869 285.048 189.869Z" fill="black"/>
<path opacity="0.8" d="M282.831 190.232C282.931 190.232 283.012 190.151 283.012 190.051C283.012 189.95 282.931 189.869 282.831 189.869C282.73 189.869 282.649 189.95 282.649 190.051C282.649 190.151 282.73 190.232 282.831 190.232Z" fill="black"/>
<path opacity="0.8" d="M280.468 190.414C280.568 190.414 280.65 190.333 280.65 190.232C280.65 190.132 280.568 190.051 280.468 190.051C280.367 190.051 280.286 190.132 280.286 190.232C280.286 190.333 280.367 190.414 280.468 190.414Z" fill="black"/>
<path opacity="0.8" d="M278.287 190.414C278.387 190.414 278.469 190.333 278.469 190.232C278.469 190.132 278.387 190.051 278.287 190.051C278.186 190.051 278.105 190.132 278.105 190.232C278.105 190.333 278.186 190.414 278.287 190.414Z" fill="black"/>
</g>
<g opacity="0.8">
<path opacity="0.8" d="M288.284 189.868C288.384 189.868 288.465 189.787 288.465 189.687C288.465 189.586 288.384 189.505 288.284 189.505C288.183 189.505 288.102 189.586 288.102 189.687C288.102 189.787 288.183 189.868 288.284 189.868Z" fill="black"/>
<path opacity="0.8" d="M287.302 190.123C287.402 190.123 287.484 190.041 287.484 189.941C287.484 189.841 287.402 189.759 287.302 189.759C287.201 189.759 287.12 189.841 287.12 189.941C287.12 190.041 287.201 190.123 287.302 190.123Z" fill="black"/>
<path opacity="0.8" d="M286.139 190.523C286.239 190.523 286.321 190.442 286.321 190.341C286.321 190.241 286.239 190.159 286.139 190.159C286.039 190.159 285.957 190.241 285.957 190.341C285.957 190.442 286.039 190.523 286.139 190.523Z" fill="black"/>
<path opacity="0.8" d="M283.994 190.959C284.094 190.959 284.176 190.878 284.176 190.777C284.176 190.677 284.094 190.596 283.994 190.596C283.893 190.596 283.812 190.677 283.812 190.777C283.812 190.878 283.893 190.959 283.994 190.959Z" fill="black"/>
<path opacity="0.8" d="M281.74 191.25C281.841 191.25 281.922 191.169 281.922 191.068C281.922 190.968 281.841 190.886 281.74 190.886C281.64 190.886 281.559 190.968 281.559 191.068C281.559 191.169 281.64 191.25 281.74 191.25Z" fill="black"/>
<path opacity="0.8" d="M279.451 191.359C279.551 191.359 279.632 191.278 279.632 191.177C279.632 191.077 279.551 190.995 279.451 190.995C279.35 190.995 279.269 191.077 279.269 191.177C279.269 191.278 279.35 191.359 279.451 191.359Z" fill="black"/>
<path opacity="0.8" d="M276.105 190.886C276.206 190.886 276.287 190.805 276.287 190.704C276.287 190.604 276.206 190.523 276.105 190.523C276.005 190.523 275.924 190.604 275.924 190.704C275.924 190.805 276.005 190.886 276.105 190.886Z" fill="black"/>
<path opacity="0.8" d="M277.196 191.177C277.296 191.177 277.378 191.096 277.378 190.995C277.378 190.895 277.296 190.814 277.196 190.814C277.096 190.814 277.014 190.895 277.014 190.995C277.014 191.096 277.096 191.177 277.196 191.177Z" fill="black"/>
<path opacity="0.8" d="M274.033 190.523C274.134 190.523 274.215 190.442 274.215 190.341C274.215 190.241 274.134 190.159 274.033 190.159C273.933 190.159 273.851 190.241 273.851 190.341C273.851 190.442 273.933 190.523 274.033 190.523Z" fill="black"/>
<path opacity="0.8" d="M275.015 190.705C275.115 190.705 275.196 190.623 275.196 190.523C275.196 190.422 275.115 190.341 275.015 190.341C274.914 190.341 274.833 190.422 274.833 190.523C274.833 190.623 274.914 190.705 275.015 190.705Z" fill="black"/>
<path opacity="0.8" d="M272.943 190.123C273.043 190.123 273.124 190.041 273.124 189.941C273.124 189.841 273.043 189.759 272.943 189.759C272.842 189.759 272.761 189.841 272.761 189.941C272.761 190.041 272.842 190.123 272.943 190.123Z" fill="black"/>
<path opacity="0.8" d="M285.048 190.777C285.149 190.777 285.23 190.696 285.23 190.596C285.23 190.495 285.149 190.414 285.048 190.414C284.948 190.414 284.867 190.495 284.867 190.596C284.867 190.696 284.948 190.777 285.048 190.777Z" fill="black"/>
<path opacity="0.8" d="M282.831 191.177C282.931 191.177 283.012 191.096 283.012 190.995C283.012 190.895 282.931 190.814 282.831 190.814C282.73 190.814 282.649 190.895 282.649 190.995C282.649 191.096 282.73 191.177 282.831 191.177Z" fill="black"/>
<path opacity="0.8" d="M280.468 191.359C280.568 191.359 280.65 191.278 280.65 191.177C280.65 191.077 280.568 190.995 280.468 190.995C280.367 190.995 280.286 191.077 280.286 191.177C280.286 191.278 280.367 191.359 280.468 191.359Z" fill="black"/>
<path opacity="0.8" d="M278.287 191.359C278.387 191.359 278.469 191.278 278.469 191.177C278.469 191.077 278.387 190.995 278.287 190.995C278.186 190.995 278.105 191.077 278.105 191.177C278.105 191.278 278.186 191.359 278.287 191.359Z" fill="black"/>
</g>
<g opacity="0.8">
<path opacity="0.8" d="M288.284 190.814C288.384 190.814 288.465 190.733 288.465 190.632C288.465 190.532 288.384 190.45 288.284 190.45C288.183 190.45 288.102 190.532 288.102 190.632C288.102 190.733 288.183 190.814 288.284 190.814Z" fill="black"/>
<path opacity="0.8" d="M287.302 191.068C287.402 191.068 287.484 190.987 287.484 190.887C287.484 190.786 287.402 190.705 287.302 190.705C287.201 190.705 287.12 190.786 287.12 190.887C287.12 190.987 287.201 191.068 287.302 191.068Z" fill="black"/>
<path opacity="0.8" d="M286.139 191.432C286.239 191.432 286.321 191.351 286.321 191.25C286.321 191.15 286.239 191.069 286.139 191.069C286.039 191.069 285.957 191.15 285.957 191.25C285.957 191.351 286.039 191.432 286.139 191.432Z" fill="black"/>
<path opacity="0.8" d="M283.994 191.905C284.094 191.905 284.176 191.823 284.176 191.723C284.176 191.623 284.094 191.541 283.994 191.541C283.893 191.541 283.812 191.623 283.812 191.723C283.812 191.823 283.893 191.905 283.994 191.905Z" fill="black"/>
<path opacity="0.8" d="M281.74 192.159C281.841 192.159 281.922 192.078 281.922 191.977C281.922 191.877 281.841 191.796 281.74 191.796C281.64 191.796 281.559 191.877 281.559 191.977C281.559 192.078 281.64 192.159 281.74 192.159Z" fill="black"/>
<path opacity="0.8" d="M279.451 192.268C279.551 192.268 279.632 192.187 279.632 192.086C279.632 191.986 279.551 191.905 279.451 191.905C279.35 191.905 279.269 191.986 279.269 192.086C279.269 192.187 279.35 192.268 279.451 192.268Z" fill="black"/>
<path opacity="0.8" d="M276.105 191.832C276.206 191.832 276.287 191.75 276.287 191.65C276.287 191.55 276.206 191.468 276.105 191.468C276.005 191.468 275.924 191.55 275.924 191.65C275.924 191.75 276.005 191.832 276.105 191.832Z" fill="black"/>
<path opacity="0.8" d="M277.196 192.086C277.296 192.086 277.378 192.005 277.378 191.905C277.378 191.804 277.296 191.723 277.196 191.723C277.096 191.723 277.014 191.804 277.014 191.905C277.014 192.005 277.096 192.086 277.196 192.086Z" fill="black"/>
<path opacity="0.8" d="M274.033 191.432C274.134 191.432 274.215 191.351 274.215 191.25C274.215 191.15 274.134 191.069 274.033 191.069C273.933 191.069 273.851 191.15 273.851 191.25C273.851 191.351 273.933 191.432 274.033 191.432Z" fill="black"/>
<path opacity="0.8" d="M275.015 191.65C275.115 191.65 275.196 191.569 275.196 191.468C275.196 191.368 275.115 191.286 275.015 191.286C274.914 191.286 274.833 191.368 274.833 191.468C274.833 191.569 274.914 191.65 275.015 191.65Z" fill="black"/>
<path opacity="0.8" d="M272.943 191.068C273.043 191.068 273.124 190.987 273.124 190.887C273.124 190.786 273.043 190.705 272.943 190.705C272.842 190.705 272.761 190.786 272.761 190.887C272.761 190.987 272.842 191.068 272.943 191.068Z" fill="black"/>
<path opacity="0.8" d="M285.048 191.723C285.149 191.723 285.23 191.642 285.23 191.541C285.23 191.441 285.149 191.359 285.048 191.359C284.948 191.359 284.867 191.441 284.867 191.541C284.867 191.642 284.948 191.723 285.048 191.723Z" fill="black"/>
<path opacity="0.8" d="M282.831 192.086C282.931 192.086 283.013 192.005 283.013 191.905C283.013 191.804 282.931 191.723 282.831 191.723C282.731 191.723 282.649 191.804 282.649 191.905C282.649 192.005 282.731 192.086 282.831 192.086Z" fill="black"/>
<path opacity="0.8" d="M280.468 192.268C280.568 192.268 280.65 192.187 280.65 192.086C280.65 191.986 280.568 191.905 280.468 191.905C280.367 191.905 280.286 191.986 280.286 192.086C280.286 192.187 280.367 192.268 280.468 192.268Z" fill="black"/>
<path opacity="0.8" d="M278.287 192.268C278.387 192.268 278.469 192.187 278.469 192.086C278.469 191.986 278.387 191.905 278.287 191.905C278.186 191.905 278.105 191.986 278.105 192.086C278.105 192.187 278.186 192.268 278.287 192.268Z" fill="black"/>
</g>
<g opacity="0.8">
<path opacity="0.8" d="M288.284 191.723C288.384 191.723 288.465 191.642 288.465 191.541C288.465 191.441 288.384 191.359 288.284 191.359C288.183 191.359 288.102 191.441 288.102 191.541C288.102 191.642 288.183 191.723 288.284 191.723Z" fill="black"/>
<path opacity="0.8" d="M287.302 192.014C287.402 192.014 287.484 191.933 287.484 191.832C287.484 191.732 287.402 191.65 287.302 191.65C287.201 191.65 287.12 191.732 287.12 191.832C287.12 191.933 287.201 192.014 287.302 192.014Z" fill="black"/>
<path opacity="0.8" d="M286.139 192.377C286.239 192.377 286.321 192.296 286.321 192.196C286.321 192.095 286.239 192.014 286.139 192.014C286.039 192.014 285.957 192.095 285.957 192.196C285.957 192.296 286.039 192.377 286.139 192.377Z" fill="black"/>
<path opacity="0.8" d="M283.994 192.85C284.094 192.85 284.176 192.769 284.176 192.668C284.176 192.568 284.094 192.487 283.994 192.487C283.893 192.487 283.812 192.568 283.812 192.668C283.812 192.769 283.893 192.85 283.994 192.85Z" fill="black"/>
<path opacity="0.8" d="M281.74 193.104C281.841 193.104 281.922 193.023 281.922 192.922C281.922 192.822 281.841 192.741 281.74 192.741C281.64 192.741 281.559 192.822 281.559 192.922C281.559 193.023 281.64 193.104 281.74 193.104Z" fill="black"/>
<path opacity="0.8" d="M279.451 193.213C279.551 193.213 279.632 193.132 279.632 193.032C279.632 192.931 279.551 192.85 279.451 192.85C279.35 192.85 279.269 192.931 279.269 193.032C279.269 193.132 279.35 193.213 279.451 193.213Z" fill="black"/>
<path opacity="0.8" d="M276.105 192.741C276.206 192.741 276.287 192.659 276.287 192.559C276.287 192.459 276.206 192.377 276.105 192.377C276.005 192.377 275.924 192.459 275.924 192.559C275.924 192.659 276.005 192.741 276.105 192.741Z" fill="black"/>
<path opacity="0.8" d="M277.196 193.032C277.296 193.032 277.378 192.95 277.378 192.85C277.378 192.75 277.296 192.668 277.196 192.668C277.096 192.668 277.014 192.75 277.014 192.85C277.014 192.95 277.096 193.032 277.196 193.032Z" fill="black"/>
<path opacity="0.8" d="M274.033 192.377C274.134 192.377 274.215 192.296 274.215 192.196C274.215 192.095 274.134 192.014 274.033 192.014C273.933 192.014 273.851 192.095 273.851 192.196C273.851 192.296 273.933 192.377 274.033 192.377Z" fill="black"/>
<path opacity="0.8" d="M275.015 192.559C275.115 192.559 275.196 192.477 275.196 192.377C275.196 192.277 275.115 192.195 275.015 192.195C274.914 192.195 274.833 192.277 274.833 192.377C274.833 192.477 274.914 192.559 275.015 192.559Z" fill="black"/>
<path opacity="0.8" d="M272.943 192.014C273.043 192.014 273.124 191.933 273.124 191.832C273.124 191.732 273.043 191.65 272.943 191.65C272.842 191.65 272.761 191.732 272.761 191.832C272.761 191.933 272.842 192.014 272.943 192.014Z" fill="black"/>
<path opacity="0.8" d="M285.048 192.632C285.149 192.632 285.23 192.55 285.23 192.45C285.23 192.35 285.149 192.268 285.048 192.268C284.948 192.268 284.867 192.35 284.867 192.45C284.867 192.55 284.948 192.632 285.048 192.632Z" fill="black"/>
<path opacity="0.8" d="M282.831 193.032C282.931 193.032 283.013 192.95 283.013 192.85C283.013 192.75 282.931 192.668 282.831 192.668C282.731 192.668 282.649 192.75 282.649 192.85C282.649 192.95 282.731 193.032 282.831 193.032Z" fill="black"/>
<path opacity="0.8" d="M280.468 193.213C280.568 193.213 280.65 193.132 280.65 193.032C280.65 192.931 280.568 192.85 280.468 192.85C280.367 192.85 280.286 192.931 280.286 193.032C280.286 193.132 280.367 193.213 280.468 193.213Z" fill="black"/>
<path opacity="0.8" d="M278.287 193.213C278.387 193.213 278.469 193.132 278.469 193.032C278.469 192.931 278.387 192.85 278.287 192.85C278.186 192.85 278.105 192.931 278.105 193.032C278.105 193.132 278.186 193.213 278.287 193.213Z" fill="black"/>
</g>
<g opacity="0.8">
<path opacity="0.8" d="M288.284 192.668C288.384 192.668 288.465 192.587 288.465 192.486C288.465 192.386 288.384 192.304 288.284 192.304C288.183 192.304 288.102 192.386 288.102 192.486C288.102 192.587 288.183 192.668 288.284 192.668Z" fill="black"/>
<path opacity="0.8" d="M287.302 192.922C287.402 192.922 287.484 192.841 287.484 192.741C287.484 192.64 287.402 192.559 287.302 192.559C287.201 192.559 287.12 192.64 287.12 192.741C287.12 192.841 287.201 192.922 287.302 192.922Z" fill="black"/>
<path opacity="0.8" d="M286.139 193.322C286.239 193.322 286.321 193.241 286.321 193.141C286.321 193.04 286.239 192.959 286.139 192.959C286.039 192.959 285.957 193.04 285.957 193.141C285.957 193.241 286.039 193.322 286.139 193.322Z" fill="black"/>
<path opacity="0.8" d="M283.994 193.759C284.094 193.759 284.176 193.677 284.176 193.577C284.176 193.477 284.094 193.395 283.994 193.395C283.893 193.395 283.812 193.477 283.812 193.577C283.812 193.677 283.893 193.759 283.994 193.759Z" fill="black"/>
<path opacity="0.8" d="M281.74 194.049C281.841 194.049 281.922 193.968 281.922 193.868C281.922 193.767 281.841 193.686 281.74 193.686C281.64 193.686 281.559 193.767 281.559 193.868C281.559 193.968 281.64 194.049 281.74 194.049Z" fill="black"/>
<path opacity="0.8" d="M279.451 194.158C279.551 194.158 279.632 194.077 279.632 193.977C279.632 193.876 279.551 193.795 279.451 193.795C279.35 193.795 279.269 193.876 279.269 193.977C279.269 194.077 279.35 194.158 279.451 194.158Z" fill="black"/>
<path opacity="0.8" d="M276.105 193.686C276.206 193.686 276.287 193.604 276.287 193.504C276.287 193.404 276.206 193.322 276.105 193.322C276.005 193.322 275.924 193.404 275.924 193.504C275.924 193.604 276.005 193.686 276.105 193.686Z" fill="black"/>
<path opacity="0.8" d="M277.196 193.94C277.296 193.94 277.378 193.859 277.378 193.759C277.378 193.658 277.296 193.577 277.196 193.577C277.096 193.577 277.014 193.658 277.014 193.759C277.014 193.859 277.096 193.94 277.196 193.94Z" fill="black"/>
<path opacity="0.8" d="M274.033 193.322C274.134 193.322 274.215 193.241 274.215 193.141C274.215 193.04 274.134 192.959 274.033 192.959C273.933 192.959 273.851 193.04 273.851 193.141C273.851 193.241 273.933 193.322 274.033 193.322Z" fill="black"/>
<path opacity="0.8" d="M275.015 193.504C275.115 193.504 275.196 193.423 275.196 193.322C275.196 193.222 275.115 193.14 275.015 193.14C274.914 193.14 274.833 193.222 274.833 193.322C274.833 193.423 274.914 193.504 275.015 193.504Z" fill="black"/>
<path opacity="0.8" d="M272.943 192.922C273.043 192.922 273.124 192.841 273.124 192.741C273.124 192.64 273.043 192.559 272.943 192.559C272.842 192.559 272.761 192.64 272.761 192.741C272.761 192.841 272.842 192.922 272.943 192.922Z" fill="black"/>
<path opacity="0.8" d="M285.048 193.577C285.149 193.577 285.23 193.496 285.23 193.395C285.23 193.295 285.149 193.213 285.048 193.213C284.948 193.213 284.867 193.295 284.867 193.395C284.867 193.496 284.948 193.577 285.048 193.577Z" fill="black"/>
<path opacity="0.8" d="M282.831 193.94C282.931 193.94 283.013 193.859 283.013 193.759C283.013 193.658 282.931 193.577 282.831 193.577C282.731 193.577 282.649 193.658 282.649 193.759C282.649 193.859 282.731 193.94 282.831 193.94Z" fill="black"/>
<path opacity="0.8" d="M280.468 194.158C280.568 194.158 280.65 194.077 280.65 193.977C280.65 193.876 280.568 193.795 280.468 193.795C280.367 193.795 280.286 193.876 280.286 193.977C280.286 194.077 280.367 194.158 280.468 194.158Z" fill="black"/>
<path opacity="0.8" d="M278.287 194.158C278.387 194.158 278.469 194.077 278.469 193.977C278.469 193.876 278.387 193.795 278.287 193.795C278.186 193.795 278.105 193.876 278.105 193.977C278.105 194.077 278.186 194.158 278.287 194.158Z" fill="black"/>
</g>
<g opacity="0.8">
<path opacity="0.8" d="M288.284 193.577C288.384 193.577 288.465 193.495 288.465 193.395C288.465 193.295 288.384 193.213 288.284 193.213C288.183 193.213 288.102 193.295 288.102 193.395C288.102 193.495 288.183 193.577 288.284 193.577Z" fill="black"/>
<path opacity="0.8" d="M287.302 193.868C287.402 193.868 287.484 193.786 287.484 193.686C287.484 193.586 287.402 193.504 287.302 193.504C287.201 193.504 287.12 193.586 287.12 193.686C287.12 193.786 287.201 193.868 287.302 193.868Z" fill="black"/>
<path opacity="0.8" d="M286.139 194.231C286.239 194.231 286.321 194.15 286.321 194.049C286.321 193.949 286.239 193.867 286.139 193.867C286.039 193.867 285.957 193.949 285.957 194.049C285.957 194.15 286.039 194.231 286.139 194.231Z" fill="black"/>
<path opacity="0.8" d="M283.994 194.704C284.094 194.704 284.176 194.622 284.176 194.522C284.176 194.422 284.094 194.34 283.994 194.34C283.893 194.34 283.812 194.422 283.812 194.522C283.812 194.622 283.893 194.704 283.994 194.704Z" fill="black"/>
<path opacity="0.8" d="M281.74 194.958C281.841 194.958 281.922 194.877 281.922 194.776C281.922 194.676 281.841 194.594 281.74 194.594C281.64 194.594 281.559 194.676 281.559 194.776C281.559 194.877 281.64 194.958 281.74 194.958Z" fill="black"/>
<path opacity="0.8" d="M279.451 195.067C279.551 195.067 279.632 194.986 279.632 194.885C279.632 194.785 279.551 194.704 279.451 194.704C279.35 194.704 279.269 194.785 279.269 194.885C279.269 194.986 279.35 195.067 279.451 195.067Z" fill="black"/>
<path opacity="0.8" d="M276.105 194.631C276.206 194.631 276.287 194.55 276.287 194.449C276.287 194.349 276.206 194.268 276.105 194.268C276.005 194.268 275.924 194.349 275.924 194.449C275.924 194.55 276.005 194.631 276.105 194.631Z" fill="black"/>
<path opacity="0.8" d="M277.196 194.886C277.296 194.886 277.378 194.804 277.378 194.704C277.378 194.603 277.296 194.522 277.196 194.522C277.096 194.522 277.014 194.603 277.014 194.704C277.014 194.804 277.096 194.886 277.196 194.886Z" fill="black"/>
<path opacity="0.8" d="M274.033 194.231C274.134 194.231 274.215 194.15 274.215 194.049C274.215 193.949 274.134 193.867 274.033 193.867C273.933 193.867 273.851 193.949 273.851 194.049C273.851 194.15 273.933 194.231 274.033 194.231Z" fill="black"/>
<path opacity="0.8" d="M275.015 194.413C275.115 194.413 275.196 194.331 275.196 194.231C275.196 194.13 275.115 194.049 275.015 194.049C274.914 194.049 274.833 194.13 274.833 194.231C274.833 194.331 274.914 194.413 275.015 194.413Z" fill="black"/>
<path opacity="0.8" d="M272.943 193.868C273.043 193.868 273.124 193.786 273.124 193.686C273.124 193.586 273.043 193.504 272.943 193.504C272.842 193.504 272.761 193.586 272.761 193.686C272.761 193.786 272.842 193.868 272.943 193.868Z" fill="black"/>
<path opacity="0.8" d="M285.048 194.522C285.149 194.522 285.23 194.44 285.23 194.34C285.23 194.24 285.149 194.158 285.048 194.158C284.948 194.158 284.867 194.24 284.867 194.34C284.867 194.44 284.948 194.522 285.048 194.522Z" fill="black"/>
<path opacity="0.8" d="M282.831 194.886C282.931 194.886 283.013 194.804 283.013 194.704C283.013 194.603 282.931 194.522 282.831 194.522C282.731 194.522 282.649 194.603 282.649 194.704C282.649 194.804 282.731 194.886 282.831 194.886Z" fill="black"/>
<path opacity="0.8" d="M280.468 195.067C280.568 195.067 280.65 194.986 280.65 194.885C280.65 194.785 280.568 194.704 280.468 194.704C280.367 194.704 280.286 194.785 280.286 194.885C280.286 194.986 280.367 195.067 280.468 195.067Z" fill="black"/>
<path opacity="0.8" d="M278.287 195.067C278.387 195.067 278.469 194.986 278.469 194.885C278.469 194.785 278.387 194.704 278.287 194.704C278.186 194.704 278.105 194.785 278.105 194.885C278.105 194.986 278.186 195.067 278.287 195.067Z" fill="black"/>
</g>
<g opacity="0.8">
<path opacity="0.8" d="M288.284 194.522C288.384 194.522 288.465 194.441 288.465 194.34C288.465 194.24 288.384 194.158 288.284 194.158C288.183 194.158 288.102 194.24 288.102 194.34C288.102 194.441 288.183 194.522 288.284 194.522Z" fill="black"/>
<path opacity="0.8" d="M287.302 194.776C287.402 194.776 287.484 194.695 287.484 194.595C287.484 194.494 287.402 194.413 287.302 194.413C287.201 194.413 287.12 194.494 287.12 194.595C287.12 194.695 287.201 194.776 287.302 194.776Z" fill="black"/>
<path opacity="0.8" d="M286.139 195.176C286.239 195.176 286.321 195.095 286.321 194.994C286.321 194.894 286.239 194.812 286.139 194.812C286.039 194.812 285.957 194.894 285.957 194.994C285.957 195.095 286.039 195.176 286.139 195.176Z" fill="black"/>
<path opacity="0.8" d="M283.994 195.613C284.094 195.613 284.176 195.531 284.176 195.431C284.176 195.33 284.094 195.249 283.994 195.249C283.893 195.249 283.812 195.33 283.812 195.431C283.812 195.531 283.893 195.613 283.994 195.613Z" fill="black"/>
<path opacity="0.8" d="M281.74 195.903C281.841 195.903 281.922 195.822 281.922 195.722C281.922 195.621 281.841 195.54 281.74 195.54C281.64 195.54 281.559 195.621 281.559 195.722C281.559 195.822 281.64 195.903 281.74 195.903Z" fill="black"/>
<path opacity="0.8" d="M279.451 196.012C279.551 196.012 279.632 195.931 279.632 195.831C279.632 195.73 279.551 195.649 279.451 195.649C279.35 195.649 279.269 195.73 279.269 195.831C279.269 195.931 279.35 196.012 279.451 196.012Z" fill="black"/>
<path opacity="0.8" d="M276.105 195.54C276.206 195.54 276.287 195.458 276.287 195.358C276.287 195.258 276.206 195.176 276.105 195.176C276.005 195.176 275.924 195.258 275.924 195.358C275.924 195.458 276.005 195.54 276.105 195.54Z" fill="black"/>
<path opacity="0.8" d="M277.196 195.831C277.296 195.831 277.378 195.749 277.378 195.649C277.378 195.549 277.296 195.467 277.196 195.467C277.096 195.467 277.014 195.549 277.014 195.649C277.014 195.749 277.096 195.831 277.196 195.831Z" fill="black"/>
<path opacity="0.8" d="M274.033 195.176C274.134 195.176 274.215 195.095 274.215 194.994C274.215 194.894 274.134 194.812 274.033 194.812C273.933 194.812 273.851 194.894 273.851 194.994C273.851 195.095 273.933 195.176 274.033 195.176Z" fill="black"/>
<path opacity="0.8" d="M275.015 195.358C275.115 195.358 275.196 195.277 275.196 195.176C275.196 195.076 275.115 194.994 275.015 194.994C274.914 194.994 274.833 195.076 274.833 195.176C274.833 195.277 274.914 195.358 275.015 195.358Z" fill="black"/>
<path opacity="0.8" d="M272.943 194.776C273.043 194.776 273.124 194.695 273.124 194.595C273.124 194.494 273.043 194.413 272.943 194.413C272.842 194.413 272.761 194.494 272.761 194.595C272.761 194.695 272.842 194.776 272.943 194.776Z" fill="black"/>
<path opacity="0.8" d="M285.048 195.431C285.149 195.431 285.23 195.349 285.23 195.249C285.23 195.149 285.149 195.067 285.048 195.067C284.948 195.067 284.867 195.149 284.867 195.249C284.867 195.349 284.948 195.431 285.048 195.431Z" fill="black"/>
<path opacity="0.8" d="M282.831 195.831C282.931 195.831 283.013 195.749 283.013 195.649C283.013 195.549 282.931 195.467 282.831 195.467C282.731 195.467 282.649 195.549 282.649 195.649C282.649 195.749 282.731 195.831 282.831 195.831Z" fill="black"/>
<path opacity="0.8" d="M280.468 196.012C280.568 196.012 280.65 195.931 280.65 195.831C280.65 195.73 280.568 195.649 280.468 195.649C280.367 195.649 280.286 195.73 280.286 195.831C280.286 195.931 280.367 196.012 280.468 196.012Z" fill="black"/>
<path opacity="0.8" d="M278.287 196.012C278.387 196.012 278.469 195.931 278.469 195.831C278.469 195.73 278.387 195.649 278.287 195.649C278.186 195.649 278.105 195.73 278.105 195.831C278.105 195.931 278.186 196.012 278.287 196.012Z" fill="black"/>
</g>
<g opacity="0.8">
<path opacity="0.8" d="M288.284 195.467C288.384 195.467 288.465 195.386 288.465 195.285C288.465 195.185 288.384 195.104 288.284 195.104C288.183 195.104 288.102 195.185 288.102 195.285C288.102 195.386 288.183 195.467 288.284 195.467Z" fill="black"/>
<path opacity="0.8" d="M287.302 195.721C287.402 195.721 287.484 195.64 287.484 195.54C287.484 195.439 287.402 195.358 287.302 195.358C287.201 195.358 287.12 195.439 287.12 195.54C287.12 195.64 287.201 195.721 287.302 195.721Z" fill="black"/>
<path opacity="0.8" d="M286.139 196.085C286.239 196.085 286.321 196.004 286.321 195.903C286.321 195.803 286.239 195.722 286.139 195.722C286.039 195.722 285.957 195.803 285.957 195.903C285.957 196.004 286.039 196.085 286.139 196.085Z" fill="black"/>
<path opacity="0.8" d="M283.994 196.558C284.094 196.558 284.176 196.476 284.176 196.376C284.176 196.276 284.094 196.194 283.994 196.194C283.893 196.194 283.812 196.276 283.812 196.376C283.812 196.476 283.893 196.558 283.994 196.558Z" fill="black"/>
<path opacity="0.8" d="M281.74 196.812C281.841 196.812 281.922 196.731 281.922 196.63C281.922 196.53 281.841 196.449 281.74 196.449C281.64 196.449 281.559 196.53 281.559 196.63C281.559 196.731 281.64 196.812 281.74 196.812Z" fill="black"/>
<path opacity="0.8" d="M279.451 196.921C279.551 196.921 279.632 196.84 279.632 196.739C279.632 196.639 279.551 196.558 279.451 196.558C279.35 196.558 279.269 196.639 279.269 196.739C279.269 196.84 279.35 196.921 279.451 196.921Z" fill="black"/>
<path opacity="0.8" d="M276.105 196.485C276.206 196.485 276.287 196.403 276.287 196.303C276.287 196.203 276.206 196.121 276.105 196.121C276.005 196.121 275.924 196.203 275.924 196.303C275.924 196.403 276.005 196.485 276.105 196.485Z" fill="black"/>
<path opacity="0.8" d="M277.196 196.74C277.296 196.74 277.378 196.658 277.378 196.558C277.378 196.457 277.296 196.376 277.196 196.376C277.096 196.376 277.014 196.457 277.014 196.558C277.014 196.658 277.096 196.74 277.196 196.74Z" fill="black"/>
<path opacity="0.8" d="M274.033 196.085C274.134 196.085 274.215 196.004 274.215 195.903C274.215 195.803 274.134 195.722 274.033 195.722C273.933 195.722 273.851 195.803 273.851 195.903C273.851 196.004 273.933 196.085 274.033 196.085Z" fill="black"/>
<path opacity="0.8" d="M275.015 196.303C275.115 196.303 275.196 196.222 275.196 196.121C275.196 196.021 275.115 195.939 275.015 195.939C274.914 195.939 274.833 196.021 274.833 196.121C274.833 196.222 274.914 196.303 275.015 196.303Z" fill="black"/>
<path opacity="0.8" d="M272.943 195.721C273.043 195.721 273.124 195.64 273.124 195.54C273.124 195.439 273.043 195.358 272.943 195.358C272.842 195.358 272.761 195.439 272.761 195.54C272.761 195.64 272.842 195.721 272.943 195.721Z" fill="black"/>
<path opacity="0.8" d="M285.048 196.376C285.149 196.376 285.23 196.295 285.23 196.194C285.23 196.094 285.149 196.012 285.048 196.012C284.948 196.012 284.867 196.094 284.867 196.194C284.867 196.295 284.948 196.376 285.048 196.376Z" fill="black"/>
<path opacity="0.8" d="M282.831 196.74C282.931 196.74 283.012 196.658 283.012 196.558C283.012 196.457 282.931 196.376 282.831 196.376C282.73 196.376 282.649 196.457 282.649 196.558C282.649 196.658 282.73 196.74 282.831 196.74Z" fill="black"/>
<path opacity="0.8" d="M280.468 196.921C280.568 196.921 280.65 196.84 280.65 196.739C280.65 196.639 280.568 196.558 280.468 196.558C280.367 196.558 280.286 196.639 280.286 196.739C280.286 196.84 280.367 196.921 280.468 196.921Z" fill="black"/>
<path opacity="0.8" d="M278.287 196.921C278.387 196.921 278.469 196.84 278.469 196.739C278.469 196.639 278.387 196.558 278.287 196.558C278.186 196.558 278.105 196.639 278.105 196.739C278.105 196.84 278.186 196.921 278.287 196.921Z" fill="black"/>
</g>
<g opacity="0.8">
<path opacity="0.8" d="M288.284 196.376C288.384 196.376 288.465 196.295 288.465 196.194C288.465 196.094 288.384 196.012 288.284 196.012C288.183 196.012 288.102 196.094 288.102 196.194C288.102 196.295 288.183 196.376 288.284 196.376Z" fill="black"/>
<path opacity="0.8" d="M287.302 196.667C287.402 196.667 287.484 196.586 287.484 196.485C287.484 196.385 287.402 196.303 287.302 196.303C287.201 196.303 287.12 196.385 287.12 196.485C287.12 196.586 287.201 196.667 287.302 196.667Z" fill="black"/>
<path opacity="0.8" d="M286.139 197.03C286.239 197.03 286.321 196.949 286.321 196.849C286.321 196.748 286.239 196.667 286.139 196.667C286.039 196.667 285.957 196.748 285.957 196.849C285.957 196.949 286.039 197.03 286.139 197.03Z" fill="black"/>
<path opacity="0.8" d="M283.994 197.503C284.094 197.503 284.176 197.422 284.176 197.321C284.176 197.221 284.094 197.14 283.994 197.14C283.893 197.14 283.812 197.221 283.812 197.321C283.812 197.422 283.893 197.503 283.994 197.503Z" fill="black"/>
<path opacity="0.8" d="M281.74 197.757C281.841 197.757 281.922 197.676 281.922 197.576C281.922 197.475 281.841 197.394 281.74 197.394C281.64 197.394 281.559 197.475 281.559 197.576C281.559 197.676 281.64 197.757 281.74 197.757Z" fill="black"/>
<path opacity="0.8" d="M279.451 197.866C279.551 197.866 279.632 197.785 279.632 197.685C279.632 197.584 279.551 197.503 279.451 197.503C279.35 197.503 279.269 197.584 279.269 197.685C279.269 197.785 279.35 197.866 279.451 197.866Z" fill="black"/>
<path opacity="0.8" d="M276.105 197.394C276.206 197.394 276.287 197.312 276.287 197.212C276.287 197.112 276.206 197.03 276.105 197.03C276.005 197.03 275.924 197.112 275.924 197.212C275.924 197.312 276.005 197.394 276.105 197.394Z" fill="black"/>
<path opacity="0.8" d="M277.196 197.685C277.296 197.685 277.378 197.603 277.378 197.503C277.378 197.403 277.296 197.321 277.196 197.321C277.096 197.321 277.014 197.403 277.014 197.503C277.014 197.603 277.096 197.685 277.196 197.685Z" fill="black"/>
<path opacity="0.8" d="M274.033 197.03C274.134 197.03 274.215 196.949 274.215 196.849C274.215 196.748 274.134 196.667 274.033 196.667C273.933 196.667 273.851 196.748 273.851 196.849C273.851 196.949 273.933 197.03 274.033 197.03Z" fill="black"/>
<path opacity="0.8" d="M275.015 197.212C275.115 197.212 275.196 197.131 275.196 197.03C275.196 196.93 275.115 196.848 275.015 196.848C274.914 196.848 274.833 196.93 274.833 197.03C274.833 197.131 274.914 197.212 275.015 197.212Z" fill="black"/>
<path opacity="0.8" d="M272.943 196.667C273.043 196.667 273.124 196.586 273.124 196.485C273.124 196.385 273.043 196.303 272.943 196.303C272.842 196.303 272.761 196.385 272.761 196.485C272.761 196.586 272.842 196.667 272.943 196.667Z" fill="black"/>
<path opacity="0.8" d="M285.048 197.285C285.149 197.285 285.23 197.204 285.23 197.103C285.23 197.003 285.149 196.921 285.048 196.921C284.948 196.921 284.867 197.003 284.867 197.103C284.867 197.204 284.948 197.285 285.048 197.285Z" fill="black"/>
<path opacity="0.8" d="M282.831 197.685C282.931 197.685 283.012 197.603 283.012 197.503C283.012 197.403 282.931 197.321 282.831 197.321C282.73 197.321 282.649 197.403 282.649 197.503C282.649 197.603 282.73 197.685 282.831 197.685Z" fill="black"/>
<path opacity="0.8" d="M280.468 197.866C280.568 197.866 280.65 197.785 280.65 197.685C280.65 197.584 280.568 197.503 280.468 197.503C280.367 197.503 280.286 197.584 280.286 197.685C280.286 197.785 280.367 197.866 280.468 197.866Z" fill="black"/>
<path opacity="0.8" d="M278.287 197.866C278.387 197.866 278.469 197.785 278.469 197.685C278.469 197.584 278.387 197.503 278.287 197.503C278.186 197.503 278.105 197.584 278.105 197.685C278.105 197.785 278.186 197.866 278.287 197.866Z" fill="black"/>
</g>
</svg>
