<svg width="26" height="21" viewBox="0 0 26 21" fill="none" xmlns="http://www.w3.org/2000/svg">
<path d="M9.35938 11.6153C8.34375 11.6153 7.40625 11.3809 6.54688 10.8731C5.6875 10.3653 4.98438 9.66217 4.47656 8.8028C3.96875 7.94342 3.73438 7.00592 3.73438 5.9903C3.73438 4.97467 3.96875 4.03717 4.47656 3.1778C4.98438 2.31842 5.6875 1.65436 6.54688 1.14655C7.40625 0.638733 8.34375 0.365295 9.35938 0.365295C10.375 0.365295 11.3125 0.638733 12.1719 1.14655C13.0312 1.65436 13.6953 2.31842 14.2031 3.1778C14.7109 4.03717 14.9844 4.97467 14.9844 5.9903C14.9844 7.00592 14.7109 7.94342 14.2031 8.8028C13.6953 9.66217 13.0312 10.3653 12.1719 10.8731C11.3125 11.3809 10.375 11.6153 9.35938 11.6153ZM9.35938 2.2403C8.30469 2.2403 7.40625 2.63092 6.70312 3.33405C5.96094 4.07623 5.60938 4.97467 5.60938 5.9903C5.60938 7.04498 5.96094 7.94342 6.70312 8.64655C7.40625 9.38873 8.30469 9.7403 9.35938 9.7403C10.375 9.7403 11.2734 9.38873 12.0156 8.64655C12.7188 7.94342 13.1094 7.04498 13.1094 5.9903C13.1094 4.97467 12.7188 4.07623 12.0156 3.33405C11.2734 2.63092 10.375 2.2403 9.35938 2.2403ZM12.875 12.2403C13.8125 12.2403 14.6719 12.4747 15.4922 12.9434C16.2734 13.4122 16.9375 14.0762 17.4062 14.8575C17.875 15.6778 18.1094 16.5372 18.1094 17.4747V18.4903C18.1094 19.0372 17.9141 19.4669 17.5625 19.8184C17.1719 20.209 16.7422 20.3653 16.2344 20.3653H2.48438C1.9375 20.3653 1.50781 20.209 1.15625 19.8184C0.765625 19.4669 0.609375 19.0372 0.609375 18.4903V17.4747C0.609375 16.5372 0.84375 15.6778 1.3125 14.8575C1.78125 14.0762 2.40625 13.4122 3.22656 12.9434C4.00781 12.4747 4.90625 12.2403 5.84375 12.2403C6.15625 12.2403 6.625 12.3575 7.17188 12.5137C7.52344 12.6309 7.83594 12.709 8.07031 12.7481C8.46094 12.8262 8.89062 12.8653 9.35938 12.8653C9.82812 12.8653 10.2578 12.8262 10.6484 12.7481C10.8828 12.709 11.1562 12.6309 11.5469 12.5137C12.0938 12.3575 12.5234 12.2403 12.875 12.2403ZM16.2344 18.4903V17.4747C16.2344 16.5762 15.8828 15.795 15.2188 15.1309C14.5547 14.4669 13.7734 14.1153 12.875 14.1153C12.7188 14.1153 12.4453 14.1934 12.0938 14.2715C11.1562 14.584 10.2188 14.7403 9.35938 14.7403C8.5 14.7403 7.5625 14.584 6.625 14.2715C6.23438 14.1934 5.96094 14.1153 5.84375 14.1153C4.90625 14.1153 4.125 14.4669 3.46094 15.1309C2.79688 15.795 2.48438 16.5762 2.48438 17.4747V18.4903H16.2344ZM24.9844 8.8028C25.1406 8.8028 25.2969 8.88092 25.4141 8.99811C25.5312 9.1153 25.6094 9.27155 25.6094 9.4278V10.0528C25.6094 10.2481 25.5312 10.4044 25.4141 10.5215C25.2969 10.6387 25.1406 10.6778 24.9844 10.6778H22.1719V13.4903C22.1719 13.6856 22.0938 13.8419 21.9766 13.959C21.8594 14.0762 21.7031 14.1153 21.5469 14.1153H20.9219C20.7266 14.1153 20.5703 14.0762 20.4531 13.959C20.3359 13.8419 20.2969 13.6856 20.2969 13.4903V10.6778H17.4844C17.2891 10.6778 17.1328 10.6387 17.0156 10.5215C16.8984 10.4044 16.8594 10.2481 16.8594 10.0528V9.4278C16.8594 9.27155 16.8984 9.1153 17.0156 8.99811C17.1328 8.88092 17.2891 8.8028 17.4844 8.8028H20.2969V5.9903C20.2969 5.83405 20.3359 5.6778 20.4531 5.56061C20.5703 5.44342 20.7266 5.3653 20.9219 5.3653H21.5469C21.7031 5.3653 21.8594 5.44342 21.9766 5.56061C22.0938 5.6778 22.1719 5.83405 22.1719 5.9903V8.8028H24.9844Z" fill="#2D86DA"/>
</svg>
