<svg width="6" height="20" viewBox="0 0 6 20" fill="none" xmlns="http://www.w3.org/2000/svg">
<path d="M2.84619 7.34967C2.06494 7.34967 1.40088 7.62311 0.854004 8.16998C0.307129 8.71686 0.0336914 9.38092 0.0336914 10.1622C0.0336914 10.9434 0.307129 11.6075 0.854004 12.1544C1.40088 12.7012 2.06494 12.9747 2.84619 12.9747C3.62744 12.9747 4.2915 12.7012 4.83838 12.1544C5.38525 11.6075 5.65869 10.9434 5.65869 10.1622C5.65869 9.38092 5.38525 8.71686 4.83838 8.16998C4.2915 7.62311 3.62744 7.34967 2.84619 7.34967ZM0.0336914 3.28717C0.0336914 2.50592 0.307129 1.84186 0.854004 1.29498C1.40088 0.748108 2.06494 0.47467 2.84619 0.47467C3.62744 0.47467 4.2915 0.748108 4.83838 1.29498C5.38525 1.84186 5.65869 2.50592 5.65869 3.28717C5.65869 4.06842 5.38525 4.73248 4.83838 5.27936C4.2915 5.82623 3.62744 6.09967 2.84619 6.09967C2.06494 6.09967 1.40088 5.82623 0.854004 5.27936C0.307129 4.73248 0.0336914 4.06842 0.0336914 3.28717ZM0.0336914 17.0372C0.0336914 16.2559 0.307129 15.5919 0.854004 15.045C1.40088 14.4981 2.06494 14.2247 2.84619 14.2247C3.62744 14.2247 4.2915 14.4981 4.83838 15.045C5.38525 15.5919 5.65869 16.2559 5.65869 17.0372C5.65869 17.8184 5.38525 18.4825 4.83838 19.0294C4.2915 19.5762 3.62744 19.8497 2.84619 19.8497C2.06494 19.8497 1.40088 19.5762 0.854004 19.0294C0.307129 18.4825 0.0336914 17.8184 0.0336914 17.0372Z" fill="#2D86DA"/>
</svg>
