<svg width="6" height="9" viewBox="0 0 6 9" fill="none" xmlns="http://www.w3.org/2000/svg">
<path d="M0.734375 4.15625L0.734375 4.12891C0.679687 4.18359 0.652344 4.26562 0.652344 4.375C0.652344 4.45703 0.679687 4.53906 0.734375 4.62109L4.75391 8.66797C4.80859 8.72266 4.89062 8.75 4.97266 8.75C5.05469 8.75 5.13672 8.72266 5.21875 8.66797L5.76562 8.12109C5.82031 8.03906 5.84766 7.95703 5.84766 7.875C5.84766 7.76562 5.82031 7.71094 5.76562 7.65625L2.51172 4.375L5.76562 1.09375C5.82031 1.03906 5.84766 0.957031 5.84766 0.875C5.84766 0.765625 5.82031 0.683594 5.76562 0.628906L5.21875 0.082031C5.13672 0.0273435 5.05469 -2.16166e-07 4.97266 -2.19752e-07C4.89062 -2.23338e-07 4.80859 0.0273435 4.75391 0.109375L0.734375 4.15625Z" fill="#2D86DA"/>
</svg>
