<svg width="24" height="21" viewBox="0 0 24 21" fill="none" xmlns="http://www.w3.org/2000/svg">
<path d="M16.25 13C16.5625 13 16.875 13.1562 17.1094 13.3906C17.3438 13.625 17.5 13.9375 17.5 14.25V19.25C17.5 19.6016 17.3438 19.9141 17.1094 20.1484C16.875 20.3828 16.5625 20.5 16.25 20.5H13.75C13.3984 20.5 13.0859 20.3828 12.8516 20.1484C12.6172 19.9141 12.5 19.6016 12.5 19.25V14.25C12.5 13.9375 12.6172 13.625 12.8516 13.3906C13.0859 13.1562 13.3984 13 13.75 13H16.25ZM15.625 18.625V14.875H14.375V18.625H15.625ZM22.5 8C22.8125 8 23.125 8.15625 23.3594 8.39062C23.5938 8.625 23.75 8.9375 23.75 9.25V19.25C23.75 19.6016 23.5938 19.9141 23.3594 20.1484C23.125 20.3828 22.8125 20.5 22.5 20.5H20C19.6484 20.5 19.3359 20.3828 19.1016 20.1484C18.8672 19.9141 18.75 19.6016 18.75 19.25V9.25C18.75 8.9375 18.8672 8.625 19.1016 8.39062C19.3359 8.15625 19.6484 8 20 8H22.5ZM21.875 18.625V9.875H20.625V18.625H21.875ZM10 8C10.3125 8 10.625 8.15625 10.8594 8.39062C11.0938 8.625 11.25 8.9375 11.25 9.25V19.25C11.25 19.6016 11.0938 19.9141 10.8594 20.1484C10.625 20.3828 10.3125 20.5 10 20.5H7.5C7.14844 20.5 6.83594 20.3828 6.60156 20.1484C6.36719 19.9141 6.25 19.6016 6.25 19.25V9.25C6.25 8.9375 6.36719 8.625 6.60156 8.39062C6.83594 8.15625 7.14844 8 7.5 8H10ZM9.375 18.625V9.875H8.125V18.625H9.375ZM3.75 14.25C4.0625 14.25 4.375 14.4062 4.60938 14.6406C4.84375 14.875 5 15.1875 5 15.5V19.25C5 19.6016 4.84375 19.9141 4.60938 20.1484C4.375 20.3828 4.0625 20.5 3.75 20.5H1.25C0.898438 20.5 0.585938 20.3828 0.351562 20.1484C0.117188 19.9141 0 19.6016 0 19.25V15.5C0 15.1875 0.117188 14.875 0.351562 14.6406C0.585938 14.4062 0.898438 14.25 1.25 14.25H3.75ZM3.125 18.625V16.125H1.875V18.625H3.125ZM2.5 10.5C1.95312 10.5 1.52344 10.3438 1.17188 9.95312C0.78125 9.60156 0.625 9.17188 0.625 8.625C0.625 8.11719 0.78125 7.6875 1.17188 7.29688C1.52344 6.94531 1.95312 6.75 2.5 6.75C2.65625 6.75 2.8125 6.78906 2.96875 6.82812L6.95312 2.84375C6.875 2.6875 6.875 2.53125 6.875 2.375C6.875 1.86719 7.03125 1.4375 7.42188 1.04688C7.77344 0.695312 8.20312 0.5 8.75 0.5C9.25781 0.5 9.6875 0.695312 10.0781 1.04688C10.4297 1.4375 10.625 1.86719 10.625 2.375L10.5859 2.64844L14.3359 5.61719C14.5312 5.53906 14.7656 5.5 15 5.5C15.2344 5.5 15.4297 5.53906 15.6641 5.61719L19.4141 2.64844L19.375 2.375C19.375 1.86719 19.5312 1.4375 19.9219 1.04688C20.2734 0.695312 20.7031 0.5 21.25 0.5C21.7578 0.5 22.1875 0.695312 22.5781 1.04688C22.9297 1.4375 23.125 1.86719 23.125 2.375C23.125 2.92188 22.9297 3.35156 22.5781 3.70312C22.1875 4.09375 21.7578 4.25 21.25 4.25C21.0156 4.25 20.7812 4.21094 20.5859 4.13281L16.8359 7.10156L16.875 7.375C16.875 7.92188 16.6797 8.35156 16.3281 8.70312C15.9375 9.09375 15.5078 9.25 15 9.25C14.4531 9.25 14.0234 9.09375 13.6719 8.70312C13.2812 8.35156 13.125 7.92188 13.125 7.375L13.1641 7.10156L9.41406 4.13281C9.17969 4.21094 8.98438 4.25 8.75 4.25C8.59375 4.25 8.4375 4.25 8.28125 4.17188L4.29688 8.15625C4.33594 8.3125 4.375 8.46875 4.375 8.625C4.375 9.17188 4.17969 9.60156 3.82812 9.95312C3.4375 10.3438 3.00781 10.5 2.5 10.5Z" fill="#2D86DA"/>
</svg>
