<svg width="19" height="14" viewBox="0 0 19 14" fill="none" xmlns="http://www.w3.org/2000/svg">
<path d="M13.6342 5C13.6342 5.90625 13.3217 6.75 12.7592 7.5C12.1654 8.28125 11.3842 8.90625 10.3842 9.34375C9.38416 9.78125 8.32166 10 7.13416 10C5.88416 10 4.72791 9.75 3.66541 9.21875C2.75916 9.75 1.82166 10 0.884159 10C0.759159 10 0.696659 9.96875 0.665409 9.84375C0.602909 9.75 0.634159 9.65625 0.727909 9.5625C0.790409 9.5 0.915409 9.3125 1.10291 9.0625C1.41541 8.6875 1.63416 8.28125 1.82166 7.875C1.00916 7.03125 0.634159 6.0625 0.634159 5C0.634159 4.125 0.915409 3.28125 1.50916 2.5C2.07166 1.75 2.85291 1.125 3.85291 0.6875C4.85291 0.25 5.94666 0 7.13416 0C8.32166 0 9.38416 0.25 10.3842 0.6875C11.3842 1.125 12.1654 1.75 12.7592 2.5C13.3217 3.28125 13.6342 4.125 13.6342 5ZM17.4467 11.875C17.6029 12.2812 17.8529 12.6875 18.1654 13.0938C18.3217 13.3438 18.4467 13.5 18.5404 13.5625C18.6029 13.6562 18.6342 13.75 18.6029 13.8438C18.5404 13.9688 18.4779 14 18.3842 14C17.4154 14 16.4779 13.75 15.6029 13.2188C14.5404 13.75 13.3842 14 12.1342 14C10.7904 14 9.57166 13.7188 8.50916 13.1562C7.41541 12.5938 6.63416 11.875 6.13416 10.9375C6.50916 11 6.82166 11 7.13416 11C8.47791 11 9.72791 10.75 10.8842 10.1875C12.0092 9.65625 12.9154 8.9375 13.6029 8C14.2904 7.09375 14.6342 6.09375 14.6342 5C14.6342 4.78125 14.6029 4.5625 14.6029 4.375C15.7904 4.75 16.7592 5.375 17.5092 6.21875C18.2592 7.0625 18.6342 8 18.6342 9.03125C18.6342 10.0938 18.2279 11.0312 17.4467 11.875Z" fill="#45ADFA"/>
</svg>
