<!-- Generated by IcoMoon.io -->
<svg version="1.1" xmlns="http://www.w3.org/2000/svg" width="1024" height="1024" viewBox="0 0 1024 1024">
<title></title>
<g id="icomoon-ignore">
</g>
<path fill="#2d86da" d="M714.663 670.225c-3.555 3.555-3.555 5.333-3.555 8.889v202.667h-625.774v-625.774h430.221c3.555 0 5.333 0 8.889-3.555l56.888-56.888c3.557-3.555 5.333-8.89 3.557-16.001-3.557-5.332-7.113-8.89-12.446-8.89h-487.11c-24.888 0-44.445 8.89-60.444 24.888-17.777 17.777-24.888 37.334-24.888 60.444v625.774c0 24.888 7.111 44.447 24.888 60.444 16.001 17.779 35.555 24.888 60.444 24.888h625.774c23.111 0 42.666-7.109 60.444-24.888 16.004-15.998 24.888-35.553 24.888-60.444v-257.78c0-7.109-3.555-10.665-8.889-14.222-7.113-1.776-12.446 0-16.004 3.557l-56.888 56.888zM993.774 311.111c19.555-19.555 30.225-44.445 30.225-72.889s-10.666-53.333-30.225-74.666l-76.443-76.443c-21.331-19.554-46.222-30.223-74.666-30.223s-53.331 10.666-72.887 30.223l-467.554 467.553-17.777 160c-3.555 24.888 3.555 44.447 21.333 60.444 16.001 17.779 35.555 24.888 60.444 21.336l160-17.777 467.551-467.553zM817.775 366.223l-330.667 330.667-115.555 12.441 12.443-115.553 330.665-330.667 103.112 103.111zM933.328 224c3.555 3.555 5.333 8.89 5.333 14.222s-1.782 8.89-5.333 12.443l-55.108 55.111-103.112-103.111 55.113-55.109c3.555-3.555 7.109-5.332 12.441-5.332s10.666 1.779 14.222 5.332l76.443 76.443z"></path>
</svg>
