<svg width="21" height="14" viewBox="0 0 21 14" fill="none" xmlns="http://www.w3.org/2000/svg">
<path d="M20.0039 6.40625C20.1445 6.6875 20.25 6.96875 20.25 7.25C20.25 7.56641 20.1445 7.84766 20.0039 8.09375C18.9844 9.81641 17.6133 11.1875 15.8906 12.1719C14.1328 13.2266 12.1992 13.7188 10.125 13.7188C8.01562 13.7188 6.11719 13.2266 4.35938 12.1719C2.60156 11.1875 1.23047 9.81641 0.246094 8.09375C0.0703125 7.84766 0 7.56641 0 7.25C0 6.96875 0.0703125 6.6875 0.246094 6.40625C1.23047 4.71875 2.60156 3.34766 4.35938 2.32812C6.11719 1.30859 8.01562 0.78125 10.125 0.78125C12.1992 0.78125 14.1328 1.30859 15.8906 2.32812C17.6133 3.34766 18.9844 4.71875 20.0039 6.40625ZM10.125 12.0312C11.8828 12.0312 13.5352 11.6094 15.0117 10.7305C16.4883 9.88672 17.6836 8.72656 18.5625 7.25C18 6.37109 17.332 5.59766 16.5586 4.89453C15.7852 4.19141 14.9062 3.62891 13.9219 3.20703C14.5547 4.08594 14.9062 5.07031 14.9062 6.125C14.9062 7.00391 14.6602 7.8125 14.2383 8.51562C13.8164 9.25391 13.2188 9.85156 12.5156 10.2734C11.7773 10.6953 10.9688 10.9062 10.125 10.9062C9.24609 10.9062 8.4375 10.6953 7.73438 10.2734C6.99609 9.85156 6.39844 9.25391 5.97656 8.51562C5.55469 7.8125 5.34375 7.00391 5.34375 6.125C5.34375 5.35156 5.51953 4.57812 5.90625 3.875C5.90625 4.4375 6.08203 4.89453 6.46875 5.28125C6.85547 5.66797 7.3125 5.84375 7.875 5.84375C8.40234 5.84375 8.85938 5.66797 9.24609 5.28125C9.63281 4.89453 9.84375 4.4375 9.84375 3.875C9.84375 3.34766 9.63281 2.89062 9.28125 2.50391C7.66406 2.64453 6.22266 3.13672 4.88672 3.98047C3.55078 4.82422 2.46094 5.91406 1.6875 7.25C2.53125 8.72656 3.72656 9.88672 5.20312 10.7305C6.67969 11.6094 8.33203 12.0312 10.125 12.0312Z" fill="#2D86DA"/>
</svg>
