<svg width="21" height="18" viewBox="0 0 21 18" fill="none" xmlns="http://www.w3.org/2000/svg">
<path d="M0.25 2.125C0.25 1.61719 0.40625 1.1875 0.796875 0.796875C1.14844 0.445312 1.57812 0.25 2.125 0.25H18.375C18.8828 0.25 19.3125 0.445312 19.7031 0.796875C20.0547 1.1875 20.25 1.61719 20.25 2.125V15.875C20.25 16.4219 20.0547 16.8516 19.7031 17.2031C19.3125 17.5938 18.8828 17.75 18.375 17.75H2.125C1.57812 17.75 1.14844 17.5938 0.796875 17.2031C0.40625 16.8516 0.25 16.4219 0.25 15.875V2.125ZM18.6875 10.875V7.125H14.1172V10.875H18.6875ZM12.5547 10.875V7.125H7.94531V10.875H12.5547ZM12.5547 12.4375H7.94531V16.1875H12.5547V12.4375ZM1.8125 7.125V10.875H6.38281V7.125H1.8125ZM7.94531 5.5625H12.5547V1.8125H7.94531V5.5625ZM6.38281 1.8125H2.28125C2.125 1.8125 2.00781 1.89062 1.92969 1.96875C1.85156 2.04688 1.8125 2.16406 1.8125 2.28125V5.5625H6.38281V1.8125ZM1.8125 12.4375V15.7188C1.8125 15.875 1.85156 15.9922 1.92969 16.0703C2.00781 16.1484 2.125 16.1875 2.28125 16.1875H6.38281V12.4375H1.8125ZM14.1172 16.1875H18.6875V12.4375H14.1172V16.1875ZM18.6875 5.5625V1.8125H14.1172V5.5625H18.6875Z" fill="#2D86DA"/>
</svg>
