<svg width="21" height="21" viewBox="0 0 21 21" fill="none" xmlns="http://www.w3.org/2000/svg">
<path d="M14.6245 3.76605C14.6245 4.82074 14.2339 5.71918 13.5308 6.4223C12.7886 7.16449 11.8901 7.51605 10.8745 7.51605C9.81982 7.51605 8.92139 7.16449 8.21826 6.4223C7.47607 5.71918 7.12451 4.82074 7.12451 3.76605C7.12451 2.75043 7.47607 1.85199 8.21826 1.1098C8.92139 0.406677 9.81982 0.0160522 10.8745 0.0160522C11.8901 0.0160522 12.7886 0.406677 13.5308 1.1098C14.2339 1.85199 14.6245 2.75043 14.6245 3.76605ZM10.0151 9.43011C10.1714 9.5473 10.2495 9.70355 10.2495 9.89886V19.5082C10.2495 19.7036 10.1323 19.8598 9.97607 19.9379C9.81982 20.0551 9.62451 20.0551 9.46826 19.9379C8.37451 19.4301 7.04639 19.0395 5.40576 18.727C4.31201 18.5317 3.14014 18.4145 1.89014 18.3364C1.57764 18.3364 1.34326 18.2192 1.14795 18.0239C0.952637 17.8286 0.874512 17.5942 0.874512 17.2817V8.57074C0.874512 8.25824 0.991699 8.02386 1.22607 7.78949C1.46045 7.59418 1.73389 7.51605 2.04639 7.51605C3.37451 7.59418 4.66357 7.75043 5.87451 7.9848C7.59326 8.33636 8.96045 8.80511 10.0151 9.43011ZM19.7026 7.51605C20.0151 7.51605 20.2886 7.59418 20.5229 7.78949C20.7573 8.02386 20.8745 8.25824 20.8745 8.57074V17.2817C20.8745 17.5942 20.7573 17.8286 20.562 18.0239C20.3667 18.2192 20.1323 18.3364 19.8589 18.3364C18.6089 18.4145 17.437 18.5317 16.3433 18.727C14.7026 19.0395 13.3354 19.4301 12.3198 19.9379C12.0854 20.0551 11.8901 20.0551 11.7339 19.9379C11.5776 19.8598 11.4995 19.7036 11.4995 19.5082V9.89886C11.4995 9.70355 11.5776 9.5473 11.7339 9.43011C12.7495 8.80511 14.1558 8.33636 15.8745 7.9848C17.0464 7.75043 18.3354 7.59418 19.7026 7.51605Z" fill="#2D86DA"/>
</svg>
