<svg width="17" height="15" viewBox="0 0 17 15" fill="none" xmlns="http://www.w3.org/2000/svg">
<path d="M16.3842 4.9375C16.5404 5.09375 16.6342 5.28125 16.6342 5.5C16.6342 5.75 16.5404 5.9375 16.3842 6.0625L10.8842 10.8125C10.6967 10.9688 10.5092 11.0312 10.3217 11C10.1342 11 9.94666 10.9062 9.82166 10.7812C9.69666 10.6562 9.63416 10.4688 9.63416 10.25V7.5C7.91541 7.53125 6.60291 7.71875 5.72791 8.03125C4.72791 8.40625 4.07166 9 3.82166 9.84375C3.54041 10.6875 3.63416 11.8438 4.10291 13.3125C4.16541 13.5 4.13416 13.625 4.04041 13.75C3.94666 13.875 3.82166 13.9688 3.66541 14C3.50916 14.0312 3.35291 14 3.22791 13.875C2.47791 13.375 1.88416 12.6875 1.41541 11.8125C0.884159 10.9062 0.634159 10 0.634159 9.0625C0.634159 6.875 1.50916 5.34375 3.25916 4.40625C4.63416 3.6875 6.75916 3.3125 9.63416 3.25V0.75C9.63416 0.5625 9.69666 0.375 9.82166 0.25C9.94666 0.125 10.1342 0.03125 10.3217 0C10.5092 0 10.6967 0.0625 10.8842 0.1875L16.3842 4.9375Z" fill="#45ADFA"/>
</svg>
