<svg width="682" height="878" viewBox="0 0 682 878" fill="none" xmlns="http://www.w3.org/2000/svg">
<rect x="181" y="-9" width="644" height="929" fill="#2D86DA" fill-opacity="0.2"/>
<g clip-path="url(#clip0)">
<path d="M586.692 390.318C605.583 390.318 620.898 375.968 620.898 358.266C620.898 340.564 605.583 326.214 586.692 326.214C567.801 326.214 552.486 340.564 552.486 358.266C552.486 375.968 567.801 390.318 586.692 390.318Z" fill="#2F2E41"/>
<path d="M487.106 557.94L478.446 570.067C478.446 570.067 436.88 578.73 452.467 591.724C468.055 604.718 490.57 579.596 490.57 579.596L502.693 564.003L487.106 557.94Z" fill="#FFB8B8"/>
<path d="M532.136 420.204C532.136 420.204 520.879 420.204 518.281 435.796C515.683 451.389 513.085 503.365 513.085 503.365C513.085 503.365 476.714 551.01 482.776 557.073C488.838 563.137 495.765 574.399 500.095 572.666C504.425 570.934 541.662 519.824 541.662 519.824L532.136 420.204Z" fill="#2D86DA"/>
<path opacity="0.1" d="M532.136 420.204C532.136 420.204 520.879 420.204 518.281 435.796C515.683 451.389 513.085 503.365 513.085 503.365C513.085 503.365 476.714 551.01 482.776 557.073C488.838 563.137 495.765 574.399 500.095 572.666C504.425 570.934 541.662 519.824 541.662 519.824L532.136 420.204Z" fill="black"/>
<path d="M566.775 376.024C566.775 376.024 565.909 409.809 555.517 411.541C545.126 413.274 548.589 424.535 548.589 424.535C548.589 424.535 582.362 444.459 604.877 424.535L609.207 414.14C609.207 414.14 593.62 402.878 600.547 387.286L566.775 376.024Z" fill="#FFB8B8"/>
<path d="M508.755 583.928C508.755 583.928 457.663 679.217 476.714 708.67C495.765 738.123 524.342 798.761 528.672 798.761C533.002 798.761 557.249 786.633 555.517 778.837C553.785 771.041 527.806 713.001 520.878 707.803C513.951 702.606 517.415 688.745 518.281 687.879C519.146 687.013 547.723 641.101 547.723 641.101C547.723 641.101 546.857 713.867 550.321 725.129C553.785 736.39 549.455 816.953 553.785 820.418C558.115 823.883 578.032 829.947 581.496 824.749C584.96 819.551 595.351 740.721 588.424 722.53L601.413 597.788L508.755 583.928Z" fill="#2F2E41"/>
<path d="M555.517 815.22L533.868 855.068C533.868 855.068 502.693 877.591 524.342 881.056C545.991 884.521 558.981 875.859 558.981 875.859L578.032 861.998V822.15L555.517 815.22Z" fill="#2F2E41"/>
<path d="M526.074 792.697L537.332 819.551C537.332 819.551 541.662 830.813 537.332 833.412C533.002 836.01 520.878 851.603 528.672 853.336C530.24 853.643 531.833 853.801 533.431 853.809C539.921 853.918 546.366 852.713 552.378 850.266C558.39 847.818 563.844 844.179 568.414 839.568L575.434 832.545C575.434 832.545 551.386 777.149 551.72 777.56C552.053 777.971 526.074 792.697 526.074 792.697Z" fill="#2F2E41"/>
<path d="M588.424 396.815C604.685 396.815 617.867 383.628 617.867 367.362C617.867 351.095 604.685 337.909 588.424 337.909C572.163 337.909 558.981 351.095 558.981 367.362C558.981 383.628 572.163 396.815 588.424 396.815Z" fill="#FFB8B8"/>
<path d="M605.31 408.509L596.217 417.605C596.217 417.605 568.506 428 555.517 417.605C555.517 417.605 560.28 407.643 560.28 408.509C560.28 409.375 522.61 415.006 519.146 430.599C515.683 446.192 521.744 473.046 521.744 473.046C521.744 473.046 497.497 587.393 507.023 589.991C516.549 592.59 605.743 614.247 604.877 597.788C604.011 581.329 611.805 513.76 611.805 513.76L642.113 455.72C642.113 455.72 637.784 436.663 627.392 430.599C617 424.535 605.31 408.509 605.31 408.509Z" fill="#2D86DA"/>
<path d="M566.775 577.864L555.517 584.794C555.517 584.794 512.219 614.247 534.734 619.444C557.249 624.642 570.238 598.654 570.238 598.654L578.898 588.259L566.775 577.864Z" fill="#FFB8B8"/>
<path opacity="0.1" d="M630.856 450.523L638.65 458.319C638.65 458.319 643.846 531.085 633.454 545.812C623.063 560.538 575.434 600.387 572.837 597.788C570.239 595.189 553.785 582.195 557.249 580.462C560.713 578.73 606.768 530.592 606.768 530.592L603.145 463.517L630.856 450.523Z" fill="black"/>
<path d="M634.32 447.924L642.114 455.721C642.114 455.721 647.31 528.487 636.918 543.213C626.526 557.94 578.898 597.788 576.3 595.189C573.702 592.59 557.249 579.596 560.713 577.864C564.177 576.131 610.231 527.993 610.231 527.993L606.609 460.918L634.32 447.924Z" fill="#2D86DA"/>
<path d="M576.247 325.525C576.247 325.525 566.238 321.885 552.591 329.621L559.869 331.442C559.869 331.442 548.951 332.352 547.586 346.914H552.591C552.591 346.914 549.406 359.657 552.591 363.297L554.638 359.429L560.552 371.261L561.917 365.345L564.646 366.256L566.466 356.699C566.466 356.699 571.015 363.525 574.655 363.98V358.064C574.655 358.064 584.663 369.441 587.847 368.986L583.298 362.615L589.667 363.98L586.938 359.429L603.315 363.98L599.676 359.429L611.049 363.07L616.508 365.345C616.508 365.345 624.242 347.597 613.323 335.31C602.405 323.022 586.483 320.292 576.247 325.525Z" fill="#2F2E41"/>
<path d="M110.644 383.319C119.683 399.887 138.866 407 138.866 407C138.866 407 143.394 387.25 134.356 370.681C125.317 354.113 106.134 347 106.134 347C106.134 347 101.606 366.75 110.644 383.319Z" fill="#2F2E41"/>
<path d="M116.815 377.718C132.832 387.315 139 406.376 139 406.376C139 406.376 119.201 409.879 103.185 400.282C87.1684 390.685 81 371.624 81 371.624C81 371.624 100.799 368.121 116.815 377.718Z" fill="#2D86DA"/>
<path d="M488 432H160V616H488V432Z" fill="white"/>
<path d="M322.978 519.122C322.731 519.496 322.465 519.86 322.18 520.214C319.86 523.09 316.492 524.954 312.817 525.399C309.142 525.843 305.458 524.831 302.575 522.584L297.371 518.518L298.788 516.758L303.992 520.824C305.188 521.758 306.561 522.449 308.034 522.855C309.507 523.262 311.05 523.376 312.576 523.192C314.102 523.008 315.581 522.529 316.927 521.783C318.274 521.036 319.462 520.037 320.424 518.842C321.386 517.647 322.103 516.28 322.534 514.818C322.964 513.356 323.101 511.829 322.935 510.324C322.769 508.818 322.304 507.364 321.567 506.044C320.83 504.724 319.834 503.564 318.638 502.63L296.782 485.558C295.586 484.624 294.213 483.934 292.74 483.529C291.268 483.123 289.725 483.009 288.2 483.194C286.674 483.378 285.196 483.857 283.85 484.603C282.504 485.35 281.317 486.348 280.355 487.543C279.393 488.738 278.677 490.104 278.246 491.566C277.815 493.027 277.678 494.553 277.844 496.058C278.009 497.563 278.473 499.017 279.21 500.337C279.946 501.657 280.941 502.817 282.136 503.751L289.874 509.796L288.457 511.555L280.719 505.511C277.839 503.26 275.997 499.957 275.599 496.33C275.201 492.703 276.279 489.048 278.597 486.169C280.914 483.291 284.281 481.423 287.957 480.979C291.633 480.534 295.317 481.548 298.199 483.798L320.055 500.87C322.754 502.979 324.548 506.016 325.089 509.39C325.629 512.763 324.877 516.233 322.978 519.122Z" fill="#3F3D56"/>
<path d="M336.742 546.798C336.5 547.17 336.239 547.534 335.958 547.888C333.649 550.789 330.283 552.658 326.599 553.085C322.916 553.512 319.215 552.462 316.308 550.165L294.276 532.715C291.371 530.414 289.502 527.054 289.079 523.373C288.656 519.692 289.714 515.993 292.021 513.088C294.328 510.183 297.694 508.312 301.379 507.885C305.064 507.458 308.766 508.511 311.671 510.811L317.458 515.395L316.048 517.171L310.261 512.587C309.055 511.632 307.674 510.924 306.194 510.504C304.714 510.083 303.166 509.958 301.637 510.135C300.108 510.312 298.629 510.788 297.284 511.536C295.938 512.284 294.753 513.29 293.796 514.495C292.839 515.7 292.129 517.081 291.706 518.56C291.283 520.038 291.156 521.585 291.332 523.112C291.507 524.639 291.982 526.117 292.729 527.46C293.476 528.803 294.481 529.985 295.687 530.94L317.718 548.39C318.923 549.345 320.305 550.054 321.785 550.475C323.265 550.897 324.814 551.023 326.344 550.846C327.873 550.669 329.353 550.193 330.699 549.445C332.045 548.697 333.23 547.691 334.188 546.486C335.145 545.28 335.855 543.898 336.278 542.419C336.701 540.94 336.828 539.392 336.652 537.865C336.476 536.337 336 534.86 335.252 533.517C334.504 532.173 333.498 530.991 332.292 530.037L324.709 524.03L326.119 522.255L333.703 528.261C336.422 530.421 338.239 533.514 338.801 536.94C339.363 540.366 338.629 543.88 336.742 546.798Z" fill="#3F3D56"/>
<path d="M465 590H135V406H465V590ZM136.429 588.568H463.571V407.432H136.429V588.568Z" fill="#2F2E41"/>
<path d="M280.557 876.562C280.398 876.301 276.64 870.027 275.338 857C274.143 845.048 274.911 824.902 285.36 796.8C305.156 743.562 280.798 700.607 280.549 700.179L281.751 699.482C281.814 699.591 288.099 710.543 291.812 727.982C296.718 751.102 294.932 775.142 286.662 797.284C266.901 850.431 281.592 875.59 281.743 875.838L280.557 876.562Z" fill="#2F2E41"/>
<path d="M272.817 697.053C277.803 697.053 281.844 693.012 281.844 688.027C281.844 683.041 277.803 679 272.817 679C267.831 679 263.789 683.041 263.789 688.027C263.789 693.012 267.831 697.053 272.817 697.053Z" fill="#D83E7F"/>
<path d="M301.289 730.383C306.274 730.383 310.316 726.342 310.316 721.356C310.316 716.371 306.274 712.329 301.289 712.329C296.303 712.329 292.261 716.371 292.261 721.356C292.261 726.342 296.303 730.383 301.289 730.383Z" fill="#2F2E41"/>
<path d="M281.845 752.603C286.83 752.603 290.872 748.561 290.872 743.576C290.872 738.591 286.83 734.549 281.845 734.549C276.859 734.549 272.817 738.591 272.817 743.576C272.817 748.561 276.859 752.603 281.845 752.603Z" fill="#D83E7F"/>
<path d="M305.455 771.35C310.441 771.35 314.483 767.309 314.483 762.324C314.483 757.338 310.441 753.297 305.455 753.297C300.47 753.297 296.428 757.338 296.428 762.324C296.428 767.309 300.47 771.35 305.455 771.35Z" fill="#D83E7F"/>
<path d="M274.9 800.514C279.886 800.514 283.928 796.472 283.928 791.487C283.928 786.502 279.886 782.46 274.9 782.46C269.914 782.46 265.873 786.502 265.873 791.487C265.873 796.472 269.914 800.514 274.9 800.514Z" fill="#2F2E41"/>
<path d="M286.011 876.894C286.011 876.894 276.983 854.674 304.066 838.009L286.011 876.894Z" fill="#2F2E41"/>
<path d="M274.908 876.491C274.908 876.491 270.8 852.862 239 853.065L274.908 876.491Z" fill="#2F2E41"/>
</g>
<path d="M300 270H247V323H300V270Z" fill="#D83E7F"/>
<path d="M276 296H233V253H276V296ZM236.308 292.692H272.692V256.308H236.308V292.692Z" fill="#3F3D56"/>
<path d="M511.5 162C533.315 162 551 144.315 551 122.5C551 100.685 533.315 83 511.5 83C489.685 83 472 100.685 472 122.5C472 144.315 489.685 162 511.5 162Z" fill="#2D86DA"/>
<path d="M475 129C470.451 129 466.004 127.651 462.222 125.124C458.439 122.597 455.492 119.004 453.751 114.802C452.01 110.599 451.554 105.974 452.442 101.513C453.329 97.0514 455.52 92.9532 458.737 89.7366C461.953 86.52 466.051 84.3294 470.513 83.4419C474.975 82.5545 479.599 83.01 483.802 84.7508C488.004 86.4916 491.597 89.4396 494.124 93.2219C496.651 97.0042 498 101.451 498 106C497.993 112.098 495.568 117.944 491.256 122.256C486.944 126.568 481.098 128.993 475 129ZM475 86.8333C471.209 86.8333 467.503 87.9574 464.352 90.0635C461.2 92.1696 458.743 95.163 457.292 98.6653C455.842 102.168 455.462 106.021 456.202 109.739C456.941 113.457 458.767 116.872 461.447 119.553C464.128 122.233 467.543 124.059 471.261 124.798C474.979 125.538 478.833 125.158 482.335 123.708C485.837 122.257 488.83 119.8 490.937 116.648C493.043 113.497 494.167 109.791 494.167 106C494.161 100.918 492.14 96.0467 488.546 92.4535C484.953 88.8604 480.082 86.8392 475 86.8333Z" fill="#3F3D56"/>
<defs>
<clipPath id="clip0">
<rect width="659" height="607" fill="white" transform="translate(0 323)"/>
</clipPath>
</defs>
</svg>
