<svg width="317" height="239" viewBox="0 0 317 239" fill="none" xmlns="http://www.w3.org/2000/svg">
<g clip-path="url(#clip0)">
<path d="M81.6501 210.838C81.6501 210.838 83.1764 204.44 93.8602 206.573C104.544 208.706 106.07 210.838 106.07 210.838H81.6501Z" fill="#3F3D56"/>
<path d="M28.994 202.459C28.994 202.459 30.5202 196.061 41.2041 198.194C51.8879 200.327 53.4142 202.459 53.4142 202.459H28.994Z" fill="#3F3D56"/>
<path d="M118.28 210.838C118.28 210.838 109.733 205.659 106.07 210.838H118.28Z" fill="#3F3D56"/>
<path d="M78.4449 196.213C78.4449 196.213 69.8979 191.034 66.2348 196.213H78.4449Z" fill="#3F3D56"/>
<path d="M30.4974 191.454C33.0421 196.165 38.4427 198.187 38.4427 198.187C38.4427 198.187 39.7176 192.572 37.173 187.861C34.6284 183.151 29.2278 181.129 29.2278 181.129C29.2278 181.129 27.9528 186.744 30.4974 191.454Z" fill="#3F3D56"/>
<path d="M32.2464 189.905C36.8405 192.663 38.6099 198.143 38.6099 198.143C38.6099 198.143 32.9307 199.15 28.3366 196.391C23.7425 193.632 21.9732 188.153 21.9732 188.153C21.9732 188.153 27.6523 187.146 32.2464 189.905Z" fill="#2D86DA"/>
<path d="M284.491 207.03C284.491 207.03 286.017 200.631 296.701 202.764C307.385 204.897 308.911 207.03 308.911 207.03H284.491Z" fill="#3F3D56"/>
<path d="M260.07 210.838C252.647 209.679 245.51 208.692 238.659 207.879L241.297 202.612C240.382 202.307 236.413 205.354 236.413 205.354L239.771 190.12C235.192 190.729 233.055 206.268 233.055 206.268L227.866 201.088L230.421 206.953C209.456 204.754 191.365 204.068 176.157 204.225L178.415 199.717C177.499 199.413 173.531 202.459 173.531 202.459L176.889 187.225C172.31 187.834 170.173 203.374 170.173 203.374L164.984 198.194L167.69 204.405C157.273 204.707 146.878 205.543 136.547 206.908C138.8 199.902 146.669 193.166 146.669 193.166C140.619 195.045 137.471 198.106 135.842 200.944C135.512 186.549 137.731 172.209 142.395 158.584C142.395 158.584 130.185 186.006 132.017 204.288L132.249 207.535C121.627 209.189 116.296 210.838 116.296 210.838H260.07Z" fill="#3F3D56"/>
<path d="M180.399 224.702C180.399 224.702 236.566 216.475 271.365 224.702H180.399Z" fill="#3F3D56"/>
<path d="M97.6759 235.975C97.6759 235.975 153.842 227.749 188.641 235.975H97.6759Z" fill="#3F3D56"/>
<path d="M201.767 239C201.767 239 235.033 230.579 255.644 239H201.767Z" fill="#3F3D56"/>
<path d="M294.683 205.189L294.14 204.909C301.186 191.313 297.418 173.656 293.017 161.238C290.029 152.891 286.217 144.861 281.638 137.266L282.154 136.941C286.757 144.574 290.588 152.645 293.592 161.034C298.034 173.566 301.828 191.399 294.683 205.189Z" fill="#3F3D56"/>
<path d="M299.908 137.05L295.948 158.684L296.548 158.794L300.508 137.16L299.908 137.05Z" fill="#3F3D56"/>
<path d="M273.572 155.482L273.125 155.897L293.577 177.835L294.024 177.42L273.572 155.482Z" fill="#3F3D56"/>
<path d="M310.34 179.58L299.966 193.904L300.461 194.261L310.835 179.937L310.34 179.58Z" fill="#3F3D56"/>
<path d="M301.737 131.315C303.423 131.315 304.79 129.95 304.79 128.268C304.79 126.585 303.423 125.221 301.737 125.221C300.051 125.221 298.685 126.585 298.685 128.268C298.685 129.95 300.051 131.315 301.737 131.315Z" fill="#D83E7F"/>
<path d="M268.465 154.776C270.151 154.776 271.517 153.412 271.517 151.729C271.517 150.046 270.151 148.682 268.465 148.682C266.779 148.682 265.412 150.046 265.412 151.729C265.412 153.412 266.779 154.776 268.465 154.776Z" fill="#3F3D56"/>
<path d="M281.896 157.822C283.582 157.822 284.948 156.458 284.948 154.776C284.948 153.093 283.582 151.729 281.896 151.729C280.21 151.729 278.843 153.093 278.843 154.776C278.843 156.458 280.21 157.822 281.896 157.822Z" fill="#3F3D56"/>
<path d="M275.791 169.705C277.477 169.705 278.843 168.341 278.843 166.658C278.843 164.976 277.477 163.612 275.791 163.612C274.105 163.612 272.738 164.976 272.738 166.658C272.738 168.341 274.105 169.705 275.791 169.705Z" fill="#D83E7F"/>
<path d="M313.947 177.323C315.633 177.323 317 175.958 317 174.276C317 172.593 315.633 171.229 313.947 171.229C312.262 171.229 310.895 172.593 310.895 174.276C310.895 175.958 312.262 177.323 313.947 177.323Z" fill="#3F3D56"/>
<path d="M303.874 180.674C305.56 180.674 306.927 179.31 306.927 177.627C306.927 175.945 305.56 174.58 303.874 174.58C302.188 174.58 300.822 175.945 300.822 177.627C300.822 179.31 302.188 180.674 303.874 180.674Z" fill="#3F3D56"/>
<path d="M310.895 190.424C312.581 190.424 313.947 189.06 313.947 187.377C313.947 185.695 312.581 184.33 310.895 184.33C309.209 184.33 307.842 185.695 307.842 187.377C307.842 189.06 309.209 190.424 310.895 190.424Z" fill="#3F3D56"/>
<path d="M278.843 134.971C280.529 134.971 281.896 133.607 281.896 131.924C281.896 130.241 280.529 128.877 278.843 128.877C277.158 128.877 275.791 130.241 275.791 131.924C275.791 133.607 277.158 134.971 278.843 134.971Z" fill="#3F3D56"/>
<path d="M100.203 115.773C100.203 153.436 77.772 166.586 50.1016 166.586C22.4313 166.586 0 153.436 0 115.773C0 78.1106 50.1016 30.1978 50.1016 30.1978C50.1016 30.1978 100.203 78.1106 100.203 115.773Z" fill="white"/>
<path d="M48.2766 160.825L48.7895 129.305L70.144 90.3098L48.8701 124.36L49.1005 110.187L63.8183 81.9748L49.1616 106.437L49.5767 80.9464L65.3363 58.4857L49.6417 76.9383L49.9009 30.1977L48.2721 92.0734L48.4058 89.521L32.3827 65.0401L48.149 94.421L46.6561 122.889L46.6115 122.134L28.1397 96.3713L46.5556 124.803L46.3688 128.363L46.3355 128.417L46.3508 128.709L42.5629 200.936H47.6237L48.2309 163.629L66.6016 135.267L48.2766 160.825Z" fill="#3F3D56"/>
<path d="M265.462 104.545C265.462 150.557 238.058 166.622 204.254 166.622C170.45 166.622 143.046 150.557 143.046 104.545C143.046 58.5339 204.254 0 204.254 0C204.254 0 265.462 58.5339 265.462 104.545Z" fill="white"/>
<path d="M202.025 159.584L202.651 121.077L228.74 73.4374L202.75 115.036L203.032 97.7214L221.012 63.255L203.106 93.1395L203.613 61.9984L222.866 34.5587L203.692 57.1015L204.009 0L202.019 75.5921L202.183 72.4736L182.608 42.5663L201.869 78.4599L200.045 113.239L199.991 112.316L177.424 80.8428L199.922 115.577L199.694 119.927L199.653 119.992L199.672 120.349L195.044 208.587H201.227L201.969 163.01L224.412 128.361L202.025 159.584Z" fill="#3F3D56"/>
<path d="M154.814 170.814L157.603 179.431C157.603 179.431 155.08 187.518 156.275 196.533C157.471 205.547 156.806 205.812 156.806 205.812C156.806 205.812 144.863 205.126 146.058 208.706C147.254 212.285 158.932 210.187 158.932 210.187C158.932 210.187 161.174 209.585 162.237 203.221C163.299 196.858 165.971 184.601 165.971 184.601L163.459 173.031L154.814 170.814Z" fill="#FFB8B8"/>
<path d="M155.744 153.182C155.744 153.182 150.697 155.038 150.697 160.076C150.697 165.113 152.556 172.007 153.752 172.405C154.947 172.802 162.916 178.238 164.377 174.393C165.838 170.549 155.744 153.182 155.744 153.182Z" fill="#2D86DA"/>
<path d="M197.979 212.839L208.605 212.441L216.707 211.248L214.316 219.202L194.659 219.732L197.979 212.839Z" fill="#FFB8B8"/>
<path d="M213.253 213.899C213.253 213.899 213.12 210.983 211.925 211.115C210.73 211.248 211.527 210.055 212.589 209.79C213.652 209.524 216.706 208.199 216.706 208.199L228.793 208.994C228.793 208.994 236.629 215.888 233.441 219.6C230.254 223.312 222.019 219.998 222.019 219.998L213.12 220.13C213.12 220.13 210.198 215.358 213.253 213.899Z" fill="#2F2E41"/>
<path d="M218.035 203.691L221.886 221.721L229.855 220.13L225.339 197.593L220.558 195.074L218.035 203.691Z" fill="#FFB8B8"/>
<path d="M172.213 201.438C172.213 201.438 149.9 211.513 159.33 221.721C159.33 221.721 159.33 226.493 169.291 225.565C179.252 224.637 198.511 222.914 199.44 223.444C200.37 223.975 203.292 212.971 200.769 212.441C198.245 211.911 195.19 211.248 195.19 211.248C195.19 211.248 197.847 210.85 197.847 208.596C197.847 208.596 205.417 208.066 207.675 203.294C209.933 198.521 212.058 194.942 212.058 194.942L217.238 208.199C217.238 208.199 223.214 197.195 227.73 202.101C227.73 202.101 222.683 170.416 218.831 167.5C214.98 164.583 212.324 163.655 208.737 166.306C205.151 168.958 201.831 175.719 201.831 175.719L172.213 201.438Z" fill="#2F2E41"/>
<path d="M225.472 216.286C224.544 216.985 223.657 217.737 222.816 218.539C221.753 219.6 220.292 219.07 220.16 218.539C220.027 218.009 217.636 218.937 217.371 222.782C217.105 226.626 215.511 230.073 219.761 231.266C224.011 232.459 223.879 235.906 223.879 235.906C227.241 237.516 231.101 237.754 234.637 236.569C240.613 234.58 238.488 232.459 238.488 232.459L230.519 219.335C230.519 219.335 228.394 215.358 225.472 216.286Z" fill="#2F2E41"/>
<path d="M203.425 150.531C203.425 150.531 216.175 154.905 217.503 155.833C218.832 156.761 224.808 161.136 221.886 163.39C218.964 165.644 216.574 167.102 210.863 165.378C205.151 163.655 198.776 158.352 198.776 158.352L203.425 150.531Z" fill="#FFB8B8"/>
<path d="M190.675 144.697C190.675 144.697 195.722 143.769 199.308 145.758C202.894 147.747 205.948 151.724 205.948 151.724C205.948 151.724 202.628 158.75 200.237 159.81C197.847 160.871 193.464 155.568 193.464 155.568L190.675 144.697Z" fill="#2D86DA"/>
<path d="M167.432 140.853C167.432 140.853 167.565 146.023 167.033 146.553C166.502 147.084 173.408 162.727 180.979 155.833C188.549 148.94 182.706 146.156 182.706 146.156C182.706 146.156 179.916 140.985 180.049 140.455C180.182 139.925 167.697 140.455 167.697 140.455L167.432 140.853Z" fill="#FFB8B8"/>
<path opacity="0.1" d="M167.432 140.853C167.432 140.853 167.565 146.023 167.033 146.553C166.502 147.084 173.408 162.727 180.979 155.833C188.549 148.94 182.706 146.156 182.706 146.156C182.706 146.156 179.916 140.985 180.049 140.455C180.182 139.925 167.697 140.455 167.697 140.455L167.432 140.853Z" fill="black"/>
<path d="M169.557 150.796C169.557 150.796 174.604 154.242 176.729 153.447C178.854 152.652 181.51 149.205 181.776 148.94C182.042 148.675 195.589 175.851 195.589 175.851C195.589 175.851 193.596 185.794 188.284 188.711C182.971 191.627 183.038 193.947 182.374 195.936C181.709 197.924 173.143 189.639 173.143 189.639L167.697 166.572V152.519L169.557 150.796Z" fill="#2D86DA"/>
<path d="M167.365 144.631C167.365 144.631 165.705 144.3 163.979 145.758C162.252 147.216 154.15 152.652 154.549 153.182C154.947 153.712 158.533 161.269 159.33 164.318C160.127 167.367 161.322 167.765 161.322 167.765C161.322 167.765 164.111 169.753 163.713 171.212C163.314 172.67 161.588 192.555 163.979 196.93C166.369 201.305 165.971 205.15 165.307 206.21C164.643 207.271 171.682 203.161 171.682 203.161C171.682 203.161 182.174 194.677 182.971 192.158C183.487 190.426 183.842 188.651 184.034 186.855C184.034 186.855 177.26 160.076 175.135 158.617C173.01 157.159 167.365 144.631 167.365 144.631Z" fill="#575A89"/>
<path d="M181.956 144.736C181.956 144.736 185.229 142.709 185.893 143.239C186.557 143.769 192.8 143.769 192.932 144.3C193.065 144.83 193.331 157.557 197.847 160.871C202.362 164.185 199.44 170.814 199.44 170.814L202.761 176.117C202.761 176.117 184.698 193.482 185.893 187.518C185.96 187.186 185.893 187.12 185.893 187.12C185.893 187.12 178.854 157.026 179.784 155.436C180.713 153.845 182.403 146.631 181.956 144.736Z" fill="#575A89"/>
<path d="M209.8 156.894L191.737 163.125C191.737 163.125 173.807 167.367 176.596 172.272C179.385 177.177 191.206 168.825 191.206 168.825L215.26 166.135C215.26 166.135 224.808 158.087 209.8 156.894Z" fill="#FFB8B8"/>
<path d="M174.604 145.758C180.032 145.758 184.432 141.366 184.432 135.948C184.432 130.53 180.032 126.138 174.604 126.138C169.176 126.138 164.775 130.53 164.775 135.948C164.775 141.366 169.176 145.758 174.604 145.758Z" fill="#FFB8B8"/>
<path d="M166.777 126.198L164.959 125.538C164.959 125.538 168.76 121.744 174.049 122.074L172.561 120.589C172.561 120.589 176.198 119.269 179.503 122.734C181.241 124.555 183.251 126.696 184.505 129.107H186.452L185.639 130.729L188.483 132.351L185.564 132.06C185.84 133.46 185.745 134.909 185.288 136.261L184.627 138.076C184.627 138.076 181.982 132.797 181.982 132.137V133.787C181.982 133.787 180.164 132.302 180.164 131.312L179.173 132.467L178.677 130.652L172.561 132.467L173.553 130.982L169.752 131.477L171.239 129.662C171.239 129.662 166.942 131.807 166.777 133.622C166.612 135.436 164.463 137.746 164.463 137.746L163.471 136.096C163.471 136.096 161.984 128.673 166.777 126.198Z" fill="#2F2E41"/>
</g>
<defs>
<clipPath id="clip0">
<rect width="317" height="239" fill="white"/>
</clipPath>
</defs>
</svg>
