<svg xmlns="http://www.w3.org/2000/svg" width="284" height="254.828" viewBox="0 0 284 254.828"><defs><style>.a{fill:#9bc93b;}.b{fill:#f4f2f3;}.c{fill:#00baf5;}.d{fill:#ee6a25;}</style></defs><g transform="translate(-44.271 -53.165)"><g transform="translate(171.151 53.165)"><g transform="translate(0)"><path class="a" d="M372.078,126.4c3.2,12.847,16.631,22.693,29.846,21.879l29.143-1.8c13.215-.814,26.379-12.054,29.253-24.978l10.3-46.324c2.874-12.924-5.585-22.808-18.8-21.963l-72.415,4.628C366.2,58.688,358,69.89,361.2,82.738Z" transform="translate(-360.511 -53.165)"/><g transform="translate(30.138 92.281)"><path class="a" d="M435.627,283.365v17.782l23.234-17.977" transform="translate(-435.627 -283.169)"/></g></g><g transform="translate(27.926 27.214)"><g transform="translate(3.445)"><path class="b" d="M488.547,165.516c1.115-4.2,9.222-7.671,14.817-3.786s9.079,4.006,10.949,2.919c-1.73,5.061-9.211,12.135-16.144,11.473C492.762,175.6,486.746,172.306,488.547,165.516Z" transform="translate(-468.353 -144.373)"/><path class="b" d="M441.289,149.025h0c5.1,8.88,11.721,13.62,23.3,14.526s20.84-3.461,25.914-12.666c-3.177.436-7.068.372-10.445-2.044-3.048,2.825-6.868,4.893-10.685,4.7-5.93-.3-12.583-3.261-11.3-11.227.74-4.6,9.029-8.708,15.371-5.193a31.262,31.262,0,0,0-2.394-7.422,17.331,17.331,0,0,0-13.686-8.65c-9.56-.747-18.539,6.369-18.663,15.957C438.649,141.142,439.6,146.095,441.289,149.025Zm4.758-18.3a1.926,1.926,0,1,1,1.771,2.071A1.926,1.926,0,0,1,446.048,130.722Z" transform="translate(-438.701 -120.993)"/></g><path class="b" d="M438.018,128.442l-4.709-4.493,1.3,6.333-4.493,2.273,5.034,1.083" transform="translate(-430.115 -122.763)"/></g></g><g transform="translate(196.048 182.421)"><path class="c" d="M425.1,458.005c.539,13.229,11.7,25.585,24.81,27.457l42.716,6.1c13.107,1.872,28.27-6.477,33.7-18.554l26.515-59.019c5.426-12.077-.862-23.466-13.973-25.308l-93.42-13.126c-13.111-1.842-23.4,7.474-22.859,20.7Z" transform="translate(-422.565 -375.328)"/><g transform="translate(14.997 105.015)"><path class="c" d="M464.184,637.071l-4.24,20.557,34.645-16.954" transform="translate(-459.943 -637.071)"/></g><g transform="translate(24.896 29.161)"><g transform="translate(4.395)"><path class="b" d="M559.177,504.825c1.423-5.365,11.767-9.789,18.907-4.832s11.586,5.112,13.972,3.724c-2.207,6.458-11.754,15.485-20.6,14.64C564.557,517.7,556.879,513.489,559.177,504.825Z" transform="translate(-533.408 -477.845)"/><path class="b" d="M498.874,483.781h0c6.51,11.331,14.956,17.38,29.736,18.535s26.592-4.417,33.067-16.162c-4.054.556-9.019.475-13.328-2.609-3.889,3.6-8.764,6.244-13.634,5.995-7.567-.387-16.057-4.161-14.42-14.326.945-5.869,11.522-11.113,19.614-6.626-.86-3.493-1.614-6.877-3.055-9.471a22.113,22.113,0,0,0-17.464-11.038c-12.2-.953-23.657,8.126-23.815,20.362C495.5,473.722,496.719,480.042,498.874,483.781Zm5.4-24.131a2.345,2.345,0,1,1,2.154,2.52A2.345,2.345,0,0,1,504.274,459.651Z" transform="translate(-495.57 -448.011)"/></g><path class="b" d="M494.7,457.515l-6.01-5.732,1.658,8.082-5.733,2.9,6.423,1.381" transform="translate(-484.615 -450.27)"/></g></g><g transform="translate(44.272 111.819)"><path class="d" d="M180.612,295.136c-1.962,13.094-14.38,23.141-27.595,22.327l-54.806-3.375c-13.215-.814-27.47-11.751-31.677-24.3l-21.079-62.89c-4.208-12.554,3.176-23.207,16.408-23.673l109.169-3.849c13.232-.467,22.453,9.865,20.49,22.959Z" transform="translate(-44.272 -199.356)"/><path class="d" d="M281.458,479.354v23.694L247.023,476.4" transform="translate(-165.676 -365.249)"/><g transform="translate(42.463 29.99)"><path class="b" d="M205.655,335.424c-1.536-5.79-12.7-10.566-20.407-5.215s-12.505,5.518-15.081,4.02c2.382,6.97,12.688,16.713,22.236,15.8C199.849,349.318,208.135,344.775,205.655,335.424Z" transform="translate(-162.119 -306.305)"/><path class="b" d="M221.453,296.155c-.171-13.206-12.538-23.006-25.7-21.977a23.868,23.868,0,0,0-18.85,11.913c-1.556,2.8-2.37,6.453-3.3,10.222,8.735-4.842,20.151.818,21.17,7.152,1.767,10.971-7.4,15.045-15.563,15.463-5.257.269-10.518-2.58-14.715-6.47-4.651,3.328-10.011,3.415-14.386,2.815,6.988,12.678,19.738,18.691,35.69,17.444s25.068-7.776,32.095-20.005h0C220.216,308.676,221.527,301.854,221.453,296.155ZM209.3,290.327a3,3,0,1,1,2.759-3.226A3,3,0,0,1,209.3,290.327Z" transform="translate(-150.107 -274.104)"/><path class="b" d="M312.635,284.363l6.486-6.187-1.789,8.723,6.187,3.131-6.933,1.491" transform="translate(-247.427 -276.542)"/></g></g></g></svg>