<svg width="155" height="151" viewBox="0 0 155 151" fill="none" xmlns="http://www.w3.org/2000/svg">
<path d="M98.0881 33.9568H56.4541C55.5054 33.9579 54.5958 34.3358 53.9249 35.0074C53.2541 35.6791 52.8767 36.5897 52.8755 37.5396V130.18L52.3983 130.326L42.1849 133.457C41.7008 133.605 41.178 133.555 40.7312 133.317C40.2843 133.079 39.95 132.673 39.8016 132.189L9.42117 32.8365C9.27333 32.3519 9.32372 31.8283 9.56127 31.3809C9.79882 30.9334 10.2041 30.5987 10.688 30.4503L26.427 25.6254L72.0547 11.6427L87.7935 6.81782C88.033 6.74402 88.2847 6.71823 88.5342 6.74193C88.7837 6.76563 89.0261 6.83835 89.2475 6.95594C89.4688 7.07352 89.6649 7.23366 89.8244 7.42719C89.9839 7.62071 90.1037 7.84383 90.1769 8.08377L97.9426 33.479L98.0881 33.9568Z" fill="#F2F2F2"/>
<path d="M107.173 33.4795L97.814 2.87242C97.6583 2.36245 97.4037 1.88819 97.0648 1.47676C96.726 1.06532 96.3095 0.724765 95.8391 0.474553C95.3688 0.22434 94.8537 0.0693705 94.3235 0.0185062C93.7933 -0.0323581 93.2583 0.0218793 92.749 0.178113L70.6211 6.95926L24.9958 20.9443L2.86784 27.7279C1.83989 28.0439 0.979176 28.7553 0.47462 29.7061C-0.0299357 30.6568 -0.13711 31.7691 0.176625 32.7988L32.165 137.401C32.4198 138.233 32.9341 138.96 33.6323 139.477C34.3304 139.995 35.1758 140.274 36.0443 140.275C36.4462 140.275 36.8459 140.215 37.2299 140.096L52.3986 135.448L52.8758 135.299V134.8L52.3986 134.946L37.0892 139.64C36.1819 139.916 35.2018 139.822 34.3641 139.376C33.5264 138.931 32.8994 138.171 32.6207 137.263L0.63479 32.6579C0.496675 32.2081 0.448539 31.7354 0.493135 31.267C0.537731 30.7986 0.67418 30.3435 0.894677 29.928C1.11517 29.5124 1.41539 29.1445 1.77812 28.8452C2.14085 28.546 2.55897 28.3213 3.00855 28.1841L25.1365 21.4006L70.7619 7.41787L92.8899 0.634335C93.2309 0.530145 93.5854 0.477021 93.9419 0.476688C94.707 0.478408 95.4515 0.725376 96.0663 1.18142C96.6811 1.63746 97.1339 2.27861 97.3584 3.01096L106.675 33.4796L106.823 33.9573H107.319L107.173 33.4795Z" fill="#3F3D56"/>
<path d="M29.2669 30.5286C28.8071 30.5282 28.3595 30.3804 27.9897 30.1067C27.62 29.833 27.3476 29.4479 27.2125 29.0078L24.1395 18.9587C24.057 18.6888 24.0283 18.4052 24.0552 18.1242C24.0821 17.8431 24.164 17.5702 24.2963 17.3208C24.4286 17.0715 24.6087 16.8507 24.8262 16.6711C25.0437 16.4915 25.2945 16.3565 25.5641 16.2739L67.539 3.40815C68.0835 3.24179 68.6717 3.29853 69.1745 3.5659C69.6773 3.83328 70.0536 4.28945 70.2208 4.83429L73.2937 14.8835C73.4598 15.4287 73.4031 16.0176 73.136 16.5209C72.869 17.0242 72.4134 17.401 71.8693 17.5685L29.8943 30.4342C29.691 30.4967 29.4796 30.5285 29.2669 30.5286Z" fill="#2D86DA"/>
<path d="M45.3643 10.734C47.9995 10.734 50.1358 8.59517 50.1358 5.95683C50.1358 3.31849 47.9995 1.17969 45.3643 1.17969C42.7291 1.17969 40.5928 3.31849 40.5928 5.95683C40.5928 8.59517 42.7291 10.734 45.3643 10.734Z" fill="#2D86DA"/>
<path d="M45.3642 8.98268C47.033 8.98268 48.3857 7.62833 48.3857 5.95765C48.3857 4.28697 47.033 2.93262 45.3642 2.93262C43.6955 2.93262 42.3428 4.28697 42.3428 5.95765C42.3428 7.62833 43.6955 8.98268 45.3642 8.98268Z" fill="white"/>
<path d="M143.773 139.053H63.1343C62.5967 139.053 62.0813 138.839 61.7011 138.458C61.3209 138.078 61.1071 137.561 61.1064 137.023V40.2861C61.107 39.7479 61.3209 39.2318 61.7011 38.8512C62.0812 38.4706 62.5967 38.2565 63.1343 38.2559H143.773C144.311 38.2565 144.826 38.4706 145.206 38.8512C145.587 39.2318 145.8 39.7479 145.801 40.2861V137.023C145.8 137.561 145.587 138.078 145.206 138.458C144.826 138.839 144.311 139.053 143.773 139.053Z" fill="#E6E6E6"/>
<path d="M106.675 33.4785H56.4542C55.379 33.48 54.3483 33.9083 53.588 34.6695C52.8278 35.4307 52.4 36.4626 52.3984 37.5391V134.945L52.8756 134.799V37.5391C52.8767 36.5892 53.2542 35.6786 53.925 35.0069C54.5959 34.3352 55.5055 33.9574 56.4542 33.9562H106.823L106.675 33.4785ZM150.453 33.4785H56.4542C55.379 33.48 54.3483 33.9083 53.588 34.6695C52.8278 35.4307 52.4 36.4626 52.3984 37.5391V146.936C52.4 148.012 52.8278 149.044 53.588 149.805C54.3483 150.566 55.379 150.995 56.4542 150.996H150.453C151.529 150.995 152.559 150.566 153.32 149.805C154.08 149.044 154.508 148.012 154.509 146.936V37.5391C154.508 36.4626 154.08 35.4307 153.32 34.6695C152.559 33.9083 151.529 33.48 150.453 33.4785ZM154.032 146.936C154.031 147.885 153.653 148.796 152.983 149.468C152.312 150.139 151.402 150.517 150.453 150.518H56.4542C55.5055 150.517 54.5959 150.139 53.925 149.468C53.2542 148.796 52.8767 147.885 52.8756 146.936V37.5391C52.8767 36.5892 53.2542 35.6786 53.925 35.0069C54.5959 34.3352 55.5055 33.9574 56.4542 33.9562H150.453C151.402 33.9574 152.312 34.3352 152.983 35.0069C153.653 35.6786 154.031 36.5892 154.032 37.5391V146.936Z" fill="#3F3D56"/>
<path d="M125.403 43.9878H81.5046C80.9353 43.9872 80.3896 43.7605 79.987 43.3575C79.5845 42.9545 79.3581 42.4081 79.3574 41.8381V31.3284C79.3581 30.7585 79.5845 30.2121 79.987 29.8091C80.3896 29.406 80.9353 29.1794 81.5046 29.1787H125.403C125.972 29.1794 126.518 29.406 126.92 29.8091C127.323 30.2121 127.549 30.7585 127.55 31.3284V41.8381C127.549 42.4081 127.323 42.9545 126.92 43.3575C126.518 43.7605 125.972 43.9872 125.403 43.9878Z" fill="#2D86DA"/>
<path d="M103.454 29.8961C106.089 29.8961 108.225 27.7573 108.225 25.1189C108.225 22.4806 106.089 20.3418 103.454 20.3418C100.818 20.3418 98.6821 22.4806 98.6821 25.1189C98.6821 27.7573 100.818 29.8961 103.454 29.8961Z" fill="#2D86DA"/>
<path d="M103.454 28.0284C105.059 28.0284 106.36 26.7257 106.36 25.1187C106.36 23.5117 105.059 22.209 103.454 22.209C101.849 22.209 100.547 23.5117 100.547 25.1187C100.547 26.7257 101.849 28.0284 103.454 28.0284Z" fill="white"/>
</svg>
