<svg width="21" height="16" viewBox="0 0 21 16" fill="none" xmlns="http://www.w3.org/2000/svg">
<path d="M18.2344 0.865295H1.98438C0.929688 0.865295 0.109375 1.72467 0.109375 2.7403V13.9903C0.109375 15.045 0.929688 15.8653 1.98438 15.8653H18.2344C19.25 15.8653 20.1094 15.045 20.1094 13.9903V2.7403C20.1094 1.72467 19.25 0.865295 18.2344 0.865295ZM18.2344 2.7403V4.34186C17.3359 5.08405 15.9297 6.1778 12.9609 8.52155C12.2969 9.02936 11.0078 10.2794 10.1094 10.2403C9.17188 10.2794 7.88281 9.02936 7.21875 8.52155C4.25 6.1778 2.84375 5.08405 1.98438 4.34186V2.7403H18.2344ZM1.98438 13.9903V6.76373C2.84375 7.46686 4.13281 8.48248 6.04688 10.0059C6.90625 10.67 8.42969 12.1544 10.1094 12.1153C11.75 12.1544 13.2344 10.67 14.1328 10.0059C16.0469 8.48248 17.3359 7.46686 18.2344 6.76373V13.9903H1.98438Z" fill="#2D86DA"/>
</svg>
