<svg xmlns="http://www.w3.org/2000/svg" xmlns:xlink="http://www.w3.org/1999/xlink" width="285.58" height="94.442" viewBox="0 0 285.58 94.442"><defs><style>.a{fill:#f1f2f2;}.b{fill:#fff;}.c{fill:#ffd05d;}.d{fill:#fdc453;}.e{fill:#ffd77f;}.f{fill:#303030;}.g{fill:#695342;}.h{fill:#f06669;}.i{fill:#58595b;}.j{filter:url(#a);}</style><filter id="a" x="0" y="0" width="285.58" height="94.442" filterUnits="userSpaceOnUse"><feOffset input="SourceAlpha"/><feGaussianBlur stdDeviation="1" result="b"/><feFlood flood-opacity="0.161"/><feComposite operator="in" in2="b"/><feComposite in="SourceGraphic"/></filter></defs><g transform="translate(-122.316 -113.58)"><g transform="translate(125.314 116.58)"><g class="j" transform="matrix(1, 0, 0, 1, -3, -3)"><path class="a" d="M406.466,169.97V141.031a22.1,22.1,0,0,0-6.4-15.6,21.466,21.466,0,0,0-15.38-6.488H148.661a21.466,21.466,0,0,0-15.38,6.488,22.1,22.1,0,0,0-6.4,15.6V169.97a22.1,22.1,0,0,0,6.4,15.6,21.464,21.464,0,0,0,15.38,6.489h222.2c5.284,5.514,15.542,11.413,26.427,15.163a2.79,2.79,0,0,0,3.4-3.889,56.175,56.175,0,0,1-4.818-14.434A22.141,22.141,0,0,0,406.466,169.97Z" transform="translate(-123.89 -115.94)"/></g><path class="b" d="M400.61,165.078V136.665a20.144,20.144,0,0,0-20.085-20.085H145.4a20.144,20.144,0,0,0-20.085,20.085v28.413A20.144,20.144,0,0,0,145.4,185.163H370.566A54.438,54.438,0,0,0,393.6,200.135a1.149,1.149,0,0,0,1.437-1.572c-1.579-3.123-4.775-7.809-5.154-15.731A20.136,20.136,0,0,0,400.61,165.078Z" transform="translate(-125.314 -116.58)"/></g><g transform="translate(323.601 128.133)"><circle class="c" cx="22.826" cy="22.826" r="22.826"/><g transform="translate(3.591 3.344)"><path class="d" d="M452.845,138.448a22.829,22.829,0,0,1-31.177,31.75,22.828,22.828,0,1,0,31.177-31.75Z" transform="translate(-421.668 -138.448)"/></g><g transform="translate(1.525 1.686)"><path class="e" d="M420.212,159.563A21.192,21.192,0,0,1,458.2,146.644a21.194,21.194,0,1,0-35.175,23.481A21.1,21.1,0,0,1,420.212,159.563Z" transform="translate(-418.635 -136.014)"/></g><g transform="translate(12.735 14.453)"><g transform="translate(0 0)"><path class="f" d="M438.455,157.592c0,1.566-.753,2.835-1.682,2.835s-1.682-1.269-1.682-2.835.753-2.835,1.682-2.835S438.455,156.026,438.455,157.592Z" transform="translate(-435.091 -154.757)"/></g><g transform="translate(16.818)"><ellipse class="f" cx="1.682" cy="2.835" rx="1.682" ry="2.835"/></g></g><path class="g" d="M427.388,170.217a15.437,15.437,0,0,0,30.676,0Z" transform="translate(-419.9 -145.232)"/><path class="h" d="M434.351,183.073a15.424,15.424,0,0,0,20.828.334l-.142-.332C444.737,178.052,434.491,183,434.351,183.073Z" transform="translate(-422.12 -148.614)"/></g><g transform="translate(161.888 137.163)"><path class="i" d="M202.276,147.549a2.063,2.063,0,0,1,.558,1.495v24.348a2.06,2.06,0,0,1-.558,1.494,1.959,1.959,0,0,1-1.474.578,1.992,1.992,0,0,1-1.475-.559,2.043,2.043,0,0,1-.558-1.514v-10.72h-15.7v10.72a2.061,2.061,0,0,1-.559,1.494,1.957,1.957,0,0,1-1.474.578,1.992,1.992,0,0,1-1.474-.559,2.043,2.043,0,0,1-.558-1.514V149.043a2.06,2.06,0,0,1,.558-1.495,2.17,2.17,0,0,1,2.948,0,2.063,2.063,0,0,1,.559,1.495v10.281h15.7V149.043a2.06,2.06,0,0,1,.558-1.495,2.171,2.171,0,0,1,2.949,0Z" transform="translate(-179.004 -146.852)"/><path class="i" d="M224.117,174.819a1.967,1.967,0,0,1-.538-1.454V149.256a1.965,1.965,0,0,1,.538-1.454,2.015,2.015,0,0,1,1.494-.538h14.665a2.076,2.076,0,0,1,1.415.438,1.562,1.562,0,0,1,.5,1.236,1.5,1.5,0,0,1-.5,1.215,2.144,2.144,0,0,1-1.415.418H227.6v8.846h11.875a2.076,2.076,0,0,1,1.415.439,1.783,1.783,0,0,1,0,2.471,2.072,2.072,0,0,1-1.415.438H227.6v9.285h12.672q1.913,0,1.912,1.634a1.561,1.561,0,0,1-.5,1.235,2.072,2.072,0,0,1-1.415.439H225.611A2.021,2.021,0,0,1,224.117,174.819Z" transform="translate(-193.214 -146.945)"/><path class="i" d="M258.338,174.746a1.842,1.842,0,0,1-.538-1.394V149.043a2.06,2.06,0,0,1,.558-1.495,1.958,1.958,0,0,1,1.474-.578,1.926,1.926,0,0,1,2.072,2.072v22.794h12.114a2.075,2.075,0,0,1,1.415.438,1.88,1.88,0,0,1,0,2.55,2.071,2.071,0,0,1-1.415.439H259.793A2,2,0,0,1,258.338,174.746Z" transform="translate(-204.124 -146.852)"/><path class="i" d="M290.337,174.746a1.842,1.842,0,0,1-.538-1.394V149.043a2.06,2.06,0,0,1,.558-1.495,1.958,1.958,0,0,1,1.474-.578,1.926,1.926,0,0,1,2.072,2.072v22.794h12.114a2.075,2.075,0,0,1,1.415.438,1.88,1.88,0,0,1,0,2.55,2.071,2.071,0,0,1-1.415.439H291.792A2,2,0,0,1,290.337,174.746Z" transform="translate(-214.325 -146.852)"/><path class="i" d="M324.346,173.774a11.682,11.682,0,0,1-4.523-4.981,17.016,17.016,0,0,1-1.594-7.612,17.417,17.417,0,0,1,1.574-7.671,11.38,11.38,0,0,1,4.523-4.981,14.818,14.818,0,0,1,13.908,0,11.382,11.382,0,0,1,4.523,4.981,19.283,19.283,0,0,1,0,15.262,11.494,11.494,0,0,1-4.523,5,13.4,13.4,0,0,1-6.974,1.753A13.208,13.208,0,0,1,324.346,173.774Zm13.489-4.463q2.35-2.869,2.352-8.17t-2.332-8.149a8.042,8.042,0,0,0-6.6-2.849,7.953,7.953,0,0,0-6.515,2.849q-2.331,2.851-2.331,8.149t2.331,8.17a7.926,7.926,0,0,0,6.515,2.869A8.029,8.029,0,0,0,337.835,169.311Z" transform="translate(-223.388 -146.796)"/><path class="i" d="M379.336,174.746a2.445,2.445,0,0,1-.736-1.832,2.514,2.514,0,0,1,.736-1.854,2.466,2.466,0,0,1,1.813-.737,2.4,2.4,0,0,1,1.793.737,2.55,2.55,0,0,1,.717,1.854,2.479,2.479,0,0,1-.717,1.832,2.433,2.433,0,0,1-1.793.718A2.5,2.5,0,0,1,379.336,174.746Zm.976-7.412a1.435,1.435,0,0,1-.4-.956l-1.2-16.9a2.112,2.112,0,0,1,.578-1.813,2.5,2.5,0,0,1,1.853-.7,2.453,2.453,0,0,1,1.813.7,2.113,2.113,0,0,1,.578,1.813l-1.2,16.9a1.512,1.512,0,0,1-.359.975,1.092,1.092,0,0,1-.837.34A1.147,1.147,0,0,1,380.313,167.334Z" transform="translate(-242.634 -146.852)"/></g></g></svg>