<svg width="657" height="873" viewBox="0 0 657 873" fill="none" xmlns="http://www.w3.org/2000/svg">
<rect x="156" y="-9" width="644" height="929" fill="#2D86DA" fill-opacity="0.2"/>
<path d="M212.5 185C227.688 185 240 172.688 240 157.5C240 142.312 227.688 130 212.5 130C197.312 130 185 142.312 185 157.5C185 172.688 197.312 185 212.5 185Z" fill="#2D86DA"/>
<path d="M187.124 162.259C183.935 162.259 180.818 161.313 178.166 159.541C175.514 157.769 173.448 155.25 172.227 152.302C171.007 149.355 170.688 146.112 171.31 142.983C171.932 139.854 173.468 136.98 175.723 134.724C177.978 132.469 180.851 130.932 183.978 130.31C187.106 129.688 190.348 130.007 193.295 131.228C196.241 132.449 198.759 134.516 200.531 137.169C202.303 139.821 203.248 142.94 203.248 146.13C203.243 150.406 201.543 154.506 198.52 157.53C195.497 160.554 191.399 162.255 187.124 162.259ZM187.124 132.688C184.467 132.688 181.869 133.477 179.659 134.954C177.449 136.431 175.727 138.53 174.71 140.986C173.693 143.442 173.427 146.145 173.946 148.752C174.464 151.359 175.744 153.754 177.623 155.634C179.502 157.514 181.896 158.794 184.503 159.313C187.109 159.832 189.811 159.565 192.266 158.548C194.721 157.531 196.82 155.808 198.296 153.597C199.773 151.387 200.561 148.788 200.561 146.13C200.557 142.566 199.14 139.15 196.621 136.63C194.102 134.11 190.686 132.692 187.124 132.688Z" fill="#3F3D56"/>
<path d="M263.975 626L337 511.599L173.458 408L89 540.311L224.27 626H263.975Z" fill="white"/>
<path d="M724.512 691.852H557.896V726.8H724.512V691.852Z" fill="#2D86DA"/>
<path d="M760.791 519.802H516.243V552.061H760.791V519.802Z" fill="white"/>
<path d="M802.695 876H497.182C487.63 875.989 478.472 872.188 471.717 865.431C464.963 858.674 461.163 849.513 461.152 839.957V272.23C461.163 262.674 464.962 253.513 471.717 246.756C478.472 239.999 487.63 236.198 497.182 236.187H802.695C812.247 236.198 821.405 239.999 828.16 246.756C834.914 253.513 838.714 262.674 838.724 272.23V839.957C838.713 849.513 834.914 858.674 828.159 865.431C821.405 872.188 812.247 875.989 802.695 876ZM497.182 238.876C488.342 238.886 479.867 242.403 473.616 248.656C467.366 254.909 463.849 263.387 463.839 272.23V839.957C463.849 848.8 467.366 857.278 473.616 863.531C479.867 869.784 488.342 873.302 497.182 873.312H802.695C811.534 873.302 820.009 869.784 826.26 863.531C832.511 857.278 836.027 848.8 836.037 839.957V272.23C836.027 263.387 832.511 254.909 826.26 248.656C820.009 242.403 811.534 238.886 802.695 238.876H497.182Z" fill="#3F3D56"/>
<path d="M613.659 263.07C612.064 263.07 610.506 262.597 609.18 261.711C607.854 260.825 606.821 259.565 606.211 258.092C605.6 256.618 605.441 254.996 605.752 253.432C606.063 251.868 606.831 250.431 607.958 249.303C609.086 248.175 610.522 247.407 612.086 247.096C613.65 246.784 615.271 246.944 616.744 247.554C618.217 248.165 619.476 249.199 620.362 250.525C621.248 251.851 621.721 253.41 621.721 255.005C621.719 257.144 620.869 259.194 619.357 260.706C617.846 262.218 615.796 263.068 613.659 263.07ZM613.659 249.629C612.596 249.629 611.557 249.944 610.673 250.535C609.789 251.126 609.1 251.965 608.693 252.948C608.287 253.93 608.18 255.011 608.388 256.054C608.595 257.097 609.107 258.055 609.858 258.807C610.61 259.559 611.568 260.071 612.61 260.279C613.653 260.486 614.734 260.38 615.716 259.973C616.698 259.566 617.537 258.877 618.128 257.993C618.718 257.108 619.034 256.069 619.034 255.005C619.032 253.58 618.465 252.213 617.458 251.205C616.45 250.197 615.084 249.63 613.659 249.629Z" fill="#3F3D56"/>
<path d="M692.936 253.661H633.814V256.35H692.936V253.661Z" fill="#3F3D56"/>
<path d="M815.882 839.708H483.995V273.823H815.882V839.708ZM486.682 837.02H813.195V276.512H486.682V837.02Z" fill="#3F3D56"/>
<path d="M549.835 296.674H498.775V315.492H549.835V296.674Z" fill="#3F3D56"/>
<path d="M578.052 475.445H526.992V494.263H578.052V475.445Z" fill="#3F3D56"/>
<path d="M774.228 545.34H526.992V510.393H774.228V545.34ZM529.679 542.652H771.541V513.081H529.679V542.652Z" fill="#3F3D56"/>
<path d="M760.791 621.957H516.243V654.216H760.791V621.957Z" fill="white"/>
<path d="M578.052 577.6H526.992V596.418H578.052V577.6Z" fill="#3F3D56"/>
<path d="M774.228 647.495H526.992V612.548H774.228V647.495ZM529.679 644.807H771.541V615.236H529.679V644.807Z" fill="#3F3D56"/>
<path d="M735.261 718.735H565.958V681.099H735.261V718.735ZM568.646 716.047H732.574V683.787H568.646V716.047Z" fill="#3F3D56"/>
<path d="M400.835 365.639H357.843V408.631H400.835V365.639Z" fill="#D83E7F"/>
<path d="M381.875 386.732H346.94V351.784H381.875V386.732ZM349.627 384.043H379.188V354.472H349.627V384.043Z" fill="#3F3D56"/>
<path d="M224.669 413.166L230.664 416.396L251.064 427.395L283.998 445.145L303.19 409.523C304.998 406.176 306.128 402.506 306.516 398.721C306.903 394.937 306.541 391.113 305.45 387.469C304.359 383.825 302.56 380.431 300.156 377.483C297.752 374.536 294.791 372.091 291.441 370.289C284.284 366.423 276.084 364.929 268.023 366.023C259.962 367.117 252.457 370.742 246.588 376.377L246.578 376.387C243.69 379.162 241.253 382.37 239.355 385.896L224.669 413.166Z" fill="#2F2E41"/>
<path d="M314.557 776.449L310.534 820.723L295.445 822.736L285.386 772.423L314.557 776.449Z" fill="#FFB8B8"/>
<path d="M291.421 822.736C291.421 822.736 310.534 812.674 314.557 820.724C314.557 820.724 311.54 844.874 323.611 847.893C335.681 850.912 340.711 872.043 323.611 874.056C306.51 876.068 295.445 870.031 289.409 870.031C283.374 870.031 289.409 848.899 289.409 848.899L291.421 822.736Z" fill="#2F2E41"/>
<path d="M192.842 776.449L196.866 820.723L211.954 822.736L222.013 772.423L192.842 776.449Z" fill="#FFB8B8"/>
<path d="M215.978 822.736C215.978 822.736 196.865 812.674 192.842 820.724C192.842 820.724 195.859 844.874 183.788 847.893C171.718 850.912 166.688 872.043 183.788 874.056C200.889 876.068 211.954 870.031 217.99 870.031C224.025 870.031 217.99 848.899 217.99 848.899L215.978 822.736Z" fill="#2F2E41"/>
<path d="M275.327 421.236C289.771 421.236 301.48 409.523 301.48 395.073C301.48 380.624 289.771 368.911 275.327 368.911C260.882 368.911 249.173 380.624 249.173 395.073C249.173 409.523 260.882 421.236 275.327 421.236Z" fill="#FFB8B8"/>
<path d="M191.836 446.393L212.96 479.6L238.108 477.587L279.35 480.606C279.35 480.606 283.243 472.818 286.422 465.24C288.162 461.456 289.501 457.5 290.415 453.437C291.421 446.393 277.339 439.349 277.339 439.349C277.339 439.349 276.785 439.249 275.86 439.027C274.633 438.735 272.741 438.252 270.669 437.548C265.992 435.958 260.369 433.261 259.232 429.287C257.22 422.243 272.309 412.18 272.309 412.18L254.202 395.073C254.202 395.073 238.118 417.423 218.583 422.514C217.451 422.814 216.302 423.049 215.143 423.219C215.083 423.229 215.032 423.239 214.972 423.249C193.848 426.268 191.836 446.393 191.836 446.393Z" fill="#FFB8B8"/>
<path d="M202.901 437.337L191.836 446.393C191.836 446.393 182.783 489.662 185.801 501.738C188.818 513.813 184.795 524.882 184.795 526.894C184.795 528.907 175.741 604.377 175.741 604.377C175.741 604.377 157.635 644.627 176.747 640.602C195.86 636.577 188.818 596.327 188.818 596.327L211.954 525.888V466.518L202.901 437.337Z" fill="#FFB8B8"/>
<path d="M282.368 445.387L290.415 451.424L294.439 535.951L324.617 608.402C324.617 608.402 346.747 643.621 332.664 644.627C318.581 645.634 309.528 608.402 309.528 608.402L282.368 538.969L278.344 471.55L282.368 445.387Z" fill="#FFB8B8"/>
<path d="M232.072 451.424C232.072 451.424 252.191 465.512 284.38 460.481C284.38 460.481 293.433 478.593 288.404 488.656C283.374 498.719 294.439 522.869 296.451 525.888C298.463 528.907 321.599 591.295 329.646 658.715C337.693 726.135 359.823 772.423 340.711 778.46C321.599 784.498 282.368 791.542 278.344 785.504C274.321 779.467 268.285 629.533 268.285 629.533L257.22 686.89C257.22 686.89 272.309 784.498 261.244 786.511C250.179 788.523 180.771 782.486 182.783 770.41C184.794 758.335 204.913 694.94 204.913 694.94C204.913 694.94 203.907 568.151 224.025 544.001C224.025 544.001 232.072 530.919 221.007 513.813C209.942 496.706 210.948 469.537 210.948 469.537C210.948 469.537 218.996 469.537 232.072 451.424Z" fill="#2F2E41"/>
<path d="M215.143 423.218L232.073 460.481L236.096 458.469L218.583 422.514L215.143 423.218Z" fill="#2F2E41"/>
<path d="M270.669 437.548L283.374 465.512L286.422 465.24L285.386 460.481L275.86 439.027C274.633 438.735 272.742 438.252 270.669 437.548Z" fill="#2F2E41"/>
<path d="M230.664 416.396C231.631 419.509 233.495 422.267 236.023 424.325C238.55 426.383 241.628 427.649 244.871 427.965C248.115 428.281 251.379 427.633 254.256 426.101C257.132 424.569 259.493 422.223 261.043 419.355C248.318 402.711 259.232 392.256 279.904 384.347C281.461 381.456 282.123 378.167 281.806 374.898C281.489 371.63 280.207 368.53 278.123 365.992C272.425 365.263 266.637 365.817 261.18 367.614C255.724 369.411 250.738 372.405 246.588 376.377L246.578 376.387L231.891 403.637C230.845 405.574 230.198 407.701 229.987 409.892C229.776 412.084 230.006 414.295 230.664 416.396Z" fill="#2F2E41"/>
<path d="M259.735 404.13C261.679 404.13 263.256 401.427 263.256 398.092C263.256 394.758 261.679 392.055 259.735 392.055C257.791 392.055 256.214 394.758 256.214 398.092C256.214 401.427 257.791 404.13 259.735 404.13Z" fill="#FFB8B8"/>
<path d="M270.227 388.241L300.465 401.946L306.007 389.71C305.052 385.238 303.053 381.055 300.173 377.504L279.361 368.075L270.227 388.241Z" fill="#2F2E41"/>
<path d="M342.909 658.249C350.33 658.249 356.345 652.231 356.345 644.807C356.345 637.384 350.33 631.366 342.909 631.366C335.488 631.366 329.472 637.384 329.472 644.807C329.472 652.231 335.488 658.249 342.909 658.249Z" fill="#2D86DA"/>
<path d="M50.4223 738.153C55.2721 738.153 59.2037 734.221 59.2037 729.369C59.2037 724.517 55.2721 720.584 50.4223 720.584C45.5724 720.584 41.6409 724.517 41.6409 729.369C41.6409 734.221 45.5724 738.153 50.4223 738.153Z" fill="#D83E7F"/>
<path d="M94.7884 775.152H92.1011V875.172H94.7884V775.152Z" fill="#3F3D56"/>
<path d="M93.4451 789.296C101.254 789.296 107.584 782.964 107.584 775.152C107.584 767.34 101.254 761.008 93.4451 761.008C85.6363 761.008 79.3059 767.34 79.3059 775.152C79.3059 782.964 85.6363 789.296 93.4451 789.296Z" fill="#3F3D56"/>
<path d="M93.445 836.796C93.445 836.796 91.4251 793.337 50.0173 798.389L93.445 836.796Z" fill="#3F3D56"/>
</svg>
