<svg width="564" height="878" viewBox="0 0 564 878" fill="none" xmlns="http://www.w3.org/2000/svg">
<rect x="63" y="-9" width="644" height="929" fill="#2D86DA" fill-opacity="0.2"/>
<path d="M347 88H294V141H347V88Z" fill="#D83E7F"/>
<path d="M323 114H280V71H323V114ZM283.308 110.692H319.692V74.3077H283.308V110.692Z" fill="#3F3D56"/>
<path d="M451.031 446.096H455.551L474.763 515.795C474.763 515.795 475.14 562.136 470.619 584.741C470.619 584.741 463.085 574.945 457.811 574.945C452.537 574.945 447.64 525.591 447.64 525.591C447.64 525.591 426.921 455.138 451.031 446.096Z" fill="#575A89"/>
<path d="M351.579 579.466C351.579 579.466 363.634 613.374 352.332 615.634C341.031 617.895 335.004 589.262 338.017 585.494C341.031 581.727 351.579 579.466 351.579 579.466Z" fill="#FEB8B8"/>
<path d="M471.845 572.461C471.845 572.461 468.457 608.288 457.258 605.565C446.059 602.841 452.684 574.341 457.007 572.198C461.329 570.056 471.845 572.461 471.845 572.461Z" fill="#FEB8B8"/>
<path d="M442.743 782.158C442.743 782.158 437.469 807.777 446.51 814.559C455.551 821.34 443.496 835.657 443.496 835.657L414.866 805.517C414.866 805.517 426.921 786.679 426.168 775.376L442.743 782.158Z" fill="#FEB8B8"/>
<path d="M397.538 805.517L400.551 825.861L401.305 840.177L384.73 838.67L382.469 809.284L397.538 805.517Z" fill="#FEB8B8"/>
<path d="M461.328 576.052C461.328 576.052 470.619 579.466 469.866 589.262C469.113 599.057 466.852 629.951 466.852 629.951C466.852 629.951 473.633 696.259 466.852 718.864C460.071 741.469 447.263 786.679 447.263 786.679C447.263 786.679 427.674 790.446 423.154 776.13C423.154 776.13 423.907 727.152 432.195 716.603C440.483 706.054 434.455 703.04 433.702 701.533C432.948 700.026 430.688 697.766 430.688 695.505C430.688 693.245 429.935 684.956 429.935 681.942C429.935 678.928 430.688 679.682 429.181 675.161C427.674 670.64 426.168 669.133 426.168 668.379C426.168 667.626 413.359 627.69 413.359 627.69L396.784 720.371C396.784 720.371 400.551 811.545 399.044 811.545C397.537 811.545 380.962 817.573 374.935 811.545C374.935 811.545 359.866 733.18 362.88 728.659C365.894 724.138 366.647 723.385 365.894 718.864C365.14 714.343 363.634 712.082 365.14 709.822C366.647 707.561 368.907 700.026 366.647 697.766C364.387 695.505 363.634 684.956 363.634 684.956C363.634 684.956 350.825 611.113 359.113 600.564C367.401 590.015 461.328 576.052 461.328 576.052Z" fill="#2F2E41"/>
<path d="M435.962 815.312C435.962 815.312 445.003 804.009 448.017 809.284C451.031 814.558 455.551 822.847 455.551 822.847C455.551 822.847 489.455 852.234 470.619 852.987C451.784 853.741 439.729 840.178 439.729 840.178C439.729 840.178 436.715 825.108 427.674 825.108L426.168 828.875L409.592 818.326C409.592 818.326 411.927 798.32 418.67 798.904L435.962 815.312Z" fill="#2F2E41"/>
<path d="M404.318 837.917C404.318 837.917 384.729 830.382 382.469 837.917C380.209 845.452 380.209 849.22 380.209 849.22C380.209 849.22 363.634 876.346 380.209 877.853C396.784 879.36 404.318 868.811 404.318 868.811C404.318 868.811 402.058 856.001 404.318 854.494C406.579 852.987 404.318 837.917 404.318 837.917Z" fill="#2F2E41"/>
<path d="M390.757 421.984C376.193 421.984 364.387 410.177 364.387 395.612C364.387 381.047 376.193 369.239 390.757 369.239C405.32 369.239 417.126 381.047 417.126 395.612C417.126 410.177 405.32 421.984 390.757 421.984Z" fill="#FEB8B8"/>
<path d="M410.346 401.64L415.62 431.026L378.702 440.068C378.702 440.068 387.366 418.594 377.949 409.175C375.566 406.792 410.346 401.64 410.346 401.64Z" fill="#FEB8B8"/>
<path d="M413.373 418.507C414.262 418.675 415.086 419.09 415.751 419.705C416.415 420.32 416.891 421.11 417.126 421.984C417.784 424.149 418.803 426.187 420.14 428.012C420.14 428.012 455.551 444.59 455.551 446.85C455.551 449.111 441.236 497.335 441.236 497.335C441.236 497.335 440.483 527.475 446.51 534.256C452.537 541.038 458.565 565.903 457.058 568.164C455.551 570.424 467.606 575.699 463.085 579.466C458.565 583.234 395.277 619.402 357.606 602.825C357.606 602.825 356.853 596.043 357.606 591.522C358.36 587.001 353.086 571.931 354.592 566.657C356.099 561.382 354.592 507.13 354.592 507.13L346.828 442.889C346.68 441.669 346.966 440.435 347.636 439.405C348.307 438.375 349.319 437.614 350.495 437.257C359.179 434.617 379.317 423.811 382.092 426.129C385.687 429.13 408.112 427.086 413.373 418.507Z" fill="#575A89"/>
<path d="M353.839 437.054L353.791 437.035C352.713 436.603 351.523 436.542 350.407 436.862C349.291 437.181 348.313 437.864 347.627 438.801C342.959 445.19 333.134 459.551 331.99 468.702C330.483 480.758 325.962 513.158 326.716 517.679C327.469 522.2 328.223 522.954 326.716 525.214C325.209 527.475 325.962 526.721 326.716 528.982C327.469 531.242 336.51 593.783 336.51 593.783C336.51 593.783 342.538 580.22 353.839 584.741C353.839 584.741 352.332 572.685 353.839 568.917C355.346 565.15 356.853 562.889 355.346 559.875C353.839 556.861 355.346 527.475 356.099 524.461C356.853 521.447 356.099 505.623 356.099 505.623L362.88 474.73L353.839 437.054Z" fill="#575A89"/>
<path d="M395.682 400.102L394.791 393.892C394.584 392.445 393.737 390.542 392.329 390.935C391.131 391.27 388.522 392.295 388.085 391.986C386.449 390.827 383.973 392.853 382.253 391.824C381.532 391.393 381.062 390.468 380.224 390.407C379.662 390.443 379.133 390.682 378.735 391.081C377.618 392.053 376.303 392.768 374.88 393.176C374.166 393.37 373.414 393.37 372.7 393.176C371.986 392.981 371.338 392.599 370.822 392.07C370.639 391.787 370.393 391.552 370.104 391.382C369.764 391.284 369.401 391.3 369.072 391.429L364.676 392.626C364.03 390.282 363.897 387.826 364.287 385.425C364.677 383.025 365.581 380.738 366.936 378.719C368.719 376.298 370.881 374.181 373.338 372.448C376.06 370.377 378.869 368.429 381.766 366.604C384.936 364.602 388.297 362.712 392.004 362.149C395.711 361.586 399.861 362.594 402.193 365.53C403.29 364.736 404.114 363.623 404.553 362.342C404.814 362.58 405.02 362.872 405.156 363.198C405.292 363.524 405.355 363.877 405.34 364.23C405.326 364.583 405.233 364.928 405.07 365.242C404.907 365.556 404.677 365.83 404.397 366.045L408.114 363.671C409.159 364.768 407.118 366.758 408.008 367.984C408.277 368.287 408.623 368.513 409.009 368.638C411.027 369.424 412.877 370.589 414.46 372.069C416.596 374.211 417.756 377.12 418.752 379.977C420.968 386.333 422.578 393.622 419.43 399.571C419.073 400.246 414.364 411.378 413.736 411.812C411.615 413.28 412.996 409.728 411.476 411.812C410.284 413.446 410.507 407.192 408.736 408.565C408.041 409.062 407.218 409.347 406.365 409.385C405.512 409.423 404.666 409.214 403.929 408.781C403.195 408.272 403.432 405.443 403.828 402.846C403.904 402.351 403.857 401.845 403.692 401.373C403.527 400.9 403.248 400.475 402.881 400.136C402.513 399.796 402.068 399.551 401.584 399.424C401.1 399.296 400.593 399.289 400.105 399.403C397.899 399.922 395.72 400.365 395.682 400.102Z" fill="#2F2E41"/>
<path opacity="0.1" d="M359.374 460.12L352.709 535.386C352.709 535.386 366.793 472.26 359.374 460.12Z" fill="black"/>
<path d="M483.186 746C493.971 761.247 496.82 848.027 497.455 875.843C497.471 876.47 497.488 877.064 497.496 877.626H524.796C525.13 877.032 525.44 876.446 525.733 875.843C541.914 843.899 532.936 805.598 532.464 803.66C533.693 809.749 528.134 827.398 521.85 844.494C518.016 791.929 485.237 748.654 483.186 746Z" fill="#57B894"/>
<rect y="339" width="259" height="359" rx="21" fill="white"/>
<rect x="13" y="355" width="257" height="357" rx="20" stroke="#2F2E41" stroke-width="2"/>
<path d="M89.4488 440.468C79.259 440.468 70.9985 432.206 70.9985 422.016C70.9985 411.825 79.259 403.563 89.4488 403.563C99.6385 403.563 107.899 411.825 107.899 422.016C107.899 432.206 99.6385 440.468 89.4488 440.468Z" fill="#57B894"/>
<path d="M85.7589 449.694H168.785C176.125 449.694 183.164 446.778 188.354 441.587C193.544 436.396 196.46 429.356 196.46 422.016C196.46 414.675 193.544 407.635 188.354 402.444C183.164 397.254 176.125 394.337 168.785 394.337H85.7589C78.419 394.337 71.3797 397.254 66.1896 402.444C60.9995 407.635 58.0837 414.675 58.0837 422.016C58.0837 429.356 60.9995 436.396 66.1896 441.587C71.3797 446.778 78.419 449.694 85.7589 449.694ZM168.785 398.028C175.146 398.028 181.247 400.555 185.745 405.054C190.243 409.552 192.77 415.654 192.77 422.016C192.77 428.378 190.243 434.479 185.745 438.978C181.247 443.476 175.146 446.003 168.785 446.003H85.7589C79.3977 446.003 73.2969 443.476 68.7988 438.978C64.3007 434.479 61.7737 428.378 61.7737 422.016C61.7737 415.654 64.3007 409.552 68.7988 405.054C73.2969 400.555 79.3977 398.028 85.7589 398.028H168.785Z" fill="#3F3D56"/>
<path d="M165.794 542.045C155.605 542.045 147.344 533.784 147.344 523.593C147.344 513.402 155.605 505.141 165.794 505.141C175.984 505.141 184.245 513.402 184.245 523.593C184.245 533.784 175.984 542.045 165.794 542.045Z" fill="#E6E6E6"/>
<path d="M85.7589 551.271H168.785C176.125 551.271 183.164 548.355 188.354 543.165C193.544 537.974 196.46 530.934 196.46 523.593C196.46 516.252 193.544 509.212 188.354 504.022C183.164 498.831 176.125 495.915 168.785 495.915H85.7589C78.419 495.915 71.3797 498.831 66.1896 504.022C60.9995 509.212 58.0837 516.252 58.0837 523.593C58.0837 530.934 60.9995 537.974 66.1896 543.165C71.3797 548.355 78.419 551.271 85.7589 551.271ZM168.785 499.605C175.146 499.605 181.247 502.133 185.745 506.631C190.243 511.13 192.77 517.231 192.77 523.593C192.77 529.955 190.243 536.056 185.745 540.555C181.247 545.054 175.146 547.581 168.785 547.581H85.7589C79.3977 547.581 73.2969 545.054 68.7988 540.555C64.3007 536.056 61.7737 529.955 61.7737 523.593C61.7737 517.231 64.3007 511.13 68.7988 506.631C73.2969 502.133 79.3977 499.605 85.7589 499.605H168.785Z" fill="#E6E6E6"/>
<path d="M165.794 643.623C155.605 643.623 147.344 635.362 147.344 625.171C147.344 614.98 155.605 606.719 165.794 606.719C175.984 606.719 184.245 614.98 184.245 625.171C184.245 635.362 175.984 643.623 165.794 643.623Z" fill="#E6E6E6"/>
<path d="M85.7589 652.849H168.785C176.125 652.849 183.164 649.933 188.354 644.742C193.544 639.551 196.46 632.511 196.46 625.171C196.46 617.83 193.544 610.79 188.354 605.599C183.164 600.409 176.125 597.493 168.785 597.493H85.7589C78.419 597.493 71.3797 600.409 66.1896 605.599C60.9995 610.79 58.0837 617.83 58.0837 625.171C58.0837 632.511 60.9995 639.551 66.1896 644.742C71.3797 649.933 78.419 652.849 85.7589 652.849ZM168.785 601.183C175.146 601.183 181.247 603.71 185.745 608.209C190.243 612.707 192.77 618.809 192.77 625.171C192.77 631.533 190.243 637.634 185.745 642.133C181.247 646.631 175.146 649.158 168.785 649.158H85.7589C82.6091 649.158 79.4902 648.538 76.5802 647.333C73.6702 646.127 71.0261 644.36 68.7988 642.133C66.5716 639.905 64.8049 637.261 63.5995 634.35C62.3941 631.44 61.7737 628.321 61.7737 625.171C61.7737 622.021 62.3941 618.901 63.5995 615.991C64.8049 613.081 66.5716 610.436 68.7988 608.209C71.0261 605.981 73.6702 604.214 76.5802 603.009C79.4902 601.803 82.6091 601.183 85.7589 601.183H168.785Z" fill="#E6E6E6"/>
</svg>
