<svg width="536" height="539" viewBox="0 0 536 539" fill="none" xmlns="http://www.w3.org/2000/svg">
<path d="M451.031 107.096H455.551L474.763 176.795C474.763 176.795 475.14 223.136 470.619 245.741C470.619 245.741 463.085 235.945 457.811 235.945C452.537 235.945 447.64 186.591 447.64 186.591C447.64 186.591 426.921 116.138 451.031 107.096Z" fill="#575A89"/>
<path d="M351.579 240.466C351.579 240.466 363.634 274.374 352.332 276.634C341.031 278.895 335.004 250.262 338.017 246.494C341.031 242.727 351.579 240.466 351.579 240.466Z" fill="#FEB8B8"/>
<path d="M471.845 233.461C471.845 233.461 468.457 269.288 457.258 266.565C446.059 263.841 452.684 235.341 457.007 233.198C461.329 231.056 471.845 233.461 471.845 233.461Z" fill="#FEB8B8"/>
<path d="M442.743 443.158C442.743 443.158 437.469 468.777 446.51 475.559C455.551 482.34 443.496 496.657 443.496 496.657L414.866 466.517C414.866 466.517 426.921 447.679 426.168 436.376L442.743 443.158Z" fill="#FEB8B8"/>
<path d="M397.538 466.517L400.551 486.861L401.305 501.177L384.73 499.67L382.469 470.284L397.538 466.517Z" fill="#FEB8B8"/>
<path d="M461.328 237.052C461.328 237.052 470.619 240.466 469.866 250.262C469.113 260.057 466.852 290.951 466.852 290.951C466.852 290.951 473.633 357.259 466.852 379.864C460.071 402.469 447.263 447.679 447.263 447.679C447.263 447.679 427.674 451.446 423.154 437.13C423.154 437.13 423.907 388.152 432.195 377.603C440.483 367.054 434.455 364.04 433.702 362.533C432.948 361.026 430.688 358.766 430.688 356.505C430.688 354.245 429.935 345.956 429.935 342.942C429.935 339.928 430.688 340.682 429.181 336.161C427.674 331.64 426.168 330.133 426.168 329.379C426.168 328.626 413.359 288.69 413.359 288.69L396.784 381.371C396.784 381.371 400.551 472.545 399.044 472.545C397.537 472.545 380.962 478.573 374.935 472.545C374.935 472.545 359.866 394.18 362.88 389.659C365.894 385.138 366.647 384.385 365.894 379.864C365.14 375.343 363.634 373.082 365.14 370.822C366.647 368.561 368.907 361.026 366.647 358.766C364.387 356.505 363.634 345.956 363.634 345.956C363.634 345.956 350.825 272.113 359.113 261.564C367.401 251.015 461.328 237.052 461.328 237.052Z" fill="#2F2E41"/>
<path d="M435.962 476.312C435.962 476.312 445.003 465.009 448.017 470.284C451.031 475.558 455.551 483.847 455.551 483.847C455.551 483.847 489.455 513.234 470.619 513.987C451.784 514.741 439.729 501.178 439.729 501.178C439.729 501.178 436.715 486.108 427.674 486.108L426.168 489.875L409.592 479.326C409.592 479.326 411.927 459.32 418.67 459.904L435.962 476.312Z" fill="#2F2E41"/>
<path d="M404.318 498.917C404.318 498.917 384.729 491.382 382.469 498.917C380.209 506.452 380.209 510.22 380.209 510.22C380.209 510.22 363.634 537.346 380.209 538.853C396.784 540.36 404.318 529.811 404.318 529.811C404.318 529.811 402.058 517.001 404.318 515.494C406.579 513.987 404.318 498.917 404.318 498.917Z" fill="#2F2E41"/>
<path d="M390.757 82.9844C376.193 82.9844 364.387 71.1771 364.387 56.6119C364.387 42.0468 376.193 30.2394 390.757 30.2394C405.32 30.2394 417.126 42.0468 417.126 56.6119C417.126 71.1771 405.32 82.9844 390.757 82.9844Z" fill="#FEB8B8"/>
<path d="M410.346 62.6399L415.62 92.0265L378.702 101.068C378.702 101.068 387.366 79.5937 377.949 70.175C375.566 67.7922 410.346 62.6399 410.346 62.6399Z" fill="#FEB8B8"/>
<path d="M413.373 79.5071C414.262 79.6746 415.086 80.0899 415.751 80.705C416.415 81.3202 416.891 82.1103 417.126 82.9845C417.784 85.1494 418.803 87.1875 420.14 89.0125C420.14 89.0125 455.551 105.59 455.551 107.85C455.551 110.111 441.236 158.335 441.236 158.335C441.236 158.335 440.483 188.475 446.51 195.256C452.537 202.038 458.565 226.903 457.058 229.164C455.551 231.424 467.606 236.699 463.085 240.466C458.565 244.234 395.277 280.402 357.606 263.825C357.606 263.825 356.853 257.043 357.606 252.522C358.36 248.001 353.086 232.931 354.592 227.657C356.099 222.382 354.592 168.13 354.592 168.13L346.828 103.889C346.68 102.669 346.966 101.435 347.636 100.405C348.307 99.3752 349.319 98.6144 350.495 98.2566C359.179 95.6171 379.317 84.8105 382.092 87.1287C385.687 90.1304 408.112 88.0857 413.373 79.5071Z" fill="#575A89"/>
<path d="M353.839 98.0545L353.791 98.0353C352.713 97.603 351.523 97.5418 350.407 97.8615C349.291 98.1812 348.313 98.8636 347.627 99.8008C342.959 106.19 333.134 120.551 331.99 129.702C330.483 141.758 325.962 174.158 326.716 178.679C327.469 183.2 328.223 183.954 326.716 186.214C325.209 188.475 325.962 187.721 326.716 189.982C327.469 192.242 336.51 254.783 336.51 254.783C336.51 254.783 342.538 241.22 353.839 245.741C353.839 245.741 352.332 233.685 353.839 229.917C355.346 226.15 356.853 223.889 355.346 220.875C353.839 217.861 355.346 188.475 356.099 185.461C356.853 182.447 356.099 166.623 356.099 166.623L362.88 135.73L353.839 98.0545Z" fill="#575A89"/>
<path d="M395.682 61.1018L394.791 54.8921C394.584 53.4447 393.737 51.5417 392.329 51.9353C391.131 52.2701 388.522 53.2953 388.085 52.9859C386.449 51.8269 383.973 53.8535 382.253 52.8239C381.532 52.3925 381.062 51.4683 380.224 51.4067C379.662 51.4426 379.133 51.6825 378.735 52.0814C377.618 53.0526 376.303 53.7675 374.88 54.1759C374.166 54.3702 373.414 54.3701 372.7 54.1756C371.986 53.9811 371.338 53.5992 370.822 53.0696C370.639 52.7874 370.393 52.5518 370.104 52.3815C369.764 52.2836 369.401 52.3002 369.072 52.429L364.676 53.6259C364.03 51.2817 363.897 48.8256 364.287 46.4254C364.677 44.0252 365.581 41.7375 366.936 39.7187C368.719 37.298 370.881 35.1807 373.338 33.4482C376.06 31.3772 378.869 29.4292 381.766 27.6043C384.936 25.6016 388.297 23.7124 392.004 23.1494C395.711 22.5865 399.861 23.5936 402.193 26.53C403.29 25.7362 404.114 24.6225 404.553 23.3417C404.814 23.5796 405.02 23.872 405.156 24.1982C405.292 24.5244 405.355 24.8765 405.34 25.2297C405.326 25.5828 405.233 25.9284 405.07 26.2421C404.907 26.5557 404.677 26.8297 404.397 27.0448L408.114 24.6707C409.159 25.768 407.118 27.7579 408.008 28.9841C408.277 29.2874 408.623 29.513 409.009 29.6376C411.027 30.4244 412.877 31.5889 414.46 33.0687C416.596 35.2114 417.756 38.1199 418.752 40.9773C420.968 47.333 422.578 54.6219 419.43 60.5712C419.073 61.2457 414.364 72.3782 413.736 72.8123C411.615 74.2797 412.996 70.7283 411.476 72.8123C410.284 74.4465 410.507 68.1919 408.736 69.5648C408.041 70.0617 407.218 70.3466 406.365 70.385C405.512 70.4234 404.666 70.2135 403.929 69.7809C403.195 69.2716 403.432 66.4432 403.828 63.8458C403.904 63.351 403.857 62.8452 403.692 62.3727C403.527 61.9003 403.248 61.4755 402.881 61.1357C402.513 60.7959 402.068 60.5514 401.584 60.4237C401.1 60.2959 400.593 60.2889 400.105 60.4031C397.899 60.922 395.72 61.3655 395.682 61.1018Z" fill="#2F2E41"/>
<path opacity="0.1" d="M359.374 121.12L352.709 196.386C352.709 196.386 366.793 133.26 359.374 121.12Z" fill="black"/>
<path d="M483.186 407C493.971 422.247 496.82 509.027 497.455 536.843C497.471 537.47 497.488 538.064 497.496 538.626H524.796C525.13 538.032 525.44 537.446 525.733 536.843C541.914 504.899 532.936 466.598 532.464 464.66C533.693 470.749 528.134 488.398 521.85 505.494C518.016 452.929 485.237 409.654 483.186 407Z" fill="#57B894"/>
<rect width="259" height="359" rx="21" fill="white"/>
<rect x="13" y="16" width="257" height="357" rx="20" stroke="#2F2E41" stroke-width="2"/>
<path d="M89.4488 101.468C79.259 101.468 70.9985 93.2064 70.9985 83.0156C70.9985 72.8248 79.259 64.5635 89.4488 64.5635C99.6385 64.5635 107.899 72.8248 107.899 83.0156C107.899 93.2064 99.6385 101.468 89.4488 101.468Z" fill="#57B894"/>
<path d="M85.7589 110.694H168.785C176.125 110.694 183.164 107.778 188.354 102.587C193.544 97.3964 196.46 90.3563 196.46 83.0156C196.46 75.6749 193.544 68.6348 188.354 63.4442C183.164 58.2535 176.125 55.3374 168.785 55.3374H85.7589C78.419 55.3374 71.3797 58.2535 66.1896 63.4442C60.9995 68.6348 58.0837 75.6749 58.0837 83.0156C58.0837 90.3563 60.9995 97.3964 66.1896 102.587C71.3797 107.778 78.419 110.694 85.7589 110.694ZM168.785 59.0278C175.146 59.0278 181.247 61.5551 185.745 66.0537C190.243 70.5523 192.77 76.6537 192.77 83.0156C192.77 89.3776 190.243 95.4789 185.745 99.9775C181.247 104.476 175.146 107.003 168.785 107.003H85.7589C79.3977 107.003 73.2969 104.476 68.7988 99.9775C64.3007 95.4789 61.7737 89.3776 61.7737 83.0156C61.7737 76.6537 64.3007 70.5523 68.7988 66.0537C73.2969 61.5551 79.3977 59.0278 85.7589 59.0278H168.785Z" fill="#3F3D56"/>
<path d="M165.794 203.045C155.605 203.045 147.344 194.784 147.344 184.593C147.344 174.402 155.605 166.141 165.794 166.141C175.984 166.141 184.245 174.402 184.245 184.593C184.245 194.784 175.984 203.045 165.794 203.045Z" fill="#E6E6E6"/>
<path d="M85.7589 212.271H168.785C176.125 212.271 183.164 209.355 188.354 204.165C193.544 198.974 196.46 191.934 196.46 184.593C196.46 177.252 193.544 170.212 188.354 165.022C183.164 159.831 176.125 156.915 168.785 156.915H85.7589C78.419 156.915 71.3797 159.831 66.1896 165.022C60.9995 170.212 58.0837 177.252 58.0837 184.593C58.0837 191.934 60.9995 198.974 66.1896 204.165C71.3797 209.355 78.419 212.271 85.7589 212.271ZM168.785 160.605C175.146 160.605 181.247 163.133 185.745 167.631C190.243 172.13 192.77 178.231 192.77 184.593C192.77 190.955 190.243 197.056 185.745 201.555C181.247 206.054 175.146 208.581 168.785 208.581H85.7589C79.3977 208.581 73.2969 206.054 68.7988 201.555C64.3007 197.056 61.7737 190.955 61.7737 184.593C61.7737 178.231 64.3007 172.13 68.7988 167.631C73.2969 163.133 79.3977 160.605 85.7589 160.605H168.785Z" fill="#E6E6E6"/>
<path d="M165.794 304.623C155.605 304.623 147.344 296.362 147.344 286.171C147.344 275.98 155.605 267.719 165.794 267.719C175.984 267.719 184.245 275.98 184.245 286.171C184.245 296.362 175.984 304.623 165.794 304.623Z" fill="#E6E6E6"/>
<path d="M85.7589 313.849H168.785C176.125 313.849 183.164 310.933 188.354 305.742C193.544 300.551 196.46 293.511 196.46 286.171C196.46 278.83 193.544 271.79 188.354 266.599C183.164 261.409 176.125 258.493 168.785 258.493H85.7589C78.419 258.493 71.3797 261.409 66.1896 266.599C60.9995 271.79 58.0837 278.83 58.0837 286.171C58.0837 293.511 60.9995 300.551 66.1896 305.742C71.3797 310.933 78.419 313.849 85.7589 313.849ZM168.785 262.183C175.146 262.183 181.247 264.71 185.745 269.209C190.243 273.707 192.77 279.809 192.77 286.171C192.77 292.533 190.243 298.634 185.745 303.133C181.247 307.631 175.146 310.158 168.785 310.158H85.7589C82.6091 310.158 79.4902 309.538 76.5802 308.333C73.6702 307.127 71.0261 305.36 68.7988 303.133C66.5716 300.905 64.8049 298.261 63.5995 295.35C62.3941 292.44 61.7737 289.321 61.7737 286.171C61.7737 283.021 62.3941 279.901 63.5995 276.991C64.8049 274.081 66.5716 271.436 68.7988 269.209C71.0261 266.981 73.6702 265.214 76.5802 264.009C79.4902 262.803 82.6091 262.183 85.7589 262.183H168.785Z" fill="#E6E6E6"/>
</svg>
