<svg width="617" height="876" viewBox="0 0 617 876" fill="none" xmlns="http://www.w3.org/2000/svg">
<rect x="116" y="-9" width="644" height="929" fill="#2D86DA" fill-opacity="0.2"/>
<path d="M303.5 226C318.688 226 331 213.688 331 198.5C331 183.312 318.688 171 303.5 171C288.312 171 276 183.312 276 198.5C276 213.688 288.312 226 303.5 226Z" fill="#2D86DA"/>
<path d="M278.124 203.259C274.935 203.259 271.818 202.313 269.166 200.541C266.514 198.769 264.448 196.25 263.227 193.302C262.007 190.355 261.688 187.112 262.31 183.983C262.932 180.854 264.468 177.98 266.723 175.724C268.978 173.469 271.851 171.932 274.978 171.31C278.106 170.688 281.348 171.007 284.295 172.228C287.241 173.449 289.759 175.516 291.531 178.169C293.303 180.821 294.248 183.94 294.248 187.13C294.243 191.406 292.543 195.506 289.52 198.53C286.497 201.554 282.399 203.255 278.124 203.259ZM278.124 173.688C275.467 173.688 272.869 174.477 270.659 175.954C268.449 177.431 266.727 179.53 265.71 181.986C264.693 184.442 264.427 187.145 264.946 189.752C265.464 192.359 266.744 194.754 268.623 196.634C270.502 198.514 272.896 199.794 275.503 200.313C278.109 200.832 280.811 200.565 283.266 199.548C285.721 198.531 287.82 196.808 289.296 194.597C290.773 192.387 291.561 189.788 291.561 187.13C291.557 183.566 290.14 180.15 287.621 177.63C285.102 175.11 281.686 173.692 278.124 173.688Z" fill="#3F3D56"/>
<path d="M240.202 618L320 493.103L141.29 380L49 524.45L196.815 618H240.202Z" fill="white"/>
<path d="M684.512 691.852H517.896V726.8H684.512V691.852Z" fill="#2D86DA"/>
<path d="M720.791 519.802H476.243V552.061H720.791V519.802Z" fill="white"/>
<path d="M762.695 876H457.182C447.63 875.989 438.472 872.188 431.717 865.431C424.963 858.674 421.163 849.513 421.152 839.958V272.23C421.163 262.674 424.962 253.513 431.717 246.756C438.472 239.999 447.63 236.198 457.182 236.188H762.695C772.247 236.198 781.405 239.999 788.16 246.756C794.914 253.513 798.714 262.674 798.724 272.23V839.958C798.713 849.513 794.914 858.674 788.159 865.431C781.405 872.188 772.247 875.989 762.695 876ZM457.182 238.876C448.342 238.886 439.867 242.403 433.616 248.656C427.366 254.909 423.849 263.387 423.839 272.23V839.958C423.849 848.801 427.366 857.279 433.616 863.531C439.867 869.784 448.342 873.302 457.182 873.312H762.695C771.534 873.302 780.009 869.784 786.26 863.531C792.511 857.279 796.027 848.801 796.037 839.958V272.23C796.027 263.387 792.511 254.909 786.26 248.656C780.009 242.403 771.534 238.886 762.695 238.876H457.182Z" fill="#3F3D56"/>
<path d="M573.659 263.07C572.064 263.07 570.506 262.597 569.18 261.711C567.854 260.825 566.821 259.565 566.211 258.092C565.6 256.618 565.441 254.996 565.752 253.432C566.063 251.867 566.831 250.43 567.958 249.303C569.086 248.175 570.522 247.407 572.086 247.095C573.65 246.784 575.271 246.944 576.744 247.554C578.217 248.165 579.476 249.198 580.362 250.525C581.248 251.851 581.721 253.41 581.721 255.005C581.719 257.144 580.869 259.193 579.357 260.705C577.846 262.217 575.796 263.068 573.659 263.07ZM573.659 249.629C572.596 249.629 571.557 249.944 570.673 250.535C569.789 251.126 569.1 251.965 568.693 252.948C568.287 253.93 568.18 255.011 568.388 256.054C568.595 257.097 569.107 258.055 569.858 258.807C570.61 259.559 571.568 260.071 572.61 260.279C573.653 260.486 574.734 260.38 575.716 259.973C576.698 259.566 577.537 258.877 578.128 257.992C578.718 257.108 579.034 256.069 579.034 255.005C579.032 253.58 578.465 252.213 577.458 251.205C576.45 250.197 575.084 249.63 573.659 249.629Z" fill="#3F3D56"/>
<path d="M652.936 253.661H593.814V256.349H652.936V253.661Z" fill="#3F3D56"/>
<path d="M775.882 839.708H443.995V273.823H775.882V839.708ZM446.682 837.02H773.195V276.512H446.682V837.02Z" fill="#3F3D56"/>
<path d="M509.835 296.674H458.775V315.492H509.835V296.674Z" fill="#3F3D56"/>
<path d="M538.052 475.445H486.992V494.263H538.052V475.445Z" fill="#3F3D56"/>
<path d="M734.228 545.34H486.992V510.393H734.228V545.34ZM489.679 542.652H731.541V513.081H489.679V542.652Z" fill="#3F3D56"/>
<path d="M720.791 621.957H476.243V654.216H720.791V621.957Z" fill="white"/>
<path d="M538.052 577.6H486.992V596.418H538.052V577.6Z" fill="#3F3D56"/>
<path d="M734.228 647.495H486.992V612.548H734.228V647.495ZM489.679 644.807H731.541V615.236H489.679V644.807Z" fill="#3F3D56"/>
<path d="M695.261 718.735H525.958V681.099H695.261V718.735ZM528.646 716.047H692.574V683.787H528.646V716.047Z" fill="#3F3D56"/>
<path d="M316.516 840.097L316.516 840.099C316.516 840.099 316.201 840.273 315.664 840.546C315.953 840.396 316.237 840.247 316.516 840.097Z" fill="url(#paint0_linear)"/>
<path d="M197.251 735.301C189.748 756.871 198.503 791.885 202.568 807.514C206.629 823.147 207.881 841.904 207.881 841.904C223.824 844.403 235.392 841.276 235.392 841.276L228.827 809.08C233.516 790.009 228.827 739.053 228.827 739.053C228.827 739.053 239.453 719.358 240.391 689.348C241.314 659.806 248.597 650.259 248.826 649.964L248.831 649.959C263.836 657.776 282.907 741.557 282.907 741.557C281.345 761.875 283.221 793.137 289.472 810.018C293.263 820.74 294.857 832.115 294.161 843.465C296.346 845.313 299.384 845.627 302.667 845.097C311.595 843.653 322.296 835.963 322.296 835.963C322.296 835.963 318.858 744.679 316.354 741.242C313.855 737.805 316.354 718.111 316.354 718.111L312.294 686.225C312.294 686.225 312.917 632.14 306.976 622.762C301.851 614.664 300.669 600.433 300.439 596.695C300.407 596.104 300.393 595.776 300.393 595.776L291.347 584.94C291.347 584.94 203.815 578.375 197.251 584.94C195.637 586.553 194.643 590.215 194.053 594.829C192.247 609.009 194.315 632.14 194.315 632.14C194.315 632.14 196.941 649.335 200.692 666.84C202.947 677.349 202.947 688.217 200.692 698.726C201.926 711.026 200.757 723.448 197.251 735.301Z" fill="#575A89"/>
<path d="M202.723 872.383C206.629 877.541 229.605 875.351 233.516 873.743C235.903 872.758 235.725 868.266 235.078 863.638C234.67 860.693 234.069 857.692 233.826 855.502C233.202 849.875 235.701 838.462 235.701 838.462C235.701 838.462 230.543 843.934 229.296 838.462C228.748 836.07 226.824 834.844 224.834 834.221C222.155 833.413 219.275 833.594 216.718 834.73C212.658 836.49 205.882 840.247 207.098 845.327C208.818 852.506 202.723 862.691 202.723 862.691C202.249 863.287 201.865 863.949 201.583 864.656C201.046 865.924 200.868 867.316 201.069 868.679C201.27 870.042 201.842 871.324 202.723 872.383Z" fill="#CBCEDA"/>
<path opacity="0.1" d="M202.723 872.383C206.629 877.541 229.606 875.352 233.516 873.743C235.903 872.759 235.725 868.266 235.078 863.638C232.611 864.793 228.415 865.752 221.42 865.105C219.787 864.952 218.146 864.902 216.507 864.954C211.531 865.178 206.546 865.078 201.583 864.656C201.046 865.924 200.868 867.316 201.069 868.679C201.27 870.042 201.842 871.324 202.723 872.383Z" fill="black"/>
<path opacity="0.1" d="M282.907 741.557C281.345 761.875 283.221 793.137 289.471 810.018C293.262 820.739 294.857 832.114 294.161 843.465C296.346 845.313 299.384 845.627 302.667 845.097C300.782 831.911 292.744 775.103 287.596 730.223C281.734 679.111 254.303 643.943 254.303 643.943L248.831 649.959C263.836 657.776 282.907 741.557 282.907 741.557Z" fill="black"/>
<path d="M212.101 413.003L215.918 431.76L234.609 463.177L257.665 453.33C257.665 453.33 289.002 420.506 269.308 415.817C266.949 415.312 264.721 414.32 262.767 412.905C258.903 409.988 257.684 405.749 257.665 401.599C257.818 396.947 258.907 392.373 260.868 388.151L220.541 375.49C222.206 380.788 223.178 386.28 223.434 391.827C223.744 402.809 219.664 408.22 216.316 410.799C215.071 411.805 213.638 412.554 212.101 413.003Z" fill="#FBBEBE"/>
<path opacity="0.1" d="M220.541 375.49C222.206 380.788 223.178 386.28 223.434 391.827C224.169 392.701 224.952 393.534 225.779 394.322C229.943 398.299 235.105 401.075 240.719 402.356C246.332 403.637 252.188 403.376 257.665 401.599C257.818 396.947 258.907 392.373 260.868 388.151L220.541 375.49Z" fill="black"/>
<path d="M215.918 370.332C215.918 376.639 217.788 382.803 221.292 388.046C224.796 393.29 229.775 397.376 235.602 399.789C241.428 402.202 247.839 402.834 254.024 401.603C260.209 400.373 265.89 397.336 270.349 392.877C274.808 388.418 277.845 382.737 279.075 376.552C280.305 370.367 279.674 363.956 277.261 358.13C274.848 352.304 270.761 347.324 265.518 343.82C260.275 340.317 254.11 338.446 247.804 338.446C243.612 338.431 239.459 339.245 235.583 340.842C231.708 342.439 228.186 344.787 225.222 347.751C222.258 350.715 219.91 354.236 218.313 358.112C216.716 361.987 215.902 366.141 215.918 370.332Z" fill="#FBBEBE"/>
<path opacity="0.1" d="M212.101 413.003L215.918 431.76L234.609 463.177L257.665 453.33C257.665 453.33 289.002 420.506 269.308 415.817C266.949 415.312 264.721 414.32 262.767 412.905C266.326 422.677 251.644 443.014 251.644 443.014C249.937 445.527 246.017 443.952 246.017 443.952C236.564 442.522 219.153 415.325 216.316 410.8C215.071 411.806 213.638 412.555 212.101 413.003Z" fill="black"/>
<path opacity="0.1" d="M194.052 594.829C199.6 596.09 230.314 602.894 241.957 601.192C254.772 599.317 279.69 598.069 279.69 598.069C279.69 598.069 295.558 598.927 300.439 596.695C300.407 596.104 300.393 595.776 300.393 595.776L291.347 584.94C291.347 584.94 203.815 578.375 197.251 584.94C195.637 586.553 194.643 590.215 194.052 594.829Z" fill="black"/>
<path d="M251.646 443.952C251.646 443.952 268.139 421.102 261.924 412.207L289.784 423.632C289.784 423.632 306.553 421.599 312.604 446.624C313.574 450.784 313.923 455.064 313.64 459.326C313.42 463.099 313.933 469.742 318.231 478.339C325.109 492.093 323.546 523.667 309.478 526.793C295.411 529.919 290.409 528.356 290.409 528.356C290.409 528.356 292.285 585.563 300.413 592.128C308.541 598.693 279.69 597.13 279.69 597.13C279.69 597.13 254.772 598.38 241.955 600.256C229.138 602.132 193.188 593.691 193.188 593.691C193.188 593.691 198.502 569.62 200.378 554.302C202.254 538.985 206.63 506.367 206.63 506.367L174.744 463.177C174.744 463.177 169.117 437.074 188.811 425.508C208.506 413.941 215.917 411.097 215.917 411.097C215.917 411.097 235.703 443.326 246.019 444.889C246.019 444.889 249.938 446.464 251.646 443.952Z" fill="#3F3D56"/>
<path opacity="0.1" d="M288.221 453.017C288.221 453.017 288.534 463.333 286.658 467.397C284.782 471.461 277.905 493.969 277.905 493.969H293.535C293.535 493.969 285.095 484.903 285.72 480.527C286.345 476.15 288.221 453.017 288.221 453.017Z" fill="black"/>
<path d="M241.955 530.857C241.955 530.857 276.472 522.416 279.69 515.226C282.907 508.036 291.774 491.947 291.774 491.947L288.13 487.039L271.34 500.221C271.34 500.221 251.333 516.164 241.955 517.727C232.577 519.29 241.955 530.857 241.955 530.857Z" fill="#FBBEBE"/>
<path opacity="0.05" d="M241.955 530.857C241.955 530.857 276.472 522.416 279.69 515.226C282.907 508.036 291.774 491.947 291.774 491.947L288.13 487.039L271.34 500.221C271.34 500.221 251.333 516.164 241.955 517.727C232.577 519.29 241.955 530.857 241.955 530.857Z" fill="black"/>
<path d="M212.101 490.219V508.948H215.111C229.984 508.947 244.613 512.733 257.618 519.948L263.259 523.081L264.779 523.925L274.466 502.097L265.402 493.971C265.402 493.971 265.238 493.989 264.938 494.013C262.72 494.228 253.131 495.03 249.065 493.656C245.206 492.348 240.409 488.189 229.038 491.096C223.439 492.526 218.656 498.805 213.222 496.845L212.101 490.219Z" fill="#FBBEBE"/>
<path opacity="0.1" d="M181.934 456.143L175.682 463.177V480.214C175.682 480.214 180.996 533.983 197.877 539.922C214.758 545.862 244.893 536.484 244.893 536.484C244.893 536.484 252.675 515.852 249.035 514.601C245.394 513.351 216.855 505.813 216.855 505.813C216.855 505.813 217.259 474.275 211.007 464.896C211.007 464.896 215.071 435.511 201.003 434.886C186.936 434.261 181.934 456.143 181.934 456.143Z" fill="black"/>
<path d="M180.996 456.143L174.744 463.177V480.214C174.744 480.214 180.058 533.983 196.939 539.922C213.82 545.862 243.955 536.484 243.955 536.484C243.955 536.484 251.738 515.852 248.097 514.601C244.456 513.351 215.917 505.813 215.917 505.813C215.917 505.813 216.321 474.275 210.069 464.896C210.069 464.896 214.133 435.511 200.065 434.886C185.998 434.261 180.996 456.143 180.996 456.143Z" fill="#3F3D56"/>
<path opacity="0.1" d="M224.663 383.884C224.391 381.827 224.636 379.735 225.376 377.797C226.257 375.931 228.321 374.459 230.332 374.932C233.01 375.556 234.163 379.04 236.784 379.875C238.993 380.578 241.408 379.012 242.463 376.944C243.518 374.881 243.546 372.461 243.551 370.145C243.556 367.533 243.562 364.921 243.57 362.309C243.574 359.468 243.659 356.396 245.412 354.164C247.593 351.384 252.713 350.169 256.132 350.282C258.409 350.306 260.593 351.187 262.251 352.748C264.085 354.305 266.199 355.449 268.694 355.041C269.732 354.884 270.704 354.435 271.499 353.748C272.293 353.061 272.876 352.163 273.181 351.159C273.191 351.126 273.199 351.093 273.205 351.06C270.545 347.554 267.189 344.636 263.346 342.49C259.504 340.344 255.258 339.018 250.878 338.593C246.498 338.168 242.077 338.655 237.894 340.023C233.71 341.39 229.856 343.609 226.572 346.539C223.289 349.47 220.647 353.048 218.814 357.049C216.981 361.051 215.997 365.388 215.922 369.788C215.848 374.189 216.685 378.557 218.381 382.618C220.078 386.679 222.597 390.344 225.779 393.384C225.231 390.24 224.859 387.069 224.663 383.884Z" fill="black"/>
<path d="M268.695 354.104C269.733 353.945 270.705 353.497 271.5 352.81C272.294 352.123 272.878 351.225 273.184 350.22C273.446 349.211 273.377 348.134 273.674 347.135C274.404 344.679 277.026 343.398 278.784 341.534C282.307 337.797 282.078 331.648 279.584 327.159C277.572 323.535 273.668 320.476 269.584 321.184C267.056 321.623 264.868 323.425 262.307 323.587C259.842 323.743 257.585 322.362 255.337 321.337C249.917 318.884 243.825 318.344 238.057 319.803C236.284 320.156 234.64 320.985 233.302 322.201C232.393 323.343 231.547 324.533 230.766 325.766C227.85 329.48 222.634 330.205 217.988 331.048C213.343 331.891 208.084 333.725 206.557 338.193C205.545 341.155 206.527 344.373 207.109 347.449C207.301 348.08 207.256 348.759 206.985 349.36C206.26 350.559 204.446 350.057 203.075 350.345C200.439 350.898 199.761 354.294 199.664 356.986C199.553 360.066 199.47 363.148 199.413 366.23C199.338 367.381 199.43 368.536 199.686 369.661C200.26 371.266 201.166 372.732 202.345 373.963L212.667 386.364C217.244 391.863 222.105 398.271 221.182 405.366C223.352 406.339 225.928 404.466 226.639 402.197C227.351 399.928 226.776 397.484 226.294 395.156C225.461 391.13 224.916 387.05 224.662 382.947C224.39 380.891 224.636 378.799 225.378 376.861C226.257 374.993 228.323 373.523 230.334 373.993C233.011 374.619 234.164 378.102 236.784 378.937C238.992 379.641 241.41 378.072 242.463 376.007C243.517 373.942 243.545 371.525 243.55 369.207L243.569 361.371C243.575 358.532 243.659 355.458 245.412 353.224C247.592 350.445 252.715 349.231 256.134 349.342C258.41 349.368 260.593 350.249 262.251 351.809C264.085 353.367 266.198 354.511 268.695 354.104Z" fill="#3F3D56"/>
<path opacity="0.1" d="M261.493 452.236L251.703 492.451C251.703 492.451 243.987 492.406 261.493 452.236Z" fill="black"/>
<path opacity="0.1" d="M228.044 445.515C228.044 445.515 240.861 466.505 235.859 488.209L233.471 488.383C233.471 488.383 237.735 478.339 228.044 445.515Z" fill="black"/>
<path opacity="0.1" d="M219.916 564.306C219.916 564.306 204.178 559.101 203.035 571.183C203.035 571.183 206.005 562.899 219.916 564.306Z" fill="black"/>
<path opacity="0.1" d="M265.401 494.907C265.401 494.907 268.527 516.789 262.9 525.542C262.9 525.542 274.346 530.232 290.409 529.294L292.285 494.907L265.401 494.907Z" fill="black"/>
<path opacity="0.1" d="M263.259 523.081L264.779 523.925L274.466 502.097L265.402 493.97H264.933C264.934 493.985 264.935 493.999 264.938 494.013C265.079 495.021 267.606 513.815 263.259 523.081Z" fill="black"/>
<path d="M265.401 493.969C265.401 493.969 268.527 515.852 262.9 524.605C262.9 524.605 274.346 529.294 290.409 528.356L301.351 493.969H265.401Z" fill="#3F3D56"/>
<path d="M290.439 867.072C290.621 868.631 291.317 870.085 292.415 871.206C293.514 872.327 294.955 873.051 296.51 873.265C305 874.533 325.447 870.767 330.611 873.224C337.176 876.351 363.121 874.162 364.373 871.039C364.55 870.413 364.601 869.759 364.523 869.113C364.446 868.468 364.242 867.844 363.923 867.278C363.035 865.372 361.568 863.795 359.731 862.772C359.133 862.432 358.504 862.152 357.851 861.937C352.965 860.305 343.732 856.845 341.242 853.22C341.242 853.22 329.737 843.153 326.453 837.709C325.837 836.639 324.965 835.737 323.917 835.085C322.869 834.432 321.675 834.047 320.443 833.966C317.705 833.843 314.654 835.221 313.407 841.22C313.407 841.22 298.411 849.778 294.35 842.275C294.35 842.275 293.727 860.801 291.237 863.952C291.232 863.957 291.227 863.967 291.223 863.971C290.894 864.411 290.656 864.911 290.521 865.443C290.387 865.975 290.359 866.529 290.439 867.072Z" fill="#CBCEDA"/>
<path opacity="0.1" d="M290.439 867.072C290.621 868.631 291.317 870.086 292.415 871.207C293.514 872.328 294.955 873.052 296.51 873.265C305 874.533 325.447 870.767 330.611 873.224C337.176 876.352 363.121 874.162 364.373 871.039C364.55 870.413 364.601 869.759 364.523 869.114C364.446 868.468 364.242 867.844 363.923 867.278C363.035 865.372 361.568 863.795 359.731 862.772C355.501 865.576 346.109 868.324 325.453 865.098C305.75 862.022 295.996 866.007 291.237 863.953C291.232 863.957 291.227 863.967 291.223 863.971C290.894 864.411 290.656 864.911 290.521 865.443C290.387 865.976 290.359 866.529 290.439 867.072Z" fill="black"/>
<g opacity="0.1">
<path opacity="0.1" d="M207.138 347.888C207.129 347.838 207.12 347.788 207.111 347.738C206.668 345.396 205.995 342.971 206.146 340.64C206.347 342.555 206.669 344.457 207.111 346.332C207.24 346.842 207.25 347.375 207.138 347.888Z" fill="black"/>
<path opacity="0.1" d="M225.38 377.15C224.886 378.277 224.625 379.492 224.612 380.723C224.471 379.026 224.734 377.319 225.38 375.744C226.259 373.875 228.325 372.405 230.336 372.876C233.013 373.502 234.165 376.984 236.786 377.819C238.994 378.523 241.412 376.955 242.465 374.89C243.519 372.824 243.547 370.407 243.552 368.089C243.558 365.477 243.565 362.865 243.571 360.253C243.577 357.414 243.661 354.341 245.413 352.107C247.594 349.327 252.717 348.113 256.136 348.224C258.412 348.251 260.595 349.131 262.253 350.692C264.087 352.249 266.2 353.393 268.697 352.986C269.735 352.828 270.707 352.379 271.502 351.692C272.296 351.005 272.88 350.107 273.186 349.103C273.448 348.093 273.379 347.017 273.677 346.017C274.406 343.561 277.028 342.28 278.786 340.416C280.427 338.6 281.362 336.256 281.423 333.809C281.552 335.254 281.384 336.71 280.931 338.088C280.478 339.466 279.748 340.737 278.786 341.823C277.028 343.687 274.406 344.968 273.677 347.424C273.379 348.423 273.448 349.5 273.186 350.509C272.88 351.514 272.296 352.412 271.502 353.099C270.707 353.786 269.735 354.235 268.697 354.393C266.2 354.8 264.087 353.656 262.253 352.098C260.595 350.538 258.412 349.657 256.136 349.631C252.717 349.52 247.594 350.734 245.413 353.513C243.661 355.747 243.577 358.821 243.571 361.66C243.565 364.272 243.558 366.884 243.552 369.496C243.547 371.814 243.519 374.231 242.465 376.296C241.412 378.362 238.994 379.93 236.786 379.226C234.165 378.391 233.013 374.909 230.336 374.282C228.325 373.812 226.259 375.282 225.38 377.15Z" fill="black"/>
<path opacity="0.1" d="M199.688 368.543C200.262 370.148 201.168 371.614 202.347 372.846C205.787 376.979 209.228 381.113 212.669 385.247C217.015 390.467 221.612 396.509 221.277 403.178C220.963 397.064 216.707 391.504 212.669 386.653C209.228 382.52 205.788 378.386 202.347 374.252C201.168 373.021 200.262 371.555 199.688 369.95C199.432 368.826 199.34 367.671 199.415 366.521C199.425 367.203 199.516 367.882 199.688 368.543Z" fill="black"/>
<path opacity="0.1" d="M226.641 401.08C226.809 400.536 226.912 399.975 226.95 399.407C227.039 400.444 226.935 401.488 226.641 402.487C225.93 404.755 223.354 406.628 221.184 405.655C221.243 405.201 221.279 404.744 221.291 404.287C223.438 405.154 225.941 403.312 226.641 401.08Z" fill="black"/>
</g>
<path opacity="0.1" d="M328.515 840.539C328.515 840.539 325.249 846.287 313.407 841.221L328.515 840.539Z" fill="black"/>
<path opacity="0.1" d="M230.415 840.923C230.415 840.923 220.201 852.946 207.333 844.866L230.415 840.923Z" fill="black"/>
<path opacity="0.1" d="M200.692 698.726C200.692 698.726 207.907 703.233 208.142 705.812C208.376 708.391 204.417 703.937 204.417 703.937L200.692 698.726Z" fill="black"/>
<path opacity="0.1" d="M197.845 733.291C200.354 735.381 203.474 736.598 206.735 736.761C212.127 736.995 211.679 744.029 208.152 741.919C204.625 739.809 197.845 733.291 197.845 733.291Z" fill="black"/>
<path opacity="0.1" d="M196.472 737.802C196.472 737.802 199.936 754.814 202.749 751.531L196.472 737.802Z" fill="black"/>
<path d="M13.7085 753.348C16.7378 754.449 19.9814 754.832 23.1838 754.466C26.3862 754.1 29.4597 752.995 32.1622 751.238C34.8647 749.481 37.1222 747.121 38.7569 744.343C40.3915 741.565 41.3586 738.445 41.5819 735.23C41.8051 732.014 41.2785 728.791 40.0435 725.814C38.8085 722.836 36.8988 720.187 34.4651 718.073C32.0313 715.96 29.14 714.441 26.019 713.636C22.8979 712.83 19.6325 712.761 16.4801 713.433L17.001 724.145L11.9329 714.965C6.95879 717.302 3.11608 721.518 1.24922 726.687C0.586225 728.498 0.183176 730.393 0.0520935 732.317C-0.267839 736.831 0.892248 741.326 3.35656 745.121C5.82087 748.916 9.45509 751.804 13.7085 753.348Z" fill="#57B894"/>
<path d="M38.7858 877.592C36.9967 868.481 44.7491 860.405 52.4066 855.155C60.0642 849.905 69.0116 844.747 71.6244 835.838C75.3794 823.034 64.1944 811.309 55.4887 801.197C49.03 793.692 43.4834 785.449 38.9651 776.639C37.1541 773.107 35.4896 769.414 35.0129 765.473C34.3265 759.798 36.1499 754.15 37.9868 748.736C44.1063 730.702 50.6491 712.818 57.6153 695.086" stroke="#3F3D56" stroke-miterlimit="10"/>
<path d="M14.5654 750.59C17.5947 751.692 20.8384 752.074 24.0408 751.708C27.2431 751.342 30.3167 750.237 33.0192 748.48C35.7216 746.724 37.9792 744.363 39.6138 741.585C41.2485 738.807 42.2155 735.687 42.4388 732.472C42.6621 729.256 42.1354 726.033 40.9004 723.056C39.6654 720.079 37.7558 717.429 35.322 715.315C32.8883 713.202 29.9969 711.683 26.8759 710.878C23.7549 710.072 20.4894 710.003 17.337 710.675L17.858 721.387L12.7898 712.207C7.81572 714.544 3.97302 718.76 2.10615 723.929C1.44316 725.74 1.04011 727.636 0.909026 729.559C0.589097 734.073 1.74919 738.568 4.2135 742.363C6.67781 746.158 10.312 749.046 14.5654 750.59V750.59Z" stroke="#3F3D56" stroke-miterlimit="10"/>
<path d="M36.2419 691.387C37.4307 688.107 39.426 685.178 42.0439 682.872C44.6618 680.566 47.818 678.955 51.2218 678.189L52.9355 688.373L56.1125 677.677C60.5236 677.743 64.7998 679.208 68.3237 681.862C71.8476 684.517 74.4369 688.222 75.7176 692.443C76.9984 696.665 76.9044 701.184 75.4492 705.349C73.994 709.514 71.2529 713.108 67.6217 715.614C63.9905 718.119 59.6571 719.406 55.247 719.287C50.837 719.169 46.5786 717.653 43.0866 714.957C39.5946 712.261 37.0498 708.525 35.8195 704.288C34.5892 700.052 34.7371 695.534 36.2419 691.387H36.2419Z" fill="#57B894"/>
<path d="M37.3848 687.71C38.5736 684.429 40.5688 681.501 43.1867 679.195C45.8046 676.888 48.9609 675.278 52.3647 674.512L54.0783 684.696L57.2553 674C61.6664 674.065 65.9426 675.531 69.4665 678.185C72.9904 680.839 75.5797 684.545 76.8605 688.766C78.1412 692.988 78.0472 697.507 76.592 701.672C75.1369 705.837 72.3958 709.431 68.7646 711.936C65.1334 714.442 60.7999 715.728 56.3899 715.61C51.9798 715.492 47.7214 713.976 44.2294 711.28C40.7375 708.584 38.1926 704.848 36.9623 700.611C35.732 696.375 35.8799 691.857 37.3847 687.71H37.3848Z" stroke="#3F3D56" stroke-miterlimit="10"/>
<path d="M51.8353 801.403C56.6394 803.146 61.9168 803.06 66.6616 801.161C71.4064 799.263 75.2867 795.685 77.563 791.11C79.8393 786.534 80.3525 781.281 79.0046 776.351C77.6567 771.422 74.542 767.161 70.2543 764.38L67.8131 772.6L66.0821 762.296C66.065 762.288 66.0472 762.281 66.0291 762.276C63.4595 761.342 60.7311 760.923 57.9998 761.044C55.2685 761.165 52.5877 761.823 50.1108 762.981C47.6338 764.138 45.4092 765.772 43.564 767.789C41.7188 769.807 40.2892 772.168 39.3568 774.738C38.4245 777.308 38.0077 780.037 38.1303 782.768C38.2529 785.499 38.9124 788.18 40.0713 790.656C41.2301 793.132 42.8655 795.356 44.884 797.2C46.9025 799.044 49.2646 800.472 51.8353 801.403H51.8353Z" fill="#57B894"/>
<path d="M52.8256 797.678C57.6297 799.421 62.9071 799.335 67.6519 797.437C72.3966 795.538 76.277 791.96 78.5533 787.385C80.8296 782.809 81.3427 777.556 79.9948 772.627C78.6469 767.697 75.5323 763.436 71.2446 760.656L68.8034 768.875L67.0723 758.571C67.0552 758.563 67.0375 758.556 67.0193 758.551C64.4498 757.617 61.7214 757.199 58.99 757.32C56.2587 757.441 53.578 758.099 51.101 759.256C48.6241 760.413 46.3994 762.047 44.5542 764.065C42.709 766.082 41.2794 768.443 40.3471 771.014C39.4147 773.584 38.998 776.312 39.1205 779.044C39.2431 781.775 39.9027 784.455 41.0615 786.931C42.2203 789.408 43.8557 791.631 45.8742 793.475C47.8927 795.319 50.2548 796.748 52.8255 797.678H52.8256Z" stroke="#3F3D56" stroke-miterlimit="10"/>
<path d="M30.1683 835.966C30.9944 840.666 33.4114 844.939 37.0141 848.069C40.6168 851.198 45.186 852.994 49.9556 853.155C54.7251 853.315 59.4048 851.831 63.2099 848.951C67.015 846.071 69.714 841.97 70.8544 837.336C71.9947 832.702 71.507 827.817 69.4731 823.5C67.4392 819.182 63.9827 815.696 59.6833 813.625C55.384 811.554 50.5032 811.024 45.8596 812.124C41.2159 813.225 37.0918 815.888 34.1789 819.668L43.4516 833.625L30.7816 826.217C29.7993 829.37 29.5889 832.714 30.1683 835.966Z" fill="#57B894"/>
<path d="M31.0255 833.208C31.8515 837.908 34.2686 842.181 37.8713 845.311C41.474 848.44 46.0432 850.236 50.8127 850.397C55.5822 850.557 60.262 849.073 64.067 846.193C67.8721 843.313 70.5712 839.212 71.7116 834.578C72.8519 829.944 72.3643 825.059 70.3303 820.742C68.2964 816.425 64.8399 812.938 60.5405 810.867C56.2412 808.796 51.3604 808.266 46.7168 809.366C42.0731 810.467 37.949 813.13 35.0361 816.91L44.3088 830.867L31.6388 823.459C30.6564 826.613 30.4461 829.956 31.0255 833.208V833.208Z" stroke="#3F3D56" stroke-miterlimit="10"/>
<defs>
<linearGradient id="paint0_linear" x1="316.09" y1="840.546" x2="316.09" y2="840.097" gradientUnits="userSpaceOnUse">
<stop stop-color="#808080" stop-opacity="0.25"/>
<stop offset="0.53514" stop-color="#808080" stop-opacity="0.12"/>
<stop offset="1" stop-color="#808080" stop-opacity="0.1"/>
</linearGradient>
</defs>
</svg>
