<svg width="19" height="21" viewBox="0 0 19 21" fill="none" xmlns="http://www.w3.org/2000/svg">
<path d="M11.2305 17.0083H12.168C12.4023 17.0083 12.6367 16.813 12.6367 16.5396V8.10205C12.6367 7.86768 12.4023 7.6333 12.168 7.6333H11.2305C10.957 7.6333 10.7617 7.86768 10.7617 8.10205V16.5396C10.7617 16.813 10.957 17.0083 11.2305 17.0083ZM17.6367 3.8833H14.3945L13.0664 1.6958C12.7539 1.18799 12.0508 0.758301 11.4648 0.758301H7.51953C6.93359 0.758301 6.23047 1.18799 5.91797 1.6958L4.58984 3.8833H1.38672C1.03516 3.8833 0.761719 4.1958 0.761719 4.5083V5.1333C0.761719 5.48486 1.03516 5.7583 1.38672 5.7583H2.01172V18.8833C2.01172 19.938 2.83203 20.7583 3.88672 20.7583H15.1367C16.1523 20.7583 17.0117 19.938 17.0117 18.8833V5.7583H17.6367C17.9492 5.7583 18.2617 5.48486 18.2617 5.1333V4.5083C18.2617 4.1958 17.9492 3.8833 17.6367 3.8833ZM7.44141 2.75049C7.48047 2.71143 7.59766 2.6333 7.63672 2.6333H7.67578H11.3477C11.3867 2.6333 11.5039 2.71143 11.543 2.75049L12.207 3.8833H6.77734L7.44141 2.75049ZM15.1367 18.8833H3.88672V5.7583H15.1367V18.8833ZM6.85547 17.0083H7.79297C8.02734 17.0083 8.26172 16.813 8.26172 16.5396V8.10205C8.26172 7.86768 8.02734 7.6333 7.79297 7.6333H6.85547C6.58203 7.6333 6.38672 7.86768 6.38672 8.10205V16.5396C6.38672 16.813 6.58203 17.0083 6.85547 17.0083Z" fill="#2D86DA"/>
</svg>
