<svg width="469" height="263" viewBox="0 0 469 263" fill="none" xmlns="http://www.w3.org/2000/svg">
<path d="M385.447 4.93321e-09H122.069C121.066 0.00087556 120.104 0.39979 119.395 1.10917C118.685 1.81855 118.286 2.78042 118.286 3.78361V98.9857H182.026C183.751 98.9878 185.405 99.6742 186.625 100.894C187.846 102.114 188.532 103.769 188.534 105.494V186.039H385.447C385.994 186.039 386.534 185.92 387.031 185.691C387.528 185.462 387.969 185.128 388.324 184.711C388.354 184.679 388.381 184.644 388.406 184.607C388.632 184.331 388.815 184.022 388.948 183.692C389.139 183.237 389.236 182.749 389.235 182.255V3.78361C389.233 2.77972 388.834 1.81733 388.124 1.10788C387.413 0.398426 386.451 -5.11942e-05 385.447 4.93321e-09Z" fill="#F2F2F2"/>
<path d="M388.691 15.1652H118.824V16.2468H388.691V15.1652Z" fill="#CCCCCC"/>
<path d="M128.018 11.3583C129.81 11.3583 131.263 9.90553 131.263 8.11343C131.263 6.32132 129.81 4.86853 128.018 4.86853C126.226 4.86853 124.773 6.32132 124.773 8.11343C124.773 9.90553 126.226 11.3583 128.018 11.3583Z" fill="#CCCCCC"/>
<path d="M137.346 11.3583C139.139 11.3583 140.591 9.90553 140.591 8.11343C140.591 6.32132 139.139 4.86853 137.346 4.86853C135.554 4.86853 134.102 6.32132 134.102 8.11343C134.102 9.90553 135.554 11.3583 137.346 11.3583Z" fill="#CCCCCC"/>
<path d="M146.675 11.3583C148.467 11.3583 149.92 9.90553 149.92 8.11343C149.92 6.32132 148.467 4.86853 146.675 4.86853C144.883 4.86853 143.43 6.32132 143.43 8.11343C143.43 9.90553 144.883 11.3583 146.675 11.3583Z" fill="#CCCCCC"/>
<path d="M321.446 38.7817H186.069C184.573 38.7817 183.138 39.376 182.081 40.4339C181.023 41.4917 180.428 42.9264 180.428 44.4224C180.428 45.9184 181.023 47.3532 182.081 48.411C183.138 49.4689 184.573 50.0631 186.069 50.0631H321.446C322.942 50.0631 324.377 49.4689 325.435 48.411C326.492 47.3532 327.087 45.9184 327.087 44.4224C327.087 42.9264 326.492 41.4917 325.435 40.4339C324.377 39.376 322.942 38.7817 321.446 38.7817ZM321.446 49.1953H186.069C184.803 49.1953 183.589 48.6925 182.694 47.7974C181.799 46.9023 181.296 45.6883 181.296 44.4224C181.296 43.1566 181.799 41.9426 182.694 41.0475C183.589 40.1524 184.803 39.6495 186.069 39.6495H321.446C322.712 39.6495 323.926 40.1524 324.821 41.0475C325.716 41.9426 326.219 43.1566 326.219 44.4224C326.219 45.6883 325.716 46.9023 324.821 47.7974C323.926 48.6925 322.712 49.1953 321.446 49.1953Z" fill="#CCCCCC"/>
<path d="M362.87 83.7211H227.493C225.997 83.7211 224.563 84.3154 223.505 85.3732C222.447 86.431 221.853 87.8658 221.853 89.3618C221.853 90.8578 222.447 92.2925 223.505 93.3503C224.563 94.4082 225.997 95.0025 227.493 95.0025H362.87C364.366 95.0025 365.801 94.4082 366.859 93.3503C367.917 92.2925 368.511 90.8578 368.511 89.3618C368.511 87.8658 367.917 86.431 366.859 85.3732C365.801 84.3154 364.366 83.7211 362.87 83.7211Z" fill="white"/>
<path d="M362.87 104.548H227.493C225.997 104.548 224.563 105.143 223.505 106.201C222.447 107.258 221.853 108.693 221.853 110.189C221.853 111.685 222.447 113.12 223.505 114.178C224.563 115.236 225.997 115.83 227.493 115.83H362.87C364.366 115.83 365.801 115.236 366.859 114.178C367.917 113.12 368.511 111.685 368.511 110.189C368.511 108.693 367.917 107.258 366.859 106.201C365.801 105.143 364.366 104.548 362.87 104.548Z" fill="white"/>
<path d="M362.87 125.376H227.493C225.997 125.376 224.563 125.97 223.505 127.028C222.447 128.086 221.853 129.52 221.853 131.016C221.853 132.512 222.447 133.947 223.505 135.005C224.563 136.063 225.997 136.657 227.493 136.657H362.87C364.366 136.657 365.801 136.063 366.859 135.005C367.917 133.947 368.511 132.512 368.511 131.016C368.511 129.52 367.917 128.086 366.859 127.028C365.801 125.97 364.366 125.376 362.87 125.376Z" fill="white"/>
<path d="M205.616 74.3921H143.993C142.672 74.3937 141.404 74.9194 140.47 75.854C139.535 76.7887 139.009 78.0558 139.008 79.3776V98.9856H139.876V79.3776C139.877 78.286 140.312 77.2396 141.084 76.4677C141.855 75.6959 142.902 75.2615 143.993 75.2599H205.616C206.708 75.2608 207.755 75.695 208.527 76.467C209.299 77.239 209.733 78.2858 209.734 79.3776V141C209.733 142.092 209.299 143.139 208.527 143.911C207.755 144.683 206.708 145.117 205.616 145.118H188.533V145.986H205.616C206.938 145.985 208.205 145.459 209.14 144.524C210.075 143.59 210.601 142.322 210.601 141V79.3776C210.601 78.0556 210.075 76.788 209.14 75.8533C208.206 74.9185 206.938 74.3929 205.616 74.3921Z" fill="#CCCCCC"/>
<path d="M45.8299 137.793C45.612 137.801 36.3231 137.157 36.0859 137.149L36.9204 128.82L42.2111 128.66L52.3209 109.935C50.9188 107.262 52.6442 103.714 55.6187 103.167C61.6125 101.805 63.6716 111.235 57.6594 112.489L49.2972 135.371C49.0348 136.079 48.5622 136.691 47.9426 137.124C47.3229 137.557 46.5858 137.79 45.8299 137.793Z" fill="#FFB8B8"/>
<path d="M21.3409 142.083C12.5016 142.105 11.7257 128.746 20.5845 127.805C44.0101 126.389 41.0457 120.506 42.8246 137.86C42.8793 138.375 42.7275 138.891 42.4025 139.294C42.0776 139.697 41.606 139.954 41.0914 140.01L22.1081 142.042C21.8533 142.069 21.5972 142.083 21.3409 142.083Z" fill="#2D86DA"/>
<path d="M19.3243 99.8471C31.5015 106.776 21.5046 125.059 9.10041 118.549C-3.07641 111.62 6.92048 93.3369 19.3243 99.8471Z" fill="#FFB8B8"/>
<path d="M30.3944 257.226L35.7136 257.225L38.2445 236.707L30.3936 236.708L30.3944 257.226Z" fill="#FFB8B8"/>
<path d="M29.2542 262.166L45.9727 262.165C45.9088 253.539 34.7268 256.024 29.2539 255.706L29.2542 262.166Z" fill="#2F2E41"/>
<path d="M7.39735 257.226L12.7165 257.225L15.2475 236.707L7.39648 236.708L7.39735 257.226Z" fill="#FFB8B8"/>
<path d="M6.25737 262.166L22.9759 262.165C22.912 253.539 11.73 256.024 6.25708 255.706L6.25737 262.166Z" fill="#2F2E41"/>
<path d="M13.4435 250.06C12.1579 249.707 5.17173 250.774 4.34724 249.374C1.46788 220.514 2.10792 192.271 8.49955 176.752L30.4758 175.406C35.3901 184.377 46.6864 243.908 39.8723 247.528L31.1099 247.84C30.6103 247.856 30.1202 247.7 29.722 247.398C29.3239 247.096 29.0419 246.666 28.9234 246.18L21.5927 204.475C19.7672 201.923 16.1788 248.396 15.5862 248.222C15.509 248.734 15.25 249.202 14.8567 249.539C14.4633 249.877 13.9618 250.062 13.4435 250.06Z" fill="#2F2E41"/>
<path d="M7.80092 180.399C-3.2946 168.791 3.78283 137.669 3.42463 138.331C3.45503 137.569 5.96815 125.828 12.4691 123.901C17.6267 122.199 23.3353 127.291 24.0395 132.44L31.7656 178.066C31.8056 178.315 31.7866 178.569 31.7102 178.809C31.6338 179.048 31.5021 179.267 31.3258 179.446C31.7057 180.629 8.34409 180.162 7.80092 180.399Z" fill="#2D86DA"/>
<path d="M11.402 108.012C12.3764 107.396 12.8567 106.339 13.4239 105.377C16.4115 103.674 19.8459 107.793 23.0059 106.256C31.941 97.6783 22.7567 95.1477 14.5273 94.6954C12.5832 94.4558 10.9295 95.1454 9.45969 96.2844C-6.97892 95.0289 0.904806 116.887 11.2796 119.774C13.1113 120.576 14.4854 118.953 12.87 117.476C10.6351 115.133 7.86645 110.417 11.402 108.012Z" fill="#2F2E41"/>
<rect x="57" y="96" width="133" height="163" rx="6" fill="white"/>
<path d="M29.6385 161.293C25.7201 161.737 23.9998 152.618 22.5017 150.295L30.3053 147.265L32.8446 151.909L54.1179 152.438C54.2443 152.266 54.3823 152.104 54.5311 151.952C58.75 147.534 65.6205 154.153 61.4176 158.561C60.9539 159.053 60.391 159.442 59.7661 159.702C59.1412 159.961 58.4684 160.085 57.7921 160.065C57.1158 160.046 56.4513 159.883 55.8424 159.588C55.2336 159.293 54.6941 158.872 54.2597 158.354C53.7343 158.391 30.1523 161.306 29.6385 161.293Z" fill="#FFB8B8"/>
<path d="M23.8589 156.94C22.5542 158.197 12.5381 140.55 11.8064 140.051C6.74522 132.185 18.6601 124.418 23.8085 132.242L34.2208 148.244C34.5026 148.678 34.6007 149.206 34.4936 149.713C34.3864 150.219 34.0828 150.662 33.6492 150.945C33.1747 151.167 24.1938 157.418 23.8589 156.94Z" fill="#2D86DA"/>
<path d="M158.594 202.037H86.567C79.2094 202.001 79.1788 190.794 86.5674 190.755H158.594C165.947 190.79 165.987 201.998 158.594 202.037Z" fill="#CCCCCC"/>
<path d="M158.594 222.864H86.567C79.2094 222.829 79.1788 211.621 86.5674 211.583H158.594C165.947 211.617 165.987 222.826 158.594 222.864Z" fill="#CCCCCC"/>
<path d="M158.594 243.691H86.567C79.2094 243.656 79.1788 232.448 86.5674 232.41H158.594C165.947 232.444 165.987 243.653 158.594 243.691Z" fill="#CCCCCC"/>
<path d="M185.497 112.003C183.265 112.003 181.084 111.341 179.229 110.101C177.374 108.862 175.928 107.1 175.074 105.038C174.22 102.977 173.997 100.709 174.432 98.5203C174.867 96.332 175.942 94.3218 177.52 92.7441C179.097 91.1663 181.107 90.0919 183.296 89.6566C185.484 89.2213 187.753 89.4447 189.814 90.2986C191.875 91.1524 193.637 92.5984 194.877 94.4536C196.116 96.3088 196.778 98.49 196.778 100.721C196.775 103.712 195.585 106.58 193.47 108.695C191.355 110.81 188.488 111.999 185.497 112.003Z" fill="#D83E7F"/>
<path d="M190.703 100.287H185.93V94.8636C185.93 94.7485 185.884 94.6381 185.803 94.5568C185.721 94.4754 185.611 94.4297 185.496 94.4297C185.381 94.4297 185.27 94.4754 185.189 94.5568C185.108 94.6381 185.062 94.7485 185.062 94.8636V100.287H180.289C180.174 100.287 180.064 100.333 179.982 100.414C179.901 100.496 179.855 100.606 179.855 100.721C179.855 100.836 179.901 100.947 179.982 101.028C180.064 101.109 180.174 101.155 180.289 101.155H185.062V106.579C185.062 106.694 185.108 106.804 185.189 106.886C185.27 106.967 185.381 107.013 185.496 107.013C185.611 107.013 185.721 106.967 185.803 106.886C185.884 106.804 185.93 106.694 185.93 106.579V101.155H190.703C190.818 101.155 190.928 101.109 191.01 101.028C191.091 100.947 191.137 100.836 191.137 100.721C191.137 100.606 191.091 100.496 191.01 100.414C190.928 100.333 190.818 100.287 190.703 100.287Z" fill="white"/>
<path d="M157.293 177.218H87.8688C85.9707 177.216 84.1509 176.461 82.8088 175.119C81.4666 173.777 80.7116 171.957 80.7095 170.059V131.181C80.7116 129.283 81.4666 127.463 82.8088 126.121C84.1509 124.779 85.9707 124.024 87.8688 124.022H157.293C159.191 124.024 161.011 124.779 162.353 126.121C163.695 127.463 164.45 129.283 164.452 131.181V170.059C164.45 171.957 163.695 173.777 162.353 175.119C161.011 176.461 159.191 177.216 157.293 177.218Z" fill="#2D86DA"/>
<path d="M453.759 117.884C451.086 120.804 447.772 122.978 444.175 124.665H444.17C443.832 124.826 443.493 124.982 443.15 125.13H443.146L443.142 125.134L443.137 125.13H443.133C443.133 125.13 443.133 125.131 443.133 125.131C443.133 125.132 443.132 125.132 443.132 125.133C443.132 125.133 443.131 125.134 443.131 125.134C443.13 125.134 443.129 125.134 443.129 125.134H443.124L443.12 125.13C443.116 125.134 443.116 125.134 443.111 125.13L443.107 125.134L443.103 125.13H443.099C443.094 125.134 443.094 125.134 443.09 125.13H443.085C440.678 126.171 438.205 127.055 435.683 127.776C420.852 131.984 405.264 132.798 390.076 130.159C389.785 130.107 389.499 130.054 389.208 130.002V94.8088C389.494 94.6873 389.785 94.5658 390.076 94.4486C391.972 93.6633 393.891 92.9415 395.834 92.2835C398.628 91.3289 401.461 90.5103 404.334 89.8276C413.705 87.5594 423.374 86.7775 432.988 87.5106C434.737 87.6407 436.481 87.8288 438.221 88.0746C441.862 88.5823 445.68 89.4675 449.039 91.0035H449.043C449.533 91.2334 450.015 91.4721 450.492 91.7281C453.477 93.3465 455.994 95.5725 457.53 98.6228C458.082 99.7183 458.479 100.885 458.71 102.09V102.098C458.797 102.515 458.858 102.936 458.905 103.352C459.452 108.49 457.322 113.987 453.759 117.884Z" fill="#75A48B"/>
<path d="M458.905 103.352C458.863 103.363 458.819 103.368 458.775 103.369C451.343 103.695 443.92 104.178 436.507 104.819H436.494C436.464 104.823 436.438 104.823 436.408 104.827C428.797 105.487 421.202 106.313 413.624 107.305C413.303 107.348 412.986 107.392 412.669 107.431C407.428 108.129 402.196 108.904 396.975 109.756C394.671 110.134 392.371 110.527 390.076 110.937C389.785 110.989 389.499 111.036 389.208 111.093V109.778C389.499 109.722 389.789 109.674 390.076 109.622C397.721 108.268 405.393 107.086 413.09 106.077C415.025 105.817 416.963 105.571 418.904 105.339C424.51 104.662 430.125 104.078 435.748 103.586C436.16 103.552 436.568 103.517 436.98 103.482C444.179 102.87 451.387 102.406 458.606 102.089C458.641 102.088 458.676 102.091 458.71 102.098C459.405 102.159 459.552 103.2 458.905 103.352Z" fill="white"/>
<path d="M443.47 123.851C434.211 123.919 425.089 119.993 418.539 113.494C416.691 111.653 415.063 109.604 413.687 107.389C413.245 106.681 412.212 107.462 412.65 108.164C417.737 116.321 426.209 122.132 435.551 124.269C438.203 124.87 440.917 125.16 443.637 125.134C444.467 125.128 444.295 123.845 443.47 123.851V123.851Z" fill="white"/>
<path d="M404.334 89.8274C404.294 89.9494 404.223 90.0588 404.128 90.1448C404.033 90.2309 403.917 90.2905 403.791 90.3177C401.669 90.8737 399.619 91.6746 397.682 92.7041C394.853 94.1981 392.285 96.1395 390.076 98.4533C389.959 98.5705 389.846 98.6876 389.737 98.8091C389.555 99 389.382 99.1953 389.208 99.3949V97.5031C389.486 97.208 389.776 96.9173 390.076 96.6396C391.82 94.9696 393.752 93.5077 395.834 92.2833C398.628 91.3287 401.461 90.5101 404.334 89.8274Z" fill="white"/>
<path d="M449.806 90.6615C443.916 93.1931 438.988 97.5383 435.738 103.065C435.673 103.223 435.672 103.401 435.736 103.559C435.801 103.718 435.925 103.845 436.082 103.913C436.241 103.975 436.417 103.974 436.575 103.91C436.733 103.846 436.86 103.724 436.93 103.569C440.032 98.349 444.711 94.2492 450.293 91.8605C451.059 91.5333 450.574 90.3337 449.806 90.6616L449.806 90.6615Z" fill="white"/>
<path d="M467.562 53.8092C466.555 57.6362 464.624 61.1031 462.225 64.2662L462.22 64.2706C461.999 64.5656 461.769 64.865 461.531 65.1514V65.1557C459.865 67.2081 458.066 69.1489 456.146 70.9657C449.244 77.543 441.448 83.1128 432.989 87.5103C419.681 94.4613 404.807 98.5704 390.076 98.8047C389.963 98.809 389.85 98.809 389.737 98.809C389.559 98.8134 389.382 98.8134 389.208 98.8134V79.0926C389.49 78.5546 389.781 78.0165 390.076 77.4828C393.904 70.5945 398.572 64.2078 403.974 58.4693C404.104 58.3261 404.238 58.183 404.373 58.0441C406.403 55.9006 408.532 53.8599 410.76 51.9218C419.329 44.3876 429.231 38.5231 439.957 34.6308C443.415 33.3899 447.207 32.3963 450.896 32.201C451.438 32.1706 451.976 32.1576 452.518 32.1619C455.916 32.2097 459.174 33.0124 461.956 34.9997C462.952 35.715 463.845 36.5632 464.611 37.5206C464.88 37.8547 465.128 38.1975 465.366 38.549V38.5533C468.239 42.8489 468.907 48.7022 467.562 53.8092Z" fill="#75A48B"/>
<path d="M465.366 38.5493V38.5537C465.334 38.5817 465.299 38.6064 465.262 38.6274C458.84 42.3633 452.5 46.2351 446.24 50.2429C446.231 50.2473 446.227 50.2516 446.218 50.2559C446.193 50.2734 446.167 50.2894 446.14 50.3037C439.705 54.4257 433.362 58.6866 427.109 63.0864C426.849 63.2686 426.584 63.4552 426.32 63.6418C422.002 66.6921 417.73 69.8075 413.502 72.988C405.518 79.0019 397.709 85.2384 390.076 91.6978C389.785 91.9408 389.499 92.1881 389.208 92.4354V90.7475C389.494 90.5002 389.785 90.2529 390.076 90.0099C393 87.541 395.951 85.1068 398.927 82.7074C399.817 81.9914 400.711 81.2755 401.604 80.5682C409.545 74.2463 417.663 68.1601 425.959 62.3097H425.964C427.595 61.1599 429.23 60.0201 430.867 58.8906C435.518 55.6884 440.222 52.5629 444.977 49.514C445.32 49.2927 445.667 49.0714 446.014 48.8501C452.102 44.9624 458.269 41.2019 464.516 37.5687C464.546 37.5502 464.578 37.5342 464.611 37.521C465.262 37.2606 465.874 38.1198 465.366 38.5493Z" fill="white"/>
<path d="M461.222 63.8732C453.054 68.2346 443.152 68.9952 434.333 66.2825C431.841 65.5108 429.448 64.4531 427.2 63.1304C426.48 62.7085 425.928 63.8796 426.642 64.2979C434.935 69.1591 445.138 70.3694 454.403 67.9223C457.031 67.2224 459.569 66.219 461.965 64.9323C462.698 64.5412 461.95 63.4847 461.222 63.8732V63.8732Z" fill="white"/>
<path d="M400.109 79.7487C399.705 77.4773 399.566 75.1665 399.696 72.863C399.988 67.6097 401.597 62.5141 404.374 58.0451C406.407 55.9023 408.536 53.8612 410.762 51.9218C410.783 52.0486 410.771 52.1787 410.726 52.2993C410.682 52.4199 410.606 52.5268 410.508 52.6094C408.888 54.0877 407.445 55.7487 406.207 57.5592C401.786 64.0113 400.061 71.9352 401.399 79.6413C401.42 79.7287 401.419 79.8202 401.395 79.9071C401.371 79.9939 401.326 80.0731 401.262 80.1372C401.17 80.218 401.057 80.2732 400.937 80.2971C400.816 80.3211 400.691 80.313 400.574 80.2737C400.458 80.2344 400.354 80.1653 400.272 80.0732C400.19 79.9811 400.134 79.8692 400.109 79.7487Z" fill="white"/>
<path d="M451.415 31.5383C447.375 36.5162 445.029 42.6535 444.719 49.057C444.734 49.2276 444.816 49.3853 444.947 49.496C445.077 49.6066 445.246 49.6612 445.417 49.648C445.587 49.6298 445.742 49.5472 445.852 49.4171C445.962 49.2871 446.018 49.1197 446.008 48.9496C446.33 42.8866 448.569 37.0824 452.403 32.3741C452.929 31.7285 451.942 30.8915 451.415 31.5383Z" fill="white"/>
<path d="M406.482 45.795V45.7993C406.451 46.1725 406.417 46.5413 406.377 46.9101V46.9188C406.076 49.544 405.605 52.1471 404.967 54.7116C404.664 55.9699 404.334 57.2195 403.974 58.4692C403.93 58.6297 403.882 58.7903 403.835 58.9465V58.9508C402.775 62.5852 401.509 66.1562 400.043 69.6465C397.345 76.0724 394.005 82.2099 390.076 87.9657C389.794 88.3866 389.503 88.8075 389.208 89.224V21.2752C389.499 21.2579 389.785 21.2579 390.076 21.2666C390.215 21.2666 390.353 21.2709 390.492 21.2796C391.717 21.3439 392.926 21.5791 394.085 21.9782C394.493 22.1127 394.888 22.2646 395.278 22.4338C400.012 24.5078 403.731 29.0811 405.345 34.11C406.555 37.8763 406.798 41.8378 406.482 45.795Z" fill="#75A48B"/>
<path d="M395.278 22.434C395.268 22.4765 395.252 22.5174 395.23 22.5555C393.473 25.9703 391.755 29.4024 390.076 32.8519C389.785 33.4464 389.494 34.0451 389.208 34.6396V31.689C389.494 31.0989 389.784 30.5088 390.076 29.9187C391.373 27.2893 392.692 24.6714 394.033 22.0651C394.048 22.0347 394.065 22.0057 394.085 21.9784C394.484 21.4056 395.474 21.7961 395.278 22.434Z" fill="white"/>
<path d="M406.62 46.4939C406.542 46.6327 406.464 46.7716 406.377 46.9105C405.103 49.1308 403.587 51.203 401.856 53.0892C398.532 56.6957 394.529 59.6108 390.076 61.6674C389.789 61.8062 389.499 61.9364 389.208 62.0579V60.6477C389.499 60.5176 389.789 60.383 390.076 60.2442C396.521 57.1697 401.876 52.2017 405.423 46.0036C405.474 45.9151 405.544 45.8386 405.627 45.7794C405.71 45.7201 405.805 45.6794 405.906 45.6601C406.006 45.6408 406.109 45.6432 406.209 45.6673C406.308 45.6914 406.401 45.7365 406.482 45.7997C406.536 45.8361 406.583 45.883 406.62 45.9376C406.657 45.9922 406.682 46.0535 406.695 46.118C406.708 46.1825 406.708 46.2489 406.695 46.3134C406.682 46.3779 406.657 46.4392 406.62 46.4939Z" fill="white"/>
</svg>
