<svg width="180" height="119" viewBox="0 0 180 119" fill="none" xmlns="http://www.w3.org/2000/svg">
<path d="M75.6551 44.1075L72.4976 42.1341L74.438 37.2083C74.6244 36.735 74.943 36.3254 75.3558 36.0282C75.7686 35.731 76.2581 35.5587 76.7661 35.532C77.2737 35.5053 77.7783 35.625 78.2198 35.8769C78.6613 36.1288 79.0211 36.5023 79.2563 36.9529C79.4916 37.4035 79.5924 37.9122 79.5467 38.4185C79.5011 38.9248 79.3109 39.4072 78.9988 39.8085L75.6551 44.1075Z" fill="#FEB8B8"/>
<path d="M59.0446 97.4757L54.6973 95.5905L57.0562 90.7354L60.5671 92.7899L59.0446 97.4757Z" fill="#FEB8B8"/>
<path d="M57.3574 105.237L52.3568 100.138C51.8796 99.654 51.613 99.0013 51.6152 98.322C51.6175 97.6426 51.8883 96.9917 52.3687 96.5113L54.8863 93.9937C54.977 93.9022 55.0881 93.8334 55.2103 93.7928C55.3326 93.7522 55.4628 93.7409 55.5902 93.76C55.7177 93.779 55.8388 93.8278 55.9439 93.9024C56.049 93.9769 56.1351 94.0752 56.1951 94.1892C56.8149 95.3938 57.6591 96.0434 58.7524 96.0764C59.4079 96.0963 59.5111 96.0718 59.6818 96.7049L59.4713 101.476L60.3364 102.46C60.6607 102.829 60.8407 103.303 60.8433 103.794C60.8459 104.285 60.6708 104.761 60.3503 105.134C60.1668 105.347 59.9411 105.52 59.6875 105.642C59.4339 105.763 59.1577 105.831 58.8766 105.841C58.5954 105.851 58.3153 105.802 58.0538 105.698C57.7923 105.594 57.5552 105.437 57.3574 105.237Z" fill="#2F2E41"/>
<path d="M60.8535 93.641L56.3146 91.4702L60.0642 67.7886L41.7341 69.3161C35.9387 69.7991 31.1549 64.6164 32.3296 58.9207C32.6716 57.1968 33.6193 55.6523 35.0011 54.5664L53.157 56.7372L64.9208 58.3547C66.1013 58.5171 67.2037 59.0374 68.0793 59.8456C68.955 60.6538 69.5618 61.7111 69.818 62.8749C70.0221 63.8022 69.9966 64.7653 69.7435 65.6805L60.8535 93.641Z" fill="#2F2E41"/>
<path d="M29.377 119C45.1807 119 57.9922 106.189 57.9922 90.3848C57.9922 74.581 45.1807 61.7695 29.377 61.7695C13.5732 61.7695 0.761719 74.581 0.761719 90.3848C0.761719 106.189 13.5732 119 29.377 119Z" fill="#E6E6E6"/>
<path d="M72.6944 40.9489L77.2334 43.1197L70.0122 54.983C69.6959 55.5027 69.2332 55.9174 68.6822 56.1752C68.1311 56.4329 67.5162 56.5223 66.9146 56.4321C66.3402 56.3459 65.8018 56.0996 65.361 55.7214C64.9202 55.3432 64.5949 54.8484 64.4225 54.2938L56.356 38.8651C56.0816 38.3402 55.9235 37.7624 55.8924 37.171C55.8613 36.5796 55.958 35.9884 56.1759 35.4377C56.3937 34.887 56.7277 34.3896 57.155 33.9795C57.5822 33.5695 58.0929 33.2562 58.6521 33.0611H58.6521C59.1704 32.8803 59.7196 32.8048 60.2674 32.8391C60.8153 32.8733 61.3508 33.0166 61.8426 33.2605C62.3343 33.5045 62.7724 33.8441 63.1312 34.2596C63.49 34.6751 63.7622 35.158 63.9318 35.68L67.7607 47.4613L72.6944 40.9489Z" fill="#3F3D56"/>
<path d="M52.8437 35.1632C54.3256 35.3685 55.8477 34.8801 57.0844 34.0381C58.321 33.196 59.2983 32.0225 60.1256 30.7759C61.5235 28.6674 62.5315 26.325 63.1018 23.8602C63.5731 24.4267 64.1899 24.854 64.8859 25.0961C65.5819 25.3383 66.3307 25.3861 67.0519 25.2346C69.4049 24.7063 70.816 21.9609 70.357 19.5934C69.8981 17.226 67.9558 15.349 65.7393 14.3988C63.5229 13.4486 61.0527 13.2916 58.6411 13.297C57.051 13.3005 55.4304 13.3747 53.9367 13.9201C52.4429 14.4655 51.0745 15.5525 50.5439 17.0515C50.2112 17.9913 50.222 19.0315 49.8438 19.9539C49.157 21.6284 47.3759 22.5429 45.7042 23.2367C44.0326 23.9305 42.2154 24.6351 41.2296 26.153C40.1164 27.8671 40.4377 30.2593 41.6644 31.894C42.8911 33.5287 44.8613 34.4766 46.8663 34.8729C48.8713 35.2693 50.937 35.1713 52.9783 35.0717" fill="#2F2E41"/>
<path d="M52.1374 97.4757L47.79 95.5905L50.1489 90.7354L53.6599 92.7899L52.1374 97.4757Z" fill="#FEB8B8"/>
<path d="M50.4502 105.237L45.4496 100.138C44.9724 99.654 44.7058 99.0013 44.708 98.322C44.7102 97.6426 44.9811 96.9917 45.4615 96.5113L47.9791 93.9937C48.0698 93.9022 48.1808 93.8334 48.3031 93.7928C48.4254 93.7522 48.5555 93.7409 48.683 93.76C48.8104 93.779 48.9316 93.8278 49.0367 93.9024C49.1418 93.9769 49.2279 94.0752 49.2879 94.1892C49.9077 95.3938 50.7519 96.0434 51.8452 96.0764C52.5006 96.0963 52.6039 96.0718 52.7746 96.7049L52.5641 101.476L53.4291 102.46C53.7535 102.829 53.9335 103.303 53.9361 103.794C53.9386 104.285 53.7636 104.761 53.4431 105.134C53.2596 105.347 53.0339 105.52 52.7803 105.642C52.5266 105.763 52.2505 105.831 51.9693 105.841C51.6882 105.851 51.408 105.802 51.1466 105.698C50.8851 105.594 50.648 105.437 50.4502 105.237Z" fill="#2F2E41"/>
<path d="M53.3545 94.8246L48.8155 92.6538L52.5651 68.9722L34.2351 70.4997C28.4396 70.9827 23.6559 65.8 24.8306 60.1043C25.1726 58.3804 26.1202 56.8359 27.5021 55.75L45.658 57.9208L57.4218 59.5383C58.6023 59.7007 59.7047 60.221 60.5803 61.0292C61.456 61.8374 62.0628 62.8947 62.319 64.0584C62.5231 64.9857 62.4975 65.9489 62.2445 66.864L53.3545 94.8246Z" fill="#2F2E41"/>
<path d="M59.9654 30.0948C63.9435 30.0948 67.1685 26.8698 67.1685 22.8916C67.1685 18.9134 63.9435 15.6885 59.9654 15.6885C55.9872 15.6885 52.7622 18.9134 52.7622 22.8916C52.7622 26.8698 55.9872 30.0948 59.9654 30.0948Z" fill="#FEB8B8"/>
<path d="M54.9333 39.7654L51.9731 31.6742C54.0751 29.4438 54.5379 26.7068 53.7493 23.583L62.2352 28.3193L54.9333 39.7654Z" fill="#FEB8B8"/>
<path d="M49.013 58.9086C43.7443 60.6672 36.7717 60.0918 28.0353 57.1004C27.7992 57.0186 27.5867 56.8804 27.4161 56.6978C27.2456 56.5152 27.1222 56.2937 27.0566 56.0525C26.9911 55.8114 26.9855 55.5579 27.0401 55.3141C27.0948 55.0703 27.2082 54.8435 27.3704 54.6535C33.2629 47.7274 38.5495 40.9438 42.9123 34.3778C44.5587 32.249 46.9009 30.7666 49.5295 30.1896L53.552 29.3066L59.6697 32.4642L61.2731 33.3704C61.6512 33.5841 61.9818 33.8726 62.2449 34.2182C62.508 34.5639 62.6979 34.9594 62.8032 35.3808C62.9085 35.8022 62.9269 36.2406 62.8573 36.6694C62.7876 37.0981 62.6315 37.5082 62.3983 37.8746C59.9417 43.8766 56.7397 49.3561 51.1838 53.1856L49.013 58.9086Z" fill="#3F3D56"/>
<path d="M60.1324 21.4908C61.0178 22.8992 62.3333 23.9849 63.8841 24.587C64.9824 25.01 66.3761 25.1151 67.2005 24.275C67.7977 23.6665 67.9167 22.73 67.832 21.8816C67.5675 19.2335 65.5773 16.9276 63.1079 15.9354C60.6386 14.9432 57.7878 15.1601 55.3235 16.1646C52.9983 17.1124 50.7901 19.054 50.6651 21.5618C50.6009 22.847 51.0663 24.2621 50.3764 25.3483C49.8568 26.1663 48.8533 26.4987 47.9544 26.861C47.0555 27.2233 46.0908 27.7949 45.9063 28.7463C45.7809 29.393 46.0705 30.068 46.5252 30.5447C47.0032 31.001 47.5688 31.3557 48.1878 31.587C49.6537 32.2113 51.2673 32.6004 52.8422 32.3591C54.417 32.1177 55.9399 31.1587 56.5562 29.6895C57.0309 28.5581 56.9336 27.2814 56.8788 26.0557C56.824 24.83 56.8407 23.5246 57.4951 22.4868C58.1495 21.4489 59.6689 20.8679 60.647 21.6088" fill="#2F2E41"/>
<path opacity="0.2" d="M42.5996 42.2324C42.5996 42.2324 48.3227 56.4414 49.7041 57.2308C51.0855 58.0201 51.0855 56.0482 51.0855 56.0482L42.5996 42.2324Z" fill="black"/>
<path d="M87.5201 37.6006L52.7849 43.2512C52.6143 43.2788 52.4398 43.2375 52.2996 43.1366C52.1594 43.0356 52.0649 42.8831 52.037 42.7126L50.6353 34.0963C50.6078 33.9257 50.649 33.7512 50.75 33.611C50.8509 33.4708 51.0034 33.3764 51.1739 33.3484L85.9091 27.6978C86.0797 27.6703 86.2542 27.7115 86.3944 27.8125C86.5346 27.9134 86.6291 28.0659 86.657 28.2364L88.0587 36.8527C88.0862 37.0233 88.045 37.1978 87.944 37.338C87.8431 37.4782 87.6906 37.5727 87.5201 37.6006Z" fill="#2D86DA"/>
<path d="M56.4818 40.3034C57.9934 40.3034 59.2189 39.0779 59.2189 37.5662C59.2189 36.0546 57.9934 34.8291 56.4818 34.8291C54.9701 34.8291 53.7446 36.0546 53.7446 37.5662C53.7446 39.0779 54.9701 40.3034 56.4818 40.3034Z" fill="white"/>
<path d="M62.4285 34.7511C62.3693 34.7606 62.3126 34.7817 62.2615 34.8132C62.2105 34.8447 62.1662 34.8859 62.1311 34.9346C62.096 34.9832 62.0709 35.0383 62.0571 35.0966C62.0433 35.155 62.0412 35.2155 62.0508 35.2747C62.0605 35.3339 62.0817 35.3906 62.1132 35.4416C62.1448 35.4925 62.1861 35.5368 62.2348 35.5718C62.2835 35.6068 62.3386 35.6319 62.397 35.6456C62.4553 35.6593 62.5158 35.6613 62.575 35.6516L83.8021 32.1984C83.8612 32.1888 83.9178 32.1677 83.9688 32.1361C84.0197 32.1046 84.064 32.0634 84.099 32.0148C84.134 31.9662 84.1591 31.9111 84.1728 31.8528C84.1866 31.7945 84.1887 31.7341 84.1791 31.6749C84.1694 31.6158 84.1483 31.5591 84.1168 31.5082C84.0853 31.4572 84.044 31.413 83.9954 31.378C83.9468 31.343 83.8917 31.3179 83.8334 31.3042C83.7751 31.2904 83.7147 31.2883 83.6556 31.2979L62.4285 34.7511Z" fill="white"/>
<path d="M62.8675 37.4521C62.8083 37.4617 62.7515 37.4828 62.7005 37.5143C62.6495 37.5458 62.6052 37.587 62.5701 37.6357C62.535 37.6843 62.5099 37.7394 62.4961 37.7977C62.4823 37.8561 62.4802 37.9166 62.4898 37.9758C62.4994 38.035 62.5206 38.0917 62.5522 38.1426C62.5838 38.1936 62.6251 38.2379 62.6737 38.2729C62.7224 38.3079 62.7775 38.333 62.8359 38.3467C62.8943 38.3604 62.9548 38.3624 63.014 38.3527L84.241 34.8995C84.3603 34.88 84.467 34.8139 84.5376 34.7157C84.6082 34.6176 84.6369 34.4954 84.6175 34.3761C84.5981 34.2568 84.5321 34.15 84.4341 34.0793C84.336 34.0086 84.2139 33.9797 84.0945 33.999L62.8675 37.4521Z" fill="white"/>
<path d="M62.2352 47.462L59.0776 45.4886L61.0181 40.5628C61.2045 40.0895 61.5231 39.6799 61.9359 39.3827C62.3487 39.0855 62.8382 38.9132 63.3461 38.8865C63.8537 38.8598 64.3583 38.9795 64.7998 39.2314C65.2413 39.4833 65.6011 39.8568 65.8364 40.3074C66.0716 40.758 66.1724 41.2667 66.1268 41.773C66.0811 42.2793 65.891 42.7617 65.5789 43.163L62.2352 47.462Z" fill="#FEB8B8"/>
<path d="M59.0777 44.3043L63.6167 46.4752L56.3955 58.3385C56.0792 58.8581 55.6165 59.2728 55.0655 59.5306C54.5144 59.7884 53.8995 59.8778 53.2979 59.7875C52.7235 59.7014 52.1851 59.4551 51.7443 59.0769C51.3035 58.6987 50.9782 58.2039 50.8058 57.6493L42.7393 42.2205C42.4649 41.6957 42.3068 41.1179 42.2757 40.5265C42.2446 39.935 42.3413 39.3439 42.5592 38.7931C42.777 38.2424 43.111 37.7451 43.5383 37.335C43.9655 36.9249 44.4762 36.6117 45.0354 36.4166H45.0354C45.5537 36.2358 46.1029 36.1603 46.6507 36.1946C47.1986 36.2288 47.7341 36.3721 48.2259 36.616C48.7176 36.8599 49.1557 37.1996 49.5145 37.6151C49.8733 38.0305 50.1455 38.5135 50.3151 39.0355L54.144 50.8168L59.0777 44.3043Z" fill="#3F3D56"/>
<path d="M172.554 87.0391C169.939 90.7354 169.248 111.773 169.094 118.516C169.091 118.668 169.087 118.812 169.085 118.948H162.466C162.385 118.804 162.31 118.662 162.239 118.516C158.315 110.772 160.492 101.487 160.607 101.017C160.309 102.493 161.656 106.772 163.18 110.916C164.109 98.1734 172.057 87.6824 172.554 87.0391Z" fill="#E6E6E6"/>
<path d="M179.765 118.517L179.686 118.949H0V118.517H179.765Z" fill="#3F3D56"/>
<path d="M163.784 38.7143H110.5C110.239 38.714 109.988 38.6099 109.803 38.425C109.618 38.24 109.514 37.9892 109.514 37.7276V24.5102C109.514 24.2486 109.618 23.9978 109.803 23.8128C109.988 23.6278 110.239 23.5237 110.5 23.5234H163.784C164.046 23.5237 164.296 23.6278 164.481 23.8128C164.666 23.9978 164.771 24.2486 164.771 24.5102V37.7276C164.771 37.9892 164.666 38.24 164.481 38.425C164.296 38.6099 164.046 38.714 163.784 38.7143ZM110.5 23.9181C110.343 23.9183 110.193 23.9807 110.082 24.0917C109.971 24.2027 109.909 24.3532 109.908 24.5102V37.7276C109.909 37.8845 109.971 38.035 110.082 38.146C110.193 38.257 110.343 38.3194 110.5 38.3196H163.784C163.941 38.3194 164.092 38.257 164.203 38.146C164.314 38.035 164.376 37.8845 164.376 37.7276V24.5102C164.376 24.3532 164.314 24.2027 164.203 24.0917C164.092 23.9807 163.941 23.9183 163.784 23.9181H110.5Z" fill="#E6E6E6"/>
<path d="M117.407 35.2632C119.696 35.2632 121.552 33.4077 121.552 31.1189C121.552 28.8301 119.696 26.9746 117.407 26.9746C115.119 26.9746 113.263 28.8301 113.263 31.1189C113.263 33.4077 115.119 35.2632 117.407 35.2632Z" fill="#E6E6E6"/>
<path d="M126.979 28.3555C126.796 28.3555 126.62 28.4282 126.49 28.5578C126.361 28.6873 126.288 28.863 126.288 29.0462C126.288 29.2294 126.361 29.4051 126.49 29.5346C126.62 29.6641 126.796 29.7369 126.979 29.7369H159.541C159.724 29.7369 159.9 29.6641 160.029 29.5346C160.159 29.4051 160.232 29.2294 160.232 29.0462C160.232 28.863 160.159 28.6873 160.029 28.5578C159.9 28.4282 159.724 28.3555 159.541 28.3555H126.979Z" fill="#E6E6E6"/>
<path d="M126.979 32.5C126.796 32.5 126.62 32.5728 126.49 32.7023C126.361 32.8318 126.288 33.0075 126.288 33.1907C126.288 33.3739 126.361 33.5496 126.49 33.6791C126.62 33.8087 126.796 33.8814 126.979 33.8814H159.541C159.724 33.8814 159.9 33.8087 160.029 33.6791C160.159 33.5496 160.232 33.3739 160.232 33.1907C160.232 33.0075 160.159 32.8318 160.029 32.7023C159.9 32.5728 159.724 32.5 159.541 32.5H126.979Z" fill="#E6E6E6"/>
<path d="M163.784 60.8168H110.5C110.239 60.8165 109.988 60.7125 109.803 60.5275C109.618 60.3425 109.514 60.0917 109.514 59.8301V46.6127C109.514 46.3511 109.618 46.1003 109.803 45.9153C109.988 45.7303 110.239 45.6263 110.5 45.626H163.784C164.046 45.6263 164.296 45.7303 164.481 45.9153C164.666 46.1003 164.771 46.3511 164.771 46.6127V59.8301C164.771 60.0917 164.666 60.3425 164.481 60.5275C164.296 60.7125 164.046 60.8165 163.784 60.8168ZM110.5 46.0207C110.343 46.0208 110.193 46.0833 110.082 46.1943C109.971 46.3053 109.909 46.4557 109.908 46.6127V59.8301C109.909 59.9871 109.971 60.1376 110.082 60.2486C110.193 60.3596 110.343 60.422 110.5 60.4222H163.784C163.941 60.422 164.092 60.3596 164.203 60.2486C164.314 60.1376 164.376 59.9871 164.376 59.8301V46.6127C164.376 46.4557 164.314 46.3053 164.203 46.1943C164.092 46.0833 163.941 46.0208 163.784 46.0207H110.5Z" fill="#E6E6E6"/>
<path d="M117.407 57.3657C119.696 57.3657 121.552 55.5103 121.552 53.2214C121.552 50.9326 119.696 49.0771 117.407 49.0771C115.119 49.0771 113.263 50.9326 113.263 53.2214C113.263 55.5103 115.119 57.3657 117.407 57.3657Z" fill="#E6E6E6"/>
<path d="M126.979 50.459C126.796 50.459 126.62 50.5318 126.49 50.6613C126.361 50.7908 126.288 50.9665 126.288 51.1497C126.288 51.3329 126.361 51.5086 126.49 51.6381C126.62 51.7676 126.796 51.8404 126.979 51.8404H159.541C159.724 51.8404 159.9 51.7676 160.029 51.6381C160.159 51.5086 160.232 51.3329 160.232 51.1497C160.232 50.9665 160.159 50.7908 160.029 50.6613C159.9 50.5318 159.724 50.459 159.541 50.459H126.979Z" fill="#E6E6E6"/>
<path d="M126.979 54.6025C126.796 54.6025 126.62 54.6753 126.49 54.8048C126.361 54.9344 126.288 55.1101 126.288 55.2933C126.288 55.4764 126.361 55.6521 126.49 55.7817C126.62 55.9112 126.796 55.984 126.979 55.984H159.541C159.724 55.984 159.9 55.9112 160.029 55.7817C160.159 55.6521 160.232 55.4764 160.232 55.2933C160.232 55.1101 160.159 54.9344 160.029 54.8048C159.9 54.6753 159.724 54.6025 159.541 54.6025H126.979Z" fill="#E6E6E6"/>
<path d="M137.142 16.5771C135.503 16.5771 133.9 16.091 132.537 15.1802C131.174 14.2695 130.112 12.975 129.484 11.4605C128.857 9.94592 128.693 8.27937 129.013 6.67154C129.333 5.06372 130.122 3.58684 131.281 2.42766C132.44 1.26849 133.917 0.479082 135.525 0.159266C137.133 -0.16055 138.799 0.00359183 140.314 0.630933C141.829 1.25827 143.123 2.32064 144.034 3.68368C144.945 5.04673 145.431 6.64924 145.431 8.28856C145.428 10.4861 144.554 12.5928 143 14.1467C141.446 15.7006 139.34 16.5746 137.142 16.5771ZM137.142 0.394696C135.581 0.394696 134.055 0.857662 132.756 1.72505C131.458 2.59244 130.447 3.82529 129.849 5.26771C129.252 6.71012 129.095 8.29732 129.4 9.82858C129.704 11.3598 130.456 12.7664 131.56 13.8704C132.664 14.9743 134.071 15.7262 135.602 16.0307C137.133 16.3353 138.721 16.179 140.163 15.5815C141.605 14.9841 142.838 13.9723 143.706 12.6742C144.573 11.376 145.036 9.84982 145.036 8.28856C145.034 6.19571 144.201 4.18925 142.721 2.70938C141.241 1.22951 139.235 0.397074 137.142 0.394696Z" fill="#2D86DA"/>
<path d="M140.413 7.47164H137.96V5.0188C137.96 4.80195 137.874 4.59398 137.72 4.44065C137.567 4.28731 137.359 4.20117 137.142 4.20117C136.925 4.20117 136.717 4.28731 136.564 4.44065C136.411 4.59398 136.325 4.80195 136.325 5.0188V7.47164H133.872C133.655 7.47164 133.447 7.55778 133.294 7.71111C133.14 7.86445 133.054 8.07241 133.054 8.28925C133.054 8.5061 133.14 8.71406 133.294 8.86739C133.447 9.02073 133.655 9.10687 133.872 9.10687H136.325V11.5597C136.325 11.7766 136.411 11.9845 136.564 12.1379C136.717 12.2912 136.925 12.3773 137.142 12.3773C137.359 12.3773 137.567 12.2912 137.72 12.1379C137.874 11.9845 137.96 11.7766 137.96 11.5597V9.10687H140.413C140.63 9.10687 140.838 9.02073 140.991 8.8674C141.144 8.71407 141.23 8.5061 141.23 8.28926C141.23 8.07242 141.144 7.86445 140.991 7.71112C140.838 7.55779 140.63 7.47165 140.413 7.47165V7.47164Z" fill="#2D86DA"/>
</svg>
