<svg width="142" height="129" viewBox="0 0 142 129" fill="none" xmlns="http://www.w3.org/2000/svg">
<path d="M138.859 128.294H0V127.894H138.931L138.859 128.294Z" fill="#3F3D56"/>
<path d="M103.124 54.2507H53.6338C53.3908 54.2504 53.1578 54.1538 52.986 53.982C52.8142 53.8102 52.7176 53.5772 52.7173 53.3342V30.7934C52.7176 30.5505 52.8142 30.3175 52.986 30.1457C53.1578 29.9739 53.3908 29.8772 53.6338 29.877H103.124C103.367 29.8772 103.599 29.9739 103.771 30.1457C103.943 30.3175 104.04 30.5505 104.04 30.7934V53.3342C104.04 53.5772 103.943 53.8102 103.771 53.982C103.599 54.1538 103.367 54.2504 103.124 54.2507ZM53.6338 30.2435C53.488 30.2437 53.3482 30.3017 53.2451 30.4048C53.142 30.5079 53.084 30.6476 53.0839 30.7934V53.3342C53.084 53.48 53.142 53.6198 53.2451 53.7229C53.3482 53.826 53.488 53.884 53.6338 53.8841H103.124C103.269 53.884 103.409 53.826 103.512 53.7229C103.615 53.6198 103.673 53.48 103.673 53.3342V30.7934C103.673 30.6476 103.615 30.5079 103.512 30.4048C103.409 30.3017 103.269 30.2437 103.124 30.2435H53.6338Z" fill="#3F3D56"/>
<path d="M60.0494 40.7804C62.1752 40.7804 63.8986 39.0571 63.8986 36.9312C63.8986 34.8054 62.1752 33.082 60.0494 33.082C57.9235 33.082 56.2002 34.8054 56.2002 36.9312C56.2002 39.0571 57.9235 40.7804 60.0494 40.7804Z" fill="#2D86DA"/>
<path d="M68.9394 34.3652C68.7692 34.3652 68.6061 34.4328 68.4857 34.5531C68.3654 34.6734 68.2979 34.8366 68.2979 35.0068C68.2979 35.1769 68.3654 35.3401 68.4857 35.4604C68.6061 35.5807 68.7692 35.6483 68.9394 35.6483H99.1831C99.3532 35.6483 99.5164 35.5807 99.6367 35.4604C99.757 35.3401 99.8246 35.1769 99.8246 35.0068C99.8246 34.8366 99.757 34.6734 99.6367 34.5531C99.5164 34.4328 99.3532 34.3652 99.1831 34.3652H68.9394Z" fill="#E6E6E6"/>
<path d="M68.9394 38.2148C68.7692 38.2148 68.6061 38.2824 68.4857 38.4027C68.3654 38.5231 68.2979 38.6862 68.2979 38.8564C68.2979 39.0265 68.3654 39.1897 68.4857 39.31C68.6061 39.4303 68.7692 39.4979 68.9394 39.4979H81.9533C82.1235 39.4979 82.2867 39.4303 82.407 39.31C82.5273 39.1897 82.5949 39.0265 82.5949 38.8564C82.5949 38.6862 82.5273 38.5231 82.407 38.4027C82.2867 38.2824 82.1235 38.2148 81.9533 38.2148H68.9394Z" fill="#E6E6E6"/>
<path d="M57.0975 44.3691C56.6095 44.3691 56.2124 44.657 56.2124 45.0107C56.2124 45.3644 56.6095 45.6522 57.0975 45.6522H98.8245C99.3125 45.6522 99.7096 45.3644 99.7096 45.0107C99.7096 44.657 99.3125 44.3691 98.8245 44.3691H57.0975Z" fill="#E6E6E6"/>
<path d="M57.0975 48.2178C56.6095 48.2178 56.2124 48.5056 56.2124 48.8593C56.2124 49.213 56.6095 49.5008 57.0975 49.5008H98.8245C99.3125 49.5008 99.7096 49.213 99.7096 48.8593C99.7096 48.5056 99.3125 48.2178 98.8245 48.2178H57.0975Z" fill="#E6E6E6"/>
<path d="M140.149 24.3738H90.6596C90.4167 24.3735 90.1837 24.2768 90.0119 24.105C89.8401 23.9332 89.7434 23.7003 89.7432 23.4573V0.916475C89.7434 0.673499 89.8401 0.440555 90.0119 0.268745C90.1837 0.0969341 90.4167 0.000285238 90.6596 0H140.149C140.392 0.000285722 140.625 0.0969342 140.797 0.268745C140.969 0.440555 141.066 0.673499 141.066 0.916475V23.4573C141.066 23.7003 140.969 23.9332 140.797 24.105C140.625 24.2768 140.392 24.3735 140.149 24.3738ZM90.6596 0.36659C90.5138 0.366749 90.3741 0.424735 90.271 0.527824C90.1679 0.630913 90.1099 0.770686 90.1098 0.916475V23.4573C90.1099 23.6031 90.1679 23.7429 90.271 23.8459C90.3741 23.949 90.5138 24.007 90.6596 24.0072H140.149C140.295 24.007 140.435 23.949 140.538 23.8459C140.641 23.7429 140.699 23.6031 140.699 23.4573V0.916475C140.699 0.770686 140.641 0.630913 140.538 0.527824C140.435 0.424735 140.295 0.366749 140.149 0.36659H90.6596Z" fill="#3F3D56"/>
<path d="M97.0753 10.9035C99.2011 10.9035 100.924 9.18013 100.924 7.05428C100.924 4.92842 99.2011 3.20508 97.0753 3.20508C94.9494 3.20508 93.2261 4.92842 93.2261 7.05428C93.2261 9.18013 94.9494 10.9035 97.0753 10.9035Z" fill="#2D86DA"/>
<path d="M105.965 4.48828C105.795 4.48828 105.632 4.55587 105.512 4.67618C105.391 4.79649 105.324 4.95967 105.324 5.12981C105.324 5.29996 105.391 5.46313 105.512 5.58345C105.632 5.70376 105.795 5.77135 105.965 5.77135H136.209C136.379 5.77135 136.542 5.70376 136.663 5.58345C136.783 5.46313 136.85 5.29996 136.85 5.12981C136.85 4.95967 136.783 4.79649 136.663 4.67618C136.542 4.55587 136.379 4.48828 136.209 4.48828H105.965Z" fill="#E6E6E6"/>
<path d="M105.965 8.33789C105.795 8.33789 105.632 8.40548 105.512 8.52579C105.391 8.6461 105.324 8.80928 105.324 8.97942C105.324 9.14957 105.391 9.31274 105.512 9.43305C105.632 9.55337 105.795 9.62096 105.965 9.62096H118.979C119.149 9.62096 119.313 9.55337 119.433 9.43305C119.553 9.31274 119.621 9.14957 119.621 8.97942C119.621 8.80928 119.553 8.6461 119.433 8.52579C119.313 8.40548 119.149 8.33789 118.979 8.33789H105.965Z" fill="#E6E6E6"/>
<path d="M94.1224 14.4912C93.6344 14.4912 93.2373 14.779 93.2373 15.1327C93.2373 15.4864 93.6344 15.7743 94.1224 15.7743H135.849C136.337 15.7743 136.735 15.4864 136.735 15.1327C136.735 14.779 136.337 14.4912 135.849 14.4912H94.1224Z" fill="#E6E6E6"/>
<path d="M94.1224 18.3408C93.6344 18.3408 93.2373 18.6287 93.2373 18.9824C93.2373 19.3361 93.6344 19.6239 94.1224 19.6239H135.849C136.337 19.6239 136.735 19.3361 136.735 18.9824C136.735 18.6287 136.337 18.3408 135.849 18.3408H94.1224Z" fill="#E6E6E6"/>
<path d="M140.149 84.1277H90.6596C90.4167 84.1274 90.1837 84.0307 90.0119 83.8589C89.8401 83.6871 89.7434 83.4542 89.7432 83.2112V60.6704C89.7434 60.4274 89.8401 60.1945 90.0119 60.0227C90.1837 59.8508 90.4167 59.7542 90.6596 59.7539H140.149C140.392 59.7542 140.625 59.8508 140.797 60.0227C140.969 60.1945 141.066 60.4274 141.066 60.6704V83.2112C141.066 83.4542 140.969 83.6871 140.797 83.8589C140.625 84.0307 140.392 84.1274 140.149 84.1277ZM90.6596 60.1205C90.5138 60.1207 90.3741 60.1786 90.271 60.2817C90.1679 60.3848 90.1099 60.5246 90.1098 60.6704V83.2112C90.1099 83.357 90.1679 83.4968 90.271 83.5999C90.3741 83.7029 90.5138 83.7609 90.6596 83.7611H140.149C140.295 83.7609 140.435 83.7029 140.538 83.5999C140.641 83.4968 140.699 83.357 140.699 83.2112V60.6704C140.699 60.5246 140.641 60.3848 140.538 60.2817C140.435 60.1786 140.295 60.1207 140.149 60.1205H90.6596Z" fill="#3F3D56"/>
<path d="M97.0753 70.6574C99.2011 70.6574 100.924 68.934 100.924 66.8082C100.924 64.6823 99.2011 62.959 97.0753 62.959C94.9494 62.959 93.2261 64.6823 93.2261 66.8082C93.2261 68.934 94.9494 70.6574 97.0753 70.6574Z" fill="#2D86DA"/>
<path d="M105.965 64.2422C105.795 64.2422 105.632 64.3098 105.512 64.4301C105.391 64.5504 105.324 64.7136 105.324 64.8837C105.324 65.0539 105.391 65.217 105.512 65.3374C105.632 65.4577 105.795 65.5253 105.965 65.5253H136.209C136.379 65.5253 136.542 65.4577 136.663 65.3374C136.783 65.217 136.85 65.0539 136.85 64.8837C136.85 64.7136 136.783 64.5504 136.663 64.4301C136.542 64.3098 136.379 64.2422 136.209 64.2422H105.965Z" fill="#E6E6E6"/>
<path d="M105.965 68.0918C105.795 68.0918 105.632 68.1594 105.512 68.2797C105.391 68.4 105.324 68.5632 105.324 68.7333C105.324 68.9035 105.391 69.0667 105.512 69.187C105.632 69.3073 105.795 69.3749 105.965 69.3749H118.979C119.149 69.3749 119.313 69.3073 119.433 69.187C119.553 69.0667 119.621 68.9035 119.621 68.7333C119.621 68.5632 119.553 68.4 119.433 68.2797C119.313 68.1594 119.149 68.0918 118.979 68.0918H105.965Z" fill="#E6E6E6"/>
<path d="M94.1224 74.2461C93.6344 74.2461 93.2373 74.5339 93.2373 74.8876C93.2373 75.2413 93.6344 75.5292 94.1224 75.5292H135.849C136.337 75.5292 136.735 75.2413 136.735 74.8876C136.735 74.5339 136.337 74.2461 135.849 74.2461H94.1224Z" fill="#E6E6E6"/>
<path d="M94.1224 78.0947C93.6344 78.0947 93.2373 78.3826 93.2373 78.7363C93.2373 79.09 93.6344 79.3778 94.1224 79.3778H135.849C136.337 79.3778 136.735 79.09 136.735 78.7363C136.735 78.3826 136.337 78.0947 135.849 78.0947H94.1224Z" fill="#E6E6E6"/>
<path d="M21.3125 73.7516L19.6202 76.3007C19.4788 76.5531 19.389 76.8311 19.356 77.1185C19.323 77.4059 19.3475 77.697 19.4281 77.9748C19.5086 78.2527 19.6436 78.5117 19.8252 78.7369C20.0068 78.9621 20.2313 79.149 20.4858 79.2866C20.8027 79.4581 21.1572 79.5484 21.5176 79.5494C21.878 79.5505 22.233 79.4623 22.5509 79.2927C22.8689 79.1231 23.1399 78.8774 23.3398 78.5776C23.5397 78.2777 23.6622 77.933 23.6964 77.5743L23.4187 75.2114L24.7221 59.8912L26.9453 49.8144L22.3293 48.5039L20.1807 59.8357L21.3125 73.7516Z" fill="#9F616A"/>
<path d="M45.1822 122.097L40.7089 122.292L30.6667 87.8835L19.6901 122.558L15.4248 122.486L22.3181 81.833C20.29 76.2757 21.6063 71.1993 24.7493 66.3855L25.222 63.3824L37.4025 63.166L38.5472 74.5584L45.1822 122.097Z" fill="#2F2E41"/>
<path d="M42.0734 128.216C42.7035 128.504 43.3092 126.105 43.7628 126.696C45.5175 128.983 48.9342 128.193 48.8161 127.829C48.9358 127.791 49.0465 127.729 49.1414 127.646C49.2364 127.564 49.3135 127.463 49.3683 127.349C49.4231 127.236 49.4543 127.113 49.4601 126.987C49.4658 126.862 49.446 126.736 49.4019 126.618C49.349 126.477 49.2627 126.351 49.1504 126.251C49.0381 126.151 48.9031 126.08 48.7571 126.043L47.176 125.648L44.6934 121.282L41.9878 120.939L41.9194 121.051C41.3964 121.894 41.0592 122.839 40.9302 123.823C40.8013 124.806 40.8837 125.806 41.1719 126.755C41.3969 127.476 41.7031 128.047 42.0734 128.216Z" fill="#2F2E41"/>
<path d="M16.296 128.216C16.9261 128.504 17.5318 126.105 17.9855 126.696C19.7402 128.983 23.1569 128.193 23.0387 127.829C23.1585 127.791 23.2692 127.729 23.3641 127.646C23.459 127.564 23.5362 127.463 23.591 127.349C23.6457 127.236 23.6769 127.113 23.6827 126.987C23.6885 126.862 23.6687 126.736 23.6245 126.618C23.5717 126.477 23.4854 126.351 23.3731 126.251C23.2607 126.151 23.1258 126.08 22.9797 126.043L21.3986 125.648L18.916 121.282L16.2104 120.939L16.1421 121.051C15.619 121.894 15.2818 122.839 15.1529 123.823C15.024 124.806 15.1064 125.806 15.3945 126.755C15.6195 127.476 15.9258 128.047 16.296 128.216Z" fill="#2F2E41"/>
<path d="M19.1187 57.3369L22.6379 45.3236C22.8058 44.4659 23.3075 43.71 24.0327 43.2222C24.758 42.7344 25.6473 42.5546 26.505 42.7225C26.9297 42.8056 27.3339 42.9716 27.6945 43.2109C28.055 43.4503 28.3649 43.7582 28.6065 44.1173C28.848 44.4764 29.0164 44.8796 29.1022 45.3038C29.1879 45.728 29.1892 46.1649 29.1061 46.5896L26.2289 57.5605C24.1443 55.3654 21.7489 55.4788 19.1187 57.3369Z" fill="#2D86DA"/>
<path d="M50.227 46.151L43.562 47.6212L43.8486 42.3198H49.2933L52.8019 31.6864L52.7558 28.9346C52.6833 28.6807 52.6678 28.4138 52.7106 28.1532C52.7533 27.8926 52.8532 27.6447 53.0031 27.4273C53.153 27.2099 53.3491 27.0283 53.5774 26.8956C53.8058 26.7629 54.0606 26.6824 54.3237 26.6599C54.626 26.6339 54.9299 26.6853 55.2069 26.8091C55.4839 26.9329 55.7248 27.1251 55.9071 27.3676C56.0894 27.6102 56.2071 27.895 56.249 28.1955C56.291 28.496 56.2558 28.8022 56.1469 29.0854L54.9478 32.3467L53.3052 42.3198C53.3052 43.2135 53 44.0804 52.4403 44.7771C51.8805 45.4738 51.0997 45.9585 50.227 46.151Z" fill="#9F616A"/>
<path d="M32.0277 38.6657C35.1929 38.6657 37.7589 36.0997 37.7589 32.9344C37.7589 29.7691 35.1929 27.2031 32.0277 27.2031C28.8624 27.2031 26.2964 29.7691 26.2964 32.9344C26.2964 36.0997 28.8624 38.6657 32.0277 38.6657Z" fill="#9F616A"/>
<path d="M33.1025 45.0429L24.6489 45.1862C25.999 40.9528 26.9263 36.9947 26.7982 33.7236H33.2458C32.8175 37.4823 32.7695 41.2746 33.1025 45.0429Z" fill="#9F616A"/>
<path d="M38.6186 64.1703L24.7602 66.2778C22.571 59.9244 22.5065 52.5922 23.6746 47.166C23.5309 45.8726 23.6719 44.5634 24.0877 43.3302C24.5034 42.097 25.1839 40.9697 26.0814 40.0273L32.8156 40.7438C33.5918 40.9162 34.305 41.3 34.8765 41.8527C35.4481 42.4054 35.8556 43.1054 36.0539 43.8753C38.6522 47.4774 40.5557 50.8858 38.4506 53.1764L38.6186 64.1703Z" fill="#2D86DA"/>
<path d="M47.0007 48.7675L34.5352 47.6212C33.6612 47.6212 32.823 47.274 32.205 46.656C31.5869 46.038 31.2397 45.1998 31.2397 44.3257C31.2397 43.4517 31.5869 42.6135 32.205 41.9955C32.823 41.3775 33.6612 41.0303 34.5352 41.0303L45.8545 41.7467C44.1007 44.2141 44.6721 46.5431 47.0007 48.7675Z" fill="#2D86DA"/>
<path d="M24.2188 43.6706L19.9849 43.5618C20.6607 37.6428 21.0126 30.9726 24.4658 27.5438C24.9052 27.1075 25.2996 26.6557 25.6933 26.2031C26.4772 25.3019 28.1385 24.7845 29.8369 24.9809L30.6691 25.0771C33.4013 25.393 39.132 27.3519 38.966 29.063C38.8815 29.9344 38.8245 31.502 36.7508 31.5217C35.076 33.7688 32.0812 35.0165 33.3317 37.1511C35.8334 39.3827 32.5781 41.152 29.953 42.4851C28.3435 43.3024 26.3019 43.7241 24.2188 43.6706Z" fill="#2F2E41"/>
</svg>
