<svg width="105" height="111" viewBox="0 0 105 111" fill="none" xmlns="http://www.w3.org/2000/svg">
<path d="M61.6186 0H16.457V10.9779H61.6186V0Z" fill="#E6E6E6"/>
<path d="M17.6426 9.79274H60.4342V1.18555H17.6426V9.79274Z" fill="white"/>
<path d="M25.7927 8.76821C27.6031 8.76821 29.0708 7.3001 29.0708 5.48909C29.0708 3.67807 27.6031 2.20996 25.7927 2.20996C23.9823 2.20996 22.5146 3.67807 22.5146 5.48909C22.5146 7.3001 23.9823 8.76821 25.7927 8.76821Z" fill="#2D86DA"/>
<path d="M55.5618 4.20605H33.6318V4.91891H55.5618V4.20605Z" fill="#2D86DA"/>
<path d="M55.5618 6.05859H33.6318V6.77145H55.5618V6.05859Z" fill="#2D86DA"/>
<path d="M45.1615 18.4746H0V29.4525H45.1615V18.4746Z" fill="#E6E6E6"/>
<path d="M1.18457 28.2683H43.9762V19.6611H1.18457V28.2683Z" fill="white"/>
<path d="M9.33569 27.2428C11.1461 27.2428 12.6138 25.7747 12.6138 23.9637C12.6138 22.1527 11.1461 20.6846 9.33569 20.6846C7.52526 20.6846 6.05762 22.1527 6.05762 23.9637C6.05762 25.7747 7.52526 27.2428 9.33569 27.2428Z" fill="#E6E6E6"/>
<path d="M39.1048 22.6816H17.1748V23.3945H39.1048V22.6816Z" fill="#E6E6E6"/>
<path d="M39.1048 24.5352H17.1748V25.248H39.1048V24.5352Z" fill="#E6E6E6"/>
<path d="M45.1615 36.9502H0V47.9281H45.1615V36.9502Z" fill="#E6E6E6"/>
<path d="M1.18457 46.7429H43.9762V38.1357H1.18457V46.7429Z" fill="white"/>
<path d="M9.33569 45.7184C11.1461 45.7184 12.6138 44.2503 12.6138 42.4393C12.6138 40.6283 11.1461 39.1602 9.33569 39.1602C7.52526 39.1602 6.05762 40.6283 6.05762 42.4393C6.05762 44.2503 7.52526 45.7184 9.33569 45.7184Z" fill="#E6E6E6"/>
<path d="M39.1048 41.1562H17.1748V41.8691H39.1048V41.1562Z" fill="#E6E6E6"/>
<path d="M39.1048 43.0098H17.1748V43.7226H39.1048V43.0098Z" fill="#E6E6E6"/>
<path d="M105 102.693H45.7471V103.103H105V102.693Z" fill="#3F3D56"/>
<path d="M70.6885 16.5849L73.6037 23.7632L75.3977 28.6983L80.107 21.7443C80.107 21.7443 77.1917 18.8281 77.1917 15.0146L70.6885 16.5849Z" fill="#A0616A"/>
<path d="M61.9433 92.8555L60.5977 99.585L64.4099 102.726L65.9798 92.8555H61.9433Z" fill="#A0616A"/>
<path d="M83.9203 91.2842L83.4717 99.3598L87.2839 98.6867L87.7325 91.7328L83.9203 91.2842Z" fill="#A0616A"/>
<path d="M73.94 20.2856C76.7885 20.2856 79.0977 17.9757 79.0977 15.1262C79.0977 12.2767 76.7885 9.9668 73.94 9.9668C71.0914 9.9668 68.7822 12.2767 68.7822 15.1262C68.7822 17.9757 71.0914 20.2856 73.94 20.2856Z" fill="#A0616A"/>
<path d="M85.714 36.5495C85.714 36.5495 87.508 52.252 86.1625 52.252C84.817 52.252 78.3138 50.9061 76.9683 49.7844C75.6228 48.6628 71.362 49.1115 71.362 49.1115C71.362 49.1115 68.2226 51.579 66.6528 50.2331C65.0831 48.8872 67.7741 33.1846 67.7741 33.1846L67.1013 23.5388C67.1013 23.5388 70.0165 22.6415 71.362 23.9874L71.7724 23.5006L72.9385 22.1233L74.7258 23.7631L74.746 23.8394L75.3985 26.2307C75.3985 26.2307 76.3538 22.9825 77.0288 22.305C77.0749 22.2565 77.1307 22.2183 77.1925 22.1929C77.8653 21.9685 79.0477 20.3906 79.0477 20.3906L81.7089 21.7509L81.9018 21.9685L87.508 23.5388L85.714 36.5495Z" fill="#E6E6E6"/>
<path d="M67.9976 49.3364L67.5491 51.5796C67.5491 51.5796 65.0824 52.0282 65.7551 56.739L63.9611 73.3388L61.0459 93.9764L66.4279 94.6494L76.7434 64.1416L83.0224 93.0792H88.6286L87.5074 60.7768C87.5074 60.7768 88.4044 54.0472 85.2649 50.9066C82.1254 47.7661 70.6886 47.5418 67.9976 49.3364Z" fill="#2F2E41"/>
<path d="M62.8396 100.033C62.8396 100.033 63.2881 98.2382 62.1669 98.0139C61.0456 97.7896 60.1486 98.6869 59.9244 99.1355C59.7001 99.5842 54.5424 105.865 54.5424 105.865C54.5424 105.865 50.7301 110.352 56.3364 110.127C61.9426 109.903 62.1669 107.211 62.1669 107.211C62.1669 107.211 62.1669 106.762 63.2881 106.762C64.4094 106.762 67.3246 105.192 67.1004 104.071C66.8761 102.949 64.9903 99.0722 64.9903 99.0722C64.9903 99.0722 63.7366 102.276 62.8396 100.033Z" fill="#2F2E41"/>
<path d="M87.7316 97.3411C87.7316 97.3411 85.7133 95.9951 84.5921 96.8924C83.4708 97.7897 83.0223 98.014 83.0223 98.014L83.0042 98.1498C82.8047 99.8103 82.987 101.494 83.5373 103.074C83.6701 103.473 83.4086 103.76 83.4708 104.071C83.8072 105.753 84.1436 107.884 87.5073 106.987C90.871 106.09 87.7316 97.3411 87.7316 97.3411Z" fill="#2F2E41"/>
<path d="M86.1621 54.2715C86.1621 54.2715 82.3498 58.3093 84.5923 59.6552C86.8348 61.0011 88.1803 55.3931 88.1803 55.3931L86.1621 54.2715Z" fill="#A0616A"/>
<path d="M61.2881 12.2464C61.2881 12.2464 63.9333 7.3633 61.4201 6.63994C58.9069 5.91658 59.0493 11.6821 59.0493 11.6821L61.2881 12.2464Z" fill="#A0616A"/>
<path d="M84.5918 24.212L87.507 23.5391C87.507 23.5391 90.6465 26.0066 91.7678 34.5308C92.889 43.0551 88.6283 56.7387 88.6283 56.7387L85.2646 54.7198C85.2646 54.7198 87.0585 43.9524 86.8343 42.3821C86.61 40.8119 85.2646 34.7552 85.2646 34.7552L84.5918 24.212Z" fill="#E6E6E6"/>
<path d="M69.9053 9.58507L68.9671 9.2438C68.9671 9.2438 70.9287 7.2815 73.6581 7.45214L72.8904 6.68427C72.8904 6.68427 74.7668 6.00174 76.4726 7.7934C77.3693 8.73524 78.4068 9.84232 79.0536 11.0894H80.0583L79.639 11.9284L81.1067 12.7673L79.6003 12.6166C79.743 13.3409 79.6938 14.09 79.4578 14.7894L79.1166 15.7279C79.1166 15.7279 77.752 12.9978 77.752 12.6565V13.5097C77.752 13.5097 76.8138 12.7418 76.8138 12.2299L76.302 12.8271L76.0462 11.8886L72.8904 12.8271L73.4022 12.0593L71.4405 12.3152L72.2082 11.3767C72.2082 11.3767 70.3518 12.6597 69.9053 13.4244C69.4302 14.2381 68.7113 15.5573 68.7113 15.5573L68.1995 14.7041C68.1995 14.7041 67.4319 10.8648 69.9053 9.58507Z" fill="#2F2E41"/>
<path d="M68.2221 23.9875L67.1008 23.5388L61.1582 22.7537L61.4946 12.0984L58.8036 9.63086C58.8036 9.63086 51.4034 23.0902 59.0279 28.0253C66.6524 32.9604 69.1191 33.8576 69.1191 33.8576L68.2221 23.9875Z" fill="#E6E6E6"/>
</svg>
