<svg width="129" height="123" viewBox="0 0 129 123" fill="none" xmlns="http://www.w3.org/2000/svg">
<path d="M129 24.139V14.684C126.062 14.0094 123.297 12.7319 120.88 10.9324C118.462 9.13287 116.445 6.85066 114.956 4.23047L114.956 4.23064C114.242 4.7603 113.376 5.04536 112.486 5.04346H104.979C106.982 10.0367 110.25 14.4228 114.462 17.7708C118.673 21.1187 123.683 23.3134 129 24.139Z" fill="#E6E6E6"/>
<path d="M129 14.1422V5.05925C129 4.3948 128.87 3.73683 128.616 3.12292C128.361 2.50901 127.989 1.9512 127.519 1.48137C127.049 1.01153 126.491 0.638879 125.877 0.3847C125.263 0.13052 124.605 -0.000202408 123.941 2.35238e-07H116.652V0.877077C116.652 1.43961 116.539 1.99643 116.318 2.51378C116.097 3.03112 115.774 3.49822 115.367 3.88672C116.807 6.44568 118.762 8.67824 121.109 10.4434C123.455 12.2086 126.142 13.468 129 14.1422Z" fill="#E6E6E6"/>
<path d="M93.9365 5.04362H89.2417C88.137 5.0433 87.0775 4.60416 86.2965 3.82281C85.5155 3.04145 85.0768 1.98185 85.0769 0.877076V1.83397e-08H78.2375C77.5731 -5.65535e-05 76.9152 0.130767 76.3013 0.384998C75.6875 0.639229 75.1297 1.01189 74.6599 1.48169C74.1901 1.9515 73.8175 2.50925 73.5632 3.12309C73.309 3.73693 73.1782 4.39485 73.1782 5.05925V117.638C73.1775 118.302 73.3079 118.96 73.562 119.574C73.816 120.188 74.1887 120.746 74.6587 121.215C75.1287 121.685 75.6867 122.057 76.3008 122.311C76.9149 122.565 77.5731 122.694 78.2375 122.693H123.941C124.149 122.694 124.358 122.681 124.564 122.655C125.788 122.503 126.914 121.909 127.731 120.985C128.547 120.061 128.999 118.871 129 117.638V34.7631C112.378 32.837 98.5269 20.9767 93.9365 5.04362Z" fill="#E6E6E6"/>
<path d="M104.409 5.04395H94.4849C99.0527 20.6817 112.665 32.3163 129 34.2337V24.6779C123.541 23.8433 118.397 21.5907 114.082 18.1453C109.767 14.6999 106.431 10.1823 104.409 5.04395Z" fill="#E6E6E6"/>
<path d="M77.5824 41.9971C77.3982 41.9973 77.2216 42.0705 77.0914 42.2008C76.9612 42.331 76.8879 42.5076 76.8877 42.6918V54.324C76.8879 54.5082 76.9611 54.6848 77.0914 54.8151C77.2216 54.9453 77.3982 55.0186 77.5824 55.0188H124.476C124.66 55.0186 124.836 54.9453 124.967 54.8151C125.097 54.6848 125.17 54.5082 125.17 54.324V42.6918C125.17 42.5076 125.097 42.331 124.967 42.2008C124.836 42.0705 124.66 41.9973 124.476 41.9971H77.5824Z" fill="white"/>
<path d="M83.6614 52.1548C85.6757 52.1548 87.3087 50.5219 87.3087 48.5076C87.3087 46.4933 85.6757 44.8604 83.6614 44.8604C81.6471 44.8604 80.0142 46.4933 80.0142 48.5076C80.0142 50.5219 81.6471 52.1548 83.6614 52.1548Z" fill="#3F3D56"/>
<path d="M92.0849 46.0762C91.9237 46.0762 91.7691 46.1402 91.6551 46.2542C91.5411 46.3682 91.4771 46.5228 91.4771 46.684C91.4771 46.8453 91.5411 46.9999 91.6551 47.1139C91.7691 47.2279 91.9237 47.2919 92.0849 47.2919H120.742C120.903 47.2919 121.058 47.2279 121.172 47.1139C121.286 46.9999 121.35 46.8453 121.35 46.684C121.35 46.5228 121.286 46.3682 121.172 46.2542C121.058 46.1402 120.903 46.0762 120.742 46.0762H92.0849Z" fill="#E6E6E6"/>
<path d="M92.0849 49.7236C91.9237 49.7236 91.7691 49.7877 91.6551 49.9017C91.5411 50.0157 91.4771 50.1703 91.4771 50.3315C91.4771 50.4927 91.5411 50.6473 91.6551 50.7613C91.7691 50.8753 91.9237 50.9394 92.0849 50.9394H120.742C120.903 50.9394 121.058 50.8753 121.172 50.7613C121.286 50.6473 121.35 50.4927 121.35 50.3315C121.35 50.1703 121.286 50.0157 121.172 49.9017C121.058 49.7877 120.903 49.7236 120.742 49.7236H92.0849Z" fill="#E6E6E6"/>
<path d="M77.5824 61.9707C77.3982 61.9709 77.2216 62.0442 77.0914 62.1744C76.9612 62.3046 76.8879 62.4812 76.8877 62.6654V74.2976C76.8879 74.4818 76.9611 74.6584 77.0914 74.7887C77.2216 74.9189 77.3982 74.9922 77.5824 74.9924H124.476C124.66 74.9922 124.836 74.9189 124.967 74.7887C125.097 74.6584 125.17 74.4818 125.17 74.2976V62.6654C125.17 62.4812 125.097 62.3046 124.967 62.1744C124.836 62.0442 124.66 61.9709 124.476 61.9707H77.5824Z" fill="white"/>
<path d="M83.6614 72.1285C85.6757 72.1285 87.3087 70.4955 87.3087 68.4812C87.3087 66.4669 85.6757 64.834 83.6614 64.834C81.6471 64.834 80.0142 66.4669 80.0142 68.4812C80.0142 70.4955 81.6471 72.1285 83.6614 72.1285Z" fill="#3F3D56"/>
<path d="M92.0849 66.0498C91.9237 66.0498 91.7691 66.1139 91.6551 66.2279C91.5411 66.3418 91.4771 66.4965 91.4771 66.6577C91.4771 66.8189 91.5411 66.9735 91.6551 67.0875C91.7691 67.2015 91.9237 67.2656 92.0849 67.2656H120.742C120.903 67.2656 121.058 67.2015 121.172 67.0875C121.286 66.9735 121.35 66.8189 121.35 66.6577C121.35 66.4965 121.286 66.3418 121.172 66.2279C121.058 66.1139 120.903 66.0498 120.742 66.0498H92.0849Z" fill="#E6E6E6"/>
<path d="M92.0849 69.6963C91.9237 69.6963 91.7691 69.7603 91.6551 69.8743C91.5411 69.9883 91.4771 70.1429 91.4771 70.3042C91.4771 70.4654 91.5411 70.62 91.6551 70.734C91.7691 70.848 91.9237 70.912 92.0849 70.912H120.742C120.903 70.912 121.058 70.848 121.172 70.734C121.286 70.62 121.35 70.4654 121.35 70.3042C121.35 70.1429 121.286 69.9883 121.172 69.8743C121.058 69.7603 120.903 69.6963 120.742 69.6963H92.0849Z" fill="#E6E6E6"/>
<path d="M77.5824 81.9434C77.3982 81.9436 77.2216 82.0168 77.0914 82.1471C76.9612 82.2773 76.8879 82.4539 76.8877 82.6381V94.2703C76.8879 94.4545 76.9611 94.6311 77.0914 94.7613C77.2216 94.8916 77.3982 94.9649 77.5824 94.9651H124.476C124.66 94.9649 124.836 94.8916 124.967 94.7613C125.097 94.6311 125.17 94.4545 125.17 94.2703V82.6381C125.17 82.4539 125.097 82.2773 124.967 82.1471C124.836 82.0168 124.66 81.9436 124.476 81.9434H77.5824Z" fill="white"/>
<path d="M83.6614 92.1011C85.6757 92.1011 87.3087 90.4682 87.3087 88.4539C87.3087 86.4396 85.6757 84.8066 83.6614 84.8066C81.6471 84.8066 80.0142 86.4396 80.0142 88.4539C80.0142 90.4682 81.6471 92.1011 83.6614 92.1011Z" fill="#3F3D56"/>
<path d="M92.0849 86.0225C91.9237 86.0225 91.7691 86.0865 91.6551 86.2005C91.5411 86.3145 91.4771 86.4691 91.4771 86.6303C91.4771 86.7916 91.5411 86.9462 91.6551 87.0602C91.7691 87.1742 91.9237 87.2382 92.0849 87.2382H120.742C120.903 87.2382 121.058 87.1742 121.172 87.0602C121.286 86.9462 121.35 86.7916 121.35 86.6303C121.35 86.4691 121.286 86.3145 121.172 86.2005C121.058 86.0865 120.903 86.0225 120.742 86.0225H92.0849Z" fill="#E6E6E6"/>
<path d="M92.0849 89.6699C91.9237 89.6699 91.7691 89.734 91.6551 89.848C91.5411 89.962 91.4771 90.1166 91.4771 90.2778C91.4771 90.439 91.5411 90.5936 91.6551 90.7076C91.7691 90.8216 91.9237 90.8857 92.0849 90.8857H120.742C120.903 90.8857 121.058 90.8216 121.172 90.7076C121.286 90.5936 121.35 90.439 121.35 90.2778C121.35 90.1166 121.286 89.962 121.172 89.848C121.058 89.734 120.903 89.6699 120.742 89.6699H92.0849Z" fill="#E6E6E6"/>
<path d="M101.03 118.501C105.826 118.501 109.714 114.613 109.714 109.817C109.714 105.021 105.826 101.133 101.03 101.133C96.2336 101.133 92.3457 105.021 92.3457 109.817C92.3457 114.613 96.2336 118.501 101.03 118.501Z" fill="#2D86DA"/>
<path d="M106.24 109.816H101.55V105.127H100.508V109.816H95.8188V110.858H100.508V115.548H101.55V110.858H106.24V109.816Z" fill="white"/>
<path d="M18.7914 112.578L19.0689 114.62C19.0689 114.62 26.1295 117.034 24.7499 118.139C23.3702 119.244 12.2143 119.297 11.982 118.667C11.7496 118.038 11.698 115.316 12.3273 115.084C12.9566 114.851 14.12 112.515 14.12 112.515L18.7914 112.578Z" fill="#2F2E41"/>
<path d="M25.9156 70.6426L21.4884 98.155L19.4329 114.441L12.792 114.125L15.0055 87.0868L20.6978 71.7494L25.9156 70.6426Z" fill="#2F2E41"/>
<path d="M30.6589 70.6426L31.2913 73.1724C31.2913 73.1724 33.6631 79.8133 31.6076 79.4971C29.552 79.1809 28.6033 73.4887 28.6033 73.4887L28.2871 71.4332L30.6589 70.6426Z" fill="#FFB6B6"/>
<path d="M10.104 69.6934L15.0056 91.3553L21.014 116.812L26.7062 114.757L22.5952 94.2014C22.5952 94.2014 23.2277 89.7742 22.5952 87.5605C21.9627 85.3469 21.9627 75.7018 21.9627 75.7018L26.7062 71.5908V63.6893L14.215 62.5781L10.104 69.6934Z" fill="#2F2E41"/>
<path d="M26.7202 114.251L27.0257 116.29C27.0257 116.29 34.1186 118.606 32.7542 119.73C31.3899 120.855 20.2357 121.059 19.9948 120.433C19.7538 119.807 19.6649 117.086 20.291 116.845C20.9171 116.604 22.0484 114.252 22.0484 114.252L26.7202 114.251Z" fill="#2F2E41"/>
<path d="M29.3153 38.6247C31.935 38.6247 34.0588 36.501 34.0588 33.8812C34.0588 31.2614 31.935 29.1377 29.3153 29.1377C26.6955 29.1377 24.5718 31.2614 24.5718 33.8812C24.5718 36.501 26.6955 38.6247 29.3153 38.6247Z" fill="#FFB6B6"/>
<path d="M26.1524 33.248L20.7764 36.0941L22.8319 42.7351H25.0456L26.3105 41.1539L25.8361 40.2053L29.6308 37.359L26.1524 33.248Z" fill="#FFB6B6"/>
<path d="M24.4128 42.1031L24.3337 39.4943L22.1742 35.3545L14.0562 38.7037L16.9022 64.4767L26.7055 65.1091L26.3892 54.1991L27.9704 42.3404L27.4171 38.9408L24.4128 42.1031Z" fill="#2D86DA"/>
<path d="M25.046 54.7518L21.2385 35.7402C21.2385 35.7402 12.5548 37.5171 11.7642 38.7821C10.9736 40.047 9.8668 65.6619 9.8668 65.6619C9.8668 65.6619 8.28564 70.7216 9.8668 70.7216C11.448 70.7216 17.7726 66.1362 18.0889 67.8755C18.4051 69.6148 18.7213 70.5635 20.935 70.0891C23.1486 69.6148 24.5716 65.82 24.5716 65.82C24.5716 65.82 24.0973 73.4096 25.046 73.4096C25.9947 73.4096 27.4177 73.8839 27.4177 73.0933V56.1749L31.2125 42.4187L27.4579 38.97L25.8366 40.2051L25.046 54.7518Z" fill="#2F2E41"/>
<path d="M30.1851 42.8143L31.2919 42.498C31.2919 42.498 31.6082 44.7117 31.6082 45.186C31.6082 45.6604 30.6595 54.9893 30.6595 54.9893L31.45 70.959L27.8134 72.5402L26.7065 54.5149L30.1851 42.8143Z" fill="#2F2E41"/>
<path d="M24.572 34.3552C24.572 34.3552 22.6746 28.9793 26.9438 27.7143C31.2129 26.4494 33.1103 27.8724 33.7428 28.663C34.4054 29.4913 37.5376 33.5646 35.6402 34.5133C33.7428 35.462 32.8732 34.2762 32.8732 33.8018C32.8732 33.3275 30.0271 33.8018 28.7621 34.2762C28.419 34.4189 28.0414 34.4575 27.6765 34.3872C27.3116 34.3169 26.9754 34.1408 26.7098 33.8809C26.7098 33.8809 26.3904 32.3788 25.4417 33.1693C24.493 33.9599 24.572 34.3552 24.572 34.3552Z" fill="#2F2E41"/>
<path d="M38.977 74.6322C38.893 74.4683 38.7474 74.3444 38.5721 74.2877C38.3969 74.231 38.2063 74.2461 38.0422 74.3297L27.6841 79.6228C27.5201 79.7068 27.3962 79.8524 27.3395 80.0277C27.2827 80.2029 27.2979 80.3935 27.3815 80.5576L48.7196 122.315C48.8036 122.479 48.9493 122.603 49.1245 122.659C49.2998 122.716 49.4904 122.701 49.6545 122.617L60.0126 117.324C60.1765 117.24 60.3004 117.094 60.3572 116.919C60.4139 116.744 60.3988 116.553 60.3151 116.389L38.977 74.6322Z" fill="#E6E6E6"/>
<path d="M35.9451 86.6558C37.9594 86.6558 39.5923 85.0229 39.5923 83.0086C39.5923 80.9943 37.9594 79.3613 35.9451 79.3613C33.9308 79.3613 32.2979 80.9943 32.2979 83.0086C32.2979 85.0229 33.9308 86.6558 35.9451 86.6558Z" fill="#2D86DA"/>
<path d="M41.9436 89.4026C41.8702 89.259 41.7429 89.1505 41.5895 89.1008C41.4361 89.0512 41.2693 89.0645 41.1257 89.1379C40.9821 89.2112 40.8736 89.3386 40.824 89.492C40.7743 89.6454 40.7877 89.8122 40.861 89.9558L53.901 115.474C53.9373 115.545 53.9872 115.608 54.048 115.66C54.1088 115.712 54.1791 115.751 54.2551 115.776C54.3311 115.801 54.4112 115.81 54.4908 115.804C54.5704 115.797 54.648 115.775 54.7191 115.739C54.7902 115.703 54.8535 115.653 54.9053 115.592C54.957 115.531 54.9963 115.461 55.0209 115.385C55.0455 115.309 55.0548 115.229 55.0484 115.149C55.042 115.069 55.02 114.992 54.9836 114.921L41.9436 89.4026Z" fill="white"/>
<path d="M38.696 91.0617C38.6597 90.9907 38.6098 90.9274 38.549 90.8757C38.4882 90.8239 38.4179 90.7846 38.3419 90.76C38.266 90.7354 38.1859 90.726 38.1063 90.7324C38.0268 90.7388 37.9492 90.7607 37.8781 90.7971C37.8071 90.8334 37.7438 90.8833 37.6921 90.9441C37.6403 91.0049 37.601 91.0752 37.5764 91.1512C37.5518 91.2271 37.5424 91.3072 37.5488 91.3868C37.5552 91.4663 37.5771 91.5439 37.6135 91.615L50.6535 117.133C50.7268 117.277 50.8542 117.385 51.0076 117.435C51.161 117.485 51.3278 117.471 51.4714 117.398C51.6149 117.324 51.7235 117.197 51.7731 117.044C51.8227 116.89 51.8094 116.723 51.736 116.58L38.696 91.0617Z" fill="white"/>
<path opacity="0.2" d="M14.9131 92.542L19.4287 113.21L19.8132 111.43L14.9131 92.542Z" fill="black"/>
<path d="M20.2186 73.8521C20.2473 73.6702 20.2026 73.4843 20.0944 73.3353C19.9862 73.1862 19.8233 73.0862 19.6414 73.0571L8.15294 71.2341C7.97099 71.2054 7.78509 71.2501 7.63603 71.3583C7.48697 71.4665 7.38693 71.6294 7.35784 71.8113L0.00847086 118.125C-0.0201848 118.307 0.0245089 118.493 0.132743 118.642C0.240977 118.791 0.403914 118.891 0.585805 118.92L12.0743 120.743C12.2562 120.772 12.4421 120.727 12.5911 120.619C12.7402 120.511 12.8402 120.348 12.8693 120.166L20.2186 73.8521Z" fill="#E6E6E6"/>
<path d="M12.8352 82.483C14.8496 82.483 16.4825 80.85 16.4825 78.8357C16.4825 76.8214 14.8496 75.1885 12.8352 75.1885C10.8209 75.1885 9.18799 76.8214 9.18799 78.8357C9.18799 80.85 10.8209 82.483 12.8352 82.483Z" fill="#2D86DA"/>
<path d="M13.9173 87.5359C13.9299 87.457 13.9269 87.3764 13.9083 87.2987C13.8897 87.221 13.8561 87.1477 13.8092 87.0831C13.7623 87.0184 13.7031 86.9636 13.635 86.9218C13.5669 86.88 13.4912 86.8521 13.4123 86.8395C13.3334 86.827 13.2528 86.8302 13.1751 86.8488C13.0975 86.8675 13.0242 86.9013 12.9596 86.9482C12.895 86.9952 12.8403 87.0545 12.7986 87.1226C12.7569 87.1908 12.729 87.2664 12.7166 87.3454L8.22529 115.648C8.20002 115.807 8.23904 115.97 8.33376 116.101C8.42849 116.231 8.57115 116.319 8.73038 116.344C8.88961 116.369 9.05235 116.33 9.1828 116.235C9.31326 116.141 9.40075 115.998 9.42602 115.839L13.9173 87.5359Z" fill="white"/>
<path d="M10.3149 86.9639C10.3274 86.885 10.3242 86.8045 10.3056 86.7269C10.287 86.6493 10.2533 86.5761 10.2064 86.5115C10.1595 86.4469 10.1003 86.3921 10.0323 86.3504C9.96422 86.3087 9.88862 86.2808 9.80978 86.2683C9.73093 86.2557 9.6504 86.2589 9.57277 86.2775C9.49515 86.2961 9.42195 86.3298 9.35735 86.3767C9.29276 86.4236 9.23803 86.4828 9.1963 86.5509C9.15457 86.6189 9.12666 86.6945 9.11415 86.7733L4.62286 115.076C4.61025 115.155 4.6133 115.236 4.63186 115.313C4.65042 115.391 4.68411 115.464 4.73101 115.529C4.77791 115.594 4.83709 115.648 4.90519 115.69C4.97328 115.732 5.04894 115.76 5.12784 115.772C5.20674 115.785 5.28734 115.782 5.36502 115.763C5.4427 115.745 5.51594 115.711 5.58056 115.664C5.64517 115.617 5.6999 115.558 5.7416 115.489C5.7833 115.421 5.81116 115.346 5.82358 115.267L10.3149 86.9639Z" fill="white"/>
<path d="M15.2018 66.6484L15.8343 69.1783C15.8343 69.1783 18.206 75.8192 16.1505 75.503C14.095 75.1867 13.1463 69.4945 13.1463 69.4945L12.8301 67.439L15.2018 66.6484Z" fill="#FFB6B6"/>
<path d="M14.0573 39.0388L11.8436 38.8613L5.36084 57.361L12.7924 70.1684L18.0102 66.2155L12.4761 57.2028L16.7453 45.6603L14.0573 39.0388Z" fill="#2F2E41"/>
</svg>
