<svg width="127" height="106" viewBox="0 0 127 106" fill="none" xmlns="http://www.w3.org/2000/svg">
<path d="M125.668 103.263C125.407 103.94 125.081 104.591 124.695 105.206C124.587 105.376 124.475 105.543 124.355 105.705H114.409C114.339 105.653 114.272 105.598 114.202 105.545C113.852 105.518 113.505 105.483 113.166 105.446C113.201 105.416 113.238 105.386 113.273 105.356C113.093 105.371 112.914 105.386 112.734 105.393C112.876 105.411 113.021 105.428 113.166 105.446C113.058 105.533 112.949 105.62 112.836 105.705H112.402L112.694 105.393C112.462 105.401 112.232 105.406 112 105.401L112.727 105.206L113.51 104.996C113.54 105.021 113.573 105.046 113.603 105.071C114.941 103.895 116.029 102.462 116.802 100.858C117.575 99.253 118.017 97.5093 118.103 95.7302C118.189 93.9511 117.916 92.1729 117.301 90.5013C116.685 88.8298 115.74 87.299 114.522 86C116.483 87.3164 118.163 89.0099 119.464 90.982C120.765 92.954 121.661 95.1651 122.099 97.4866C122.324 98.6214 122.357 99.7858 122.198 100.932C122.286 100.834 122.373 100.737 122.458 100.637C123.722 99.1054 124.634 97.3138 125.128 95.3898C125.621 93.4657 125.685 91.4566 125.314 89.5052C126.282 91.6604 126.812 93.9867 126.873 96.3487C126.934 98.7107 126.524 101.061 125.668 103.263Z" fill="#E6E6E6"/>
<path d="M127 105H0V106H127V105Z" fill="#3F3D56"/>
<path d="M106.485 57.3974H17.9019C17.1926 57.3966 16.5126 57.1145 16.011 56.6129C15.5094 56.1114 15.2273 55.4314 15.2266 54.7221V33.6167C15.2273 32.9074 15.5095 32.2274 16.011 31.7258C16.5126 31.2243 17.1926 30.9422 17.9019 30.9414H106.485C107.194 30.9422 107.874 31.2243 108.376 31.7258C108.877 32.2274 109.159 32.9074 109.16 33.6167V54.7221C109.159 55.4314 108.877 56.1114 108.376 56.6129C107.874 57.1145 107.194 57.3966 106.485 57.3974ZM17.9019 31.5359C17.3502 31.5366 16.8214 31.756 16.4313 32.1461C16.0412 32.5362 15.8217 33.0651 15.8211 33.6167V54.7221C15.8217 55.2737 16.0412 55.8026 16.4313 56.1927C16.8214 56.5827 17.3502 56.8022 17.9019 56.8029H106.485C107.036 56.8022 107.565 56.5827 107.955 56.1927C108.345 55.8026 108.565 55.2737 108.566 54.7221V33.6167C108.565 33.0651 108.345 32.5362 107.955 32.1461C107.565 31.756 107.036 31.5366 106.485 31.5359H17.9019Z" fill="#3F3D56"/>
<path d="M102.177 52.9383H22.2141C22.175 52.9384 22.1363 52.9308 22.1001 52.9159C22.064 52.901 22.0311 52.8791 22.0034 52.8515C21.9757 52.8239 21.9537 52.7911 21.9387 52.755C21.9237 52.7188 21.916 52.6801 21.916 52.641C21.916 52.6019 21.9237 52.5632 21.9387 52.5271C21.9537 52.4909 21.9757 52.4581 22.0034 52.4305C22.0311 52.4029 22.064 52.381 22.1001 52.3661C22.1363 52.3512 22.175 52.3436 22.2141 52.3438H102.177C102.216 52.3436 102.254 52.3512 102.291 52.3661C102.327 52.381 102.36 52.4029 102.387 52.4305C102.415 52.4581 102.437 52.4909 102.452 52.5271C102.467 52.5632 102.475 52.6019 102.475 52.641C102.475 52.6801 102.467 52.7188 102.452 52.755C102.437 52.7911 102.415 52.8239 102.387 52.8515C102.36 52.8791 102.327 52.901 102.291 52.9159C102.254 52.9308 102.216 52.9384 102.177 52.9383Z" fill="#E6E6E6"/>
<path d="M30.6857 43.1309H24.146C24.0673 43.1311 23.9919 43.1625 23.9364 43.2182C23.8808 43.274 23.8496 43.3494 23.8496 43.4281C23.8496 43.5068 23.8808 43.5823 23.9364 43.638C23.9919 43.6937 24.0673 43.7252 24.146 43.7254H27.1186V48.9817C27.1134 49.3627 27.2536 49.7313 27.5107 50.0125C27.7678 50.2936 28.1225 50.4662 28.5024 50.495C28.521 50.4958 28.5402 50.4961 28.5596 50.4961C28.7933 50.4918 29.0224 50.4306 29.2271 50.3178C29.4318 50.205 29.6059 50.044 29.7344 49.8488C29.7816 49.7857 29.8018 49.7065 29.7906 49.6286C29.7794 49.5506 29.7377 49.4803 29.6747 49.4331C29.6117 49.3859 29.5325 49.3656 29.4545 49.3767C29.3766 49.3878 29.3062 49.4294 29.2589 49.4923C29.1832 49.6183 29.0758 49.7222 28.9475 49.7939C28.8192 49.8656 28.6744 49.9025 28.5274 49.901C28.3002 49.88 28.0896 49.7732 27.9384 49.6024C27.7871 49.4317 27.7066 49.2097 27.7131 48.9817V43.7254H30.6857C30.7248 43.7255 30.7636 43.7179 30.7997 43.703C30.8359 43.6881 30.8688 43.6662 30.8964 43.6386C30.9241 43.611 30.9461 43.5782 30.9611 43.5421C30.9761 43.5059 30.9838 43.4672 30.9838 43.4281C30.9838 43.389 30.9761 43.3503 30.9611 43.3142C30.9461 43.278 30.9241 43.2452 30.8964 43.2176C30.8688 43.19 30.8359 43.1681 30.7997 43.1532C30.7636 43.1383 30.7248 43.1307 30.6857 43.1309L30.6857 43.1309Z" fill="#2D86DA"/>
<path d="M32.0727 50.2734C32.1697 50.27 32.2617 50.2291 32.3292 50.1592C32.3967 50.0894 32.4344 49.996 32.4344 49.8989C32.4344 49.8018 32.3967 49.7084 32.3292 49.6386C32.2617 49.5687 32.1697 49.5278 32.0727 49.5244C31.9756 49.5278 31.8836 49.5687 31.8161 49.6386C31.7487 49.7084 31.7109 49.8018 31.7109 49.8989C31.7109 49.996 31.7487 50.0894 31.8161 50.1592C31.8836 50.2291 31.9756 50.27 32.0727 50.2734Z" fill="#3F3D56"/>
<path d="M34.4496 50.2734C34.5467 50.27 34.6387 50.2291 34.7062 50.1592C34.7736 50.0894 34.8113 49.996 34.8113 49.8989C34.8113 49.8018 34.7736 49.7084 34.7062 49.6386C34.6387 49.5687 34.5467 49.5278 34.4496 49.5244C34.3526 49.5278 34.2606 49.5687 34.1931 49.6386C34.1256 49.7084 34.0879 49.8018 34.0879 49.8989C34.0879 49.996 34.1256 50.0894 34.1931 50.1592C34.2606 50.2291 34.3526 50.27 34.4496 50.2734Z" fill="#3F3D56"/>
<path d="M36.8305 50.2734C36.9276 50.27 37.0195 50.2291 37.087 50.1592C37.1545 50.0894 37.1922 49.996 37.1922 49.8989C37.1922 49.8018 37.1545 49.7084 37.087 49.6386C37.0195 49.5687 36.9276 49.5278 36.8305 49.5244C36.7334 49.5278 36.6414 49.5687 36.574 49.6386C36.5065 49.7084 36.4688 49.8018 36.4688 49.8989C36.4688 49.996 36.5065 50.0894 36.574 50.1592C36.6414 50.2291 36.7334 50.27 36.8305 50.2734Z" fill="#3F3D56"/>
<path d="M75.8037 19.8642C79.6756 19.8642 82.8144 16.7254 82.8144 12.8535C82.8144 8.98157 79.6756 5.84277 75.8037 5.84277C71.9318 5.84277 68.793 8.98157 68.793 12.8535C68.793 16.7254 71.9318 19.8642 75.8037 19.8642Z" fill="#2F2E41"/>
<path d="M98.5404 102.881L95.4797 102.881L94.0234 91.0752L98.5409 91.0754L98.5404 102.881Z" fill="#FFB8B8"/>
<path d="M93.2927 102.007H99.1955V105.723H89.5762C89.5762 105.235 89.6723 104.752 89.8591 104.301C90.0458 103.85 90.3196 103.441 90.6647 103.095C91.0098 102.75 91.4195 102.477 91.8705 102.29C92.3214 102.103 92.8047 102.007 93.2927 102.007Z" fill="#2F2E41"/>
<path d="M67.3165 102.481L64.3613 101.684L66.0283 89.9062L70.3897 91.0824L67.3165 102.481Z" fill="#FFB8B8"/>
<path d="M62.481 100.271L68.1802 101.808L67.2127 105.396L57.9251 102.892C58.1817 101.94 58.8058 101.13 59.6602 100.638C60.5146 100.147 61.5293 100.015 62.481 100.271Z" fill="#2F2E41"/>
<path d="M73.1178 48.2578L64.0039 99.9032L68.6777 100.838L83.4002 64.3824L94.3836 100.604L99.9921 99.9032C99.9921 99.9032 97.4215 48.0241 89.2424 43.584L73.1178 48.2578Z" fill="#2F2E41"/>
<path d="M58.6632 66.7318C58.9918 66.5683 59.2805 66.3347 59.509 66.0475C59.7376 65.7604 59.9004 65.4266 59.986 65.0697C60.0715 64.7128 60.0778 64.3415 60.0044 63.9819C59.931 63.6223 59.7796 63.2832 59.5609 62.9884L64.5873 55.6178L59.9519 55.5459L55.8894 62.5562C55.4186 62.9563 55.1109 63.5153 55.0247 64.1272C54.9385 64.7391 55.0797 65.3613 55.4216 65.876C55.7635 66.3907 56.2823 66.7621 56.8798 66.9198C57.4772 67.0775 58.1118 67.0106 58.6632 66.7318Z" fill="#FFB8B8"/>
<path d="M91.8487 57.6185C92.1773 57.455 92.466 57.2214 92.6946 56.9342C92.9231 56.6471 93.0859 56.3133 93.1715 55.9564C93.2571 55.5995 93.2634 55.2282 93.19 54.8686C93.1165 54.509 92.9651 54.1699 92.7465 53.8752L97.7728 46.5046L93.1374 46.4326L89.0749 53.4429C88.6041 53.8431 88.2965 54.4021 88.2102 55.0139C88.124 55.6258 88.2652 56.248 88.6072 56.7627C88.9491 57.2774 89.4679 57.6488 90.0653 57.8065C90.6628 57.9643 91.2973 57.8974 91.8487 57.6185V57.6185Z" fill="#FFB8B8"/>
<path d="M75.9853 21.2508C79.3717 21.2508 82.117 18.5055 82.117 15.119C82.117 11.7326 79.3717 8.9873 75.9853 8.9873C72.5988 8.9873 69.8535 11.7326 69.8535 15.119C69.8535 18.5055 72.5988 21.2508 75.9853 21.2508Z" fill="#FFB8B8"/>
<path d="M89.241 24.6536C89.0073 23.7189 85.0346 23.9526 85.0346 23.9526C85.0346 23.9526 80.5612 22.9241 80.6035 23.0527C76.8338 22.7625 72.2353 24.1778 71.5655 24.3924C70.1953 24.7705 67.5773 25.9269 65.6892 26.7774C65.4264 26.8959 65.221 27.1132 65.1177 27.3823C65.0143 27.6514 65.0213 27.9504 65.1372 28.2143L70.8964 41.3624L71.7143 49.8921L90.6431 44.0499C85.9693 42.1804 89.4747 25.5884 89.241 24.6536Z" fill="#2D86DA"/>
<path d="M87.606 24.8873L89.1596 24.4971L97.6545 41.2456L98.1219 50.827L92.7471 46.6206V42.8815L87.1387 35.6371L87.606 24.8873Z" fill="#2D86DA"/>
<path d="M67.1604 26.1738L65.3615 26.9733C65.2679 27.015 65.1859 27.079 65.1228 27.1598C65.0597 27.2406 65.0175 27.3356 64.9998 27.4366L61.435 47.7901L57.9297 58.0725L62.6035 60.4094L67.9783 47.5564L69.8479 38.2088L67.1604 26.1738Z" fill="#2D86DA"/>
<path d="M69.5547 12.2294C70.7992 11.8208 72.112 12.4614 73.3278 12.9491C74.5259 13.4297 75.8061 13.7761 77.0948 13.7003C78.3835 13.6246 79.6868 13.0804 80.466 12.0511C81.2451 11.0217 81.3822 9.47906 80.611 8.44381C80.1033 7.7623 79.2932 7.37345 78.4819 7.12025C76.7486 6.57925 74.8087 6.56057 73.1611 7.3238C71.5135 8.08703 70.2215 9.69942 70.0857 11.5101" fill="#2F2E41"/>
<path d="M75.6211 7.34515C75.2031 4.51507 76.7533 1.57667 78.8691 0.522583C80.9849 -0.531505 83.4672 0.0903103 85.3732 1.65998C87.2793 3.22965 88.6688 5.64176 89.7029 8.20585C90.7371 10.7699 91.4532 13.5163 92.2958 16.1904C93.0442 18.5654 93.9227 20.9418 95.344 22.7582C96.7653 24.5746 98.8322 25.7566 100.813 25.2575C99.1856 27.4452 96.1923 27.0664 94.3354 25.1952C92.4784 23.324 91.513 20.3993 90.7531 17.5524C89.9932 14.7055 89.3321 11.7267 87.862 9.3675C85.2469 5.17046 80.115 3.90954 76.4501 6.56353" fill="#2F2E41"/>
</svg>
