<svg width="167" height="110" viewBox="0 0 167 110" fill="none" xmlns="http://www.w3.org/2000/svg">
<path d="M159.602 73.6151C158.403 74.9254 156.915 75.9008 155.301 76.6582H155.299C155.147 76.7302 154.996 76.8003 154.842 76.8665H154.84L154.838 76.8684L154.836 76.8665H154.834C154.834 76.8667 154.834 76.867 154.834 76.8672C154.834 76.8675 154.834 76.8677 154.833 76.8679C154.833 76.8681 154.833 76.8682 154.833 76.8683C154.833 76.8684 154.832 76.8684 154.832 76.8684H154.83L154.828 76.8665C154.826 76.8684 154.826 76.8684 154.824 76.8665L154.822 76.8684L154.82 76.8665H154.818C154.816 76.8684 154.816 76.8684 154.815 76.8665H154.813C153.732 77.3338 152.623 77.7305 151.491 78.0541C144.836 79.942 137.842 80.3074 131.027 79.123C130.897 79.0996 130.768 79.0762 130.638 79.0529V63.2614C130.766 63.2069 130.897 63.1524 131.027 63.0999C131.878 62.7475 132.739 62.4236 133.611 62.1283C134.864 61.7 136.136 61.3327 137.425 61.0264C141.63 60.0087 145.968 59.6578 150.282 59.9867C151.067 60.0451 151.849 60.1295 152.63 60.2398C154.264 60.4676 155.977 60.8648 157.484 61.554H157.486C157.706 61.6572 157.922 61.7643 158.136 61.8791C159.475 62.6053 160.605 63.6041 161.294 64.9728C161.541 65.4643 161.72 65.9879 161.823 66.5284V66.5323C161.862 66.7192 161.89 66.908 161.911 67.0949C162.156 69.4001 161.2 71.8668 159.602 73.6151Z" fill="#2DDA9C"/>
<path d="M161.911 67.0951C161.892 67.0998 161.872 67.1024 161.853 67.1028C158.518 67.2489 155.187 67.4656 151.861 67.7531H151.855C151.842 67.7551 151.83 67.7551 151.816 67.757C148.401 68.053 144.994 68.4235 141.593 68.8687C141.449 68.8882 141.307 68.9076 141.165 68.9252C138.813 69.2386 136.466 69.5865 134.123 69.9687C133.089 70.1381 132.057 70.3146 131.027 70.4983C130.897 70.5216 130.768 70.5431 130.638 70.5684V69.9784C130.768 69.9531 130.899 69.9317 131.027 69.9084C134.458 69.3009 137.9 68.7707 141.354 68.3177C142.222 68.2009 143.091 68.0906 143.962 67.9868C146.478 67.683 148.997 67.4208 151.52 67.2002C151.705 67.1846 151.888 67.169 152.073 67.1535C155.303 66.879 158.538 66.6706 161.777 66.5285C161.792 66.5278 161.808 66.5291 161.823 66.5324C162.135 66.5597 162.201 67.0269 161.911 67.0951Z" fill="white"/>
<path d="M154.985 76.2919C150.83 76.3225 146.737 74.5608 143.798 71.6448C142.969 70.8188 142.239 69.8996 141.621 68.9055C141.423 68.5878 140.96 68.9381 141.156 69.2531C143.438 72.9133 147.24 75.5208 151.431 76.4795C152.622 76.7492 153.839 76.8795 155.06 76.8677C155.432 76.865 155.355 76.2892 154.985 76.2919V76.2919Z" fill="white"/>
<path d="M137.425 61.0254C137.407 61.0801 137.375 61.1292 137.332 61.1678C137.29 61.2064 137.237 61.2332 137.181 61.2454C136.229 61.4949 135.309 61.8542 134.44 62.3162C133.171 62.9865 132.018 63.8577 131.027 64.8959C130.975 64.9484 130.924 65.001 130.875 65.0555C130.793 65.1412 130.716 65.2288 130.638 65.3183V64.4695C130.762 64.3371 130.893 64.2066 131.027 64.082C131.81 63.3327 132.677 62.6767 133.611 62.1273C134.864 61.699 136.136 61.3317 137.425 61.0254Z" fill="white"/>
<path d="M157.829 61.4012C155.186 62.5371 152.975 64.4868 151.517 66.9666C151.487 67.0375 151.487 67.1172 151.516 67.1885C151.544 67.2597 151.6 67.3166 151.671 67.347C151.742 67.3751 151.821 67.3747 151.892 67.346C151.963 67.3172 152.02 67.2623 152.051 67.1926C153.443 64.8506 155.542 63.011 158.047 61.9392C158.391 61.7923 158.173 61.2541 157.829 61.4012L157.829 61.4012Z" fill="white"/>
<path d="M165.795 44.8639C165.343 46.5811 164.477 48.1367 163.4 49.556L163.398 49.5579C163.299 49.6903 163.196 49.8247 163.089 49.9531V49.9551C162.341 50.876 161.534 51.7468 160.673 52.562C157.576 55.5133 154.078 58.0124 150.282 59.9856C144.311 63.1046 137.637 64.9483 131.027 65.0534C130.977 65.0554 130.926 65.0554 130.875 65.0554C130.795 65.0573 130.716 65.0573 130.638 65.0573V56.2086C130.764 55.9672 130.895 55.7258 131.027 55.4863C132.745 52.3955 134.84 49.5298 137.263 46.9549C137.321 46.8907 137.382 46.8264 137.442 46.7641C138.353 45.8023 139.309 44.8866 140.308 44.017C144.153 40.6364 148.596 38.005 153.409 36.2586C154.961 35.7017 156.662 35.2559 158.317 35.1683C158.56 35.1547 158.802 35.1488 159.045 35.1508C160.57 35.1722 162.032 35.5324 163.28 36.424C163.727 36.745 164.127 37.1256 164.471 37.5552C164.592 37.7051 164.703 37.8589 164.81 38.0166V38.0186C166.099 39.946 166.399 42.5724 165.795 44.8639Z" fill="#2DDA9C"/>
<path d="M164.81 38.0182V38.0201C164.796 38.0327 164.78 38.0438 164.763 38.0532C161.882 39.7295 159.037 41.4668 156.228 43.2651C156.224 43.2671 156.222 43.269 156.218 43.271C156.207 43.2788 156.195 43.286 156.183 43.2924C153.296 45.142 150.449 47.0538 147.644 49.028C147.527 49.1098 147.408 49.1935 147.29 49.2772C145.352 50.6459 143.435 52.0438 141.539 53.4709C137.956 56.1693 134.452 58.9677 131.027 61.866C130.897 61.975 130.768 62.086 130.638 62.1969V61.4396C130.766 61.3286 130.897 61.2176 131.027 61.1086C132.339 60.0008 133.663 58.9086 134.999 57.832C135.398 57.5107 135.799 57.1895 136.2 56.8721C139.763 54.0355 143.406 51.3046 147.128 48.6795H147.13C147.862 48.1636 148.595 47.6522 149.33 47.1453C151.417 45.7085 153.528 44.3061 155.661 42.9381C155.815 42.8388 155.971 42.7395 156.127 42.6402C158.858 40.8957 161.625 39.2084 164.428 37.5782C164.442 37.5699 164.456 37.5627 164.471 37.5568C164.763 37.44 165.038 37.8255 164.81 38.0182Z" fill="white"/>
<path d="M162.951 49.3806C159.286 51.3376 154.842 51.6789 150.886 50.4617C149.768 50.1154 148.693 49.6408 147.685 49.0473C147.362 48.858 147.114 49.3835 147.434 49.5712C151.156 51.7524 155.734 52.2955 159.891 51.1975C161.07 50.8834 162.209 50.4332 163.284 49.8559C163.613 49.6804 163.277 49.2063 162.951 49.3806V49.3806Z" fill="white"/>
<path d="M135.529 56.5045C135.347 55.4853 135.285 54.4485 135.343 53.4149C135.475 51.0577 136.196 48.7714 137.442 46.7661C138.355 45.8046 139.31 44.8888 140.309 44.0186C140.318 44.0755 140.313 44.1339 140.293 44.188C140.273 44.2421 140.239 44.29 140.195 44.3271C139.468 44.9904 138.82 45.7357 138.265 46.5481C136.281 49.4432 135.507 52.9986 136.107 56.4564C136.117 56.4956 136.117 56.5366 136.106 56.5756C136.095 56.6145 136.075 56.6501 136.046 56.6789C136.005 56.7151 135.954 56.7399 135.9 56.7506C135.846 56.7614 135.79 56.7577 135.738 56.7401C135.685 56.7225 135.638 56.6915 135.602 56.6501C135.565 56.6088 135.54 56.5586 135.529 56.5045Z" fill="white"/>
<path d="M158.551 34.8712C156.738 37.1048 155.685 39.8586 155.546 42.7319C155.553 42.8084 155.589 42.8792 155.648 42.9288C155.707 42.9785 155.783 43.003 155.859 42.997C155.935 42.9889 156.005 42.9518 156.055 42.8935C156.104 42.8351 156.129 42.76 156.124 42.6837C156.269 39.9632 157.274 37.3589 158.994 35.2462C159.23 34.9566 158.787 34.581 158.551 34.8712Z" fill="white"/>
<path d="M138.388 41.2692V41.2712C138.375 41.4386 138.359 41.6041 138.342 41.7696V41.7735C138.206 42.9514 137.995 44.1194 137.709 45.2701C137.573 45.8347 137.425 46.3954 137.263 46.9561C137.244 47.0282 137.222 47.1002 137.201 47.1703V47.1723C136.725 48.803 136.157 50.4053 135.499 51.9714C134.289 54.8547 132.79 57.6086 131.027 60.1913C130.901 60.3801 130.77 60.569 130.638 60.7559V30.2672C130.768 30.2594 130.897 30.2594 131.027 30.2633C131.089 30.2633 131.152 30.2652 131.214 30.2691C131.763 30.298 132.306 30.4035 132.826 30.5826C133.009 30.643 133.186 30.7111 133.361 30.787C135.486 31.7177 137.154 33.7697 137.878 36.0262C138.421 37.7161 138.53 39.4936 138.388 41.2692Z" fill="#2DDA9C"/>
<path d="M133.361 30.7863C133.357 30.8054 133.35 30.8238 133.34 30.8408C132.552 32.3731 131.781 33.9131 131.027 35.4609C130.897 35.7276 130.766 35.9963 130.638 36.263V34.9391C130.766 34.6743 130.896 34.4095 131.027 34.1448C131.609 32.9649 132.201 31.7903 132.803 30.6208C132.809 30.6072 132.817 30.5942 132.826 30.5819C133.005 30.3249 133.449 30.5001 133.361 30.7863Z" fill="white"/>
<path d="M138.451 41.5821C138.416 41.6444 138.381 41.7067 138.342 41.769C137.77 42.7652 137.09 43.6951 136.313 44.5414C134.821 46.1596 133.025 47.4676 131.027 48.3904C130.899 48.4527 130.768 48.5111 130.638 48.5656V47.9329C130.768 47.8745 130.899 47.8141 131.027 47.7518C133.919 46.3723 136.322 44.1431 137.913 41.3621C137.936 41.3224 137.968 41.288 138.005 41.2614C138.042 41.2349 138.085 41.2166 138.13 41.2079C138.175 41.1993 138.221 41.2004 138.266 41.2112C138.311 41.222 138.352 41.2422 138.388 41.2706C138.413 41.2869 138.434 41.3079 138.45 41.3324C138.467 41.357 138.478 41.3845 138.484 41.4134C138.49 41.4423 138.49 41.4721 138.484 41.5011C138.478 41.53 138.467 41.5575 138.451 41.5821Z" fill="white"/>
<path d="M131.027 6.42482V21.2214H130.638V21.0637H0.389383V21.2214H0V6.42482C0.00167208 4.72136 0.679107 3.08816 1.88363 1.88363C3.08816 0.679107 4.72136 0.00167208 6.42482 0H124.603C126.306 0.00167208 127.939 0.679107 129.144 1.88363C130.348 3.08816 131.026 4.72136 131.027 6.42482Z" fill="#2D86DA"/>
<path d="M124.603 0H6.42482C4.72136 0.00167208 3.08816 0.679107 1.88363 1.88363C0.679107 3.08816 0.00167208 4.72136 0 6.42482V90.9209C0.00167208 92.6244 0.679107 94.2576 1.88363 95.4621C3.08816 96.6666 4.72136 97.3441 6.42482 97.3457H124.603C126.306 97.3441 127.939 96.6666 129.144 95.4621C130.348 94.2576 131.026 92.6244 131.027 90.9209V6.42482C131.026 4.72136 130.348 3.08816 129.144 1.88363C127.939 0.679107 126.306 0.00167208 124.603 0ZM130.638 90.9209C130.636 92.521 129.999 94.0549 128.868 95.1864C127.737 96.3178 126.203 96.9543 124.603 96.9564H6.42482C4.82475 96.9543 3.2908 96.3178 2.15937 95.1864C1.02795 94.0549 0.391425 92.521 0.389383 90.9209V6.42482C0.391425 4.82475 1.02795 3.2908 2.15937 2.15938C3.2908 1.02796 4.82475 0.391425 6.42482 0.389383H124.603C126.203 0.391425 127.737 1.02796 128.868 2.15938C129.999 3.2908 130.636 4.82475 130.638 6.42482V90.9209Z" fill="#3F3D56"/>
<path d="M26.4778 14.5045C28.6283 14.5045 30.3716 12.7611 30.3716 10.6106C30.3716 8.46012 28.6283 6.7168 26.4778 6.7168C24.3273 6.7168 22.584 8.46012 22.584 10.6106C22.584 12.7611 24.3273 14.5045 26.4778 14.5045Z" fill="white"/>
<path d="M104.55 14.5045C106.701 14.5045 108.444 12.7611 108.444 10.6106C108.444 8.46012 106.701 6.7168 104.55 6.7168C102.4 6.7168 100.656 8.46012 100.656 10.6106C100.656 12.7611 102.4 14.5045 104.55 14.5045Z" fill="white"/>
<path d="M37.7273 54.0265H14.5637C13.5823 54.0254 12.6415 53.6351 11.9476 52.9412C11.2537 52.2473 10.8634 51.3065 10.8623 50.3252V39.3771C10.8634 38.3958 11.2537 37.455 11.9476 36.7611C12.6415 36.0672 13.5823 35.6769 14.5637 35.6758H37.7273C38.7087 35.6769 39.6495 36.0672 40.3434 36.7611C41.0373 37.455 41.4276 38.3958 41.4287 39.3771V50.3252C41.4276 51.3065 41.0373 52.2473 40.3434 52.9412C39.6495 53.6351 38.7087 54.0254 37.7273 54.0265Z" fill="#2D86DA"/>
<path d="M77.1336 54.0265H53.9699C52.9886 54.0254 52.0478 53.6351 51.3539 52.9412C50.66 52.2473 50.2697 51.3065 50.2686 50.3252V39.3771C50.2697 38.3958 50.66 37.455 51.3539 36.7611C52.0478 36.0672 52.9886 35.6769 53.9699 35.6758H77.1336C78.1149 35.6769 79.0557 36.0672 79.7496 36.7611C80.4435 37.455 80.8338 38.3958 80.8349 39.3771V50.3252C80.8338 51.3065 80.4435 52.2473 79.7496 52.9412C79.0557 53.6351 78.1149 54.0254 77.1336 54.0265Z" fill="#2D86DA"/>
<path d="M77.1344 82.3144H53.9708C52.9597 82.3133 51.9904 81.9112 51.2754 81.1962C50.5605 80.4813 50.1584 79.512 50.1572 78.5009V67.5528C50.1584 66.5417 50.5605 65.5724 51.2754 64.8575C51.9904 64.1425 52.9597 63.7404 53.9708 63.7393H77.1344C78.1455 63.7404 79.1148 64.1425 79.8297 64.8575C80.5447 65.5724 80.9468 66.5417 80.9479 67.5528V78.5009C80.9468 79.512 80.5447 80.4813 79.8297 81.1962C79.1148 81.9111 78.1455 82.3133 77.1344 82.3144Z" fill="#F2F2F2"/>
<path d="M37.651 82.3144H14.4873C13.4763 82.3133 12.507 81.9111 11.792 81.1962C11.0771 80.4813 10.675 79.512 10.6738 78.5009V67.5528C10.675 66.5417 11.0771 65.5724 11.792 64.8575C12.507 64.1425 13.4763 63.7404 14.4873 63.7393H37.651C38.6621 63.7404 39.6314 64.1425 40.3463 64.8575C41.0613 65.5724 41.4634 66.5417 41.4645 67.5528V78.5009C41.4634 79.512 41.0613 80.4813 40.3463 81.1962C39.6314 81.9111 38.6621 82.3133 37.651 82.3144Z" fill="#F2F2F2"/>
<path d="M116.539 82.3144H93.375C92.364 82.3133 91.3947 81.9111 90.6797 81.1962C89.9648 80.4813 89.5627 79.512 89.5615 78.5009V67.5528C89.5627 66.5417 89.9648 65.5724 90.6797 64.8575C91.3947 64.1425 92.364 63.7404 93.375 63.7393H116.539C117.55 63.7404 118.519 64.1425 119.234 64.8575C119.949 65.5724 120.351 66.5417 120.352 67.5528V78.5009C120.351 79.512 119.949 80.4813 119.234 81.1962C118.519 81.9111 117.55 82.3133 116.539 82.3144Z" fill="#F2F2F2"/>
<path d="M116.539 54.0478H93.375C92.364 54.0467 91.3947 53.6446 90.6797 52.9296C89.9648 52.2147 89.5627 51.2454 89.5615 50.2343V39.2862C89.5627 38.2751 89.9648 37.3058 90.6797 36.5909C91.3947 35.8759 92.364 35.4738 93.375 35.4727H116.539C117.55 35.4738 118.519 35.8759 119.234 36.5909C119.949 37.3058 120.351 38.2751 120.352 39.2862V50.2343C120.351 51.2454 119.949 52.2147 119.234 52.9296C118.519 53.6446 117.55 54.0467 116.539 54.0478Z" fill="#F2F2F2"/>
<path d="M26.1463 51.1335C29.6153 51.1335 32.4274 48.3214 32.4274 44.8524C32.4274 41.3834 29.6153 38.5713 26.1463 38.5713C22.6774 38.5713 19.8652 41.3834 19.8652 44.8524C19.8652 48.3214 22.6774 51.1335 26.1463 51.1335Z" fill="white"/>
<path d="M25.5241 47.2477C25.3828 47.248 25.2452 47.2023 25.1322 47.1175L25.1252 47.1122L23.6491 45.9821C23.5806 45.9297 23.5231 45.8644 23.4799 45.7899C23.4367 45.7153 23.4087 45.6329 23.3973 45.5475C23.386 45.4621 23.3916 45.3753 23.4138 45.292C23.436 45.2087 23.4744 45.1307 23.5268 45.0623C23.5792 44.9939 23.6446 44.9365 23.7192 44.8933C23.7938 44.8502 23.8762 44.8222 23.9617 44.811C24.0471 44.7997 24.1339 44.8054 24.2172 44.8277C24.3004 44.85 24.3784 44.8885 24.4468 44.941L25.4029 45.6741L27.6623 42.7275C27.7147 42.6591 27.7801 42.6018 27.8546 42.5587C27.9292 42.5156 28.0115 42.4876 28.0969 42.4763C28.1823 42.4651 28.2691 42.4707 28.3522 42.493C28.4354 42.5153 28.5134 42.5537 28.5818 42.6061L28.5677 42.6252L28.5821 42.6064C28.72 42.7123 28.8102 42.8686 28.8329 43.041C28.8557 43.2134 28.8091 43.3877 28.7035 43.5258L26.0459 46.9918C25.9844 47.0716 25.9054 47.1363 25.8149 47.1807C25.7244 47.225 25.6249 47.248 25.5241 47.2477Z" fill="#2D86DA"/>
<path d="M65.6629 51.0427C69.1319 51.0427 71.944 48.2305 71.944 44.7616C71.944 41.2926 69.1319 38.4805 65.6629 38.4805C62.194 38.4805 59.3818 41.2926 59.3818 44.7616C59.3818 48.2305 62.194 51.0427 65.6629 51.0427Z" fill="white"/>
<path d="M65.0422 47.1579C64.9009 47.1581 64.7633 47.1124 64.6502 47.0277L64.6432 47.0224L63.1671 45.8922C63.029 45.7865 62.9387 45.6302 62.9158 45.4577C62.893 45.2853 62.9396 45.1109 63.0454 44.9728C63.1512 44.8348 63.3075 44.7444 63.4799 44.7216C63.6523 44.6987 63.8268 44.7453 63.9648 44.8511L64.9209 45.5843L67.1804 42.6376C67.2328 42.5693 67.2981 42.5119 67.3727 42.4688C67.4472 42.4257 67.5296 42.3978 67.6149 42.3865C67.7003 42.3752 67.7871 42.3809 67.8703 42.4031C67.9535 42.4254 68.0315 42.4638 68.0998 42.5162L68.0858 42.5353L68.1002 42.5165C68.238 42.6225 68.3282 42.7788 68.351 42.9512C68.3737 43.1235 68.3272 43.2979 68.2216 43.436L65.5639 46.9019C65.5024 46.9818 65.4234 47.0464 65.3329 47.0908C65.2424 47.1352 65.143 47.1581 65.0422 47.1579Z" fill="#2D86DA"/>
<path d="M108.114 74.4009C108.321 74.1752 108.475 73.9071 108.566 73.6153C108.658 73.3236 108.684 73.0153 108.644 72.7122C108.603 72.4092 108.497 72.1187 108.332 71.8612C108.167 71.6037 107.948 71.3856 107.689 71.2221L104.183 52.498L99.918 54.0795L104.706 71.9873C104.46 72.4395 104.388 72.9663 104.505 73.4677C104.621 73.9692 104.918 74.4104 105.338 74.7079C105.758 75.0055 106.273 75.1385 106.784 75.0819C107.296 75.0253 107.769 74.783 108.114 74.4009Z" fill="#A0616A"/>
<path d="M74.0849 45.8298C74.0955 45.9461 74.097 46.063 74.0892 46.1795L82.3811 52.5614L84.7325 51.5958L86.6536 54.954L82.657 57.068C82.3341 57.2387 81.9645 57.3002 81.6038 57.243C81.243 57.1859 80.9105 57.0133 80.6562 56.7511L72.368 48.2063C71.9293 48.3052 71.4708 48.2682 71.0536 48.1003C70.6364 47.9323 70.2802 47.6413 70.0324 47.266C69.7847 46.8906 69.657 46.4488 69.6665 45.9991C69.676 45.5495 69.8221 45.1134 70.0855 44.7488C70.3489 44.3842 70.717 44.1085 71.1409 43.9583C71.5649 43.808 72.0245 43.7904 72.4586 43.9078C72.8928 44.0251 73.281 44.2719 73.5715 44.6152C73.862 44.9586 74.0411 45.3822 74.0849 45.8298H74.0849Z" fill="#A0616A"/>
<path d="M93.4579 107.636H91.0712L89.9355 100.376L93.4585 100.376L93.4579 107.636Z" fill="#A0616A"/>
<path d="M94.0664 109.949L86.3701 109.948V109.851C86.3701 109.458 86.4476 109.068 86.5981 108.705C86.7487 108.341 86.9693 108.011 87.2475 107.733C87.5257 107.455 87.8559 107.234 88.2194 107.083C88.5828 106.933 88.9723 106.855 89.3657 106.855H89.3659L94.0665 106.856L94.0664 109.949Z" fill="#2F2E41"/>
<path d="M102.412 107.636H100.025L98.8896 100.376L102.413 100.376L102.412 107.636Z" fill="#A0616A"/>
<path d="M103.021 109.949L95.3252 109.948V109.851C95.3252 109.458 95.4027 109.068 95.5532 108.705C95.7037 108.341 95.9244 108.011 96.2026 107.733C96.4807 107.455 96.811 107.234 97.1744 107.083C97.5379 106.933 97.9274 106.855 98.3208 106.855H98.321L103.022 106.856L103.021 109.949Z" fill="#2F2E41"/>
<path d="M90.5752 106.2C90.3573 106.2 90.1472 106.119 89.986 105.972C89.8249 105.825 89.7243 105.624 89.704 105.407L87.624 77.4316L87.7223 77.4236L102.036 76.2471L102.04 76.3488L103.178 105.329C103.182 105.446 103.163 105.564 103.121 105.674C103.079 105.784 103.015 105.884 102.933 105.969C102.852 106.054 102.754 106.122 102.645 106.168C102.537 106.214 102.42 106.238 102.302 106.238H99.4958C99.2863 106.239 99.0834 106.164 98.9244 106.028C98.7654 105.891 98.6608 105.702 98.6299 105.495L94.8186 82.084C94.8149 82.0598 94.8022 82.0379 94.7831 82.0227C94.7639 82.0075 94.7398 82 94.7154 82.0018C94.691 82.0035 94.6681 82.0144 94.6514 82.0323C94.6347 82.0501 94.6253 82.0736 94.6251 82.0981L94.4522 105.213C94.4504 105.436 94.3635 105.65 94.2093 105.811C94.0551 105.973 93.8451 106.069 93.6222 106.081L90.6223 106.198C90.6065 106.199 90.5908 106.2 90.5752 106.2Z" fill="#2F2E41"/>
<path d="M93.0172 42.0773C95.6581 42.0773 97.799 39.9364 97.799 37.2955C97.799 34.6546 95.6581 32.5137 93.0172 32.5137C90.3762 32.5137 88.2354 34.6546 88.2354 37.2955C88.2354 39.9364 90.3762 42.0773 93.0172 42.0773Z" fill="#A0616A"/>
<path d="M93.9435 79.2163C91.8535 79.2101 89.7736 78.9258 87.7585 78.371C87.5646 78.3145 87.396 78.193 87.2813 78.0268C87.1665 77.8606 87.1126 77.6599 87.1285 77.4586C87.7722 67.7837 87.9236 60.2757 86.5699 55.0809C85.993 52.8669 86.2549 50.535 87.2885 48.6834C88.8441 45.8968 91.7033 44.2007 94.753 44.2593C94.8988 44.262 95.046 44.2672 95.1946 44.2749C99.823 44.5132 103.43 48.7003 103.234 53.6088L102.303 77.0045C102.3 77.1752 102.246 77.3411 102.148 77.4812C102.051 77.6213 101.914 77.7294 101.755 77.7918C99.2578 78.7314 96.6118 79.2139 93.9435 79.2163Z" fill="#3F3D56"/>
<path d="M87.357 56.8773L83.7751 52.4881C83.6732 52.3632 83.5994 52.2178 83.5587 52.0619C83.5181 51.9059 83.5115 51.743 83.5395 51.5842C83.5675 51.4255 83.6293 51.2746 83.7209 51.142C83.8124 51.0093 83.9314 50.8979 84.0699 50.8154L88.9219 47.9242C89.5638 47.4063 90.3849 47.164 91.2051 47.2506C92.0254 47.3372 92.7778 47.7456 93.2974 48.3861C93.817 49.0266 94.0614 49.8471 93.9769 50.6676C93.8925 51.488 93.4861 52.2415 92.8469 52.7628L89.0549 56.9239C88.9463 57.043 88.8133 57.1373 88.6649 57.2004C88.5166 57.2635 88.3564 57.2938 88.1952 57.2894C88.0341 57.285 87.8758 57.2459 87.7312 57.1748C87.5865 57.1037 87.4589 57.0022 87.357 56.8773Z" fill="#3F3D56"/>
<path d="M98.6254 56.3262C98.4783 56.2604 98.3471 56.1635 98.2407 56.0424C98.1344 55.9212 98.0555 55.7785 98.0094 55.6241L96.3969 50.2301C96.0469 49.4832 96.0074 48.628 96.2871 47.8519C96.5667 47.0759 97.1428 46.4425 97.8888 46.0906C98.6349 45.7388 99.49 45.6971 100.267 45.9749C101.043 46.2526 101.678 46.8271 102.032 47.5723L105.15 52.2816C105.239 52.416 105.298 52.568 105.323 52.7272C105.348 52.8865 105.338 53.0492 105.295 53.2044C105.251 53.3596 105.175 53.5035 105.07 53.6264C104.966 53.7494 104.836 53.8484 104.69 53.9167L99.5595 56.3184C99.4135 56.3868 99.2545 56.423 99.0933 56.4243C98.9321 56.4256 98.7725 56.3922 98.6254 56.3262Z" fill="#3F3D56"/>
<path d="M95.3812 41.2184L91.8367 40.4072C91.471 40.3235 91.0318 40.1638 90.9811 39.7922C90.9129 39.2928 91.6316 38.9449 91.5653 38.4452C91.5011 37.9612 90.8464 37.8989 90.3796 37.756C89.9448 37.6035 89.5864 37.2878 89.3803 36.8757C89.1742 36.4636 89.1365 35.9875 89.2752 35.5482C88.7701 36.2599 87.6162 36.3209 86.961 35.7442C86.3059 35.1676 86.1802 34.1213 86.5737 33.3422C86.7862 32.9595 87.0861 32.6324 87.4489 32.3874C87.8117 32.1425 88.2272 31.9866 88.6615 31.9325C89.5349 31.8335 90.418 31.9981 91.197 32.4052C91.2489 31.8536 91.9377 31.6299 92.4917 31.625C93.6426 31.6384 94.7608 32.0103 95.6905 32.6889C96.6202 33.3674 97.3153 34.319 97.6789 35.411C98.3588 37.6017 97.904 40.0031 96.0018 41.2849L95.3812 41.2184Z" fill="#2F2E41"/>
<path d="M131.085 110H56.9076C56.8559 110 56.8064 109.979 56.7699 109.943C56.7334 109.906 56.7129 109.857 56.7129 109.805C56.7129 109.753 56.7334 109.704 56.7699 109.667C56.8064 109.631 56.8559 109.61 56.9076 109.61H131.085C131.137 109.61 131.186 109.631 131.223 109.667C131.259 109.704 131.28 109.753 131.28 109.805C131.28 109.857 131.259 109.906 131.223 109.943C131.186 109.979 131.137 110 131.085 110Z" fill="#3F3D56"/>
</svg>
