<svg width="143" height="110" viewBox="0 0 143 110" fill="none" xmlns="http://www.w3.org/2000/svg">
<path d="M60.089 66.524C56.1515 80.1829 44.6543 89.7443 32.6612 97.8666C30.9867 99.0009 29.3116 100.109 27.636 101.191C27.6246 101.196 27.6129 101.207 27.6014 101.212C27.5208 101.264 27.44 101.316 27.3649 101.368C27.0191 101.591 26.6732 101.814 26.3302 102.034L26.5186 102.119C26.5186 102.119 26.7036 102.217 26.5012 102.134C26.441 102.109 26.3778 102.087 26.3177 102.061C19.3505 99.2514 12.2596 96.2346 6.9203 90.971C1.38155 85.505 -1.85526 76.932 1.14392 69.7513C1.53814 68.8107 2.03608 67.917 2.62851 67.0869C2.87178 66.7388 3.13379 66.4056 3.40658 66.0786C5.06095 64.0596 7.22325 62.5177 9.67115 61.6114C12.1191 60.705 14.7642 60.467 17.3346 60.9217C19.905 61.3764 22.3079 62.5075 24.2962 64.1987C26.2845 65.8898 27.7865 68.08 28.6476 70.544C29.5287 62.341 22.7642 55.4696 16.2543 50.3997C9.74151 45.3322 2.34117 39.8137 1.08208 31.6561C0.378948 27.1174 1.95739 22.7189 4.8327 19.1879C4.92172 19.0807 5.01059 18.9735 5.1023 18.8692C8.60239 14.7567 13.5252 12.1158 18.8875 11.4742C28.874 10.4364 38.5744 15.722 45.8293 22.665C57.5061 33.8357 64.5653 50.9939 60.089 66.524Z" fill="#F2F2F2"/>
<path d="M41.3175 48.6592C43.2341 51.6409 44.7055 54.8861 45.6855 58.2925C46.5142 61.337 46.8831 64.4884 46.7798 67.642C46.6003 74.1241 44.6057 80.4584 41.4673 86.1002C39.0393 90.3779 36.0803 94.3317 32.6607 97.8675C30.9861 99.0018 29.311 100.11 27.6354 101.192C27.624 101.197 27.6124 101.208 27.6009 101.213C27.5203 101.265 27.4395 101.316 27.3644 101.369C27.0185 101.591 26.6726 101.815 26.3296 102.035C26.3296 102.035 26.703 102.218 26.5006 102.135C26.4404 102.11 26.3773 102.087 26.3172 102.062C26.9416 96.9429 26.3299 91.7486 24.5332 86.9145C22.7366 82.0804 19.8074 77.7472 15.991 74.2783C12.1655 70.8621 7.58668 68.3983 2.62793 67.0878C2.87121 66.7397 3.13321 66.4065 3.40601 66.0796C5.32117 66.6166 7.18511 67.3218 8.97604 68.1872C15.378 71.2612 20.62 76.3148 23.9261 82.5997C26.893 88.3067 28.1698 94.7416 27.6068 101.149C27.8931 100.889 28.1797 100.624 28.4577 100.362C33.752 95.4264 38.4544 89.7611 41.6368 83.2229C44.3978 77.686 45.7548 71.5552 45.5882 65.3704C45.3285 58.6266 42.6413 52.3801 38.7507 46.9422C34.583 41.1223 29.3579 35.9733 23.7782 31.5126C18.0633 26.9356 11.8097 23.075 5.15684 20.017C5.00679 19.947 4.8894 19.822 4.82895 19.6678C4.7685 19.5137 4.76964 19.3422 4.8321 19.1889C4.87647 19.0513 4.97337 18.9367 5.10173 18.8701C5.16776 18.8416 5.23937 18.8284 5.31122 18.8315C5.38307 18.8345 5.4533 18.8538 5.51668 18.8877C6.33809 19.2659 7.1538 19.6491 7.96294 20.049C14.7025 23.3799 21.0021 27.5351 26.717 32.4191C32.2372 37.1251 37.4343 42.5017 41.3175 48.6592Z" fill="white"/>
<path d="M85.7413 51.2108C93.8071 51.2108 100.346 44.6726 100.346 36.6074C100.346 28.5421 93.8071 22.0039 85.7413 22.0039C77.6754 22.0039 71.1367 28.5421 71.1367 36.6074C71.1367 44.6726 77.6754 51.2108 85.7413 51.2108Z" fill="#2F2E41"/>
<path d="M74.3413 28.7331C76.7013 26.3733 77.1796 23.0254 75.4096 21.2556C73.6396 19.4857 70.2915 19.9639 67.9314 22.3238C65.5714 24.6836 65.0931 28.0315 66.8631 29.8014C68.6332 31.5713 71.9812 31.093 74.3413 28.7331Z" fill="#2F2E41"/>
<path d="M100.965 24.0964C101.948 21.7946 100.257 18.8658 97.1877 17.5548C94.1184 16.2438 90.8331 17.047 89.8498 19.3488C88.8665 21.6506 90.5575 24.5794 93.6268 25.8904C96.6961 27.2014 99.9814 26.3982 100.965 24.0964Z" fill="#2F2E41"/>
<path d="M116.672 99.3106C114.162 101.054 111.51 102.583 108.744 103.881L108.335 103.158L104.421 96.2885L104.078 95.6857L102.076 92.1723L102.072 92.1681L95.7503 81.0622L92.501 75.3605L102.15 68.5938L105.903 76.529L107.939 80.8392L116.316 98.5551L116.672 99.3106Z" fill="#A0616A"/>
<path d="M108.05 72.5159L106.84 70.6209L101.489 62.2274C100.758 60.5967 99.411 59.322 97.7423 58.6825C96.0736 58.0431 94.2195 58.0911 92.5861 58.8159C90.9527 59.5408 89.6732 60.8835 89.0279 62.5498C88.3826 64.2162 88.4242 66.0703 89.1434 67.7061L92.4508 79.4891C92.544 79.8226 92.7075 80.1322 92.9304 80.3971C93.1532 80.6621 93.4302 80.8763 93.7427 81.0253C94.0552 81.1743 94.3961 81.2547 94.7422 81.261C95.0884 81.2674 95.4319 81.1996 95.7497 81.0621C95.7622 81.058 95.7704 81.0539 95.7827 81.0498L105.903 76.5289L106.993 76.0418C107.311 75.8984 107.595 75.6883 107.825 75.4258C108.055 75.1633 108.226 74.8544 108.326 74.52C108.426 74.1857 108.453 73.8337 108.406 73.488C108.358 73.1422 108.237 72.8107 108.05 72.5159H108.05Z" fill="#2D86DA"/>
<path d="M78.9738 72.779L76.158 79.1371L75.5469 80.5201L65.1214 104.07L64.7869 104.825C61.9637 103.648 59.2454 102.234 56.6611 100.598L56.942 99.8049L65.4516 75.797L67.5409 69.9014L72.1158 71.0532L78.9738 72.779Z" fill="#A0616A"/>
<path d="M97.0816 46.039C100.365 40.0329 98.1576 32.5025 92.1511 29.2192C86.1445 25.936 78.6135 28.1433 75.33 34.1494C72.0465 40.1555 74.254 47.686 80.2606 50.9692C86.2671 54.2525 93.7982 52.0451 97.0816 46.039Z" fill="#A0616A"/>
<path d="M107.811 75.4424C107.632 73.8093 107.307 72.1955 106.841 70.6202C105.435 65.8772 102.748 61.614 99.0742 58.3004C97.7245 57.0891 95.9743 56.42 94.1606 56.4219H76.6994C75.4445 56.4187 74.2097 56.7371 73.1129 57.3468C72.016 57.9564 71.0938 58.837 70.4341 59.9045C69.7745 60.972 69.3995 62.1907 69.3448 63.4443C69.2902 64.698 69.5579 65.9447 70.1222 67.0655L72.1165 71.0537L76.1587 79.1375L77.1288 81.0738L81.4519 89.7233L81.7946 90.4086L103.74 96.4447L103.835 96.2341C103.917 96.0483 104 95.8667 104.078 95.685C104.198 95.4084 104.318 95.14 104.429 94.8675C106.643 89.6201 107.687 84.9506 107.939 80.8385C108.052 79.0395 108.009 77.234 107.811 75.4424Z" fill="#2D86DA"/>
<path d="M79.8655 58.6838C78.2503 57.9271 76.4011 57.8411 74.7227 58.4447C73.0442 59.0482 71.6733 60.2921 70.9099 61.9041L69.3533 64.2533L64.1509 72.1059C63.9578 72.3973 63.8298 72.7269 63.7756 73.0722C63.7213 73.4175 63.7421 73.7704 63.8366 74.1069C63.931 74.4435 64.0968 74.7557 64.3228 75.0224C64.5487 75.2891 64.8295 75.504 65.146 75.6524L65.4514 75.7969L75.5467 80.52L76.265 80.8544C76.536 80.982 76.8289 81.0563 77.1279 81.0733C77.5269 81.1049 77.9274 81.0353 78.2924 80.871C78.6108 80.7284 78.8948 80.5189 79.1249 80.2567C79.3551 79.9946 79.526 79.6859 79.626 79.3516L83.1191 67.6635C83.8769 66.0411 83.96 64.1843 83.35 62.5007C82.74 60.8171 81.4868 59.4444 79.8655 58.6838Z" fill="#2D86DA"/>
<path d="M104.43 94.8679C104.356 94.6109 104.237 94.3691 104.079 94.1537C103.514 93.3968 102.839 92.7288 102.076 92.172L102.072 92.1678C99.4171 90.1572 94.132 87.808 83.9377 87.7461H83.9212C83.4539 87.7457 82.9963 87.8798 82.6032 88.1324C82.21 88.385 81.8978 88.7453 81.7039 89.1705L81.4521 89.7237L79.8294 93.2908C79.6917 93.5978 79.4734 93.8618 79.1977 94.0546C77.7318 95.0909 73.0662 98.8479 70.655 106.023C70.5683 106.279 70.4857 106.54 70.4072 106.808C80.7169 109.819 91.6863 109.72 101.94 106.523L102.167 105.586L104.421 96.2882L104.459 96.1354C104.561 95.7178 104.551 95.2805 104.43 94.8679Z" fill="#2F2E41"/>
<path d="M73.1807 32.297C76.013 34.249 79.3749 35.2879 82.8148 35.2741C81.5877 36.1249 80.1908 36.6996 78.7203 36.9585C83.2939 37.9395 88.0208 37.9661 92.6052 37.0365C93.6242 36.8732 94.6075 36.5355 95.5119 36.0383C95.9625 35.7866 96.3552 35.4429 96.6643 35.0296C96.9734 34.6162 97.1921 34.1424 97.306 33.639C97.6106 31.8988 96.2546 30.3179 94.8453 29.2524C92.6877 27.6459 90.1999 26.5391 87.562 26.012C84.924 25.4849 82.2019 25.5507 79.5925 26.2047C77.8887 26.6451 76.1819 27.3891 75.0752 28.7573C73.9685 30.1255 73.6406 32.2348 74.695 33.6437L73.1807 32.297Z" fill="#2F2E41"/>
<path d="M32.4703 61.4461C32.429 61.1488 32.396 60.8475 32.3629 60.5502C32.3546 60.5048 32.3506 60.4635 32.3464 60.4181C32.2266 59.3323 32.1399 58.2354 32.0863 57.1276C31.8593 58.0813 31.6542 59.0391 31.4712 60.0011C31.4835 60.1415 31.496 60.2777 31.5123 60.4181C31.5165 60.4635 31.5206 60.5048 31.5288 60.5502C31.5619 60.8475 31.595 61.1488 31.6363 61.4461C31.7518 62.3668 31.8923 63.2751 32.0574 64.1793C32.0615 64.1421 32.0657 64.1091 32.0697 64.0719C32.1854 63.2008 32.3175 62.3338 32.4744 61.4668C32.4711 61.4604 32.4697 61.4532 32.4703 61.4461ZM90.7294 0.231201C90.432 0.202301 90.1306 0.17752 89.8332 0.156877C89.7879 0.152748 89.7465 0.152753 89.7012 0.148624C88.3798 0.0495373 87.0422 0 85.6961 0C78.0752 0.00237168 70.5396 1.6023 63.5753 4.69656C56.6111 7.79082 50.3729 12.3107 45.2634 17.9644C40.1539 23.6182 36.2866 30.2803 33.911 37.5209C31.5353 44.7614 30.7042 52.4195 31.4712 60.0011C31.4835 60.1415 31.496 60.2777 31.5123 60.4181C31.5165 60.4635 31.5206 60.5048 31.5288 60.5502C31.5619 60.8475 31.5949 61.1488 31.6363 61.4461C31.7518 62.3668 31.8923 63.2751 32.0574 64.1793C33.6979 73.1432 37.5507 81.5558 43.2662 88.6537C48.9817 95.7516 56.3792 101.31 64.7873 104.825C65.6462 105.18 66.5131 105.519 67.3927 105.829C67.9707 106.039 68.5487 106.233 69.135 106.419C69.5561 106.555 69.9815 106.683 70.4067 106.807C71.0096 106.985 71.6206 107.154 72.2359 107.311C79.7827 109.247 87.658 109.534 95.3258 108.154C102.994 106.773 110.274 103.756 116.671 99.3096H116.675C123.93 94.301 129.86 87.6066 133.958 79.8013C138.055 71.9959 140.196 63.3128 140.198 54.4977C140.198 26.1424 118.43 2.77855 90.7294 0.231201ZM116.316 98.5541C113.793 100.316 111.123 101.856 108.335 103.157C106.332 104.095 104.271 104.906 102.166 105.585C92.6677 108.641 82.5059 108.994 72.818 106.605C72.0914 106.427 71.3702 106.233 70.6545 106.023C69.9485 105.816 69.2493 105.597 68.557 105.366C67.9913 105.172 67.4256 104.974 66.8641 104.764C66.2778 104.541 65.6998 104.309 65.1218 104.07C56.4272 100.447 48.8359 94.6052 43.1068 87.129C37.3777 79.6528 33.7114 70.8039 32.4744 61.4668C32.4711 61.4604 32.4697 61.4532 32.4703 61.4461C32.429 61.1488 32.396 60.8475 32.3629 60.5502C32.3546 60.5048 32.3506 60.4635 32.3464 60.4181C32.2266 59.3323 32.1399 58.2354 32.0863 57.1276C32.0409 56.2565 32.0189 55.3798 32.0202 54.4977C32.0357 40.2678 37.6959 26.6251 47.7587 16.5631C57.8215 6.50098 71.4651 0.841289 85.6961 0.825722C87.0422 0.825722 88.3799 0.87526 89.7012 0.974346C89.7466 0.978475 89.7879 0.982603 89.8333 0.986731C90.1306 1.00737 90.432 1.03214 90.7294 1.06104C117.976 3.60427 139.372 26.5965 139.372 54.4977C139.371 63.1567 137.273 71.6867 133.258 79.3588C129.243 87.0309 123.43 93.6169 116.316 98.5541ZM66.8641 104.764C66.2778 104.541 65.6998 104.309 65.1218 104.07C56.4272 100.447 48.8359 94.6052 43.1068 87.129C37.3777 79.6528 33.7114 70.8039 32.4744 61.4668C32.3175 62.3338 32.1855 63.2008 32.0697 64.0719C32.0657 64.1091 32.0615 64.1421 32.0575 64.1793C33.6979 73.1432 37.5507 81.5558 43.2662 88.6537C48.9818 95.7516 56.3792 101.31 64.7874 104.825C65.6462 105.18 66.5131 105.519 67.3927 105.829C67.2111 105.478 67.0335 105.123 66.8641 104.764ZM89.7011 0.148624C88.3798 0.0495373 87.0422 0 85.696 0C78.0752 0.00237168 70.5396 1.6023 63.5753 4.69656C56.611 7.79082 50.3729 12.3107 45.2634 17.9644C40.1539 23.6182 36.2866 30.2803 33.9109 37.5209C31.5353 44.7614 30.7042 52.4195 31.4712 60.0011C31.4834 60.1415 31.4959 60.2777 31.5123 60.4181C31.5165 60.4635 31.5205 60.5048 31.5288 60.5502H32.3628C32.3546 60.5048 32.3505 60.4635 32.3463 60.4181C32.2265 59.3323 32.1399 58.2354 32.0862 57.1276C32.0409 56.2565 32.0188 55.3798 32.0201 54.4977C32.0357 40.2678 37.6958 26.6251 47.7586 16.5631C57.8214 6.50098 71.4651 0.841289 85.696 0.825722C87.0421 0.825722 88.3798 0.87526 89.7011 0.974346C89.7465 0.978475 89.7878 0.982603 89.8332 0.986731V0.156877C89.7879 0.152748 89.7465 0.152753 89.7012 0.148624H89.7011Z" fill="#3F3D56"/>
<path d="M129.998 13.9482C146.738 14.2341 146.735 39.1331 129.997 39.4165C113.257 39.1307 113.26 14.2317 129.998 13.9482Z" fill="#2D86DA"/>
<path d="M129.996 33.6167C129.759 33.6165 129.531 33.5221 129.363 33.3543C129.195 33.1865 129.101 32.9591 129.101 32.7218V27.9768C129.101 27.8711 129.059 27.7697 128.984 27.6949C128.909 27.6201 128.808 27.5781 128.702 27.5779H123.957C123.719 27.5779 123.492 27.4836 123.324 27.3158C123.156 27.1479 123.062 26.9203 123.062 26.6829C123.062 26.4455 123.156 26.2178 123.324 26.05C123.492 25.8821 123.719 25.7878 123.957 25.7878H128.702C128.808 25.7877 128.909 25.7457 128.984 25.6709C129.059 25.5962 129.101 25.4949 129.101 25.3891V20.6439C129.101 20.4066 129.195 20.179 129.363 20.0111C129.531 19.8433 129.758 19.749 129.996 19.749C130.233 19.749 130.461 19.8433 130.629 20.0111C130.796 20.179 130.891 20.4066 130.891 20.6439V25.3891C130.891 25.4948 130.933 25.5962 131.008 25.6709C131.082 25.7457 131.184 25.7877 131.289 25.7878H136.035C136.272 25.7878 136.5 25.8821 136.668 26.05C136.836 26.2178 136.93 26.4455 136.93 26.6829C136.93 26.9202 136.836 27.1479 136.668 27.3158C136.5 27.4836 136.272 27.5779 136.035 27.5779H131.289C131.184 27.578 131.082 27.6201 131.008 27.6949C130.933 27.7697 130.891 27.8711 130.891 27.9768V32.7218C130.89 32.9591 130.796 33.1865 130.628 33.3543C130.461 33.522 130.233 33.6164 129.996 33.6167Z" fill="white"/>
</svg>
