<svg width="316" height="221" viewBox="0 0 316 221" fill="none" xmlns="http://www.w3.org/2000/svg">
<path d="M14.0745 84.7642C14.3766 103.419 21.3489 105.438 29.9112 103.493C39.6925 101.27 47.7207 94.3035 51.6775 85.0862L54.4064 78.7295C56.2205 74.5034 56.2816 69.7298 54.5761 65.4588C52.8707 61.1878 49.5384 57.7691 45.3124 55.955H45.3124C43.2199 55.0567 40.9709 54.5794 38.6939 54.5502C36.417 54.5211 34.1565 54.9407 32.0417 55.7852C29.9269 56.6296 27.9991 57.8824 26.3685 59.4719C24.7378 61.0613 23.4362 62.9564 22.5379 65.0489C13.7569 68.4983 12.0227 75.6395 14.0745 84.7642Z" fill="#2F2E41"/>
<path d="M69.1307 47.2188L71.7587 42.7717C72.0796 42.2287 72.2734 41.62 72.3255 40.9914C72.3776 40.3627 72.2867 39.7305 72.0595 39.142C71.8324 38.5535 71.4749 38.0242 71.014 37.5936C70.553 37.163 70.0006 36.8423 69.398 36.6557C68.762 36.4588 68.0882 36.4167 67.4326 36.5329C66.7771 36.6492 66.1588 36.9205 65.6294 37.3241C65.0999 37.7278 64.6746 38.2521 64.3889 38.8535C64.1031 39.4549 63.9653 40.1158 63.9868 40.7812L64.1412 45.5615L51.7908 79.4079L58.5257 80.814L69.1307 47.2188Z" fill="#9F616A"/>
<path d="M4.1553 130.657L0.920543 134.684C0.525536 135.176 0.247021 135.751 0.105897 136.365C-0.035228 136.98 -0.0352997 137.619 0.105686 138.234C0.246673 138.849 0.525057 139.424 0.919953 139.915C1.31485 140.407 1.81601 140.803 2.38582 141.074C2.98726 141.359 3.64823 141.497 4.31366 141.475C4.97908 141.454 5.62969 141.273 6.21126 140.949C6.79282 140.625 7.2885 140.167 7.65698 139.612C8.02546 139.058 8.25608 138.423 8.3296 137.761L8.85777 133.008L25.9042 101.266L19.4383 98.915L4.1553 130.657Z" fill="#9F616A"/>
<path d="M24.1409 164.162L24.617 169.881L24.7287 171.215L56.3881 168.171C57.4794 168.047 58.5262 167.669 59.4436 167.065C60.361 166.461 61.123 165.65 61.6676 164.696C62.2123 163.742 62.5243 162.674 62.5783 161.577C62.6322 160.48 62.4266 159.386 61.9782 158.383L51.7679 136.464L48.2411 128.893L32.958 125.366C20.3554 135.012 31.6942 145.657 45.9604 156.426C46.5188 156.849 47.0831 157.273 47.6533 157.696L24.1409 164.162Z" fill="#2F2E41"/>
<path d="M13.473 183.966C13.8587 184.022 14.2522 183.977 14.6156 183.836C14.979 183.695 15.3001 183.464 15.5483 183.163L25.9042 170.627L25.3164 164.749L21.7854 162.63C21.4965 162.457 21.1734 162.349 20.8385 162.313C20.5035 162.277 20.1648 162.315 19.8458 162.423C19.5269 162.531 19.2353 162.708 18.9914 162.94C18.7474 163.172 18.557 163.455 18.4334 163.768L11.6789 180.879C11.5527 181.199 11.5006 181.543 11.5265 181.886C11.5523 182.228 11.6554 182.561 11.828 182.858C12.0007 183.155 12.2384 183.409 12.5233 183.601C12.8082 183.793 13.1329 183.918 13.473 183.966Z" fill="#2F2E41"/>
<path opacity="0.2" d="M22.3772 162.986L22.965 170.04L24.6168 169.881L54.6244 166.995C55.7157 166.872 56.7626 166.493 57.6799 165.889C58.5973 165.286 59.3593 164.474 59.904 163.52C60.4486 162.567 60.7606 161.498 60.8146 160.401C60.8685 159.304 60.6629 158.21 60.2145 157.208L51.7677 138.298V136.464L48.2408 128.893L32.9578 125.366C20.3551 135.012 31.694 145.657 45.9601 156.426L45.8896 156.52L22.3772 162.986Z" fill="black"/>
<path d="M10.5338 181.615C10.9195 181.67 11.3129 181.625 11.6763 181.484C12.0397 181.344 12.3609 181.112 12.6091 180.812L22.965 168.276L22.3772 162.398L18.8462 160.279C18.5573 160.106 18.2342 159.997 17.8993 159.961C17.5643 159.926 17.2256 159.963 16.9066 160.071C16.5876 160.18 16.2961 160.356 16.0521 160.588C15.8082 160.821 15.6178 161.103 15.4941 161.417L8.73969 178.528C8.61354 178.847 8.56142 179.191 8.58725 179.534C8.61308 179.877 8.71619 180.209 8.88883 180.506C9.06147 180.803 9.29916 181.057 9.58405 181.249C9.86895 181.441 10.1936 181.566 10.5338 181.615Z" fill="#2F2E41"/>
<path d="M21.2017 161.811L21.7895 168.865L53.4489 165.819C54.5401 165.696 55.5869 165.317 56.5043 164.714C57.4217 164.11 58.1838 163.299 58.7287 162.346C59.2736 161.392 59.5859 160.324 59.6402 159.227C59.6946 158.13 59.4894 157.036 59.0414 156.033L50.5921 137.123V126.542L30.0188 123.016C16.9203 133.04 29.6827 144.145 44.714 155.345L21.2017 161.811Z" fill="#2F2E41"/>
<path d="M41.187 78.9292C46.0566 78.9292 50.0042 74.9816 50.0042 70.1121C50.0042 65.2425 46.0566 61.2949 41.187 61.2949C36.3174 61.2949 32.3699 65.2425 32.3699 70.1121C32.3699 74.9816 36.3174 78.9292 41.187 78.9292Z" fill="#9F616A"/>
<path d="M29.4309 84.8073L41.7749 93.0366L52.3555 90.6854L46.4774 84.8073V75.9902L37.0724 75.4023C36.875 78.9233 34.8574 82.1453 29.4309 84.8073Z" fill="#9F616A"/>
<path d="M27.6678 125.954L50.5924 128.893L55.8827 104.205C58.3404 97.6519 56.9302 91.862 52.38 86.6919C52.206 85.8218 51.7424 85.0363 51.0648 84.4634C50.3872 83.8906 49.5356 83.5641 48.6487 83.5372L46.4777 83.6317C46.7233 91.4276 40.9796 89.5499 32.3703 83.0439L31.3307 83.3558C29.9868 83.759 28.833 84.6326 28.0805 85.8168C27.3279 87.0009 27.0269 88.4165 27.2325 89.8044L28.1804 96.203C28.5824 98.7397 29.2068 101.236 30.0464 103.663C32.3968 110.688 31.5569 118.124 27.6678 125.954Z" fill="#2D86DA"/>
<path d="M17.0872 99.502L27.6677 103.029L32.3702 85.9823L30.7771 85.2582C29.4563 84.6578 27.9565 84.5824 26.5822 85.0473C25.2078 85.5122 24.0618 86.4826 23.3767 87.7615L17.0872 99.502Z" fill="#2D86DA"/>
<path d="M48.241 83.6315L54.1192 90.0972L61.1727 78.9289L52.3555 74.2266L48.241 83.6315Z" fill="#2D86DA"/>
<path d="M30.9009 67.4668C36.4415 69.5561 42.3546 69.3395 48.5352 67.4668V60.4131H30.9009V67.4668Z" fill="#2F2E41"/>
<path d="M305.894 188.551L299.815 191.084L259.291 135.87L229.911 192.097L222.313 190.578L244.601 113.075H270.435L305.894 188.551Z" fill="#2F2E41"/>
<path d="M314.048 201.431C313.711 201.523 313.359 201.547 313.013 201.502C312.666 201.458 312.332 201.345 312.029 201.171L299.21 193.79C298.864 193.591 298.568 193.315 298.346 192.983C298.124 192.651 297.981 192.273 297.929 191.877C297.877 191.481 297.916 191.078 298.044 190.7C298.173 190.322 298.386 189.979 298.669 189.696L299.814 188.55L305.893 188.044L315.185 196.965C315.523 197.289 315.769 197.697 315.898 198.148C316.026 198.599 316.033 199.075 315.918 199.529C315.802 199.983 315.568 200.398 315.24 200.732C314.911 201.067 314.5 201.308 314.048 201.431Z" fill="#2F2E41"/>
<path d="M214.663 203.457C215 203.549 215.352 203.573 215.698 203.529C216.045 203.484 216.379 203.372 216.682 203.197L229.501 195.816C229.847 195.617 230.143 195.341 230.365 195.009C230.587 194.677 230.73 194.299 230.782 193.903C230.834 193.507 230.795 193.105 230.667 192.727C230.538 192.348 230.325 192.005 230.043 191.723L228.897 190.577L222.818 190.07L213.526 198.991C213.188 199.316 212.942 199.724 212.813 200.174C212.685 200.625 212.678 201.101 212.793 201.555C212.909 202.01 213.143 202.425 213.471 202.759C213.8 203.093 214.211 203.334 214.663 203.457Z" fill="#2F2E41"/>
<path d="M227.378 32.5324L224.846 34.052L219.597 25.523C219.275 24.9992 219.083 24.4055 219.038 23.7921C218.993 23.1787 219.097 22.5634 219.339 21.9983C219.582 21.4332 219.957 20.9348 220.433 20.5451C220.909 20.1553 221.472 19.8857 222.073 19.759C222.609 19.6464 223.162 19.6494 223.696 19.768C224.229 19.8866 224.732 20.118 225.169 20.4466C225.606 20.7753 225.968 21.1936 226.23 21.6735C226.492 22.1535 226.649 22.6839 226.689 23.2293L227.378 32.5324Z" fill="#FFB9B9"/>
<path d="M297.538 98.9362L298.589 96.1758L307.988 99.6332C308.565 99.8456 309.083 100.194 309.498 100.648C309.912 101.102 310.211 101.65 310.37 102.244C310.528 102.838 310.542 103.462 310.409 104.063C310.276 104.663 310 105.223 309.606 105.695C309.255 106.114 308.818 106.454 308.325 106.691C307.833 106.927 307.295 107.056 306.748 107.068C306.201 107.08 305.658 106.975 305.155 106.76C304.653 106.545 304.202 106.225 303.833 105.821L297.538 98.9362Z" fill="#FFB9B9"/>
<path d="M257.771 62.926C261.967 62.926 265.369 59.5242 265.369 55.3277C265.369 51.1313 261.967 47.7295 257.771 47.7295C253.574 47.7295 250.172 51.1313 250.172 55.3277C250.172 59.5242 253.574 62.926 257.771 62.926Z" fill="#FFB9B9"/>
<path d="M264.356 71.5368H253.718V59.8862L262.836 58.873L264.356 71.5368Z" fill="#FFB9B9"/>
<path d="M271.954 116.114H243.081C244.099 100.004 244.905 84.4354 243.081 75.59L244.759 67.5313C244.992 66.4148 245.636 65.4266 246.564 64.7634C247.492 64.1003 248.636 63.8106 249.768 63.9521L253.718 64.4459C256.394 69.1494 259.627 69.104 263.343 64.9524H268.101C268.736 64.9524 269.364 65.079 269.949 65.3247C270.533 65.5703 271.064 65.9302 271.508 66.3832C271.952 66.8363 272.301 67.3733 272.535 67.963C272.769 68.5526 272.883 69.1831 272.871 69.8174C274.11 75.4933 274.523 81.3187 274.095 87.1126L271.954 116.114Z" fill="#3F3D56"/>
<path d="M223.326 32.5329L227.378 30.5068L249.16 66.472L243.081 75.5897L223.326 32.5329Z" fill="#3F3D56"/>
<path d="M297.596 100.377L301.059 97.456L282.657 71.6702C280.857 69.1475 278.375 67.19 275.502 66.027C272.629 64.8639 269.485 64.5434 266.436 65.1031L265.856 65.2097L272.814 77.3866L281.979 84.3254L297.596 100.377Z" fill="#3F3D56"/>
<path d="M266.559 50.8424C266.559 50.8424 267.978 47.7188 264.287 46.299C264.287 46.299 261.163 41.1876 254.916 44.5952C254.916 44.5952 250.657 46.299 250.657 50.8424C250.657 55.3858 249.237 56.2377 249.237 56.2377C249.237 56.2377 251.351 54.0686 251.919 52.3648C252.487 50.661 256.904 50.2745 258.608 51.9782C260.311 53.682 264.571 53.398 264.571 53.398L264.287 59.6453C264.287 59.6453 265.707 55.9537 266.275 55.9537C266.843 55.9537 267.411 50.8424 266.559 50.8424Z" fill="#2F2E41"/>
<path d="M265.856 220.878C291.533 220.878 312.348 219.794 312.348 218.457C312.348 217.119 291.533 216.035 265.856 216.035C240.18 216.035 219.365 217.119 219.365 218.457C219.365 219.794 240.18 220.878 265.856 220.878Z" fill="#E6E6E6"/>
<path d="M33.7293 219.737C47.3013 219.737 58.3036 219.164 58.3036 218.457C58.3036 217.75 47.3013 217.177 33.7293 217.177C20.1573 217.177 9.15503 217.75 9.15503 218.457C9.15503 219.164 20.1573 219.737 33.7293 219.737Z" fill="#E6E6E6"/>
<path d="M221.485 42.6024L72.0903 55.9917C71.3567 56.0566 70.6274 55.8278 70.0623 55.3557C69.4972 54.8835 69.1424 54.2065 69.0758 53.4731L65.7545 16.4146C65.6896 15.6811 65.9183 14.9518 66.3905 14.3866C66.8627 13.8215 67.5397 13.4667 68.2731 13.4001L217.668 0.0108194C218.401 -0.0540547 219.131 0.174677 219.696 0.646839C220.261 1.119 220.616 1.79604 220.682 2.52943L224.004 39.5879C224.068 40.3214 223.84 41.0508 223.368 41.6159C222.895 42.181 222.218 42.5358 221.485 42.6024Z" fill="#2D86DA"/>
<path d="M89.547 44.6262C95.99 44.6262 101.213 39.4031 101.213 32.9601C101.213 26.5171 95.99 21.2939 89.547 21.2939C83.104 21.2939 77.8809 26.5171 77.8809 32.9601C77.8809 39.4031 83.104 44.6262 89.547 44.6262Z" fill="white"/>
<path d="M115.689 22.8085C115.176 22.8555 114.703 23.104 114.373 23.4995C114.043 23.8951 113.883 24.4054 113.929 24.9183C113.975 25.4313 114.223 25.9051 114.618 26.2357C115.013 26.5663 115.523 26.7267 116.036 26.6817L207.332 18.4994C207.587 18.4769 207.835 18.4045 208.061 18.2863C208.288 18.168 208.489 18.0063 208.653 17.8102C208.817 17.6142 208.941 17.3878 209.017 17.1439C209.093 16.9001 209.121 16.6435 209.098 16.389C209.075 16.1344 209.003 15.8869 208.884 15.6605C208.766 15.4341 208.604 15.2332 208.407 15.0695C208.211 14.9058 207.984 14.7824 207.74 14.7063C207.496 14.6302 207.24 14.603 206.985 14.6262L115.689 22.8085Z" fill="white"/>
<path d="M116.73 34.4286C116.475 34.4509 116.227 34.5233 116.001 34.6415C115.774 34.7597 115.573 34.9214 115.409 35.1175C115.245 35.3135 115.121 35.54 115.044 35.7839C114.968 36.0278 114.94 36.2845 114.963 36.5391C114.986 36.7937 115.059 37.0414 115.177 37.2678C115.296 37.4943 115.458 37.6951 115.654 37.8589C115.851 38.0226 116.078 38.146 116.322 38.222C116.566 38.298 116.822 38.3251 117.077 38.3018L208.374 30.1195C208.628 30.097 208.876 30.0246 209.102 29.9064C209.329 29.7881 209.53 29.6264 209.694 29.4304C209.858 29.2343 209.982 29.0079 210.058 28.7641C210.135 28.5202 210.162 28.2636 210.139 28.0091C210.117 27.7545 210.044 27.507 209.925 27.2806C209.807 27.0542 209.645 26.8534 209.448 26.6896C209.252 26.5259 209.026 26.4025 208.782 26.3264C208.538 26.2503 208.281 26.2231 208.026 26.2463L116.73 34.4286Z" fill="white"/>
</svg>
