<svg width="147" height="115" viewBox="0 0 147 115" fill="none" xmlns="http://www.w3.org/2000/svg">
<path d="M41.7377 23.6945C41.7382 24.5767 41.5499 25.4487 41.1856 26.2521C40.8212 27.0555 40.2892 27.7717 39.6252 28.3525C38.9613 28.9333 38.1807 29.3654 37.336 29.6197C36.4913 29.874 35.602 29.9446 34.7277 29.8268C34.6986 29.825 34.6697 29.8206 34.6414 29.8138C34.4174 29.7822 34.1956 29.7371 33.977 29.6786C33.8321 29.6428 33.6905 29.5988 33.5504 29.55C32.601 29.2256 31.7446 28.6752 31.0552 27.9462C30.3658 27.2172 29.8641 26.3315 29.5931 25.3654C29.3222 24.3994 29.2903 23.3819 29.5001 22.4008C29.7099 21.4196 30.1551 20.5042 30.7974 19.7334C31.4397 18.9626 32.2598 18.3595 33.187 17.9762C34.1143 17.5929 35.1208 17.4408 36.1199 17.533C37.119 17.6253 38.0807 17.9591 38.922 18.5057C39.7634 19.0523 40.4592 19.7953 40.9496 20.6707C41.1313 20.9925 41.2828 21.3305 41.4022 21.6802C41.5328 22.0588 41.6256 22.4493 41.6791 22.8461C41.7099 23.0593 41.7284 23.274 41.7344 23.4893C41.736 23.5577 41.7377 23.6245 41.7377 23.6945Z" fill="#2F2E41"/>
<path d="M14.0441 52.4443L9.21474 54.4063C9.21474 54.4063 0.46146 51.8407 2.12157 54.4063C3.78167 56.9719 9.6675 56.0664 9.6675 56.0664L17.0625 54.4063L14.0441 52.4443Z" fill="#A0616A"/>
<path d="M39.5498 77.6475L40.0026 85.7971C40.0026 85.7971 40.0026 95.0032 40.6062 98.3234C41.2099 101.644 42.2663 107.379 42.2663 107.379L45.1338 107.077C45.1338 107.077 44.832 100.587 45.1338 98.9271C45.4356 97.267 45.1338 86.8536 45.1338 86.8536L45.5865 77.3457L39.5498 77.6475Z" fill="#A0616A"/>
<path d="M51.9248 76.2892L54.4904 85.0425C54.4904 85.0425 56.1505 95.0032 58.4143 99.5307L59.7726 103.907L63.5455 103.304L62.0363 97.116L59.7726 84.7407L58.1125 73.7236L51.9248 76.2892Z" fill="#A0616A"/>
<path d="M45.2842 105.115C45.2842 105.115 43.0204 104.813 41.6621 105.87C41.6621 105.87 42.1149 114.019 42.7185 114.17C43.3222 114.321 47.397 115.227 47.5479 114.17C47.6989 113.114 46.3406 110.85 46.3406 110.85L45.2842 105.115Z" fill="#2F2E41"/>
<path d="M59.1681 103.153C59.1681 103.153 59.9227 105.416 59.6209 105.718C59.319 106.02 58.1117 109.491 58.8663 109.944C59.6209 110.397 63.3938 112.208 63.8466 113.566C64.2993 114.924 70.7888 115.075 70.1852 113.868C69.5815 112.66 65.6576 109.189 65.6576 109.189L63.5447 102.549L59.1681 103.153Z" fill="#2F2E41"/>
<path d="M37.5867 30.5611C40.1705 30.5611 42.2652 28.4664 42.2652 25.8826C42.2652 23.2987 40.1705 21.2041 37.5867 21.2041C35.0028 21.2041 32.9082 23.2987 32.9082 25.8826C32.9082 28.4664 35.0028 30.5611 37.5867 30.5611Z" fill="#A0616A"/>
<path d="M34.1925 28.0711L31.9287 34.5606L39.6256 35.768C39.6256 35.768 38.2673 29.5803 39.1728 28.0711C40.0783 26.562 34.1925 28.0711 34.1925 28.0711Z" fill="#A0616A"/>
<path d="M59.7727 71.6105C59.4965 76.7203 51.3851 77.2806 50.0094 77.3389C49.9536 77.3413 49.8986 77.3246 49.8536 77.2914C49.8087 77.2583 49.7764 77.2108 49.7622 77.1567L48.1809 71.1705C48.1657 71.113 48.1301 71.063 48.0807 71.0298C48.0313 70.9966 47.9716 70.9825 47.9126 70.9902C47.8536 70.9978 47.7994 71.0267 47.7601 71.0714C47.7208 71.1161 47.6992 71.1736 47.6992 71.2331V77.1753C47.699 77.2255 47.6836 77.2744 47.655 77.3156C47.6264 77.3568 47.586 77.3883 47.539 77.406C38.0254 80.9667 34.1507 75.5359 33.7073 74.8497C33.6788 74.8053 33.6655 74.7527 33.6696 74.7001L35.2725 52.9886L35.3238 52.2929C35.2876 52.2748 35.2514 52.2552 35.2137 52.2325C32.1342 50.4468 27.8402 37.8407 27.244 36.0534C27.2248 35.9957 27.2277 35.9329 27.2523 35.8773C27.277 35.8217 27.3214 35.7772 27.377 35.7526L31.1851 34.0602C31.2269 34.0416 31.2626 34.0117 31.2883 33.9738L32.7115 31.8753C32.7328 31.8437 32.7612 31.8175 32.7944 31.7989C32.8276 31.7802 32.8647 31.7696 32.9028 31.7678C32.9408 31.7661 32.9787 31.7732 33.0135 31.7887C33.0483 31.8042 33.079 31.8277 33.1031 31.8571C33.6143 32.4803 34.831 33.5886 35.2095 33.9293C35.2437 33.9601 35.286 33.9806 35.3315 33.9883C35.3769 33.996 35.4236 33.9907 35.4662 33.9729L39.0084 32.5088C39.0418 32.495 39.0778 32.4888 39.1138 32.4905L43.8438 32.7186C44.4756 32.749 45.0801 32.9851 45.5654 33.3909C46.0506 33.7967 46.3899 34.3499 46.5317 34.9663L49.502 47.8804C49.5072 47.9038 49.516 47.9263 49.528 47.9471C49.5486 47.9826 49.5868 48.0486 49.6415 48.1427C49.7849 48.3902 50.0399 48.8369 50.378 49.439C52.8998 53.9153 60.0217 67.012 59.7727 71.6105Z" fill="#2F2E41"/>
<path d="M28.6076 36.5222L27.4002 35.7676C27.4002 35.7676 24.6837 37.4277 24.6837 38.9369C24.6837 40.4461 21.0616 46.3319 21.0616 46.3319L13.2139 52.5195L17.4396 55.9907L31.475 45.8791L28.6076 36.5222Z" fill="#2F2E41"/>
<path d="M146.864 114.698H16.9873V115H146.864V114.698Z" fill="#3F3D56"/>
<path d="M30.6786 20.3444C31.8688 20.3444 32.8337 19.3795 32.8337 18.1893C32.8337 16.9991 31.8688 16.0342 30.6786 16.0342C29.4883 16.0342 28.5234 16.9991 28.5234 18.1893C28.5234 19.3795 29.4883 20.3444 30.6786 20.3444Z" fill="#2F2E41"/>
<path d="M28.1126 17.8807C28.1127 17.3447 28.3125 16.8281 28.6731 16.4315C29.0336 16.0349 29.529 15.7869 30.0625 15.7359C29.9949 15.7296 29.9266 15.7256 29.8573 15.7256C29.2857 15.7256 28.7375 15.9526 28.3334 16.3568C27.9292 16.761 27.7021 17.3091 27.7021 17.8807C27.7021 18.4523 27.9292 19.0004 28.3334 19.4046C28.7375 19.8088 29.2857 20.0358 29.8573 20.0358C29.9266 20.0358 29.9949 20.0319 30.0625 20.0255C29.529 19.9745 29.0336 19.7265 28.6731 19.3299C28.3125 18.9334 28.1127 18.4167 28.1126 17.8807Z" fill="#2F2E41"/>
<path d="M40.5865 23.3399L41.4812 23.6652C41.7584 23.4912 42.3767 23.1472 42.4006 23.1336C42.3443 22.7125 41.6751 20.5863 41.4859 20.2521C40.2634 19.8225 39.0205 19.432 37.7384 19.2598C36.2687 19.0604 34.7275 19.1592 33.3806 19.7833C32.0354 20.4056 30.9135 21.6041 30.6049 23.0533C30.4532 23.7626 30.4805 24.5486 30.0542 25.1351C29.9687 25.2521 29.8684 25.3575 29.7559 25.4488C30.2038 26.7218 31.0015 27.8428 32.0575 28.6831C32.6705 29.1716 33.3601 29.5553 34.0984 29.8186L34.2006 29.8544C34.2006 29.8475 34.1989 29.839 34.1989 29.8322C34.1938 29.7827 34.1904 29.7333 34.1853 29.6839C34.1597 29.3991 34.1325 29.1178 34.1069 28.8331C34.0779 28.4989 34.0489 28.1511 34.1717 27.8391C34.2961 27.5271 34.6218 27.268 34.9491 27.3379C35.2782 27.4078 35.4453 27.9107 35.1673 28.0983C35.5186 28.3762 36.0522 28.2909 36.4154 28.0318C36.7802 27.7709 37.0189 27.3771 37.2678 27.0054C38.2591 25.5212 39.7004 24.8427 41.1871 23.8546L40.5865 23.3399Z" fill="#2F2E41"/>
<path d="M35.2727 52.9895L35.324 52.2938C35.2878 52.2757 35.2516 52.2561 35.2139 52.2335C38.3213 51.4668 46.735 49.3449 49.6417 48.1436C49.7851 48.3911 50.0401 48.8378 50.3782 49.4399C46.7184 50.2489 38.4103 52.1097 35.2727 52.9895Z" fill="#CFCCE0"/>
<path d="M36.7046 59.5165L1.91211 55.5918L0.000506567 72.5381L34.793 76.4628L36.7046 59.5165Z" fill="#3F3D56"/>
<path d="M16.873 68.6577C17.404 72.1272 20.2884 74.5642 20.2884 74.5642C20.2884 74.5642 22.3119 71.3761 21.7809 67.9066C21.2499 64.437 18.3655 62 18.3655 62C18.3655 62 16.342 65.1882 16.873 68.6577Z" fill="white"/>
<path d="M18.2922 68.0842C20.517 70.799 20.4004 74.5732 20.4004 74.5732C20.4004 74.5732 16.6767 73.946 14.452 71.2313C12.2272 68.5165 12.3438 64.7422 12.3438 64.7422C12.3438 64.7422 16.0675 65.3694 18.2922 68.0842Z" fill="#2D86DA"/>
<path opacity="0.1" d="M42.7943 40.5967L44.6054 47.388L41.2852 52.5193L42.7943 47.388V40.5967Z" fill="black"/>
<path d="M32.8334 31.2402C32.8334 31.2402 31.1733 33.6549 31.4752 33.9568C31.777 34.2586 35.2481 34.8623 35.2481 34.8623V33.9568L32.8334 31.2402Z" fill="#CFCCE0"/>
<path d="M39.021 31.2402C39.021 31.2402 40.6811 33.6549 40.3793 33.9568C40.0774 34.2586 35.248 34.8623 35.248 34.8623V33.9568L39.021 31.2402Z" fill="#CFCCE0"/>
<path d="M47.6233 70.6304C48.1234 70.6304 48.5288 70.2249 48.5288 69.7248C48.5288 69.2247 48.1234 68.8193 47.6233 68.8193C47.1232 68.8193 46.7178 69.2247 46.7178 69.7248C46.7178 70.2249 47.1232 70.6304 47.6233 70.6304Z" fill="#CFCCE0"/>
<path d="M46.5676 67.1587C47.0677 67.1587 47.4731 66.7533 47.4731 66.2532C47.4731 65.7531 47.0677 65.3477 46.5676 65.3477C46.0675 65.3477 45.6621 65.7531 45.6621 66.2532C45.6621 66.7533 46.0675 67.1587 46.5676 67.1587Z" fill="#CFCCE0"/>
<path d="M45.6614 63.688C46.1615 63.688 46.5669 63.2826 46.5669 62.7825C46.5669 62.2824 46.1615 61.877 45.6614 61.877C45.1613 61.877 44.7559 62.2824 44.7559 62.7825C44.7559 63.2826 45.1613 63.688 45.6614 63.688Z" fill="#CFCCE0"/>
<path d="M44.7561 60.0659C45.2562 60.0659 45.6616 59.6605 45.6616 59.1604C45.6616 58.6603 45.2562 58.2549 44.7561 58.2549C44.256 58.2549 43.8506 58.6603 43.8506 59.1604C43.8506 59.6605 44.256 60.0659 44.7561 60.0659Z" fill="#CFCCE0"/>
<path d="M43.5491 56.5942C44.0492 56.5942 44.4546 56.1888 44.4546 55.6887C44.4546 55.1886 44.0492 54.7832 43.5491 54.7832C43.049 54.7832 42.6436 55.1886 42.6436 55.6887C42.6436 56.1888 43.049 56.5942 43.5491 56.5942Z" fill="#CFCCE0"/>
<path d="M42.7189 52.8965L37.7386 57.1222C37.7386 57.1222 32.3055 61.8007 34.7202 63.008C37.1349 64.2154 40.0024 58.1786 40.0024 58.1786L46.6428 53.3492L42.7189 52.8965Z" fill="#A0616A"/>
<path d="M44.3783 33.2769C44.8924 33.1351 45.4373 33.1519 45.9417 33.3253C46.446 33.4987 46.8862 33.8204 47.2044 34.2483C47.5861 34.7376 47.9042 35.2732 48.1512 35.8425C48.604 37.0499 49.5095 54.7073 49.5095 54.7073L41.209 53.5L44.3783 47.3123V33.2769Z" fill="#2F2E41"/>
<path d="M71.2159 60.8916H70.9141V68.6775H71.2159V60.8916Z" fill="#3F3D56"/>
<path d="M120.41 114.938H78.1241C76.2123 114.936 74.3795 114.175 73.0278 112.823C71.6761 111.471 70.916 109.638 70.9141 107.726V82.4487H71.2159V107.726C71.2177 109.558 71.946 111.314 73.2411 112.61C74.5362 113.905 76.2923 114.634 78.1241 114.636H120.41C122.242 114.634 123.999 113.906 125.294 112.61C126.59 111.315 127.318 109.558 127.32 107.726V82.0869H127.622V107.726C127.62 109.638 126.86 111.471 125.508 112.823C124.156 114.175 122.322 114.936 120.41 114.938Z" fill="#3F3D56"/>
<path d="M127.622 60.9121H127.32V68.5161H127.622V60.9121Z" fill="#3F3D56"/>
<path d="M127.622 47.3089H127.32V39.9007H127.794C127.874 39.9006 127.951 39.8687 128.007 39.8121C128.064 39.7555 128.096 39.6787 128.096 39.5986V26.6076C128.096 26.5275 128.064 26.4508 128.007 26.3941C127.951 26.3375 127.874 26.3057 127.794 26.3056H127.32V7.21012C127.318 5.3783 126.589 3.6222 125.294 2.3271C123.998 1.03199 122.242 0.303638 120.41 0.301837H78.1241C76.2926 0.303918 74.5366 1.03242 73.2415 2.32753C71.9464 3.62264 71.218 5.37858 71.2159 7.21012V47.2874H70.9141V7.21012C70.9162 5.29855 71.6765 3.46589 73.0282 2.1142C74.3799 0.762508 76.2125 0.00217219 78.1241 0H120.41C122.322 0.00189211 124.155 0.762073 125.507 2.11377C126.859 3.46546 127.62 5.29828 127.622 7.21012V26.0038H127.794C127.954 26.004 128.107 26.0676 128.22 26.1808C128.334 26.294 128.397 26.4475 128.398 26.6076V39.5986C128.397 39.7587 128.334 39.9122 128.221 40.0254C128.107 40.1386 127.954 40.2023 127.794 40.2025H127.622V47.3089Z" fill="#3F3D56"/>
<path d="M101.424 3.77246H94.3143C94.1024 3.77246 93.9307 3.94421 93.9307 4.15608V4.98827C93.9307 5.20014 94.1024 5.37189 94.3143 5.37189H101.424C101.636 5.37189 101.807 5.20014 101.807 4.98827V4.15608C101.807 3.94421 101.636 3.77246 101.424 3.77246Z" fill="#E6E8EC"/>
<path d="M103.906 5.47945C104.407 5.47945 104.813 5.07328 104.813 4.57224C104.813 4.07121 104.407 3.66504 103.906 3.66504C103.405 3.66504 102.999 4.07121 102.999 4.57224C102.999 5.07328 103.405 5.47945 103.906 5.47945Z" fill="#E6E8EC"/>
<path d="M124.091 8.60695V108.312C124.09 109.5 123.618 110.639 122.778 111.479C121.938 112.318 120.798 112.79 119.611 112.79H79.1323C78.5439 112.791 77.961 112.676 77.4172 112.451C76.8733 112.227 76.3791 111.897 75.9629 111.481C75.5467 111.065 75.2167 110.571 74.9918 110.027C74.767 109.483 74.6516 108.901 74.6523 108.312V8.60695C74.6523 8.01863 74.7682 7.43605 74.9933 6.8925C75.2184 6.34896 75.5484 5.85507 75.9645 5.43906C76.3805 5.02305 76.8743 4.69306 77.4179 4.46793C77.9614 4.24279 78.544 4.12693 79.1323 4.12695H85.1907V4.90428C85.1907 5.88261 85.5794 6.82088 86.2712 7.51267C86.963 8.20445 87.9012 8.5931 88.8796 8.59311H109.466C110.444 8.5931 111.382 8.20445 112.074 7.51267C112.766 6.82088 113.155 5.88261 113.155 4.90428V4.12695H119.611C120.199 4.12676 120.782 4.24251 121.325 4.46758C121.869 4.69266 122.363 5.02264 122.779 5.43869C123.195 5.85473 123.525 6.34868 123.75 6.89231C123.975 7.43593 124.091 8.01858 124.091 8.60695Z" fill="#E6E8EC"/>
<path opacity="0.2" d="M116.745 88.1367H81.7314V105.191H116.745V88.1367Z" fill="black"/>
<path d="M130.129 61.0668H68.6113V47.1348H130.129V61.0668ZM68.9732 60.7049H129.768V47.4966H68.9732V60.7049Z" fill="#3F3D56"/>
<path d="M80.3726 51.8398H73.4971V58.7154H80.3726V51.8398Z" fill="#2D86DA"/>
<path d="M79.4689 57.8097H72.2314V50.5723H79.4689V57.8097ZM72.5933 57.4478H79.107V50.9341H72.5933V57.4478Z" fill="#3F3D56"/>
<path d="M123.074 52.0195H90.8672V52.3814H123.074V52.0195Z" fill="#3F3D56"/>
<path d="M123.074 54.5537H90.8672V54.9156H123.074V54.5537Z" fill="#3F3D56"/>
<path d="M123.074 57.0859H90.8672V57.4478H123.074V57.0859Z" fill="#3F3D56"/>
<path d="M130.129 82.4487H68.6113V68.5166H130.129V82.4487ZM68.9732 82.0868H129.768V68.8785H68.9732V82.0868Z" fill="#3F3D56"/>
<path d="M118.37 80.0967H125.245V73.2211H118.37V80.0967Z" fill="#2D86DA"/>
<path d="M126.512 79.1925H119.274V71.9551H126.512V79.1925ZM119.636 78.8306H126.15V72.3169H119.636L119.636 78.8306Z" fill="#3F3D56"/>
<path d="M107.875 73.4023H75.668V73.7642H107.875V73.4023Z" fill="#3F3D56"/>
<path d="M107.875 75.9355H75.668V76.2974H107.875V75.9355Z" fill="#3F3D56"/>
<path d="M107.875 78.4688H75.668V78.8306H107.875V78.4688Z" fill="#3F3D56"/>
<path d="M115.406 24.9131H83.1992V25.275H115.406V24.9131Z" fill="#3F3D56"/>
<path d="M115.406 27.4463H83.1992V27.8082H115.406V27.4463Z" fill="#3F3D56"/>
<path d="M115.406 29.9795H83.1992V30.3414H115.406V29.9795Z" fill="#3F3D56"/>
</svg>
