<svg width="144" height="106" viewBox="0 0 144 106" fill="none" xmlns="http://www.w3.org/2000/svg">
<path d="M10.7441 96.4858C10.8214 99.3724 11.3049 102.234 12.1804 104.985C12.2004 105.049 12.2214 105.112 12.2424 105.176H17.6024C17.5967 105.119 17.5909 105.055 17.5852 104.985C17.2278 100.877 15.1673 75.8701 17.631 71.5938C17.4156 71.9407 10.3286 83.4308 10.7441 96.4858Z" fill="#E6E6E6"/>
<path d="M11.147 104.986C11.1918 105.05 11.2385 105.114 11.2862 105.177H15.3071C15.2766 105.123 15.2414 105.059 15.2004 104.986C14.5361 103.787 12.5699 100.203 10.7448 96.4869C8.78343 92.4936 6.98405 88.3488 7.13559 86.8486C7.08889 87.187 5.73173 97.501 11.147 104.986Z" fill="#E6E6E6"/>
<path d="M113.284 105.246H57.3263C57.0516 105.246 56.7882 105.137 56.5939 104.942C56.3996 104.748 56.2904 104.485 56.29 104.21V90.3292C56.2904 90.0545 56.3996 89.7911 56.5939 89.5968C56.7882 89.4026 57.0516 89.2933 57.3263 89.293H113.284C113.558 89.2933 113.822 89.4026 114.016 89.5968C114.21 89.7911 114.32 90.0545 114.32 90.3292V104.21C114.32 104.485 114.21 104.748 114.016 104.942C113.822 105.137 113.558 105.246 113.284 105.246ZM57.3263 89.7075C57.1614 89.7076 57.0034 89.7732 56.8868 89.8898C56.7703 90.0063 56.7047 90.1644 56.7045 90.3292V104.21C56.7047 104.375 56.7703 104.533 56.8868 104.649C57.0034 104.766 57.1614 104.831 57.3263 104.832H113.284C113.449 104.831 113.607 104.766 113.723 104.649C113.84 104.533 113.905 104.375 113.906 104.21V90.3292C113.905 90.1644 113.84 90.0063 113.723 89.8898C113.607 89.7732 113.449 89.7076 113.284 89.7075H57.3263Z" fill="#E6E6E6"/>
<path d="M66.0209 100.959C68.3522 100.959 70.2421 99.069 70.2421 96.7377C70.2421 94.4065 68.3522 92.5166 66.0209 92.5166C63.6897 92.5166 61.7998 94.4065 61.7998 96.7377C61.7998 99.069 63.6897 100.959 66.0209 100.959Z" fill="#E6E6E6"/>
<path d="M75.7697 93.9238C75.5834 93.9241 75.4047 93.9984 75.273 94.1303C75.1413 94.2622 75.0674 94.441 75.0674 94.6274C75.0674 94.8137 75.1413 94.9925 75.273 95.1244C75.4047 95.2563 75.5834 95.3306 75.7697 95.3309H108.936C109.122 95.3309 109.301 95.2568 109.433 95.1248C109.565 94.9929 109.639 94.8139 109.639 94.6274C109.639 94.4408 109.565 94.2618 109.433 94.1299C109.301 93.998 109.122 93.9238 108.936 93.9238H75.7697Z" fill="#E6E6E6"/>
<path d="M75.7699 98.1445C75.5833 98.1445 75.4044 98.2187 75.2725 98.3506C75.1405 98.4825 75.0664 98.6615 75.0664 98.848C75.0664 99.0346 75.1405 99.2136 75.2725 99.3455C75.4044 99.4775 75.5833 99.5516 75.7699 99.5516H90.0414C90.2279 99.5516 90.4069 99.4775 90.5388 99.3455C90.6707 99.2136 90.7449 99.0346 90.7449 98.848C90.7449 98.6615 90.6707 98.4825 90.5388 98.3506C90.4069 98.2187 90.2279 98.1445 90.0414 98.1445H75.7699Z" fill="#E6E6E6"/>
<path d="M127.26 84.6709H71.3029C71.0281 84.6706 70.7647 84.5613 70.5705 84.3671C70.3762 84.1728 70.2669 83.9094 70.2666 83.6347V69.754C70.2669 69.4793 70.3762 69.2159 70.5705 69.0216C70.7647 68.8274 71.0281 68.7181 71.3029 68.7178H127.26C127.535 68.7181 127.798 68.8274 127.993 69.0216C128.187 69.2159 128.296 69.4793 128.297 69.754V83.6347C128.296 83.9094 128.187 84.1728 127.993 84.3671C127.798 84.5613 127.535 84.6706 127.26 84.6709ZM71.3029 69.1323C71.138 69.1325 70.98 69.198 70.8634 69.3146C70.7468 69.4311 70.6813 69.5892 70.6811 69.754V83.6347C70.6813 83.7995 70.7468 83.9576 70.8634 84.0741C70.98 84.1907 71.138 84.2563 71.3029 84.2564H127.26C127.425 84.2563 127.583 84.1907 127.7 84.0741C127.816 83.9576 127.882 83.7995 127.882 83.6347V69.754C127.882 69.5892 127.816 69.4311 127.7 69.3146C127.583 69.198 127.425 69.1325 127.26 69.1323H71.3029Z" fill="#E6E6E6"/>
<path d="M79.9975 80.3827C82.3288 80.3827 84.2186 78.4928 84.2186 76.1616C84.2186 73.8303 82.3288 71.9404 79.9975 71.9404C77.6662 71.9404 75.7764 73.8303 75.7764 76.1616C75.7764 78.4928 77.6662 80.3827 79.9975 80.3827Z" fill="#E6E6E6"/>
<path d="M89.7463 73.3477C89.5599 73.348 89.3813 73.4222 89.2496 73.5541C89.1179 73.686 89.0439 73.8648 89.0439 74.0512C89.0439 74.2376 89.1179 74.4163 89.2496 74.5482C89.3813 74.6801 89.5599 74.7544 89.7463 74.7547H122.912C123.099 74.7547 123.278 74.6806 123.41 74.5486C123.542 74.4167 123.616 74.2378 123.616 74.0512C123.616 73.8646 123.542 73.6857 123.41 73.5537C123.278 73.4218 123.099 73.3477 122.912 73.3477H89.7463Z" fill="#E6E6E6"/>
<path d="M89.7455 77.5684C89.5589 77.5684 89.38 77.6425 89.2481 77.7744C89.1161 77.9064 89.042 78.0853 89.042 78.2719C89.042 78.4585 89.1161 78.6374 89.2481 78.7693C89.38 78.9013 89.5589 78.9754 89.7455 78.9754H104.017C104.204 78.9754 104.382 78.9013 104.514 78.7693C104.646 78.6374 104.72 78.4585 104.72 78.2719C104.72 78.0853 104.646 77.9064 104.514 77.7744C104.382 77.6425 104.204 77.5684 104.017 77.5684H89.7455Z" fill="#E6E6E6"/>
<path d="M116.389 49.9235H60.4318C60.157 49.9232 59.8936 49.8139 59.6994 49.6196C59.5051 49.4254 59.3958 49.162 59.3955 48.8872V1.03625C59.3958 0.761518 59.5051 0.49813 59.6994 0.303866C59.8936 0.109602 60.157 0.000323139 60.4318 0H116.389C116.664 0.000323139 116.927 0.109602 117.122 0.303866C117.316 0.49813 117.425 0.761518 117.425 1.03625V48.8872C117.425 49.162 117.316 49.4254 117.122 49.6196C116.927 49.8139 116.664 49.9232 116.389 49.9235ZM60.4318 0.414499C60.2669 0.414678 60.1089 0.48024 59.9923 0.596803C59.8757 0.713366 59.8102 0.871406 59.81 1.03625V48.8872C59.8102 49.0521 59.8757 49.2101 59.9923 49.3267C60.1089 49.4433 60.2669 49.5088 60.4318 49.509H116.389C116.554 49.5088 116.712 49.4433 116.829 49.3267C116.945 49.2101 117.011 49.0521 117.011 48.8872V1.03625C117.011 0.871403 116.945 0.71336 116.829 0.596797C116.712 0.480234 116.554 0.414672 116.389 0.414493L60.4318 0.414499Z" fill="#E6E6E6"/>
<path d="M69.1264 45.6356C71.4577 45.6356 73.3475 43.7457 73.3475 41.4145C73.3475 39.0832 71.4577 37.1934 69.1264 37.1934C66.7951 37.1934 64.9053 39.0832 64.9053 41.4145C64.9053 43.7457 66.7951 45.6356 69.1264 45.6356Z" fill="#E6E6E6"/>
<path d="M78.8754 38.6006C78.6888 38.6006 78.5099 38.6747 78.3779 38.8066C78.246 38.9386 78.1719 39.1175 78.1719 39.3041C78.1719 39.4907 78.246 39.6696 78.3779 39.8016C78.5099 39.9335 78.6888 40.0076 78.8754 40.0076H112.041C112.228 40.0076 112.407 39.9335 112.539 39.8016C112.671 39.6696 112.745 39.4907 112.745 39.3041C112.745 39.1175 112.671 38.9386 112.539 38.8066C112.407 38.6747 112.228 38.6006 112.041 38.6006H78.8754Z" fill="#E6E6E6"/>
<path d="M78.8754 42.8213C78.6888 42.8213 78.5099 42.8954 78.3779 43.0273C78.246 43.1593 78.1719 43.3382 78.1719 43.5248C78.1719 43.7114 78.246 43.8903 78.3779 44.0223C78.5099 44.1542 78.6888 44.2283 78.8754 44.2283H93.1468C93.3334 44.2283 93.5123 44.1542 93.6443 44.0223C93.7762 43.8903 93.8503 43.7114 93.8503 43.5248C93.8503 43.3382 93.7762 43.1593 93.6443 43.0273C93.5123 42.8954 93.3334 42.8213 93.1468 42.8213H78.8754Z" fill="#E6E6E6"/>
<path d="M24.7203 54.8948L25.3371 59.8061C25.3873 60.2059 25.5305 60.5884 25.755 60.923C25.9795 61.2577 26.2793 61.5351 26.6303 61.7331C26.9812 61.9311 27.3737 62.0442 27.7762 62.0633C28.1787 62.0824 28.5801 62.0071 28.9483 61.8433C29.2748 61.6981 29.5676 61.4866 29.8082 61.2223C30.0487 60.9581 30.2318 60.6467 30.3458 60.308C30.4598 59.9693 30.5023 59.6107 30.4705 59.2547C30.4387 58.8988 30.3334 58.5533 30.1612 58.2402L27.5671 53.5234L26.7189 33.2441L21.2334 34.5234L24.7203 54.8948Z" fill="#FFB8B8"/>
<path d="M45.2661 100.421L40.9955 100.809L38.472 65.674L38.3749 74.7005L29.0573 99.5473L25.3691 96.6356L31.4838 71.8858L28.5721 58.1035H47.5954L45.2661 100.421Z" fill="#2F2E41"/>
<path d="M49.5014 105.169L41.5625 104.975C41.239 104.999 40.9143 104.949 40.6127 104.83C40.3112 104.71 40.0405 104.524 39.821 104.285C39.6016 104.046 39.4389 103.761 39.3454 103.45C39.2518 103.14 39.2297 102.812 39.2806 102.492L39.606 100.448C39.6681 100.058 39.8602 99.7002 40.1512 99.4334C40.4422 99.1665 40.8149 99.0059 41.2088 98.9778C42.5637 100.38 43.9652 100.173 45.404 98.6777L48.6766 101.998L49.1654 101.932C49.5519 101.88 49.9443 101.969 50.2711 102.182C50.5979 102.395 50.8374 102.718 50.946 103.092C51.0134 103.325 51.028 103.57 50.9887 103.81C50.9494 104.049 50.8572 104.276 50.7187 104.475C50.5803 104.674 50.3992 104.84 50.1886 104.96C49.9779 105.08 49.7432 105.151 49.5014 105.169Z" fill="#2F2E41"/>
<path d="M31.4181 104.907L23.4566 101.903C23.1321 101.781 22.8396 101.586 22.6008 101.335C22.362 101.084 22.1832 100.781 22.0777 100.451C21.9722 100.121 21.9428 99.7708 21.9917 99.4275C22.0406 99.0842 22.1664 98.7564 22.3599 98.4686L23.5944 96.6324C23.8299 96.2821 24.1769 96.0218 24.5791 95.8937C24.9813 95.7657 25.415 95.7776 25.8096 95.9273C26.4933 97.8965 27.9457 98.3256 30.0132 97.5222L32.0439 101.46L32.5474 101.616C32.9457 101.74 33.2865 102.002 33.5077 102.355C33.7289 102.709 33.8158 103.13 33.7526 103.542C33.7134 103.798 33.6174 104.043 33.4718 104.257C33.3261 104.471 33.1344 104.65 32.9107 104.781C32.687 104.912 32.4368 104.991 32.1786 105.013C31.9204 105.035 31.6605 104.998 31.4181 104.907Z" fill="#2F2E41"/>
<path d="M38.4718 14.2337C41.2592 14.2337 43.5188 11.9741 43.5188 9.18667C43.5188 6.39928 41.2592 4.13965 38.4718 4.13965C35.6844 4.13965 33.4248 6.39928 33.4248 9.18667C33.4248 11.9741 35.6844 14.2337 38.4718 14.2337Z" fill="#FFB8B8"/>
<path d="M39.0546 18.503L30.3193 18.3089C32.7196 15.6534 34.1776 12.8831 34.3958 9.96191H39.0546V18.503Z" fill="#FFB8B8"/>
<path d="M48.1772 60.8215C39.9315 58.7059 32.1947 57.2799 27.4067 59.851C28.2452 51.0359 27.2753 39.7834 24.3981 28.0227C23.4635 24.2027 24.0974 20.7606 27.5038 18.7954L32.0655 16.1748L39.0537 16.3689L42.6998 18.3861C44.4827 19.277 45.9262 20.7254 46.811 22.5114C47.6957 24.2974 47.9735 26.3234 47.602 28.2816C45.6429 38.5906 46.7015 49.717 48.1772 60.8215Z" fill="#3F3D56"/>
<path d="M49.925 54.6085L50.6091 59.5109C50.6648 59.91 50.6263 60.3166 50.4966 60.6982C50.367 61.0797 50.1499 61.4256 49.8626 61.7082C49.5754 61.9908 49.226 62.2023 48.8423 62.3256C48.4587 62.449 48.0515 62.4808 47.6534 62.4186C47.3003 62.3634 46.9625 62.2356 46.6614 62.0431C46.3603 61.8506 46.1024 61.5978 45.9041 61.3005C45.7058 61.0032 45.5714 60.668 45.5093 60.316C45.4473 59.9641 45.459 59.6031 45.5436 59.2559L46.8192 54.0262L42.3545 34.2263L47.9839 34.0322L49.925 54.6085Z" fill="#FFB8B8"/>
<path d="M29.3481 36.1683L20.2246 35.5859C20.9374 26.6109 22.9659 21.7044 26.0481 20.0566L29.3481 23.939V36.1683Z" fill="#3F3D56"/>
<path d="M41.9658 7.43908C40.1876 6.87023 39.2648 10.5163 36.6276 12.7773C36.0281 13.2913 34.5323 11.2872 34.007 11.9038L33.1577 9.31879C32.15 6.25183 33.9658 2.9084 37.123 2.23451C37.2068 2.21662 37.2913 2.20057 37.3766 2.18634C38.7536 1.95694 40.1667 2.24448 41.3446 2.99372C42.5224 3.74296 43.3818 4.90104 43.7576 6.24544C43.7833 6.3434 43.7889 6.44556 43.774 6.54574C43.7591 6.64592 43.7241 6.74205 43.671 6.82829C43.6179 6.91454 43.5478 6.98913 43.4651 7.04754C43.3824 7.10595 43.2886 7.14698 43.1896 7.16813L41.9658 7.43908Z" fill="#2F2E41"/>
<path d="M49.9254 34.4209L41.3843 36.3621L40.9961 22.3857L45.849 22.5799L49.9254 34.4209Z" fill="#3F3D56"/>
<path d="M143.301 104.874H0V105.262H143.301V104.874Z" fill="#3F3D56"/>
<path d="M129.684 33.234H73.7267C73.4519 33.2337 73.1886 33.1244 72.9943 32.9302C72.8 32.7359 72.6908 32.4725 72.6904 32.1978V7.64074C72.6908 7.36601 72.8 7.10262 72.9943 6.90836C73.1886 6.71409 73.4519 6.60481 73.7267 6.60449H129.684C129.959 6.60482 130.222 6.71409 130.417 6.90836C130.611 7.10262 130.72 7.36601 130.72 7.64074V32.1978C130.72 32.4725 130.611 32.7359 130.417 32.9302C130.222 33.1244 129.959 33.2337 129.684 33.234Z" fill="#2D86DA"/>
<path d="M85.1227 15.1631C85.0302 15.1629 84.9386 15.181 84.8531 15.2163C84.7676 15.2516 84.6899 15.3034 84.6244 15.3687C84.559 15.4341 84.5071 15.5117 84.4716 15.5971C84.4362 15.6825 84.418 15.7741 84.418 15.8666C84.418 15.9591 84.4362 16.0507 84.4716 16.1361C84.5071 16.2215 84.559 16.2991 84.6244 16.3645C84.6899 16.4298 84.7676 16.4816 84.8531 16.5169C84.9386 16.5522 85.0302 16.5703 85.1227 16.5701H118.289C118.475 16.5701 118.654 16.496 118.786 16.3641C118.918 16.2321 118.992 16.0532 118.992 15.8666C118.992 15.68 118.918 15.5011 118.786 15.3691C118.654 15.2372 118.475 15.1631 118.289 15.1631H85.1227Z" fill="white"/>
<path d="M85.1227 19.2402C85.0302 19.2401 84.9386 19.2582 84.8531 19.2935C84.7676 19.3287 84.6899 19.3805 84.6244 19.4459C84.559 19.5112 84.5071 19.5888 84.4716 19.6743C84.4362 19.7597 84.418 19.8513 84.418 19.9438C84.418 20.0362 84.4362 20.1278 84.4716 20.2133C84.5071 20.2987 84.559 20.3763 84.6244 20.4416C84.6899 20.507 84.7676 20.5588 84.8531 20.5941C84.9386 20.6293 85.0302 20.6474 85.1227 20.6473H118.289C118.475 20.6473 118.654 20.5732 118.786 20.4412C118.918 20.3093 118.992 20.1303 118.992 19.9438C118.992 19.7572 118.918 19.5782 118.786 19.4463C118.654 19.3144 118.475 19.2402 118.289 19.2402H85.1227Z" fill="white"/>
<path d="M85.1225 23.2676C84.9359 23.2676 84.7569 23.3417 84.625 23.4736C84.4931 23.6056 84.4189 23.7845 84.4189 23.9711C84.4189 24.1577 84.4931 24.3366 84.625 24.4686C84.7569 24.6005 84.9359 24.6746 85.1225 24.6746H99.3939C99.5805 24.6746 99.7594 24.6005 99.8914 24.4686C100.023 24.3366 100.097 24.1577 100.097 23.9711C100.097 23.7845 100.023 23.6056 99.8914 23.4736C99.7594 23.3417 99.5805 23.2676 99.3939 23.2676H85.1225Z" fill="white"/>
</svg>
