<svg width="126" height="143" viewBox="0 0 126 143" fill="none" xmlns="http://www.w3.org/2000/svg">
<g opacity="0.2">
<path opacity="0.2" d="M93.5915 129.911C93.4781 130.122 93.3473 130.324 93.2005 130.513C91.902 129.6 90.5812 128.704 89.2383 127.824L89.3254 127.652C89.6361 127.052 90.1012 126.545 90.6727 126.184C91.414 125.728 92.2498 125.628 92.9373 125.999C93.6249 126.37 94.0085 127.111 94.0492 127.976C94.0702 128.65 93.9123 129.318 93.5915 129.911Z" fill="#3F3D56"/>
<path opacity="0.2" d="M95.4007 126.517C96.2176 124.975 95.9251 123.22 94.7475 122.596C93.5699 121.972 91.9531 122.716 91.1362 124.259C90.3194 125.801 90.6119 127.556 91.7895 128.18C92.9671 128.804 94.5839 128.06 95.4007 126.517Z" fill="#3F3D56"/>
<path opacity="0.2" d="M97.2083 123.105C98.0252 121.563 97.7327 119.807 96.5551 119.184C95.3775 118.56 93.7607 119.304 92.9439 120.846C92.127 122.389 92.4195 124.144 93.5971 124.768C94.7747 125.392 96.3915 124.647 97.2083 123.105Z" fill="#3F3D56"/>
<path opacity="0.2" d="M99.0159 119.693C99.8328 118.151 99.5404 116.395 98.3627 115.772C97.1851 115.148 95.5683 115.892 94.7515 117.434C93.9346 118.976 94.2271 120.732 95.4047 121.356C96.5823 121.98 98.1991 121.235 99.0159 119.693Z" fill="#3F3D56"/>
<path opacity="0.2" d="M100.822 116.282C101.638 114.74 101.346 112.984 100.168 112.36C98.9908 111.737 97.374 112.481 96.5571 114.023C95.7403 115.565 96.0328 117.321 97.2104 117.945C98.388 118.569 100.005 117.824 100.822 116.282Z" fill="#3F3D56"/>
<path opacity="0.2" d="M103.068 87.565C102.969 87.04 102.908 86.5087 102.883 85.975L108.984 88.0283L102.9 84.863C102.988 83.2902 103.396 81.7519 104.1 80.3425C104.804 78.9331 105.788 77.6821 106.992 76.6662L112.887 85.1911L108.309 75.71C109.654 74.868 111.159 74.3121 112.728 74.0769C114.298 73.8417 115.899 73.9322 117.432 74.3427C118.965 74.7533 120.397 75.4752 121.638 76.4633C122.88 77.4515 123.905 78.6848 124.65 80.0864C125.394 81.488 125.842 83.0279 125.965 84.6101C126.088 86.1923 125.884 87.7829 125.366 89.2829C124.848 90.7828 124.026 92.16 122.952 93.3285C121.878 94.4971 120.576 95.432 119.125 96.075C119.275 96.8931 119.338 97.7251 119.31 98.5565L110.044 98.4823L119.177 99.9872C118.868 101.884 118.091 103.673 116.917 105.194C115.743 106.715 114.208 107.919 112.451 108.697C112.838 110.832 112.617 113.032 111.812 115.046C111.008 117.06 109.653 118.808 107.902 120.088C106.152 121.369 104.076 122.131 101.912 122.288C99.7491 122.444 97.5853 121.989 95.6685 120.974C93.7516 119.959 92.1591 118.425 91.073 116.547C89.9869 114.67 89.451 112.524 89.5266 110.357C89.6021 108.189 90.2862 106.086 91.5004 104.289C92.7147 102.491 94.4101 101.072 96.393 100.193C95.9312 97.6425 96.3397 95.0109 97.553 92.7205C98.7662 90.4302 100.714 88.6139 103.083 87.5632L103.068 87.565Z" fill="#2D86DA"/>
<path opacity="0.1" d="M117.967 103.541C116.756 105.834 114.808 107.651 112.437 108.699C112.823 110.833 112.602 113.033 111.798 115.047C110.993 117.062 109.638 118.809 107.888 120.09C106.137 121.37 104.061 122.133 101.898 122.289C99.7344 122.446 97.5706 121.99 95.6538 120.975C93.737 119.96 92.1445 118.426 91.0583 116.549C89.9722 114.671 89.4363 112.526 89.5119 110.358C89.5875 108.19 90.2715 106.088 91.4858 104.29C92.7 102.493 94.3955 101.074 96.3784 100.194C95.9299 97.7314 118.574 102.394 117.967 103.541Z" fill="black"/>
</g>
<g opacity="0.2">
<path opacity="0.2" d="M40.1971 115.209C40.3069 115.656 40.4551 116.094 40.64 116.516C43.4952 115.422 46.3831 114.372 49.3038 113.365C49.2779 113.246 49.2519 113.124 49.2223 112.994C48.9258 111.727 48.297 110.562 47.4005 109.618C46.2349 108.417 44.7226 107.831 43.2679 108.187C41.8131 108.543 40.7419 109.757 40.2582 111.354C39.8942 112.611 39.8731 113.942 40.1971 115.209Z" fill="#3F3D56"/>
<path opacity="0.2" d="M44.3958 112.782C46.8885 112.174 48.2636 109.036 47.4671 105.773C46.6706 102.511 44.0042 100.36 41.5115 100.968C39.0188 101.577 37.6437 104.715 38.4402 107.977C39.2367 111.24 41.9031 113.391 44.3958 112.782Z" fill="#3F3D56"/>
<path opacity="0.2" d="M42.6311 105.561C45.1238 104.952 46.4989 101.814 45.7024 98.5517C44.906 95.2894 42.2396 93.1381 39.7469 93.7467C37.2541 94.3553 35.8791 97.4933 36.6755 100.756C37.472 104.018 40.1384 106.169 42.6311 105.561Z" fill="#3F3D56"/>
<path opacity="0.2" d="M40.8684 98.3408C43.3611 97.7322 44.7362 94.5943 43.9398 91.332C43.1433 88.0697 40.4769 85.9184 37.9842 86.527C35.4914 87.1356 34.1164 90.2735 34.9128 93.5358C35.7093 96.7981 38.3757 98.9494 40.8684 98.3408Z" fill="#3F3D56"/>
<path opacity="0.2" d="M39.1057 91.1221C41.5984 90.5135 42.9735 87.3755 42.1771 84.1132C41.3806 80.8509 38.7142 78.6996 36.2215 79.3082C33.7287 79.9168 32.3537 83.0548 33.1501 86.3171C33.9466 89.5794 36.613 91.7306 39.1057 91.1221Z" fill="#3F3D56"/>
<path opacity="0.2" d="M42.4912 31.6896C42.9171 30.7548 43.2769 29.7912 43.568 28.806L31.2348 29.753L44.0887 26.7119C44.6661 23.7339 44.6297 20.6694 43.9819 17.706C43.3341 14.7425 42.0884 11.9424 40.3211 9.47694L25.2878 22.6089L38.3085 7.07331C36.1946 4.86986 33.6497 3.12509 30.8323 1.94757C28.015 0.770065 24.9854 0.185021 21.9322 0.228856C18.879 0.27269 15.8674 0.944465 13.085 2.20237C10.3027 3.46028 7.80893 5.27739 5.75908 7.54062C3.70924 9.80385 2.14714 12.4648 1.17002 15.3577C0.1929 18.2507 -0.178334 21.3138 0.0794175 24.3565C0.337169 27.3991 1.21839 30.3561 2.66824 33.0435C4.11809 35.7309 6.10554 38.0911 8.50689 39.9772C7.84299 41.4331 7.33905 42.9567 7.00393 44.5213L24.3482 48.7615L6.59437 47.2567C6.27169 50.9462 6.87448 54.6579 8.34813 58.0556C9.82179 61.4534 12.1198 64.4299 15.0339 66.7155C13.3041 70.5162 12.6787 74.7269 13.2292 78.8663C13.7796 83.0057 15.4838 86.9067 18.1467 90.1232C20.8097 93.3397 24.3241 95.742 28.288 97.0554C32.2519 98.3688 36.5053 98.5403 40.5621 97.5503C44.6189 96.5603 48.3152 94.4487 51.2285 91.457C54.1417 88.4653 56.1544 84.7141 57.0363 80.6325C57.9182 76.5509 57.6338 72.3034 56.2156 68.3758C54.7974 64.4482 52.3026 60.9989 49.0164 58.4223C51.0839 53.8801 51.5645 48.7748 50.3811 43.9265C49.1977 39.0783 46.4189 34.7685 42.4912 31.6896Z" fill="#2D86DA"/>
<path opacity="0.1" d="M7.14651 54.4733C8.32273 59.3224 11.102 63.6323 15.0338 66.7045C13.304 70.5052 12.6786 74.716 13.229 78.8553C13.7795 82.9947 15.4836 86.8957 18.1466 90.1122C20.8096 93.3288 24.3239 95.731 28.2878 97.0444C32.2517 98.3578 36.5052 98.5293 40.562 97.5393C44.6188 96.5493 48.3151 94.4377 51.2283 91.446C54.1416 88.4543 56.1543 84.7032 57.0362 80.6215C57.9181 76.5399 57.6337 72.2925 56.2155 68.3648C54.7972 64.4372 52.3024 60.9879 49.0163 58.4114C51.0159 54.0303 6.55348 52.0474 7.14651 54.4733Z" fill="black"/>
</g>
<path d="M103.762 31.1823H103.349V8.89546C103.349 3.98072 99.3035 0 94.3127 0H43.6957C38.705 0 34.6594 3.98442 34.6594 8.89546V18.1338H34.6279H34.539C34.3992 18.1328 34.2647 18.1872 34.1651 18.2852C34.0654 18.3831 34.0086 18.5166 34.0071 18.6564V23.1041C34.0086 23.2439 34.0654 23.3773 34.1651 23.4753C34.2647 23.5732 34.3992 23.6277 34.539 23.6267H34.6372H34.6687V28.1689H34.5056C34.4365 28.1685 34.368 28.1816 34.3039 28.2076C34.2399 28.2336 34.1816 28.2719 34.1324 28.3205C34.0831 28.369 34.044 28.4268 34.0171 28.4904C33.9902 28.5541 33.9761 28.6224 33.9756 28.6916V37.196C33.9766 37.3357 34.0329 37.4694 34.1322 37.5677C34.2316 37.666 34.3659 37.7209 34.5056 37.7204H34.6687V41.0562H34.5278C34.4586 41.0555 34.3898 41.0685 34.3256 41.0943C34.2613 41.1202 34.2028 41.1586 34.1534 41.2071C34.104 41.2557 34.0646 41.3135 34.0376 41.3773C34.0106 41.4411 33.9965 41.5096 33.996 41.5788V50.1667C33.9965 50.236 34.0106 50.3044 34.0376 50.3682C34.0646 50.432 34.104 50.4899 34.1534 50.5384C34.2028 50.587 34.2613 50.6253 34.3256 50.6512C34.3898 50.6771 34.4586 50.69 34.5278 50.6893H34.6687V128.595C34.6687 133.51 38.7143 137.49 43.705 137.49H94.3109C99.3016 137.49 103.347 133.506 103.347 128.595V47.8502H103.762C103.902 47.8511 104.037 47.7967 104.136 47.6987C104.236 47.6008 104.293 47.4673 104.294 47.3275V31.7049C104.293 31.5651 104.236 31.4317 104.136 31.3337C104.037 31.2357 103.902 31.1813 103.762 31.1823Z" fill="url(#paint0_linear)"/>
<g opacity="0.9">
<path opacity="0.9" d="M102.958 31.7275H101.811C101.577 31.7275 101.387 31.9175 101.387 32.1519V47.7635C101.387 47.9978 101.577 48.1878 101.811 48.1878H102.958C103.193 48.1878 103.383 47.9978 103.383 47.7635V32.1519C103.383 31.9175 103.193 31.7275 102.958 31.7275Z" fill="#E5E7EB"/>
<path opacity="0.9" d="M35.7144 18.834H35.442C35.2076 18.834 35.0176 19.024 35.0176 19.2584V23.8284C35.0176 24.0628 35.2076 24.2528 35.442 24.2528H35.7144C35.9488 24.2528 36.1388 24.0628 36.1388 23.8284V19.2584C36.1388 19.024 35.9488 18.834 35.7144 18.834Z" fill="#E5E7EB"/>
<path opacity="0.9" d="M35.8161 28.7539H35.4009C35.1666 28.7539 34.9766 28.9439 34.9766 29.1783V37.7606C34.9766 37.9949 35.1666 38.1849 35.4009 38.1849H35.8161C36.0505 38.1849 36.2405 37.9949 36.2405 37.7606V29.1783C36.2405 28.9439 36.0505 28.7539 35.8161 28.7539Z" fill="#E5E7EB"/>
<path opacity="0.9" d="M35.7754 41.4854H35.4215C35.1871 41.4854 34.9971 41.6754 34.9971 41.9097V50.5735C34.9971 50.8079 35.1871 50.9979 35.4215 50.9979H35.7754C36.0098 50.9979 36.1998 50.8079 36.1998 50.5735V41.9097C36.1998 41.6754 36.0098 41.4854 35.7754 41.4854Z" fill="#E5E7EB"/>
<path opacity="0.9" d="M95.2379 0.925781H42.8771C38.8864 0.925781 35.6514 4.16084 35.6514 8.15149V129.487C35.6514 133.478 38.8864 136.713 42.8771 136.713H95.2379C99.2286 136.713 102.464 133.478 102.464 129.487V8.15149C102.464 4.16084 99.2286 0.925781 95.2379 0.925781Z" fill="white"/>
<path opacity="0.9" d="M71.228 4.98047H63.3315C62.9354 4.98047 62.6143 5.30157 62.6143 5.69766V6.15726C62.6143 6.55336 62.9354 6.87446 63.3315 6.87446H71.228C71.6241 6.87446 71.9452 6.55336 71.9452 6.15726V5.69766C71.9452 5.30157 71.6241 4.98047 71.228 4.98047Z" fill="#E5E7EB"/>
<path opacity="0.9" d="M74.4284 7.00325C75.022 7.00325 75.5033 6.52202 75.5033 5.92838C75.5033 5.33475 75.022 4.85352 74.4284 4.85352C73.8347 4.85352 73.3535 5.33475 73.3535 5.92838C73.3535 6.52202 73.8347 7.00325 74.4284 7.00325Z" fill="#E5E7EB"/>
</g>
<path d="M93.0315 4.46387H85.3832V5.39048C85.3828 6.54912 84.9221 7.66015 84.1027 8.47926C83.2832 9.29837 82.172 9.75852 81.0134 9.75852H56.6287C55.47 9.75852 54.3588 9.29837 53.5393 8.47926C52.7199 7.66015 52.2593 6.54912 52.2588 5.39048V4.46387H45.0831C43.6759 4.46387 42.3264 5.02287 41.3314 6.01789C40.3363 7.01292 39.7773 8.36246 39.7773 9.76964V127.872C39.7773 129.279 40.3363 130.628 41.3314 131.623C42.3264 132.618 43.6759 133.177 45.0831 133.177H93.0315C94.4387 133.177 95.7882 132.618 96.7832 131.623C97.7783 130.628 98.3372 129.279 98.3372 127.872V9.76964C98.3372 8.36246 97.7783 7.01292 96.7832 6.01789C95.7882 5.02287 94.4387 4.46387 93.0315 4.46387Z" fill="#ECECF3"/>
<path d="M16.1533 141.433C22.0067 141.433 26.7518 140.63 26.7518 139.641C26.7518 138.651 22.0067 137.849 16.1533 137.849C10.2998 137.849 5.55469 138.651 5.55469 139.641C5.55469 140.63 10.2998 141.433 16.1533 141.433Z" fill="#2D86DA"/>
<path d="M20.5359 136.708C20.9899 136.285 21.4162 135.781 21.5459 135.183C21.6756 134.584 21.4199 133.85 20.8398 133.63C20.1912 133.381 19.4981 133.83 18.9736 134.284C18.4492 134.738 17.845 135.257 17.1575 135.16C17.5126 134.839 17.7781 134.431 17.9279 133.976C18.0777 133.521 18.1066 133.035 18.0118 132.566C17.9822 132.373 17.9001 132.191 17.7746 132.041C17.4151 131.656 16.7627 131.821 16.3309 132.125C14.9614 133.088 14.5778 134.951 14.5704 136.628C14.4314 136.022 14.5481 135.392 14.5444 134.775C14.5407 134.158 14.3721 133.466 13.8495 133.133C13.5228 132.958 13.1559 132.873 12.7857 132.885C12.1704 132.862 11.4885 132.923 11.0641 133.374C10.5396 133.93 10.6768 134.873 11.1308 135.49C11.5848 136.107 12.2779 136.493 12.9154 136.919C13.3991 137.243 13.8902 137.621 14.1886 138.135C14.2278 138.203 14.2595 138.276 14.2831 138.352H18.1434C19.0111 137.914 19.8158 137.361 20.5359 136.708Z" fill="#2D86DA"/>
<g opacity="0.4">
<path opacity="0.4" d="M114.886 130.804C118.227 130.804 120.935 130.346 120.935 129.781C120.935 129.216 118.227 128.758 114.886 128.758C111.545 128.758 108.837 129.216 108.837 129.781C108.837 130.346 111.545 130.804 114.886 130.804Z" fill="#2D86DA"/>
<path opacity="0.4" d="M117.385 128.107C117.661 127.882 117.862 127.579 117.963 127.238C118.037 126.891 117.889 126.476 117.559 126.35C117.188 126.209 116.794 126.465 116.494 126.721C116.193 126.977 115.85 127.277 115.458 127.221C115.661 127.038 115.813 126.805 115.898 126.545C115.984 126.285 116 126.007 115.945 125.739C115.928 125.629 115.881 125.525 115.81 125.44C115.604 125.22 115.231 125.314 114.987 125.487C114.205 126.043 113.986 127.101 113.981 128.057C113.903 127.712 113.969 127.353 113.968 126.999C113.966 126.645 113.868 126.258 113.569 126.061C113.383 125.962 113.174 125.913 112.963 125.92C112.611 125.907 112.222 125.942 111.979 126.198C111.681 126.519 111.759 127.054 112.018 127.407C112.277 127.759 112.672 127.979 113.037 128.222C113.328 128.396 113.576 128.633 113.764 128.915C113.786 128.954 113.804 128.996 113.817 129.039H116.023C116.517 128.791 116.975 128.478 117.385 128.107Z" fill="#2D86DA"/>
</g>
<g opacity="0.4">
<path opacity="0.4" d="M22.2384 119.308C25.5791 119.308 28.2873 118.85 28.2873 118.285C28.2873 117.72 25.5791 117.262 22.2384 117.262C18.8976 117.262 16.1895 117.72 16.1895 118.285C16.1895 118.85 18.8976 119.308 22.2384 119.308Z" fill="#2D86DA"/>
<path opacity="0.4" d="M24.7404 116.611C25.0168 116.387 25.2179 116.083 25.3168 115.74C25.3909 115.396 25.2445 114.98 24.9128 114.854C24.5421 114.714 24.1474 114.969 23.849 115.225C23.5506 115.481 23.2041 115.781 22.8131 115.725C23.0155 115.542 23.1668 115.308 23.2522 115.048C23.3376 114.789 23.3542 114.511 23.3005 114.243C23.2829 114.133 23.2362 114.029 23.1652 113.943C22.9595 113.724 22.587 113.819 22.3405 113.991C21.5584 114.547 21.3398 115.603 21.336 116.559C21.2564 116.215 21.3231 115.855 21.3212 115.501C21.3194 115.147 21.223 114.76 20.9246 114.575C20.7382 114.474 20.5284 114.425 20.3168 114.432C19.9665 114.419 19.5755 114.454 19.3346 114.712C19.0362 115.032 19.114 115.568 19.3735 115.92C19.6329 116.272 20.0277 116.491 20.3909 116.735C20.6824 116.909 20.9308 117.146 21.1174 117.429C21.1396 117.468 21.1582 117.51 21.173 117.553H23.3764C23.8714 117.302 24.3302 116.985 24.7404 116.611Z" fill="#2D86DA"/>
</g>
<path d="M53.7376 14.2695H44.2695V23.7376H53.7376V14.2695Z" fill="#D6D8E0"/>
<path d="M80.5625 14.9463H60.7256V16.7495H80.5625V14.9463Z" fill="#D6D8E0"/>
<path d="M93.4108 18.1016H60.7256V19.9047H93.4108V18.1016Z" fill="#D6D8E0"/>
<path d="M93.4108 21.2578H60.7256V23.061H93.4108V21.2578Z" fill="#D6D8E0"/>
<path d="M53.8109 31.627H44.3428V41.0951H53.8109V31.627Z" fill="#D6D8E0"/>
<path d="M80.6337 32.3027H60.7969V34.1059H80.6337V32.3027Z" fill="#D6D8E0"/>
<path d="M93.4821 35.46H60.7969V37.2631H93.4821V35.46Z" fill="#D6D8E0"/>
<path d="M93.4821 38.6143H60.7969V40.4174H93.4821V38.6143Z" fill="#D6D8E0"/>
<path d="M53.8831 48.9844H44.415V58.4525H53.8831V48.9844Z" fill="#D6D8E0"/>
<path d="M80.708 49.6592H60.8711V51.4624H80.708V49.6592Z" fill="#D6D8E0"/>
<path d="M93.5563 52.8154H60.8711V54.6186H93.5563V52.8154Z" fill="#D6D8E0"/>
<path d="M93.5563 55.9707H60.8711V57.7739H93.5563V55.9707Z" fill="#D6D8E0"/>
<path d="M53.9554 66.3389H44.4873V75.807H53.9554V66.3389Z" fill="#D6D8E0"/>
<path d="M80.7802 67.0166H60.9434V68.8198H80.7802V67.0166Z" fill="#D6D8E0"/>
<path d="M93.6286 70.1719H60.9434V71.9751H93.6286V70.1719Z" fill="#D6D8E0"/>
<path d="M93.6286 73.3281H60.9434V75.1313H93.6286V73.3281Z" fill="#D6D8E0"/>
<path d="M54.0296 83.6973H44.5615V93.1654H54.0296V83.6973Z" fill="#D6D8E0"/>
<path d="M80.8535 84.373H61.0166V86.1762H80.8535V84.373Z" fill="#D6D8E0"/>
<path d="M93.7018 87.5293H61.0166V89.3325H93.7018V87.5293Z" fill="#D6D8E0"/>
<path d="M93.7018 90.6855H61.0166V92.4887H93.7018V90.6855Z" fill="#D6D8E0"/>
<path d="M54.1019 101.055H44.6338V110.523H54.1019V101.055Z" fill="#D6D8E0"/>
<path d="M80.9248 101.731H61.0879V103.535H80.9248V101.731Z" fill="#D6D8E0"/>
<path d="M93.7731 104.887H61.0879V106.69H93.7731V104.887Z" fill="#D6D8E0"/>
<path d="M93.7731 108.043H61.0879V109.846H93.7731V108.043Z" fill="#D6D8E0"/>
<path d="M54.1742 118.411H44.7061V127.879H54.1742V118.411Z" fill="#D6D8E0"/>
<path d="M80.997 119.088H61.1602V120.891H80.997V119.088Z" fill="#D6D8E0"/>
<path d="M93.8454 122.244H61.1602V124.047H93.8454V122.244Z" fill="#D6D8E0"/>
<path d="M93.8454 125.399H61.1602V127.203H93.8454V125.399Z" fill="#D6D8E0"/>
<path d="M109.407 42.8184H28.709V62.8795H109.407V42.8184Z" fill="url(#paint1_linear)"/>
<path d="M109.181 43.2705H29.1592V62.431H109.181V43.2705Z" fill="white"/>
<path d="M54.0687 48.1172H44.6006V57.5853H54.0687V48.1172Z" fill="#2D86DA"/>
<g opacity="0.5">
<path opacity="0.5" d="M80.8935 48.7939H61.0566V50.5971H80.8935V48.7939Z" fill="#2D86DA"/>
<path opacity="0.5" d="M93.7409 51.9502H61.0557V53.7534H93.7409V51.9502Z" fill="#2D86DA"/>
<path opacity="0.5" d="M93.7409 55.1055H61.0557V56.9087H93.7409V55.1055Z" fill="#2D86DA"/>
</g>
<path d="M57.4657 60.3297C56.9616 59.8312 56.1239 59.6662 55.5179 60.0332C55.0472 60.3167 54.7878 60.8449 54.5506 61.3434C54.204 62.0847 53.6962 62.7778 53.5406 63.5784C53.1125 65.7856 51.3556 67.4998 50.6514 69.6329C50.3993 70.3945 50.2807 71.2118 49.8823 71.9068C49.694 72.2111 49.4834 72.501 49.2522 72.7741C48.3404 73.9242 47.534 75.1541 46.843 76.449C46.4427 76.5268 46.0869 76.866 45.7459 77.131C45.309 77.4707 44.8029 77.7104 44.2633 77.8334C44.0461 77.859 43.8379 77.9351 43.6555 78.0558C43.3997 78.2689 43.3645 78.6525 43.157 78.9101C43.0062 79.0789 42.8148 79.2065 42.601 79.2807C42.601 79.2159 42.5917 79.151 42.5899 79.0843C42.5806 78.7414 42.575 78.3967 42.575 78.0521C43.1727 77.3484 43.4998 76.4547 43.4978 75.5315C43.4957 74.6083 43.1646 73.716 42.5639 73.015C42.5785 72.4783 42.65 71.9447 42.7771 71.4231C42.8419 71.1692 42.8326 70.8578 42.6269 70.6929C42.525 70.6132 42.3934 70.5836 42.2841 70.5076C42.13 70.3773 42.0039 70.2172 41.9135 70.0369C41.639 69.6479 41.2348 69.3695 40.7736 69.2516C40.3124 69.1338 39.8242 69.1842 39.3968 69.3938C38.7278 69.7459 38.3219 70.4501 37.7289 70.9283C37.4249 71.1729 37.0747 71.3564 36.7708 71.6028C36.1625 72.1336 35.7301 72.8368 35.531 73.6191C35.3361 74.3984 35.223 75.1959 35.1937 75.9987C35.162 76.2394 35.1714 76.4838 35.2215 76.7214C35.2814 76.9203 35.3734 77.1081 35.4939 77.2774C36.0587 78.1965 36.8524 78.9532 37.7974 79.4735C37.8012 79.521 37.8012 79.5687 37.7974 79.6162C37.7974 79.6903 37.7734 79.7626 37.7567 79.8367L37.6492 79.8071C37.2526 79.7181 36.8245 79.7292 36.4687 79.5309C35.8608 79.1899 35.6774 78.3578 35.0955 77.9761C35.046 77.944 34.9939 77.9161 34.9398 77.8927C34.8987 76.8386 34.6975 75.7969 34.343 74.8034C34.1725 74.3289 33.9631 73.8452 33.9891 73.3393C34.0113 72.8704 34.2356 72.4386 34.4357 72.0143C35.1344 70.5502 35.6236 68.9972 36.1036 67.4498C36.4112 66.4775 36.7201 65.5045 37.0302 64.531C37.332 64.3069 37.6052 64.0468 37.8438 63.7563C38.3383 63.1806 38.6647 62.4798 38.7871 61.7307C38.8458 61.3569 38.8301 60.9752 38.7407 60.6076C38.6513 60.2399 38.4901 59.8935 38.2663 59.5884C38.1675 59.4426 38.0386 59.3196 37.8884 59.2275C37.7382 59.1355 37.5701 59.0766 37.3953 59.0547C37.2416 59.058 37.0903 59.0926 36.9504 59.1563C36.8105 59.22 36.6851 59.3116 36.5817 59.4253C36.2745 59.7758 36.0379 60.1823 35.8849 60.6225C35.581 61.3397 35.2734 62.0847 35.303 62.8631C35.3271 63.508 35.568 64.2289 35.1918 64.7533C33.9594 66.4713 33.0291 68.4468 32.0525 70.326C31.8056 70.7748 31.5937 71.2419 31.4187 71.7233C31.1825 72.504 31.0706 73.317 31.0869 74.1325C31.0777 75.6614 31.2871 77.1829 31.4946 78.6988C31.5892 79.3827 31.7096 80.1091 32.0339 80.7003C31.8215 81.4329 31.7099 82.1911 31.7022 82.9538C31.6936 83.1299 31.7214 83.3059 31.7837 83.4709C31.8928 83.6627 32.031 83.8365 32.1933 83.9861C32.4106 84.2329 32.5726 84.5232 32.6684 84.8377C32.7643 85.1522 32.7919 85.4836 32.7493 85.8096C32.6949 86.4237 32.7508 87.0425 32.9142 87.6369C33.2849 89.2826 33.6555 90.9264 33.952 92.585C34.0224 92.8935 34.0462 93.2109 34.0224 93.5264C33.965 93.9749 33.7167 94.4012 33.7704 94.8515C33.8235 95.06 33.8631 95.2717 33.889 95.4853C33.8769 95.6483 33.8394 95.8083 33.7778 95.9597C33.3553 97.1884 32.2193 100.005 32.2322 101.306L32.5287 101.236C32.2304 102.924 31.5317 104.538 31.1648 106.221C30.9103 107.447 30.7946 108.698 30.8201 109.95C30.8445 110.512 30.8346 111.075 30.7904 111.636C30.733 112.135 30.6051 112.622 30.5347 113.119C30.455 113.785 30.4252 114.455 30.4457 115.126C30.4264 116.179 30.4884 117.232 30.631 118.276C30.9146 120.055 30.4179 121.823 30.2826 123.619C30.2141 124.875 30.0718 126.127 29.8564 127.366C29.7545 127.889 29.6266 128.408 29.5562 128.936C29.3486 130.504 29.6507 132.12 29.3245 133.667C29.1707 134.392 28.8964 135.205 29.3004 135.824C29.4283 136.019 29.6118 136.171 29.7508 136.358C29.8269 136.447 29.8789 136.553 29.9016 136.668C29.9243 136.783 29.917 136.901 29.8805 137.012C29.8008 137.183 29.6155 137.294 29.5691 137.476C29.495 137.761 29.7934 137.994 30.0603 138.117L30.1362 138.146C30.1188 138.244 30.1227 138.344 30.1477 138.44C30.1726 138.536 30.218 138.626 30.2808 138.702C30.4394 138.852 30.6363 138.955 30.8497 138.999L34.3486 140.059C35.1288 140.296 35.9776 140.53 36.7578 140.337C36.7754 140.448 36.8235 140.552 36.8968 140.637C37.0554 140.787 37.2523 140.889 37.4657 140.934L40.9387 141.986C41.8319 142.257 42.8123 142.524 43.6703 142.157C43.9161 142.056 44.1318 141.893 44.2967 141.684C44.4329 141.484 44.5235 141.256 44.5619 141.017C44.6004 140.778 44.5857 140.533 44.5191 140.3C44.4756 140.063 44.3574 139.846 44.1818 139.681C43.9441 139.516 43.6632 139.423 43.3738 139.416C43.1268 139.408 42.8848 139.345 42.6659 139.231C42.5998 139.188 42.5446 139.13 42.5046 139.062C42.7048 138.864 42.8987 138.659 43.0865 138.447C42.9346 138.395 42.8808 138.176 42.866 138.017C42.6455 135.656 43.535 133.348 43.8723 131.002C44.0427 129.825 44.0725 128.632 43.9613 127.448C43.9205 127.001 43.8593 126.556 43.8408 126.108C43.7537 123.773 44.8693 121.527 44.8304 119.19C44.8119 118.096 45.3864 117.018 45.6662 115.96C45.9108 115.022 45.9183 114.04 45.9238 113.069L45.9683 105.422C45.9683 104.388 45.9683 103.33 45.6384 102.353C45.4719 101.81 45.4264 101.237 45.505 100.674C46.4483 100.257 47.3415 99.6402 48.3497 99.7477C48.6184 99.0342 48.2996 96.6565 48.0476 95.9356C47.0568 93.0993 46.8644 90.0451 47.4916 87.1069C47.7196 86.0524 47.4064 84.9312 47.6603 83.8804C47.7069 83.6338 47.8007 83.3984 47.9364 83.1873C48.0052 83.0821 48.0997 82.9961 48.2109 82.9374C48.3221 82.8787 48.4464 82.8493 48.5721 82.8519C48.5721 82.2088 48.5591 81.5546 48.5165 80.9023C48.9258 80.5681 49.2749 80.1663 49.5487 79.7144C50.1047 78.7878 50.4216 77.7444 50.8052 76.7363C51.4853 74.9572 52.4138 73.2874 53.194 71.5472C53.9742 69.8071 54.0502 67.9038 54.6766 66.1025C55.0216 65.1104 55.7349 64.2889 56.6688 63.8082C57.0394 63.6229 57.4342 63.4894 57.7029 63.1855C57.9063 62.9322 58.0312 62.6249 58.0624 62.3015C58.1202 61.9491 58.0965 61.5881 57.9931 61.2463C57.8896 60.9045 57.7092 60.5909 57.4657 60.3297ZM35.783 136.892C35.859 136.808 35.9331 136.725 36.0035 136.634C35.77 136.597 35.4846 136.427 35.4791 136.189C35.4958 135.952 35.547 135.718 35.631 135.494C35.7407 135.092 35.7584 134.67 35.6829 134.26C35.631 133.973 35.5347 133.704 35.4754 133.411C35.4188 133.094 35.3817 132.773 35.3642 132.451C35.2642 131.296 35.038 130.155 34.6896 129.049C34.3542 127.976 34.8138 126.89 34.9324 125.772C34.9898 125.242 34.9639 124.696 35.1492 124.197C35.2585 123.901 35.4383 123.641 35.5476 123.341C35.8015 122.653 35.6514 121.888 35.4957 121.171C36.5929 119.182 36.9561 116.81 37.3694 114.572C37.6016 113.315 37.8339 112.059 38.0662 110.804C38.1681 110.248 38.2811 109.662 38.6221 109.214C38.9831 110.877 39.1251 112.581 39.0447 114.281C39.002 114.774 39.0082 115.271 39.0632 115.763C39.1484 116.303 39.3727 116.812 39.5024 117.342C39.7915 118.512 39.6229 119.74 39.6877 120.943C39.7118 121.429 39.7748 121.914 39.7952 122.4C39.886 124.547 39.167 126.636 38.4572 128.665C38.0217 129.909 37.9253 131.323 37.7159 132.626C37.5195 133.873 37.3249 135.122 37.2248 136.38C37.1951 136.764 37.1711 137.159 37.1247 137.548C37.0055 137.521 36.8849 137.502 36.7634 137.49C36.5164 137.483 36.2743 137.42 36.0554 137.305C35.9244 137.198 35.8293 137.054 35.783 136.892Z" fill="url(#paint2_linear)"/>
<path d="M43.3767 139.434C43.6657 139.442 43.9463 139.533 44.1847 139.697C44.3599 139.861 44.478 140.076 44.522 140.312C44.5885 140.544 44.6031 140.787 44.5647 141.025C44.5262 141.263 44.4357 141.49 44.2996 141.689C44.1345 141.896 43.9187 142.057 43.6732 142.156C42.8152 142.527 41.8348 142.258 40.9416 141.989L37.4427 140.935C37.2294 140.891 37.0324 140.789 36.8738 140.64C36.7776 140.511 36.7244 140.354 36.7218 140.193C36.7191 140.032 36.7671 139.874 36.8589 139.741C37.0471 139.48 37.3036 139.275 37.6002 139.15C38.6899 138.62 39.9167 138.498 41.1213 138.475C41.5661 138.466 42.0035 138.37 42.3055 138.713C42.4649 138.898 42.4371 139.094 42.6762 139.252C42.8928 139.365 43.1324 139.427 43.3767 139.434Z" fill="#3F3D56"/>
<path d="M36.7664 137.509C37.0554 137.515 37.3363 137.606 37.5744 137.77C37.7485 137.935 37.8665 138.15 37.9116 138.385C37.9783 138.617 37.9929 138.86 37.9545 139.098C37.9161 139.336 37.8255 139.563 37.6893 139.762C37.5242 139.97 37.3085 140.131 37.0629 140.231C36.2048 140.602 35.2245 140.331 34.3312 140.062L30.8323 139.008C30.6188 138.965 30.4216 138.863 30.2634 138.713C30.1672 138.584 30.1141 138.427 30.1114 138.266C30.1088 138.105 30.1567 137.947 30.2486 137.814C30.4363 137.553 30.6929 137.348 30.9899 137.223C32.0796 136.693 33.3045 136.571 34.5017 136.549C34.9446 136.549 35.3839 136.443 35.6859 136.786C35.8453 136.971 35.8175 137.169 36.0566 137.325C36.2762 137.439 36.5189 137.502 36.7664 137.509Z" fill="#3F3D56"/>
<path d="M39.8063 99.5387C37.745 99.3315 35.6714 99.2733 33.6017 99.3644C33.4651 99.3627 33.3291 99.384 33.1996 99.4275C32.7437 99.6128 32.6733 100.21 32.6288 100.699C32.4546 102.676 31.5817 104.52 31.1462 106.46C30.8915 107.679 30.7758 108.922 30.8015 110.167C30.8257 110.723 30.8158 111.28 30.7719 111.835C30.7144 112.331 30.5865 112.815 30.5161 113.317C30.4364 113.979 30.4067 114.645 30.4272 115.311C30.4081 116.357 30.47 117.402 30.6125 118.438C30.896 120.206 30.3994 121.959 30.2641 123.745C30.1954 124.994 30.0531 126.237 29.8378 127.469C29.7359 127.987 29.608 128.503 29.5376 129.027C29.3301 130.586 29.6321 132.192 29.306 133.729C29.1522 134.448 28.8779 135.256 29.2819 135.871C29.4098 136.066 29.5932 136.216 29.7322 136.401C29.8082 136.489 29.8601 136.595 29.8828 136.709C29.9055 136.823 29.8984 136.941 29.8619 137.052C29.7822 137.22 29.5969 137.331 29.5506 137.511C29.4765 137.795 29.7748 138.028 30.0417 138.149C32.0524 139.055 34.6451 138.416 36.0017 136.675C35.7681 136.638 35.4828 136.47 35.4772 136.234C35.4939 135.998 35.5451 135.765 35.6292 135.543C35.739 135.143 35.7567 134.724 35.681 134.316C35.6292 134.033 35.5328 133.76 35.4735 133.473C35.4169 133.158 35.3798 132.84 35.3623 132.52C35.2623 131.372 35.0361 130.239 34.6877 129.14C34.3523 128.075 34.8119 126.996 34.9305 125.884C34.9879 125.36 34.962 124.815 35.1473 124.32C35.2567 124.025 35.4364 123.764 35.5458 123.469C35.7997 122.785 35.6495 122.027 35.4939 121.314C36.591 119.337 36.9542 116.981 37.3675 114.757C37.5997 113.509 37.832 112.262 38.0643 111.014C38.1662 110.458 38.2793 109.881 38.6203 109.435C38.9813 111.087 39.1233 112.78 39.0428 114.47C39.0008 114.957 39.007 115.447 39.0613 115.932C39.1466 116.468 39.3708 116.974 39.5005 117.502C39.7896 118.662 39.621 119.883 39.6859 121.079C39.7099 121.56 39.773 122.042 39.7933 122.526C39.8842 124.659 39.1651 126.735 38.4553 128.749C38.0198 129.985 37.9234 131.39 37.714 132.683C37.5176 133.923 37.323 135.163 37.2229 136.414C37.1321 137.563 37.0932 138.807 36.3779 139.709C37.0302 140.133 37.7066 140.565 38.4701 140.712C39.3624 140.851 40.2754 140.675 41.0517 140.213C41.8221 139.751 42.5109 139.165 43.0902 138.479C42.9383 138.427 42.8845 138.208 42.8697 138.05C42.6492 135.706 43.5387 133.417 43.876 131.082C44.0463 129.913 44.0762 128.727 43.9649 127.55C43.9242 127.107 43.863 126.666 43.8445 126.221C43.7574 123.901 44.873 121.668 44.8341 119.348C44.8156 118.262 45.3901 117.189 45.6699 116.138C45.9145 115.211 45.9219 114.231 45.9275 113.267L45.972 105.669C45.972 104.641 45.972 103.59 45.6421 102.619C45.2344 101.453 45.6996 100.111 45.77 98.8789C43.8445 99.4871 41.8182 99.7113 39.8063 99.5387Z" fill="#3F3D56"/>
<path d="M46.4153 77.7084C47.1942 76.1154 48.1457 74.6127 49.2526 73.2273C49.4833 72.9564 49.6939 72.669 49.8827 72.3674C50.2811 71.678 50.3997 70.8644 50.6517 70.1083C51.356 67.9882 53.1128 66.2851 53.5409 64.0928C53.6966 63.2977 54.2044 62.6102 54.5509 61.8689C54.7881 61.3722 55.0476 60.8496 55.5183 60.5716C56.1243 60.201 56.962 60.3734 57.466 60.8682C57.7086 61.1266 57.8884 61.4373 57.9916 61.7763C58.0947 62.1154 58.1185 62.4736 58.0609 62.8233C58.0307 63.1453 57.9056 63.451 57.7014 63.7017C57.4327 64.0038 57.0305 64.1409 56.6673 64.3226C55.7345 64.7966 55.0207 65.6125 54.6751 66.6002C54.0561 68.3904 53.9783 70.2844 53.1925 72.0097C52.4068 73.7351 51.4838 75.3937 50.8037 77.1598C50.4201 78.1624 50.1106 79.1984 49.5472 80.125C48.9839 81.0516 48.098 81.8281 47.0343 81.9671C47.0357 81.2974 46.9306 80.6318 46.7229 79.9953C46.4987 79.2595 46.078 78.3904 46.4153 77.7084Z" fill="#A0616A"/>
<path d="M34.9392 79.0916C34.9866 77.7814 34.7828 76.4742 34.3388 75.2406C34.1683 74.768 33.9589 74.288 33.9848 73.7858C34.0071 73.3207 34.2313 72.8907 34.4314 72.47C35.1301 71.0152 35.6194 69.4715 36.0993 67.9333L37.026 65.0349C37.3272 64.8124 37.6004 64.5541 37.8395 64.2658C38.3331 63.6945 38.6595 62.9981 38.7828 62.2532C38.8415 61.8815 38.8256 61.5018 38.7362 61.1363C38.6468 60.7707 38.4856 60.4266 38.262 60.1239C38.163 59.9788 38.034 59.8565 37.8838 59.7654C37.7335 59.6743 37.5655 59.6165 37.391 59.5957C37.2373 59.5984 37.0857 59.6327 36.9457 59.6964C36.8057 59.7602 36.6804 59.8521 36.5775 59.9663C36.2704 60.3141 36.0337 60.7182 35.8807 61.1561C35.5767 61.8678 35.2691 62.609 35.2987 63.38C35.3228 64.0212 35.5638 64.7365 35.1876 65.2573C33.9552 66.9641 33.0248 68.9267 32.0482 70.7929C31.8014 71.2385 31.5895 71.7026 31.4144 72.1809C31.178 72.9578 31.066 73.7671 31.0827 74.579C31.0734 76.0986 31.2828 77.609 31.4904 79.1157C31.6201 80.0571 31.7943 81.0838 32.5078 81.7102C33.2509 80.7669 33.9959 79.8366 34.9392 79.0916Z" fill="#A0616A"/>
<path d="M39.655 79.8168C41.7788 79.8168 43.5004 78.0952 43.5004 75.9714C43.5004 73.8476 41.7788 72.126 39.655 72.126C37.5312 72.126 35.8096 73.8476 35.8096 75.9714C35.8096 78.0952 37.5312 79.8168 39.655 79.8168Z" fill="#A0616A"/>
<path d="M37.7882 80.02C37.6955 80.7169 37.323 81.3377 36.9598 81.9381C36.7393 82.3088 36.4613 82.7035 36.0332 82.7443C37.1463 83.3298 38.3162 83.8005 39.5247 84.149C39.9362 84.2869 40.3675 84.3564 40.8015 84.3547C41.1688 84.3273 41.5283 84.2351 41.8634 84.0823C42.5966 83.761 43.2469 83.2769 43.7652 82.6668C44.2834 82.0567 44.656 81.3366 44.8545 80.5612C44.3764 80.574 43.8982 80.5374 43.4276 80.4518C43.1644 80.4037 42.8809 80.3258 42.727 80.109C42.6202 79.9202 42.57 79.7047 42.5825 79.4882C42.564 78.847 42.564 78.2057 42.5825 77.5645C41.6377 77.5037 40.6899 77.62 39.7878 77.9074C39.4172 78.0278 39.0465 78.1742 38.6666 78.2687C38.4331 78.3262 37.7901 78.2687 37.6177 78.404C37.3564 78.6097 37.8568 79.5475 37.7882 80.02Z" fill="#A0616A"/>
<path d="M39.4833 82.3578C39.4405 81.8526 39.24 81.3735 38.9101 80.9884C38.5802 80.6033 38.1376 80.3316 37.6449 80.2118C37.2483 80.1247 36.8202 80.134 36.4644 79.9375C35.8565 79.5984 35.6731 78.7719 35.0912 78.392C34.5093 78.012 33.679 78.2233 33.1712 78.7051C32.6634 79.187 32.4059 79.869 32.1983 80.5361C31.8875 81.4405 31.7193 82.3877 31.6998 83.3438C31.6912 83.5193 31.7189 83.6947 31.7813 83.859C31.8909 84.0499 32.029 84.223 32.1909 84.3723C32.4079 84.6163 32.5698 84.9041 32.6658 85.2161C32.7617 85.5282 32.7893 85.8573 32.7468 86.181C32.6925 86.792 32.7484 87.4078 32.9118 87.9991C33.2824 89.6317 33.6531 91.2663 33.9496 92.9138C34.0191 93.2174 34.0428 93.5297 34.02 93.8404C33.9626 94.2852 33.7142 94.7096 33.768 95.1543C33.8211 95.3622 33.8607 95.5733 33.8866 95.7863C33.8745 95.9475 33.8369 96.1057 33.7754 96.2551C33.3528 97.4783 32.2168 100.277 32.2298 101.568C34.2035 101.062 37.113 100.949 39.1497 100.942C39.711 100.934 40.2722 100.959 40.8306 101.016C42.1705 101.159 43.5419 101.55 44.841 101.188C46.0456 100.853 47.1149 99.8912 48.3621 100.013C48.6308 99.3037 48.312 96.9408 48.06 96.2255C47.0692 93.409 46.8768 90.3733 47.504 87.4542C47.732 86.4053 47.4188 85.2933 47.6727 84.25C47.719 84.0044 47.8128 83.7702 47.9488 83.5606C48.0178 83.4557 48.1124 83.3701 48.2236 83.3117C48.3347 83.2534 48.4589 83.2242 48.5845 83.227C48.6076 81.5517 48.4523 79.8787 48.1212 78.2363C47.997 77.6525 47.7394 76.9631 47.1519 76.863C46.6219 76.7741 46.1753 77.2207 45.7509 77.5506C45.3128 77.8871 44.807 78.1248 44.2683 78.2474C44.0512 78.2723 43.843 78.3478 43.6605 78.4679C43.4047 78.6792 43.3695 79.061 43.1619 79.3186C42.7913 79.78 41.9629 79.7392 41.6997 80.2711C41.6405 80.4298 41.5934 80.5927 41.5589 80.7585C41.4346 81.0736 41.2231 81.3469 40.9492 81.5461C40.5349 81.9334 40.0314 82.2123 39.4833 82.3578Z" fill="#2D86DA"/>
<path d="M42.7802 71.8828C42.8451 71.6289 42.8358 71.3269 42.6301 71.1564C42.5282 71.0767 42.3966 71.047 42.2873 70.9711C42.1332 70.8415 42.0071 70.682 41.9166 70.5022C41.6394 70.1149 41.2338 69.8385 40.772 69.7222C40.3102 69.6058 39.822 69.6569 39.3944 69.8665C38.7254 70.2168 38.3195 70.9173 37.7265 71.3917C37.4226 71.6364 37.0723 71.818 36.7684 72.0607C36.1609 72.5876 35.7284 73.287 35.5286 74.0659C35.3342 74.8409 35.2218 75.6341 35.1931 76.4325C35.1615 76.672 35.1709 76.9152 35.2209 77.1515C35.2815 77.3474 35.3735 77.532 35.4934 77.6982C36.1031 78.6249 36.9111 79.4681 37.9211 79.9443C38.9311 80.4206 40.1598 80.5003 41.1568 80.0018C41.2568 79.9598 41.3428 79.8904 41.4051 79.8016C41.4623 79.6664 41.4752 79.5166 41.4422 79.3736C41.3895 78.8076 41.5022 78.2385 41.7665 77.7353C41.9518 77.3647 42.228 77.0459 42.3781 76.6604C42.5143 76.2307 42.5732 75.7802 42.5523 75.3298C42.5671 74.1679 42.4874 73.0059 42.7802 71.8828Z" fill="#2D293D"/>
<path d="M54.0296 48.2305H44.5615V57.6986H54.0296V48.2305Z" fill="#2D86DA"/>
<path d="M50.5758 56.2953C50.4387 56.5598 50.2111 56.7663 49.9346 56.8772C49.7711 56.9369 49.5989 56.9695 49.4249 56.9735C49.2369 56.9873 49.048 56.9641 48.869 56.905C48.6305 56.8112 48.4258 56.6478 48.2815 56.4361C48.1389 56.2244 48.0243 55.9952 47.9405 55.7541C47.8842 55.6339 47.8605 55.5009 47.8719 55.3687C47.9444 55.3598 48.0145 55.3368 48.0781 55.3008C48.1417 55.2649 48.1976 55.2168 48.2426 55.1592C48.2692 55.1013 48.2838 55.0386 48.2854 54.9749C48.287 54.9111 48.2756 54.8478 48.2518 54.7886C48.2407 54.7515 48.2296 54.7163 48.2166 54.683C48.1888 54.6014 48.0925 54.4476 48.1592 54.379C48.2259 54.3105 48.3816 54.3123 48.4427 54.2845C48.624 54.1762 48.8175 54.0897 49.0191 54.0269C49.2018 54.0026 49.3876 54.0145 49.5658 54.0621C49.5901 54.0661 49.6134 54.0749 49.6343 54.0881C49.6578 54.1075 49.6751 54.1332 49.6844 54.1622C49.7363 54.2882 49.7659 54.4272 49.8067 54.5569C49.8423 54.693 49.9125 54.8175 50.0105 54.9183C50.0952 54.9902 50.1909 55.0477 50.2941 55.0888L50.5424 55.2019C50.586 55.2192 50.6257 55.245 50.6592 55.2778C50.6909 55.3226 50.7101 55.3751 50.7148 55.4298C50.7608 55.7257 50.7121 56.0286 50.5758 56.2953Z" fill="#A0616A"/>
<path opacity="0.1" d="M49.8044 54.5618C49.6071 54.7667 49.3476 54.9005 49.0664 54.9424C48.7851 54.9843 48.4979 54.9319 48.2495 54.7935C48.2384 54.7564 48.2273 54.7212 48.2143 54.6878C48.1865 54.6063 48.0902 54.4525 48.1569 54.3839C48.2236 54.3153 48.3792 54.3172 48.4404 54.2894C48.6217 54.1811 48.8152 54.0946 49.0168 54.0318C49.1995 54.0075 49.3853 54.0194 49.5635 54.067C49.5878 54.071 49.6111 54.0798 49.632 54.093C49.6554 54.1124 49.6728 54.1381 49.6821 54.1671C49.734 54.2987 49.7636 54.4321 49.8044 54.5618Z" fill="black"/>
<path d="M48.8779 54.9023C49.5882 54.9023 50.1641 54.3265 50.1641 53.6162C50.1641 52.9059 49.5882 52.3301 48.8779 52.3301C48.1676 52.3301 47.5918 52.9059 47.5918 53.6162C47.5918 54.3265 48.1676 54.9023 48.8779 54.9023Z" fill="#A0616A"/>
<path d="M52.7784 57.6963H46.7258C46.5405 57.2831 46.3737 56.8679 46.1865 56.4547C46.2065 56.3563 46.2435 56.2623 46.2959 56.1767C46.3227 56.1349 46.3593 56.1004 46.4026 56.0761C46.4459 56.0519 46.4946 56.0387 46.5442 56.0377C46.5979 56.0377 46.6591 56.0581 46.698 56.0192C46.7369 55.9802 46.724 55.9487 46.7518 55.9228C46.7796 55.8968 46.8463 55.8968 46.8982 55.9006C46.9538 55.9023 47.0091 55.8902 47.0589 55.8653C47.1087 55.8404 47.1516 55.8035 47.1836 55.7579C47.2034 55.7233 47.2277 55.6915 47.2558 55.6633C47.3046 55.6397 47.3574 55.6258 47.4115 55.6226C47.5616 55.5892 47.6506 55.4372 47.7636 55.3427C47.7908 55.3121 47.8262 55.29 47.8657 55.2791C47.9052 55.2683 47.947 55.2691 47.986 55.2816C48.0042 55.2909 48.02 55.3042 48.0323 55.3205C48.0628 55.3672 48.0835 55.4195 48.0935 55.4743C48.1606 55.7821 48.3313 56.0575 48.5772 56.2545C48.7078 56.3533 48.8589 56.4215 49.0193 56.4543C49.1797 56.4871 49.3455 56.4835 49.5043 56.4439C49.6632 56.4042 49.8112 56.3295 49.9375 56.2253C50.0637 56.121 50.165 55.9898 50.234 55.8412C50.3235 55.6173 50.3749 55.3799 50.3859 55.1389C50.3859 55.1259 50.3859 55.1185 50.3859 55.1074C50.4613 55.0887 50.5399 55.0868 50.6161 55.1018C50.6924 55.1169 50.7643 55.1485 50.827 55.1945C50.95 55.2887 51.0815 55.3712 51.2199 55.441C51.3848 55.5058 51.5905 55.5058 51.7036 55.6263C51.7517 55.6745 51.7851 55.7412 51.8463 55.7708C51.8843 55.7857 51.9242 55.7951 51.9649 55.7986C52.0684 55.8266 52.1641 55.8778 52.2447 55.9485C52.3254 56.0192 52.3887 56.1074 52.43 56.2063C52.5642 56.5037 52.6517 56.82 52.6895 57.1441L52.7784 57.6963Z" fill="#F86D70"/>
<path d="M47.9893 51.5289C47.8997 51.6014 47.8238 51.6892 47.765 51.7883C47.6547 51.9704 47.5005 52.122 47.3165 52.2294C47.2394 52.2564 47.1692 52.3 47.1108 52.3572C47.0822 52.4007 47.0638 52.4502 47.0571 52.5018C47.0195 52.6816 47.0002 52.8648 46.9997 53.0485C46.9928 53.1409 47.008 53.2337 47.0441 53.3191C47.0812 53.3969 47.1516 53.4636 47.1646 53.5489C47.1673 53.6163 47.1598 53.6838 47.1423 53.749C47.1337 53.7832 47.1356 53.8192 47.1478 53.8523C47.1601 53.8854 47.1821 53.914 47.2109 53.9343C47.2445 53.9463 47.2793 53.9543 47.3147 53.9584C47.5 53.9992 47.563 54.2179 47.5908 54.3976C47.6538 54.3976 47.6816 54.3217 47.6965 54.2624L47.8818 53.4006C47.904 53.3079 47.9374 53.1986 48.0319 53.1671C48.0966 53.1532 48.1636 53.1532 48.2283 53.1671C48.4841 53.1893 48.699 52.991 48.9492 52.9354C49.0298 52.9203 49.112 52.9153 49.1939 52.9206C49.3903 52.9206 49.6201 53.0114 49.6627 53.1949C49.6627 53.2246 49.6738 53.2616 49.7016 53.2764C49.7301 53.2847 49.7603 53.2847 49.7887 53.2764C49.9129 53.2635 49.987 53.4043 50.0241 53.5192L50.1538 53.9399C50.1742 54.0029 50.2076 54.0789 50.2761 54.0863C50.3075 54.0861 50.3378 54.0746 50.3613 54.0538C50.3848 54.033 50.4 54.0044 50.404 53.9732C50.4068 53.9104 50.398 53.8476 50.3781 53.7879C50.3169 53.5136 50.4114 53.232 50.4689 52.9558C50.5263 52.6797 50.5356 52.3628 50.3429 52.1497C50.2724 52.0737 50.1798 52.0162 50.1149 51.9347C50.0501 51.8532 50.0204 51.7661 49.9574 51.6901C49.7057 51.4693 49.3916 51.332 49.0586 51.2972C48.6869 51.2643 48.314 51.3451 47.9893 51.5289Z" fill="#3F3D56"/>
<g opacity="0.1">
<path opacity="0.1" d="M50.2847 53.8864C50.2161 53.8864 50.1827 53.803 50.1623 53.74L50.0326 53.3193C49.9956 53.2044 49.9214 53.0636 49.7973 53.0747C49.7688 53.083 49.7386 53.083 49.7102 53.0747C49.6824 53.0599 49.6787 53.0247 49.6712 52.9932C49.6286 52.8079 49.3988 52.7282 49.2024 52.7189C49.1205 52.7133 49.0382 52.7189 48.9578 52.7356C48.7076 52.7893 48.4926 52.9876 48.2369 52.9654C48.1719 52.9534 48.1053 52.9534 48.0404 52.9654C47.9459 52.9987 47.9125 53.1062 47.8903 53.2007C47.8254 53.488 47.7624 53.7752 47.705 54.0606C47.6902 54.1199 47.6624 54.1922 47.5993 54.1959C47.5715 54.0106 47.5085 53.7975 47.3232 53.7567C47.2877 53.7535 47.2527 53.7454 47.2194 53.7326C47.1948 53.7193 47.1757 53.6976 47.1657 53.6714C47.1657 53.6974 47.1546 53.7252 47.1509 53.7511C47.1422 53.7853 47.1441 53.8214 47.1563 53.8545C47.1686 53.8876 47.1906 53.9161 47.2194 53.9365C47.253 53.9484 47.2878 53.9565 47.3232 53.9606C47.5085 54.0013 47.5715 54.22 47.5993 54.3998C47.6624 54.3998 47.6902 54.3238 47.705 54.2645C47.7698 53.9772 47.8329 53.69 47.8903 53.4027C47.9125 53.3101 47.9459 53.2007 48.0404 53.1692C48.1052 53.1554 48.1721 53.1554 48.2369 53.1692C48.4926 53.1915 48.7076 52.9932 48.9578 52.9376C49.0384 52.9224 49.1205 52.9175 49.2024 52.9227C49.3988 52.9227 49.6286 53.0136 49.6712 53.197C49.6712 53.2267 49.6824 53.2637 49.7102 53.2786C49.7386 53.2869 49.7688 53.2869 49.7973 53.2786C49.9214 53.2656 49.9956 53.4064 50.0326 53.5213L50.1623 53.942C50.1827 54.005 50.2161 54.081 50.2847 54.0884C50.316 54.0882 50.3463 54.0767 50.3698 54.0559C50.3933 54.0351 50.4085 54.0065 50.4125 53.9754C50.4165 53.9252 50.4102 53.8748 50.394 53.8271C50.3834 53.8465 50.3674 53.8623 50.348 53.8728C50.3287 53.8834 50.3067 53.8881 50.2847 53.8864Z" fill="black"/>
<path opacity="0.1" d="M47.1657 53.3526C47.1527 53.2674 47.0823 53.2007 47.0452 53.1228C47.0209 53.0703 47.0064 53.0138 47.0026 52.9561C47.0026 52.9876 47.0026 53.0172 47.0026 53.0487C46.9957 53.1412 47.011 53.2339 47.0471 53.3193C47.0767 53.3823 47.1286 53.4379 47.1545 53.5046C47.1676 53.4551 47.1714 53.4036 47.1657 53.3526Z" fill="black"/>
<path opacity="0.1" d="M50.4779 52.7579C50.4043 52.998 50.3687 53.2481 50.3723 53.4992C50.3964 53.3169 50.4317 53.1361 50.4779 52.9581C50.5088 52.822 50.5194 52.6821 50.5095 52.543C50.5036 52.6152 50.4931 52.687 50.4779 52.7579Z" fill="black"/>
</g>
<path d="M47.2093 57.6965H45.7656C45.8293 57.3078 45.9433 56.929 46.1048 56.5698C46.1174 56.5328 46.1384 56.4992 46.1659 56.4715C46.1719 56.465 46.1787 56.4594 46.1863 56.4549C46.2289 56.4215 46.2882 56.4085 46.3346 56.377C46.3809 56.3455 46.3865 56.3122 46.4291 56.2992C46.5895 56.2954 46.7492 56.3218 46.8998 56.377C46.9424 56.3818 46.9842 56.3924 47.024 56.4085C47.1179 56.4607 47.1883 56.5469 47.2204 56.6494C47.3427 56.9812 47.2501 57.3407 47.2093 57.6965Z" fill="#F86D70"/>
<defs>
<linearGradient id="paint0_linear" x1="69.1312" y1="137.494" x2="69.1312" y2="-0.0092695" gradientUnits="userSpaceOnUse">
<stop stop-color="#808080" stop-opacity="0.25"/>
<stop offset="0.54" stop-color="#808080" stop-opacity="0.12"/>
<stop offset="1" stop-color="#808080" stop-opacity="0.1"/>
</linearGradient>
<linearGradient id="paint1_linear" x1="30108.3" y1="6850.76" x2="30108.3" y2="4678.94" gradientUnits="userSpaceOnUse">
<stop stop-color="#808080" stop-opacity="0.25"/>
<stop offset="0.54" stop-color="#808080" stop-opacity="0.12"/>
<stop offset="1" stop-color="#808080" stop-opacity="0.1"/>
</linearGradient>
<linearGradient id="paint2_linear" x1="12122.9" y1="50805.8" x2="16663.4" y2="50805.8" gradientUnits="userSpaceOnUse">
<stop stop-color="#808080" stop-opacity="0.25"/>
<stop offset="0.54" stop-color="#808080" stop-opacity="0.12"/>
<stop offset="1" stop-color="#808080" stop-opacity="0.1"/>
</linearGradient>
</defs>
</svg>
