<svg width="157" height="109" viewBox="0 0 157 109" fill="none" xmlns="http://www.w3.org/2000/svg">
<path d="M81.9012 108.978C85.7127 108.978 88.8025 108.656 88.8025 108.258C88.8025 107.861 85.7127 107.539 81.9012 107.539C78.0898 107.539 75 107.861 75 108.258C75 108.656 78.0898 108.978 81.9012 108.978Z" fill="#E6E6E6"/>
<path d="M102.317 108.978C106.129 108.978 109.218 108.656 109.218 108.258C109.218 107.861 106.129 107.539 102.317 107.539C98.5058 107.539 95.416 107.861 95.416 108.258C95.416 108.656 98.5058 108.978 102.317 108.978Z" fill="#E6E6E6"/>
<path d="M118.132 108.753C120.753 108.753 122.877 108.531 122.877 108.258C122.877 107.985 120.753 107.764 118.132 107.764C115.512 107.764 113.388 107.985 113.388 108.258C113.388 108.531 115.512 108.753 118.132 108.753Z" fill="#E6E6E6"/>
<path d="M119.49 104.403C119.457 105.636 119.251 106.858 118.877 108.033C118.869 108.06 118.86 108.087 118.851 108.114H116.563C116.565 108.09 116.568 108.062 116.57 108.033C116.723 106.278 117.602 95.5996 116.551 93.7734C116.643 93.9216 119.667 98.8282 119.49 104.403Z" fill="#E6E6E6"/>
<path d="M119.319 108.032C119.299 108.06 119.279 108.087 119.259 108.114H117.543C117.556 108.091 117.571 108.063 117.589 108.032C117.872 107.521 118.711 105.99 119.49 104.403C120.327 102.698 121.095 100.928 121.031 100.287C121.051 100.432 121.63 104.836 119.319 108.032Z" fill="#E6E6E6"/>
<path d="M105.492 68.8628H1.25469C0.922041 68.8624 0.603128 68.73 0.367911 68.4947C0.132695 68.2593 0.000382353 67.9402 0 67.6074V1.25529C0.000384139 0.922469 0.1327 0.603394 0.367919 0.368063C0.603137 0.132732 0.922048 0.000364153 1.25469 0H105.492C105.825 0.000364153 106.144 0.132732 106.379 0.368063C106.614 0.603394 106.747 0.922469 106.747 1.25529V67.6074C106.747 67.9402 106.614 68.2593 106.379 68.4947C106.144 68.73 105.825 68.8624 105.492 68.8628ZM1.25469 0.496716C1.05367 0.496935 0.860947 0.576924 0.718799 0.719134C0.576651 0.861344 0.496686 1.05416 0.496447 1.25529V67.6074C0.496685 67.8085 0.576648 68.0014 0.718794 68.1436C0.86094 68.2858 1.05366 68.3658 1.25469 68.3661H105.492C105.693 68.3658 105.886 68.2858 106.028 68.1436C106.17 68.0014 106.25 67.8085 106.25 67.6074V1.25529C106.25 1.05416 106.17 0.861343 106.028 0.719133C105.886 0.576923 105.693 0.496933 105.492 0.496714L1.25469 0.496716Z" fill="#E6E6E6"/>
<path d="M78.4927 9.78223H23.2643C22.993 9.7825 22.733 9.89043 22.5412 10.0823C22.3494 10.2743 22.2415 10.5345 22.2412 10.8058V58.0572C22.2415 58.3286 22.3494 58.5888 22.5412 58.7807C22.733 58.9726 22.993 59.0805 23.2643 59.0808H78.4927C78.7639 59.0805 79.024 58.9726 79.2158 58.7807C79.4076 58.5888 79.5155 58.3286 79.5157 58.0572V10.8058C79.5155 10.5345 79.4076 10.2742 79.2158 10.0823C79.024 9.89043 78.7639 9.7825 78.4927 9.78223ZM79.1057 58.0572C79.1057 58.22 79.0411 58.3762 78.9262 58.4915C78.8113 58.6068 78.6554 58.6719 78.4927 58.6725H23.2643C23.1014 58.6722 22.9453 58.6073 22.8304 58.4919C22.7154 58.3765 22.651 58.2201 22.6512 58.0572V10.8058C22.651 10.6429 22.7154 10.4865 22.8304 10.3712C22.9453 10.2558 23.1014 10.1908 23.2643 10.1905H78.4927C78.6554 10.1911 78.8113 10.2562 78.9262 10.3715C79.0411 10.4868 79.1057 10.643 79.1057 10.8058V58.0572Z" fill="#3F3D56"/>
<path d="M36.0127 50.6787C36.0127 50.7516 36.0108 50.8244 36.007 50.8953C35.9513 51.9617 35.4887 52.966 34.7146 53.7011C33.9405 54.4362 32.9139 54.846 31.8467 54.846C30.7794 54.846 29.7529 54.4362 28.9788 53.7011C28.2047 52.966 27.7421 51.9617 27.6864 50.8953C27.6826 50.8244 27.6807 50.7516 27.6807 50.6787C27.6803 50.1311 27.7878 49.5888 27.997 49.0828C28.2062 48.5768 28.5131 48.1169 28.8999 47.7296C29.2868 47.3423 29.7462 47.035 30.2518 46.8254C30.7574 46.6157 31.2994 46.5078 31.8467 46.5078C32.394 46.5078 32.936 46.6157 33.4416 46.8254C33.9472 47.035 34.4066 47.3423 34.7935 47.7296C35.1803 48.1169 35.4872 48.5768 35.6964 49.0828C35.9056 49.5888 36.0131 50.1311 36.0127 50.6787Z" fill="#2D86DA"/>
<path d="M74.2002 47.8994H41.4659C41.2819 47.8997 41.1055 47.973 40.9755 48.1033C40.8455 48.2336 40.7725 48.4102 40.7725 48.5943C40.7725 48.7784 40.8455 48.955 40.9755 49.0853C41.1055 49.2155 41.2819 49.2889 41.4659 49.2892H74.2002C74.3843 49.2889 74.5606 49.2155 74.6906 49.0853C74.8206 48.955 74.8937 48.7784 74.8937 48.5943C74.8937 48.4102 74.8206 48.2336 74.6906 48.1033C74.5606 47.973 74.3843 47.8997 74.2002 47.8994Z" fill="#2D86DA"/>
<path d="M55.5524 52.0693H41.467C41.283 52.0693 41.1066 52.1424 40.9766 52.2726C40.8465 52.4027 40.7734 52.5792 40.7734 52.7632C40.7734 52.9473 40.8465 53.1238 40.9766 53.2539C41.1066 53.3841 41.283 53.4572 41.467 53.4572H55.5524C55.7363 53.4572 55.9127 53.3841 56.0428 53.2539C56.1728 53.1238 56.2459 52.9473 56.2459 52.7632C56.2459 52.5792 56.1728 52.4027 56.0428 52.2726C55.9127 52.1424 55.7363 52.0693 55.5524 52.0693Z" fill="#E6E6E6"/>
<path d="M91.6132 42.7435H36.3852C36.076 42.7431 35.7795 42.62 35.5608 42.4012C35.3421 42.1824 35.2191 41.8857 35.2188 41.5763V17.3263C35.2191 17.0169 35.3421 16.7202 35.5608 16.5014C35.7795 16.2826 36.076 16.1595 36.3852 16.1592H91.6132C91.9225 16.1595 92.219 16.2826 92.4377 16.5014C92.6564 16.7202 92.7794 17.0169 92.7797 17.3263V41.5763C92.7794 41.8857 92.6564 42.1824 92.4377 42.4012C92.219 42.62 91.9225 42.7431 91.6132 42.7435Z" fill="#2D86DA"/>
<path d="M47.6328 24.7559C47.4487 24.7559 47.2721 24.8291 47.1418 24.9593C47.0116 25.0896 46.9385 25.2663 46.9385 25.4506C46.9385 25.6348 47.0116 25.8115 47.1418 25.9418C47.2721 26.0721 47.4487 26.1453 47.6328 26.1453H80.3664C80.5506 26.1453 80.7272 26.0721 80.8574 25.9418C80.9876 25.8115 81.0608 25.6348 81.0608 25.4506C81.0608 25.2663 80.9876 25.0896 80.8574 24.9593C80.7272 24.8291 80.5506 24.7559 80.3664 24.7559H47.6328Z" fill="white"/>
<path d="M47.6327 28.7812C47.4488 28.7815 47.2724 28.8549 47.1424 28.9851C47.0125 29.1154 46.9395 29.2919 46.9395 29.476C46.9395 29.66 47.0125 29.8366 47.1424 29.9668C47.2724 30.0971 47.4488 30.1704 47.6327 30.1707H80.3663C80.5503 30.1704 80.7267 30.0971 80.8566 29.9668C80.9866 29.8366 81.0596 29.66 81.0596 29.476C81.0596 29.2919 80.9866 29.1154 80.8566 28.9851C80.7267 28.8549 80.5503 28.7815 80.3663 28.7812H47.6327Z" fill="white"/>
<path d="M47.6327 32.7578C47.4488 32.7581 47.2724 32.8314 47.1424 32.9617C47.0125 33.0919 46.9395 33.2685 46.9395 33.4525C46.9395 33.6366 47.0125 33.8131 47.1424 33.9434C47.2724 34.0737 47.4488 34.147 47.6327 34.1473H61.7181C61.9021 34.147 62.0784 34.0737 62.2084 33.9434C62.3384 33.8131 62.4114 33.6366 62.4114 33.4525C62.4114 33.2685 62.3384 33.0919 62.2084 32.9617C62.0784 32.8314 61.9021 32.7581 61.7181 32.7578H47.6327Z" fill="white"/>
<path d="M4.45348 4.39616C4.92991 4.39616 5.31613 4.00973 5.31613 3.53304C5.31613 3.05635 4.92991 2.66992 4.45348 2.66992C3.97704 2.66992 3.59082 3.05635 3.59082 3.53304C3.59082 4.00973 3.97704 4.39616 4.45348 4.39616Z" fill="#2D86DA"/>
<path d="M7.47301 4.39616C7.94944 4.39616 8.33566 4.00973 8.33566 3.53304C8.33566 3.05635 7.94944 2.66992 7.47301 2.66992C6.99658 2.66992 6.61035 3.05635 6.61035 3.53304C6.61035 4.00973 6.99658 4.39616 7.47301 4.39616Z" fill="#2D86DA"/>
<path d="M10.4925 4.39616C10.969 4.39616 11.3552 4.00973 11.3552 3.53304C11.3552 3.05635 10.969 2.66992 10.4925 2.66992C10.0161 2.66992 9.62988 3.05635 9.62988 3.53304C9.62988 4.00973 10.0161 4.39616 10.4925 4.39616Z" fill="#2D86DA"/>
<path d="M93.5049 72.468L92.7978 76.3906C92.741 76.7057 92.7596 77.0297 92.8521 77.3362C92.9446 77.6427 93.1084 77.9228 93.33 78.1538C93.5516 78.3847 93.8248 78.5598 94.1271 78.6647C94.4294 78.7696 94.7522 78.8014 95.0692 78.7574C95.3479 78.7187 95.6156 78.6223 95.855 78.4744C96.0945 78.3264 96.3005 78.1302 96.4599 77.8981C96.6193 77.666 96.7286 77.4033 96.7809 77.1266C96.8332 76.8499 96.8272 76.5653 96.7634 76.2911L95.8663 72.4336L99.0743 62.0414L98.3351 50.9189L93.7394 52.5088L95.8168 61.0131L93.5049 72.468Z" fill="#FFB8B8"/>
<path d="M91.623 41.1252C93.7453 41.1252 95.4658 39.4038 95.4658 37.2804C95.4658 35.1569 93.7453 33.4355 91.623 33.4355C89.5007 33.4355 87.7803 35.1569 87.7803 37.2804C87.7803 39.4038 89.5007 41.1252 91.623 41.1252Z" fill="#FFB8B8"/>
<path d="M90.0073 48.2737L97.5179 48.1563C95.9066 44.2546 94.6006 40.5708 94.9361 38.0586L89.6553 38.8805C90.2805 42.4489 90.5833 45.0192 90.0073 48.2737Z" fill="#FFB8B8"/>
<path d="M84.0225 57.7839L94.1147 59.6626C97.5171 53.4259 99.3941 47.7943 96.2271 44.1638L90.2421 43.8115C86.418 47.9031 83.1836 51.8738 85.3812 54.7316L84.0225 57.7839Z" fill="#2D86DA"/>
<path d="M83.0838 104.515L87.0738 104.31L89.6555 77.275L102.799 104.163L106.906 104.046L99.0437 80.4452C98.7333 72.5713 98.4091 64.7178 95.0537 61.3065L93.8802 58.8408L84.492 56.8447L83.2011 59.3104C80.2083 66.3028 81.9654 86.2823 83.0838 104.515Z" fill="#2F2E41"/>
<path d="M80.8196 108.545L85.4769 108.991C85.7554 109.018 86.0364 108.983 86.2995 108.887C86.5626 108.792 86.8011 108.639 86.998 108.44C87.1948 108.241 87.3449 108.001 87.4375 107.737C87.53 107.472 87.5627 107.191 87.5331 106.913L87.1908 103.694C85.9003 104.03 84.5229 103.951 83.0835 103.576L81.3232 105.103L80.4889 105.363C80.1803 105.46 79.9073 105.646 79.7047 105.898C79.502 106.15 79.3789 106.457 79.3509 106.779C79.3136 107.208 79.4471 107.634 79.7221 107.964C79.9972 108.295 80.3917 108.503 80.8196 108.545Z" fill="#2F2E41"/>
<path d="M100.534 108.545L105.192 108.991C105.47 109.018 105.751 108.983 106.014 108.887C106.277 108.792 106.516 108.639 106.713 108.44C106.91 108.241 107.06 108.001 107.152 107.737C107.245 107.472 107.277 107.191 107.248 106.913L106.906 103.694C105.615 104.03 104.238 103.951 102.798 103.576L101.038 105.103L100.204 105.363C99.8951 105.46 99.6222 105.646 99.4195 105.898C99.2169 106.15 99.0937 106.457 99.0657 106.779C99.0285 107.208 99.1619 107.634 99.437 107.964C99.712 108.295 100.106 108.503 100.534 108.545Z" fill="#2F2E41"/>
<path d="M87.0742 50.3868C88.7182 52.2352 90.9747 52.5399 93.8806 51.2087V44.8683L90.2427 43.8115L87.0742 50.3868Z" fill="#2D86DA"/>
<path d="M78.5074 67.999L76.0755 71.156C75.8801 71.4095 75.7476 71.7058 75.6888 72.0205C75.63 72.3352 75.6465 72.6593 75.7371 72.9664C75.8276 73.2735 75.9896 73.5547 76.2097 73.787C76.4298 74.0194 76.7018 74.1962 77.0035 74.3031C77.2687 74.3971 77.5507 74.4348 77.8313 74.4137C78.112 74.3925 78.3852 74.3131 78.6334 74.1805C78.8817 74.0479 79.0996 73.8649 79.2733 73.6434C79.4469 73.4218 79.5725 73.1664 79.642 72.8935L80.6198 69.0558L88.2477 61.3063L92.707 51.0912L87.8956 50.3867L84.6098 59.3103L78.5074 67.999Z" fill="#FFB8B8"/>
<path d="M90.154 31.6071C91.9188 30.7191 94.0286 30.4548 95.9046 31.0739C97.7806 31.693 99.3683 33.2453 99.8479 35.1626C100.211 36.612 99.9486 38.1325 99.8208 39.621C99.6929 41.1096 99.7336 42.7184 100.591 43.9416C101.128 44.7081 101.931 45.2398 102.722 45.7402C103.513 46.2407 104.328 46.7432 104.913 47.4746C105.497 48.206 105.812 49.2288 105.46 50.0961C105.01 51.2034 103.713 51.6542 102.563 51.9791C100.924 52.4422 99.2635 52.9087 97.5609 52.9428C95.8582 52.9769 94.0805 52.5308 92.8294 51.3748C91.1276 49.8022 90.7191 47.2302 91.0417 44.935C91.3643 42.6398 92.2978 40.4805 92.8861 38.2387C93.1135 37.3725 93.2454 36.3275 92.6158 35.6909C91.9763 35.0443 90.8916 35.1711 90.0955 34.7317C89.75 34.541 89.4712 34.2489 89.2967 33.8948C89.1222 33.5407 89.0603 33.1416 89.1195 32.7513C89.1786 32.361 89.3559 31.9981 89.6274 31.7117C89.8989 31.4252 90.2517 31.2289 90.6382 31.1492" fill="#2F2E41"/>
</svg>
