<svg width="13" height="13" viewBox="0 0 13 13" fill="none" xmlns="http://www.w3.org/2000/svg">
<path d="M8.125 6.44287L12.3047 10.6616C12.4219 10.7788 12.5 10.9351 12.5 11.0913C12.5 11.2866 12.4219 11.4429 12.3047 11.521L11.3281 12.4976C11.2109 12.6538 11.0547 12.6929 10.8984 12.6929C10.7031 12.6929 10.5469 12.6538 10.4688 12.4976L6.25 8.31787L2.03125 12.4976C1.91406 12.6538 1.75781 12.6929 1.60156 12.6929C1.40625 12.6929 1.25 12.6538 1.17188 12.4976L0.195312 11.521C0.0390625 11.4429 0 11.2866 0 11.0913C0 10.9351 0.0390625 10.7788 0.195312 10.6616L4.375 6.44287L0.195312 2.22412C0.0390625 2.146 0 1.98975 0 1.79443C0 1.63818 0.0390625 1.48193 0.195312 1.36475L1.17188 0.388184C1.25 0.270996 1.40625 0.192871 1.60156 0.192871C1.75781 0.192871 1.91406 0.270996 2.03125 0.388184L6.25 4.56787L10.4688 0.388184C10.5469 0.270996 10.7031 0.192871 10.8984 0.192871C11.0547 0.192871 11.2109 0.270996 11.3281 0.388184L12.3047 1.36475C12.4219 1.48193 12.5 1.63818 12.5 1.79443C12.5 1.98975 12.4219 2.146 12.3047 2.22412L8.125 6.44287Z" fill="#2D86DA"/>
</svg>
