<svg width="24" height="16" viewBox="0 0 45 40" fill="none" xmlns="http://www.w3.org/2000/svg">
<path d="M40.7812 0.4375H4.21875C1.8457 0.4375 0 2.37109 0 4.65625V35.5938C0 37.9668 1.8457 39.8125 4.21875 39.8125H40.7812C43.0664 39.8125 45 37.9668 45 35.5938V4.65625C45 2.37109 43.0664 0.4375 40.7812 0.4375ZM11.25 10.6328C11.25 11.248 10.7227 11.6875 10.1953 11.6875H6.67969C6.06445 11.6875 5.625 11.248 5.625 10.6328V7.11719C5.625 6.58984 6.06445 6.0625 6.67969 6.0625H10.1953C10.7227 6.0625 11.25 6.58984 11.25 7.11719V10.6328ZM39.375 10.6328C39.375 11.248 38.8477 11.6875 38.3203 11.6875H16.5234C15.9082 11.6875 15.4688 11.248 15.4688 10.6328V7.11719C15.4688 6.58984 15.9082 6.0625 16.5234 6.0625H38.3203C38.8477 6.0625 39.375 6.58984 39.375 7.11719V10.6328Z" fill="#363636"/>
</svg>
