<svg width="23" height="19" viewBox="0 0 23 19" fill="none" xmlns="http://www.w3.org/2000/svg">
<path d="M19.4053 11.9275C19.4053 11.7712 19.3271 11.6541 19.249 11.5369L11.9053 5.52124C11.7881 5.44312 11.6709 5.40405 11.5928 5.40405C11.4756 5.40405 11.3584 5.44312 11.2803 5.52124L3.93652 11.5369C3.81934 11.6541 3.78027 11.7712 3.78027 11.9275V17.5134C3.78027 17.7869 3.8584 18.0212 4.05371 18.1775C4.20996 18.3728 4.44434 18.4509 4.71777 18.4509H9.24902C9.36621 18.4509 9.4834 18.4119 9.56152 18.3337C9.63965 18.2556 9.71777 18.1384 9.71777 17.9822V13.6072C9.71777 13.49 9.75684 13.3728 9.83496 13.2947C9.91309 13.2166 10.0303 13.1384 10.1865 13.1384H12.999C13.1162 13.1384 13.2334 13.2166 13.3115 13.2947C13.3896 13.3728 13.4678 13.49 13.4678 13.6072V17.9822C13.4678 18.1384 13.5068 18.2556 13.585 18.3337C13.6631 18.4119 13.7803 18.4509 13.9365 18.4509H18.4678C18.7021 18.4509 18.9365 18.3728 19.1318 18.1775C19.2881 18.0212 19.4053 17.7869 19.4053 17.5134V11.9275ZM22.6865 9.54468C22.7646 9.6228 22.8037 9.73999 22.8037 9.85718C22.8037 10.0134 22.8037 10.1306 22.7256 10.2087L21.749 11.4197C21.6709 11.5369 21.5537 11.5759 21.4365 11.5759C21.2803 11.5759 21.1631 11.5369 21.085 11.4587L11.9053 3.91968C11.7881 3.84155 11.6709 3.80249 11.5928 3.80249C11.4756 3.80249 11.3584 3.84155 11.2803 3.91968L2.10059 11.4587C1.9834 11.5369 1.86621 11.5759 1.74902 11.5759C1.59277 11.5759 1.51465 11.5369 1.43652 11.4197L0.459961 10.2087C0.381836 10.1306 0.342773 10.0134 0.342773 9.85718C0.342773 9.73999 0.420898 9.6228 0.499023 9.54468L10.4209 1.38062C10.7334 1.10718 11.124 0.950928 11.5928 0.950928C12.0225 0.950928 12.4131 1.10718 12.8037 1.38062L16.2803 4.27124V1.41968C16.2803 1.30249 16.3193 1.1853 16.3975 1.10718C16.4756 1.02905 16.5928 0.950928 16.749 0.950928H18.9365C19.0537 0.950928 19.1709 1.02905 19.249 1.10718C19.3271 1.1853 19.4053 1.30249 19.4053 1.41968V6.84937L22.6865 9.54468Z" fill="#363636"/>
</svg>
