<svg width="52" height="40" viewBox="0 0 52 40" fill="none" xmlns="http://www.w3.org/2000/svg">
<path d="M25.6094 10.7207L9.4375 24.0801V38.4062C9.4375 39.1973 10.0527 39.8125 10.8438 39.8125H20.6875C21.3906 39.8125 22.0059 39.1973 22.0059 38.4062V29.9688C22.0059 29.2656 22.709 28.5625 23.4121 28.5625H29.0371C29.8281 28.5625 30.4434 29.2656 30.4434 29.9688V38.4062C30.4434 39.1973 31.1465 39.8125 31.8496 39.8125H41.7812C42.4844 39.8125 43.1875 39.1973 43.1875 38.4062V23.9922L26.9277 10.7207C26.752 10.5449 26.4883 10.457 26.3125 10.457C26.0488 10.457 25.7852 10.5449 25.6094 10.7207ZM51.1855 19.7734L43.8906 13.709V1.58008C43.8906 0.964844 43.3633 0.525391 42.8359 0.525391H37.9141C37.2988 0.525391 36.8594 0.964844 36.8594 1.58008V7.9082L28.9492 1.4043C28.334 0.876953 27.1035 0.525391 26.2246 0.525391C25.4336 0.525391 24.2031 0.876953 23.5879 1.4043L1.35156 19.7734C1.08789 19.9492 0.912109 20.3008 0.912109 20.5645C0.912109 20.8281 1.08789 21.0918 1.17578 21.2676L3.46094 23.9922C3.63672 24.168 3.98828 24.3438 4.25195 24.3438C4.42773 24.3438 4.7793 24.2559 4.95508 24.0801L25.6094 7.11719C25.7852 6.94141 26.0488 6.85352 26.3125 6.85352C26.4883 6.85352 26.752 6.94141 26.9277 7.11719L47.582 24.0801C47.7578 24.2559 48.1094 24.3438 48.2852 24.3438C48.5488 24.3438 48.9004 24.168 49.0762 23.9922L51.3613 21.2676C51.4492 21.0918 51.625 20.8281 51.625 20.5645C51.625 20.3008 51.4492 19.9492 51.1855 19.7734Z" fill="#2D86DA"/>
</svg>
