<svg width="19" height="18" viewBox="0 0 19 18" fill="none" xmlns="http://www.w3.org/2000/svg">
<path d="M16.8428 0.445312C17.1553 0.445312 17.4678 0.601562 17.7021 0.835938C17.9365 1.07031 18.0928 1.38281 18.0928 1.69531V16.6953C18.0928 17.0469 17.9365 17.3594 17.7021 17.5938C17.4678 17.8281 17.1553 17.9453 16.8428 17.9453H1.84277C1.49121 17.9453 1.17871 17.8281 0.944336 17.5938C0.709961 17.3594 0.592773 17.0469 0.592773 16.6953V1.69531C0.592773 1.38281 0.709961 1.07031 0.944336 0.835938C1.17871 0.601562 1.49121 0.445312 1.84277 0.445312H16.8428ZM5.86621 15.4453H5.90527V7.08594H3.28809V15.4453H5.86621ZM4.57715 5.95312C4.96777 5.95312 5.31934 5.83594 5.63184 5.52344C5.94434 5.21094 6.10059 4.85938 6.10059 4.46875C6.10059 4.07812 5.94434 3.72656 5.63184 3.41406C5.31934 3.10156 4.96777 2.94531 4.57715 2.94531C4.14746 2.94531 3.7959 3.10156 3.52246 3.41406C3.20996 3.72656 3.09277 4.07812 3.09277 4.46875C3.09277 4.85938 3.20996 5.21094 3.52246 5.52344C3.7959 5.83594 4.14746 5.95312 4.57715 5.95312ZM15.5928 15.4453V10.875C15.5928 9.58594 15.3975 8.64844 15.0459 8.02344C14.5381 7.28125 13.6787 6.89062 12.5068 6.89062C11.8818 6.89062 11.374 7.04688 10.9053 7.32031C10.5146 7.55469 10.2021 7.86719 10.0459 8.21875H10.0068V7.08594H7.50684V15.4453H10.085V11.3047C10.085 10.6797 10.1631 10.1719 10.3584 9.82031C10.5928 9.39062 11.0225 9.15625 11.6475 9.15625C12.2334 9.15625 12.624 9.42969 12.8193 9.89844C12.9365 10.2109 13.0146 10.7188 13.0146 11.3828V15.4453H15.5928Z" fill="#0073B1"/>
</svg>
