<svg width="45" height="38" viewBox="0 0 45 38" fill="none" xmlns="http://www.w3.org/2000/svg">
<path d="M40.3418 9.98438C42.0996 8.66602 43.6816 7.08398 44.9121 5.23828C43.3301 5.94141 41.4844 6.46875 39.6387 6.64453C41.5723 5.50195 42.9785 3.74414 43.6816 1.54688C41.9238 2.60156 39.9023 3.39258 37.8809 3.83203C36.123 1.98633 33.75 0.931641 31.1133 0.931641C26.0156 0.931641 21.8848 5.0625 21.8848 10.1602C21.8848 10.8633 21.9727 11.5664 22.1484 12.2695C14.502 11.8301 7.64648 8.13867 3.07617 2.60156C2.28516 3.91992 1.8457 5.50195 1.8457 7.25977C1.8457 10.4238 3.42773 13.2363 5.97656 14.9062C4.48242 14.8184 2.98828 14.4668 1.75781 13.7637V13.8516C1.75781 18.334 4.92188 22.0254 9.14062 22.9043C8.4375 23.0801 7.55859 23.2559 6.76758 23.2559C6.15234 23.2559 5.625 23.168 5.00977 23.0801C6.15234 26.7715 9.58008 29.4082 13.623 29.4961C10.459 31.957 6.50391 33.4512 2.19727 33.4512C1.40625 33.4512 0.703125 33.3633 0 33.2754C4.04297 35.9121 8.87695 37.4062 14.1504 37.4062C31.1133 37.4062 40.3418 23.4316 40.3418 11.2148C40.3418 10.7754 40.3418 10.4238 40.3418 9.98438Z" fill="#2D86DA"/>
</svg>
