<svg width="6" height="18" viewBox="0 0 6 18" fill="none" xmlns="http://www.w3.org/2000/svg">
<path d="M2.68457 6.21559C1.98145 6.21559 1.38379 6.46169 0.891602 6.95387C0.399414 7.44606 0.15332 8.04372 0.15332 8.74684C0.15332 9.44997 0.399414 10.0476 0.891602 10.5398C1.38379 11.032 1.98145 11.2781 2.68457 11.2781C3.3877 11.2781 3.98535 11.032 4.47754 10.5398C4.96973 10.0476 5.21582 9.44997 5.21582 8.74684C5.21582 8.04372 4.96973 7.44606 4.47754 6.95387C3.98535 6.46169 3.3877 6.21559 2.68457 6.21559ZM0.15332 2.55934C0.15332 1.85622 0.399414 1.25856 0.891602 0.766373C1.38379 0.274185 1.98145 0.0280914 2.68457 0.0280914C3.3877 0.0280914 3.98535 0.274185 4.47754 0.766373C4.96973 1.25856 5.21582 1.85622 5.21582 2.55934C5.21582 3.26247 4.96973 3.86012 4.47754 4.35231C3.98535 4.8445 3.3877 5.09059 2.68457 5.09059C1.98145 5.09059 1.38379 4.8445 0.891602 4.35231C0.399414 3.86012 0.15332 3.26247 0.15332 2.55934ZM0.15332 14.9343C0.15332 14.2312 0.399414 13.6336 0.891602 13.1414C1.38379 12.6492 1.98145 12.4031 2.68457 12.4031C3.3877 12.4031 3.98535 12.6492 4.47754 13.1414C4.96973 13.6336 5.21582 14.2312 5.21582 14.9343C5.21582 15.6375 4.96973 16.2351 4.47754 16.7273C3.98535 17.2195 3.3877 17.4656 2.68457 17.4656C1.98145 17.4656 1.38379 17.2195 0.891602 16.7273C0.399414 16.2351 0.15332 15.6375 0.15332 14.9343Z" fill="#2D86DA"/>
</svg>
