<svg width="19" height="18" viewBox="0 0 19 18" fill="none" xmlns="http://www.w3.org/2000/svg">
<path d="M18.1865 6.59421C18.1475 6.7114 18.0693 6.78952 17.9912 6.86765C17.9131 6.94577 17.7959 6.98483 17.7178 6.98483H14.0459L13.2646 11.3598H16.7412C16.8975 11.3598 17.0146 11.438 17.0928 11.5551C17.1709 11.6723 17.21 11.7895 17.21 11.9067L17.0537 12.8442C17.0146 12.9614 16.9365 13.0395 16.8584 13.1176C16.7803 13.1958 16.6631 13.2348 16.585 13.2348H12.9521L12.1709 17.5317C12.1318 17.6489 12.0928 17.727 12.0146 17.8051C11.9365 17.8833 11.8193 17.9223 11.7021 17.9223H10.7646C10.6084 17.9223 10.4521 17.8833 10.374 17.7661C10.2959 17.6489 10.2568 17.5317 10.2959 17.3755L11.0381 13.2348H6.70215L5.9209 17.5317C5.88184 17.6489 5.84277 17.727 5.76465 17.8051C5.68652 17.8833 5.56934 17.9223 5.45215 17.9223H4.51465C4.3584 17.9223 4.20215 17.8833 4.12402 17.7661C4.0459 17.6489 4.00684 17.5317 4.0459 17.3755L4.78809 13.2348H1.31152C1.15527 13.2348 0.999023 13.1958 0.920898 13.0786C0.842773 12.9614 0.803711 12.8442 0.842773 12.688L0.999023 11.7505C0.999023 11.6723 1.07715 11.5551 1.15527 11.477C1.2334 11.3989 1.35059 11.3598 1.46777 11.3598H5.13965L5.9209 6.98483H2.44434C2.28809 6.98483 2.13184 6.94577 2.05371 6.82858C1.97559 6.7114 1.93652 6.59421 1.97559 6.43796L2.13184 5.50046C2.13184 5.42233 2.20996 5.30515 2.28809 5.22702C2.36621 5.1489 2.44434 5.10983 2.60059 5.10983H6.2334L7.01465 0.812958C7.01465 0.734833 7.09277 0.617645 7.1709 0.53952C7.24902 0.461395 7.32715 0.422333 7.4834 0.422333H8.4209C8.57715 0.422333 8.69434 0.500458 8.77246 0.617645C8.85059 0.734833 8.88965 0.85202 8.88965 0.969208L8.14746 5.10983H12.4834L13.2646 0.812958C13.2646 0.734833 13.3428 0.617645 13.4209 0.53952C13.499 0.461395 13.5771 0.422333 13.7334 0.422333H14.6709C14.8271 0.422333 14.9443 0.500458 15.0225 0.617645C15.1006 0.734833 15.1396 0.85202 15.1396 0.969208L14.3975 5.10983H17.874C18.0303 5.10983 18.1475 5.18796 18.2256 5.30515C18.3037 5.42233 18.3428 5.53952 18.3428 5.65671L18.1865 6.59421ZM11.3896 11.3598L12.1709 6.98483H7.7959L7.01465 11.3598H11.3896Z" fill="#363636"/>
</svg>
