<svg width="7" height="5" viewBox="0 0 7 5" fill="none" xmlns="http://www.w3.org/2000/svg">
<path d="M5.66122 1.27252C5.89205 1.09941 6.09979 0.891665 6.26137 0.6493C6.05362 0.74163 5.81126 0.810877 5.56889 0.833959C5.8228 0.683924 6.00746 0.4531 6.09979 0.16457C5.86896 0.303064 5.60352 0.406935 5.33807 0.464641C5.10725 0.222276 4.79563 0.0837812 4.4494 0.0837812C3.78001 0.0837812 3.23757 0.626218 3.23757 1.29561C3.23757 1.38794 3.24911 1.48027 3.27219 1.5726C2.26811 1.51489 1.3679 1.03016 0.767754 0.303064C0.663883 0.476182 0.606177 0.683924 0.606177 0.914748C0.606177 1.33023 0.813919 1.69955 1.14861 1.91883C0.952413 1.90729 0.756213 1.86113 0.594636 1.7688V1.78034C0.594636 2.36894 1.01012 2.85367 1.5641 2.96908C1.47177 2.99216 1.35636 3.01525 1.25248 3.01525C1.1717 3.01525 1.10245 3.00371 1.02166 2.99216C1.1717 3.47689 1.6218 3.82313 2.1527 3.83467C1.73721 4.15783 1.21786 4.35403 0.652342 4.35403C0.548471 4.35403 0.456141 4.34248 0.363812 4.33094C0.894707 4.67718 1.52947 4.87338 2.22195 4.87338C4.4494 4.87338 5.66122 3.03833 5.66122 1.4341C5.66122 1.3764 5.66122 1.33023 5.66122 1.27252Z" fill="white"/>
</svg>
